<svg xmlns="http://www.w3.org/2000/svg" viewBox="0 0 64 64" xmlns:v="https://vecta.io/nano"><path d="M64 0l-7 58L5 26 64 0z" fill="#5e9fdf"/><path d="M64 0L23 37l8 15c7.03-9.84.98-.53 33-52zM43 9.25V12a4 4 0 0 1-4 4h-1.17l-1.42 1.41c-.79.79-2.03.79-2.82 0L32.17 16h-4.48L43 9.25z" fill="#1976d2"/><path d="M41 2v10c0 1.1-.9 2-2 2h-2l-2 2-2-2H19c-1.1 0-2-.9-2-2V2c0-1.1.9-2 2-2h20c1.1 0 2 .9 2 2z" fill="#d38e2a"/><g fill="#fff"><circle cx="36" cy="7" r="2"/><circle cx="29" cy="7" r="2"/><circle cx="22" cy="7" r="2"/></g><path d="M5 47a1 1 0 0 1-.63-1.77l11-9c1.02-.84 2.29.71 1.27 1.55-11.99 9.81-11.12 9.23-11.63 9.23zm7 17c-.9 0-1.35-1.11-.68-1.73l14-13c.97-.9 2.33.57 1.36 1.46C11.42 64.9 12.56 64 12 64zM1 33c-.92 0-1.36-1.15-.65-1.76l3.45-2.98c1-.87 2.31.65 1.31 1.51C1.32 33.05 1.5 32.99 1 32.99zm34 31a1.01 1.01 0 0 1-.73-1.69l8.94-9.42c.91-.96 2.36.41 1.45 1.38C34.98 64.47 35.61 64 35 64z" fill="#f3f3f3"/></svg>