<svg xmlns="http://www.w3.org/2000/svg" viewBox="0 0 64 64" xmlns:v="https://vecta.io/nano"><g fill="#5e9fdf"><path d="M6 0h52c1.1 0 2 .9 2 2v4H4V2c0-1.1.9-2 2-2z"/><path d="M17 0h19a4 4 0 0 1 4 4v2H17V0h0z"/></g><path d="M60 6v42c0 1.1-.9 2-2 2H6c-1.1 0-2-.9-2-2V2c0-1.1.9-2 2-2h12a4 4 0 0 1 4 4v2h38z" fill="#f3f3f3"/><path d="M57 3c0-1.32-2-1.32-2 0s2 1.32 2 0zm-4 0c0-1.32-2-1.32-2 0s2 1.32 2 0z" fill="#1976d2"/><path d="M49,3c0-1.32-2-1.32-2,0s2,1.32,2,0Z" fill="#f3f3f3"/><path d="M37,3c0-1.32-2-1.32-2,0s2,1.32,2,0Z" fill="#1976d2"/><path d="M19,3c0-1.32-2-1.32-2,0s2,1.32,2,0Z" fill="#d38e2a"/><rect x="6" y="21" width="52" height="12" rx="2" fill="#d9d9d9"/><path d="M17.1 27.63L16 27l1.1-.63c1.14-.66.15-2.39-1-1.73l-1.1.63V24c0-1.32-2-1.32-2 0v1.27l-1.1-.63c-1.15-.66-2.15 1.07-1 1.73L12 27l-1.1.63c-1.15.66-.15 2.39 1 1.73l1.1-.63V30c0 1.32 2 1.32 2 0v-1.27l1.1.63c1.15.66 2.15-1.07 1-1.73zm12 0L28 27l1.1-.63c1.14-.66.15-2.39-1-1.73l-1.1.63V24c0-1.32-2-1.32-2 0v1.27l-1.1-.63c-1.15-.66-2.15 1.07-1 1.73L24 27l-1.1.63c-1.15.66-.15 2.39 1 1.73l1.1-.63V30c0 1.32 2 1.32 2 0v-1.27l1.1.63c1.15.66 2.15-1.07 1-1.73zm12 0L40 27l1.1-.63c1.14-.66.15-2.39-1-1.73l-1.1.63V24c0-1.32-2-1.32-2 0v1.27l-1.1-.63c-1.15-.66-2.15 1.07-1 1.73L36 27l-1.1.63c-1.15.66-.15 2.39 1 1.73l1.1-.63V30c0 1.32 2 1.32 2 0v-1.27l1.1.63c1.15.66 2.15-1.07 1-1.73zm12 0L52 27l1.1-.63c1.14-.66.15-2.39-1-1.73l-1.1.63V24c0-1.32-2-1.32-2 0v1.27l-1.1-.63c-1.15-.66-2.15 1.07-1 1.73L48 27l-1.1.63c-1.15.66-.15 2.39 1 1.73l1.1-.63V30c0 1.32 2 1.32 2 0v-1.27l1.1.63c1.15.66 2.15-1.07 1-1.73z" fill="#f3f3f3"/><path d="M19 36h26v4H19zm14.84 14h18.32c-3.49-7.99-14.84-7.98-18.32 0z" fill="#d9d9d9"/><g fill="#5e9fdf"><path d="M45,44c-5.52,0-10,4.48-10,10s4.48,10,10,10,10-4.48,10-10-4.48-10-10-10Zm5,12c-1.1,0-2-.9-2-2s.9-2,2-2,2,.9,2,2-.9,2-2,2Z"/><path d="M11 56h26v-4H11c-1.1 0-2 .9-2 2 0 .81.63 2 2 2z"/><path d="M12 56h4v3c0 .55-.45 1-1 1h-2c-.55 0-1-.45-1-1v-3h0zm7 0h4v3c0 .55-.45 1-1 1h-2c-.55 0-1-.45-1-1v-3h0z"/></g></svg>