<svg xmlns="http://www.w3.org/2000/svg" xmlns:xlink="http://www.w3.org/1999/xlink" viewBox="0 0 64 64" xmlns:v="https://vecta.io/nano"><g fill="#5e9fdf"><rect width="64" height="52" rx="2"/><path d="M51 52H17V0h19.53a4.02 4.02 0 0 1 3.58 2.21l.79 1.58A3.99 3.99 0 0 0 44.48 6h6.53v46z"/></g><path d="M64 6v44c0 1.1-.9 2-2 2H2c-1.1 0-2-.9-2-2V2C0 .9.9 0 2 0h17.53a4.02 4.02 0 0 1 3.58 2.21l.78 1.58A4.02 4.02 0 0 0 27.47 6H64z" fill="#f3f3f3"/><path d="M41 44.18V43c0-4.96-4.04-9-9-9s-9 4.04-9 9v1.18c-1.63.5-2.82 2.02-2.82 3.82v4h23.64v-4c0-1.8-1.19-3.32-2.82-3.82zM32 40a3.01 3.01 0 0 1 3 3v1h-6v-1a3.01 3.01 0 0 1 3-3z" fill="#d9d9d9"/><path d="M38,48c-.55,0-1-.45-1-1v-4c0-2.76-2.24-5-5-5s-5,2.24-5,5v4c0,.55-.45,1-1,1s-1-.45-1-1v-4c0-3.86,3.14-7,7-7s7,3.14,7,7v4c0,.55-.45,1-1,1Z" fill="#d38e2a"/><rect x="22" y="46" width="20" height="18" rx="2" fill="#1976d2"/><g fill="#f3f3f3"><circle cx="38" cy="50" r="1"/><circle cx="38" cy="54" r="1"/></g><path d="M35 54c0-1.84-1.66-3.3-3.56-2.95-1.18.21-2.15 1.17-2.38 2.35-.3 1.56.6 2.94 1.94 3.42V59c0 .55.45 1 1 1h0c.55 0 1-.45 1-1v-2.18A2.99 2.99 0 0 0 35 54z" fill="#5e9fdf"/><rect x="6" y="13" width="52" height="16" rx="4" fill="#d9d9d9"/><g fill="#d38e2a"><use xlink:href="#B"/><use xlink:href="#C"/><use xlink:href="#D"/><use xlink:href="#B" x="12"/><use xlink:href="#E"/><use xlink:href="#D" x="12"/><use xlink:href="#B" x="24"/><use xlink:href="#C" x="24"/><use xlink:href="#D" x="24"/><use xlink:href="#B" x="36"/><use xlink:href="#E" x="24"/><use xlink:href="#D" x="36"/></g><path d="M6 35h14v2H6zm0 6h10v2H6zm52-4H44v-2h14zm0 6H48v-2h10z" fill="#d9d9d9"/><g fill="#1976d2"><circle cx="60" cy="3" r="1"/><circle cx="56" cy="3" r="1"/><circle cx="52" cy="3" r="1"/></g><circle cx="20" cy="3" r="1" fill="#5e9fdf"/><defs ><path id="B" d="M14 25c-.55 0-1-.45-1-1v-6c0-.55.45-1 1-1s1 .45 1 1v6c0 .55-.45 1-1 1z"/><path id="C" d="M16.6,23.5c-.17,0-.34-.04-.5-.13l-5.2-3c-.48-.28-.64-.89-.37-1.37s.89-.64,1.37-.37l5.2,3c.48,.28,.64,.89,.37,1.37-.19,.32-.52,.5-.87,.5Z"/><path id="D" d="M11.4 23.5c-.35 0-.68-.18-.87-.5-.28-.48-.11-1.09.37-1.37l5.2-3c.48-.28 1.09-.11 1.37.37s.11 1.09-.37 1.37l-5.2 3a1.01 1.01 0 0 1-.5.13z"/><path id="E" d="M28.6 23.5a1.01 1.01 0 0 1-.5-.13l-5.2-3a1.01 1.01 0 0 1-.37-1.37 1.01 1.01 0 0 1 1.37-.37l5.2 3a1.01 1.01 0 0 1 .37 1.37c-.19.32-.52.5-.87.5z"/></defs></svg>