<?xml version="1.0" encoding="UTF-8"?><svg id="a" xmlns="http://www.w3.org/2000/svg" viewBox="0 0 64.01 64"><defs><style>.b{fill:#fff;}.c{fill:#5e9fdf;}.d{fill:#e4c290;}.e{fill:#fdfdfd;}.f{fill:#d38e2a;}.g{fill:#f3f3f3;}.h{fill:#1976d2;}</style></defs><rect class="c" x="0" width="56" height="36" rx="3" ry="3"/><path class="h" d="M54,6V30c-2.21,0-4,1.79-4,4H6c0-2.21-1.79-4-4-4V6c2.21,0,4-1.79,4-4H50c0,2.21,1.79,4,4,4Z"/><g><circle class="c" cx="28" cy="18" r="11"/><path class="c" d="M49,19h-6c-1.34,0-1.29-2,0-2h6c1.34,0,1.29,2,0,2Zm-36,0H7c-1.34,0-1.29-2,0-2h6c1.34,0,1.29,2,0,2Z"/></g><path class="e" d="M28,26c-.55,0-1-.45-1-1v-1h-2c-.55,0-1-.45-1-1s.45-1,1-1h3.5c.83,0,1.5-.67,1.5-1.5s-.67-1.5-1.5-1.5h-1c-1.93,0-3.5-1.57-3.5-3.5,0-1.76,1.31-3.22,3-3.46v-1.04c0-.55,.45-1,1-1s1,.45,1,1v1h2c.55,0,1,.45,1,1s-.45,1-1,1h-3.5c-.83,0-1.5,.67-1.5,1.5s.67,1.5,1.5,1.5h1c1.93,0,3.5,1.57,3.5,3.5,0,1.76-1.31,3.22-3,3.46v1.04c0,.55-.45,1-1,1Z"/><g><path class="h" d="M56,30v3c0,1.66-1.34,3-3,3H16v-2H50c0-2.21,1.79-4,4-4h2Z"/><path class="h" d="M54,30c-2.21,0-4,1.79-4,4H16c0-2.21,1.79-4,4-4H54Z"/></g><rect class="f" x="18" y="32" width="46" height="32" rx="2" ry="2"/><path class="d" d="M20,32H62c1.1,0,2,.9,2,2v14H18v-14c0-1.1,.9-2,2-2Z"/><rect class="b" x="22" y="44" width="12" height="8" rx="1" ry="1"/><path class="g" d="M41,56H23c-1.34,0-1.29-2,0-2h18c1.34,0,1.29,2,0,2Zm-9,4h-9c-1.34,0-1.29-2,0-2h9c1.34,0,1.29,2,0,2Zm27-22h-9c-1.34,0-1.29-2,0-2h9c1.34,0,1.29,2,0,2Z"/><path class="b" d="M56,61c-.55,0-1-.45-1-1,0-2.76,2.24-5,5-5,.55,0,1,.45,1,1s-.45,1-1,1c-1.65,0-3,1.35-3,3,0,.55-.45,1-1,1Zm-4,0c-.55,0-1-.45-1-1,0-4.96,4.04-9,9-9,.55,0,1,.45,1,1s-.45,1-1,1c-3.86,0-7,3.14-7,7,0,.55-.45,1-1,1Z"/><path class="f" d="M63,20c-.55,0-.43-.02-3.71-3.29-.39-.39-.39-1.02,0-1.41l3-3c.94-.94,2.35,.48,1.41,1.41l-2.29,2.29,2.29,2.29c.39,.4,.37,1.04-.03,1.43-.18,.18-.43,.28-.68,.28h0Z"/><path class="c" d="M11,44c.55,0,.43,.02,3.71,3.29,.39,.39,.39,1.02,0,1.41l-3,3c-.94,.94-2.35-.48-1.41-1.41l2.29-2.29-2.29-2.29c-.39-.4-.37-1.04,.03-1.43,.18-.18,.43-.28,.68-.28h-.01Z"/></svg>