<?xml version="1.0" encoding="UTF-8"?><svg id="a" xmlns="http://www.w3.org/2000/svg" viewBox="0 0 64.03 64"><defs><style>.d{fill:#5e9fdf;}.e{fill:#e4c290;}.f{fill:#d38e2a;}.g{fill:#f3f3f3;}.h{fill:#1976d2;}</style></defs><rect class="d" x="5.02" y="7" width="54" height="32" rx="2" ry="2"/><path class="h" d="M56.02,13v20c-1.66,0-3,1.34-3,3H11.02c0-1.66-1.34-3-3-3V13c1.66,0,3-1.34,3-3H53.02c0,1.66,1.34,3,3,3Z"/><circle class="d" cx="32.02" cy="23" r="10"/><path class="g" d="M32.52,22h-1c-.83,0-1.5-.67-1.5-1.5s.67-1.5,1.5-1.5h3.5c1.32,0,1.32-2,0-2h-2v-1c0-1.32-2-1.32-2,0v1.05c-1.69,.25-3,1.69-3,3.45,0,1.93,1.57,3.5,3.5,3.5h1c.83,0,1.5,.67,1.5,1.5s-.67,1.5-1.5,1.5h-3.5c-1.32,0-1.32,2,0,2h2v1c0,1.32,2,1.32,2,0v-1.05c1.69-.25,3-1.69,3-3.45,0-1.93-1.57-3.5-3.5-3.5Z"/><path class="d" d="M51.02,24h-4c-1.34,0-1.29-2,0-2h4c1.34,0,1.29,2,0,2Zm-34,0h-4c-1.34,0-1.29-2,0-2h4c1.34,0,1.29,2,0,2Z"/><g><path class="h" d="M11.02,36H53.02v3H11.02v-3Z"/><path class="h" d="M53.02,35v1H11.02v-1c0-2.21,1.79-4,4-4h11.01c3.55,2.67,8.43,2.67,11.98,0h11.01c2.21,0,4,1.79,4,4Z"/><path class="h" d="M38.01,31c-3.55,2.67-8.43,2.67-11.98,0h11.98Z"/></g><rect class="f" x="13.02" y="33" width="38" height="26" rx="2" ry="2"/><g><path class="h" d="M59.02,9v6.78c-1.01,.22-2.03,.28-3,.16v-2.94c-1.66,0-3-1.34-3-3h-4.48c-.35-.96-.52-1.98-.52-3h9c1.1,0,2,.9,2,2Z"/><path class="h" d="M56.02,13v2.94c-3.47-.38-6.35-2.75-7.48-5.94h4.48c0,1.66,1.34,3,3,3Z"/></g><circle class="g" cx="57.02" cy="7" r="7"/><path class="h" d="M56.02,10c-.54,0-.57-.15-2.71-2.29-.94-.94,.48-2.35,1.41-1.41l1.29,1.29,3.29-3.29c.94-.94,2.35,.48,1.41,1.41-4.37,4.37-4.15,4.29-4.71,4.29h.02Z"/><g><rect class="g" x="16.02" y="38" width="8" height="6" rx="1" ry="1"/><path class="g" d="M16.02,47h15v2h-15v-2Zm24-11h8v2h-8v-2Z"/></g><path class="e" d="M19.96,59h-4.94c-1.1,0-2-.9-2-2v-6.94c4.24,.54,7.49,4.42,6.94,8.94Z"/><g><path class="g" d="M47.02,52c-2.97,0-3.92,4-2,4,.55,0,1-.45,1-1s.45-1,1-1c1.32,0,1.32-2,0-2Zm0-4c-3.86,0-6.99,3.14-7,7,0,1.32,2,1.32,2,0,0-2.76,2.24-5,5-5,1.32,0,1.32-2,0-2Z"/><circle class="g" cx="12.02" cy="58" r="6"/></g><path class="h" d="M11.02,61c-.26,0-.51-.1-.71-.29l-1.5-1.5c-.39-.39-.39-1.02,0-1.41s1.02-.39,1.41,0l.79,.79,3.29-3.29c.39-.39,1.02-.39,1.41,0s.39,1.02,0,1.41l-4,4c-.2,.2-.45,.29-.71,.29Z"/><path class="h" d="M8.81,59.21c-.94-.94,.48-2.35,1.41-1.41l.79,.79,3.29-3.29c.94-.94,2.35,.48,1.41,1.41-5.22,5.22-4.2,5.21-6.91,2.5h.01Z"/><g><path id="b" class="d" d="M63.02,25c-.53,0-.67-.26-1.71-1.29-.39-.39-.39-1.02,0-1.41l1-1c.94-.94,2.35,.48,1.41,1.41l-.29,.29,.29,.29c.39,.4,.37,1.04-.03,1.43-.18,.18-.43,.28-.68,.28h0Z"/><path class="d" d="M1.02,25c-.88,0-1.34-1.07-.71-1.71l.29-.29-.29-.29c-.94-.94,.48-2.35,1.41-1.41l1,1c.39,.39,.39,1.02,0,1.41-1.06,1.06-1.19,1.29-1.71,1.29h0Zm8,23c-.88,0-1.34-1.07-.71-1.71l.29-.29-.29-.29c-.94-.94,.48-2.35,1.41-1.41l1,1c.39,.39,.39,1.02,0,1.41-1.06,1.06-1.19,1.29-1.71,1.29h.01Z"/><path id="c" class="d" d="M55.02,48c-.53,0-.67-.26-1.71-1.29-.39-.39-.39-1.02,0-1.41l1-1c.94-.94,2.35,.48,1.41,1.41l-.29,.29,.29,.29c.39,.4,.37,1.04-.03,1.43-.18,.18-.43,.28-.68,.28h0Z"/></g></svg>