<svg xmlns="http://www.w3.org/2000/svg" viewBox="0 0 64 64" xmlns:v="https://vecta.io/nano"><path d="M40 6v52c0 3.31-2.69 6-6 6H6c-3.31 0-6-2.69-6-6V6c0-3.31 2.69-6 6-6 30.32 0 28.68-.17 30.14.4C38.4 1.24 40 3.49 40 6z" fill="#1976d2"/><path d="M38 6v50a4 4 0 0 1-4 4H6a4 4 0 0 1-4-4V6a4 4 0 0 1 4-4h5.28c.43 0 .81.28.95.68.27.83.56 2.32 2.21 2.32h11.12a2.01 2.01 0 0 0 1.9-1.37l.31-.95c.14-.4.52-.68.95-.68l5.77.04C36.33 2.21 38 3.87 38 6z" fill="#fff"/><path d="M38 6v25H2V6a4 4 0 0 1 4-4h5.28c.43 0 .81.28.95.68.27.83.56 2.32 2.21 2.32h11.12a2.01 2.01 0 0 0 1.9-1.37l.31-.95c.14-.4.52-.68.95-.68l5.77.04C36.33 2.21 38 3.87 38 6z" fill="#5e9fdf"/><path d="M27 16c0 6.87-9.02 9.69-12.88 3.81C11.08 14.86 14.64 9 20 9a7.01 7.01 0 0 1 7 7z" fill="#f3f3f3"/><g fill="#d9d9d9"><path d="M26.12,19.41c-2.74,4.79-9.51,4.78-12.24,0,3.43-3.22,8.81-3.21,12.24,0Z"/><circle cx="20" cy="14" r="3"/><path d="M31,58H9c-1.34,0-1.29-2,0-2H31c1.34,0,1.29,2,0,2Z"/></g><path d="M30 17h4v30h-4z" fill="#d38e2a"/><path d="M38 17h2v30h-2z" fill="#1976d2"/><path d="M34 31h4v16h-4z" fill="#f3f3f3"/><path d="M34 17h4v14h-4z" fill="#1976d2"/><path d="M64 21v22c0 1.1-.9 2-2 2H34V19h28c1.1 0 2 .9 2 2z" fill="#5e9fdf"/><g fill="#1976d2"><path d="M30 19h4v26h-4z"/><path d="M62 24v16c-1.66 0-3 1.34-3 3H34V21h25c0 1.66 1.34 3 3 3z"/><path d="M30 21h4v22h-4z"/></g><g fill="#fdfdfd"><circle cx="44" cy="32" r="8"/><path d="M59,33h-4c-1.34,0-1.29-2,0-2h4c1.34,0,1.29,2,0,2Z"/></g><path d="M33,33h-3v-2h3c1.32,0,1.32,2,0,2Z" fill="#d9d9d9"/><path d="M44.5 31h-1c-.66 0-.66-1 0-1H46c1.32 0 1.32-2 0-2h-1v-1c0-1.32-2-1.32-2 0v1.05a2.5 2.5 0 0 0 .5 4.95h1c.66 0 .66 1 0 1H42c-1.32 0-1.32 2 0 2h1v1c0 1.32 2 1.32 2 0v-1.05a2.5 2.5 0 0 0-.5-4.95z" fill="#d38e2a"/><path d="M14 25h12v2H14z" fill="#f3f3f3"/><path d="M5 34h18v2H5zm0 4h20v2H5z" fill="#d9d9d9"/><rect x="5" y="42" width="17" height="12" rx="2" fill="#d38e2a"/><path d="M5,45v2c3.86,0,7,3.14,7,7h2c0-4.96-4.04-9-9-9Z" fill="#e4c290"/></svg>