<svg xmlns="http://www.w3.org/2000/svg" viewBox="0 0 64 64" xmlns:v="https://vecta.io/nano"><g fill="#f3f3f3"><path d="M59 31C59 16.11 46.89 4 32 4S5 16.11 5 31c0 1.32-2 1.32-2 0C3 15.01 16.01 2 32 2s29 13.01 29 29c0 1.32-2 1.32-2 0z"/><path d="M4 2h26v2H4zm30 0h25v2H34z"/></g><path d="M46 34l-4 6H22l-4-6 14-24c1.41 2.41-.91-1.56 14 24z" fill="#d38e2a"/><path d="M41,64H23c-3.35-18.98-3.43-15.5-1-24h20c2.47,8.63,2.3,5.29-1,24Z" fill="#1976d2"/><g fill="#5e9fdf"><rect x="29" width="6" height="6" rx="1"/><rect width="6" height="6" rx="1"/><rect x="58" width="6" height="6" rx="1"/></g><g fill="#d38e2a"><circle cx="4" cy="31" r="3"/><circle cx="60" cy="31" r="3"/></g><g fill="#e4c290"><path d="M33 11.71V30h-2V11.71L32 10l1 1.71z"/><circle cx="32" cy="30" r="3"/></g><path d="M34 64h-4v-9c0-1.1.9-2 2-2 .81 0 2 .63 2 2v9z" fill="#5e9fdf"/></svg>