<svg xmlns="http://www.w3.org/2000/svg" viewBox="0 0 64 64" xmlns:v="https://vecta.io/nano"><rect y="16" width="64" height="44" rx="3" fill="#d38e2a"/><path d="M10,18H61c.55,0,1,.45,1,1V57c0,.55-.45,1-1,1H10V18h0Z" fill="#fff"/><g fill="#f3f3f3"><path d="M54 20v2h4v4h2v-6h-6zm-36 0v2h-4v4h-2v-6h6zm36 36v-2h4v-4h2v6h-6zm-36 0v-2h-4v-4h-2v6h6z"/><circle cx="5" cy="38" r="3"/><path d="M7 33H3c-1.34 0-1.29-2 0-2h4c1.34 0 1.29 2 0 2zm0-4H3c-1.34 0-1.29-2 0-2h4c1.34 0 1.29 2 0 2zm0 20H3c-1.34 0-1.29-2 0-2h4c1.34 0 1.29 2 0 2zm0-4H3c-1.34 0-1.29-2 0-2h4c1.34 0 1.29 2 0 2z"/></g><g fill="#1976d2"><path d="M54.98 8.25a2.53 2.53 0 0 1-2.44 2.82l-33.25.92c-.43.02-.53.17-2.29 1.34-.37.25-.91.73-1.56.27l-5.3-3.79a1 1 0 0 1 0-1.63c5.76-4.13 5.7-4.3 6.43-3.81 2.37 1.6 2.36 1.62 2.74 1.62h33.03c1.31 0 2.5.94 2.64 2.25z"/><path d="M30 10h-8c-1.34 0-1.29-2 0-2h8c1.34 0 1.29 2 0 2zM17 4.67v8.66c-1.03.69-1.14.56-2-.04V4.71c1.01-.71 1.12-.63 2-.04z"/></g></svg>