<svg xmlns="http://www.w3.org/2000/svg" xmlns:xlink="http://www.w3.org/1999/xlink" viewBox="0 0 64 64" xmlns:v="https://vecta.io/nano"><g fill="#1976d2"><path d="M54.98 4.25a2.53 2.53 0 0 1-2.44 2.82l-33.25.92c-.43.02-.53.17-2.29 1.34-.37.25-.91.73-1.56.27l-5.3-3.79a1 1 0 0 1 0-1.63C15.91.06 15.85-.11 16.57.38 18.94 1.98 18.93 2 19.31 2h33.03c1.31 0 2.5.94 2.64 2.25z"/><path d="M30 6h-8c-1.34 0-1.29-2 0-2h8c1.34 0 1.29 2 0 2zM17 .67v8.66c-1.03.69-1.14.56-2-.04V.71c1.01-.71 1.12-.63 2-.04z"/></g><rect x="3" y="16" width="58" height="48" rx="3" fill="#d38e2a"/><path d="M5,26H59V61c0,.55-.45,1-1,1H6c-.55,0-1-.45-1-1V26h0Z" fill="#fff"/><path d="M47,24H17c-1.66,0-3-1.34-3-3s1.34-3,3-3h30c1.66,0,3,1.34,3,3s-1.34,3-3,3Z" fill="#e4c290"/><path d="M25 18h2v6h-2zm12 0h2v6h-2z" fill="#d38e2a"/><path d="M26 10h12c.55 0 1 .45 1 1v5H25v-5c0-.55.45-1 1-1z" fill="#e4c290"/><g fill="#f3f3f3"><path d="M8,29c-1.32,0-1.32,2,0,2s1.32-2,0-2Z"/><use xlink:href="#B"/><use xlink:href="#B" x="4"/><use xlink:href="#B" x="8"/><use xlink:href="#B" x="12"/><use xlink:href="#B" x="16"/><use xlink:href="#B" x="20"/><use xlink:href="#B" x="24"/><use xlink:href="#B" x="28"/><use xlink:href="#B" x="32"/><use xlink:href="#B" x="36"/><use xlink:href="#B" x="40"/><use xlink:href="#B" x="44"/><path d="M8,33c-1.32,0-1.32,2,0,2s1.32-2,0-2Z"/><use xlink:href="#C"/><use xlink:href="#C" x="4"/><use xlink:href="#C" x="8"/><use xlink:href="#C" x="12"/><use xlink:href="#C" x="16"/><use xlink:href="#C" x="20"/><use xlink:href="#C" x="24"/><use xlink:href="#C" x="28"/><use xlink:href="#C" x="32"/><use xlink:href="#C" x="36"/><use xlink:href="#C" x="40"/><use xlink:href="#C" x="44"/><path d="M8,37c-1.32,0-1.32,2,0,2s1.32-2,0-2Z"/><use xlink:href="#D"/><use xlink:href="#D" x="4"/><use xlink:href="#D" x="8"/><use xlink:href="#D" x="12"/><use xlink:href="#D" x="16"/><use xlink:href="#D" x="20"/><use xlink:href="#D" x="24"/><use xlink:href="#D" x="28"/><use xlink:href="#D" x="32"/><use xlink:href="#D" x="36"/><use xlink:href="#D" x="40"/><use xlink:href="#D" x="44"/><path d="M8,41c-1.32,0-1.32,2,0,2s1.32-2,0-2Z"/><use xlink:href="#E"/><use xlink:href="#E" x="4"/><use xlink:href="#E" x="8"/><use xlink:href="#E" x="12"/><use xlink:href="#E" x="16"/><use xlink:href="#E" x="20"/><use xlink:href="#E" x="24"/><use xlink:href="#E" x="28"/><use xlink:href="#E" x="32"/><use xlink:href="#E" x="36"/><use xlink:href="#E" x="40"/><use xlink:href="#E" x="44"/><path d="M8,45c-1.32,0-1.32,2,0,2s1.32-2,0-2Z"/><use xlink:href="#F"/><use xlink:href="#F" x="4"/><use xlink:href="#F" x="8"/><use xlink:href="#F" x="12"/><use xlink:href="#F" x="16"/><use xlink:href="#F" x="20"/><use xlink:href="#F" x="24"/><use xlink:href="#F" x="28"/><use xlink:href="#F" x="32"/><use xlink:href="#F" x="36"/><use xlink:href="#F" x="40"/><use xlink:href="#F" x="44"/><path d="M8,49c-1.32,0-1.32,2,0,2s1.32-2,0-2Z"/><use xlink:href="#G"/><use xlink:href="#G" x="4"/><use xlink:href="#G" x="8"/><use xlink:href="#G" x="12"/><use xlink:href="#G" x="16"/><use xlink:href="#G" x="20"/><use xlink:href="#G" x="24"/><use xlink:href="#G" x="28"/><use xlink:href="#G" x="32"/><use xlink:href="#G" x="36"/><use xlink:href="#G" x="40"/><use xlink:href="#G" x="44"/><path d="M8,53c-1.32,0-1.32,2,0,2s1.32-2,0-2Z"/><use xlink:href="#H"/><use xlink:href="#H" x="4"/><use xlink:href="#H" x="8"/><use xlink:href="#H" x="12"/><use xlink:href="#H" x="16"/><use xlink:href="#H" x="20"/><use xlink:href="#H" x="24"/><use xlink:href="#H" x="28"/><use xlink:href="#H" x="32"/><use xlink:href="#H" x="36"/><use xlink:href="#H" x="40"/><use xlink:href="#H" x="44"/><path d="M8,57c-1.32,0-1.32,2,0,2s1.32-2,0-2Z"/><use xlink:href="#I"/><use xlink:href="#I" x="4"/><use xlink:href="#I" x="8"/><use xlink:href="#I" x="12"/><use xlink:href="#I" x="16"/><use xlink:href="#I" x="20"/><use xlink:href="#I" x="24"/><use xlink:href="#I" x="28"/><use xlink:href="#I" x="32"/><use xlink:href="#I" x="36"/><use xlink:href="#I" x="40"/><use xlink:href="#I" x="44"/></g><defs ><path id="B" d="M12,29c-1.32,0-1.32,2,0,2s1.32-2,0-2Z"/><path id="C" d="M12,33c-1.32,0-1.32,2,0,2s1.32-2,0-2Z"/><path id="D" d="M12,37c-1.32,0-1.32,2,0,2s1.32-2,0-2Z"/><path id="E" d="M12,41c-1.32,0-1.32,2,0,2s1.32-2,0-2Z"/><path id="F" d="M12,45c-1.32,0-1.32,2,0,2s1.32-2,0-2Z"/><path id="G" d="M12,49c-1.32,0-1.32,2,0,2s1.32-2,0-2Z"/><path id="H" d="M12,53c-1.32,0-1.32,2,0,2s1.32-2,0-2Z"/><path id="I" d="M12,57c-1.32,0-1.32,2,0,2s1.32-2,0-2Z"/></defs></svg>