<svg xmlns="http://www.w3.org/2000/svg" viewBox="0 0 64 64" xmlns:v="https://vecta.io/nano"><g fill="#5e9fdf"><rect x="6" y="8" width="58" height="45" rx="2"/><path d="M51 60H17V8h19.53a4.01 4.01 0 0 1 3.58 2.21l.79 1.58A3.99 3.99 0 0 0 44.48 14h6.53v46z"/></g><path d="M64 14v44a1.94 1.94 0 0 1-.51 1.32A1.96 1.96 0 0 1 62 60H2a1.96 1.96 0 0 1-1.49-.68A1.94 1.94 0 0 1 0 58V10c0-1.1.9-2 2-2h17.53a4.02 4.02 0 0 1 3.58 2.21l.78 1.58A4.02 4.02 0 0 0 27.47 14H64z" fill="#f3f3f3"/><g fill="#1976d2"><circle cx="60" cy="11" r="1"/><circle cx="56" cy="11" r="1"/><circle cx="52" cy="11" r="1"/></g><circle cx="38" cy="28" r="4" fill="#d9d9d9"/><circle cx="20" cy="11" r="1" fill="#5e9fdf"/><path d="M37 8h-4V6c0-1.1.9-2 2-2s2 .9 2 2v2zm1.14 19.24c1.15.82 1.1 2.53-.08 3.31a8.7 8.7 0 0 1-4.81 1.44c-3.94 0-7.28-2.62-8.37-6.2-.75.36-1.67.23-2.29-.39-.79-.78-.79-2.04 0-2.82l2.5-2.5c.57-.58 1.43-.75 2.18-.44a2.01 2.01 0 0 1 1.23 1.85v1.55c0 2.4 1.69 4.56 4.06 4.9a4.66 4.66 0 0 0 3.3-.74c.7-.46 1.6-.46 2.28.03h0z" fill="#c8c8c8"/><rect x="31" width="8" height="6" rx="2" fill="#d38e2a"/><path d="M21.9 60H2a1.96 1.96 0 0 1-1.49-.68l7.08-11.57c.73-1.2 2.01-1.91 3.41-1.91s2.68.71 3.41 1.91l7.44 12.16.05.09z" fill="#d9d9d9"/><path d="M9.29 48.79L1.86 60.96A2 2 0 0 0 3.57 64h14.87c1.56 0 2.52-1.71 1.71-3.04L12.72 48.8c-.78-1.28-2.63-1.28-3.41 0z" fill="#d38e2a"/><g fill="#f3f3f3"><rect x="10" y="52" width="2" height="6" rx="1"/><circle cx="11" cy="61" r="1"/></g><path d="M63.49 59.32A1.96 1.96 0 0 1 62 60H42.1l.05-.09 7.44-12.16c.73-1.2 2.01-1.91 3.41-1.91s2.68.71 3.41 1.91l7.08 11.57z" fill="#d9d9d9"/><path d="M51.29 48.79l-7.43 12.16a2 2 0 0 0 1.71 3.04h14.87c1.56 0 2.52-1.71 1.71-3.04l-7.43-12.16c-.78-1.28-2.63-1.28-3.41 0z" fill="#d38e2a"/><g fill="#f3f3f3"><rect x="52" y="52" width="2" height="6" rx="1"/><circle cx="53" cy="61" r="1"/></g><g fill="#d9d9d9"><path d="M4 36h16v2H4zm0 6h24v2H4zm14 6h24v2H18zm6-12h36v2H24zm8 6h28v2H32z"/><circle cx="59" cy="20" r="1"/><circle cx="55" cy="20" r="1"/><circle cx="51" cy="20" r="1"/><circle cx="5" cy="20" r="1"/></g></svg>