<?xml version="1.0" encoding="UTF-8"?><svg id="a" xmlns="http://www.w3.org/2000/svg" viewBox="0 0 50 64"><defs><style>.b{fill:#5e9fdf;}.c{fill:#d38e2a;}.d{fill:#f3f3f3;}.e{fill:#1976d2;}</style></defs><g><path class="b" d="M36,10v54H0V10C0,6.13,6.95,0,18,0c7.39,0,12.95,2.75,15.82,5.72,1.42,1.47,2.18,3,2.18,4.28Z"/><path class="b" d="M36,10H0C0,6.13,6.95,0,18,0s18,6.13,18,10ZM3,13h6v6H3v-6Zm8,0h6v6h-6v-6Zm8,0h6v6h-6v-6Zm8,0h6v6h-6v-6ZM3,21h6v6H3v-6Zm8,0h6v6h-6v-6Zm8,0h6v6h-6v-6Zm8,0h6v6h-6v-6ZM3,29h6v6H3v-6Zm8,0h6v6h-6v-6Zm8,0h6v6h-6v-6Zm8,0h6v6h-6v-6ZM3,37h6v6H3v-6Zm8,0h6v6h-6v-6Zm8,0h6v6h-6v-6Zm8,0h6v6h-6v-6ZM3,45h6v6H3v-6Zm8,0h6v6h-6v-6Zm8,0h6v6h-6v-6Zm8,0h6v6h-6v-6ZM3,53h6v6H3v-6Zm8,0h6v6h-6v-6Zm8,0h6v6h-6v-6Zm8,0h6v6h-6v-6Z"/></g><path class="e" d="M34,10H2C2,5.58,9.16,2,18,2c6.43,0,11.98,1.9,14.52,4.63,.95,1.02,1.48,2.17,1.48,3.37Z"/><path class="b" d="M22,8H14c-1.34,0-1.29-2,0-2h8c1.34,0,1.29,2,0,2Z"/><path class="e" d="M36,10V27.36l-3.67,.61c-.81,.15-1.67-.26-2.06-.97h2.73v-6h-3.91c-.3-.64-.54-1.31-.7-2h4.61v-6h-4.62c.27-1.07,.69-2.07,1.23-3h4.39c0-1.2-.53-2.35-1.48-3.37,.41-.33,.85-.64,1.3-.91,1.42,1.47,2.18,3,2.18,4.28Z"/><path class="b" d="M33,13v6h-4.61c-.53-1.96-.51-4.07,0-6h4.62Zm-3.91,8h3.91v6h-2.73c-.18-.3-.27-.64-.27-1,0-4.67,.22-2.53-.91-5Z"/><path class="e" d="M34,10h-4.39c.75-1.3,1.74-2.44,2.91-3.37,.95,1.02,1.48,2.17,1.48,3.37Z"/><path class="c" d="M50,16c0,7.18-7.33,11.91-13.7,9.28l-4.3,.72v-4.01c-4.89-6.48-.3-15.99,8-15.99,5.52,0,10,4.48,10,10Z"/><path class="d" d="M42,21.17c-.77,0-1.54-.29-2.12-.88l-4.17-4.17c-.57-.57-.88-1.32-.88-2.12s.31-1.56,.88-2.12l1.59-1.59c.39-.39,1.02-.39,1.41,0l1,1c.39,.39,.39,1.02,0,1.41l-1.29,1.29,3.59,3.59,1.29-1.29c.39-.39,1.02-.39,1.41,0l1,1c.39,.39,.39,1.02,0,1.41l-1.59,1.59c-.58,.58-1.35,.88-2.12,.88Z"/></svg>