<svg xmlns="http://www.w3.org/2000/svg" viewBox="0 0 64 64" xmlns:v="https://vecta.io/nano"><g fill="#d38e2a"><path d="M54 20c5.52 0 10-4.48 10-10S59.52 0 54 0 44 4.48 44 10s4.48 10 10 10z"/><path d="M53 25L39 11l7.93-8.07 14.14 14.14L53 25z"/><rect x="41.96" y="5.77" width="7.07" height="25.46" rx="1" transform="matrix(.707107 -.707107 .707107 .707107 .25 37.59)"/></g><path d="M37 15L17 35c-2.46 2.46-3.09 6.06-1.89 9.11-.15-.15.12-.33-1.61 1.39a3.54 3.54 0 0 0 0 5 3.54 3.54 0 0 0 5 0c1.73-1.73 1.54-1.46 1.39-1.61 2.74 1.07 5.93.69 8.35-1.23.53-.39-.73.83 20.76-20.66L37 15z" fill="#f3f3f3"/><path d="M45 31L28.24 47.66c-2.34 1.86-5.5 2.34-8.35 1.23L20 49l-1.43 1.43c-1.19 1.19-3.09 1.47-4.49.54-1.93-1.28-2.13-3.92-.58-5.47 1.73-1.73 1.46-1.54 1.61-1.39-1.2-3.05-.57-6.65 1.89-9.11l8-8c2.21-2.21 5.79-2.21 8 0 1.26 1.26 3.04 1.85 4.8 1.6A8.48 8.48 0 0 1 45 31z" fill="#5e9fdf"/><path d="M29.71 46.29l-1.47 1.37-.95-.95c-.94-.94.48-2.36 1.42-1.42l1 1zm4-4l-1.42 1.42-3-3c-.94-.94.48-2.36 1.42-1.42l3 3zm4-4l-1.42 1.42-1-1c-.94-.94.48-2.36 1.42-1.42l1 1zm4-4l-1.42 1.42-3-3c-.94-.94.48-2.36 1.42-1.42l3 3zm4-4l-1.42 1.42-1-1c-.94-.94.48-2.36 1.42-1.42l1 1z" fill="#f3f3f3"/><path d="M16 60c0-2.21-4-6-4-6s-4 3.79-4 6a4 4 0 1 0 8 0z" fill="#5e9fdf"/><path d="M0 4h10v2H0zm64 56H48v-2h16zm0 4H54v-2h10z" fill="#f3f3f3"/></svg>