<svg xmlns="http://www.w3.org/2000/svg" viewBox="0 0 64 64" xmlns:v="https://vecta.io/nano"><path d="M30 13.11V5.08C16.02 6.1 5 17.76 5 32s11.02 25.9 25 26.92v-8.03a19.01 19.01 0 0 1 0-37.78z" fill="#1976d2"/><path d="M34 5.08v8.03c15.08 1.58 22.15 19.3 12.77 30.83l5.68 5.68A26.89 26.89 0 0 0 59 32C59 17.76 47.98 6.1 34 5.08z" fill="#d38e2a"/><path d="M34,50.89v8.03c5.95-.43,11.37-2.8,15.62-6.47l-5.68-5.68c-2.77,2.25-6.19,3.73-9.94,4.12Z" fill="#5e9fdf"/><path d="M38 28H26c-.55 0-1-.45-1-1v-4a3.01 3.01 0 0 1 3-3h8a3.01 3.01 0 0 1 3 3v4c0 .55-.45 1-1 1zm-11-2h10v-3c0-.55-.45-1-1-1h-8c-.55 0-1 .45-1 1v3zm-7 3h24v12c0 1.1-.9 2-2 2H22c-1.1 0-2-.9-2-2V29h0z" fill="#d38e2a"/><path d="M45 27c0 3.71.11 3.86-.4 4.53l-2 2.67c-.38.5-.97.8-1.6.8H23c-.63 0-1.22-.3-1.6-.8-2.23-2.97-2.4-3.02-2.4-3.87V27c0-1.1.9-2 2-2h22c1.1 0 2 .9 2 2z" fill="#e4c290"/><path d="M38 37c-.29 0-1-.22-1-1v-2c0-.55.45-1 1-1 .29 0 1 .22 1 1v2c0 .55-.45 1-1 1zm-12 0c-.29 0-1-.22-1-1v-2c0-.55.45-1 1-1 .29 0 1 .22 1 1v2c0 .55-.45 1-1 1z" fill="#f3f3f3"/><path d="M50 16c-.88 0-1.34-1.07-.71-1.71l4-4A.99.99 0 0 1 54 10h9c.55 0 1 .45 1 1s-.45 1-1 1h-8.59l-3.71 3.71a.98.98 0 0 1-.71.29zm13-8h-6c-.55 0-1-.45-1-1s.45-1 1-1h6c.55 0 1 .45 1 1s-.45 1-1 1zM10 58H1c-.55 0-1-.45-1-1s.45-1 1-1h8.59l5.71-5.71c.39-.39 1.02-.39 1.41 0s.39 1.02 0 1.41l-6 6a.99.99 0 0 1-.71.29zm-5 4H1c-.55 0-1-.45-1-1s.45-1 1-1h4c.55 0 1 .45 1 1s-.45 1-1 1z" fill="#d9d9d9"/><path d="M0 50h4v4H0z" fill="#1976d2"/><path d="M60 14h4v4h-4z" fill="#d38e2a"/></svg>