<svg xmlns="http://www.w3.org/2000/svg" viewBox="0 0 64 64" xmlns:v="https://vecta.io/nano"><path d="M58.7 29h4.04c.6 0 1.07-.52 1-1.12C61.89 13.5 50.5 2.11 36.12.26c-.59-.08-1.12.4-1.12 1V5.3a.99.99 0 0 0 .86.98c11.26 1.68 20.17 10.59 21.85 21.85a1 1 0 0 0 .98.86z" fill="#d38e2a"/><path d="M48.11 53.47l2.88 2.84c.43.43.4 1.15-.1 1.51-6.01 4.42-13.64 6.78-21.81 6.05C13.35 62.47.85 49.46.04 33.69-.84 16.49 11.78 2.34 27.88.26c.59-.08 1.12.4 1.12 1V5.3c0 .5-.37.91-.86.99C14.86 8.28 5.06 20.17 6.08 33.99c1.46 19.82 24.24 30.87 40.76 19.39a1 1 0 0 1 1.28.1zm15.63-17.35c-.68 5.3-2.67 10.21-5.62 14.37-.35.5-1.08.55-1.51.12l-2.9-2.85c-.35-.34-.39-.87-.12-1.27 2.11-3.13 3.55-6.73 4.13-10.62a.99.99 0 0 1 .98-.86h4.04c.6 0 1.08.52 1 1.12z" fill="#5e9fdf"/><circle cx="32" cy="32" r="22" fill="#1976d2"/><path d="M43.12 25h9.74a16.29 16.29 0 0 0-.79-2h-9.54c-1.66-5.03-4.7-9.55-8.82-12.93-1.05-.09-2.37-.09-3.42 0-4.12 3.38-7.16 7.9-8.82 12.93h-9.54a16.29 16.29 0 0 0-.79 2h9.74c-1.14 4.56-1.2 9.22 0 14h-9.74a16.29 16.29 0 0 0 .79 2h9.54c1.66 5.03 4.7 9.55 8.82 12.93 1.05.09 2.37.09 3.42 0 4.12-3.38 7.16-7.9 8.82-12.93h9.54a16.29 16.29 0 0 0 .79-2h-9.74c1.14-4.56 1.2-9.22 0-14zM32 11.26c3.88 3.04 6.77 7.14 8.43 11.74H23.57c1.66-4.6 4.55-8.7 8.43-11.74zm0 41.48C28.12 49.7 25.23 45.6 23.57 41h16.86c-1.66 4.6-4.55 8.7-8.43 11.74zM41.05 39h-18.1c-1.27-4.61-1.27-9.38 0-14h18.1c1.27 4.61 1.27 9.38 0 14z" fill="#f3f3f3"/></svg>