<svg xmlns="http://www.w3.org/2000/svg" xmlns:xlink="http://www.w3.org/1999/xlink" viewBox="0 0 64 64" xmlns:v="https://vecta.io/nano"><path d="M52 8v48c0 3.64-2.43 6.71-5.75 7.68-.71.21-1.47.32-2.25.32H20a8 8 0 0 1-8-8V8a8 8 0 0 1 8-8h24a8 8 0 0 1 8 8z" fill="#5e9fdf"/><path d="M49 9v45c0 3.31-2.69 6-6 6H21c-3.31 0-6-2.69-6-6V9c0-3.31 2.69-6 6-6h3.29a.98.98 0 0 1 .94.68l.31.95A2.01 2.01 0 0 0 27.44 6h9.12a2.01 2.01 0 0 0 1.9-1.37l.31-.94a1 1 0 0 1 .95-.69H43c3.31 0 6 2.69 6 6z" fill="#fff"/><path d="M38,19c-.55,0-1-.45-1-1v-2c0-2.76-2.24-5-5-5s-5,2.24-5,5v2c0,.55-.45,1-1,1s-1-.45-1-1v-2c0-3.86,3.14-7,7-7s7,3.14,7,7v2c0,.55-.45,1-1,1Z" fill="#d38e2a"/><rect x="22.18" y="17" width="19.64" height="18" rx="2" fill="#1976d2"/><g fill="#f3f3f3"><circle cx="38" cy="21" r="1"/><circle cx="38" cy="25" r="1"/></g><path d="M35 25c0-1.84-1.66-3.3-3.56-2.95-1.18.21-2.15 1.17-2.38 2.35-.3 1.56.6 2.94 1.94 3.42V30c0 .55.45 1 1 1h0c.55 0 1-.45 1-1v-2.18A2.99 2.99 0 0 0 35 25z" fill="#5e9fdf"/><path d="M49 37h3v16h-3zm-37 0h3v16h-3z" fill="#1976d2"/><path d="M15 37h34v16H15z" fill="#f3f3f3"/><rect x="6" y="39" width="52" height="12" rx="2" fill="#d38e2a"/><g fill="#f3f3f3"><use xlink:href="#B"/><use xlink:href="#C"/><use xlink:href="#D"/><use xlink:href="#B" x="12"/><use xlink:href="#C" x="12"/><use xlink:href="#D" x="12"/><use xlink:href="#B" x="24"/><use xlink:href="#C" x="24"/><use xlink:href="#D" x="24"/><use xlink:href="#B" x="36"/><use xlink:href="#C" x="36"/><use xlink:href="#D" x="36"/></g><rect x="21" y="56" width="22" height="2" rx="1" fill="#d9d9d9"/><defs ><path id="B" d="M14 49c-.55 0-1-.45-1-1v-6c0-.55.45-1 1-1s1 .45 1 1v6c0 .55-.45 1-1 1z"/><path id="C" d="M16.6 47.5a1.01 1.01 0 0 1-.5-.13l-5.2-3a1.01 1.01 0 0 1-.37-1.37 1.01 1.01 0 0 1 1.37-.37l5.2 3a1.01 1.01 0 0 1 .37 1.37c-.19.32-.52.5-.87.5z"/><path id="D" d="M11.4 47.5c-.35 0-.68-.18-.87-.5-.28-.48-.11-1.09.37-1.37l5.2-3c.48-.28 1.09-.11 1.37.37s.11 1.09-.37 1.37l-5.2 3a1.01 1.01 0 0 1-.5.13z"/></defs></svg>