<svg xmlns="http://www.w3.org/2000/svg" viewBox="0 0 64 64" xmlns:v="https://vecta.io/nano"><path d="M32 0l-1.4 1.28c-6.2 5.68-7.64 14.9-3.47 22.2L32 32l4.87-8.52c4.17-7.3 2.73-16.52-3.47-22.2L32 0z" fill="#1976d2"/><rect x="13" y="32" width="38" height="4" rx="1" fill="#d9d9d9"/><path d="M45.14 64H18.86a1.99 1.99 0 0 1-1.99-1.86L15 36h34l-1.87 26.14A2 2 0 0 1 45.14 64z" fill="#f3f3f3"/><path d="M31,32h-3c0-11.56,9.37-21,21-21h3c0,11.56-9.37,21-21,21Z" fill="#1976d2"/><g fill="#5e9fdf"><path d="M33,32h3c0-11.56-9.37-21-21-21h-3c0,11.56,9.37,21,21,21Z"/><path d="M23,32h9c0-8.28-6.71-15-15-15H8c0,8.28,6.71,15,15,15Z"/><path d="M41,32h-9c0-8.28,6.71-15,15-15h9c0,8.28-6.71,15-15,15Z"/></g><path d="M19 39h12v2H19zm0 4h8v2h-8z" fill="#fff"/></svg>