<?xml version="1.0" encoding="UTF-8"?><svg id="a" xmlns="http://www.w3.org/2000/svg" viewBox="0 0 64 64"><defs><style>.b{fill:#fdfdfd;}.c{fill:#d38e2a;}.d{fill:#f3f3f3;}.e{fill:#d9d9d9;}.f{fill:#1976d2;}</style></defs><path class="f" d="M2,5H52c1.1,0,2,.9,2,2v4H0V7c0-1.1,.9-2,2-2Z"/><path class="d" d="M0,11H54V59H0V11Z"/><path class="c" d="M7,8c-1.66,0-3-1.34-3-3V3c0-1.66,1.34-3,3-3s3,1.34,3,3v2c0,1.66-1.34,3-3,3Zm20,0c-1.66,0-3-1.34-3-3V3c0-1.66,1.34-3,3-3s3,1.34,3,3v2c0,1.66-1.34,3-3,3Zm20,0c-1.66,0-3-1.34-3-3V3c0-1.66,1.34-3,3-3s3,1.34,3,3v2c0,1.66-1.34,3-3,3Z"/><g><path class="f" d="M8,26c-2.21,0-4-1.79-4-4v-4c0-2.21,1.79-4,4-4s4,1.79,4,4v4c0,2.21-1.79,4-4,4Zm0-10c-1.1,0-2,.9-2,2v4c0,1.1,.9,2,2,2s2-.9,2-2v-4c0-1.1-.9-2-2-2Z"/><path class="f" d="M17,26c-.55,0-1-.45-1-1v-7.59l-.29,.29c-.39,.39-1.02,.39-1.41,0s-.39-1.02,0-1.41l2-2c.29-.29,.72-.37,1.09-.22,.37,.15,.62,.52,.62,.92v10c0,.55-.45,1-1,1Z"/></g><path class="e" d="M22,15h29v2H22v-2Zm0,4h29v2H22v-2Zm0,4h22v2H22v-2Z"/><g><rect class="f" x="4" y="29" width="6" height="6" rx="1" ry="1"/><rect class="f" x="14" y="29" width="6" height="6" rx="1" ry="1"/><rect class="f" x="24" y="29" width="6" height="6" rx="1" ry="1"/><rect class="f" x="34" y="29" width="6" height="6" rx="1" ry="1"/><rect class="f" x="44" y="29" width="6" height="6" rx="1" ry="1"/><rect class="f" x="4" y="39" width="6" height="6" rx="1" ry="1"/><rect class="f" x="14" y="39" width="6" height="6" rx="1" ry="1"/><rect class="f" x="24" y="39" width="6" height="6" rx="1" ry="1"/></g><rect class="c" x="34" y="39" width="6" height="6" rx="1" ry="1"/><g><rect class="f" x="44" y="39" width="6" height="6" rx="1" ry="1"/><rect class="f" x="4" y="49" width="6" height="6" rx="1" ry="1"/><rect class="f" x="14" y="49" width="6" height="6" rx="1" ry="1"/><rect class="f" x="24" y="49" width="6" height="6" rx="1" ry="1"/><rect class="f" x="34" y="49" width="6" height="6" rx="1" ry="1"/></g><path class="e" d="M54,40.05v18.95h-12.53c-2.67-5.12-1.64-11.38,2.53-15.37v.37c0,.55,.45,1,1,1h4c.55,0,1-.45,1-1v-3.65c1.5-.36,3.09-.41,4-.3Z"/><path class="f" d="M50,40.35v3.65c0,.55-.45,1-1,1h-4c-.55,0-1-.45-1-1v-.37c1.67-1.61,3.74-2.75,6-3.28Z"/><circle class="c" cx="53" cy="53" r="11"/><path class="b" d="M57,58c-.56,0-.3,.12-4.71-4.29-.41-.41-.29-.16-.29-8.71,0-1.32,2-1.32,2,0v7.59l3.71,3.71c.39,.4,.37,1.04-.03,1.43-.18,.18-.43,.28-.68,.28h0Z"/></svg>