<svg xmlns="http://www.w3.org/2000/svg" viewBox="0 0 64 64" xmlns:v="https://vecta.io/nano"><path d="M46 12v40a8 8 0 0 1-8 8H24a8 8 0 0 1-8-8V12c0-3.16 1.83-5.89 4.49-7.19C22.67 3.74 22.79 4 38 4a8 8 0 0 1 8 8z" fill="#5e9fdf"/><g fill="#f3f3f3"><circle cx="31" cy="18" r="9"/><circle cx="31" cy="46" r="9"/></g><path d="M26 14h2v4h-2zm8 0h2v4h-2zm-4 6h2v4h-2zm-4 22h2v4h-2zm8 0h2v4h-2zm-4 6h2v4h-2z" fill="#d9d9d9"/><path d="M46 47.22V52a8 8 0 0 1-8 8h-2.06c-1.57-3.14-.7-5.97-.7-6.07a8.93 8.93 0 0 0 4.52-5.87c1.82-.98 4.01-1.33 6.24-.84z" fill="#1976d2"/><path d="M39.76 48.06a8.93 8.93 0 0 1-4.52 5.87c.59-2.55 2.27-4.67 4.52-5.87z" fill="#d9d9d9"/><circle cx="46" cy="54" r="9" fill="#d38e2a"/><path d="M48.13 55.88c-1.15-1.14-3.1-1.14-4.26 0-.95.93-2.35-.5-1.4-1.42a5 5 0 0 1 7.06 0c.94.93-.47 2.34-1.4 1.42zm3.53-2.54c-.63 0-.66-.38-1.57-1.02-2.73-1.96-6.63-1.69-9.04.73-.94.94-2.35-.48-1.41-1.42 3.54-3.53 9.23-3.49 12.73 0 .63.63.18 1.71-.71 1.71zM47 58c0-1.32-2-1.32-2 0s2 1.32 2 0z" fill="#fdfdfd"/><path d="M21 19c0 2.76-2.24 5-5 5V12c0-3.16 1.83-5.89 4.49-7.19C21.18 6.2 21 6.03 21 19z" fill="#1976d2"/><path d="M14,22c-2.76,0-5-2.23-5-5V5c0-2.76,2.24-5,5-5s5,2.23,5,5v12c0,2.76-2.24,5-5,5Z" fill="#d9d9d9"/><path d="M14,20c-1.66,0-3-1.34-3-3V5c0-1.66,1.34-3,3-3s3,1.34,3,3v12c0,1.66-1.34,3-3,3Z" fill="#c8c8c8"/><circle cx="14" cy="5" r="3" fill="#d38e2a"/></svg>