<svg xmlns="http://www.w3.org/2000/svg" viewBox="0 0 64 64" xmlns:v="https://vecta.io/nano"><path d="M45 18v16c0 6.08-4.92 11-11 11s-11-4.92-11-11V18c0-7.45 7.2-12.58 14-10.58A10.98 10.98 0 0 1 45 18z" fill="#5e9fdf"/><path d="M21 30v4c0 7.18 5.82 13 13 13s13-5.82 13-13v-4c0-1.1.9-2 2-2 .81 0 2 .63 2 2v4c0 9.39-7.61 17-17 17s-17-7.61-17-17v-4c0-1.1.9-2 2-2 .81 0 2 .63 2 2z" fill="#d9d9d9"/><path d="M21 30h2v2h-2zm-4 2h-1c-1.34 0-1.29-2 0-2h1v2zm30 0h-2v-2h2zm4 0h1c1.34 0 1.29-2 0-2h-1v2z" fill="#d38e2a"/><path d="M32 49h4v15h-4z" fill="#d9d9d9"/><path d="M44.95 17H41a4 4 0 0 1-4-4V7.42c4.25 1.18 7.55 4.94 7.95 9.58z" fill="#1976d2"/><path d="M57 2v11c0 1.1-.9 2-2 2h-2l-2 2-2-2h-8c-1.1 0-2-.9-2-2V2c0-1.1.9-2 2-2h14c1.1 0 2 .9 2 2z" fill="#d38e2a"/><path d="M27 22h-4v-4h4c1.1 0 2 .9 2 2 0 .81-.63 2-2 2zm0 6h-4v-4h4c1.1 0 2 .9 2 2 0 .81-.63 2-2 2zm0 6h-4v-4h4c1.1 0 2 .9 2 2 0 .81-.63 2-2 2zm14-12h4v-4h-4c-1.1 0-2 .9-2 2 0 .81.63 2 2 2zm0 6h4v-4h-4c-1.1 0-2 .9-2 2 0 .81.63 2 2 2zm0 6h4v-4h-4c-1.1 0-2 .9-2 2 0 .81.63 2 2 2z" fill="#1976d2"/><path d="M47 9c0-2.9 2-2.84 2-4 0-1.32-2-1.32-2 0s-2 1.32-2 0a3.01 3.01 0 0 1 3-3 3.01 3.01 0 0 1 3 3c0 2.46-2 2.06-2 4 0 1.32-2 1.32-2 0zm2 3c0-1.32-2-1.32-2 0s2 1.32 2 0z" fill="#f3f3f3"/><g fill="#1976d2"><rect x="7" y="14" width="14" height="10" rx="1"/><path d="M9 24l2 2 2-2H9z"/></g><path d="M19 19c0-1.32-2-1.32-2 0s2 1.32 2 0zm-4 0c0-1.32-2-1.32-2 0s2 1.32 2 0z" fill="#5e9fdf"/><path d="M11,19c0-1.32-2-1.32-2,0s2,1.32,2,0Z" fill="#f3f3f3"/></svg>