<svg xmlns="http://www.w3.org/2000/svg" viewBox="0 0 64 64" xmlns:v="https://vecta.io/nano"><path d="M7.004 10L17.002.002 20 3l-9.998 9.998zm36.993-7.003l2.998-2.998 9.998 9.998-2.998 2.998zM7.006 54.003l2.998-2.998 9.998 9.998-2.998 2.998zM43.999 61l9.998-9.998L56.996 54l-9.998 9.998z" fill="#f3f3f3"/><path d="M10 3h44v58H10z" fill="#5e9fdf"/><path d="M10 3h44v32H10z" fill="#1976d2"/><path d="M20 3L10 13V7l4-4h6zM10 51l10 10h-6l-4-4v-6zM54 7v6L44 3h6l4 4z" fill="#5e9fdf"/><g fill="#1976d2"><path d="M23,35c0,7.15-5.8,13-13,13v-13h13Z"/><path d="M23 35H10V22c7.18 0 13 5.82 13 13z"/></g><path d="M44 61l10-10v6l-4 4h-6z" fill="#5e9fdf"/><path d="M27 16h-3c-.55 0-1 .45-1 1v10c0 1.32 2 1.32 2 0v-3h2a4 4 0 1 0 0-8zm0 6h-2v-4h2c1.1 0 2 .9 2 2s-.9 2-2 2zm10.5-1h-1a1.5 1.5 0 1 1 0-3H40c1.32 0 1.32-2 0-2h-3.5c-1.93 0-3.5 1.57-3.5 3.5s1.57 3.5 3.5 3.5h1a1.5 1.5 0 1 1 0 3H34c-1.32 0-1.32 2 0 2h3.5c1.93 0 3.5-1.57 3.5-3.5S39.43 21 37.5 21zM30 31h-6c-1.32 0-1.32 2 0 2h2v9c0 1.32 2 1.32 2 0v-9h2c1.32 0 1.32-2 0-2zm7 0h-3c-.55 0-1 .45-1 1v10c0 1.32 2 1.32 2 0v-3l2.36-.04 1.74 3.48c.59 1.18 2.38.29 1.79-.89l-1.63-3.26C42.5 36.06 40.9 31 37 31zm0 6h-2v-4h2c1.1 0 2 .9 2 2s-.9 2-2 2z" fill="#fdfdfd"/><path d="M47 18v-6c0-.55-.45-1-1-1H18c-.55 0-1 .45-1 1v35c0 .55.45 1 1 1h28c.55 0 1-.45 1-1V26c0-1.34-2-1.29-2 0v20H19V13h26v5c0 1.34 2 1.29 2 0z" fill="#d38e2a"/><path d="M17 50h10v2H17zm12 0h18v2H29zm-12 4h10v2H17zm12 0h18v2H29z" fill="#1976d2"/><path d="M31 8H21c-1.34 0-1.29-2 0-2h10c1.34 0 1.29 2 0 2zm18 15h-4c-1.34 0-1.29-2 0-2h4c1.34 0 1.29 2 0 2z" fill="#f3f3f3"/></svg>