<svg xmlns="http://www.w3.org/2000/svg" viewBox="0 0 64 64" xmlns:v="https://vecta.io/nano"><rect width="64" height="6" rx="2" fill="#1976d2"/><path d="M2 6h60v48H2z" fill="#f3f3f3"/><path d="M18.5 45.5c-.58 0-.24.17-7-6.59L7.71 42.7c-.94.94-2.35-.48-1.41-1.41l4.5-4.5c.39-.39 1.02-.39 1.41 0l6.29 6.29 6.79-6.79c.94-.94 2.35.48 1.41 1.41-8.11 8.11-7.63 7.79-8.21 7.79z" fill="#5e9fdf"/><path d="M26 47c-.6 0 .48.89-14.5-14.09L7.71 36.7c-.94.94-2.35-.48-1.41-1.41l4.5-4.5c.39-.39 1.02-.39 1.41 0l14.5 14.5A1.01 1.01 0 0 1 26 47z" fill="#d38e2a"/><path d="M31,51H7c-.55,0-1-.45-1-1V28c0-1.32,2-1.32,2,0v21H31c1.32,0,1.32,2,0,2Z" fill="#d9d9d9"/><g fill="#1976d2"><path d="M59 18h-4c0-2.76-2.24-5-5-5V9c4.97 0 9 4.03 9 9z"/><path d="M59,18c0,4.97-4.03,9-9,9v-4c2.76,0,5-2.24,5-5h4Z"/></g><path d="M50,9v4c-2.76,0-5,2.24-5,5h-4c0-4.97,4.03-9,9-9Z" fill="#d38e2a"/><path d="M50,23v4c-4.97,0-9-4.03-9-9h4c0,2.76,2.24,5,5,5Z" fill="#5e9fdf"/><path d="M6 9h24v2H6zm29 23h24v2H35zM6 13h24v2H6zm29 23h24v2H35zM6 17h9v2H6zm0 4h9v2H6zm11-4h13v2H17zm42 25h-9v-2h9zm0 4h-9v-2h9zm-11-4H35v-2h13z" fill="#d9d9d9"/><g fill="#1976d2"><path d="M31 54h2v6h-2z"/><circle cx="32" cy="61" r="3"/></g></svg>