<svg xmlns="http://www.w3.org/2000/svg" viewBox="0 0 64 64" xmlns:v="https://vecta.io/nano"><g fill="#5e9fdf"><path d="M50 23v24a4 4 0 0 1-4 4H4a4 4 0 0 1-4-4V23h50z"/><rect x="52" y="29" width="12" height="22" rx="2"/></g><path d="M50 32h2v16h-2z" fill="#1976d2"/><g fill="#5e9fdf"><path d="M50 23H0c0-.55.22-1.05.59-1.41.82-.85-2.6-.59 47.41-.59 1.1 0 2 .9 2 2z"/><path d="M30.76 25H19.23c-1.37 0-1.76-1.06-2.24-2h16c-.45.91-.83 2-2.24 2z"/><rect x="4" y="28" width="42" height="20" rx="3"/></g><path d="M4,42H46v3c0,1.66-1.34,3-3,3H7c-1.66,0-3-1.34-3-3v-3h0Z" fill="#1976d2"/><g fill="#f3f3f3"><rect x="39" y="31" width="4" height="4" rx="1"/><rect x="33" y="31" width="4" height="4" rx="1"/><rect x="27" y="31" width="4" height="4" rx="1"/><rect x="7" y="31" width="4" height="4" rx="1"/><path d="M44.38 57H5.62a1 1 0 0 1-.89-1.45L10.01 45h30l5.28 10.55c.33.66-.15 1.45-.89 1.45z"/></g><path d="M50 23v3.94c-2.7-.29-5.04-1.79-6.48-3.94H50z" fill="#5e9fdf"/><path d="M50 23h-6.48a8.91 8.91 0 0 1-1-2H48c1.1 0 2 .9 2 2z" fill="#1976d2"/><circle cx="53" cy="16" r="9" fill="#d38e2a"/><path d="M55.13 17.88c-1.15-1.14-3.1-1.14-4.26 0-.95.93-2.35-.5-1.4-1.42a5 5 0 0 1 7.06 0c.94.93-.47 2.34-1.4 1.42zm3.53-2.54c-.63 0-.66-.38-1.57-1.02-2.73-1.96-6.63-1.69-9.04.73-.94.94-2.35-.48-1.41-1.42 3.54-3.53 9.23-3.49 12.73 0 .63.63.18 1.71-.71 1.71zM54 20c0-1.32-2-1.32-2 0s2 1.32 2 0z" fill="#fdfdfd"/></svg>