<svg xmlns="http://www.w3.org/2000/svg" viewBox="0 0 64 64" xmlns:v="https://vecta.io/nano"><path d="M62,18V57H2V18c0-1.66,1.34-3,3-3H59c1.66,0,3,1.34,3,3Z" fill="#1976d2"/><path d="M1 57h62c.55 0 1 .45 1 1v2c0 1.66-1.34 3-3 3H3c-1.66 0-3-1.34-3-3v-2c0-.55.45-1 1-1z" fill="#5e9fdf"/><path d="M60 18v37H4V18c0-.55.45-1 1-1h54c.55 0 1 .45 1 1z" fill="#fff"/><path d="M39 59H25c-1.1 0-2-.9-2-2 0-.1-.84 0 18 0 0 .81-.63 2-2 2z" fill="#f3f3f3"/><g fill="#5e9fdf"><path d="M60 18v3H4v-3c0-.55.45-1 1-1h54c.55 0 1 .45 1 1z"/><path d="M38,20v1H18v-4h17c1.66,0,3,1.34,3,3Z"/></g><path d="M5 17h14c1.66 0 3 1.34 3 3v2H4v-4c0-.55.45-1 1-1z" fill="#fff"/><path d="M30 50H9V26h21c1.32 0 1.32-2 0-2H8c-.55 0-1 .45-1 1v26c0 .55.45 1 1 1h22c1.32 0 1.32-2 0-2zm26-26H34c-1.32 0-1.32 2 0 2h21v24H34c-1.32 0-1.32 2 0 2h22c.55 0 1-.45 1-1V25c0-.55-.45-1-1-1zm-3 23v-6c0-1.32-2-1.32-2 0v5H33v-2h15c.55 0 1-.45 1-1V33c0-.55-.45-1-1-1H33v-2h18v7c0 1.32 2 1.32 2 0v-8c0-.55-.45-1-1-1H12c-.55 0-1 .45-1 1v8c0 1.32 2 1.32 2 0v-7h18v2H16c-.55 0-1 .45-1 1v10c0 .55.45 1 1 1h15v2H13v-5c0-1.32-2-1.32-2 0v6c0 .55.45 1 1 1h40c.55 0 1-.45 1-1zM17 34h30v8H17v-8z" fill="#d9d9d9"/><path d="M43.31,15c-.25,.7-.56,1.37-.94,2H21.63c-.38-.63-.69-1.3-.94-2h22.62Z" fill="#1976d2"/><path d="M38.61 21a11.91 11.91 0 0 1-13.22 0h13.22z" fill="#f3f3f3"/><path d="M42.37 17a11.8 11.8 0 0 1-3.76 4H38v-1c0-1.66-1.34-3-3-3h7.37z" fill="#1976d2"/><path d="M38 20v1H25.39a11.8 11.8 0 0 1-3.76-4H35c1.66 0 3 1.34 3 3z" fill="#5e9fdf"/><circle cx="32" cy="11" r="10" fill="#d38e2a"/><path d="M28 14.04c-.54 0-.57-.15-2.71-2.29-.39-.39-.39-1.02 0-1.41l2-2c.94-.94 2.35.48 1.41 1.41l-1.29 1.29 1.29 1.29a1.01 1.01 0 0 1-.71 1.71zm8 0c-.88 0-1.34-1.07-.71-1.71l1.29-1.29-1.29-1.29c-.94-.94.48-2.35 1.41-1.41l2 2c.39.39.39 1.02 0 1.41-2.18 2.18-2.17 2.29-2.71 2.29zm-5.97.75l2-8c.32-1.29 2.26-.8 1.94.49l-2 8c-.32 1.28-2.26.8-1.94-.49z" fill="#fdfdfd"/></svg>