<svg xmlns="http://www.w3.org/2000/svg" viewBox="0 0 64 64" xmlns:v="https://vecta.io/nano"><rect x="12" width="40" height="64" rx="6" fill="#5e9fdf"/><path d="M50 6v50a4 4 0 0 1-4 4H18a4 4 0 0 1-4-4V6a3.98 3.98 0 0 1 2-3.46c1.23-.71 1.73-.54 7.28-.54.43 0 .81.28.95.68.27.83.56 2.32 2.21 2.32h11.12a2.01 2.01 0 0 0 1.9-1.37l.31-.95c.14-.4.52-.68.95-.68H46a4 4 0 0 1 4 4z" fill="#fff"/><path d="M45,58H19c-1.34,0-1.29-2,0-2h26c1.34,0,1.29,2,0,2Z" fill="#d9d9d9"/><path d="M20 33H8c-1.32 0-1.32-2 0-2h12c1.32 0 1.32 2 0 2zm-5 11H6c-1.32 0-1.32-2 0-2h8.73l6.77-3.87c1.15-.66 2.14 1.08.99 1.74L14.99 44z" fill="#1976d2"/><path d="M5 35a3.01 3.01 0 0 1-3-3 3.01 3.01 0 0 1 3-3 3.01 3.01 0 0 1 3 3 3.01 3.01 0 0 1-3 3zm0-4c-1.32 0-1.32 2 0 2s1.32-2 0-2zM3 46a3.01 3.01 0 0 1-3-3 3.01 3.01 0 0 1 3-3 3.01 3.01 0 0 1 3 3 3.01 3.01 0 0 1-3 3zm0-4c-1.32 0-1.32 2 0 2s1.32-2 0-2z" fill="#d38e2a"/><path d="M22 26c-.38 0 .08.19-7.26-4H6c-1.32 0-1.32-2 0-2h9c.37 0-.11-.22 7.5 4.13.89.51.52 1.87-.5 1.87z" fill="#1976d2"/><path d="M3,24c-1.65,0-3-1.35-3-3s1.35-3,3-3,3,1.35,3,3-1.35,3-3,3Zm0-4c-1.32,0-1.32,2,0,2s1.32-2,0-2Z" fill="#d38e2a"/><path d="M56 33H44c-1.32 0-1.32-2 0-2h12c1.32 0 1.32 2 0 2zm2 11c-9.71 0-9.16.06-9.5-.13l-7-4c-1.15-.66-.15-2.39.99-1.74L49.26 42h8.73c1.32 0 1.32 2 0 2z" fill="#1976d2"/><path d="M59 35a3.01 3.01 0 0 1-3-3 3.01 3.01 0 0 1 3-3 3.01 3.01 0 0 1 3 3 3.01 3.01 0 0 1-3 3zm0-4c-1.32 0-1.32 2 0 2s1.32-2 0-2zm2 15a3.01 3.01 0 0 1-3-3 3.01 3.01 0 0 1 3-3 3.01 3.01 0 0 1 3 3 3.01 3.01 0 0 1-3 3zm0-4c-1.32 0-1.32 2 0 2s1.32-2 0-2z" fill="#d38e2a"/><path d="M42 26c-1.02 0-1.39-1.36-.5-1.87L49 20h9c1.32 0 1.32 2 0 2h-8.73l-7.26 4z" fill="#1976d2"/><g fill="#d38e2a"><path d="M61,24c-1.65,0-3-1.35-3-3s1.35-3,3-3,3,1.35,3,3-1.35,3-3,3Zm0-4c-1.32,0-1.32,2,0,2s1.32-2,0-2Z"/><rect x="19" y="19" width="26" height="26" rx="4"/></g><rect x="23" y="23" width="18" height="18" rx="2" fill="#5e9fdf"/><rect x="27" y="27" width="10" height="10" rx="1" fill="#f3f3f3"/></svg>