<svg xmlns="http://www.w3.org/2000/svg" viewBox="0 0 64 64" xmlns:v="https://vecta.io/nano"><g fill="#5e9fdf"><rect x="11" y="32" width="42" height="6" rx="2"/><path d="M51 38L39 56v6l-14 2v-8L13 38h38z"/></g><path d="M48 8v24H16V2c0-1.1.9-2 2-2h22l8 8z" fill="#f3f3f3"/><path d="M48 8h-8V0l8 8z" fill="#d9d9d9"/><path d="M41 19.99v-1.98c0-.56-.45-1.01-1.01-1.01h-.57c-.9 0-1.39-1.2-.76-1.83l.4-.4a1.02 1.02 0 0 0 0-1.43l-1.4-1.4a1.02 1.02 0 0 0-1.43 0l-.4.4c-.63.63-1.83.14-1.83-.76v-.57c0-.56-.45-1.01-1.01-1.01h-1.98c-.56 0-1.01.45-1.01 1.01v.57c0 .9-1.2 1.39-1.83.76l-.4-.4a1.02 1.02 0 0 0-1.43 0l-1.4 1.4a1.02 1.02 0 0 0 0 1.43l.4.4c.63.63.14 1.83-.76 1.83h-.57c-.56 0-1.01.45-1.01 1.01v1.98c0 .56.45 1.01 1.01 1.01h.57c.9 0 1.39 1.2.76 1.83l-.4.4a1.02 1.02 0 0 0 0 1.43l1.4 1.4a1.02 1.02 0 0 0 1.43 0l.4-.4c.63-.63 1.83-.14 1.83.76v.57c0 .56.45 1.01 1.01 1.01h1.98c.56 0 1.01-.45 1.01-1.01v-.57c0-.9 1.2-1.39 1.83-.76l.4.4a1.02 1.02 0 0 0 1.43 0l1.4-1.4a1.02 1.02 0 0 0 0-1.43l-.4-.4c-.63-.63-.14-1.83.76-1.83h.57c.56 0 1.01-.45 1.01-1.01z" fill="#d38e2a"/><circle cx="32" cy="19" r="3" fill="#f3f3f3"/><path d="M18 2h8v2h-8zm0 4h12v2H18z" fill="#5e9fdf"/><path d="M42 26h4v2h-4zm0-4h4v2h-4z" fill="#d9d9d9"/><g fill="#d38e2a"><path d="M11 25c-.54 0-.57-.15-2.71-2.29-.39-.39-.39-1.02 0-1.41s1.02-.39 1.41 0l1.29 1.29 1.29-1.29c.39-.39 1.02-.39 1.41 0s.39 1.02 0 1.41C11.51 24.89 11.52 25 10.98 25z"/><path d="M11 24c-.55 0-1-.45-1-1v-4c0-.55.45-1 1-1s1 .45 1 1v4c0 .55-.45 1-1 1zm42-11c-.54 0-.57-.15-2.71-2.29-.39-.39-.39-1.02 0-1.41s1.02-.39 1.41 0l1.29 1.29 1.29-1.29c.39-.39 1.02-.39 1.41 0s.39 1.02 0 1.41C53.51 12.89 53.52 13 52.98 13z"/><path d="M53 12c-.55 0-1-.45-1-1V7c0-.55.45-1 1-1s1 .45 1 1v4c0 .55-.45 1-1 1z"/></g><path d="M45.56 46.16L39 56v6l-7.47 1.07C29.36 61.06 28 58.19 28 55c0-9.05 10.33-14.17 17.56-8.84z" fill="#5e9fdf"/><circle cx="39" cy="55" r="9" fill="#1976d2"/><circle cx="39" cy="55" r="7" fill="#5e9fdf"/><path d="M37 58c-.88 0-1.34-1.07-.71-1.71L38 54.58v-3.59c0-.55.45-1 1-1s1 .45 1 1v4c0 .27-.11.52-.29.71-2.18 2.18-2.17 2.29-2.71 2.29z" fill="#fff"/></svg>