<svg xmlns="http://www.w3.org/2000/svg" xmlns:xlink="http://www.w3.org/1999/xlink" viewBox="0 0 64 64" xmlns:v="https://vecta.io/nano"><g fill="#d38e2a"><path d="M13 8h-2V1c0-.55.45-1 1-1 .29 0 1 .22 1 1v7z"/><use xlink:href="#B"/><use xlink:href="#B" x="5"/><use xlink:href="#B" x="10"/><use xlink:href="#B" x="15"/><use xlink:href="#B" x="20"/><use xlink:href="#B" x="25"/><use xlink:href="#B" x="30"/><path d="M53 8h-2V1c0-.55.45-1 1-1 .29 0 1 .22 1 1v7zm2 5v-2h8c.55 0 1 .45 1 1 0 .29-.22 1-1 1h-8zm2 5v-2h6c.55 0 1 .45 1 1 0 .29-.22 1-1 1h-6zm0 5v-2h6c.55 0 1 .45 1 1 0 .29-.22 1-1 1h-6zm0 5v-2h6c.55 0 1 .45 1 1 0 .29-.22 1-1 1h-6zm0 5v-2h6c.55 0 1 .45 1 1 0 .29-.22 1-1 1h-6zm0 5v-2h6c.55 0 1 .45 1 1 0 .29-.22 1-1 1h-6zm0 5v-2h6c.55 0 1 .45 1 1 0 .29-.22 1-1 1h-6zm0 5v-2h6c.55 0 1 .45 1 1 0 .29-.22 1-1 1h-6zm-2 5v-2h8c.55 0 1 .45 1 1 0 .29-.22 1-1 1h-8zm-4 3h2v7c0 .55-.45 1-1 1-.29 0-1-.22-1-1v-7z"/><use xlink:href="#C"/><use xlink:href="#C" x="-5"/><use xlink:href="#C" x="-10"/><use xlink:href="#C" x="-15"/><use xlink:href="#C" x="-20"/><use xlink:href="#C" x="-25"/><use xlink:href="#C" x="-30"/><path d="M11 56h2v7c0 .55-.45 1-1 1-.29 0-1-.22-1-1v-7zm-3-5v2H1c-.55 0-1-.45-1-1 0-.29.22-1 1-1h7z"/><use xlink:href="#D"/><use xlink:href="#D" y="-5"/><use xlink:href="#D" y="-10"/><use xlink:href="#D" y="-15"/><use xlink:href="#D" y="-20"/><use xlink:href="#D" y="-25"/><use xlink:href="#D" y="-30"/><path d="M8 11v2H1c-.55 0-1-.45-1-1 0-.29.22-1 1-1h7z"/></g><rect x="7" y="7" width="50" height="50" rx="6" fill="#5e9fdf"/><rect x="11" y="11" width="42" height="42" rx="4" transform="matrix(0 1 -1 0 64 0)" fill="#1976d2"/><g fill="#5e9fdf"><rect x="13" y="13" width="38" height="38" rx="2"/><circle cx="32" cy="32" r="14"/></g><g fill="#fff"><circle cx="32" cy="38" r="2"/><path d="M36.24 35.76c-.26 0-.51-.1-.71-.3-1.93-1.95-5.12-1.96-7.06 0-.39.39-1.02.39-1.41 0s-.4-1.02 0-1.41a6.99 6.99 0 0 1 9.9 0c.63.63.17 1.7-.71 1.7zm2.83-2.83c-.26 0-.51-.1-.71-.29-3.52-3.52-9.21-3.52-12.73 0-.39.39-1.02.39-1.41 0s-.39-1.02 0-1.41c4.3-4.3 11.25-4.3 15.55 0a1.01 1.01 0 0 1-.71 1.71zm2.83-2.83c-.26 0-.51-.1-.71-.29a13 13 0 0 0-18.39 0c-.39.39-1.02.39-1.41 0s-.39-1.02 0-1.41c5.88-5.86 15.33-5.86 21.21 0 .63.63.18 1.71-.71 1.71z"/></g><g fill="#f3f3f3"><circle cx="47" cy="17" r="1"/><circle cx="17" cy="48" r="1"/><circle cx="47" cy="48" r="1"/><circle cx="17" cy="17" r="1"/></g><defs ><path id="B" d="M18 7h-2V1c0-.55.45-1 1-1 .29 0 1 .22 1 1v6z"/><path id="C" d="M46,57h2v6c0,.55-.45,1-1,1-.29,0-1-.22-1-1v-6Z"/><path id="D" d="M7 46v2H1c-.55 0-1-.45-1-1 0-.29.22-1 1-1h6z"/></defs></svg>