<svg xmlns="http://www.w3.org/2000/svg" viewBox="0 0 64 64" xmlns:v="https://vecta.io/nano"><path d="M63.79 22.39l-10-13c-.38-.49-1.2-.49-1.58 0l-10 13A1 1 0 0 0 43 24h4v25c0 .55.45 1 1 1h10c.55 0 1-.45 1-1V24h4c.8 0 1.31-.93.79-1.61z" fill="#5e9fdf"/><g fill="#1976d2"><path d="M42.79 13.39l-10-13c-.38-.49-1.2-.49-1.58 0l-10 13A1 1 0 0 0 22 15h4v22c0 .55.45 1 1 1h10c.55 0 1-.45 1-1V15h4c.8 0 1.31-.93.79-1.61z"/><path d="M38 24v13c0 .55-.45 1-1 1H27c-.55 0-1-.45-1-1V24.99s.01-.01.02-.01L26 24a4 4 0 0 1 4-4h4a4 4 0 0 1 4 4z"/></g><path d="M55 41v4a4 4 0 0 1-4 4h-1l-.36 1H48c-.55 0-1-.45-1-1V25.47l2.68 2.68a4.01 4.01 0 0 1 0 5.66l-.71.7a18.46 18.46 0 0 1 1.05 2.51L51 37a4 4 0 0 1 4 4z" fill="#5e9fdf"/><path d="M53 41v4c0 1.1-.9 2-2 2h-1a1.98 1.98 0 0 0-1.88 1.35 16.05 16.05 0 0 1-.94 2.26 1.98 1.98 0 0 0 .38 2.29l.7.71c.78.78.78 2.04 0 2.83l-2.82 2.82c-.79.78-2.05.78-2.83 0l-.71-.7a1.98 1.98 0 0 0-2.29-.38 16.05 16.05 0 0 1-2.26.94A1.98 1.98 0 0 0 36 61v1c0 1.1-.9 2-2 2h-4c-1.1 0-2-.9-2-2v-1a1.98 1.98 0 0 0-1.35-1.88 16.05 16.05 0 0 1-2.26-.94 1.98 1.98 0 0 0-2.29.38l-.71.7c-.65.65-1.63.76-2.39.32-.34-.17-.24-.12-3.26-3.14-.78-.79-.78-2.05 0-2.83l.7-.71a1.98 1.98 0 0 0 .38-2.29 16.05 16.05 0 0 1-.94-2.26A1.98 1.98 0 0 0 14 47h-1c-1.1 0-2-.9-2-2v-4c0-1.1.9-2 2-2h1a1.98 1.98 0 0 0 1.88-1.35 16.05 16.05 0 0 1 .94-2.26 1.98 1.98 0 0 0-.38-2.29l-.7-.71c-.78-.78-.78-2.04 0-2.83l2.82-2.82c.77-.74 2.02-.81 2.83 0l.71.7a1.98 1.98 0 0 0 2.29.38 16.05 16.05 0 0 1 2.26-.94A1.98 1.98 0 0 0 28 25v-1c0-1.1.9-2 2-2h4c1.1 0 2 .9 2 2v1a1.98 1.98 0 0 0 1.35 1.88 16.05 16.05 0 0 1 2.26.94 1.98 1.98 0 0 0 2.29-.38l.71-.7c.78-.78 2.04-.78 2.83 0l2.82 2.82c.78.79.78 2.05 0 2.83l-.7.71a1.98 1.98 0 0 0-.38 2.29 16.05 16.05 0 0 1 .94 2.26A1.98 1.98 0 0 0 50 39h1c1.1 0 2 .9 2 2z" fill="#d38e2a"/><path d="M44 43a12 12 0 1 1-24 0c0-3.4 1.43-6.52 3.68-8.65 0-.01.01-.01.01-.02C31.25 27.09 44 32.41 44 43z" fill="#fff"/><path d="M23.69 34.33s-.01.01-.01.02c-.38.36-.73.75-1.06 1.16-.95.63-1.7.49-3.62.49v23.58c-.34-.17-.24-.12-3.26-3.14-.78-.79-.78-2.05 0-2.83l.7-.71a1.98 1.98 0 0 0 .38-2.29 16.05 16.05 0 0 1-.94-2.26A1.98 1.98 0 0 0 14 47h-1c-1.1 0-2-.9-2-2v-4c0-1.1.9-2 2-2h1a1.98 1.98 0 0 0 1.88-1.35 16.05 16.05 0 0 1 .94-2.26 1.98 1.98 0 0 0-.38-2.29l-.7-.71c-.78-.78-.78-2.04 0-2.83 2.94-2.94 3.04-3.2 3.82-3.35l3.82 4.96a2.99 2.99 0 0 1 .31 3.16z" fill="#e4c290"/><path d="M23.68 34.35c-.24.48-.61.88-1.06 1.16.33-.41.68-.8 1.06-1.16z" fill="#f3f3f3"/><path d="M16 64H6c-.55 0-1-.45-1-1V34H1a1 1 0 0 1-.79-1.61l10-13c.38-.49 1.21-.49 1.58 0l10 13c.5.66.04 1.61-.79 1.61h-4v29c0 .55-.45 1-1 1z" fill="#5e9fdf"/><circle cx="32" cy="43" r="10" fill="#1976d2"/><path d="M28 48c-.88 0-1.34-1.07-.71-1.71L31 42.58v-6.59c0-.55.45-1 1-1s1 .45 1 1v7c0 .27-.11.52-.29.71l-4 4a.98.98 0 0 1-.71.29z" fill="#fff"/></svg>