<svg xmlns="http://www.w3.org/2000/svg" xmlns:xlink="http://www.w3.org/1999/xlink" viewBox="0 0 64 64" xmlns:v="https://vecta.io/nano"><g fill="#5e9fdf"><path d="M31 18c-.88 0-1.34-1.07-.71-1.71L41.58 5h-1.59c-1.32 0-1.32-2 0-2h4c.89 0 1.34 1.08.71 1.71C30.62 18.79 31.58 18 30.99 18z"/><path d="M43,8V4c0-1.32,2-1.32,2,0v4c0,1.32-2,1.32-2,0Z"/></g><path d="M57,64H7c-3.87,0-7-3.13-7-7s3.13-7,7-7H57c3.87,0,7,3.13,7,7s-3.13,7-7,7Z" fill="#d9d9d9"/><rect x="10" y="16" width="44" height="34" rx="2" fill="#d38e2a"/><path d="M57,62H7c-2.76,0-5-2.24-5-5s2.23-5,5-5H57c2.76,0,5,2.24,5,5s-2.23,5-5,5Z" fill="#c8c8c8"/><g fill="#f3f3f3"><circle cx="57" cy="57" r="3"/><circle cx="47" cy="57" r="3"/><circle cx="37" cy="57" r="3"/><circle cx="27" cy="57" r="3"/><circle cx="17" cy="57" r="3"/><circle cx="7" cy="57" r="3"/><path d="M26 16h12v10H26z"/></g><path d="M14.6 35.57L10 38.33V27.67l4.6 2.76a2.99 2.99 0 0 1 0 5.14z" fill="#e4c290"/><use xlink:href="#B" fill="#1976d2"/><path d="M54 27.67v10.66l-2.46 1.48C49.58 41 47 39.58 47 37.23v-8.46c0-1.66 1.35-3.01 3-3.01 1.08 0 1.5.41 4 1.91z" fill="#e4c290"/><use xlink:href="#B" x="44" fill="#1976d2"/><path d="M4 41h4v2H4zm-4 4h8v2H0zm4-27h4v2H4zm-4 4h8v2H0zM26 3v8c0 .55-.45 1-1 1h-8l-2 2-2-2h-2c-.55 0-1-.45-1-1V3c0-.55.45-1 1-1h14c.55 0 1 .45 1 1z" fill="#d9d9d9"/><g fill="#d38e2a"><path d="M23 10c-.57 0-.43-.01-4-3.59L16.71 8.7c-.94.94-2.35-.48-1.41-1.41l3-3c.39-.39 1.02-.39 1.41 0L23 7.58l5.59-5.59H28c-1.32 0-1.32-2 0-2h3c.89 0 1.34 1.08.71 1.71-8.64 8.64-8.12 8.29-8.71 8.29z"/><path d="M30,4V1c0-1.32,2-1.32,2,0v3c0,1.32-2,1.32-2,0Z"/></g><path d="M56 13c-.88 0-1.34-1.07-.71-1.71L56.58 10l-1.29-1.29c-.94-.94.48-2.35 1.41-1.41l2 2c.39.39.39 1.02 0 1.41-2.18 2.18-2.17 2.29-2.71 2.29z" fill="#5e9fdf"/><defs ><path id="B" d="M6.51 38.09l7.06-4.23c.65-.39.65-1.33 0-1.71l-7.06-4.23c-.67-.4-1.51.08-1.51.86v8.47a1 1 0 0 0 1.51.86z"/></defs></svg>