<svg xmlns="http://www.w3.org/2000/svg" xmlns:xlink="http://www.w3.org/1999/xlink" viewBox="0 0 64 64" xmlns:v="https://vecta.io/nano"><path d="M49 13v-2.5A8.51 8.51 0 0 0 40.5 2a8.51 8.51 0 0 0-8.5 8.5V13c0 1.32-2 1.32-2 0v-2.5C30 4.71 34.71 0 40.5 0S51 4.71 51 10.5V13c0 1.32-2 1.32-2 0z" fill="#1976d2"/><path d="M6 9h48v50H6z" fill="#5e9fdf"/><g fill="#1976d2"><path d="M54 9h10v50H54z"/><path d="M54 59l5-8 5 8H54zM41 13v-2.5A8.51 8.51 0 0 0 32.5 2a8.51 8.51 0 0 0-8.5 8.5V13c0 1.32-2 1.32-2 0v-2.5C22 4.71 26.71 0 32.5 0S43 4.71 43 10.5V13c0 1.32-2 1.32-2 0z"/></g><use xlink:href="#B" fill="#d9d9d9"/><path d="M0 34h30v30H0z" fill="#f3f3f3"/><g fill="#d9d9d9"><path d="M30 34h6v30h-6z"/><use xlink:href="#B" x="-6"/></g><path d="M30 64l3-4 3 4h-6z" fill="#c8c8c8"/><path d="M20.66 46.34c1.56 1.56 1.56 4.09 0 5.66L15 57.66 9.34 52c-1.56-1.56-1.56-4.09 0-5.66s4.09-1.56 5.66 0c1.56-1.56 4.09-1.56 5.66 0z" fill="#d38e2a"/><path d="M42 53h8v2h-8zm-2-4h10v2H40z" fill="#f3f3f3"/><defs ><path id="B" d="M26,39v-4c0-2.76-2.24-5-5-5s-5,2.24-5,5v3.66c0,1.32-2,1.32-2,0v-3.66c0-3.86,3.14-7,7-7s7,3.14,7,7v4c0,1.32-2,1.32-2,0Z"/></defs></svg>