<svg xmlns="http://www.w3.org/2000/svg" viewBox="0 0 64 64" xmlns:v="https://vecta.io/nano"><rect x="2" y="6" width="60" height="48" rx="4" fill="#5e9fdf"/><path d="M44 64H20c2.56-2.56 4-6.03 4-9.66V54h16v.34A13.67 13.67 0 0 0 44 64h0z" fill="#1976d2"/><g fill="#5e9fdf"><rect x="18" y="62" width="28" height="2" rx="1"/><rect x="5" y="9" width="54" height="40" rx="1"/></g><path d="M59 14v34c0 .55-.45 1-1 1H6c-.55 0-1-.45-1-1V10c0-.55.45-1 1-1h14.08c1.21 0 2.36.55 3.12 1.5l1.6 2c.76.95 1.91 1.5 3.12 1.5H59z" fill="#fff"/><path d="M45 6.29V9H19V6.29l.01-.29h25.98c.01.09.01.19.01.29z" fill="#1976d2"/><path d="M45 9v2.6c0 .81-.06 1.62-.17 2.4H27.92c-1.21 0-2.36-.55-3.12-1.5l-1.6-2c-.76-.95-1.91-1.5-3.12-1.5H45z" fill="#5e9fdf"/><path d="M44.83 14c-.95 6.59-5.74 12.14-12.3 13.93l-.53.14-.53-.14C24.13 25.93 19 19.21 19 11.6V9h1.08c1.21 0 2.36.55 3.12 1.5l1.6 2c.76.95 1.91 1.5 3.12 1.5h16.91z" fill="#f3f3f3"/><path d="M43 6.09v5.31c0 6.73-4.51 12.63-11 14.4h0c-6.49-1.77-11-7.67-11-14.4V6.09c0-.78.46-1.5 1.17-1.82l9-4.09c.53-.24 1.13-.24 1.66 0l9 4.09c.71.32 1.17 1.04 1.17 1.82z" fill="#d38e2a"/><path d="M32 1.8l9 4v5.51c0 5.67-3.63 10.7-9 12.49h0c-5.37-1.79-9-6.82-9-12.49V5.8l9-4z" fill="#e4c290"/><path d="M31 15.8c-.26 0-.51-.1-.71-.29l-3-3c-.39-.39-.39-1.02 0-1.41s1.02-.39 1.41 0l2.29 2.29 4.29-4.29c.39-.39 1.02-.39 1.41 0s.39 1.02 0 1.41l-5 5a.98.98 0 0 1-.71.29z" fill="#f3f3f3"/><g fill="#d9d9d9"><path d="M17 35h0a8 8 0 0 1 8 8v2H9v-2a8 8 0 0 1 8-8z"/><circle cx="17" cy="32" r="5"/><path d="M29 30h26v2H29zm0 5h26v2H29zm0 5h18v2H29z"/></g></svg>