<svg xmlns="http://www.w3.org/2000/svg" viewBox="0 0 64 64" xmlns:v="https://vecta.io/nano"><path d="M11,3H58c1.1,0,2,.9,2,2v4H11V3h0Z" fill="#5e9fdf"/><path d="M13,3H31.39c2.25,0,4.36,1.13,5.61,3s3.34,3,5.61,3h15.39v4H13V3Z" fill="#1976d2"/><g fill="#5e9fdf"><path d="M60,9V51c0,1.1-.9,2-2,2H2c-1.1,0-2-.9-2-2V5c0-1.1,.9-2,2-2H13.65c2.05,0,3.93,1.16,4.85,3,.9,1.81,2.76,3,4.85,3H60Z"/><path d="M60 21v30c0 1.1-.9 2-2 2H16V25a4 4 0 0 1 4-4h40z"/><path d="M29,23H62c1.1,0,2,.9,2,2v2H29v-4h0Z"/></g><path d="M31,23h14.17c1.81,0,3.55,.72,4.83,2s2.97,2,4.83,2h7.17v4H31v-8Z" fill="#1976d2"/><path d="M18 59V25c0-1.1.9-2 2-2h10.5c1.57 0 3.06.74 4 2s2.43 2 4 2H64v32c0 1.1-.9 2-2 2H20c-1.1 0-2-.9-2-2z" fill="#f3f3f3"/><circle cx="31" cy="26" r="1" fill="#5e9fdf"/><rect x="22" y="33" width="16" height="24" rx="2" fill="#d38e2a"/><path d="M48 33h10v2H48zm-6 4h18v2H42zm0 4h18v2H42zm0 4h18v2H42zm0 4h10v2H42z" fill="#d9d9d9"/><path d="M54 57H44c-1.1 0-2-.9-2-2 0-.81.63-2 2-2h10c1.1 0 2 .9 2 2 0 .81-.63 2-2 2z" fill="#5e9fdf"/><g fill="#e4c290"><path d="M36 49.3V55H24v-5.7a8.97 8.97 0 0 1 12 0z"/><circle cx="30" cy="44" r="4"/></g><g fill="#fff"><path d="M6 18c-.55 0-1-.45-1-1v-5c0-.55.45-1 1-1h5c.55 0 1 .45 1 1s-.45 1-1 1H7v4c0 .55-.45 1-1 1z"/><path d="M12 19c-.26 0-.51-.1-.71-.29l-5-5c-.39-.39-.39-1.02 0-1.41s1.02-.39 1.41 0l5 5a1.01 1.01 0 0 1-.71 1.71z"/></g><circle cx="14" cy="7" r="1" fill="#5e9fdf"/><path d="M44 14h12c.55 0 1-.45 1-1 0-.29-.22-1-1-1H44c-.55 0-1 .45-1 1 0 .29.22 1 1 1zm6 4h6c.55 0 1-.45 1-1 0-.29-.22-1-1-1h-6c-.55 0-1 .45-1 1 0 .29.22 1 1 1z" fill="#fff"/></svg>