<?xml version="1.0" encoding="UTF-8"?><svg id="a" xmlns="http://www.w3.org/2000/svg" viewBox="0 0 56 64"><defs><style>.b{fill:#5e9fdf;}.c{fill:#c8c8c8;}.d{fill:#d38e2a;}.e{fill:#f3f3f3;}.f{fill:#d9d9d9;}.g{fill:#1976d2;}</style></defs><g><path class="b" d="M2,0H54c1.1,0,2,.9,2,2V6H0V2C0,.9,.9,0,2,0Z"/><path class="b" d="M13,0h19c2.21,0,4,1.79,4,4v2H13V0h0Z"/></g><path class="e" d="M56,6V48c0,1.1-.9,2-2,2H2c-1.1,0-2-.9-2-2V2C0,.9,.9,0,2,0H14c2.21,0,4,1.79,4,4v2H56Z"/><path class="g" d="M53,3c0-1.32-2-1.32-2,0s2,1.32,2,0Zm-4,0c0-1.32-2-1.32-2,0s2,1.32,2,0Z"/><path class="e" d="M45,3c0-1.32-2-1.32-2,0s2,1.32,2,0Z"/><path class="g" d="M33,3c0-1.32-2-1.32-2,0s2,1.32,2,0Z"/><path class="f" d="M3,9H21V31H3V9Zm20,0h30v2H23v-2Zm0,4h30v2H23v-2Zm0,4h30v2H23v-2Zm0,4h30v2H23v-2Zm0,4h30v2H23v-2Zm0,4h30v2H23v-2Z"/><path class="d" d="M15,3c0-1.32-2-1.32-2,0s2,1.32,2,0Z"/><path class="f" d="M37,43v7H15v-7l11-5,11,5Z"/><path class="g" d="M28,36l-11,5v7.3c0,7.03,4.4,13.3,11,15.7,6.6-2.4,11-8.67,11-15.7v-7.3l-11-5Z"/><g><path class="e" d="M28,51c-2.21,0-4-1.79-4-4s1.79-4,4-4,4,1.79,4,4-1.79,4-4,4Zm0-6c-1.1,0-2,.9-2,2s.9,2,2,2,2-.9,2-2-.9-2-2-2Z"/><path class="e" d="M34,56h-12c-.55,0-1-.45-1-1,0-3.01,1.92-5.67,4.77-6.64,.33-.11,.69-.04,.96,.18,.75,.62,1.79,.62,2.55,0,.27-.22,.63-.29,.96-.17,2.85,.96,4.77,3.63,4.77,6.64,0,.55-.45,1-1,1Zm-10.9-2h9.8c-.32-1.57-1.38-2.9-2.86-3.57-1.26,.75-2.83,.75-4.09,0-1.48,.67-2.54,2-2.85,3.56Z"/></g><path class="f" d="M3,33H15v2H3v-2Zm0,5H15v2H3v-2Z"/><g><circle class="c" cx="12" cy="18" r="5"/><path class="c" d="M21,26.65v4.35H3v-4.35c3.65-7.52,14.35-7.52,18,0Z"/></g></svg>