<svg xmlns="http://www.w3.org/2000/svg" viewBox="0 0 64 64" xmlns:v="https://vecta.io/nano"><path d="M34 41.95V61H0V41.95c0-1.76 1.15-3.31 2.82-3.82L13 35h8l10.18 3.13A4 4 0 0 1 34 41.95z" fill="#5e9fdf"/><path d="M17,41c-2.76,0-5-2.23-5-5v-3h10v3c0,2.76-2.24,5-5,5Z" fill="#d38e2a"/><path d="M17,36c-4.97,0-9-4.03-9-9v-7H26v7c0,4.97-4.03,9-9,9Z" fill="#e4c290"/><g fill="#1976d2"><path d="M6 18h2v6H6z"/><path d="M26,20H7c-1.66,0-3-1.34-3-3v-6H22c1.66,0,3,1.34,3,3,1.66,0,3,1.34,3,3v7h-2v-4Z"/></g><path d="M8 23v5h-.5c-1.68 0-2.85-1.61-2.41-3.15C5.37 23.79 6.34 23 7.5 23H8zm18.5 5H26v-5h.5a2.5 2.5 0 1 1 0 5z" fill="#e4c290"/><path d="M14.55 32.89a1.01 1.01 0 0 1-.45-1.34 1.01 1.01 0 0 1 1.34-.45c.97.49 2.13.49 3.11 0 .49-.25 1.09-.05 1.34.45a.99.99 0 0 1-.45 1.34c-1.53.77-3.36.77-4.89 0z" fill="#d38e2a"/><path d="M38 5v16c0 1.1.9 2 2 2h7c.63 0 1.22.3 1.6.8l1.6 2.13c.4.53 1.2.53 1.6 0l1.6-2.13c.38-.5.97-.8 1.6-.8h7c1.1 0 2-.9 2-2V5c0-1.1-.9-2-2-2H40c-1.1 0-2 .9-2 2z" fill="#e4c290"/><path d="M46 17c-.26 0-.51-.1-.71-.29l-3-3c-.39-.39-.39-1.02 0-1.41l3-3c.39-.39 1.02-.39 1.41 0s.39 1.02 0 1.41L44.41 13l2.29 2.29a1.01 1.01 0 0 1-.71 1.71zm10 0c-.88 0-1.34-1.07-.71-1.71L57.58 13l-2.29-2.29c-.39-.39-.39-1.02 0-1.41s1.02-.39 1.41 0l3 3c.39.39.39 1.02 0 1.41l-3 3a.98.98 0 0 1-.71.29zm-6 2a1 1 0 0 1-.98-1.2l2-10c.11-.54.64-.9 1.18-.78.54.11.89.63.78 1.18l-2 10c-.09.48-.51.8-.98.8z" fill="#fff"/><g fill="#1976d2"><path d="M23 56h19v5H25c-1.66 0-3-1.34-3-3v-1c0-.55.45-1 1-1z"/><path d="M58 61H33a1 1 0 0 1-.98-1.2l5-24c.1-.46.5-.8.98-.8h25a1 1 0 0 1 .98 1.2l-5 24c-.1.46-.5.8-.98.8zM25 51c-1.66 0-3-1.34-3-3v-4h6v4c0 1.66-1.34 3-3 3z"/><path d="M22 44h6v2h-6z"/></g><circle cx="48" cy="48" r="3" fill="#fff"/></svg>