<svg xmlns="http://www.w3.org/2000/svg" viewBox="0 0 64 64" xmlns:v="https://vecta.io/nano"><rect x="4" y="9" width="56" height="44" rx="3" fill="#1976d2"/><path d="M58 12v35H6V12c0-.55.45-1 1-1h50c.55 0 1 .45 1 1z" fill="#fff"/><path d="M39 61H25l1-8h12l1 8z" fill="#1976d2"/><path d="M43 62H21c-1.34 0-1.29-2 0-2h22c1.34 0 1.29 2 0 2zM9 14h2v30H9zm4 0h14v2H13zm0 8h16v2H13zm18 0h22v2H31zm-18 8h16v2H13zm18 0h22v2H31zM13 42h16v2H13zm18 0h22v2H31zm-2-16h20v2H29zm10-12h16v2H39zm-10 0h8v2h-8zm-14 4h8v2h-8zm0 16h8v2h-8zm14 4h21v2H29zm-10 0h8v2h-8zm-4-12h12v2H15z" fill="#5e9fdf"/><path d="M60,12v8.8c-.63,.32-1.3,.59-2,.78V12c0-.55-.45-1-1-1h-13c0-.68,.06-1.35,.18-2h12.82c1.66,0,3,1.34,3,3Z" fill="#1976d2"/><path d="M58 12v9.58c-4.91 1.45-10.37-.84-12.8-5.58H55v-2H44.42c-.28-.95-.42-1.96-.42-3h13c.55 0 1 .45 1 1z" fill="#f3f3f3"/><path d="M55 14v2h-9.8a10.51 10.51 0 0 1-.78-2H55z" fill="#5e9fdf"/><circle cx="55" cy="11" r="9" fill="#d38e2a"/><path d="M20 53H7c-1.66 0-3-1.34-3-3v-5h2v2h13.46c.71 1.23.54 1.91.54 6z" fill="#1976d2"/><path d="M19.46,47H6v-2h10c1.48,0,2.77,.8,3.46,2Z" fill="#f3f3f3"/><rect y="47" width="18" height="14" rx="2" fill="#d38e2a"/><path d="M5 57c-.54 0-.57-.15-2.71-2.29-.39-.39-.39-1.02 0-1.41l2-2c.94-.94 2.35.48 1.41 1.41L4.41 54l1.29 1.29A1.01 1.01 0 0 1 4.99 57zm8 0c-.88 0-1.34-1.07-.71-1.71L13.58 54l-1.29-1.29c-.94-.94.48-2.35 1.41-1.41l2 2c.39.39.39 1.02 0 1.41-2.18 2.18-2.17 2.29-2.71 2.29zm-5.97.76l2-8c.32-1.29 2.26-.8 1.94.49l-2 8c-.32 1.28-2.26.8-1.94-.49z" fill="#f3f3f3"/><path d="M54 15c-.55 0-.43-.02-3.71-3.29-.94-.94.48-2.35 1.41-1.41l2.23 2.23 4.3-5.16c.85-1.02 2.38.26 1.54 1.28-5.34 6.4-5.12 6.36-5.77 6.36z" fill="#fdfdfd"/></svg>