<svg xmlns="http://www.w3.org/2000/svg" viewBox="0 0 64 64" xmlns:v="https://vecta.io/nano"><path d="M52 6v52c0 3.31-2.69 6-6 6H18c-3.31 0-6-2.69-6-6V6c0-3.31 2.69-6 6-6 30.32 0 28.68-.17 30.14.4C50.4 1.24 52 3.49 52 6z" fill="#1976d2"/><path d="M50 6v50a4 4 0 0 1-4 4H18a4 4 0 0 1-4-4V6a4 4 0 0 1 4-4h5.28c.43 0 .81.28.95.68.27.83.56 2.32 2.21 2.32h11.12a2.01 2.01 0 0 0 1.9-1.37l.31-.95c.14-.4.52-.68.95-.68l5.77.04C48.33 2.21 50 3.87 50 6z" fill="#fff"/><path d="M42,58H20c-1.34,0-1.29-2,0-2h22c1.34,0,1.29,2,0,2Z" fill="#d9d9d9"/><g fill="#5e9fdf"><path d="M50 6v19H14V6a4 4 0 0 1 4-4h5.28c.43 0 .81.28.95.68.27.83.56 2.32 2.21 2.32h11.12a2.01 2.01 0 0 0 1.9-1.37l.31-.95c.14-.4.52-.68.95-.68l5.77.04C48.33 2.21 50 3.87 50 6z"/><circle cx="32" cy="24" r="13"/></g><path d="M32,29c-2.76,0-5-2.23-5-5v-5h10v5c0,2.76-2.24,5-5,5Z" fill="#d38e2a"/><path d="M27 20h10v-1c0-1.66-1.34-3-3-3-3.37 0-4.65.12-8-1v4c0 .55.45 1 1 1zm12.95 14.28c-4.69 3.62-11.2 3.63-15.9 0C24.4 31.31 26.93 29 30 29h4c3.07 0 5.6 2.31 5.95 5.28z" fill="#1976d2"/><path d="M30.29 25.29c.39-.39 1.02-.39 1.41 0 .16.16.42.16.59 0 .94-.94 2.35.48 1.41 1.42-1.74 1.74-4.69-.14-3.41-1.41zM37 24v-4c.81 0 2 .63 2 2 0 .78-.61 2-2 2zm-10 0v-4c-.81 0-2 .63-2 2 0 .78.61 2 2 2z" fill="#e4c290"/><path d="M21 40h22v2H21zm0 5h22v2H21z" fill="#d9d9d9"/><path d="M52 6v17h-2c0-18.32.27-17.91-.73-19.3a4.83 4.83 0 0 1 1.58-1.21A5.88 5.88 0 0 1 52 6z" fill="#1976d2"/><path d="M50 23h-2a3.01 3.01 0 0 1-3-3v-4.56c-1.29-1.15-1-2.23-1-6.44a3.01 3.01 0 0 1 3-3h1.1c.18-.87.59-1.66 1.17-2.3.98 1.37.73.59.73 19.3z" fill="#5e9fdf"/><path d="M47 10h16v10c0 .55-.45 1-1 1H48c-.55 0-1-.45-1-1V10h0z" fill="#1976d2"/><g fill="#d38e2a"><path d="M59,9v-2c0-.55-.45-1-1-1h-5c-.55,0-1,.45-1,1v2c0,1.32-2,1.32-2,0v-2c0-1.65,1.35-3,3-3h5c1.65,0,3,1.35,3,3v2c0,1.32-2,1.32-2,0Z"/><path d="M63.22 14.17L55 16l-8.22-1.83c-.46-.1-.78-.51-.78-.98v-4.2c0-.55.45-1 1-1h16c.55 0 1 .45 1 1v4.2c0 .47-.33.87-.78.98z"/></g><path d="M54,17v-2c0-1.34,2-1.29,2,0v2c0,1.34-2,1.29-2,0Z" fill="#5e9fdf"/><path d="M12 38h2v18h-2z" fill="#1976d2"/><path d="M20 42v10a4 4 0 0 1-4 4h-2V38h2a4 4 0 0 1 4 4z" fill="#f3f3f3"/><rect y="40" width="18" height="14" rx="2" fill="#d38e2a"/><path d="M5 50c-.54 0-.57-.15-2.71-2.29-.39-.39-.39-1.02 0-1.41l2-2c.94-.94 2.35.48 1.41 1.41L4.41 47l1.29 1.29A1.01 1.01 0 0 1 4.99 50zm8 0c-.88 0-1.34-1.07-.71-1.71L13.58 47l-1.29-1.29c-.94-.94.48-2.35 1.41-1.41l2 2c.39.39.39 1.02 0 1.41-2.18 2.18-2.17 2.29-2.71 2.29zm-5.97.76l2-8c.32-1.29 2.26-.8 1.94.49l-2 8c-.32 1.28-2.26.8-1.94-.49z" fill="#f3f3f3"/></svg>