<svg xmlns="http://www.w3.org/2000/svg" viewBox="0 0 64 64" xmlns:v="https://vecta.io/nano"><path d="M42 24H22c-.55 0-1-.45-1-1v-8a4 4 0 0 1 4-4h14a4 4 0 0 1 4 4v8c0 .55-.45 1-1 1zm-19-2h18v-7c0-1.1-.9-2-2-2H25c-1.1 0-2 .9-2 2v7z" fill="#1976d2"/><g fill="#d38e2a"><circle cx="5" cy="32" r="3"/><path d="M14 37H8c-.31 0-.61-.15-.8-.4l-3-4c-.33-.44-.24-1.07.2-1.4s1.07-.24 1.4.2L8.5 35H14c.55 0 1 .45 1 1s-.45 1-1 1z"/><circle cx="5" cy="52" r="3"/><path d="M5 53c-.81 0-1.3-.94-.8-1.6l3-4A1 1 0 0 1 8 47h6c.55 0 1 .45 1 1s-.45 1-1 1H8.5l-2.7 3.6c-.2.26-.5.4-.8.4zm10-10H6c-.55 0-1-.45-1-1s.45-1 1-1h9c.55 0 1 .45 1 1s-.45 1-1 1z"/><circle cx="3" cy="42" r="3"/><circle cx="59" cy="32" r="3"/><path d="M56 37h-6c-.55 0-1-.45-1-1s.45-1 1-1h5.5l2.7-3.6c.33-.44.96-.53 1.4-.2s.53.96.2 1.4l-3 4a1 1 0 0 1-.8.4z"/><circle cx="59" cy="52" r="3"/><path d="M59 53c-.3 0-.6-.14-.8-.4L55.5 49H50c-.55 0-1-.45-1-1s.45-1 1-1h6c.31 0 .61.15.8.4l3 4c.5.67.01 1.6-.8 1.6zm-1-10h-9c-.55 0-1-.45-1-1s.45-1 1-1h9c.55 0 1 .45 1 1s-.45 1-1 1z"/><circle cx="61" cy="42" r="3"/></g><g fill="#5e9fdf"><rect x="10" y="19" width="44" height="12" rx="2"/><path d="M12,31H52v22c0,1.1-.9,2-2,2H14c-1.1,0-2-.9-2-2V31h0Z"/></g><circle cx="32" cy="40" r="12" fill="#fff"/><path d="M38.92 38.97c-.06-.37.13-.74.46-.92l.61-.35c.45-.26.6-.83.34-1.28l-1.07-1.85c-.26-.45-.83-.6-1.28-.34l-.62.36a.94.94 0 0 1-1.05-.1c-.51-.4-1.08-.73-1.69-.98-.37-.15-.62-.48-.62-.88v-.7a.93.93 0 0 0-.93-.93h-2.13a.93.93 0 0 0-.93.93v.7c0 .4-.26.73-.62.88-.61.25-1.18.58-1.69.98-.31.24-.72.29-1.05.1l-.62-.36c-.45-.26-1.02-.1-1.28.34l-1.07 1.85c-.26.45-.1 1.02.34 1.28l.61.35c.32.19.51.55.46.92a6.71 6.71 0 0 0 0 2.05c.06.37-.13.74-.46.92l-.61.35c-.45.26-.6.83-.34 1.28l1.07 1.85c.26.45.83.6 1.28.34l.62-.36a.94.94 0 0 1 1.05.1c.51.4 1.08.73 1.69.98.37.15.62.48.62.88v.7a.93.93 0 0 0 .93.93h2.13a.93.93 0 0 0 .93-.93v-.7c0-.4.26-.73.62-.88.61-.25 1.18-.58 1.69-.98.31-.24.72-.29 1.05-.1l.62.36c.45.26 1.02.1 1.28-.34l1.07-1.85c.26-.45.1-1.02-.34-1.28l-.61-.35c-.32-.19-.51-.55-.46-.92a6.71 6.71 0 0 0 0-2.05z" fill="#d38e2a"/><circle cx="32" cy="40" r="3" fill="#fff"/><path d="M36,15h-8c-1.66,0-3-1.34-3-3s1.34-3,3-3h8c1.66,0,3,1.34,3,3s-1.34,3-3,3Z" fill="#d38e2a"/><g fill="#1976d2"><rect x="15" y="28" width="3" height="6" rx="1.5"/><rect x="46" y="28" width="3" height="6" rx="1.5"/></g><g fill="#fff"><circle cx="13" cy="22" r="1"/><circle cx="17" cy="22" r="1"/><circle cx="21" cy="22" r="1"/></g></svg>