<svg xmlns="http://www.w3.org/2000/svg" viewBox="0 0 64 64" xmlns:v="https://vecta.io/nano"><circle cx="32" cy="32" r="18" fill="#f3f3f3"/><path d="M38 28H26c-.55 0-1-.45-1-1v-4a3.01 3.01 0 0 1 3-3h8a3.01 3.01 0 0 1 3 3v4c0 .55-.45 1-1 1zm-11-2h10v-3c0-.55-.45-1-1-1h-8c-.55 0-1 .45-1 1v3zm-7 3h24v12c0 1.1-.9 2-2 2H22c-1.1 0-2-.9-2-2V29h0z" fill="#d38e2a"/><path d="M45 27c0 3.71.11 3.86-.4 4.53l-2 2.67c-.38.5-.97.8-1.6.8H23c-.63 0-1.22-.3-1.6-.8-2.23-2.97-2.4-3.02-2.4-3.87V27c0-1.1.9-2 2-2h22c1.1 0 2 .9 2 2z" fill="#e4c290"/><path d="M38 37c-.29 0-1-.22-1-1v-2c0-.55.45-1 1-1 .29 0 1 .22 1 1v2c0 .55-.45 1-1 1zm-12 0c-.29 0-1-.22-1-1v-2c0-.55.45-1 1-1 .29 0 1 .22 1 1v2c0 .55-.45 1-1 1z" fill="#f3f3f3"/><path d="M16.58 12.34a24.92 24.92 0 0 1 30.83 0l2.85-2.85a28.93 28.93 0 0 0-36.53 0l2.85 2.85zm37.93 1.4l-2.85 2.85a24.92 24.92 0 0 1 0 30.83l2.85 2.85a28.93 28.93 0 0 0 0-36.53zm-7.09 37.92a24.92 24.92 0 0 1-30.83 0l-2.85 2.85a28.93 28.93 0 0 0 36.53 0l-2.85-2.85zm-35.08-4.24a24.92 24.92 0 0 1 0-30.83l-2.85-2.85C.83 24.39.83 39.61 9.49 50.26l2.85-2.85z" fill="#1976d2"/><g fill="#5e9fdf"><circle cx="32" cy="6" r="6"/><circle cx="32" cy="58" r="6"/><circle cx="58" cy="32" r="6"/><circle cx="6" cy="32" r="6"/></g></svg>