<svg xmlns="http://www.w3.org/2000/svg" viewBox="0 0 64 64" xmlns:v="https://vecta.io/nano"><g fill="#d38e2a"><path d="M59 45h-4.17a2.97 2.97 0 0 1-2.12-.88L49.59 41H43c-.55 0-1-.45-1-1s.45-1 1-1h7c.27 0 .52.11.71.29l3.41 3.41a.99.99 0 0 0 .71.29H59c.55 0 1 .45 1 1s-.45 1-1 1z"/><path d="M64 44a3.01 3.01 0 0 1-3 3 3.01 3.01 0 0 1-3-3 3.01 3.01 0 0 1 3-3 3.01 3.01 0 0 1 3 3zm-2 0c0-.55-.45-1-1-1s-1 .45-1 1 .45 1 1 1 1-.45 1-1zM50 25h-7c-.55 0-1-.45-1-1s.45-1 1-1h6.65l4.18-3.34c.53-.42 1.2-.66 1.87-.66H59c.55 0 1 .45 1 1s-.45 1-1 1h-3.3c-.23 0-.45.08-.62.22l-4.45 3.56a1.02 1.02 0 0 1-.62.22zm9 8H40c-.55 0-1-.45-1-1s.45-1 1-1h19c.55 0 1 .45 1 1s-.45 1-1 1z"/><path d="M61 23a3.01 3.01 0 0 1-3-3 3.01 3.01 0 0 1 3-3 3.01 3.01 0 0 1 3 3 3.01 3.01 0 0 1-3 3zm0-4c-.55 0-1 .45-1 1s.45 1 1 1 1-.45 1-1-.45-1-1-1zm0 16a3.01 3.01 0 0 1-3-3 3.01 3.01 0 0 1 3-3 3.01 3.01 0 0 1 3 3 3.01 3.01 0 0 1-3 3zm0-4c-.55 0-1 .45-1 1s.45 1 1 1 1-.45 1-1-.45-1-1-1zM9.17 45H5c-.55 0-1-.45-1-1s.45-1 1-1h4.17a.99.99 0 0 0 .71-.29l3.41-3.41a.99.99 0 0 1 .71-.29h7c.55 0 1 .45 1 1s-.45 1-1 1h-6.59l-3.12 3.12a2.97 2.97 0 0 1-2.12.88z"/><path d="M3 41a3.01 3.01 0 0 1 3 3 3.01 3.01 0 0 1-3 3 3.01 3.01 0 0 1-3-3 3.01 3.01 0 0 1 3-3zm0 4c.55 0 1-.45 1-1s-.45-1-1-1-1 .45-1 1 .45 1 1 1zm18-20h-7c-.23 0-.45-.08-.62-.22l-4.45-3.56a1.02 1.02 0 0 0-.62-.22h-3.3c-.55 0-1-.45-1-1s.45-1 1-1h3.3c.68 0 1.34.23 1.87.66L14.36 23h6.65c.55 0 1 .45 1 1s-.45 1-1 1zm3 8H5c-.55 0-1-.45-1-1s.45-1 1-1h19c.55 0 1 .45 1 1s-.45 1-1 1z"/><path d="M0 20a3.01 3.01 0 0 1 3-3 3.01 3.01 0 0 1 3 3 3.01 3.01 0 0 1-3 3 3.01 3.01 0 0 1-3-3zm2 0c0 .55.45 1 1 1s1-.45 1-1-.45-1-1-1-1 .45-1 1zM0 32a3.01 3.01 0 0 1 3-3 3.01 3.01 0 0 1 3 3 3.01 3.01 0 0 1-3 3 3.01 3.01 0 0 1-3-3zm2 0c0 .55.45 1 1 1s1-.45 1-1-.45-1-1-1-1 .45-1 1z"/></g><g fill="#1976d2"><path d="M52 15v17.38C52 44.5 43.75 55.06 32 58h0c-11.75-2.94-20-13.5-20-25.62V15l20-9 20 9z"/><path d="M32,48c-5.24,0-10.14-2.56-13.12-6.86-.5-.69-.95-1.47-1.34-2.29-.86-1.8-1.36-3.72-1.5-5.72-.03-.34-.04-.73-.04-1.13s.01-.79,.05-1.18c.13-1.95,.64-3.87,1.5-5.68,.38-.81,.84-1.58,1.35-2.3,2.97-4.27,7.87-6.84,13.11-6.84s10.14,2.56,13.12,6.86c.5,.7,.95,1.48,1.34,2.29,.86,1.8,1.36,3.72,1.5,5.72,.03,.34,.04,.73,.04,1.13s-.01,.79-.05,1.18c-.13,1.95-.63,3.87-1.5,5.68-.38,.8-.83,1.58-1.35,2.3-2.97,4.27-7.87,6.84-13.11,6.84Z"/></g><g fill="#5e9fdf"><path d="M46 32l-.04 1a13.75 13.75 0 0 1-1.31 5 12.91 12.91 0 0 1-1.17 2c-2.52 3.63-6.73 6-11.48 6s-8.96-2.37-11.48-6a12.91 12.91 0 0 1-1.17-2 13.75 13.75 0 0 1-1.31-5c-.03-.33-.04-.66-.04-1s.01-.67.04-1a13.75 13.75 0 0 1 1.31-5 12.91 12.91 0 0 1 1.17-2c2.52-3.63 6.73-6 11.48-6s8.96 2.37 11.48 6a12.91 12.91 0 0 1 1.17 2 13.75 13.75 0 0 1 1.31 5c.03.33.04.66.04 1z"/><path d="M45.96 33c.03-.33.04-.66.04-1l-.04-1h-5.99c-.1-1.77-.45-3.44-1.07-5h5.74a12.91 12.91 0 0 0-1.17-2h-5.53c-1.24-2.17-3.02-4.11-5.36-5.81-.35-.25-.82-.25-1.17 0-2.34 1.7-4.12 3.64-5.36 5.81h-5.53a12.91 12.91 0 0 0-1.17 2h5.74c-.61 1.56-.97 3.23-1.07 5h-5.99c-.03.33-.04.66-.04 1l.04 1h5.99c.1 1.77.45 3.44 1.07 5h-5.74a12.91 12.91 0 0 0 1.17 2h5.53c1.24 2.17 3.02 4.11 5.36 5.81A.99.99 0 0 0 32 46a.99.99 0 0 0 .59-.19c2.34-1.7 4.12-3.64 5.36-5.81h5.53a12.91 12.91 0 0 0 1.17-2h-5.74c.61-1.56.97-3.23 1.07-5h5.99zM32 20.25c1.46 1.14 2.65 2.39 3.58 3.75h-7.15c.93-1.36 2.12-2.61 3.58-3.75zM27.3 26h9.4c.72 1.55 1.13 3.22 1.25 5H26.06c.11-1.78.53-3.45 1.25-5zM32 43.75c-1.46-1.14-2.65-2.39-3.58-3.75h7.15c-.93 1.36-2.12 2.61-3.58 3.75zM36.7 38h-9.4c-.72-1.55-1.13-3.22-1.25-5h11.89c-.11 1.78-.53 3.45-1.25 5z"/></g></svg>