<svg xmlns="http://www.w3.org/2000/svg" xmlns:xlink="http://www.w3.org/1999/xlink" viewBox="0 0 64 64" xmlns:v="https://vecta.io/nano"><path d="M17 64H3l3-5-3-5h16v8c0 1.1-.9 2-2 2zm30 0h14l-3-5 3-5H45v8c0 1.1.9 2 2 2z" fill="#e4c290"/><path d="M55 12v10.3A36.19 36.19 0 0 1 32 56C18.26 50.62 9 37.33 9 22.3V12L32 2l23 10z" fill="#1976d2"/><path d="M55.4 11.08l-23-10a1.01 1.01 0 0 0-.8 0l-23 10A1.01 1.01 0 0 0 8 12v10.3c0 15.44 9.3 29.02 23.64 34.63.2.09.51.09.72 0C46.68 51.33 56 37.76 56 22.3V12a1.01 1.01 0 0 0-.6-.92zM54 22.3c0 14.51-8.68 27.25-22 32.62-13.3-5.36-22-18.09-22-32.62v-9.64l22-9.57 22 9.57v9.64z" fill="#5e9fdf"/><g fill="#1976d2"><path d="M42.89,48c-3.1,2.9-6.77,5.26-10.89,6.92-4.12-1.66-7.79-4.02-10.89-6.92h21.78Z"/><path d="M45.74 48c-3.66 3.83-8.19 6.9-13.38 8.93-.2.09-.51.09-.72 0-5.19-2.03-9.72-5.1-13.38-8.93h2.85c3.1 2.9 6.77 5.26 10.89 6.92 4.12-1.66 7.79-4.02 10.89-6.92h2.85z"/></g><rect x="12" y="50" width="40" height="10" rx="2" fill="#d38e2a"/><g fill="#5e9fdf"><circle cx="32" cy="29" r="16"/><circle cx="32" cy="29" r="13"/></g><path d="M37 34c-.88 0-1.34-1.07-.71-1.71L39.58 29l-3.29-3.29c-.39-.39-.39-1.02 0-1.41s1.02-.39 1.41 0l4 4c.39.39.39 1.02 0 1.41l-4 4a.98.98 0 0 1-.71.29zm-10 0c-.26 0-.51-.1-.71-.29l-4-4c-.39-.39-.39-1.02 0-1.41l4-4c.39-.39 1.02-.39 1.41 0s.39 1.02 0 1.41L24.41 29l3.29 3.29a1.01 1.01 0 0 1-.71 1.71z" fill="#fff"/><g fill="#d38e2a"><use xlink:href="#B"/><use xlink:href="#B" x="53" y="36"/></g><path d="M31 36c-.62 0-1.09-.56-.99-1.16l2-12c.09-.54.61-.92 1.15-.82.54.09.91.61.82 1.15l-2 12c-.08.49-.51.84-.99.84z" fill="#fff"/><defs ><path id="B" d="M9.26 8.28c-1.57.85-2.7 2.39-3.1 4.2l-.14.67c-.24 1.11-1.78 1.16-2.04 0l-.14-.67c-.39-1.81-1.53-3.35-3.1-4.2-1-.54-.97-2.03 0-2.56 1.57-.85 2.7-2.39 3.1-4.2l.14-.67c.24-1.11 1.78-1.16 2.04 0l.14.67c.39 1.81 1.53 3.35 3.1 4.2 1 .54.97 2.03 0 2.56z"/></defs></svg>