<?xml version="1.0" encoding="UTF-8"?><svg id="a" xmlns="http://www.w3.org/2000/svg" viewBox="0 0 60 64"><defs><style>.b{fill:#fff;}.c{fill:#5e9fdf;}.d{fill:#e4c290;}.e{fill:#f3f3f3;}.f{fill:#1976d2;}</style></defs><g><rect class="c" x="14" width="32" height="56" rx="4" ry="4"/><path class="c" d="M44,13h2v22h-2V13Z"/></g><path class="b" d="M44,4V50c0,1.1-.9,2-2,2H18c-1.1,0-2-.9-2-2V4c0-1.1,.9-2,2-2h5.38c1.33,0,.9,2,2.24,2h8.76c1.33,0,.9-2,2.24-2h5.38c1.1,0,2,.9,2,2Z"/><path class="c" d="M14,13h2v22h-2V13Z"/><path class="e" d="M16,13h28v22H16V13Z"/><rect class="f" x="10" y="15" width="40" height="18" rx="3" ry="3"/><path class="e" d="M44,41.01v8.99c0,1.1-.9,2-2,2H20.68c.52-3.04,4.96-6,9.32-4.46l.1-14.54h9.8c.15,.68,.1,.62,.1,7.1,1.4-.29,2.86,.04,4,.91Z"/><path class="f" d="M39.9,33h-9.8c1.07-5.31,8.73-5.31,9.8,0Z"/><path class="c" d="M46,41.11v10.89c0,2.21-1.79,4-4,4-21.62,0-19.27,.15-19.91-.36-1.13-.91-1.62-2.3-1.41-3.64h21.32c1.1,0,2-.9,2-2v-8.99c.23,.17,.45,.37,.65,.58,.42-.23,.88-.39,1.35-.48Z"/><path class="d" d="M53,45c-1.66,0-3,1.34-3,3v-2c0-1.66-1.34-3-3-3s-3,1.34-3,3v-1c0-1.66-1.34-3-3-3s-3,1.34-3,3v-11c0-1.66-1.34-3-3-3s-3,1.34-3,3v17l-1.44-.96c-4.44-2.96-9.86,1.91-7.21,4.05l6.36,5.13c1.45,1.17,2.29,2.93,2.29,4.78h24v-16c0-1.66-1.34-3-3-3Z"/><g><path class="e" d="M40,29c-.55,0-1-.45-1-1v-3.67l-2.8-3.73c-.33-.44-.24-1.07,.2-1.4,.44-.33,1.07-.24,1.4,.2l2.2,2.93,2.2-2.93c.33-.44,.96-.53,1.4-.2,.44,.33,.53,.96,.2,1.4l-2.8,3.73v3.67c0,.55-.45,1-1,1Zm-10,0c-2.21,0-4-1.79-4-4v-5c0-.55,.45-1,1-1s1,.45,1,1v5c0,1.1,.9,2,2,2s2-.9,2-2v-5c0-.55,.45-1,1-1s1,.45,1,1v5c0,2.21-1.79,4-4,4Zm-9,0h-4c-.55,0-1-.45-1-1v-8c0-.55,.45-1,1-1h4c1.85,0,3,1.56,3,3,0,.77-.29,1.47-.77,2,.49,.56,.77,1.29,.77,2,0,1.65-1.35,3-3,3Zm-3-2h3c.55,0,1-.45,1-1,0-.2-.18-1-1-1-.55,0-1-.45-1-1s.45-1,1-1,1-.45,1-1c0-.2-.18-1-1-1h-3v6Z"/><g><path class="d" d="M58,33c-.26,0-.51-.1-.71-.29l-3-3c-.39-.39-.39-1.02,0-1.41s1.02-.39,1.41,0l3,3c.39,.39,.39,1.02,0,1.41-.2,.2-.45,.29-.71,.29Zm1-8h-4c-.55,0-1-.45-1-1s.45-1,1-1h4c.55,0,1,.45,1,1s-.45,1-1,1Zm-54,0H1c-.55,0-1-.45-1-1s.45-1,1-1H5c.55,0,1,.45,1,1s-.45,1-1,1Zm50-5c-.26,0-.51-.1-.71-.29-.39-.39-.39-1.02,0-1.41l3-3c.39-.39,1.02-.39,1.41,0s.39,1.02,0,1.41l-3,3c-.2,.2-.45,.29-.71,.29Z"/><path class="d" d="M2,33c-.26,0-.51-.1-.71-.29-.39-.39-.39-1.02,0-1.41l3-3c.39-.39,1.02-.39,1.41,0s.39,1.02,0,1.41l-3,3c-.2,.2-.45,.29-.71,.29Zm3-13c-.26,0-.51-.1-.71-.29l-3-3c-.39-.39-.39-1.02,0-1.41s1.02-.39,1.41,0l3,3c.39,.39,.39,1.02,0,1.41-.2,.2-.45,.29-.71,.29Z"/></g></g></svg>