<svg xmlns="http://www.w3.org/2000/svg" viewBox="0 0 64 64" xmlns:v="https://vecta.io/nano"><path d="M14.5 29h29l-6-12h-17l-6 12zm37 16h-45l6-12h33l6 12z" fill="#5e9fdf"/><path d="M58 58H0l4.5-9h49l4.5 9z" fill="#1976d2"/><path d="M35.5 13L29 0l-6.5 13h13z" fill="#d38e2a"/><path d="M51.5 45h-8.05a10.95 10.95 0 0 1 6.57-2.95L51.5 45zM58 58H41.2c-1.4-2.72-1.61-6-.45-9H53.5l4.5 9z" fill="#1976d2"/><circle cx="53" cy="53" r="11" fill="#d38e2a"/><path d="M53.62 45.04C49.47 44.51 45 48.07 45 53c0 3.76 2.64 7.48 7.5 7.97.1 0 .54.07 1.07 0C57.74 60.7 61 57.2 61 53s-3.27-7.69-7.38-7.96zM58.91 52h-1.95c-.13-1.51-.55-2.98-1.22-4.33 1.65.85 2.86 2.45 3.17 4.33zM53 58.97c-1.09-1.45-1.76-3.17-1.94-4.97h3.89a9.97 9.97 0 0 1-1.94 4.97zM51.06 52A9.97 9.97 0 0 1 53 47.03c1.09 1.45 1.76 3.17 1.94 4.97h-3.89zm-.8-4.32A11.82 11.82 0 0 0 49.05 52H47.1c.32-1.87 1.51-3.46 3.17-4.32zM47.09 54h1.95c.13 1.51.55 2.98 1.22 4.33-1.65-.85-2.86-2.45-3.17-4.33zm8.66 4.32A11.82 11.82 0 0 0 56.96 54h1.95c-.32 1.87-1.51 3.46-3.17 4.32z" fill="#fdfdfd"/></svg>