<svg xmlns="http://www.w3.org/2000/svg" viewBox="0 0 64 64" xmlns:v="https://vecta.io/nano"><path d="M62 19v39H2V19c0-1.66 1.34-3 3-3l55 .18c1.17.4 2 1.51 2 2.82z" fill="#5e9fdf"/><path d="M1 58h62c.55 0 1 .45 1 1v2c0 1.66-1.34 3-3 3H3c-1.66 0-3-1.34-3-3v-2c0-.55.45-1 1-1z" fill="#1976d2"/><path d="M60 19v37H4V19c0-.55.45-1 1-1h54c.55 0 1 .45 1 1z" fill="#fff"/><path d="M39 60H25c-1.1 0-2-.9-2-2 0-.1-.84 0 18 0 0 .81-.63 2-2 2z" fill="#f3f3f3"/><path d="M6 16h26v2H6z" fill="#1976d2"/><path d="M32 18v2c0 1.66-1.34 3-3 3H16l-2 3-2-3H9c-1.66 0-3-1.34-3-3v-2h26z" fill="#f3f3f3"/><path d="M34 3v15c0 1.66-1.34 3-3 3H18l-2 3-2-3h-3c-1.66 0-3-1.34-3-3V3c0-1.66 1.34-3 3-3h20c1.66 0 3 1.34 3 3z" fill="#5e9fdf"/><path d="M54 18v7c0 1.66-1.34 3-3 3-2.61 0-2.91-.13-3.3.45L46 31l-1.7-2.55c-.43-.63.12-.45-13.3-.45-1.66 0-3-1.34-3-3v-4h3c1.66 0 3-1.34 3-3h20z" fill="#f3f3f3"/><path d="M34,7v11c0,1.66-1.34,3-3,3h-3V10c0-1.66,1.34-3,3-3h3Z" fill="#1976d2"/><path d="M30 8v15c0 1.66 1.34 3 3 3 13.37 0 12.88-.18 13.3.45L48 29c1.8-2.7 1.84-3 2.54-3H53c1.66 0 3-1.34 3-3V8c0-1.66-1.34-3-3-3H33c-1.66 0-3 1.34-3 3z" fill="#5e9fdf"/><path d="M48.92 20.62l-5-12c-.34-.82-1.5-.82-1.85 0l-5 12c-.51 1.22 1.34 1.99 1.85.77l1.41-3.38h5.33l1.41 3.38c.51 1.22 2.35.45 1.85-.77zM41.16 16l1.83-4.4 1.83 4.4h-3.67zM26.6 14.18C30.04 9.59 26.76 3 21 3a7.01 7.01 0 0 0-7 7c0 5.76 6.59 9.04 11.18 5.6l1.11 1.11c.94.94 2.35-.48 1.41-1.41l-1.11-1.11zM16 10c0-2.76 2.24-5 5-5 3.98 0 6.36 4.45 4.17 7.75l-1.46-1.46c-.94-.94-2.35.48-1.41 1.41l1.46 1.46c-3.31 2.19-7.75-.19-7.75-4.17z" fill="#fff"/><g fill="#d9d9d9"><path d="M11 31h17v2H11zm23 0h18v2H34zm0 4h23v2H34zm0 4h23v2H34zm0 4h23v2H34zm0 4h23v2H34zM6 35h11v2H6zm0 4h11v2H6zm0 4h14v2H6zm0 4h15v2H6zm28 4h23v2H34zM6 51h22v2H6z"/><path d="M12 31h17v2H12zm-5 4h11v2H7zm0 4h11v2H7zm0 4h14v2H7zm0 4h15v2H7zm0 4h22v2H7z"/></g><path d="M25 44.96c-1.62 0-1.27-2.97.96-4.2.76-.42 1.16-1.25 1-2.13-.26-1.48-2.08-2.15-3.26-1.16-.78.65-.92 1.77-.42 2.56.7 1.12-1 2.18-1.7 1.06-1.02-1.63-.71-3.85.83-5.15 2.37-1.99 6-.63 6.51 2.35.29 1.7-.51 3.4-2.01 4.22-.58.32-.93.85-.93 1.41s-.45 1.04-1 1.04zM26 48c0-1.32-2-1.32-2 0s2 1.32 2 0z" fill="#d38e2a"/></svg>