<svg xmlns="http://www.w3.org/2000/svg" viewBox="0 0 64 64" xmlns:v="https://vecta.io/nano"><g fill="#1976d2"><rect x="12" width="40" height="64" rx="8"/><path d="M52 8v48a8 8 0 0 1-8 8H20a8 8 0 0 1-8-8V8c0-4.4 3.57-8 8-8h24a8 8 0 0 1 8 8z"/></g><path d="M49 9v45c0 3.31-2.69 6-6 6H21c-3.31 0-6-2.69-6-6V9c0-3.38 2.75-6 6-6h3.29a.98.98 0 0 1 .94.68l.31.95A2.01 2.01 0 0 0 27.44 6h9.12a2.01 2.01 0 0 0 1.9-1.37l.31-.94a1 1 0 0 1 .95-.69H43c3.31 0 6 2.69 6 6z" fill="#fff"/><path d="M42 58H22c-.55 0-1-.45-1-1 0-.29.22-1 1-1h20c.55 0 1 .45 1 1 0 .29-.22 1-1 1z" fill="#d9d9d9"/><path d="M28 17v12c0 1.1-.9 2-2 2h-1l-2.2 2.93c-.4.54-1.2.54-1.6 0L19 31H2c-1.1 0-2-.9-2-2V17c0-1.1.9-2 2-2h24c1.1 0 2 .9 2 2z" fill="#1976d2"/><g fill="#f3f3f3"><path d="M8 22.99C8 23.82 7.35 25 6 25c-1.1 0-2-.9-2-2s.9-2 2-2c.8 0 1.99.64 2 1.99z"/><circle cx="22" cy="23" r="2"/></g><path d="M16.3 5.27A5.93 5.93 0 0 0 15 9v6h-3c0-7.33-.17-8.06.54-9.89 1.29-.19 2.58-.13 3.76.16z" fill="#1976d2"/><path d="M8 22.99c-.75-.56-1.43-1.24-1.99-1.99 1.09.01 1.98.9 1.99 1.99z" fill="#d9d9d9"/><path d="M24 15h-9V9a5.93 5.93 0 0 1 1.3-3.73C20.71 6.31 24 10.28 24 15z" fill="#f3f3f3"/><g fill="#1976d2"><path d="M24,15c0,2.24-.75,4.32-2,6-1.09,0-1.99,.89-2,1.98-1.42,1.08-3.14,1.79-5,1.97V15h9Z"/><path d="M15 15v9.95c-2.68.24-5.07-.5-7-1.95 0-.75-.61-2-2-2a9.99 9.99 0 0 1-2-6h11z"/></g><g fill="#d9d9d9"><circle cx="14" cy="23" r="2"/><path d="M22 21c-.57.75-1.24 1.42-2 1.98A2.01 2.01 0 0 1 22 21z"/></g><circle cx="14" cy="15" r="8" fill="#fff"/><g fill="#d38e2a"><path d="M14,20c-2.76,0-5-2.24-5-5s2.24-5,5-5,5,2.24,5,5-2.24,5-5,5Zm0-8c-1.65,0-3,1.35-3,3s1.35,3,3,3,3-1.35,3-3-1.35-3-3-3Z"/><path d="M18 20c-.54 0-.57-.15-2.71-2.29-.39-.39-.39-1.02 0-1.41s1.02-.39 1.41 0l2 2a1.01 1.01 0 0 1-.71 1.71zm46 12v14c0 1.1-.9 2-2 2H45l-2.2 2.93c-.4.54-1.2.54-1.6 0L39 48h-1c-1.1 0-2-.9-2-2V32c0-1.1.9-2 2-2h24c1.1 0 2 .9 2 2z"/></g><path d="M39 34h12v2H39zm14 0h8v2h-8zm-4 4h12v2H49zm-10 0h8v2h-8zm0 4h12v2H39zm14 0h8v2h-8z" fill="#fff"/><path d="M52 20.2V30h-3v-9.95c.97-.09 1.93-.07 3 .15z" fill="#1976d2"/><path d="M53 34v2h4.99c-.57.76-1.24 1.43-2 2H49v-8h11a9.88 9.88 0 0 1-.84 4H53z" fill="#e4c290"/><path d="M49 38h6.99c-1.9 1.44-4.32 2.19-6.99 1.95V38zm10.16-4c-.31.72-.7 1.39-1.17 2H53v-2h6.16zM49 20.05V30h-9c0-5.17 3.96-9.45 9-9.95z" fill="#f3f3f3"/><path d="M49 36v3.95c-.69-.07-1.36-.21-2-.41V38h-2.98c-.77-.57-1.44-1.24-2.02-2h7z" fill="#e4c290"/><path d="M44.02 38H47v1.54c-1.09-.34-2.09-.87-2.98-1.54z" fill="#f3f3f3"/><path d="M49,30v4h-8.16c-.54-1.23-.84-2.58-.84-4h9Z" fill="#e4c290"/><path d="M49 34v2h-7a10.22 10.22 0 0 1-1.16-2H49z" fill="#f3f3f3"/><circle cx="50" cy="30" r="8" fill="#fff"/><g fill="#1976d2"><path d="M53 35c-.4 0-.79-.25-.94-.65L50 28.85l-2.06 5.5c-.19.52-.77.78-1.29.59a.99.99 0 0 1-.58-1.29l3-8c.32-.86 1.55-.86 1.87 0l3 8c.24.65-.24 1.35-.94 1.35z"/><path d="M52,33h-4c-.55,0-1-.45-1-1s.45-1,1-1h4c.55,0,1,.45,1,1s-.45,1-1,1Z"/></g><g fill="#d9d9d9"><circle cx="45" cy="8" r="1"/><circle cx="41" cy="8" r="1"/><path d="M32 15h12v2H32zm0 4h8v2h-8zm0 25H20v-2h12zm0 4h-8v-2h8z"/></g></svg>