<svg xmlns="http://www.w3.org/2000/svg" xmlns:xlink="http://www.w3.org/1999/xlink" viewBox="0 0 64 64" xmlns:v="https://vecta.io/nano"><path d="M52 6v52c0 3.31-2.69 6-6 6H18c-3.31 0-6-2.69-6-6V6c0-3.31 2.69-6 6-6l29.2.12C49.91.67 52 3.08 52 6z" fill="#5e9fdf"/><rect x="14" y="2" width="36" height="58" rx="4" fill="#fff"/><path d="M18 2h2v11h-6V6a4 4 0 0 1 4-4z" fill="#5e9fdf"/><path d="M20 2h6v11h-6z" fill="#1976d2"/><path d="M26 2h6v11h-6z" fill="#5e9fdf"/><path d="M32 2h6v11h-6z" fill="#1976d2"/><path d="M38 2h6v11h-6z" fill="#5e9fdf"/><g fill="#1976d2"><path d="M44 2h2a4 4 0 0 1 4 4v7h-6V2h0z"/><use xlink:href="#B"/><use xlink:href="#B" x="6"/><use xlink:href="#B" x="12"/><use xlink:href="#B" x="18"/><use xlink:href="#B" x="24"/><use xlink:href="#B" x="30"/></g><g fill="#d38e2a"><path d="M31,55V25c0-1.32,2-1.32,2,0v30c0,1.32-2,1.32-2,0Z"/><path d="M47 41H17c-1.32 0-1.32-2 0-2h30c1.32 0 1.32 2 0 2zm-19-4H17c-.55 0-1-.45-1-1V25c0-.55.45-1 1-1h11c.55 0 1 .45 1 1v11c0 .55-.45 1-1 1zm-10-2h9v-9h-9v9zm3-6h3v3h-3z"/><use xlink:href="#C"/><path d="M40 29h3v3h-3z"/><use xlink:href="#C" x="19"/><path d="M21 48h3v3h-3z"/><use xlink:href="#C" y="19"/><path d="M28 56H17c-.55 0-1-.45-1-1V44c0-.55.45-1 1-1h11c.55 0 1 .45 1 1v11c0 .55-.45 1-1 1zm-10-2h9v-9h-9v9zm29-17H36c-.55 0-1-.45-1-1V25c0-.55.45-1 1-1h11c.55 0 1 .45 1 1v11c0 .55-.45 1-1 1zm-10-2h9v-9h-9v9zm10 21H36c-.55 0-1-.45-1-1V44c0-.55.45-1 1-1h11c.55 0 1 .45 1 1v11c0 .55-.45 1-1 1zm-10-2h9v-9h-9v9z"/></g><path d="M10 25v-5c0-.55.45-1 1-1h5c1.32 0 1.32 2 0 2h-4v4c0 1.32-2 1.32-2 0zm42 0v-4h-4c-1.32 0-1.32-2 0-2h5c.55 0 1 .45 1 1v5c0 1.32-2 1.32-2 0zM16 61h-5c-.55 0-1-.45-1-1v-5c0-1.32 2-1.32 2 0v4h4c1.32 0 1.32 2 0 2zm37 0h-5c-1.32 0-1.32-2 0-2h4v-4c0-1.32 2-1.32 2 0v5c0 .55-.45 1-1 1z" fill="#1976d2"/><path d="M40 52c-.88 0-1.34-1.07-.71-1.71l3-3c.94-.94 2.35.48 1.41 1.41-3.11 3.11-3.13 3.29-3.71 3.29zm0-5c0-1.32-2-1.32-2 0s2 1.32 2 0zm5 5c0-1.32-2-1.32-2 0s2 1.32 2 0z" fill="#d38e2a"/><defs ><path id="B" d="M17,17c-1.66,0-3-1.34-3-3v-1h6v1c0,1.66-1.34,3-3,3Z"/><path id="C" d="M24 33h-3c-.55 0-1-.45-1-1v-3c0-.55.45-1 1-1h3c.55 0 1 .45 1 1v3c0 .55-.45 1-1 1zm-2-2h1v-1h-1v1z"/></defs></svg>