<?xml version="1.0" encoding="UTF-8"?><svg id="a" xmlns="http://www.w3.org/2000/svg" viewBox="0 0 64 60"><defs><style>.b{fill:#fff;}.c{fill:#5e9fdf;}.d{fill:#c8c8c8;}.e{fill:#d38e2a;}.f{fill:#f3f3f3;}.g{fill:#d9d9d9;}.h{fill:#1976d2;}</style></defs><path class="g" d="M13,14c-1.14,0-1.39-1.62-.3-1.95L44.7,1.05c1.26-.4,1.86,1.51,.6,1.91L13,14Z"/><rect class="c" x="8" y="12" width="56" height="38" rx="3" ry="3"/><rect class="b" x="10" y="14" width="52" height="34" rx="1" ry="1"/><path class="g" d="M15,18v26c0,1.32-2,1.32-2,0V18c0-1.32,2-1.32,2,0Zm4,0v26c0,1.32-2,1.32-2,0V18c0-1.32,2-1.32,2,0Zm4,0v26c0,1.32-2,1.32-2,0V18c0-1.32,2-1.32,2,0Zm4,0v26c0,1.32-2,1.33-2,0V18c0-1.32,2-1.32,2,0Zm2,26V18c0-1.34,2-1.29,2,0v26c0,1.34-2,1.29-2,0Zm4,0V18c0-1.34,2-1.29,2,0v26c0,1.34-2,1.29-2,0Z"/><circle class="e" cx="50" cy="25" r="9"/><g><circle class="c" cx="43" cy="39" r="2"/><circle class="c" cx="57" cy="39" r="2"/><circle class="c" cx="50" cy="43" r="2"/></g><path class="f" d="M45,29c-.55,0-1-.45-1-1v-6c0-.55,.45-1,1-1h3c.55,0,1,.45,1,1s-.45,1-1,1h-2v5c0,.55-.45,1-1,1Z"/><path class="f" d="M48,24h-3c-1.32,0-1.32,2,0,2h3c1.32,0,1.32-2,0-2Zm7.38-2.92c-.74-.31-1.01,.14-2.38,1.51-1.11-1.11-1.56-1.85-2.38-1.51-.37,.15-.62,.52-.62,.92v6c0,1.32,2,1.32,2,0v-3.59l.29,.29c.39,.39,1.02,.39,1.41,0l.29-.29v3.59c0,1.32,2,1.32,2,0v-6c0-.4-.24-.77-.62-.92h0Z"/><g><circle class="h" cx="45" cy="2" r="2"/><path class="h" d="M26,48v2H11c-1.66,0-3-1.34-3-3v-5h2v5c0,.55,.45,1,1,1h15Z"/></g><path class="f" d="M26,48H11c-.55,0-1-.45-1-1v-5h3v2c0,1.32,2,1.32,2,0,0-2.33-.07-2,.17-2l1.83-1.72v3.72c0,1.32,2,1.32,2,0v-3.72c.28,.15,.27,.18,1.83,1.72,.24,0,.17-.3,.17,2,0,1.32,2,1.32,2,0v-1.87c.78,.2,1.48,.63,2,1.22v.65c0,.51,.38,.93,.87,.99,.18,.64,.13,1.14,.13,3.01Z"/><path class="d" d="M25.87,44.99c-.49-.06-.87-.48-.87-.99v-.65c.41,.47,.71,1.03,.87,1.64Zm-12.87-2.99h2v2c0,1.32-2,1.32-2,0v-2Zm6-1.72v3.72c0,1.32-2,1.32-2,0v-3.72c.62-.37,1.38-.37,2,0Zm4,1.85v1.87c0,1.32-2,1.32-2,0v-2c.97,0,1.42-.03,2,.13Z"/><path class="e" d="M24,58v-12c0-1.1-.9-2-2-2h-2l-2-2-2,2H2c-1.1,0-2,.9-2,2v12c0,1.1,.9,2,2,2H22c1.1,0,2-.9,2-2Z"/><g><circle class="b" cx="19" cy="52" r="2"/><circle class="b" cx="12" cy="52" r="2"/><circle class="b" cx="5" cy="52" r="2"/></g></svg>