<svg xmlns="http://www.w3.org/2000/svg" xmlns:xlink="http://www.w3.org/1999/xlink" viewBox="0 0 64 64" xmlns:v="https://vecta.io/nano"><path d="M14 52v10c0 1.1-.9 2-2 2H0l2-6-2-6h14zm48 6l2 6H52c-1.1 0-2-.9-2-2V52h14l-2 6z" fill="#1976d2"/><path d="M56 13v8.37C56 36.65 46.57 50.54 32 56 17.7 50.64 8 36.93 8 21.37V13L32 2l24 11z" fill="#fff"/><path d="M56.83 11.18l-24-11c-.53-.24-1.13-.24-1.66 0l-24 11C6.46 11.51 6 12.22 6 13v8.37c0 16.25 10.27 30.87 25.3 36.5.42.17.98.17 1.4 0C47.74 52.24 58 37.62 58 21.37V13c0-.78-.46-1.49-1.17-1.82zM54 21.37c0 14.2-8.76 27.19-22 32.49-13.23-5.3-22-18.28-22-32.49v-7.09L32 4.2l22 10.08v7.09z" fill="#1976d2"/><path d="M43.82 46A34.67 34.67 0 0 1 32 53.86 34.67 34.67 0 0 1 20.18 46H26v2h12v-2h5.82z" fill="#d9d9d9"/><path d="M49.18 46c-4.27 5.25-9.91 9.41-16.48 11.87-.42.17-.97.17-1.4 0-6.57-2.46-12.21-6.62-16.48-11.87h5.36A34.67 34.67 0 0 0 32 53.86 34.67 34.67 0 0 0 43.82 46h5.36z" fill="#1976d2"/><rect x="11" y="48" width="42" height="14" rx="2" fill="#5e9fdf"/><path d="M38.9 35.01c-.57.36-.9 1-.9 1.67V48H26V36.68c0-.67-.33-1.31-.9-1.67-8.51-5.33-8.02-17.91.9-22.54V22l6 2 6-2v-9.53c8.91 4.63 9.42 17.2.9 22.54z" fill="#d38e2a"/><path d="M26 46h12v2H26z" fill="#e4c290"/><g fill="#d38e2a"><use xlink:href="#B"/><use xlink:href="#B" x="43" y="21"/></g><path d="M32 44c-.81 0-2-.63-2-2v-4c0-1.1.9-2 2-2 .81 0 2 .63 2 2v4c0 1.1-.9 2-2 2z" fill="#f3f3f3"/><g fill="#fff"><use xlink:href="#C"/><use xlink:href="#C" x="15"/><path d="M17 57.03l-1.21.64c-.37.19-.8-.12-.73-.53l.23-1.35-.98-.96c-.3-.29-.13-.79.28-.85l1.35-.2.61-1.23c.18-.37.71-.37.9 0l.61 1.23 1.35.2a.5.5 0 0 1 .28.85l-.98.96.23 1.35c.07.41-.36.72-.73.53L17 57.03zm15 0l-1.21.64c-.37.19-.8-.12-.73-.53l.23-1.35-.98-.96c-.3-.29-.13-.79.28-.85l1.35-.2.61-1.23c.18-.37.71-.37.9 0l.61 1.23 1.35.2a.5.5 0 0 1 .28.85l-.98.96.23 1.35c.07.41-.36.72-.73.53L32 57.03zm15 0l-1.21.64c-.37.19-.8-.12-.73-.53l.23-1.35-.98-.96c-.3-.29-.13-.79.28-.85l1.35-.2.61-1.23c.18-.37.71-.37.9 0l.61 1.23 1.35.2a.5.5 0 0 1 .28.85l-.98.96.23 1.35c.07.41-.36.72-.73.53L47 57.03z"/></g><defs ><path id="B" d="M20.54 8.84a10.14 10.14 0 0 0-4.04 5l-.56 1.51c-.33.86-1.55.87-1.88 0l-.56-1.51a10.14 10.14 0 0 0-4.04-5c-.61-.38-.61-1.3 0-1.68a10.14 10.14 0 0 0 4.04-5l.56-1.51c.33-.86 1.55-.87 1.88 0l.56 1.51a10.14 10.14 0 0 0 4.04 5c.61.38.61 1.3 0 1.68z"/><path id="C" d="M24.5 57.03l-1.21.64c-.37.19-.8-.12-.73-.53l.23-1.35-.98-.96c-.3-.29-.13-.79.28-.85l1.35-.2.61-1.23c.18-.37.71-.37.9 0l.61 1.23 1.35.2a.5.5 0 0 1 .28.85l-.98.96.23 1.35c.07.41-.36.72-.73.53l-1.21-.64z"/></defs></svg>