<svg xmlns="http://www.w3.org/2000/svg" xmlns:xlink="http://www.w3.org/1999/xlink" viewBox="0 0 64 64" xmlns:v="https://vecta.io/nano"><g fill="#5e9fdf"><path d="M6 0h52c1.1 0 2 .9 2 2v4H4V2c0-1.1.9-2 2-2z"/><path d="M17 0h19a4 4 0 0 1 4 4v2H17V0h0z"/></g><path d="M60 6v43c0 1.1-.9 2-2 2H6c-1.1 0-2-.9-2-2V2c0-1.1.9-2 2-2h12a4 4 0 0 1 4 4v2h38z" fill="#f3f3f3"/><path d="M57 3c0-1.32-2-1.32-2 0s2 1.32 2 0zm-4 0c0-1.32-2-1.32-2 0s2 1.32 2 0z" fill="#1976d2"/><path d="M49,3c0-1.32-2-1.32-2,0s2,1.32,2,0Z" fill="#f3f3f3"/><path d="M37,3c0-1.32-2-1.32-2,0s2,1.32,2,0Z" fill="#1976d2"/><path d="M19,3c0-1.32-2-1.32-2,0s2,1.32,2,0Z" fill="#d38e2a"/><g fill="#1976d2"><path d="M52 6h8v10h-8z"/><use xlink:href="#B"/></g><path d="M44 6h8v10h-8z" fill="#5e9fdf"/><g fill="#1976d2"><use xlink:href="#B" x="-8"/><path d="M36 6h8v10h-8z"/><use xlink:href="#B" x="-16"/></g><path d="M28 6h8v10h-8z" fill="#5e9fdf"/><g fill="#1976d2"><use xlink:href="#B" x="-24"/><path d="M20 6h8v10h-8z"/><use xlink:href="#B" x="-32"/></g><path d="M12 6h8v10h-8z" fill="#5e9fdf"/><g fill="#1976d2"><use xlink:href="#B" x="-40"/><path d="M4 6h8v10H4z"/></g><path d="M46 46v5H17.54a4.1 4.1 0 0 1 .65-.84C17.38 47.43 19.44 45 22 45h3.13c-.43-3.26 2.05-6.77 5.09-6.27 2.98.53 2.39 3.41 6.2 5.52C37.08 42.92 38.43 42 40 42h2a4 4 0 0 1 4 4z" fill="#d9d9d9"/><use xlink:href="#B" x="-48" fill="#1976d2"/><g fill="#d38e2a"><path d="M38 63H24c-1.1 0-2-.9-2-2 0-.81.63-2 2-2h14v4z"/><path d="M38 59H22c-1.1 0-2-.9-2-2 0-.81.63-2 2-2h16v4z"/><path d="M38 55H21c-1.1 0-2-.9-2-2 0-.81.63-2 2-2h17v4z"/><path d="M38 51H22c-1.1 0-2-.9-2-2 0-.81.63-2 2-2h16v4z"/></g><rect x="38" y="44" width="6" height="20" rx="2" fill="#1976d2"/><g fill="#d38e2a"><path d="M38 47c-2.51-.63-4.78-2.17-6.29-4.43l-.79-1.19c-1.51-2.26-5.08 1.31-3.43 4.6l.51 1.01M15 25l-4 11 4-2 4 2-4-11z"/><path d="M15 34l-6-5h12l-6 5m34-9l-4 11 4-2 4 2-4-11z"/><path d="M49 34l-6-5h12l-6 5m-17-9l-4 11 4-2 4 2-4-11z"/><path d="M32 34l-6-5h12l-6 5"/></g><defs ><path id="B" d="M56 21a4 4 0 0 1-4-4v-1h8v1a4 4 0 0 1-4 4z"/></defs></svg>