<svg xmlns="http://www.w3.org/2000/svg" viewBox="0 0 64 64" xmlns:v="https://vecta.io/nano"><ellipse cx="32" cy="61" rx="8" ry="3" fill="#d38e2a"/><path d="M49 29.95V41c0 1.1-.9 2-2 2H17c-1.1 0-2-.9-2-2V29.95c0-1.75 1.15-3.3 2.82-3.82L28 23h8l10.18 3.13c1.67.52 2.82 2.07 2.82 3.82z" fill="#5e9fdf"/><path d="M31 30h2v13h-2z" fill="#1976d2"/><path d="M32,30c-2.76,0-5-2.23-5-5v-3h10v3c0,2.76-2.24,5-5,5Z" fill="#d38e2a"/><g fill="#5e9fdf"><path d="M32 30l-6 3-.91-9.11 2.09-.64L32 30z"/><path d="M38.91 23.89L38 33l-6-3 4.82-6.75 2.09.64z"/></g><path d="M21 7h2v6h-2z" fill="#1976d2"/><path d="M21 11h3v8h-3c-.55 0-1-.45-1-1v-6c0-.55.45-1 1-1z" fill="#5e9fdf"/><path d="M39,9H22c-1.66,0-3-1.34-3-3V0h18c1.66,0,3,1.34,3,3,1.66,0,3,1.34,3,3v7h-2v-2c0-1.1-.9-2-2-2Z" fill="#1976d2"/><path d="M43 19h-3v-8h3c.55 0 1 .45 1 1v6c0 .55-.45 1-1 1z" fill="#5e9fdf"/><path d="M32 25c-4.97 0-9-4.03-9-9V9h16c1.1 0 2 .9 2 2v5c0 4.97-4.03 9-9 9z" fill="#e4c290"/><path d="M29.55 21.89a1.01 1.01 0 0 1-.45-1.34 1.01 1.01 0 0 1 1.34-.45c.97.49 2.13.49 3.11 0 .49-.25 1.09-.05 1.34.45a.99.99 0 0 1-.45 1.34c-1.53.77-3.36.77-4.89 0z" fill="#d38e2a"/><path d="M43 22h-4c-.55 0-1-.45-1-1s.45-1 1-1h3v-2c0-.55.45-1 1-1s1 .45 1 1v3c0 .55-.45 1-1 1z" fill="#f3f3f3"/><g fill="#1976d2"><path d="M49 38v3c0 1.1-.9 2-2 2H33v-5h16zm-18 0v5H17c-1.1 0-2-.9-2-2v-3h16z"/><path d="M31 38h2v5h-2z"/></g><path d="M4 44v8a4 4 0 0 0 4 4h19.04c.61 0 1.18.28 1.56.75l2.62 3.27a1 1 0 0 0 1.56 0l2.62-3.27c.38-.47.95-.75 1.56-.75H56a4 4 0 0 0 4-4v-8a4 4 0 0 0-4-4H8a4 4 0 0 0-4 4z" fill="#e4c290"/><path d="M12 50.26l-1.56.82c-.37.19-.8-.12-.73-.53l.3-1.73-1.26-1.23c-.3-.29-.13-.79.28-.85l1.74-.25.78-1.58c.18-.37.71-.37.9 0l.78 1.58 1.74.25a.5.5 0 0 1 .28.85l-1.26 1.23.3 1.73c.07.41-.36.72-.73.53L12 50.26zm10 0l-1.56.82c-.37.19-.8-.12-.73-.53l.3-1.73-1.26-1.23c-.3-.29-.13-.79.28-.85l1.74-.25.78-1.58c.18-.37.71-.37.9 0l.78 1.58 1.74.25a.5.5 0 0 1 .28.85l-1.26 1.23.3 1.73c.07.41-.36.72-.73.53L22 50.26zm10 0l-1.56.82c-.37.19-.8-.12-.73-.53l.3-1.73-1.26-1.23c-.3-.29-.13-.79.28-.85l1.74-.25.78-1.58c.18-.37.71-.37.9 0l.78 1.58 1.74.25a.5.5 0 0 1 .28.85l-1.26 1.23.3 1.73c.07.41-.36.72-.73.53L32 50.26zm10 0l-1.56.82c-.37.19-.8-.12-.73-.53l.3-1.73-1.26-1.23c-.3-.29-.13-.79.28-.85l1.74-.25.78-1.58c.18-.37.71-.37.9 0l.78 1.58 1.74.25a.5.5 0 0 1 .28.85l-1.26 1.23.3 1.73c.07.41-.36.72-.73.53L42 50.26zm10 0l-1.56.82c-.37.19-.8-.12-.73-.53l.3-1.73-1.26-1.23c-.3-.29-.13-.79.28-.85l1.74-.25.78-1.58c.18-.37.71-.37.9 0l.78 1.58 1.74.25a.5.5 0 0 1 .28.85l-1.26 1.23.3 1.73c.07.41-.36.72-.73.53L52 50.26z" fill="#fff"/></svg>