<svg xmlns="http://www.w3.org/2000/svg" viewBox="0 0 64 64" xmlns:v="https://vecta.io/nano"><g fill="#1976d2"><path d="M54.94 50.32A31.8 31.8 0 0 1 32 60C14.35 60 0 45.65 0 28A31.8 31.8 0 0 1 9.68 5.06c.36-.35.93-.37 1.32-.06l11.62 9.22c.29.23.43.6.36.96l-2 11c-.06.34-.29.62-.61.75l-8.24 3.29c1.02 9.22 8.43 16.63 17.65 17.65l3.29-8.24c.13-.32.41-.55.75-.61l11-2a.98.98 0 0 1 .96.36L55 49c.32.39.29.96-.06 1.32z"/><path d="M22.98 15.18l-2 11c-.06.34-.29.62-.61.75L15.19 29l3.42-17.96 4.01 3.18c.29.23.43.6.36.96zm25.98 26.21L31 44.81l2.07-5.18c.13-.32.41-.55.75-.61l11-2a.98.98 0 0 1 .96.36l3.18 4.01z"/></g><path d="M32,56v4C14.35,60,0,45.65,0,28H4c0,15.46,12.54,28,28,28Z" fill="#5e9fdf"/><rect x="30" y="4" width="34" height="16" rx="2" fill="#e4c290"/><path d="M27 9v12c0 1.1.9 2 2 2h17c.63 0 1.22.3 1.6.8l1.6 2.13c.4.53 1.2.53 1.6 0l1.6-2.13c.38-.5.97-.8 1.6-.8h5c1.1 0 2-.9 2-2V9c0-1.1-.9-2-2-2H29c-1.1 0-2 .9-2 2z" fill="#d38e2a"/><path d="M33 16.95l-1.44.75c-.37.19-.8-.12-.73-.53l.27-1.6-1.16-1.13c-.3-.29-.13-.79.28-.85l1.61-.23.72-1.45c.18-.37.71-.37.9 0l.72 1.45 1.61.23a.5.5 0 0 1 .28.85l-1.16 1.13.27 1.6c.07.41-.36.72-.73.53L33 16.95zm11 0l-1.44.75c-.37.19-.8-.12-.73-.53l.27-1.6-1.16-1.13c-.3-.29-.13-.79.28-.85l1.61-.23.72-1.45c.18-.37.71-.37.9 0l.72 1.45 1.61.23a.5.5 0 0 1 .28.85l-1.16 1.13.27 1.6c.07.41-.36.72-.73.53L44 16.95zm11 0l-1.44.75c-.37.19-.8-.12-.73-.53l.27-1.6-1.16-1.13c-.3-.29-.13-.79.28-.85l1.61-.23.72-1.45c.18-.37.71-.37.9 0l.72 1.45 1.61.23a.5.5 0 0 1 .28.85l-1.16 1.13.27 1.6c.07.41-.36.72-.73.53L55 16.95z" fill="#f3f3f3"/><g fill="#5e9fdf"><circle cx="28" cy="26" r="1"/><circle cx="32" cy="26" r="1"/></g><circle cx="36" cy="26" r="1" fill="#1976d2"/></svg>