<svg xmlns="http://www.w3.org/2000/svg" viewBox="0 0 64 64" xmlns:v="https://vecta.io/nano"><rect y="14" width="64" height="46" rx="3" fill="#1976d2"/><g fill="#f3f3f3"><path d="M32 14.41V57c-1.28-1.28-3.02-2-4.83-2H4V11h24.59c1.92 0 3.41 1.56 3.41 3.41z"/><path d="M32 14.41V57c1.28-1.28 3.02-2 4.83-2H60V11H35.41C33.49 11 32 12.56 32 14.41z"/></g><path d="M36 16h21v12H36zM8 16h12v18H8zm28 14h17v2H36zm0 4h21v2H36zm0 4h21v2H36zm0 4h21v2H36zm0 4h21v2H36zm0 4h21v2H36zM22 16h6v2h-6zm0 4h6v2h-6zm0 4h6v2h-6zm0 4h6v2h-6zm0 4h6v2h-6zm-12 4h18v2H10zm0 4h18v2H10zm0 4h18v2H10zm0 4h18v2H10z" fill="#d9d9d9"/><g fill="#d38e2a"><path d="M11 11v47l-2-2-2 2V11c0-1.1.9-2 2-2 .81 0 2 .63 2 2zm42 52l-2-9 9 2-7 7z"/><path d="M53.004 57.995l2.001-2.001 4.999 4.999-2.001 2.001zM44 8c-2.16 4.16-6.98 7-12 7s-9.84-2.84-12-7c2.16-4.16 6.98-7 12-7s9.84 2.84 12 7z"/></g><path d="M32 12a4 4 0 0 1-4-4c0-2.72 2.65-4.62 5.18-3.82-.79 1.64 1.01 3.42 2.64 2.64.8 2.53-1.1 5.18-3.82 5.18z" fill="#f3f3f3"/></svg>