<svg xmlns="http://www.w3.org/2000/svg" xmlns:xlink="http://www.w3.org/1999/xlink" viewBox="0 0 64 64" xmlns:v="https://vecta.io/nano"><path d="M46,25v31H8V5c0-2.76,2.24-5,5-5H50" fill="#f3f3f3"/><path d="M60 25H46V5c0-2.76 2.24-5 5-5s5 2.23 5 5v1" fill="#d9d9d9"/><path d="M60 25a4 4 0 0 1-4-4V6h8v15a4 4 0 0 1-4 4z" fill="#c8c8c8"/><path d="M31,64H1c-1.34,0-1.29-2,0-2H31c1.34,0,1.29,2,0,2Z" fill="#1976d2"/><path d="M2 52h8v10H2zm10-4h8v14h-8z" fill="#5e9fdf"/><path d="M22 42h8v20h-8z" fill="#1976d2"/><g fill="#d38e2a"><path d="M38.5 18H35c-1.32 0-1.32-2 0-2h3.5a1.5 1.5 0 1 0 0-3h-1c-1.93 0-3.5-1.57-3.5-3.5S35.57 6 37.5 6H41c1.32 0 1.32 2 0 2h-3.5a1.5 1.5 0 1 0 0 3h1c1.93 0 3.5 1.57 3.5 3.5S40.43 18 38.5 18z"/><path d="M37 7V5c0-1.32 2-1.32 2 0v2c0 1.32-2 1.32-2 0zm0 12v-2c0-1.32 2-1.32 2 0v2c0 1.32-2 1.32-2 0z"/></g><g fill="#d9d9d9"><path d="M12 10h19v2H12zm0-4h19v2H12zm0 8h19v2H12zm0 4h19v2H12z"/><use xlink:href="#B"/><use xlink:href="#C"/><use xlink:href="#C" x="8"/><use xlink:href="#C" x="16"/><use xlink:href="#B" y="4"/><use xlink:href="#C" y="4"/><use xlink:href="#C" x="8" y="4"/><use xlink:href="#C" x="16" y="4"/><use xlink:href="#B" y="8"/><use xlink:href="#C" y="8"/><use xlink:href="#C" x="8" y="8"/><use xlink:href="#C" x="16" y="8"/></g><path d="M6 48c-1.04 0-1.39-1.4-.47-1.88l19-10c1.17-.62 2.1 1.16.93 1.77L6 48z" fill="#d38e2a"/><defs ><path id="B" d="M17 30h-4c-.55 0-1-.45-1-1v-4c0-.55.45-1 1-1h4c.55 0 1 .45 1 1v4c0 .55-.45 1-1 1zm-3-2h2v-2h-2v2z"/><path id="C" d="M25 30h-8c-.55 0-1-.45-1-1v-4c0-.55.45-1 1-1h8c.55 0 1 .45 1 1v4c0 .55-.45 1-1 1zm-7-2h6v-2h-6v2z"/></defs></svg>