<svg xmlns="http://www.w3.org/2000/svg" viewBox="0 0 64 64" xmlns:v="https://vecta.io/nano"><path d="M56 38H40c0-4.53-1.55-8.54-4.18-11.63S32 19.79 32 16C32 3.59 46.1-5.5 59.16 3.86c.41.29.77.65 1.06 1.06 5.55 7.84 4.49 16.03.07 21.32C57.47 29.62 56 33.46 56 38z" fill="#d9d9d9"/><g fill="#d38e2a"><path d="M40,38h16v2c0,2.76-2.24,5-5,5h-6c-2.76,0-5-2.24-5-5v-2h0Z"/><path d="M48 48a4 4 0 0 1-4-4h8a4 4 0 0 1-4 4z"/></g><path d="M47.08 37.38l-7-17c-.27-.66.22-1.38.92-1.38 15.05 0 14.41-.19 14.83.44s.68-.48-6.91 17.94c-.34.82-1.51.82-1.85 0zM42.5 21l5.51 13.37L53.52 21H42.51z" fill="#f3f3f3"/><path d="M15.13 16.88c-1.15-1.14-3.1-1.14-4.26 0-.94.93-2.35-.5-1.4-1.42a5 5 0 0 1 7.06 0c.94.93-.47 2.34-1.4 1.42z" fill="#5e9fdf"/><path d="M5.93 11.93c3.97-3.97 10.38-3.83 14.14 0 .93.94-.5 2.35-1.43 1.4-3.01-3.07-8.13-3.16-11.3 0-.93.93-2.35-.48-1.41-1.41z" fill="#1976d2"/><g fill="#5e9fdf"><path d="M14 19c0-1.32-2-1.32-2 0s2 1.32 2 0zm33 34v-2c0-1.32 2-1.32 2 0v2c0 1.32-2 1.32-2 0zm1 7h-2c-1.32 0-1.32-2 0-2h1v-1c0-1.32 2-1.32 2 0v2c0 .55-.45 1-1 1zm-6 0h-2c-1.32 0-1.32-2 0-2h2c1.32 0 1.32 2 0 2zm-6 0h-2c-1.32 0-1.32-2 0-2h2c1.32 0 1.32 2 0 2zm-6 0h-2c-1.32 0-1.32-2 0-2h2c1.32 0 1.32 2 0 2z"/><rect y="22" width="26" height="42" rx="4"/></g><path d="M24 26v33c0 1.1-.9 2-2 2H4c-1.1 0-2-.9-2-2V26c0-1.1.9-2 2-2h4c.8 1.61.88 2 1.62 2h6.76c.73 0 .84-.44 1.62-2h4c1.1 0 2 .9 2 2z" fill="#f3f3f3"/><circle cx="13" cy="40" r="4" fill="#d38e2a"/><circle cx="13" cy="52" r="4" fill="#5e9fdf"/></svg>