<svg xmlns="http://www.w3.org/2000/svg" viewBox="0 0 64 64" xmlns:v="https://vecta.io/nano"><path d="M62,19V58H2V19c0-1.66,1.34-3,3-3H59c1.66,0,3,1.34,3,3Z" fill="#5e9fdf"/><path d="M1 58h62c.55 0 1 .45 1 1v2c0 1.66-1.34 3-3 3H3c-1.66 0-3-1.34-3-3v-2c0-.55.45-1 1-1z" fill="#1976d2"/><path d="M60 19v4H20l-4-5h43c.55 0 1 .45 1 1z" fill="#5e9fdf"/><path d="M60 23v33H4V19c0-.55.45-1 1-1h14.08c1.21 0 2.36.55 3.12 1.5l1.75 2.17c.75.85 1.84 1.33 2.97 1.33H60zM39 60H25c-.81 0-2-.63-2-2h18c0 .81-.63 2-2 2z" fill="#f3f3f3"/><path d="M8 16h48v2H8z" fill="#1976d2"/><path d="M56,18v5H26.92c-1.14,0-2.26-.47-3.12-1.5l-1.6-2c-.76-.95-1.91-1.5-3.12-1.5H56Z" fill="#5e9fdf"/><path d="M56 23v33H8V18h11.08c1.21 0 2.36.55 3.12 1.5l1.6 2c.86 1.03 1.97 1.5 3.12 1.5H56z" fill="#d9d9d9"/><path d="M54 10v46H10V2c0-1.1.9-2 2-2h32l10 10z" fill="#f3f3f3"/><path d="M54,10h-8c-1.1,0-2-.9-2-2V0l10,10Z" fill="#d9d9d9"/><g fill="#1976d2"><path d="M48 47H16c-.55 0-1-.45-1-1V21c0-.55.45-1 1-1h32c.55 0 1 .45 1 1v25c0 .55-.45 1-1 1zm-31-2h30V22H17v23z"/><path d="M25 47c-.55 0-1-.45-1-1V21c0-.55.45-1 1-1s1 .45 1 1v25c0 .55-.45 1-1 1z"/><path d="M48 27H16c-.55 0-1-.45-1-1s.45-1 1-1h32c.55 0 1 .45 1 1s-.45 1-1 1zm0 5H16c-.55 0-1-.45-1-1s.45-1 1-1h32c.55 0 1 .45 1 1s-.45 1-1 1zm0 5H16c-.55 0-1-.45-1-1s.45-1 1-1h32c.55 0 1 .45 1 1s-.45 1-1 1zm0 5H16c-.55 0-1-.45-1-1s.45-1 1-1h32c.55 0 1 .45 1 1s-.45 1-1 1z"/></g><path d="M15 12h10v2H15zm24 37h10v2H39z" fill="#d38e2a"/><path d="M15 16h14v2H15z" fill="#d9d9d9"/></svg>