<svg xmlns="http://www.w3.org/2000/svg" viewBox="0 0 64 64" xmlns:v="https://vecta.io/nano"><rect y="11" width="56" height="44" rx="3" fill="#1976d2"/><path d="M54 14v35H2V14c0-.55.45-1 1-1h50c.55 0 1 .45 1 1z" fill="#fff"/><path d="M35 63H21l1-8h12l1 8z" fill="#1976d2"/><g fill="#5e9fdf"><path d="M39 64H17c-1.34 0-1.29-2 0-2h22c1.34 0 1.29 2 0 2zm15-50v3H2v-3c0-.55.45-1 1-1h50c.55 0 1 .45 1 1z"/><path d="M15,13h13c1.66,0,3,1.34,3,3v1H15v-4h0Z"/></g><path d="M3 13h12c1.66 0 3 1.34 3 3v2H2v-4c0-.55.45-1 1-1z" fill="#fff"/><path d="M9 39h6v7H9zm9-5h6v12h-6zm9-8h6v20h-6zm9 4h6v16h-6z" fill="#5e9fdf"/><path d="M45 24h6v22h-6zm11-10v9.65c-.65.16-1.32.26-2 .31V14c0-.55-.45-1-1-1H40.15c-.1-.66-.15-1.32-.15-2h13c1.66 0 3 1.34 3 3z" fill="#1976d2"/><path d="M54 17v6.96c-4.89.45-10.03-2.17-12.53-6.96H54z" fill="#f3f3f3"/><path d="M54 14v3H41.47c-.64-1.23-1.1-2.58-1.32-4H53c.55 0 1 .45 1 1z" fill="#1976d2"/><circle cx="53" cy="11" r="11" fill="#d38e2a"/><path d="M53 3c-4.41 0-8 3.59-8 8s3.59 8 8 8 8-3.59 8-8-3.59-8-8-8zm5.91 7h-1.96a10.72 10.72 0 0 0-1.4-4.42c1.74.82 3.02 2.46 3.35 4.42zm-7.85 0c.19-1.7.86-3.3 1.94-4.64C54.08 6.7 54.75 8.3 54.94 10h-3.88zm3.88 2c-.19 1.7-.86 3.3-1.94 4.64-1.08-1.34-1.75-2.94-1.94-4.64h3.88zm-4.5-6.42a11.02 11.02 0 0 0-1.4 4.42h-1.96c.33-1.96 1.61-3.6 3.35-4.42zM47.09 12h1.96a10.72 10.72 0 0 0 1.4 4.42c-1.74-.82-3.02-2.46-3.35-4.42zm8.47 4.42a11.02 11.02 0 0 0 1.4-4.42h1.96c-.33 1.96-1.61 3.6-3.35 4.42z" fill="#fdfdfd"/><circle cx="10" cy="24" r="5" fill="#d38e2a"/><g fill="#e4c290"><path d="M13.66 27.41a5.01 5.01 0 0 1-7.32 0c1.38-3.2 5.94-3.22 7.32 0z"/><circle cx="10" cy="23" r="2"/></g><path d="M17 20h10v2H17zm0 4h4v2h-4z" fill="#d9d9d9"/></svg>