<svg xmlns="http://www.w3.org/2000/svg" viewBox="0 0 64 64" xmlns:v="https://vecta.io/nano"><path d="M62,19V58H2V19c0-1.66,1.34-3,3-3H59c1.66,0,3,1.34,3,3Z" fill="#5e9fdf"/><path d="M1 58h62c.55 0 1 .45 1 1v2c0 1.66-1.34 3-3 3H3c-1.66 0-3-1.34-3-3v-2c0-.55.45-1 1-1z" fill="#1976d2"/><path d="M60 19v37H4V19c0-.55.45-1 1-1h54c.55 0 1 .45 1 1z" fill="#fff"/><path d="M54 36H6c-1.32 0-1.32-2 0-2h2V21c0-.55.45-1 1-1h6c.55 0 1 .45 1 1v13h4V18h8v16h4V18h8v16h4V18h8v16h2c1.32 0 1.32 2 0 2z" fill="#d9d9d9"/><path d="M39 60H25c-1.1 0-2-.9-2-2 0-.1-.84 0 18 0 0 .81-.63 2-2 2z" fill="#f3f3f3"/><path d="M56 36H8c-1.34 0-1.29-2 0-2h48c1.34 0 1.29 2 0 2zM20 16h8v2h-8zm12 0h8v2h-8zm12 0h8v2h-8z" fill="#1976d2"/><path d="M11 20h6c.55 0 1 .45 1 1v13h-8V21c0-.55.45-1 1-1zm12-10h6c.55 0 1 .45 1 1v23h-8V11c0-.55.45-1 1-1z" fill="#5e9fdf"/><path d="M35 14h6c.55 0 1 .45 1 1v19h-8V15c0-.55.45-1 1-1zm12-6h6c.55 0 1 .45 1 1v25h-8V9c0-.55.45-1 1-1z" fill="#1976d2"/><g fill="#d38e2a"><circle cx="50" cy="2" r="2"/><circle cx="38" cy="8" r="2"/><circle cx="26" cy="4" r="2"/></g><path d="M17.46,16c-1.53,2.66-5.39,2.67-6.92,0h6.92Z" fill="#1976d2"/><g fill="#d38e2a"><circle cx="14" cy="14" r="2"/><path d="M14 15c-.93 0-1.36-1.17-.64-1.77C26.3 2.45 25.57 2.8 26.32 3.05l11.61 3.87 11.62-5.81c1.19-.59 2.08 1.2.89 1.79-12.96 6.48-12.21 6.24-12.76 6.05L26.21 5.13C13.59 15.64 14.52 15 14 15z"/></g><path d="M13 39h20v2H13zm-6 4h26v2H7zm0 4h26v2H7zm0 4h18v2H7zm50-5c0 6.54-8.15 9.36-12.2 4.67-3.72-4.08-1.37-10.8 4.2-11.59 3.82-.72 8 2.42 8 6.92z" fill="#d9d9d9"/><path d="M56.92 47h-6.45l-4.13 4.96a6.37 6.37 0 0 1-1.54-1.29l4.2-5.03v-6.56c.57-.11 1.43-.11 2 0V45h5.92c.11.57.11 1.43 0 2z" fill="#c8c8c8"/></svg>