<svg xmlns="http://www.w3.org/2000/svg" viewBox="0 0 64 64" xmlns:v="https://vecta.io/nano"><rect width="64" height="6" rx="2" fill="#1976d2"/><path d="M2 6h60v48H2z" fill="#f3f3f3"/><path d="M49 45H9V13H7v2H5c-1.34 0-1.29 2 0 2h2v2H5c-1.34 0-1.29 2 0 2h2v2H5c-1.34 0-1.29 2 0 2h2v2H5c-1.34 0-1.29 2 0 2h2v2H5c-1.34 0-1.29 2 0 2h2v2H5c-1.34 0-1.29 2 0 2h2v2H5c-1.34 0-1.29 2 0 2h2v2H5c-1.34 0-1.29 2 0 2h2v2h2v2c0 1.32 2 1.32 2 0v-2h2v2c0 1.32 2 1.32 2 0v-2h2v2c0 1.32 2 1.32 2 0v-2h2v2c0 1.32 2 1.32 2 0v-2h2v2c0 1.32 2 1.32 2 0v-2h2v2c0 1.32 2 1.32 2 0v-2h2v2c0 1.32 2 1.32 2 0v-2h2v2c0 1.32 2 1.32 2 0v-2h2v2c0 1.32 2 1.32 2 0v-2h2v2c0 1.32 2 1.32 2 0v-2h2v-2z" fill="#d9d9d9"/><path d="M13 33h6v12h-6z" fill="#e4c290"/><path d="M13 33h6v6h-6z" fill="#d38e2a"/><g fill="#5e9fdf"><path d="M21 19h6v26h-6z"/><path d="M21 19h6v13h-6z"/></g><path d="M29 27h6v18h-6z" fill="#e4c290"/><path d="M29 27h6v9h-6z" fill="#d38e2a"/><path d="M37 16h6v29h-6z" fill="#1976d2"/><path d="M37 16h6v15h-6z" fill="#5e9fdf"/><path d="M50 15h10v2H50zM11 9h10v2H11zm39 11h7v2h-7zm0 19h7v2h-7z" fill="#d9d9d9"/><path d="M51 27a3.01 3.01 0 0 0-3 3v2a3.01 3.01 0 0 0 3 3 3.01 3.01 0 0 0 3-3v-2a3.01 3.01 0 0 0-3-3zm1 5c0 1.32-2 1.32-2 0v-2c0-1.32 2-1.32 2 0v2zm6.53-4.85c-.62-.38-.96-.05-2.97.96-1.18.59-.29 2.38.89 1.79l.55-.28V34c0 1.32 2 1.32 2 0 0-6.5.16-6.46-.47-6.85z" fill="#5e9fdf"/><path d="M36 9l2 2 2-2 2 2 2-2v5h-8V9z" fill="#d38e2a"/><g fill="#1976d2"><path d="M31 54h2v6h-2z"/><circle cx="32" cy="61" r="3"/></g></svg>