<svg xmlns="http://www.w3.org/2000/svg" viewBox="0 0 64 64" xmlns:v="https://vecta.io/nano"><path d="M3 32h29v30H3z" fill="#5e9fdf"/><path d="M3 55l9.59-9.59c.78-.78 2.05-.78 2.83 0l1.17 1.17c.78.78 2.05.78 2.83 0l5.17-5.17c.78-.78 2.05-.78 2.83 0L32.01 46v15H3v-6z" fill="#1976d2"/><path d="M2 12v4h2v-4H2zM12 2v2h4V2h-4zm12 0v2h15V2H24zm23 0v2h4V2h-4zm13 10v4h2v-4h-2zm0 12v16h2V24h-2zm0 24v4h2v-4h-2zm0 6v6h-7v2h9v-8h-2zm-19 6v2h4v-2h-4zm-8-29H4v-7H2v38h37v-2h-6V31zm-2 29H4V33h27v27zm16 0v2h4v-2h-4zm13-18v4h2v-4h-2zm0-24v4h2v-4h-2zM53 2v2h7v6h2V2h-9zM41 2v2h4V2h-4zM18 2v2h4V2h-4zM2 2v8h2V4h6V2H2zm0 16v4h2v-4H2z" fill="#f3f3f3"/><g fill="#d9d9d9"><rect x="29" width="6" height="6" rx="1"/><rect width="6" height="6" rx="1"/><rect x="58" width="6" height="6" rx="1"/></g><g fill="#d38e2a"><rect x="29" y="58" width="6" height="6" rx="1"/><rect y="58" width="6" height="6" rx="1"/></g><rect x="58" y="58" width="6" height="6" rx="1" fill="#d9d9d9"/><g fill="#d38e2a"><rect y="29" width="6" height="6" rx="1"/><rect x="29" y="29" width="6" height="6" rx="1"/></g><rect x="58" y="29" width="6" height="6" rx="1" fill="#d9d9d9"/><circle cx="9" cy="40" r="3" fill="#d38e2a"/><g fill="#d9d9d9"><path d="M55 11V9h-2c-1.32 0-1.32-2 0-2h3c.55 0 1 .45 1 1v3c0 1.32-2 1.32-2 0zM40 28h-3c-.55 0-1-.45-1-1v-3c0-1.32 2-1.32 2 0v2h2c1.32 0 1.32 2 0 2z"/><path d="M37 28c-.88 0-1.34-1.07-.71-1.71l19-19c.94-.94 2.35.48 1.41 1.41-20.5 20.5-19.09 19.29-19.71 19.29z"/></g><path d="M9 9h10v2H9zm0 4h15v2H9z" fill="#f3f3f3"/></svg>