<svg xmlns="http://www.w3.org/2000/svg" xmlns:xlink="http://www.w3.org/1999/xlink" viewBox="0 0 64 64" xmlns:v="https://vecta.io/nano"><g fill="#5e9fdf"><path d="M4 4h56v56H4z"/><path d="M11,24H44c1.1,0,2,.9,2,2v2H11v-4h0Z"/></g><path d="M14,24h12.17c1.81,0,3.55,.72,4.83,2s2.97,2,4.83,2h8.17v4H14v-8Z" fill="#1976d2"/><g fill="#d38e2a"><rect width="8" height="8" rx="2"/><rect x="56" width="8" height="8" rx="2"/><rect x="56" y="56" width="8" height="8" rx="2"/></g><path d="M0 62V26c0-1.1.9-2 2-2h10.5c1.57 0 3.06.74 4 2s2.43 2 4 2H46v34c0 1.1-.9 2-2 2H2c-1.1 0-2-.9-2-2z" fill="#f3f3f3"/><circle cx="14" cy="27" r="1" fill="#5e9fdf"/><rect x="3" y="33" width="40" height="28" rx="1" fill="#d9d9d9"/><path d="M42 61H4c-.86 0-1.27-.98-.8-1.6l12-16c.37-.52 1.17-.53 1.57-.03l8.26 10.08 6.22-7.11a1 1 0 0 1 1.54.05l10 13c.52.68.01 1.61-.79 1.61z" fill="#1976d2"/><circle cx="30" cy="40" r="3" fill="#d38e2a"/><g fill="#5e9fdf"><use xlink:href="#B"/><use xlink:href="#B" x="8"/><use xlink:href="#B" x="16"/><use xlink:href="#B" x="24"/><use xlink:href="#B" x="32"/><use xlink:href="#B" x="40"/><use xlink:href="#C"/><use xlink:href="#C" y="8"/><use xlink:href="#C" y="16"/><use xlink:href="#C" y="24"/><use xlink:href="#C" y="32"/><use xlink:href="#C" y="40"/><path d="M51 59h2c.55 0 1 .45 1 1 0 .29-.22 1-1 1h-2c-.55 0-1-.45-1-1 0-.29.22-1 1-1zM5 19v2c0 .55-.45 1-1 1-.29 0-1-.22-1-1v-2c0-.55.45-1 1-1 .29 0 1 .22 1 1zm0-8v2c0 .55-.45 1-1 1-.29 0-1-.22-1-1v-2c0-.55.45-1 1-1 .29 0 1 .22 1 1z"/></g><path d="M54 9h-4c-.55 0-1 .45-1 1s.45 1 1 1h1.59L45 17.59V16c0-.55-.45-1-1-1s-1 .45-1 1v4c0 .55.45 1 1 1h4c.55 0 1-.45 1-1s-.45-1-1-1h-1.59L53 12.41V14c0 .55.45 1 1 1s1-.45 1-1v-4c0-.55-.45-1-1-1z" fill="#fff"/><defs ><path id="B" d="M13 5h-2c-.55 0-1-.45-1-1 0-.29.22-1 1-1h2c.55 0 1 .45 1 1 0 .29-.22 1-1 1z"/><path id="C" d="M59 13v-2c0-.55.45-1 1-1 .29 0 1 .22 1 1v2c0 .55-.45 1-1 1-.29 0-1-.22-1-1z"/></defs></svg>