<?xml version="1.0" encoding="UTF-8"?><svg id="a" xmlns="http://www.w3.org/2000/svg" viewBox="0 0 64 54"><defs><style>.b{fill:#fff;}.c{fill:#5e9fdf;}.d{fill:#e4c290;}.e{fill:#d38e2a;}.f{fill:#f3f3f3;}.g{fill:#d9d9d9;}.h{fill:#1976d2;}</style></defs><rect class="h" x="0" y="0" width="56" height="45" rx="3" ry="3"/><path class="b" d="M54,3V39H2V3c0-.55,.45-1,1-1H53c.55,0,1,.45,1,1Z"/><path class="h" d="M35,53h-14l1-8h12l1,8Z"/><path class="c" d="M39,54H17c-1.34,0-1.29-2,0-2h22c1.34,0,1.29,2,0,2Z"/><path class="e" d="M2,35H42v4H2v-4Z"/><path class="h" d="M56,18v24c0,1.66-1.34,3-3,3h-13v-6h14V18h2Z"/><path class="f" d="M54,18v21h-12v-4h-2v-11c0-3.31,2.69-6,6-6h8Z"/><path class="d" d="M40,35h2v4h-2v-4Z"/><rect class="h" x="42" y="20" width="22" height="34" rx="4" ry="4"/><path class="b" d="M62,24v26c0,1.1-.9,2-2,2h-14c-1.1,0-2-.9-2-2V24c0-1.1,.9-2,2-2,1.4,0,1.95-.12,2.28,.55,.31,.63,.52,1.45,1.34,1.45h6.76c.38,0,.73-.21,.9-.55,.8-1.65,.6-1.45,2.72-1.45,1.1,0,2,.9,2,2Z"/><g><path class="e" d="M8,13c-1.44,0-3-1.15-3-3v-2c0-1.65,1.35-3,3-3,1.44,0,3,1.15,3,3v2c0,1.65-1.35,3-3,3Zm0-6c-.55,0-1,.45-1,1v2c0,.82,.8,1,1,1,.55,0,1-.45,1-1v-2c0-.82-.8-1-1-1Z"/><path class="e" d="M15,13c-.55,0-1-.45-1-1v-4c-.26,0-.51-.1-.71-.29-.39-.39-.39-1.02,0-1.41l1-1c.29-.29,.71-.37,1.09-.22,.37,.15,.62,.52,.62,.92v6c0,.55-.45,1-1,1Z"/></g><circle class="c" cx="10" cy="23" r="5"/><g><path class="h" d="M14.2,25.72c-1.51,2.32-4.61,2.98-6.93,1.47-.59-.38-1.09-.88-1.47-1.47,2.32-2.29,6.08-2.3,8.4,0Z"/><circle class="h" cx="10" cy="22" r="2"/></g><g><path class="g" d="M52,44h-5c-.55,0-1-.45-1-1v-5c0-.55,.45-1,1-1s1,.45,1,1v4h4c.55,0,1,.45,1,1s-.45,1-1,1Zm7-7c-.55,0-1-.45-1-1v-4h-4c-.55,0-1-.45-1-1s.45-1,1-1h5c.55,0,1,.45,1,1v5c0,.55-.45,1-1,1ZM43,14c-.55,0-1-.45-1-1v-4h-4c-.55,0-1-.45-1-1s.45-1,1-1h5c.55,0,1,.45,1,1v5c0,.55-.45,1-1,1Z"/><path class="g" d="M47,44c-.26,0-.51-.1-.71-.29-.39-.39-.39-1.02,0-1.41l12-12c.39-.39,1.02-.39,1.41,0s.39,1.02,0,1.41l-12,12c-.2,.2-.45,.29-.71,.29Zm-25-14s-.05,0-.07,0c-.2-.01-.39-.09-.54-.2-.05-.04-.1-.09-.15-.14-.15-.17-.24-.4-.24-.65h0v-5c0-.55,.45-1,1-1s1,.45,1,1v2.59L42.29,7.29c.39-.39,1.02-.39,1.41,0s.39,1.02,0,1.41L24.41,28h2.59c.55,0,1,.45,1,1s-.45,1-1,1h-5Z"/></g><path class="e" d="M62,17v-1c0-1.1-.9-2-2-2h-1c-1.32,0-1.32-2,0-2h1c2.21,0,4,1.79,4,4v1c0,1.32-2,1.32-2,0Z"/></svg>