<svg xmlns="http://www.w3.org/2000/svg" viewBox="0 0 64 64" xmlns:v="https://vecta.io/nano"><style><![CDATA[.G{fill:#5e9fdf}.H{fill:#d38e2a}.I{fill:#1976d2}]]></style><path d="M62,3V42H2V3C2,1.34,3.34,0,5,0H59c1.66,0,3,1.34,3,3Z" class="G"/><path d="M64 43v2c0 1.66-1.34 3-3 3H3c-1.66 0-3-1.34-3-3v-2c0-.55.45-1 1-1h62c.55 0 1 .45 1 1z" class="I"/><path d="M60 3v4H20l-4-5h43c.55 0 1 .45 1 1z" class="G"/><path d="M60 7v33H4V3c0-.55.45-1 1-1h14.08c1.21 0 2.36.55 3.12 1.5l1.75 2.17C24.7 6.52 25.79 7 26.92 7H60z" fill="#fff"/><path d="M14 10h2v26h-2z" fill="#d9d9d9"/><path d="M7 12h4v2H7zm0 4h4v2H7zm0 4h4v2H7zm0 4h4v2H7zm0 4h4v2H7zm0 4h4v2H7zm12-20h8v2h-8zm12 0h16v2H31zM19 24h8v2h-8zm12 0h16v2H31zm-12-4h4v2h-4zm8 0h14v2H27z" class="G"/><path d="M19 16h8v2h-8z" class="H"/><path d="M31 16h10v2H31zm14 1h6v2h-6z" class="G"/><path d="M19 28h8v2h-8z" class="H"/><path d="M31 28h10v2H31zm14 1h6v2h-6z" class="G"/><path d="M45 21h6v2h-6z" class="H"/><path d="M19 32h4v2h-4zm8 0h14v2H27z" class="G"/><path d="M45 33h6v2h-6z" class="H"/><path d="M41 42c0 1.09-.89 2-2 2H25c-1.1 0-2-.9-2-2h18z" fill="#fff"/><g class="I"><path d="M64 43v2c0 1.66-1.34 3-3 3H32v-4h7c1.09 0 2-.89 2-2h22c.55 0 1 .45 1 1z"/><path d="M62 13.08V42H32v-2h28V12.26a7.8 7.8 0 0 1 2 .82z"/></g><path d="M41 42c0 1.09-.89 2-2 2h-7v-2h9zm19-29.74V40H32v-6h9v-2h-9v-2h9v-2h-9v-2h15v-2H32v-2h9v-2h-9a8.24 8.24 0 0 1 .25-2H41v-2h-7.92a7.9 7.9 0 0 1 1.64-2H47v-2c11.81 0 11.68-.09 13 .26z" fill="#f3f3f3"/><path d="M41 18h-8.75c.19-.71.47-1.38.83-2H41v2zm-9 2h9v2h-9zm0 8h9v2h-9zm0 4h9v2h-9zm15-20v2H34.72A7.98 7.98 0 0 1 40 12h7zM32 24h15v2H32z" class="I"/><rect x="34" y="14" width="30" height="50" rx="6" class="H"/><path d="M62 20v37a4 4 0 0 1-4 4H40a4 4 0 0 1-4-4V20a4 4 0 0 1 4-4h1.28c.43 0 .81.28.95.68l.31.95a2.01 2.01 0 0 0 1.9 1.37h9.12a2.01 2.01 0 0 0 1.9-1.37l.31-.95c.14-.4.52-.68.95-.68H58a4 4 0 0 1 4 4z" fill="#fff"/><path d="M54 38c-.88 0-1.34-1.07-.71-1.71L56.58 33l-3.29-3.29c-.39-.39-.39-1.02 0-1.41s1.02-.39 1.41 0l4 4c.39.39.39 1.02 0 1.41l-4 4a.98.98 0 0 1-.71.29zm-10 0c-.26 0-.51-.1-.71-.29l-4-4c-.39-.39-.39-1.02 0-1.41l4-4c.39-.39 1.02-.39 1.41 0s.39 1.02 0 1.41L41.41 33l3.29 3.29a1.01 1.01 0 0 1-.71 1.71zm4 2a1 1 0 0 1-.99-1.16l2-12c.09-.54.61-.92 1.15-.82.54.09.91.61.82 1.15l-2 12a1 1 0 0 1-.99.84z" class="I"/><g fill="#d9d9d9"><circle cx="20" cy="5" r="1"/><path d="M58 58H40c-.55 0-1-.45-1-1 0-.29.22-1 1-1h18c.55 0 1 .45 1 1 0 .29-.22 1-1 1zM40 42h4v2h-4zm6 0h12v2H46zm-6 4h4v2h-4zm6 0h12v2H46zm-6 4h4v2h-4zm6 0h12v2H46z"/><circle cx="59" cy="21" r="1"/></g><path d="M31 56h-2a3.01 3.01 0 0 1-3-3v-2c0-.55.45-1 1-1s1 .45 1 1v2c0 .55.45 1 1 1h2c.55 0 1 .45 1 1s-.45 1-1 1z" class="H"/></svg>