<svg xmlns="http://www.w3.org/2000/svg" viewBox="0 0 64 64" xmlns:v="https://vecta.io/nano"><rect y="5" width="56" height="45" rx="3" fill="#1976d2"/><path d="M54 8v36H2V8c0-.55.45-1 1-1h50c.55 0 1 .45 1 1z" fill="#fff"/><path d="M35 58H21l1-8h12l1 8z" fill="#1976d2"/><g fill="#5e9fdf"><path d="M39 59H17c-1.34 0-1.29-2 0-2h22c1.34 0 1.29 2 0 2zM54 8v3H2V8c0-.55.45-1 1-1h50c.55 0 1 .45 1 1z"/><path d="M15,7h13c1.66,0,3,1.34,3,3v1H15V7h0Z"/></g><path d="M2 11h52v16H2z" fill="#f3f3f3"/><path d="M3 7h12c1.66 0 3 1.34 3 3v1H2V8c0-.55.45-1 1-1z" fill="#fff"/><circle cx="10" cy="27" r="5" fill="#d38e2a"/><path d="M13.66 30.41a5.01 5.01 0 0 1-7.32 0c1.38-3.2 5.94-3.22 7.32 0z" fill="#e4c290"/><path d="M54 27H24l7-8 4 3 7-8 12 13z" fill="#5e9fdf"/><circle cx="10" cy="26" r="2" fill="#e4c290"/><path d="M5 34h32v2H5zm0 5h29v2H5z" fill="#d9d9d9"/><circle cx="26" cy="16" r="2" fill="#d38e2a"/><path d="M56 23v24c0 1.66-1.34 3-3 3H40v-6h14V23h2z" fill="#1976d2"/><path d="M54 27v17H40c0-15.9-.15-15.63.35-17H54z" fill="#f3f3f3"/><path d="M54 23v4l-3.69-4H54z" fill="#d9d9d9"/><path d="M54 27H40.35A5.98 5.98 0 0 1 46 23h4.31L54 27z" fill="#5e9fdf"/><rect x="42" y="25" width="22" height="34" rx="4" fill="#1976d2"/><path d="M62 29v26c0 1.1-.9 2-2 2H46c-1.1 0-2-.9-2-2V29c0-1.1.9-2 2-2 1.43 0 1.95-.11 2.28.55l.45.89a1 1 0 0 0 .89.55h6.76c.38 0 .73-.21.89-.55l.45-.89a1 1 0 0 1 .89-.55h1.38c1.1 0 2 .9 2 2z" fill="#fff"/><circle cx="53" cy="37" r="5" fill="#d38e2a"/><g fill="#e4c290"><path d="M56.66 40.41a5.01 5.01 0 0 1-7.32 0c1.38-3.2 5.94-3.22 7.32 0z"/><circle cx="53" cy="36" r="2"/></g><path d="M47 44h12v2H47zm1 4h10v2H48z" fill="#d9d9d9"/><path d="M59 55H47c-1.34 0-1.29-2 0-2h12c1.34 0 1.29 2 0 2z" fill="#f3f3f3"/></svg>