<svg xmlns="http://www.w3.org/2000/svg" viewBox="0 0 64 64" xmlns:v="https://vecta.io/nano"><path d="M60,32c-4.62,10.6-15.7,18-28,18S8.62,42.6,4,32c4.62-10.6,15.7-18,28-18s23.38,7.4,28,18Z" fill="#f3f3f3"/><g fill="#5e9fdf"><path d="M32 52C19.16 52 7.17 44.28 2.17 32.8a2.02 2.02 0 0 1 0-1.6C7.17 19.72 19.16 12 32 12s24.83 7.72 29.83 19.2a2.02 2.02 0 0 1 0 1.6C56.83 44.28 44.84 52 32 52zM6.2 32c4.58 9.61 14.83 16 25.8 16s21.22-6.39 25.8-16C53.22 22.39 42.97 16 32 16S10.78 22.39 6.2 32z"/><circle cx="32" cy="32" r="12"/></g><circle cx="32" cy="32" r="7" fill="#1976d2"/><circle cx="36" cy="27" r="3" fill="#5e9fdf"/><path d="M1 14c-.55 0-1-.45-1-1V9a3.01 3.01 0 0 1 3-3h4c.55 0 1 .45 1 1s-.45 1-1 1H3c-.55 0-1 .45-1 1v4c0 .55-.45 1-1 1zm62 0c-.55 0-1-.45-1-1V9c0-.55-.45-1-1-1h-4c-.55 0-1-.45-1-1s.45-1 1-1h4a3.01 3.01 0 0 1 3 3v4c0 .55-.45 1-1 1zM7 58H3a3.01 3.01 0 0 1-3-3v-4c0-.55.45-1 1-1s1 .45 1 1v4c0 .55.45 1 1 1h4c.55 0 1 .45 1 1s-.45 1-1 1zm54 0h-4c-.55 0-1-.45-1-1s.45-1 1-1h4c.55 0 1-.45 1-1v-4c0-.55.45-1 1-1s1 .45 1 1v4a3.01 3.01 0 0 1-3 3z" fill="#d38e2a"/><path d="M29 18a1.01 1.01 0 0 1-.95-.68L24.51 6.69a1 1 0 0 0-.95-.68H14c-.55 0-1-.45-1-1s.45-1 1-1h9.56a3 3 0 0 1 2.85 2.05l3.54 10.63c.22.65-.27 1.32-.95 1.32z" fill="#d9d9d9"/><path d="M22 2h-8c-.55 0-1-.45-1-1s.45-1 1-1h8c.55 0 1 .45 1 1s-.45 1-1 1z" fill="#5e9fdf"/><path d="M50 60h-9.61c-1.24 0-2.37-.78-2.81-1.95l-5.51-14.7a1.01 1.01 0 0 1 .58-1.29c.52-.19 1.09.07 1.29.59l5.51 14.7c.15.39.52.65.94.65H50c.55 0 1 .45 1 1s-.45 1-1 1z" fill="#d9d9d9"/><path d="M50,64h-8c-.55,0-1-.45-1-1s.45-1,1-1h8c.55,0,1,.45,1,1s-.45,1-1,1Z" fill="#5e9fdf"/><g fill="#1976d2"><rect x="13" y="8" width="4" height="4" rx="1"/><rect x="47" y="52" width="4" height="4" rx="1"/></g></svg>