<svg xmlns="http://www.w3.org/2000/svg" xmlns:xlink="http://www.w3.org/1999/xlink" viewBox="0 0 64 64" xmlns:v="https://vecta.io/nano"><style><![CDATA[.E{fill:#d38e2a}.F{fill:#5e9fdf}]]></style><circle cx="32" cy="4" r="4" class="E"/><g class="F"><path d="M32 17c-.55 0-1-.45-1-1v-4c0-.55.45-1 1-1s1 .45 1 1v4c0 .55-.45 1-1 1z"/><path d="M34 14c-.55 0-.69-.27-2-1.59l-1.29 1.29c-.39.39-1.02.39-1.41 0s-.39-1.02 0-1.41l2-2c.39-.39 1.02-.39 1.41 0l2 2A1.01 1.01 0 0 1 34 14z"/></g><circle cx="12.2" cy="12.2" r="4" class="E"/><g class="F"><use xlink:href="#B"/><path d="M17.15 20.98c-.55 0-1-.45-1-1v-2.83c0-.55.45-1 1-1h2.83c.55 0 1 .45 1 1s-.45 1-1 1h-1.83v1.83c0 .55-.45 1-1 1z"/></g><circle cx="4" cy="32" r="4" class="E"/><g class="F"><path d="M16,33h-4c-.55,0-1-.45-1-1s.45-1,1-1h4c.55,0,1,.45,1,1s-.45,1-1,1Z"/><path d="M13 35c-.54 0-.57-.15-2.71-2.29-.39-.39-.39-1.02 0-1.41l2-2c.39-.39 1.02-.39 1.41 0s.39 1.02 0 1.41L12.41 32l1.29 1.29a1.01 1.01 0 0 1-.71 1.71z"/></g><circle cx="12.2" cy="51.8" r="4" class="E"/><g class="F"><path d="M17.86 47.14c-.88 0-1.34-1.07-.71-1.71l2.83-2.83c.39-.39 1.02-.39 1.41 0s.39 1.02 0 1.41l-2.83 2.83a.98.98 0 0 1-.71.29z"/><path d="M19.98 47.85h-2.83c-.55 0-1-.45-1-1v-2.83c0-.55.45-1 1-1s1 .45 1 1v1.83h1.83c.55 0 1 .45 1 1s-.45 1-1 1z"/></g><circle cx="32" cy="60" r="4" class="E"/><g class="F"><path d="M32 53c-.55 0-1-.45-1-1v-4c0-.55.45-1 1-1s1 .45 1 1v4c0 .55-.45 1-1 1z"/><path d="M32 54c-.54 0-.57-.15-2.71-2.29-.39-.39-.39-1.02 0-1.41s1.02-.39 1.41 0l1.29 1.29 1.29-1.29c.39-.39 1.02-.39 1.41 0s.39 1.02 0 1.41C32.51 53.89 32.52 54 31.98 54z"/></g><circle cx="51.8" cy="51.8" r="4" class="E"/><g class="F"><use xlink:href="#B" x="25.45" y="25.45"/><path d="M46.85 47.85h-2.83c-.55 0-1-.45-1-1s.45-1 1-1h1.83v-1.83c0-.55.45-1 1-1s1 .45 1 1v2.83c0 .55-.45 1-1 1z"/></g><circle cx="60" cy="32" r="4" class="E"/><g class="F"><path d="M52,33h-4c-.55,0-1-.45-1-1s.45-1,1-1h4c.55,0,1,.45,1,1s-.45,1-1,1Z"/><path d="M51 35c-.88 0-1.34-1.07-.71-1.71L51.58 32l-1.29-1.29c-.39-.39-.39-1.02 0-1.41s1.02-.39 1.41 0l2 2c.39.39.39 1.02 0 1.41-2.18 2.18-2.17 2.29-2.71 2.29z"/></g><circle cx="51.8" cy="12.2" r="4" class="E"/><g class="F"><path d="M43.31 21.69c-.88 0-1.34-1.07-.71-1.71l2.83-2.83c.39-.39 1.02-.39 1.41 0s.39 1.02 0 1.41l-2.83 2.83c-.19.2-.45.29-.71.29z"/><path d="M46.85,20.98c-.55,0-1-.45-1-1v-1.83h-1.83c-.55,0-1-.45-1-1s.45-1,1-1h2.83c.55,0,1,.45,1,1v2.83c0,.55-.45,1-1,1Z"/></g><circle cx="32" cy="32" r="16" fill="#e4c290"/><circle cx="32" cy="32" r="13" class="E"/><g fill="#f3f3f3"><path d="M32.5 40H31a4 4 0 0 1-4-4c0-.55.45-1 1-1s1 .45 1 1c0 1.1.9 2 2 2h1.5a2.5 2.5 0 1 0 0-5h-1a4.51 4.51 0 0 1-4.5-4.5 4.51 4.51 0 0 1 4.5-4.5H33a4 4 0 0 1 4 4c0 .55-.45 1-1 1s-1-.45-1-1c0-1.1-.9-2-2-2h-1.5a2.5 2.5 0 1 0 0 5h1a4.51 4.51 0 0 1 4.5 4.5 4.51 4.51 0 0 1-4.5 4.5z"/><path d="M32 42c-.55 0-1-.45-1-1V23c0-.55.45-1 1-1s1 .45 1 1v18c0 .55-.45 1-1 1z"/></g><defs ><path id="B" d="M20.69 21.69c-.26 0-.51-.1-.71-.29l-2.83-2.83c-.39-.39-.39-1.02 0-1.41s1.02-.39 1.41 0l2.83 2.83a1.01 1.01 0 0 1-.71 1.71z"/></defs></svg>