<svg xmlns="http://www.w3.org/2000/svg" viewBox="0 0 64 64" xmlns:v="https://vecta.io/nano"><rect y="37" width="10" height="27" rx="2" fill="#5e9fdf"/><path d="M10 39h4.25a3.99 3.99 0 0 0 3.73-2.56l3.3-8.57C22.57 24.51 28 25.98 28 30v5c0 1.1.9 2 2 2h12.53c2.38 0 4.24 2.07 3.98 4.44l-2.11 19c-.23 2.03-1.94 3.56-3.98 3.56H23.24c-3.94 0-4.54-2-8.47-2h-4.76" fill="#d38e2a"/><path d="M54 7v14c0 1.1-.9 2-2 2H17.96c-.61 0-1.18.28-1.56.75l-1.84 2.3a2 2 0 0 1-3.12 0l-1.84-2.3c-.38-.47-.95-.75-1.56-.75H6c-1.1 0-2-.9-2-2V7c0-1.1.9-2 2-2h46c1.1 0 2 .9 2 2z" fill="#f3f3f3"/><g fill="#d9d9d9"><path d="M8 10h14v2H8zm18 0h24v2H26zm18 8h-8v-2h8zm-12 0H8v-2h24z"/><path d="M54 7v10.8c-3.22-.66-5.87-2.86-7.16-5.8H50v-2h-3.8a9.96 9.96 0 0 1 .26-5H52c1.1 0 2 .9 2 2z"/></g><path d="M50 10v2h-3.16a9.53 9.53 0 0 1-.64-2H50z" fill="#c8c8c8"/><circle cx="56" cy="8" r="8" fill="#1976d2"/><g fill="#5e9fdf"><path d="M61.45,10.5c-2.13,4.66-8.77,4.66-10.9,0,2.13-4.66,8.77-4.66,10.9,0Z"/><circle cx="56" cy="5" r="3"/></g></svg>