<?xml version="1.0" encoding="UTF-8"?><svg id="a" xmlns="http://www.w3.org/2000/svg" viewBox="0 0 64 64"><defs><style>.b{fill:#5e9fdf;}.c{fill:#fdfdfd;}.d{fill:#d38e2a;}.e{fill:#f3f3f3;}.f{fill:#1976d2;}</style></defs><path class="d" d="M49.44,26.53c-6.03-1.48-12.66,.12-17.44,4.63-4.78-4.51-11.41-6.11-17.44-4.63C9.16,14.18,18.24,0,32,0s22.85,14.17,17.44,26.53Z"/><g><path class="b" d="M32,31.16c-1.9,1.77-3.42,3.92-4.44,6.31-5.86-1.39-10.66-5.51-13-10.94,6.22-1.5,12.78,.24,17.44,4.63Z"/><path class="b" d="M32,58.84C20.02,70.15,0,61.68,0,45c0-8.96,6.21-16.48,14.56-18.47,2.34,5.43,7.14,9.55,13,10.94-3.18,7.35-1.41,15.9,4.44,21.37Z"/></g><path class="f" d="M49.44,26.53c-2.34,5.43-7.14,9.55-13,10.94-1.02-2.39-2.54-4.54-4.44-6.31,4.78-4.51,11.41-6.11,17.44-4.63Z"/><path class="e" d="M36.44,37.47c-2.92,.71-5.96,.71-8.88,0,1.02-2.39,2.54-4.54,4.44-6.31,1.9,1.77,3.42,3.92,4.44,6.31Z"/><path class="f" d="M32,58.84c-6.02-5.63-7.53-14.29-4.44-21.37,2.92,.71,5.96,.71,8.88,0,3.18,7.35,1.41,15.9-4.44,21.37Z"/><path class="b" d="M64,45c0,16.67-20.02,25.15-32,13.84,6.02-5.63,7.53-14.29,4.44-21.37,5.86-1.39,10.66-5.51,13-10.94,8.35,1.99,14.56,9.51,14.56,18.47Z"/><g><path class="c" d="M29,24c-.55,0-1-.45-1-1V13c0-.55,.45-1,1-1s1,.45,1,1v10c0,.55-.45,1-1,1Z"/><path class="c" d="M20,52h-2c-1.65,0-3-1.35-3-3v-6c0-1.65,1.35-3,3-3h4c.55,0,1,.45,1,1s-.45,1-1,1h-4c-.55,0-1,.45-1,1v6c0,.55,.45,1,1,1h2c.55,0,1-.45,1-1v-2h-2c-.55,0-1-.45-1-1s.45-1,1-1h3c.55,0,1,.45,1,1v3c0,1.65-1.35,3-3,3Zm14-28c-.37,0-.72-.2-.9-.55l-1.72-3.45h-2.38c-.55,0-1-.45-1-1s.45-1,1-1h2.98s.02,0,.04,0c1.09,0,1.98-.9,1.98-2s-.9-2-2-2h-3c-.55,0-1-.45-1-1s.45-1,1-1h3c2.21,0,4,1.79,4,4,0,1.68-1.05,3.13-2.52,3.72l1.42,2.84c.25,.49,.05,1.09-.45,1.34-.14,.07-.3,.11-.45,.11Z"/><path class="c" d="M22,52c-.55,0-1-.45-1-1v-5c0-.55,.45-1,1-1s1,.45,1,1v5c0,.55-.45,1-1,1Zm23.5-1h-3.5c-.55,0-1-.45-1-1v-10c0-.55,.45-1,1-1h3.5c1.93,0,3.5,1.57,3.5,3.5,0,.98-.4,1.86-1.05,2.5,.65,.64,1.05,1.52,1.05,2.5,0,1.93-1.57,3.5-3.5,3.5Zm-2.5-2h2.5c.83,0,1.5-.67,1.5-1.5s-.67-1.5-1.5-1.5h-2.5v3Zm0-5h2.5c.83,0,1.5-.67,1.5-1.5s-.67-1.5-1.5-1.5h-2.5v3Z"/></g><path class="e" d="M56,4h8v2h-8v-2ZM10,20c0-2.76-5-9-5-9,0,0-5,6.24-5,9s2.24,5,5,5,5-2.24,5-5Z"/></svg>