<svg xmlns="http://www.w3.org/2000/svg" viewBox="0 0 64 64" xmlns:v="https://vecta.io/nano"><rect width="64" height="64" rx="2" fill="#f3f3f3"/><rect x="58" y="7" width="4" height="50" rx="1" transform="matrix(-1 0 0 -1 120 64)" fill="#1976d2"/><g fill="#5e9fdf"><rect x="24" y="14" width="30" height="14" rx="2" transform="matrix(-1 0 0 -1 78 42)"/><rect x="10" y="36" width="44" height="14" rx="2" transform="matrix(-1 0 0 -1 64 86)"/><path d="M52 26H26V16h26zm0 22H12V38h40z"/></g><path d="M3 47c.55 0 .43-.02 3.71-3.29.39-.39.39-1.02 0-1.41l-3-3c-.94-.94-2.35.48-1.41 1.41L4.59 43 2.3 45.29A1.01 1.01 0 0 0 3.01 47zm14-22c.55 0 .43-.02 3.71-3.29.39-.39.39-1.02 0-1.41l-3-3c-.94-.94-2.35.48-1.41 1.41L18.59 21l-2.29 2.29a1.01 1.01 0 0 0 .71 1.71z" fill="#d38e2a"/><path d="M38 6h16v2H38zm6-4h10v2H44zM2 60h16v2H2zm6-4h10v2H8z" fill="#d9d9d9"/><path d="M39 22h-9v-2h9zm9 0h-6v-2h6zM35 44H16v-2h19zm13 0h-9v-2h9z" fill="#fff"/></svg>