<svg xmlns="http://www.w3.org/2000/svg" viewBox="0 0 64 64" xmlns:v="https://vecta.io/nano"><path d="M62,19V58H2V19c0-1.66,1.34-3,3-3H59c1.66,0,3,1.34,3,3Z" fill="#5e9fdf"/><path d="M1 58h62c.55 0 1 .45 1 1v2c0 1.66-1.34 3-3 3H3c-1.66 0-3-1.34-3-3v-2c0-.55.45-1 1-1z" fill="#1976d2"/><path d="M60 19v4H20l-4-5h43c.55 0 1 .45 1 1z" fill="#5e9fdf"/><path d="M60 23v33H4V19c0-.55.45-1 1-1h14.08c1.21 0 2.36.55 3.12 1.5l1.75 2.17c.75.85 1.84 1.33 2.97 1.33H60z" fill="#fff"/><path d="M13 45c-.55 0-1-.45-1-1V31.5c0-1.89.89-3.67 2.4-4.8l6-4.5c.65-.49 1.6-.03 1.6.8v16c0 .34-.18.66-.47.85L13 45zm37.47-.15l-8-5A1 1 0 0 1 42 39V23c0-.83.95-1.29 1.6-.8l6 4.5c1.51 1.13 2.4 2.91 2.4 4.8V44c0 .79-.87 1.26-1.53.85z" fill="#d38e2a"/><path d="M39 60H25c-.81 0-2-.63-2-2h18c0 .81-.63 2-2 2z" fill="#f3f3f3"/><path d="M44 43H20c-.55 0-1-.45-1-1V21.89A25.26 25.26 0 0 1 31.5.14a1.01 1.01 0 0 1 1.01 0c7.71 4.5 12.5 12.83 12.5 21.76v20.11c0 .55-.45 1-1 1z" fill="#5e9fdf"/><path d="M41,45H23c-.81,0-2-.63-2-2h22c0,.81-.63,2-2,2Z" fill="#1976d2"/><path d="M56 55v1H8v-1a4 4 0 0 1 4-4h4a4 4 0 0 1 4-4h4c.81 0 2-.63 2-2h12c0 .81.63 2 2 2h4a4 4 0 0 1 4 4h4a4 4 0 0 1 4 4z" fill="#d9d9d9"/><circle cx="32" cy="17" r="7" fill="#1976d2"/><circle cx="32" cy="17" r="5" fill="#5e9fdf"/><path d="M27 37c-.26 0-.51-.1-.71-.29l-3-3c-.39-.39-.39-1.02 0-1.41l3-3c.39-.39 1.02-.39 1.41 0s.39 1.02 0 1.41L25.41 33l2.29 2.29a1.01 1.01 0 0 1-.71 1.71zm10 0c-.88 0-1.34-1.07-.71-1.71L38.58 33l-2.29-2.29c-.39-.39-.39-1.02 0-1.41s1.02-.39 1.41 0l3 3c.39.39.39 1.02 0 1.41l-3 3a.98.98 0 0 1-.71.29zm-6 2a1 1 0 0 1-.98-1.2l2-10a.99.99 0 0 1 1.18-.78c.54.11.89.63.78 1.18l-2 10c-.09.48-.51.8-.98.8z" fill="#fff"/><path d="M6 20h8v2H6zm0 4h5v2H6z" fill="#d9d9d9"/></svg>