<?xml version="1.0" encoding="UTF-8"?><svg id="a" xmlns="http://www.w3.org/2000/svg" viewBox="0 0 63.01 63"><defs><style>.b{fill:#5e9fdf;}.c{fill:#e4c290;}.d{fill:#fdfdfd;}.e{fill:#d38e2a;}.f{fill:#f3f3f3;}.g{fill:#1976d2;}</style></defs><path class="b" d="M63.01,0c0,9.8-3.79,19.79-11.31,27.31l-17.69,17.69L18.01,29,35.7,11.31C43.22,3.79,53.21,0,63.01,0Z"/><path class="g" d="M33.01,44l-1.59,1.59c-.78,.78-2.04,.78-2.81,0h0l-11.18-11.19c-.78-.78-.78-2.04,0-2.81h0l1.59-1.6,14,14Z"/><path class="e" d="M31.01,16l-13,13H6.01l11.24-11.24c1.13-1.13,2.65-1.76,4.25-1.76h9.51Zm16,16v9.51c0,1.59-.63,3.12-1.76,4.24l-11.24,11.24v-12l13-13h0Z"/><circle class="b" cx="45.01" cy="18" r="7"/><circle class="f" cx="45.01" cy="18" r="5"/><path class="e" d="M38.51,24.5c1.33,1.33,1.19,3.52-.3,4.66l-19.2,14.84,14.84-19.2c1.06-1.36,3.02-1.61,4.38-.55,.1,.08,.19,.16,.28,.25ZM0,63s14.85-2.12,18.36-5.64,3.51-9.21,0-12.73c-3.51-3.51-9.21-3.51-12.73,0C2.13,48.14,0,62.99,0,62.99H0Z"/><path class="c" d="M8.01,55s8.95-4.71,10.12-5.88c1.17-1.17,1.17-3.07,0-4.24-1.17-1.17-3.07-1.17-4.24,0-1.17,1.17-5.88,10.12-5.88,10.12ZM27.01,16c-2.56,6.13-9.32,9.29-15.51,7.51,8.47-8.47,6.16-7.51,15.51-7.51Z"/><circle class="g" cx="15.01" cy="11" r="11"/><path class="d" d="M15.01,19c-.55,0-1-.45-1-1v-1h-2c-.55,0-1-.45-1-1s.45-1,1-1h3.5c.83,0,1.5-.67,1.5-1.5s-.67-1.5-1.5-1.5h-1c-1.93,0-3.5-1.57-3.5-3.5,0-1.76,1.31-3.22,3-3.46v-1.04c0-.55,.45-1,1-1s1,.45,1,1v1h2c.55,0,1,.45,1,1s-.45,1-1,1h-3.5c-.83,0-1.5,.67-1.5,1.5s.67,1.5,1.5,1.5h1c1.93,0,3.5,1.57,3.5,3.5,0,1.76-1.31,3.22-3,3.46v1.04c0,.55-.45,1-1,1Z"/><path class="g" d="M63.01,0c0,3.03-.36,6.03-1.06,8.93-4.13-.49-7.38-3.74-7.87-7.87,2.9-.7,5.9-1.06,8.93-1.06Z"/></svg>