<svg xmlns="http://www.w3.org/2000/svg" xmlns:xlink="http://www.w3.org/1999/xlink" viewBox="0 0 64 64" xmlns:v="https://vecta.io/nano"><path d="M4 43h56c1.1 0 2 .9 2 2v2H2v-2c0-1.1.9-2 2-2zM2 60h60v2c0 1.1-.9 2-2 2H4c-1.1 0-2-.9-2-2v-2h0z" fill="#5e9fdf"/><rect y="47" width="64" height="13" rx="2" fill="#1976d2"/><g fill="#5e9fdf"><use xlink:href="#B"/><use xlink:href="#B" x="-10"/></g><use xlink:href="#B" x="-20" fill="#f3f3f3"/><circle cx="6" cy="53" r="2" fill="#d9d9d9"/><path d="M17 43H9l1.89-36A2.11 2.11 0 0 1 13 5c.84 0 2.03.63 2.11 2L17 43zm38 0h-8l1.89-36A2.11 2.11 0 0 1 51 5c.84 0 2.03.63 2.11 2L55 43z" fill="#1976d2"/><circle cx="32" cy="9" r="9" fill="#d38e2a"/><path d="M34.13 10.88c-1.15-1.14-3.1-1.14-4.26 0-.95.93-2.35-.5-1.4-1.42a5 5 0 0 1 7.06 0c.94.93-.47 2.34-1.4 1.42zm3.53-2.54c-.63 0-.66-.38-1.57-1.02-2.73-1.96-6.63-1.69-9.04.73-.94.94-2.35-.48-1.41-1.42 3.54-3.53 9.23-3.49 12.73 0 .63.63.18 1.71-.71 1.71zM33 13c0-1.32-2-1.32-2 0s2 1.32 2 0z" fill="#fdfdfd"/><defs ><path id="B" d="M54 55h4c1.1 0 2-.9 2-2 0-.81-.63-2-2-2h-4c-1.1 0-2 .9-2 2 0 .81.63 2 2 2z"/></defs></svg>