<svg xmlns="http://www.w3.org/2000/svg" viewBox="0 0 64 64" xmlns:v="https://vecta.io/nano"><path d="M6 0h58v6H6z" fill="#5e9fdf"/><path d="M0 0h6v6H0zm9 3h2v3H9zm5-1h2v4h-2zm5 1h2v3h-2zm5-1h2v4h-2zm5 1h2v3h-2zm5-1h2v4h-2zm5 1h2v3h-2zm5-1h2v4h-2zm5 1h2v3h-2zm5-1h2v4h-2zm5 1h2v3h-2z" fill="#1976d2"/><path d="M0 6h6v58H0z" fill="#5e9fdf"/><path d="M3 61v-2h3v2zm-1-5v-2h4v2zm1-5v-2h3v2zm-1-5v-2h4v2zm1-5v-2h3v2zm-1-5v-2h4v2zm1-5v-2h3v2zm-1-5v-2h4v2zm1-5v-2h3v2zm-1-5v-2h4v2zm1-5V9h3v2z" fill="#1976d2"/><rect x="9" y="9" width="54" height="38" rx="2" fill="#f3f3f3"/><path d="M11 9h19v38H11c-1.1 0-2-.9-2-2V11c0-1.1.9-2 2-2z" fill="#5e9fdf"/><g fill="#d38e2a"><path d="M29 6h2v58h-2z"/><path d="M6 34h58v2H6z"/></g><g fill="#1976d2"><circle cx="19" cy="19" r="6"/><path d="M23.46 23a5.97 5.97 0 0 1-8.92 0 5.97 5.97 0 0 1 8.92 0z"/><circle cx="19" cy="18" r="3"/><path d="M13 28h12v2H13z"/></g><path d="M59 15H35v-2h24zm0 4H35v-2h24zm0 4H35v-2h24zm0 4H35v-2h24zm0 4H35v-2h24zm0 11H44v-2h15z" fill="#d9d9d9"/><path d="M47 50l3.54 9.19 1.41-4.24 4.24-1.41L47 50z" fill="#1976d2"/></svg>