<svg xmlns="http://www.w3.org/2000/svg" viewBox="0 0 64 64" xmlns:v="https://vecta.io/nano"><g fill="#1976d2"><path d="M62,16V55H2V16c0-1.66,1.34-3,3-3H59c1.66,0,3,1.34,3,3Z"/><path d="M1 55h62c.55 0 1 .45 1 1v2c0 1.66-1.34 3-3 3H3c-1.66 0-3-1.34-3-3v-2c0-.55.45-1 1-1z"/></g><path d="M60 16v4H20l-4-5h43c.55 0 1 .45 1 1z" fill="#5e9fdf"/><path d="M60 20v33H4V16c0-.55.45-1 1-1h14.08c1.21 0 2.36.55 3.12 1.5l1.6 2c.86 1.03 1.97 1.5 3.12 1.5H60z" fill="#f3f3f3"/><g fill="#1976d2"><path d="M50.45 15H34.71c.75-.71 1.23-1.07 1.96-2h13.36a7.5 7.5 0 0 0 .42 2zm-21.16 0H13.55a7.5 7.5 0 0 0 .42-2h13.36c.73.94 1.22 1.3 1.96 2z"/><path d="M54.28 20H26.92c-1.13 0-2.22-.48-2.97-1.33-.14-.14-.97-1.2-1.75-2.17-.76-.95-1.91-1.5-3.12-1.5h10.21c1.08 1.04 1.99 2.23 2.71 3.51.72-1.28 1.63-2.47 2.71-3.51h15.74c.44 1.34 1.26 2.54 2.35 3.48A10.62 10.62 0 0 1 54.28 20z"/></g><path d="M57 27.61V49a5.93 5.93 0 0 1-1.54 4H32.67l-.67-.5-.67.5H8.54A5.93 5.93 0 0 1 7 49V27.61a12.02 12.02 0 0 1 4.2-9.13c1.09-.94 1.91-2.14 2.35-3.48h5.53c1.21 0 2.36.55 3.12 1.5l1.6 2c.86 1.03 1.97 1.5 3.12 1.5h27.36A11.97 11.97 0 0 1 57 27.61z" fill="#d9d9d9"/><path d="M22 3c8.81 1.76 9.48 2.1 11.57 1.69L42 3v17H22V3z" fill="#e4c290"/><path d="M39 57H25c-.81 0-2-.63-2-2h18c0 .81-.63 2-2 2z" fill="#f3f3f3"/><g fill="#d38e2a"><path d="M32 26.08V50l-2.93 2.2a3.98 3.98 0 0 1-2.4.8H13a4 4 0 0 1-4-4V27.61c0-2.93 1.28-5.71 3.5-7.61s3.5-4.61 3.5-7.61V5c0-1.1.9-2 2-2h4l1.11 5.54A13.46 13.46 0 0 0 27.43 16c2.91 2.54 4.58 6.22 4.58 10.08z"/><path d="M55 27.61V49a4 4 0 0 1-4 4H37.33a3.98 3.98 0 0 1-2.4-.8L32 50V26.08c0-3.86 1.67-7.54 4.58-10.08a13.39 13.39 0 0 0 4.32-7.46L42.01 3h4c1.1 0 2 .9 2 2v7.39c0 2.93 1.28 5.71 3.5 7.61s3.5 4.61 3.5 7.61z"/></g><path d="M34 17v34.5L32 50l-2 1.5V17h4z" fill="#e4c290"/><path d="M55 29H9c0-1.51-.06-2.51.35-4h45.3c.41 1.49.35 2.49.35 4z" fill="#f3f3f3"/><rect x="28" y="24" width="8" height="6" rx="1" fill="#5e9fdf"/><path d="M9 41h46v4H9z" fill="#f3f3f3"/><rect x="28" y="40" width="8" height="6" rx="1" fill="#5e9fdf"/><path d="M17 29h4v12h-4zm26 0h4v12h-4z" fill="#f3f3f3"/><g fill="#d38e2a"><circle cx="3" cy="10" r="1"/><circle cx="7" cy="10" r="1"/><circle cx="11" cy="10" r="1"/></g></svg>