<svg xmlns="http://www.w3.org/2000/svg" viewBox="0 0 64 64" xmlns:v="https://vecta.io/nano"><rect y="15" width="64" height="44" rx="3" fill="#5e9fdf"/><rect x="3" y="18" width="58" height="38" rx="1" fill="#1976d2"/><rect x="10" y="27" width="36" height="20" rx="2" fill="#fff"/><circle cx="19" cy="37" r="7" fill="#c8c8c8"/><path d="M28 29h4v4h-4zm6 0h4v4h-4zm6 0h4v4h-4zm-12 6h4v4h-4zm6 0h4v4h-4zm6 0h4v4h-4zm-12 6h4v4h-4zm6 0h4v4h-4zm6 0h4v4h-4z" fill="#d38e2a"/><g fill="#fff"><circle cx="19" cy="37" r="2"/><path d="M13.341 32.755l1.414-1.414 9.899 9.899-1.414 1.414z"/></g><g fill="#1976d2"><path d="M58.95 15a11.04 11.04 0 0 1-.7 3h-20.5a11.04 11.04 0 0 1-.7-3h21.9z"/><path d="M58.25,18c-3.66,9.32-16.84,9.31-20.5,0h20.5Z"/></g><circle cx="48" cy="14" r="9" fill="#d38e2a"/><path d="M47 18c-.55 0-.43-.02-3.71-3.29-.94-.94.48-2.35 1.41-1.41l2.23 2.23 4.3-5.16c.85-1.02 2.38.26 1.54 1.28-5.35 6.42-5.12 6.36-5.77 6.36z" fill="#fff"/><path d="M25 5h10v2H25zm-8 4h18v2H17z" fill="#f3f3f3"/><path d="M56,46V28c0-1.34,2-1.29,2,0v18c0,1.34-2,1.29-2,0Z" fill="#1976d2"/></svg>