<svg xmlns="http://www.w3.org/2000/svg" viewBox="0 0 64 64" xmlns:v="https://vecta.io/nano"><path d="M19 15c-.26 0-.51-.1-.71-.29l-6-6c-.39-.39-.39-1.02 0-1.41s1.02-.39 1.41 0l6 6a1.01 1.01 0 0 1-.71 1.71zm-1 4c-.26 0-.51-.1-.71-.29l-6-6c-.39-.39-.39-1.02 0-1.41s1.02-.39 1.41 0l6 6a1.01 1.01 0 0 1-.71 1.71zm39 39H47c-.55 0-1-.45-1-1s.45-1 1-1h9V46c0-.55.45-1 1-1s1 .45 1 1v11c0 .55-.45 1-1 1z" fill="#d9d9d9"/><path d="M24 15l-2.59-2.59c-.78-.78-2.05-.78-2.83 0l-6.17 6.17c-.78.78-.78 2.05 0 2.83L15 24l9-9z" fill="#1976d2"/><g fill="#d38e2a"><path d="M60.28 44.72L44.72 60.28c-1.99-1.99-3.22-4.74-3.22-7.78 0-9.81 11.91-14.65 18.78-7.78z"/><circle cx="57" cy="57" r="3"/></g><path d="M64.02 8.63c0 2.22-.92 4.41-2.5 5.97L47.47 28.65c-.78.78-2.05.78-2.83 0l-9.23-9.23c-.78-.78-.78-2.05 0-2.83L49.44 2.56C54.72-2.72 64.06.92 64.02 8.63zM28.65 44.65c.78.78.78 2.05 0 2.83L14.6 61.53c-3.56 3.6-9.54 3.27-12.68-.72-2.68-3.36-2.43-8.29.64-11.36l14.03-14.03c.78-.78 2.05-.78 2.83 0l9.23 9.23z" fill="#5e9fdf"/><path d="M60.8 1.92l-7.23 7.23-5.36-5.36-1.42 1.42 5.36 5.36-5.58 5.58-5.36-5.36-1.42 1.42 5.36 5.36-7.79 7.79c-.64.64-.15 1.71.71 1.71.54 0-.08.48 8.5-8.09l5.28 5.29 1.42-1.42-5.29-5.28 5.59-5.59 5.28 5.29 1.42-1.42-5.29-5.28 7.23-7.24-1.41-1.41zM26.77 38.77l-7.79 7.8 5.29 5.28-1.42 1.42-5.28-5.29-5.59 5.59 5.29 5.28-1.42 1.42-5.28-5.29-7.24 7.23a8.55 8.55 0 0 1-1.41-1.41l7.23-7.23-5.36-5.36 1.42-1.42 5.36 5.36 5.58-5.58-5.36-5.36 1.42-1.42 5.36 5.36 7.79-7.79c.39-.39 1.02-.39 1.41 0a.98.98 0 0 1 0 1.41z" fill="#f3f3f3"/><path d="M49.52 40.34l-9.18 9.18a1.99 1.99 0 0 1-2.82 0L13.34 25.34a1.99 1.99 0 0 1 0-2.82l9.18-9.18a1.99 1.99 0 0 1 2.82 0l24.18 24.18a1.99 1.99 0 0 1 0 2.82z" fill="#5e9fdf"/><path d="M23.64 22.29h0a3 3 0 0 1 0-4.24c1.81-1.81 5.12-.59 5.12 2.12s-3.25 3.99-5.12 2.12zm2.12-3.12c-.89 0-1.33 1.08-.71 1.71h0c.61.61 1.71.2 1.71-.71 0-.55-.45-1-1-1zm2.83 7.66c-.88 0-1.34-1.07-.71-1.71l1.41-1.41c-.62-.62-.19-1.71.71-1.71h1.41c.89 0 1.34 1.08.71 1.71l-2.83 2.83a.98.98 0 0 1-.71.29z" fill="#f3f3f3"/><path d="M33.288 45.296l12-12 1.421 1.421-12 12z" fill="#1976d2"/></svg>