<svg xmlns="http://www.w3.org/2000/svg" viewBox="0 0 64 64" xmlns:v="https://vecta.io/nano"><circle cx="50" cy="50" r="3" fill="#d38e2a"/><path d="M36.007 26.005l4.002-4.002 2.001 2.001-4.002 4.002z" fill="#1976d2"/><path d="M10.5 10.5h0a2.12 2.12 0 0 0 0 3L16 19l3-3-5.5-5.5a2.12 2.12 0 0 0-3 0z" fill="#d38e2a"/><rect x="10.81" y="16.46" width="18.38" height="7.07" rx="2" transform="matrix(.707107 -.707107 .707107 .707107 -8.28 20)" fill="#5e9fdf"/><g fill="#1976d2"><path d="M28 17l15.88 15.88a3 3 0 0 1 0 4.24l-6.76 6.76a3 3 0 0 1-4.24 0L17 28l11-11z"/><path d="M38.999 42l2.998-2.998L44.995 42l-2.998 2.998z"/></g><g fill="#5e9fdf"><path d="M57.78 42.22L42.22 57.78C35.36 50.92 40.16 39 50 39c3.04 0 5.79 1.23 7.78 3.22zm5.57-32.57L45.41 27.59a1.99 1.99 0 0 1-2.82 0l-6.18-6.18c-.78-.78-.79-2.04-.02-2.82l17.93-18c.79-.76 2.04-.75 2.81.02 6.76 6.76-.52-.52 6.22 6.22a1.99 1.99 0 0 1 0 2.82z"/><path d="M60.97 4.45l-1.42-1.42L53 9.58l-3.85-3.85-1.41 1.43L51.58 11l-5.08 5.08-3.83-3.83-1.41 1.43 3.82 3.82-6.29 6.29 1.42 1.42 6.29-6.29 3.79 3.79 1.42-1.42-3.79-3.79L53 12.42l3.79 3.79 1.42-1.42L54.42 11l6.55-6.55z"/></g><path d="M22.007 40.004l4.002-4.002 2.001 2.001-4.002 4.002z" fill="#1976d2"/><g fill="#5e9fdf"><path d="M9.65 63.35l17.94-17.94a1.99 1.99 0 0 0 0-2.82l-6.18-6.18c-.78-.78-2.04-.79-2.82-.02l-18 17.93c-.76.79-.75 2.04.02 2.81 6.76 6.76-.52-.52 6.22 6.22a1.99 1.99 0 0 0 2.82 0z"/><path d="M4.45 60.97l-1.42-1.42L9.58 53l-3.85-3.85 1.43-1.41L11 51.58l5.08-5.08-3.83-3.83 1.43-1.41 3.82 3.82 6.29-6.29 1.42 1.42-6.29 6.29 3.79 3.79-1.42 1.42-3.79-3.79L12.42 53l3.79 3.79-1.42 1.42L11 54.42l-6.55 6.55zM37 29l4 4c1.34 1.34-.71 3.29-2 2l-4-4c-1.34-1.34.71-3.29 2-2z"/><circle cx="33" cy="27" r="1.41"/><path d="M50,57c-1.32,0-1.32-2,0-2,2.76,0,5-2.24,5-5,0-1.32,2-1.32,2,0,0,3.86-3.14,7-7,7Z"/></g><path d="M50,61c-1.32,0-1.32-2,0-2,4.96,0,9-4.04,9-9,0-1.32,2-1.32,2,0,0,6.07-4.93,11-11,11Z" fill="#1976d2"/></svg>