<svg xmlns="http://www.w3.org/2000/svg" viewBox="0 0 64 64" xmlns:v="https://vecta.io/nano"><path d="M28.99 10.96c-.01-.4-.23-.69-.55-.85-.33-.17.62-.12-11.44-.12-1.32 0-1.32 2 0 2h8.59l-2.29 2.29c-.94.94.48 2.35 1.41 1.41L27 13.4v7.59c0 1.32 2 1.32 2 0V10.95zM4 33h56v4H4z" fill="#1976d2"/><path d="M7 37h50v27H7z" fill="#5e9fdf"/><path d="M24 48h16c1.1 0 2 .9 2 2v14H22V50c0-1.1.9-2 2-2z" fill="#f3f3f3"/><path d="M31 48h2v16h-2z" fill="#5e9fdf"/><path d="M20 32v1H10v-1l2-3h6l2 3z" fill="#1976d2"/><path d="M13 24h4v5h-4z" fill="#5e9fdf"/><path d="M33.19 24.19C25.06 32.32 11 26.59 11 15a12.96 12.96 0 0 1 3.81-9.19l18.38 18.38z" fill="#d38e2a"/><g fill="#1976d2"><circle cx="15" cy="24" r="3"/><circle cx="28" cy="11" r="3"/></g><path d="M33 11c0-2.76-2.24-5-5-5-1.32 0-1.32-2 0-2a7.01 7.01 0 0 1 7 7c0 1.32-2 1.32-2 0zm4 0c0-4.96-4.04-9-9-9-1.32 0-1.32-2 0-2a11.01 11.01 0 0 1 11 11c0 1.32-2 1.32-2 0z" fill="#5e9fdf"/><g fill="#f3f3f3"><path d="M16,24c0-1.32-2-1.32-2,0s2,1.32,2,0Z"/><rect x="45" y="41" width="8" height="8" rx="2"/><rect x="11" y="41" width="8" height="8" rx="2"/></g></svg>