<svg xmlns="http://www.w3.org/2000/svg" viewBox="0 0 64 64" xmlns:v="https://vecta.io/nano"><path d="M62,19V58H2V19c0-1.66,1.34-3,3-3H59c1.66,0,3,1.34,3,3Z" fill="#5e9fdf"/><path d="M1 58h62c.55 0 1 .45 1 1v2c0 1.66-1.34 3-3 3H3c-1.66 0-3-1.34-3-3v-2c0-.55.45-1 1-1z" fill="#1976d2"/><path d="M60 19v37H4V19c0-.55.45-1 1-1h54c.55 0 1 .45 1 1z" fill="#fff"/><path d="M6 20h26v16H6zm30 10h22v12H36zM6 38h26v2H6zm0 4h26v2H6zm0 4h26v2H6zm30-2h22v2H36zm0 4h22v2H36zm0 4h22v2H36zM6 50h22v2H6z" fill="#d9d9d9"/><path d="M39 60H25c-1.1 0-2-.9-2-2 0-.1-.84 0 18 0 0 .81-.63 2-2 2z" fill="#f3f3f3"/><path d="M46 7l4 2-3 2 3 2v19l-3 2 3 2v4H20c0 4.58.49 6.55-1.65 7.68-2.33 1.06-4.35-.74-4.35-2.85V24l3-2-3-2 4-2-4-2V3c0-1.66-1.34-3-3-3h36c1.66 0 3 1.34 3 3v2l-4 2z" fill="#d38e2a"/><path d="M14 3v7H8c0-7.15-.3-7.94.88-9.12C10.76-1 14 .33 14 3z" fill="#e4c290"/><path d="M12 3v7H8c0-7.15-.3-7.94.88-9.12.31-.31.69-.56 1.12-.7 1.17.4 2 1.51 2 2.82z" fill="#d38e2a"/><path d="M48 6l-2 1 2 1v2.33L47 11l1 .67v21.66L47 34l1 .67V48H19c-1.62 0-3-1.31-3-3V22.67l1-.67-1-.67V19l2-1-2-1V2.49c0-.95-.4-1.85-1.11-2.49h30.87c.68.3 1.24.8 1.63 1.4.8 1.22.61 2.18.61 4.6z" fill="#f3f3f3"/><path d="M56 40c0 5.05.28 5.96-.88 7.12-.54.54-1.29.88-2.12.88H17a3.01 3.01 0 0 0 3-3v-5h13l1 2 2-2h20z" fill="#d38e2a"/><path d="M19 4h26v6H19zm6 8h20v2H25zm-5 4h25v2H20zm0 4h25v2H20zm0 4h25v2H20zm0 4h25v2H20zm0 4h25v2H20zm0 4h25v2H20z" fill="#d9d9d9"/></svg>