<?xml version="1.0" encoding="UTF-8"?><svg id="a" xmlns="http://www.w3.org/2000/svg" viewBox="0 0 56 64"><defs><style>.b{fill:#5e9fdf;}.c{fill:#c8c8c8;}.d{fill:#f3f3f3;}.e{fill:#d9d9d9;}.f{fill:#1976d2;}</style></defs><g><path class="b" d="M2,0H54c1.1,0,2,.9,2,2V6H0V2C0,.9,.9,0,2,0Z"/><path class="b" d="M13,0h19c2.21,0,4,1.79,4,4v2H13V0h0Z"/></g><path class="d" d="M56,6V48c0,1.1-.9,2-2,2H2c-1.1,0-2-.9-2-2V2C0,.9,.9,0,2,0H14c2.21,0,4,1.79,4,4v2H56Z"/><path class="f" d="M53,3c0-1.32-2-1.32-2,0s2,1.32,2,0Zm-4,0c0-1.32-2-1.32-2,0s2,1.32,2,0Z"/><path class="d" d="M45,3c0-1.32-2-1.32-2,0s2,1.32,2,0Z"/><path class="f" d="M33,3c0-1.32-2-1.32-2,0s2,1.32,2,0Z"/><path class="e" d="M10,19c-.4,0-.79-.25-.94-.65l-.51-1.35h-3.11l-.51,1.35c-.19,.52-.77,.78-1.29,.59-.52-.19-.78-.77-.59-1.29l3-8c.15-.39,.52-.65,.94-.65s.79,.26,.94,.65l3,8c.19,.52-.07,1.09-.59,1.29-.12,.04-.23,.06-.35,.06Zm-3.81-4h1.61l-.81-2.15-.81,2.15Z"/><g><path class="e" d="M17,9H53v2H17v-2Zm-4,4H53v2H13v-2Zm0,4H53v2H13v-2ZM3,21H53v2H3v-2Zm0,4H53v2H3v-2Zm0,4H53v2H3v-2Zm0,4h30v2H3v-2Zm0,4h30v2H3v-2Zm0,4h30v2H3v-2Zm0,4h30v2H3v-2Z"/><path class="e" d="M37,36v14H15v-3h18v-2H15v-2h18v-2H15v-2h18v-2H15c0-.94-.07-1.42,.27-2h17.73v-1h2c1.1,0,2,.9,2,2Z"/></g><path class="c" d="M33,34v1H15.27c.35-.6,.99-1,1.73-1h16Zm-18,3h18v2H15v-2Zm0,4h18v2H15v-2Zm0,4h18v2H15v-2Z"/><path class="e" d="M35,33h18v14h-18v-14Z"/><path class="f" d="M39,64l-11-8-11,8v-28c0-1.1,.9-2,2-2h18c1.1,0,2,.9,2,2v28Z"/></svg>