<svg xmlns="http://www.w3.org/2000/svg" viewBox="0 0 64 64" xmlns:v="https://vecta.io/nano"><path d="M46 8v48c0 3.64-2.43 6.71-5.75 7.68-1.52.45-.39.32-26.25.32a8 8 0 0 1-8-8V8a8 8 0 0 1 8-8h24a8 8 0 0 1 8 8z" fill="#5e9fdf"/><path d="M43 9v45c0 3.31-2.69 6-6 6H15c-3.31 0-6-2.69-6-6V9c0-3.31 2.69-6 6-6h3.29a.98.98 0 0 1 .94.68l.31.95A2.01 2.01 0 0 0 21.44 6h9.12a2.01 2.01 0 0 0 1.9-1.37l.31-.94a1 1 0 0 1 .95-.69H37c3.31 0 6 2.69 6 6z" fill="#fff"/><path d="M40 31v12c0 1.1-.9 2-2 2H26c-1.1 0-2-.9-2-2V31c0-1.1.9-2 2-2h12c1.07 0 2 .87 2 2z" fill="#5e9fdf"/><path d="M46 41.01V56c0 3.64-2.43 6.71-5.75 7.68-1.44.43-1.95.32-8.25.32a4.13 4.13 0 0 0-1.54-3.23L29.5 60H37c3.31 0 6-2.69 6-6V40c1.13 0 2.17.37 3 1.01z" fill="#1976d2"/><path d="M43 40v14c0 3.31-2.69 6-6 6h-7.5l-5.41-4.36c-1.58-1.27-1.92-3.5-.79-5.19 1.94-2.92 5.58-4.02 8.7-2.91V45h6c1.1 0 2-.9 2-2V31c0-.52-.2-1-.53-1.35C40.98 30.52 42 32.14 42 34v6.1c.32-.07.66-.1 1-.1z" fill="#f3f3f3"/><path d="M40 31v12c0 1.1-.9 2-2 2h-6V34c0-3.81 4.11-6.24 7.47-4.35.33.35.53.83.53 1.35z" fill="#1976d2"/><path d="M58 48.16V62c0 1.1-.9 2-2 2H34c0-1.86-.84-3.62-2.29-4.78l-6.36-5.13c-.77-.62-.93-1.71-.39-2.53a5.48 5.48 0 0 1 7.6-1.52L34 51V34c0-1.47 1.06-2.69 2.45-2.95 1.99-.33 3.55 1.27 3.55 3.11V45c0-1.94 1.81-3.32 3.58-2.94 1.43.31 2.42 1.64 2.42 3.1V46c0-1.47 1.05-2.68 2.44-2.95h.01c1.99-.33 3.55 1.27 3.55 3.11V48c0-1.71 1.42-3.08 3.16-3 1.62.08 2.84 1.54 2.84 3.16zM26 6v17c0 1.1-.9 2-2 2H14c-1.1 0-2-.9-2-2V3.81c.88-.52 1.9-.81 3-.81h3.29c.43 0 .8.27.94.68l.31.95A2.01 2.01 0 0 0 21.44 6H26z" fill="#e4c290"/><path d="M29 11h11v2H29zm0 4h11v2H29zm0 4h11v2H29zm0 4h11v2H29zm-17 8h10v2H12zm0 4h10v2H12zm0 4h10v2H12zm0 4h10v2H12z" fill="#d9d9d9"/><path d="M52.29 34.29l-.29.29v-7.17c.35.35.54.59 1 .59.88 0 1.34-1.07.71-1.71l-2-2c-.39-.39-1.02-.39-1.41 0l-2 2c-.39.39-.39 1.02 0 1.41s1.02.39 1.41 0l.29-.29v7.17l-.29-.29c-.39-.39-1.02-.39-1.41 0s-.39 1.02 0 1.41c2.18 2.18 2.17 2.29 2.71 2.29s.57-.15 2.71-2.29c.39-.39.39-1.02 0-1.41s-1.02-.39-1.41 0z" fill="#1976d2"/><path d="M46 45v9c0 .55-.45 1-1 1s-1-.45-1-1V44c0-.94-.66-1.74-1.55-1.95C44.43 41.72 46 43.21 46 45zm-6-11v20c0 .55-.45 1-1 1s-1-.45-1-1V33c0-.94-.66-1.74-1.55-1.95C38.43 30.72 40 32.21 40 34zm12 12v8c0 .55-.45 1-1 1s-1-.45-1-1v-9c0-.94-.66-1.74-1.55-1.95C50.43 42.72 52 44.21 52 46z" fill="#d38e2a"/></svg>