<svg xmlns="http://www.w3.org/2000/svg" viewBox="0 0 64 64" xmlns:v="https://vecta.io/nano"><rect x="10" y="12" width="32" height="52" rx="3" fill="#5e9fdf"/><path d="M42 15h4v46h-4z" fill="#1976d2"/><g fill="#f3f3f3"><rect x="13" y="20" width="26" height="14" rx="1"/><rect x="14" y="37" width="6" height="6" rx="1"/><rect x="23" y="37" width="6" height="6" rx="1"/><rect x="32" y="37" width="6" height="6" rx="1"/><rect x="14" y="46" width="6" height="6" rx="1"/><rect x="23" y="46" width="6" height="6" rx="1"/></g><rect x="32" y="46" width="6" height="15" rx="1" fill="#d38e2a"/><g fill="#f3f3f3"><rect x="14" y="55" width="6" height="6" rx="1"/><rect x="23" y="55" width="6" height="6" rx="1"/></g><path d="M14 16h24v2H14z" fill="#d9d9d9"/><path d="M35 10v7H17V2c0-1.1.9-2 2-2h18" fill="#f3f3f3"/><path d="M41 10h-6V2c0-1.1.9-2 2-2 .81 0 2 .63 2 2v3" fill="#d9d9d9"/><path d="M41 10c-.81 0-2-.63-2-2V5h4v3c0 1.1-.9 2-2 2z" fill="#c8c8c8"/><path d="M42 23h10c1.1 0 2 .9 2 2v26c0 1.1-.9 2-2 2H42V23h0z" fill="#d38e2a"/><circle cx="49" cy="28" r="3" fill="#f3f3f3"/><circle cx="49" cy="32" r="3" fill="#d9d9d9"/><path d="M48 39h2v12h-2z" fill="#f3f3f3"/><g fill="#d9d9d9"><path d="M51 18c-.54 0-.57-.15-2.71-2.29-.94-.94.48-2.35 1.41-1.41l.29.29V11c0-1.32 2-1.32 2 0v6c0 .55-.45 1-1 1z"/><path d="M51 18c-.88 0-1.34-1.07-.71-1.71l2-2c.94-.94 2.35.48 1.41 1.41-2.18 2.18-2.17 2.29-2.71 2.29zm0 45c-.54 0-.57-.15-2.71-2.29-.94-.94.48-2.35 1.41-1.41l.29.29V56c0-1.32 2-1.32 2 0v6c0 .55-.45 1-1 1z"/><path d="M51 63c-.88 0-1.34-1.07-.71-1.71l2-2c.94-.94 2.35.48 1.41 1.41-2.18 2.18-2.17 2.29-2.71 2.29z"/></g></svg>