<svg xmlns="http://www.w3.org/2000/svg" viewBox="0 0 64 64" xmlns:v="https://vecta.io/nano"><circle cx="25" cy="21" r="21" fill="#5e9fdf"/><circle cx="25" cy="21" r="18" fill="#fff"/><path d="M37.008 35l2.001-2.001 4.497 4.497-2.001 2.001z" fill="#5e9fdf"/><g fill="#1976d2"><path d="M47.01 37.02l-6.03 5.97c-1.35 1.33-3.29-.72-1.99-2.01l6.03-5.97c1.35-1.33 3.29.72 1.99 2.01z"/><path d="M46 37l16.4 15.52c1.46 1.4 1.6 3.69.3 5.25a3.85 3.85 0 0 1-5.68.26L41 42.01l5-5zM8.88 29h-3.3c-2.05-4.97-2.16-10.77 0-16h3.3a17.94 17.94 0 0 0 0 16zm35.54 0h-3.3a17.94 17.94 0 0 0 0-16h3.3c2.05 4.97 2.16 10.77 0 16z"/></g><path d="M41.12 29H8.88a17.94 17.94 0 0 1 0-16h32.24a17.94 17.94 0 0 1 0 16z" fill="#f3f3f3"/><rect y="15" width="50" height="12" rx="2" fill="#d9d9d9"/><path d="M38 15h10c1.1 0 2 .9 2 2v8c0 1.1-.9 2-2 2H38V15h0z" fill="#c8c8c8"/><path d="M46.29 24.71l-2-2.01A3 3 0 0 1 40 20a3.01 3.01 0 0 1 3-3c2.14 0 3.67 2.24 2.7 4.29l2.01 2c.92.92-.44 2.35-1.42 1.42zM4 23h6v2H4zm8 0h6v2h-6zm8 0h6v2h-6z" fill="#f3f3f3"/><path d="M24 48v12c0 1.1-.9 2-2 2H2c-1.1 0-2-.9-2-2V48c0-1.1.9-2 2-2h10.31L15 42l3 4h4c1.1 0 2 .9 2 2z" fill="#d38e2a"/><g fill="#f3f3f3"><circle cx="19" cy="54" r="2"/><circle cx="12" cy="54" r="2"/><circle cx="5" cy="54" r="2"/></g></svg>