<svg xmlns="http://www.w3.org/2000/svg" viewBox="0 0 64 64" xmlns:v="https://vecta.io/nano"><g fill="#5e9fdf"><path d="M42 57c-.26 0-.51-.1-.71-.29l-10-10c-.39-.39-.39-1.02 0-1.41s1.02-.39 1.41 0l10 10a1.01 1.01 0 0 1-.71 1.71zm20-20.01H8c-1.1 0-2 3.1-2 2v-37C6 .89 6.9 0 8 0h54c1.1 0 2 .9 2 2v36.99c0 1.1-.9-2-2-2z"/><path d="M51 43.99H17V0h19.53a4.01 4.01 0 0 1 3.58 2.21l.79 1.58A3.99 3.99 0 0 0 44.48 6h6.53v37.99z"/></g><path d="M64 6v42c0 1.1-.9 2-2 2H2c-1.1 0-2-.9-2-2V2C0 .9.9 0 2 0h17.53a4.02 4.02 0 0 1 3.58 2.21l.78 1.58A4.02 4.02 0 0 0 27.47 6H64z" fill="#f3f3f3"/><path d="M11 9h2v30h-2z" fill="#d9d9d9"/><path d="M4 11h4v2H4zm0 6h4v2H4zm0 6h4v2H4zm0 6h4v2H4zm0 6h4v2H4zm12-12h8v2h-8zm12 0h16v2H28zm-12-6h4v2h-4zm8 0h14v2H24z" fill="#5e9fdf"/><path d="M16 11h8v2h-8z" fill="#d38e2a"/><path d="M28 11h10v2H28zm14 0h6v2h-6z" fill="#5e9fdf"/><path d="M16 29h8v2h-8z" fill="#d38e2a"/><path d="M28 29h10v2H28z" fill="#5e9fdf"/><path d="M42 17h6v2h-6z" fill="#d38e2a"/><path d="M16 35h4v2h-4z" fill="#5e9fdf"/><g fill="#1976d2"><circle cx="60" cy="2.99" r="1"/><circle cx="56" cy="2.99" r="1"/><circle cx="52" cy="2.99" r="1"/></g><circle cx="20" cy="2.99" r="1" fill="#5e9fdf"/><path d="M18.58 50C15.9 41.05 22.65 32 32 32s16.1 9.05 13.42 18H18.58z" fill="#d9d9d9"/><g fill="#5e9fdf"><circle cx="32" cy="46" r="12"/><circle cx="32" cy="46" r="10"/></g><path d="M28 50c-.26 0-.51-.1-.71-.29l-3-3c-.39-.39-.39-1.02 0-1.41l3-3c.39-.39 1.02-.39 1.41 0s.39 1.02 0 1.41L26.41 46l2.29 2.29a1.01 1.01 0 0 1-.71 1.71zm8 0c-.88 0-1.34-1.07-.71-1.71L37.58 46l-2.29-2.29c-.39-.39-.39-1.02 0-1.41s1.02-.39 1.41 0l3 3c.39.39.39 1.02 0 1.41l-3 3a.98.98 0 0 1-.71.29zm-5 2c-.63 0-1.1-.58-.98-1.2l2-10c.11-.54.63-.89 1.18-.78a1 1 0 0 1 .78 1.18l-2 10c-.09.48-.51.8-.98.8z" fill="#fff"/><path d="M42.29 54.7l-1.59 1.59c-.39.39-.39 1.02 0 1.41l5.68 5.68c.7.7 1.6.62 1.5.62 1.91 0 2.8-2.32 1.5-3.63l-5.67-5.67c-.39-.39-1.02-.39-1.41 0z" fill="#d38e2a"/><path d="M52 41h8v2h-8zm4-4h4v2h-4z" fill="#d9d9d9"/></svg>