<svg xmlns="http://www.w3.org/2000/svg" viewBox="0 0 64 64" xmlns:v="https://vecta.io/nano"><path d="M62,11V50H2V11c0-1.66,1.34-3,3-3H59c1.66,0,3,1.34,3,3Z" fill="#5e9fdf"/><path d="M1 50h62c.55 0 1 .45 1 1v2c0 1.66-1.34 3-3 3H3c-1.66 0-3-1.34-3-3v-2c0-.55.45-1 1-1z" fill="#1976d2"/><path d="M60 11v37H4V11c0-.55.45-1 1-1h54c.55 0 1 .45 1 1z" fill="#fff"/><path d="M39 52H25c-1.1 0-2-.9-2-2 0-.1-.84 0 18 0 0 .81-.63 2-2 2z" fill="#f3f3f3"/><path d="M2 16h48v14H2c-1.1 0-2-.9-2-2V18c0-1.1.9-2 2-2z" fill="#d9d9d9"/><path d="M50 16h12c1.1 0 2 .9 2 2v10c0 1.1-.9 2-2 2H50V16h0z" fill="#c8c8c8"/><path d="M61.71 26.29l-2.31-2.21c1.66-2.69-.3-6.09-3.4-6.09a4 4 0 0 0-4 4c0 3.09 3.4 5.05 6.09 3.4.05.11.11.22.21.31 2.18 2.18 2.17 2.29 2.71 2.29.88 0 1.34-1.07.71-1.71zM56 24c-1.1 0-2-.9-2-2s.9-2 2-2 2 .9 2 2-.9 2-2 2z" fill="#fff"/><g fill="#d38e2a"><path d="M50 45l-2-9 9 2-7 7z"/><path d="M49.995 39.999l2.001-2.001 4.999 4.999-2.001 2.001z"/></g></svg>