<?xml version="1.0" encoding="UTF-8"?><svg id="a" xmlns="http://www.w3.org/2000/svg" viewBox="0 0 60.82 64"><defs><style>.b{fill:#fff;}.c{fill:#5e9fdf;}.d{fill:#fdfdfd;}.e{fill:#d38e2a;}.f{fill:#f3f3f3;}.g{fill:#1976d2;}</style></defs><g><path class="g" d="M42.01,47l2-2,3,3-2,2-3-3Zm-2.01-40l-6,6-3-3v22H9V10l-3,3L0,7,8,0h24l8,7Z"/><path class="g" d="M31,14v18H11.1c1.01-10.1,9.55-18,19.9-18Z"/><path class="g" d="M49,34c0,10.9-9.62,19.32-20.46,17.83-8.85-1.2-15.54-8.82-15.54-17.83,0-9.94,8.06-18,18-18s18,8.06,18,18Z"/></g><path class="b" d="M47,34c0,10.26-9.51,17.81-19.39,15.64-7.28-1.56-12.61-8.03-12.61-15.64,0-8.75,7.09-16,16-16s16,7.09,16,16Z"/><path class="g" d="M47.29,47.71l-2.59,2.59c-.39,.39-.39,1.02,0,1.41l11.29,11.29c1.11,1.1,2.89,1.1,4,0,1.1-1.1,1.1-2.9,0-4l-11.29-11.29c-.39-.39-1.02-.39-1.41,0Zm-18.75,4.12c-5.15-.7-9.6-3.58-12.39-7.67,.92-.17,1.99-.18,2.37-.14,2.26,2.81,5.44,4.84,9.09,5.62,.39,.69,.7,1.43,.93,2.19Z"/><path class="f" d="M27.61,49.64c-3.65-.78-6.83-2.81-9.09-5.62,3.92,.18,7.29,2.4,9.09,5.62Z"/><circle class="e" cx="18" cy="55" r="9"/><path class="d" d="M17,59c-.26,0-.51-.1-.71-.29l-3-3c-.39-.39-.39-1.02,0-1.41s1.02-.39,1.41,0l2.29,2.29,5.29-5.29c.39-.39,1.02-.39,1.41,0s.39,1.02,0,1.41l-6,6c-.2,.2-.45,.29-.71,.29Z"/><path class="g" d="M26,0c0,3.31-2.69,6-6,6S14,3.31,14,0h12Z"/><path class="c" d="M33,18.13v15.87H15c0-9.74,8.66-17.14,18-15.87Z"/></svg>