<svg xmlns="http://www.w3.org/2000/svg" viewBox="0 0 64 64" xmlns:v="https://vecta.io/nano"><g fill="#5e9fdf"><rect x="11" y="11.99" width="49" height="41" rx="2"/><path d="M47 17.99v42H17v-48h19.53a4.02 4.02 0 0 1 3.58 2.21l.78 1.58a4 4 0 0 0 3.58 2.21H47z"/></g><path d="M60 18v44c0 1.1-.9 2-2 2H7c-1.1 0-2-.9-2-2V14c0-1.1.9-2 2-2h12.53a4.02 4.02 0 0 1 3.58 2.21c.73 1.47 1 2.26 1.91 2.94a3.98 3.98 0 0 0 2.45.85H60z" fill="#f3f3f3"/><g fill="#1976d2"><circle cx="56" cy="14.99" r="1"/><circle cx="52" cy="14.99" r="1"/><circle cx="48" cy="14.99" r="1"/></g><g fill="#5e9fdf"><circle cx="20" cy="14.99" r="1"/><rect x="1" y="32" width="62" height="14" rx="2"/><path d="M61,31H3c-1.65,0-3,1.35-3,3v10c0,1.65,1.35,3,3,3H61c1.65,0,3-1.35,3-3v-10c0-1.65-1.35-3-3-3ZM2,44v-10c0-.55,.45-1,1-1H47v12H3c-.55,0-1-.45-1-1Z"/></g><g fill="#f3f3f3"><path d="M55,43c-2.76,0-5-2.24-5-5s2.24-5,5-5,5,2.24,5,5-2.24,5-5,5Zm0-8c-1.65,0-3,1.35-3,3s1.35,3,3,3,3-1.35,3-3-1.35-3-3-3Z"/><path d="M60 44c-.54 0-.57-.15-2.71-2.29-.39-.39-.39-1.02 0-1.41s1.02-.39 1.41 0l2 2a1.01 1.01 0 0 1-.71 1.71z"/></g><path d="M11 37H7c-.55 0-1-.45-1-1 0-.29.22-1 1-1h4c.55 0 1 .45 1 1 0 .29-.22 1-1 1z" fill="#fff"/><path d="M26 11.99c0 1.8-.34 3.54-.98 5.16-.93-.69-1.19-1.48-1.91-2.94A4.02 4.02 0 0 0 19.53 12H26z" fill="#5e9fdf"/><path d="M25.02 17.15C21.83 25.16 12.29 28.37 5 24.12V14c0-1.1.9-2 2-2h12.53a4.02 4.02 0 0 1 3.58 2.21c.73 1.47 1 2.26 1.91 2.94z" fill="#d9d9d9"/><circle cx="12" cy="12" r="12" fill="#fff"/><path d="M20.06,16c-3.3,6.65-12.81,6.67-16.12,0-1.25-2.54-1.27-5.42,0-8,3.3-6.65,12.81-6.67,16.12,0,1.25,2.55,1.26,5.43,0,8Z" fill="#d38e2a"/><path d="M16.81 10h3.97c-.16-.7-.41-1.37-.72-2h-3.8c-.8-2-2.16-3.46-3.6-4.75-.38-.34-.95-.34-1.33 0C9.9 4.53 8.54 6 7.73 8H3.94c-.31.63-.56 1.3-.72 2h3.97a10.76 10.76 0 0 0 0 4H3.22c.16.7.41 1.37.72 2h3.8c.8 2 2.16 3.46 3.6 4.75.38.34.95.34 1.33 0 1.43-1.28 2.79-2.75 3.6-4.75h3.8c.31-.63.56-1.3.72-2h-3.97a10.76 10.76 0 0 0 0-4zM12 5.37c.84.82 1.54 1.67 2.05 2.63h-4.1c.51-.96 1.21-1.81 2.05-2.63zM9.21 10h5.59a9.63 9.63 0 0 1 0 4H9.21a9.63 9.63 0 0 1 0-4zM12 18.63c-.84-.82-1.54-1.67-2.05-2.63h4.1c-.51.96-1.21 1.81-2.05 2.63z" fill="#e4c290"/><g fill="#fff"><path d="M11 43H7c-.55 0-1-.45-1-1 0-.29.22-1 1-1h4c.55 0 1 .45 1 1 0 .29-.22 1-1 1z"/><path d="M8 37h2v5H8z"/></g><path d="M41.76 49.71c-.19.19.06.05-4.9 2.18l-1.96 4.58c-.36.84-1.58.79-1.87-.08l-3.54-10.61c-.24-.72.55-1.5 1.27-1.27l10.61 3.54c.7.23.92 1.13.39 1.66z" fill="#d38e2a"/><path d="M9 51h12v2H9zm0 4h8v2H9z" fill="#d9d9d9"/></svg>