<svg xmlns="http://www.w3.org/2000/svg" xmlns:xlink="http://www.w3.org/1999/xlink" viewBox="0 0 64 64" xmlns:v="https://vecta.io/nano"><path d="M31 34.83h2V40h-2z" fill="#1976d2"/><path d="M50 18c0 16.58-20.52 24.22-31.42 11.99C8.83 19.15 15.55 1.51 30.24.08 41.29-.87 50 7.68 50 18z" fill="#5e9fdf"/><path d="M48 18a16 16 0 0 1-16 16c-5.87 0-11.08-3.18-13.86-8C12 15.14 19.79 2 32 2c8.79 0 16 7.12 16 16z" fill="#fff"/><path d="M36,42h-8c-1.34,0-1.29-2,0-2h8c1.34,0,1.29,2,0,2Z" fill="#1976d2"/><path d="M32 64a4 4 0 0 1-4-4V42h8v18a4 4 0 0 1-4 4z" fill="#5e9fdf"/><path d="M48.13 26h-2.27c2.85-4.93 2.86-11.06 0-16h2.27c2.46 4.94 2.53 10.92 0 16zm-29.99 0h-2.27c-2.46-4.94-2.53-10.92 0-16h2.27c-2.85 4.93-2.86 11.06 0 16z" fill="#1976d2"/><path d="M45.86,26H18.14c-3-5.3-2.71-11.32,0-16h27.72c2.85,4.93,2.86,11.06,0,16Z" fill="#f3f3f3"/><path d="M57 24H7c-1.1 0-2-.9-2-2v-8c0-1.1.9-2 2-2h50c1.1 0 2 .9 2 2v8c0 1.1-.9 2-2 2z" fill="#5e9fdf"/><path d="M47 12h10c1.1 0 2 .9 2 2v8c0 1.1-.9 2-2 2H47V12h0z" fill="#d38e2a"/><path d="M56.71 20.29l-2.01-2.01c.97-2.02-.53-4.29-2.7-4.29a3.01 3.01 0 0 0-3 3c0 2.16 2.26 3.67 4.29 2.7 2.25 2.31 2.25 2.3 2.71 2.3.88 0 1.34-1.07.71-1.71zM52 18c-1.32 0-1.32-2 0-2s1.32 2 0 2z" fill="#fdfdfd"/><path d="M27.76 35.5c-5.65-1.36-10.26-5.44-12.34-10.49.8.02 1.58.12 2.34.28 1.77 3.55 5.11 6.58 9.33 7.94.29.73.52 1.49.67 2.27z" fill="#1976d2"/><g fill="#f3f3f3"><path d="M27.09 33.23c-3.8-1.22-6.99-3.83-8.95-7.23H20c3.23 1.35 5.8 3.97 7.09 7.23z"/><path d="M20 26h-1.86l-.38-.71c.77.17 1.52.41 2.24.71z"/></g><circle cx="15" cy="38" r="11" fill="#d38e2a"/><g fill="#fdfdfd"><path d="M15 30c-4.41 0-8 3.59-8 8s3.59 8 8 8 8-3.59 8-8-3.59-8-8-8zm5.91 7h-1.96a10.72 10.72 0 0 0-1.4-4.42c1.74.82 3.02 2.46 3.35 4.42zm-7.85 0c.19-1.7.86-3.3 1.94-4.64 1.08 1.34 1.75 2.94 1.94 4.64h-3.88zm3.88 2c-.19 1.7-.86 3.3-1.94 4.64-1.08-1.34-1.75-2.94-1.94-4.64h3.88zm-4.5-6.42a11.02 11.02 0 0 0-1.4 4.42H9.08c.33-1.96 1.61-3.6 3.35-4.42zM9.09 39h1.96a10.72 10.72 0 0 0 1.4 4.42C10.71 42.6 9.43 40.96 9.1 39zm8.47 4.42a11.02 11.02 0 0 0 1.4-4.42h1.96c-.33 1.96-1.61 3.6-3.35 4.42zM14 21c-.55 0-.69-.27-2-1.59-1.36 1.36-1.64 1.82-2.38 1.51C9.25 20.77 9 20.4 9 20v-4c0-1.32 2-1.32 2 0v1.59l.29-.29c.39-.39 1.02-.39 1.41 0l.29.29V16c0-1.32 2-1.32 2 0v4c0 .55-.45 1-1 1z"/><use xlink:href="#B"/><use xlink:href="#B" x="8"/><path d="M35 20c0-1.32-2-1.32-2 0s2 1.32 2 0zm4 0c0-1.32-2-1.32-2 0s2 1.32 2 0zm4 0c0-1.32-2-1.32-2 0s2 1.32 2 0z"/></g><defs ><path id="B" d="M22 21c-.55 0-.69-.27-2-1.59-1.36 1.36-1.64 1.82-2.38 1.51-.37-.15-.62-.52-.62-.92v-4c0-1.32 2-1.32 2 0v1.59l.29-.29c.39-.39 1.02-.39 1.41 0l.29.29V16c0-1.32 2-1.32 2 0v4c0 .55-.45 1-1 1z"/></defs></svg>