<?xml version="1.0" encoding="UTF-8"?><svg id="a" xmlns="http://www.w3.org/2000/svg" viewBox="0 0 64 50"><defs><style>.b{fill:#5e9fdf;}.c{fill:#c8c8c8;}.d{fill:#fdfdfd;}.e{fill:#d38e2a;}.f{fill:#f3f3f3;}.g{fill:#d9d9d9;}.h{fill:#1976d2;}</style></defs><g><path class="b" d="M6,0H58c1.1,0,2,.9,2,2V6H4V2c0-1.1,.9-2,2-2Z"/><path class="b" d="M17,0h19c2.21,0,4,1.79,4,4v2H17V0h0Z"/></g><path class="f" d="M60,6V48c0,1.1-.9,2-2,2H6c-1.1,0-2-.9-2-2V2c0-1.1,.9-2,2-2h12c2.21,0,4,1.79,4,4v2H60Z"/><path class="h" d="M57,3c0-1.32-2-1.32-2,0s2,1.32,2,0Zm-4,0c0-1.32-2-1.32-2,0s2,1.32,2,0Z"/><path class="f" d="M49,3c0-1.32-2-1.32-2,0s2,1.32,2,0Z"/><path class="h" d="M37,3c0-1.32-2-1.32-2,0s2,1.32,2,0Z"/><path class="e" d="M19,3c0-1.32-2-1.32-2,0s2,1.32,2,0Z"/><path class="g" d="M2,17H48v14H2c-1.1,0-2-.9-2-2v-10c0-1.1,.9-2,2-2Z"/><path class="c" d="M48,17h14c1.1,0,2,.9,2,2v10c0,1.1-.9,2-2,2h-14v-14h0Z"/><g><g><path class="f" d="M55,27c-2.21,0-4-1.79-4-4s1.79-4,4-4,4,1.79,4,4-1.79,4-4,4Zm0-6c-1.1,0-2,.9-2,2s.9,2,2,2,2-.9,2-2-.9-2-2-2Z"/><path class="f" d="M59.88,29.12c-.26,0-.51-.1-.71-.29l-2.88-2.89c-.39-.39-.39-1.02,0-1.41,.39-.39,1.02-.39,1.41,0l2.88,2.89c.39,.39,.39,1.02,0,1.41-.2,.19-.45,.29-.71,.29Z"/></g><path class="d" d="M29,27c-.26,0-.52-.1-.71-.29l-1.29-1.29-1.29,1.29c-.25,.25-.63,.35-.97,.26-.35-.1-.62-.37-.7-.72l-1-4c-.13-.54,.19-1.08,.73-1.21,.53-.13,1.08,.19,1.21,.73l.57,2.29,.75-.75c.39-.39,1.02-.39,1.41,0l.75,.75,.57-2.29c.13-.54,.68-.86,1.21-.73,.54,.13,.86,.68,.73,1.21l-1,4c-.09,.35-.36,.62-.7,.72-.09,.02-.18,.04-.27,.04Zm-10,0c-.26,0-.52-.1-.71-.29l-1.29-1.29-1.29,1.29c-.25,.25-.63,.35-.97,.26-.35-.1-.62-.37-.7-.72l-1-4c-.13-.54,.19-1.08,.73-1.21,.53-.13,1.08,.19,1.21,.73l.57,2.29,.75-.75c.39-.39,1.02-.39,1.41,0l.75,.75,.57-2.29c.13-.54,.68-.86,1.21-.73,.54,.13,.86,.68,.73,1.21l-1,4c-.09,.35-.36,.62-.7,.72-.09,.02-.18,.04-.27,.04Zm-10,0c-.26,0-.52-.1-.71-.29l-1.29-1.29-1.29,1.29c-.25,.25-.63,.35-.97,.26-.35-.1-.62-.37-.7-.72l-1-4c-.13-.54,.19-1.08,.73-1.21,.53-.13,1.08,.19,1.21,.73l.57,2.29,.75-.75c.39-.39,1.02-.39,1.41,0l.75,.75,.57-2.29c.13-.54,.68-.86,1.21-.73,.54,.13,.86,.68,.73,1.21l-1,4c-.09,.35-.36,.62-.7,.72-.09,.02-.18,.04-.27,.04Z"/></g><path class="d" d="M34,26c0-1.32-2-1.32-2,0s2,1.32,2,0Zm4,0c0-1.32-2-1.32-2,0s2,1.32,2,0Zm4,0c0-1.32-2-1.32-2,0s2,1.32,2,0Zm4,0c0-1.32-2-1.32-2,0s2,1.32,2,0Z"/><path class="e" d="M49,43l-3,3-3-3-2,3-3-11,11,3-3,2,3,3Z"/></svg>