<svg xmlns="http://www.w3.org/2000/svg" viewBox="0 0 64 64" xmlns:v="https://vecta.io/nano"><g fill="#5e9fdf"><rect y="12" width="60" height="42" rx="4"/><path d="M60 16v34c0 1.15-.49 2.19-1.27 2.92-.72.67-1.68 1.08-2.73 1.08H4c-1.05 0-2.01-.41-2.73-1.08C.49 52.19 0 51.15 0 50V16c0-1.1.45-2.1 1.17-2.83C1.9 12.45 2.9 12 4 12h52c1.1 0 2.1.45 2.83 1.17C59.55 13.9 60 14.9 60 16z"/><path d="M58.73 52.92C58.01 53.59 57.05 54 56 54H4c-1.05 0-2.01-.41-2.73-1.08l21.41-18.24L27 31h6l4.32 3.68 7.83 6.67 13.58 11.57z"/></g><path d="M45.15 41.35c-.1.53-.15 1.09-.15 1.65v1.2c-1.63.51-2.82 2.01-2.82 3.8v6H56c1.05 0 2.01-.41 2.73-1.08L45.15 41.35z" fill="#1976d2"/><path d="M54,34c-4.4,0-8.07,3.17-8.85,7.35l13.58,11.57c.78-.73,1.27-1.77,1.27-2.92v-13.7c-1.6-1.43-3.7-2.3-6-2.3Zm3,10h-6v-1c0-1.65,1.35-3,3-3s3,1.35,3,3v1Z" fill="#5e9fdf"/><path d="M60,48c-.55,0-1-.45-1-1v-4c0-2.76-2.24-5-5-5s-5,2.24-5,5v4c0,.55-.45,1-1,1s-1-.45-1-1v-4c0-3.86,3.14-7,7-7s7,3.14,7,7v4c0,.55-.45,1-1,1Z" fill="#d38e2a"/><rect x="44" y="46" width="20" height="18" rx="2" fill="#1976d2"/><path d="M57 54c0-1.84-1.66-3.3-3.56-2.95-1.18.21-2.15 1.17-2.38 2.35-.3 1.56.6 2.94 1.94 3.42V59c0 .55.45 1 1 1h0c.55 0 1-.45 1-1v-2.18A2.99 2.99 0 0 0 57 54z" fill="#5e9fdf"/><g fill="#1976d2"><path d="M58.83 13.17l-22 22C35.02 36.98 32.56 38 30 38h0c-2.56 0-5.02-1.02-6.83-2.83l-22-22C1.9 12.45 2.9 12 4 12h52c1.1 0 2.1.45 2.83 1.17z"/><path d="M43,12c0,7.17-5.83,13-13,13s-13-5.83-13-13h26Z"/></g><path d="M41 12c0 6.08-4.92 11-11 11s-11-4.92-11-11S23.92 1 30 1c.8 0 1.57.08 2.32.24a11.02 11.02 0 0 1 7.54 5.87A10.96 10.96 0 0 1 41 12z" fill="#f3f3f3"/><g fill="#d38e2a"><path d="M30 17c-.55 0-1-.45-1-1V9.41l-.29.29c-.39.39-1.02.39-1.41 0s-.39-1.02 0-1.41l2-2c.29-.29.72-.37 1.09-.22s.62.52.62.92V16c0 .55-.45 1-1 1z"/><path d="M32,18h-4c-.55,0-1-.45-1-1s.45-1,1-1h4c.55,0,1,.45,1,1s-.45,1-1,1Z"/></g><g fill="#f3f3f3"><circle cx="60" cy="51" r="1"/><circle cx="60" cy="55" r="1"/></g><path d="M39.86 7.11c-.81.56-1.8.89-2.86.89-2.76 0-5-2.24-5-5 0-.62.11-1.21.32-1.76a11.02 11.02 0 0 1 7.54 5.87z" fill="#d9d9d9"/><circle cx="37" cy="3" r="3" fill="#5e9fdf"/></svg>