<svg xmlns="http://www.w3.org/2000/svg" viewBox="0 0 64 64" xmlns:v="https://vecta.io/nano"><path d="M62,19V58H2V19c0-1.66,1.34-3,3-3H59c1.66,0,3,1.34,3,3Z" fill="#5e9fdf"/><path d="M1 58h62c.55 0 1 .45 1 1v2c0 1.66-1.34 3-3 3H3c-1.66 0-3-1.34-3-3v-2c0-.55.45-1 1-1z" fill="#1976d2"/><path d="M60 19v37H4V19c0-.55.45-1 1-1h54c.55 0 1 .45 1 1z" fill="#fff"/><path d="M39 60H25c-1.1 0-2-.9-2-2 0-.1-.84 0 18 0 0 .81-.63 2-2 2z" fill="#f3f3f3"/><path d="M9 16h46v2H9z" fill="#1976d2"/><path d="M55 18v20a4 4 0 0 1-4 4H13a4 4 0 0 1-4-4V18h46z" fill="#f3f3f3"/><g fill="#5e9fdf"><rect x="11" y="12" width="42" height="28" rx="2"/><path d="M53 14L32 27 11 14c0-1.1.9-2 2-2h38c1.1 0 2 .9 2 2z"/><path d="M37.5 17.32c-.8.91-.88.68-9.5.68-1.2 0-2.15-1.07-1.98-2.25l.46-3.75h11.04c.47 3.84.76 4.44-.02 5.32z"/></g><path d="M25 8l7-8 7 8h-4l1 8h-8l1-8h-4z" fill="#d38e2a"/><path d="M44,40H20c0-6.62,5.38-12,12-12s12,5.38,12,12Z" fill="#1976d2"/><circle cx="32" cy="40" r="10" fill="#d38e2a"/><path d="M33.2 32.09c-5.86-.86-10.58 4.6-8.82 10.4 1.24 4.07 5.44 6.05 8.81 5.41 1.29-.24.94-2.21-.37-1.96-2.53.48-5.63-1.08-6.52-4.03-1.37-4.51 2.3-8.46 6.62-7.84 3.11.45 5.44 3.38 5.05 6.67-.21 1.77-2.96 1.65-2.96-.22V38c0-3.6-7-2.12-7 3a3.01 3.01 0 0 0 3 3c1.13 0 2.15.12 3.15-.92 2.1 1.91 5.46.65 5.79-2.11.53-4.37-2.58-8.28-6.75-8.89zM33 41c0 .55-.45 1-1 1h-1c-1.89 0-.99-4 2-4v3z" fill="#f3f3f3"/></svg>