<svg xmlns="http://www.w3.org/2000/svg" viewBox="0 0 64 64" xmlns:v="https://vecta.io/nano"><g fill="#1976d2"><path d="M29 8h6v18h-6z"/><path d="M38 8H26l6-8 6 8zm-27 8h6v20h-6z"/><path d="M20 16H8l6-8 6 8zm27-4h6v20h-6z"/><path d="M56 12H44l6-8 6 8z"/></g><path d="M64 41a12 12 0 0 1-12 12H13C5.82 53 0 47.18 0 40c0-8.95 8.84-15.17 17.17-12.31C18.29 20.5 24.51 15 32 15c5.76 0 10.77 3.26 13.28 8.03 4.14-.34 7.61 2.39 8.5 6.1C59.56 29.99 64 34.97 64 41z" fill="#5e9fdf"/><path d="M41,53H19c0-6.08,4.92-11,11-11s11,4.92,11,11Z" fill="#1976d2"/><circle cx="32" cy="53" r="11" fill="#d38e2a"/><path d="M32.62 45.04C28.47 44.51 24 48.07 24 53c0 3.76 2.64 7.48 7.5 7.97.1 0 .54.07 1.07 0C36.74 60.7 40 57.2 40 53s-3.27-7.69-7.38-7.96zM37.91 52h-1.95c-.13-1.51-.55-2.98-1.22-4.33 1.65.85 2.86 2.45 3.17 4.33zM32 58.97c-1.09-1.45-1.76-3.17-1.94-4.97h3.89a9.97 9.97 0 0 1-1.94 4.97zM30.06 52A9.97 9.97 0 0 1 32 47.03c1.09 1.45 1.76 3.17 1.94 4.97h-3.89zm-.8-4.32A11.82 11.82 0 0 0 28.05 52H26.1c.32-1.87 1.51-3.46 3.17-4.32zM26.09 54h1.95c.13 1.51.55 2.98 1.22 4.33-1.65-.85-2.86-2.45-3.17-4.33zm8.66 4.32A11.82 11.82 0 0 0 35.96 54h1.95c-.32 1.87-1.51 3.46-3.17 4.32z" fill="#fdfdfd"/><path d="M23 39h-2c-1.32 0-1.32-2 0-2h2c1.32 0 1.32-2 0-2a3.01 3.01 0 0 1-3-3 3.01 3.01 0 0 1 3-3h2c1.32 0 1.32 2 0 2h-2c-1.32 0-1.32 2 0 2a3.01 3.01 0 0 1 3 3 3.01 3.01 0 0 1-3 3zm11-2h-3v-2h2c1.32 0 1.32-2 0-2h-2v-2h3c1.32 0 1.32-2 0-2h-3c-1.1 0-2 .9-2 2v6c0 1.1.9 2 2 2h3c1.32 0 1.32-2 0-2zm7 2a3.01 3.01 0 0 1-3-3v-4a3.01 3.01 0 0 1 3-3 3.01 3.01 0 0 1 3 3v4a3.01 3.01 0 0 1-3 3zm-1-7v4c0 1.32 2 1.32 2 0v-4c0-1.32-2-1.32-2 0z" fill="#fff"/></svg>