<svg xmlns="http://www.w3.org/2000/svg" viewBox="0 0 64 64" xmlns:v="https://vecta.io/nano"><path d="M15 0h42v50H15z" fill="#5e9fdf"/><path d="M15 0v55H7V5c0-2.76 2.24-5 5-5h3z" fill="#1976d2"/><path d="M57 60H12a5.02 5.02 0 0 1-3.54-1.46C5.35 55.39 7.53 50 12 50h45c-3.25 0-5.55 3.04-4.9 6a5 5 0 0 0 4.9 4z" fill="#d9d9d9"/><rect x="18" y="7" width="36" height="20" rx="2" fill="#5e9fdf"/><path d="M52.1 56H13c-1.32 0-1.32-2 0-2h39.1a4.99 4.99 0 0 0 0 2z" fill="#c8c8c8"/><path d="M15 55h6v9l-3-3-3 3v-9z" fill="#d38e2a"/><path d="M25 12h3c1.32 0 1.32-2 0-2h-3a4 4 0 1 0 0 8c1.1 0 2 .9 2 2s-.9 2-2 2h-3c-1.32 0-1.32 2 0 2h3a4 4 0 1 0 0-8c-1.1 0-2-.9-2-2s.9-2 2-2zm10 0h4c1.32 0 1.32-2 0-2h-4a3.01 3.01 0 0 0-3 3v8a3.01 3.01 0 0 0 3 3h4c1.32 0 1.32-2 0-2h-4c-.55 0-1-.45-1-1v-3h4c1.32 0 1.32-2 0-2h-4v-3c0-.55.45-1 1-1zm12-2a4 4 0 0 0-4 4v6a4 4 0 1 0 8 0v-6a4 4 0 0 0-4-4zm2 10c0 1.1-.9 2-2 2s-2-.9-2-2v-6c0-1.1.9-2 2-2s2 .9 2 2v6z" fill="#f3f3f3"/></svg>