<svg xmlns="http://www.w3.org/2000/svg" viewBox="0 0 64 64" xmlns:v="https://vecta.io/nano"><g fill="#5e9fdf"><path d="M6 0h52c1.1 0 2 .9 2 2v4H4V2c0-1.1.9-2 2-2z"/><path d="M17 0h19a4 4 0 0 1 4 4v2H17V0h0z"/></g><path d="M60 6v42c0 1.1-.9 2-2 2H6c-1.1 0-2-.9-2-2V2c0-1.1.9-2 2-2h12a4 4 0 0 1 4 4v2h38z" fill="#f3f3f3"/><path d="M57 3c0-1.32-2-1.32-2 0s2 1.32 2 0zm-4 0c0-1.32-2-1.32-2 0s2 1.32 2 0z" fill="#1976d2"/><path d="M49,3c0-1.32-2-1.32-2,0s2,1.32,2,0Z" fill="#f3f3f3"/><path d="M37,3c0-1.32-2-1.32-2,0s2,1.32,2,0Z" fill="#1976d2"/><path d="M44.96 50H15.04C14.3 41.9 20.98 34 30 34s15.69 7.91 14.96 16z" fill="#d9d9d9"/><path d="M19,3c0-1.32-2-1.32-2,0s2,1.32,2,0Z" fill="#d38e2a"/><path d="M7 34h31v2H7zm0 4h31v2H7zm0 4h31v2H7zm0 4h31v2H7zm34-16h16v18H41z" fill="#d9d9d9"/><g fill="#1976d2"><circle cx="32" cy="49" r="15"/><path d="M38.57 42H25.43c1.35-3.21 3.62-5.96 6.57-7.94 2.95 1.98 5.21 4.72 6.57 7.94zm6.68 0h-4.54a19.74 19.74 0 0 0-4.98-7.51c4.14 1.06 7.58 3.82 9.52 7.51zm-6.68 14c-1.35 3.21-3.62 5.96-6.57 7.94-2.95-1.98-5.21-4.72-6.57-7.94h13.14zm6.68 0a14.99 14.99 0 0 1-9.52 7.51A19.74 19.74 0 0 0 40.71 56h4.54zm-16.98 7.51A14.99 14.99 0 0 1 18.75 56h4.54a19.74 19.74 0 0 0 4.98 7.51zm0-29.02A19.74 19.74 0 0 0 23.29 42h-4.54c1.94-3.69 5.38-6.45 9.52-7.51z"/></g><path d="M22 54h-2c-1.32 0-1.32-2 0-2h2c1.32 0 1.32-2 0-2a3.01 3.01 0 0 1-3-3 3.01 3.01 0 0 1 3-3h2c1.32 0 1.32 2 0 2h-2c-1.32 0-1.32 2 0 2a3.01 3.01 0 0 1 3 3 3.01 3.01 0 0 1-3 3zm12-2h-3v-2h2c1.32 0 1.32-2 0-2h-2v-2h3c1.32 0 1.32-2 0-2h-3c-1.1 0-2 .9-2 2v6c0 1.1.9 2 2 2h3c1.32 0 1.32-2 0-2zm8 2a3.01 3.01 0 0 1-3-3v-4a3.01 3.01 0 0 1 3-3 3.01 3.01 0 0 1 3 3v4a3.01 3.01 0 0 1-3 3zm-1-7v4c0 1.32 2 1.32 2 0v-4c0-1.32-2-1.32-2 0z" fill="#f3f3f3"/><path d="M7 9h16v18H7zm19 0h31v2H26zm0 4h31v2H26zm0 4h31v2H26zm0 4h31v2H26zm0 4h31v2H26zM7 30h31v2H7z" fill="#d9d9d9"/></svg>