<svg xmlns="http://www.w3.org/2000/svg" viewBox="0 0 64 64" xmlns:v="https://vecta.io/nano"><g fill="#5e9fdf"><rect width="52" height="18" rx="2"/><path d="M52 23l-.08 14.57A2.01 2.01 0 0 1 50 39H2c-1.1 0-2-.9-2-2V23c0-1.1.9-2 2-2h48c1.1 0 2 .9 2 2z"/><rect y="42" width="52" height="18" rx="2"/><path d="M3 18h46v3H3zm0 21h46v3H3z"/></g><path d="M50 42H26.81c-.66 1.12-.81 2.12-.81 3.2-5.33 2.7-7.6 9.28-4.8 14.8H50c1.1 0 2-.9 2-2V44c0-1.1-.9-2-2-2z" fill="#1976d2"/><path d="M49 39v3H26.81c1.24-2.15 3.64-3.25 5.9-2.96.1-.1-.93-.04 16.29-.04z" fill="#5e9fdf"/><path d="M32.74,39h17.26c.9,0,1.67-.6,1.92-1.43-5.61-5.32-14.57-4.56-19.18,1.43Z" fill="#1976d2"/><path d="M64 55c0 4.97-4.03 9-9 9H31c-4.97 0-9-4.03-9-9 0-4.02 2.64-7.42 6.27-8.57-1.3-3.17 2.02-6.53 5.3-5.1C35.49 38.14 38.99 36 43 36c5.76 0 10.49 4.42 10.96 10.06C59.27 45.43 64 49.59 64 55z" fill="#f3f3f3"/><g fill="#d38e2a"><circle cx="8" cy="9" r="2"/><circle cx="16" cy="9" r="2"/><circle cx="8" cy="30" r="2"/><circle cx="16" cy="30" r="2"/><circle cx="8" cy="51" r="2"/><circle cx="16" cy="51" r="2"/></g><path d="M44 11H32c-1.1 0-2-.9-2-2 0-.81.63-2 2-2h12c1.1 0 2 .9 2 2 0 .81-.63 2-2 2zm0 21H32c-1.1 0-2-.9-2-2 0-.81.63-2 2-2h12c1.1 0 2 .9 2 2 0 .81-.63 2-2 2z" fill="#f3f3f3"/></svg>