<svg xmlns="http://www.w3.org/2000/svg" xmlns:xlink="http://www.w3.org/1999/xlink" viewBox="0 0 64 64" xmlns:v="https://vecta.io/nano"><g fill="#5e9fdf"><rect x="19" y="15" width="26" height="10" rx="2"/><rect x="19" y="27" width="26" height="10" rx="2"/><rect x="19" y="39" width="26" height="10" rx="2"/></g><path d="M21 25h22v2H21zm0 12h22v2H21z" fill="#1976d2"/><rect x="44" width="20" height="14" rx="2" fill="#5e9fdf"/><path d="M57 18h-6l1-4h4l1 4z" fill="#1976d2"/><use xlink:href="#B" fill="#5e9fdf"/><path d="M44 62h20v1c0 .55-.45 1-1 1H45c-.55 0-1-.45-1-1v-1h0z" fill="#1976d2"/><g fill="#5e9fdf"><path d="M47 50h14c1.1 0 2 .9 2 2v10H45V52c0-1.1.9-2 2-2z"/><rect x="2" y="44" width="14" height="20" rx="3"/></g><path d="M46 2h16v10H46zm1 50h14v10H47zm-33-5v14c0 .55-.45 1-1 1H5c-.55 0-1-.45-1-1V47c0-.55.45-1 1-1 .65 0 .95-.05 1.29.29.46.46.64.71 1.12.71 3.4 0 3.49.1 3.88-.29.46-.46.64-.71 1.12-.71H13c.55 0 1 .45 1 1z" fill="#f3f3f3"/><path d="M21 10c0 2.76-2.24 5-5 5H5C.14 15-1.87 8.72 2.14 5.89c-.78-2.42 1.71-4.73 4.15-3.6 3.23-4.13 9.86-2.36 10.63 2.8C19.24 5.52 21 7.55 21 10z" fill="#5e9fdf"/><g fill="#d38e2a"><circle cx="24" cy="20" r="1"/><circle cx="28" cy="20" r="1"/><circle cx="24" cy="32" r="1"/><circle cx="28" cy="32" r="1"/><circle cx="24" cy="44" r="1"/><circle cx="28" cy="44" r="1"/><path d="M36 5h-8c-.55 0-1 .45-1 1s.45 1 1 1h3v5c0 .55.45 1 1 1s1-.45 1-1V7h3c.55 0 1-.45 1-1s-.45-1-1-1zM16 31h-5v-3c0-.55-.45-1-1-1s-1 .45-1 1v8c0 .55.45 1 1 1s1-.45 1-1v-3h5c.55 0 1-.45 1-1s-.45-1-1-1zm38-4c-.55 0-1 .45-1 1v3h-5c-.55 0-1 .45-1 1s.45 1 1 1h5v3c0 .55.45 1 1 1s1-.45 1-1v-8c0-.55-.45-1-1-1zM36 57h-3v-5c0-.55-.45-1-1-1s-1 .45-1 1v5h-3c-.55 0-1 .45-1 1s.45 1 1 1h8c.55 0 1-.45 1-1s-.45-1-1-1z"/></g><g fill="#f3f3f3"><use xlink:href="#B" x="-17" y="3"/><use xlink:href="#B" x="-17" y="15"/><use xlink:href="#B" x="-17" y="27"/></g><defs ><path id="B" d="M57 18h-6c-.55 0-1-.45-1-1 0-.29.22-1 1-1h6c.55 0 1 .45 1 1 0 .29-.22 1-1 1z"/></defs></svg>