<svg xmlns="http://www.w3.org/2000/svg" viewBox="0 0 64 64" xmlns:v="https://vecta.io/nano"><g fill="#1976d2"><rect x="7" y="2" width="50" height="12" rx="2"/><rect x="7" y="34" width="50" height="12" rx="2"/><rect x="7" y="18" width="50" height="12" rx="2"/></g><path d="M30,46h4v3c0,.55-.45,1-1,1h-2c-.55,0-1-.45-1-1v-3h0Z" fill="#5e9fdf"/><g fill="#d38e2a"><path d="M31 50h2v9h-2z"/><path d="M3 58h58v2H3z"/></g><g fill="#5e9fdf"><path d="M9 14h46v4H9zm0 16h46v4H9z"/><rect x="10" y="6" width="26" height="4" rx="1"/></g><path d="M54,10V6c0-1.34-2-1.29-2,0v4c0,1.34,2,1.29,2,0Z" fill="#f3f3f3"/><g fill="#5e9fdf"><path d="M50 10V6c0-1.34-2-1.29-2 0v4c0 1.34 2 1.29 2 0zm-4 0V6c0-1.34-2-1.29-2 0v4c0 1.34 2 1.29 2 0z"/><rect x="10" y="22" width="26" height="4" rx="1"/></g><path d="M54,26v-4c0-1.34-2-1.29-2,0v4c0,1.34,2,1.29,2,0Z" fill="#f3f3f3"/><g fill="#5e9fdf"><path d="M50 26v-4c0-1.34-2-1.29-2 0v4c0 1.34 2 1.29 2 0zm-4 0v-4c0-1.34-2-1.29-2 0v4c0 1.34 2 1.29 2 0z"/><rect x="10" y="38" width="26" height="4" rx="1"/></g><path d="M54,42v-4c0-1.34-2-1.29-2,0v4c0,1.34,2,1.29,2,0Z" fill="#f3f3f3"/><path d="M50 42v-4c0-1.34-2-1.29-2 0v4c0 1.34 2 1.29 2 0zm-4 0v-4c0-1.34-2-1.29-2 0v4c0 1.34 2 1.29 2 0z" fill="#5e9fdf"/><g fill="#1976d2"><circle cx="3" cy="59" r="3"/><circle cx="61" cy="59" r="3"/><circle cx="32" cy="59" r="3"/></g></svg>