<svg xmlns="http://www.w3.org/2000/svg" viewBox="0 0 64 64" xmlns:v="https://vecta.io/nano"><path d="M27.94 15.78a11.98 11.98 0 0 1-3.99 10.21 13.64 13.64 0 0 0-3.91 5.89c-.05.17.82.11-8.04.11-.73-2.2-2.03-4.25-4.1-6.14C5.5 23.66 4 20.5 4 16.99A12 12 0 0 1 17.38 5.07c5.54.62 10.01 5.15 10.56 10.7z" fill="#d9d9d9"/><path d="M15.04 35.29l-4-13c-.2-.64.28-1.29.96-1.29h8c.67 0 1.15.65.96 1.29l-4 13c-.29.94-1.62.94-1.91 0zM13.35 23L16 31.6l2.65-8.6h-5.29zM56 14v20H36V10c0-1.1.9-2 2-2h12l6 6z" fill="#f3f3f3"/><path d="M48 28.07v-2.15a1.93 1.93 0 0 0-1.93-1.93c-.68 0-1.5-.4-1.82-1.31a13.83 13.83 0 0 0-.54-1.31c-.36-.74-.22-1.63.36-2.21.51-.51.97-1.76 0-2.73l-1.52-1.52c-.75-.75-1.97-.75-2.73 0-.48.48-1.34.78-2.21.36-.42-.2-.86-.39-1.31-.54-.78-.27-1.31-.99-1.31-1.82 0-.73-.57-1.93-1.93-1.93h-2.15a1.93 1.93 0 0 0-1.93 1.93c0 .68-.4 1.5-1.31 1.82l-1.31.54c-.74.36-1.63.22-2.21-.36-.51-.51-1.76-.97-2.73 0l-1.52 1.52c-.75.75-.75 1.97 0 2.73.48.48.78 1.34.36 2.21-.2.42-.39.86-.54 1.31-.27.78-.99 1.31-1.82 1.31-.73 0-1.93.57-1.93 1.93v2.15A1.93 1.93 0 0 0 17.9 30c.68 0 1.5.4 1.82 1.31l.54 1.31c.36.74.22 1.63-.36 2.21-.51.51-.97 1.76 0 2.73l1.52 1.52c.75.75 1.97.75 2.73 0 .48-.48 1.34-.78 2.21-.36.42.2.86.39 1.31.54.78.27 1.31.99 1.31 1.82 0 .73.57 1.93 1.93 1.93h2.15a1.93 1.93 0 0 0 1.93-1.93c0-.68.4-1.5 1.31-1.82l1.31-.54c.74-.36 1.63-.22 2.21.36.51.51 1.76.96 2.73 0l1.52-1.52c.75-.75.75-1.97 0-2.73-.48-.48-.78-1.34-.36-2.21.2-.42.39-.86.54-1.31.27-.78.99-1.31 1.82-1.31.73 0 1.93-.57 1.93-1.93z" fill="#d38e2a"/><circle cx="32" cy="27" r="7" fill="#f3f3f3"/><g fill="#5e9fdf"><path d="M6,30h26v34H8c-1.1,0-2-.9-2-2V30h0Z"/><path d="M32 30h26v32c0 1.1-.9 2-2 2H32V30h0z"/><path d="M6 30l-4.59 5.35A1 1 0 0 0 2.17 37h21.17c1.06 0 2.08-.42 2.83-1.17L32 30H6z"/></g><path d="M58 30l4.59 5.35a1 1 0 0 1-.76 1.65H40.66c-1.06 0-2.08-.42-2.83-1.17L32 30h26z" fill="#1976d2"/><g fill="#f3f3f3"><rect x="9" y="57" width="8" height="4" rx="1"/><circle cx="37" cy="59" r="2"/><circle cx="44" cy="59" r="2"/></g><path d="M56 14h-4c-1.1 0-2-.9-2-2V8l6 6z" fill="#d9d9d9"/><path d="M59 28c-.88 0-1.34-1.07-.71-1.71l4-4c.39-.39 1.02-.39 1.41 0s.39 1.02 0 1.41l-4 4a.98.98 0 0 1-.71.29zm0-6c-.88 0-1.34-1.07-.71-1.71l2-2c.39-.39 1.02-.39 1.41 0s.39 1.02 0 1.41c-2.18 2.18-2.17 2.29-2.71 2.29zM5 28c-.26 0-.51-.1-.71-.29l-4-4c-.39-.39-.39-1.02 0-1.41s1.02-.39 1.41 0l4 4a1.01 1.01 0 0 1-.71 1.71z" fill="#d38e2a"/><g fill="#5e9fdf"><circle cx="59" cy="10" r="1"/><circle cx="2" cy="12" r="1"/><circle cx="13" cy="1" r="1"/><circle cx="32" cy="4" r="1"/><circle cx="46" cy="4" r="1"/></g></svg>