<svg xmlns="http://www.w3.org/2000/svg" viewBox="0 0 64 64" xmlns:v="https://vecta.io/nano"><rect y="9" width="30" height="46" rx="6" fill="#5e9fdf"/><path d="M28 15v33a4 4 0 0 1-4 4H6a4 4 0 0 1-4-4V15a4 4 0 0 1 4-4h1.28c.43 0 .81.28.95.68l.31.95a2.01 2.01 0 0 0 1.9 1.37h9.12a2.01 2.01 0 0 0 1.9-1.37l.31-.95c.14-.4.52-.68.95-.68H24a4 4 0 0 1 4 4z" fill="#f3f3f3"/><rect x="34" y="9" width="30" height="46" rx="6" fill="#5e9fdf"/><path d="M62 15v33a4 4 0 0 1-4 4H40a4 4 0 0 1-4-4V15a4 4 0 0 1 4-4h1.28c.43 0 .81.28.95.68l.31.95a2.01 2.01 0 0 0 1.9 1.37h9.12a2.01 2.01 0 0 0 1.9-1.37l.31-.95c.14-.4.52-.68.95-.68H58a4 4 0 0 1 4 4z" fill="#f3f3f3"/><path d="M28 19h2v26h-2z" fill="#1976d2"/><path d="M28 19v26h-3a4 4 0 0 1-4-4V23a4 4 0 0 1 4-4h3z" fill="#d9d9d9"/><path d="M34 19h2v26h-2z" fill="#1976d2"/><path d="M43 25.17V41a4 4 0 0 1-4 4h-3V19h.83L43 25.17z" fill="#d9d9d9"/><path d="M41 26v15c0 1.1-.9 2-2 2H25c-1.1 0-2-.9-2-2V23c0-1.1.9-2 2-2h11l5 5z" fill="#d38e2a"/><path d="M41,26h-3c-1.1,0-2-.9-2-2v-3l5,5Z" fill="#e4c290"/><path d="M37 31H27c-.55 0-1-.45-1-1 0-.29.22-1 1-1h10c.55 0 1 .45 1 1 0 .29-.22 1-1 1zm0 4H27c-.55 0-1-.45-1-1 0-.29.22-1 1-1h10c.55 0 1 .45 1 1 0 .29-.22 1-1 1zm-2 4h-8c-.55 0-1-.45-1-1 0-.29.22-1 1-1h8c.55 0 1 .45 1 1 0 .29-.22 1-1 1z" fill="#f3f3f3"/><g fill="#d38e2a"><path d="M19,33h-4c-.55,0-1-.45-1-1s.45-1,1-1h4c.55,0,1,.45,1,1s-.45,1-1,1Z"/><path d="M16 35c-.54 0-.57-.15-2.71-2.29-.39-.39-.39-1.02 0-1.41l2-2c.39-.39 1.02-.39 1.41 0s.39 1.02 0 1.41L15.41 32l1.29 1.29a1.01 1.01 0 0 1-.71 1.71zm33-2h-4c-.55 0-1-.45-1-1s.45-1 1-1h4c.55 0 1 .45 1 1s-.45 1-1 1z"/><path d="M48 35c-.88 0-1.34-1.07-.71-1.71L48.58 32l-1.29-1.29c-.39-.39-.39-1.02 0-1.41s1.02-.39 1.41 0l2 2c.39.39.39 1.02 0 1.41-2.18 2.18-2.17 2.29-2.71 2.29z"/></g><path d="M23 49H7c-.55 0-1-.45-1-1 0-.29.22-1 1-1h16c.55 0 1 .45 1 1 0 .29-.22 1-1 1zm34 0H41c-.55 0-1-.45-1-1 0-.29.22-1 1-1h16c.55 0 1 .45 1 1 0 .29-.22 1-1 1zM6 39h10v2H6zm0-4h6v2H6zm0-12h10v2H6zm0 4h6v2H6zm52 14H48v-2h10zm0-4h-6v-2h6zm0-12H48v-2h10zm0 4h-6v-2h6z" fill="#d9d9d9"/></svg>