<svg xmlns="http://www.w3.org/2000/svg" viewBox="0 0 64 64" xmlns:v="https://vecta.io/nano"><path d="M52 53c-.41 0 1.92 1.25-35.5-20.13-.67-.38-.67-1.35 0-1.74l35-20a.99.99 0 0 1 1.36.37c.27.48.11 1.09-.37 1.36L19.02 32 52.5 51.13c.89.51.53 1.87-.5 1.87z" fill="#d9d9d9"/><circle cx="17" cy="32" r="17" fill="#5e9fdf"/><g fill="#d38e2a"><circle cx="52" cy="12" r="12"/><circle cx="52" cy="52" r="12"/></g><path d="M25.45 27h7.81c-.22-.69-.47-1.35-.77-2h-7.58c-1.19-3.76-3.34-7.18-6.3-9.92a15.75 15.75 0 0 0-3.22 0c-2.96 2.74-5.11 6.16-6.3 9.92H1.51c-.3.65-.55 1.31-.77 2h7.81c-.71 3.19-.76 6.6 0 10H.74c.22.69.47 1.35.77 2h7.58c1.19 3.76 3.34 7.18 6.3 9.92 1.11.1 2.07.11 3.22 0 2.96-2.74 5.11-6.16 6.3-9.92h7.58c.3-.65.55-1.31.77-2h-7.81c.71-3.19.76-6.6 0-10zM17 16.32c2.67 2.39 4.64 5.38 5.8 8.68H11.2c1.16-3.3 3.13-6.29 5.8-8.68zm0 31.36c-2.67-2.39-4.64-5.38-5.8-8.68h11.6c-1.16 3.3-3.13 6.29-5.8 8.68zM23.39 37H10.61a20.88 20.88 0 0 1 0-10h12.78a20.88 20.88 0 0 1 0 10zm36.32-20.36c-3.48 5.79-11.91 5.83-15.42 0 1.33-1.61 3.15-2.79 5.22-3.33C48.02 12.45 47 10.85 47 9c0-2.76 2.24-5 5-5s5 2.24 5 5c0 1.85-1.02 3.45-2.51 4.31 2.07.54 3.89 1.72 5.22 3.33zm0 40c-3.48 5.79-11.91 5.83-15.42 0 1.33-1.61 3.15-2.79 5.22-3.33C48.02 52.45 47 50.85 47 49c0-2.76 2.24-5 5-5s5 2.24 5 5c0 1.85-1.02 3.45-2.51 4.31 2.07.54 3.89 1.72 5.22 3.33z" fill="#f3f3f3"/></svg>