<svg xmlns="http://www.w3.org/2000/svg" viewBox="0 0 64 64" xmlns:v="https://vecta.io/nano"><path d="M58 10v13.77C58 40.88 47.76 56.33 32 63h0C16.24 56.33 6 40.88 6 23.77V10l26-9 26 9z" fill="#5e9fdf"/><g fill="#1976d2"><path d="M58.33 9.06l-26-9c-.22-.08-.44-.08-.66 0L13.59 6.32 5.67 9.06c-.4.13-.67.51-.67.94v13.77c0 17.55 10.45 33.31 26.61 40.15.13.05.26.08.39.08s.26-.03.39-.08C48.55 57.08 59 41.32 59 23.77V10c0-.43-.27-.81-.67-.94zM57 23.77a41.51 41.51 0 0 1-25 38.14A41.51 41.51 0 0 1 7 23.77V10.71l6.98-2.42L32 2.06l25 8.65v13.06z"/><path d="M58 31.99c0 .55-.45 1-1 1H33v28.92c0 .55-.45 1-1 1s-1-.45-1-1V32.99H7c-.55-.01-1-.45-1-1.01s.45-1 1-1h24V2.06c0-.55.45-1 1-1s1 .45 1 1v28.93h24c.55 0 1 .44 1 1z"/><path d="M49.97 30.88v.11H33V14.03A18.05 18.05 0 0 1 47.59 23c.43.75.8 1.51 1.1 2.27.72 1.75 1.15 3.65 1.28 5.61zM31 14.03v16.96H14.03v-.11c.13-1.96.56-3.86 1.29-5.64A17.67 17.67 0 0 1 16.41 23 18.05 18.05 0 0 1 31 14.03zm0 18.96v16.98A18.05 18.05 0 0 1 16.41 41c-.43-.75-.8-1.51-1.1-2.27-.72-1.75-1.15-3.65-1.28-5.61v-.14H31zm18.97 0v.13c-.13 1.96-.56 3.86-1.29 5.64A17.67 17.67 0 0 1 47.59 41 18.05 18.05 0 0 1 33 49.97V32.99h16.97z"/><path d="M50 32l-.03.99H33v16.98L32 50c-.34 0-.67-.01-1-.03V32.99H14.03L14 32l.03-1.02H31V14.03l1-.03 1 .03v16.96h16.97L50 32z"/></g><path d="M48 32l-.03 1c-.11 1.76-.5 3.44-1.14 5-.27.69-.6 1.36-.97 2-2.76 4.78-7.94 8-13.86 8s-11.1-3.22-13.86-8c-.37-.64-.7-1.31-.97-2-.64-1.56-1.03-3.24-1.14-5-.02-.33-.03-.66-.03-1s.01-.67.03-1c.11-1.76.5-3.44 1.14-5 .27-.69.6-1.36.97-2 2.76-4.78 7.94-8 13.86-8s11.1 3.22 13.86 8c.37.64.7 1.31.97 2 .64 1.56 1.03 3.24 1.14 5 .02.33.03.66.03 1z" fill="#f3f3f3"/><path d="M47.97 33l.03-1-.03-1h-7c-.08-1.77-.38-3.43-.9-5h6.76c-.27-.69-.6-1.36-.97-2h-6.6c-1.36-2.8-3.53-5.34-6.64-7.79-.36-.29-.88-.29-1.24 0-3.1 2.45-5.28 4.98-6.64 7.79h-6.6c-.37.64-.7 1.31-.97 2h6.76c-.52 1.57-.82 3.23-.9 5h-7c-.02.33-.03.66-.03 1s.01.67.03 1h7c.08 1.77.38 3.43.9 5h-6.76c.27.69.6 1.36.97 2h6.6c1.36 2.8 3.53 5.34 6.64 7.79A1.01 1.01 0 0 0 32 48a1.01 1.01 0 0 0 .62-.21c3.1-2.45 5.28-4.98 6.64-7.79h6.6c.37-.64.7-1.31.97-2h-6.76c.52-1.57.82-3.23.9-5h7zM32 18.29c2.2 1.82 3.84 3.7 4.98 5.71h-9.96c1.14-2.02 2.78-3.89 4.98-5.71zM26.07 26h11.86c.61 1.56.95 3.22 1.04 5H25.02c.09-1.78.44-3.44 1.04-5zM32 45.71c-2.2-1.82-3.84-3.7-4.98-5.71h9.96c-1.14 2.02-2.78 3.89-4.98 5.71zM37.93 38H26.07c-.61-1.56-.95-3.22-1.04-5h13.95c-.09 1.78-.44 3.44-1.04 5z" fill="#d9d9d9"/><path d="M64 56h0a1.64 1.64 0 0 1-.89 1.46h0a7.26 7.26 0 0 0-3.72 4.8l-.17.76a1.25 1.25 0 0 1-1.22.97h0c-.59 0-1.09-.4-1.22-.97l-.17-.76a7.18 7.18 0 0 0-3.72-4.8h0A1.64 1.64 0 0 1 52 56h0a1.64 1.64 0 0 1 .89-1.46h0a7.26 7.26 0 0 0 3.72-4.8l.17-.76a1.25 1.25 0 0 1 1.22-.97h0c.59 0 1.09.4 1.22.97l.17.76a7.18 7.18 0 0 0 3.72 4.8h0A1.64 1.64 0 0 1 64 56z" fill="#d38e2a"/><g fill="#1976d2"><path d="M13.98 8.29c-.09 1.25-.82 2.36-1.95 2.95-1.36.7-2.34 1.97-2.68 3.47l-.18.76A3.22 3.22 0 0 1 7 17.84v-7.13l6.98-2.42z"/><path d="M14 8c0 .1 0 .19-.02.29L7 10.71v7.13c-.32.11-.65.16-1 .16s-.68-.05-1-.16V10c0-.43.27-.81.67-.94l7.92-2.74c.27.51.41 1.08.41 1.68z"/></g><path d="M12 8h0a1.64 1.64 0 0 1-.89 1.46h0a7.26 7.26 0 0 0-3.72 4.8l-.17.76a1.25 1.25 0 0 1-1.22.97h0c-.59 0-1.09-.4-1.22-.97l-.17-.76a7.18 7.18 0 0 0-3.72-4.8h0A1.64 1.64 0 0 1 0 8h0a1.64 1.64 0 0 1 .89-1.46h0a7.26 7.26 0 0 0 3.72-4.8l.17-.76A1.25 1.25 0 0 1 6 .01h0c.59 0 1.09.4 1.22.97l.17.76a7.18 7.18 0 0 0 3.72 4.8h0A1.64 1.64 0 0 1 12 8z" fill="#d38e2a"/></svg>