<svg xmlns="http://www.w3.org/2000/svg" xmlns:xlink="http://www.w3.org/1999/xlink" viewBox="0 0 64 64" xmlns:v="https://vecta.io/nano"><path d="M49 6v52c0 3.31-2.69 6-6 6H15c-3.31 0-6-2.69-6-6V6c0-3.31 2.69-6 6-6l29.2.12C46.91.67 49 3.08 49 6z" fill="#5e9fdf"/><rect x="11" y="2" width="36" height="58" rx="4" fill="#fff"/><path d="M15 2h2v11h-6V6a4 4 0 0 1 4-4z" fill="#5e9fdf"/><path d="M17 2h6v11h-6z" fill="#1976d2"/><path d="M23 2h6v11h-6z" fill="#5e9fdf"/><path d="M29 2h6v11h-6z" fill="#1976d2"/><path d="M35 2h6v11h-6z" fill="#5e9fdf"/><g fill="#1976d2"><path d="M41 2h2a4 4 0 0 1 4 4v7h-6V2h0z"/><use xlink:href="#B"/><use xlink:href="#B" x="6"/><use xlink:href="#B" x="12"/><use xlink:href="#B" x="18"/><use xlink:href="#B" x="24"/><use xlink:href="#B" x="30"/></g><path d="M40,58H18c-1.32,0-1.32-2,0-2h22c1.32,0,1.32,2,0,2Z" fill="#d9d9d9"/><path d="M41 25l-3 4-2-2v14H22V27l-2 2-3-4 5-4h14l5 4z" fill="#5e9fdf"/><path d="M25 21a4 4 0 1 0 8 0" fill="#1976d2"/><path d="M35 52H23a4 4 0 0 1-4-4c0-2.21 1.8-4 4-4 13.07 0 12.95-.25 14.34.76C40.46 46.99 38.89 52 35 52z" fill="#d9d9d9"/><path d="M42 36c-.88 0-1.34-1.07-.71-1.71L42.58 33l-1.29-1.29c-.94-.94.48-2.35 1.41-1.41l2 2c.39.39.39 1.02 0 1.41-2.18 2.18-2.17 2.29-2.71 2.29zm-26 0c-.54 0-.57-.15-2.71-2.29-.39-.39-.39-1.02 0-1.41l2-2c.94-.94 2.35.48 1.41 1.41L15.41 33l1.29 1.29a1.01 1.01 0 0 1-.71 1.71z" fill="#d38e2a"/><path d="M49 42.69V58c0 3.31-2.69 6-6 6h-4.62a12 12 0 0 1-3.76-4H43a4 4 0 0 0 4-4V42.17c.69.11 1.36.29 2 .52z" fill="#5e9fdf"/><path d="M47 42.17V56a4 4 0 0 1-4 4h-8.38a11.75 11.75 0 0 1-.93-2H40c1.32 0 1.32-2 0-2h-6.82c-.23-1.25-.24-2.61-.01-4 1.88 0 3.27.2 4.66-1.17 1.76-1.79 1.48-4.66-.49-6.07A11.96 11.96 0 0 1 47 42.17z" fill="#f3f3f3"/><path d="M35 52h-1.83c.48-2.89 2.01-5.43 4.17-7.24C40.49 47.01 38.85 52 35 52zm5 6h-6.31c-.23-.64-.41-1.31-.51-2H40c1.32 0 1.32 2 0 2z" fill="#c8c8c8"/><circle cx="45" cy="54" r="10" fill="#d38e2a"/><path d="M50.75 51.34A.98.98 0 0 0 50 51h-.46l-1.7-2.55c-.73-1.1-2.4 0-1.66 1.11l.96 1.45h-4.26l.96-1.45c.74-1.1-.93-2.21-1.66-1.11L40.48 51h-.46c-.6 0-1.07.53-.99 1.12l.84 5.19c.16.97.99 1.68 1.97 1.68h6.36a1.99 1.99 0 0 0 1.97-1.68c.91-5.61 1.02-5.5.6-5.98z" fill="#fdfdfd"/><path d="M31 27.4h3v1.5a1.5 1.5 0 0 1-1.5 1.5h0a1.5 1.5 0 0 1-1.5-1.5v-1.5h0z" fill="#1976d2"/><defs ><path id="B" d="M14,17c-1.66,0-3-1.34-3-3v-1h6v1c0,1.66-1.34,3-3,3Z"/></defs></svg>