<svg xmlns="http://www.w3.org/2000/svg" xmlns:xlink="http://www.w3.org/1999/xlink" viewBox="0 0 64 64" xmlns:v="https://vecta.io/nano"><path d="M64 24.42V50c0 6.12-3 7.88-3 14H34c0-2.5.23-4.7-1.75-7.19L30 54V15h24l4.97 1.99C62.01 18.2 64 21.15 64 24.42z" fill="#d38e2a"/><path d="M54 8v38c0 4.44-3.62 8-8 8H28a8 8 0 0 1-8-8V8a8 8 0 0 1 8-8h18a8 8 0 0 1 8 8z" fill="#5e9fdf"/><path d="M51 7v39a3.98 3.98 0 0 1-2.22 3.58c-1.19.6-.25.42-21.78.42a4 4 0 0 1-4-4V7c0-2.2 1.79-4 4-4h1.56a2.01 2.01 0 0 1 1.9 1.37l.08.26A2.01 2.01 0 0 0 32.44 6h9.12a2.01 2.01 0 0 0 1.9-1.37l.08-.26A2.01 2.01 0 0 1 45.44 3H47a4 4 0 0 1 4 4z" fill="#fff"/><path d="M46,40c0,1.65-1.35,3-3,3h-12c-1.66,0-3-1.34-3-3s1.35-3,3-3h12c1.66,0,3,1.34,3,3Z" fill="#5e9fdf"/><path d="M54 33.08V46a7.97 7.97 0 0 1-2.45 5.76 15.74 15.74 0 0 1-2.77-2.18A3.98 3.98 0 0 0 51 46V32.63l3 .45z" fill="#1976d2"/><path d="M51 32.63V46a3.98 3.98 0 0 1-2.22 3.58 15.07 15.07 0 0 1-3.36-5.08L42.21 43H43a3.01 3.01 0 0 0 3-3c0-1.65-1.34-3-3-3h-4.85a8.72 8.72 0 0 1-.15-1.62 4.06 4.06 0 0 1 4.05-4.05c.41 0-.21-.07 8.95 1.3z" fill="#f3f3f3"/><path d="M46,40c0,1.65-1.35,3-3,3h-.79c-2.14-1.34-3.61-3.52-4.06-6h4.85c1.66,0,3,1.34,3,3Z" fill="#1976d2"/><path d="M60 36v16h-.51c-5.67 0-10.7-3.63-12.49-9l-2.76-1.18c-2.57-1.1-4.24-3.63-4.24-6.43h0a2.05 2.05 0 0 1 2.36-2.03L60 36.01z" fill="#d38e2a"/><path d="M60.99 35.15c-.1.6-.68.93-1.14.84l-5.85-.9v-2.03l6.15.95a1.01 1.01 0 0 1 .84 1.14z" fill="#e4c290"/><path d="M43 48H31c-.55 0-1-.45-1-1 0-.29.22-1 1-1h12c.55 0 1 .45 1 1 0 .29-.22 1-1 1z" fill="#d9d9d9"/><g fill="#5e9fdf"><use xlink:href="#B"/><use xlink:href="#B"/></g><path d="M37 16a4 4 0 1 0 0 8 4 4 0 1 0 0-8zm0 6c-1.1 0-2-.9-2-2s.9-2 2-2 2 .9 2 2-.9 2-2 2z" fill="#1976d2"/><path d="M45 21c-.55 0-1-.45-1-1a7.01 7.01 0 0 0-7-7c-.55 0-1-.45-1-1s.45-1 1-1c4.96 0 9 4.04 9 9 0 .55-.45 1-1 1zm-8 8c-4.96 0-9-4.04-9-9 0-.55.45-1 1-1s1 .45 1 1a7.01 7.01 0 0 0 7 7c.55 0 1 .45 1 1s-.45 1-1 1z" fill="#5e9fdf"/><path d="M23.84 4.55A3.97 3.97 0 0 0 23 7v13.65c-.86 1.09-1.87 2.04-3 2.83V8a8.03 8.03 0 0 1 2.23-5.55c.6.64 1.15 1.35 1.61 2.1z" fill="#1976d2"/><path d="M23,20.65V7c0-.92,.31-1.77,.84-2.45,3.1,4.89,2.9,11.37-.84,16.1Z" fill="#d9d9d9"/><circle cx="12" cy="12" r="12" fill="#f3f3f3"/><path d="M16.9 19H7.1a1.01 1.01 0 0 1-1-1.1l.8-8a1 1 0 0 1 1-.9h8.19c.51 0 .94.39 1 .9l.8 8a1 1 0 0 1-1 1.1z" fill="#d38e2a"/><path d="M14,11c-.55,0-1-.45-1-1v-2c0-.55-.45-1-1-1s-1,.45-1,1v2c0,.55-.45,1-1,1s-1-.45-1-1v-2c0-1.65,1.35-3,3-3s3,1.35,3,3v2c0,.55-.45,1-1,1Z" fill="#e4c290"/><defs ><path id="B" d="M37 9c-6.08 0-11 4.92-11 11s4.92 11 11 11 11-4.92 11-11S43.08 9 37 9zm0 13c-1.1 0-2-.9-2-2s.9-2 2-2 2 .9 2 2-.9 2-2 2z"/></defs></svg>