<svg xmlns="http://www.w3.org/2000/svg" xmlns:xlink="http://www.w3.org/1999/xlink" viewBox="0 0 64 64" xmlns:v="https://vecta.io/nano"><g fill="#5e9fdf"><path d="M6 0h52c1.1 0 2 .9 2 2v4H4V2c0-1.1.9-2 2-2z"/><path d="M17 0h19a4 4 0 0 1 4 4v2H17V0h0z"/></g><path d="M60 6v43c0 1.1-.9 2-2 2H6c-1.1 0-2-.9-2-2V2c0-1.1.9-2 2-2h12a4 4 0 0 1 4 4v2h38z" fill="#f3f3f3"/><path d="M57 3c0-1.32-2-1.32-2 0s2 1.32 2 0zm-4 0c0-1.32-2-1.32-2 0s2 1.32 2 0z" fill="#1976d2"/><path d="M49,3c0-1.32-2-1.32-2,0s2,1.32,2,0Z" fill="#f3f3f3"/><path d="M37,3c0-1.32-2-1.32-2,0s2,1.32,2,0Z" fill="#1976d2"/><path d="M19,3c0-1.32-2-1.32-2,0s2,1.32,2,0Z" fill="#d38e2a"/><g fill="#1976d2"><path d="M52 6h8v10h-8z"/><use xlink:href="#B"/></g><path d="M44 6h8v10h-8z" fill="#5e9fdf"/><g fill="#1976d2"><use xlink:href="#B" x="-8"/><path d="M36 6h8v10h-8z"/><use xlink:href="#B" x="-16"/></g><path d="M28 6h8v10h-8z" fill="#5e9fdf"/><g fill="#1976d2"><use xlink:href="#B" x="-24"/><path d="M20 6h8v10h-8z"/><use xlink:href="#B" x="-32"/></g><path d="M12 6h8v10h-8z" fill="#5e9fdf"/><g fill="#1976d2"><use xlink:href="#B" x="-40"/><path d="M4 6h8v10H4z"/><use xlink:href="#B" x="-48"/></g><path d="M28 27l-3 4-2-2v12H12V29l-2 2-3-4 4-4h13l4 4zm4-3h25v2H32zm0 4h25v2H32zm0 4h25v2H32zm12.85 19h-25.7c.97-6.22 6.36-11 12.85-11s11.88 4.78 12.85 11zM32 36h18v2H32z" fill="#d9d9d9"/><circle cx="32" cy="53" r="11" fill="#d38e2a"/><path d="M36.54 50l-1.7-2.55c-.73-1.1-2.4 0-1.66 1.11l.96 1.45h-4.26l.96-1.45c.74-1.1-.93-2.21-1.66-1.11L27.48 50h-1.46c-.6 0-1.07.53-.99 1.12l.78 6.25C26 58.87 27.27 60 28.79 60h6.47a3.01 3.01 0 0 0 2.98-2.63c.98-7.85 1.47-7.37-1.68-7.37z" fill="#fdfdfd"/><defs ><path id="B" d="M56 21a4 4 0 0 1-4-4v-1h8v1a4 4 0 0 1-4 4z"/></defs></svg>