<svg xmlns="http://www.w3.org/2000/svg" xmlns:xlink="http://www.w3.org/1999/xlink" viewBox="0 0 64 64" xmlns:v="https://vecta.io/nano"><rect x="7" y="34" width="50" height="4" rx="1" fill="#1976d2"/><path d="M50.22 64H13.78a2 2 0 0 1-1.99-1.77L8.99 38H55l-2.8 24.23A2 2 0 0 1 50.21 64z" fill="#5e9fdf"/><g fill="#1976d2"><use xlink:href="#B"/><use xlink:href="#B" x="7"/><use xlink:href="#B" x="14"/><use xlink:href="#B" x="21"/><use xlink:href="#B" x="28"/><rect x="41.38" y="30.12" width="4.24" height="36.77" rx="2.12" transform="matrix(.707107 -.707107 .707107 .707107 -21.55 44.96)"/><path d="M33,37c0-1.32-2-1.32-2,0s2,1.32,2,0Z"/></g><g fill="#5e9fdf"><path d="M19.56 8l1.41 4.24-3.54.71 9.9 9.9-8.49 8.49-9.9-9.9-.71 3.54-4.24-1.41v-5.66l2.83-2.83a3 3 0 0 0 4.24 0 3 3 0 0 0 0-4.24l2.83-2.83h5.66zm29.824 6.681l8.485 8.485c.389.389.389 1.025 0 1.414l-.707.707-9.899-9.899.707-.707c.389-.389 1.025-.389 1.414 0z"/><path d="M51.35 32.39c-.31.38-.86.48-1.29.23-4.15-2.51-7.52-5.81-10.13-10.13-.24-.4-.17-.91.15-1.22.54-.54-1.78 1.46 7.18-5.88l9.9 9.9-5.82 7.11z"/><path d="M46.4 23.29l-4.02 2.68-1.21-1.59 4.13-2.76c1.1-.73 2.21.93 1.1 1.67zm1.77 8.09l-1.59-1.21 2.68-4.02c.74-1.11 2.4 0 1.67 1.1l-2.76 4.13z"/><rect x="28.76" y=".76" width="10" height="16" rx="1.47" transform="matrix(.707107 -.707107 .707107 .707107 3.69 26.44)"/><path d="M38.71 12.29c-.93-.93-2.35.48-1.41 1.41s2.35-.48 1.41-1.41z"/></g><path d="M24 2h-1V1c0-1.32-2-1.32-2 0v1h-1c-1.32 0-1.32 2 0 2h1v1c0 1.32 2 1.32 2 0V4h1c1.32 0 1.32-2 0-2zm8 25h-1v-1c0-1.32-2-1.32-2 0v1h-1c-1.32 0-1.32 2 0 2h1v1c0 1.32 2 1.32 2 0v-1h1c1.32 0 1.32-2 0-2zm22-17h-1V9c0-1.32-2-1.32-2 0v1h-1c-1.32 0-1.32 2 0 2h1v1c0 1.32 2 1.32 2 0v-1h1c1.32 0 1.32-2 0-2z" fill="#d38e2a"/><path d="M10 1v2c0 1.32 2 1.32 2 0V1c0-1.32-2-1.32-2 0zM5 9v2c0 1.32 2 1.32 2 0V9c0-1.32-2-1.32-2 0zm36-6v2c0 1.32 2 1.32 2 0V3c0-1.32-2-1.32-2 0zm-5 25v2c0 1.32 2 1.32 2 0v-2c0-1.32-2-1.32-2 0z" fill="#f3f3f3"/><defs ><path id="B" d="M18 60c-.81 0-2-.63-2-2V44c0-1.1.9-2 2-2 .81 0 2 .63 2 2v14c0 1.1-.9 2-2 2z"/></defs></svg>