<svg xmlns="http://www.w3.org/2000/svg" viewBox="0 0 64 64" xmlns:v="https://vecta.io/nano"><path d="M52,7V57c0,1.66-1.34,3-3,3H15c-1.66,0-3-1.34-3-3V15L25,4h24c1.66,0,3,1.34,3,3Z" fill="#5e9fdf"/><rect x="15" y="29" width="34" height="28" rx="1" fill="#fdfdfd"/><path d="M24 39h16v8H24zm2 10v6h-9V44h5v3c0 1.1.9 2 2 2h2zm0-18v6h-2c-1.1 0-2 .9-2 2v3h-5V31h9zm2 0h8v6h-8zm19 0v11h-5v-3c0-1.1-.9-2-2-2h-2v-6h9zM28 49h8v6h-8zm19-5v11h-9v-6h2c1.1 0 2-.9 2-2v-3h5z" fill="#d38e2a"/><path d="M24.49 57c-.88 1.18-1.97 2.19-3.21 3H15c-1.66 0-3-1.34-3-3V37.25c1.29-.26 2.58-.28 3-.23V56c0 .55.45 1 1 1h8.49z" fill="#1976d2"/><path d="M26 54.4V49h-2c-1.1 0-2-.9-2-2v-3h-5v11h8.71c-.33.71-.75 1.38-1.22 2H16c-.55 0-1-.45-1-1V37.02c.68.02 1.35.1 2 .24V42h5v-2.5a12.7 12.7 0 0 1 2 1.88V47h2.75a12.51 12.51 0 0 1-.75 7.4z" fill="#d9d9d9"/><path d="M22 42h-5v-4.74c1.85.37 3.55 1.15 5 2.24V42zm2 7h2c0 5.87.1 5.29-.29 6H17V44h5v3c0 1.1.9 2 2 2zm2.75-2H24v-5.62c1.36 1.58 2.32 3.51 2.75 5.62z" fill="#e4c290"/><circle cx="12.5" cy="51.5" r="12.5" fill="#5e9fdf"/><path d="M44 1v13.76c0 1.3-1.76 1.71-2.34.55l-3.17-6.34c-.67-1.33 1.38-2.27 1.98-.93l1.54 3.46V1c0-1.32 2-1.32 2 0zm2 14V1.24c0-1.3 1.76-1.71 2.34-.55l3.17 6.34c.67 1.33-1.38 2.27-1.98.93L47.99 4.5V15c0 1.32-2 1.32-2 0z" fill="#1976d2"/><path d="M7.5 57H5c-1.32 0-1.32-2 0-2h2.5a1.5 1.5 0 1 0 0-3H5c-.55 0-1-.45-1-1v-3c0-1.1.9-2 2-2h4c1.32 0 1.32 2 0 2H6v2h1.5c1.93 0 3.5 1.57 3.5 3.5S9.43 57 7.5 57zM18 57h-2a3.01 3.01 0 0 1-3-3v-5a3.01 3.01 0 0 1 3-3h3c1.32 0 1.32 2 0 2h-3c-.55 0-1 .45-1 1v5c0 .55.45 1 1 1h2v-2h-1c-1.32 0-1.32-2 0-2h2c.55 0 1 .45 1 1v3c0 1.1-.9 2-2 2z" fill="#fdfdfd"/></svg>