<svg xmlns="http://www.w3.org/2000/svg" viewBox="0 0 64 64" xmlns:v="https://vecta.io/nano"><rect y="7" width="26" height="26" rx="1" fill="#f3f3f3"/><g fill="#5e9fdf"><path d="M1 7h24c.55 0 1 .45 1 1v3H0V8c0-.55.45-1 1-1z"/><path d="M6 7h9c1.66 0 3 1.34 3 3v1H6V7h0z"/></g><path d="M1 7h6c1.66 0 3 1.34 3 3v1H0V8c0-.55.45-1 1-1z" fill="#f3f3f3"/><g fill="#5e9fdf"><path d="M39 0h24c.55 0 1 .45 1 1v3H38V1c0-.55.45-1 1-1z"/><path d="M44 0h9c1.66 0 3 1.34 3 3v1H44V0h0z"/></g><g fill="#f3f3f3"><path d="M39 0h6c1.66 0 3 1.34 3 3v1H38V1c0-.55.45-1 1-1z"/><rect x="30" y="38" width="26" height="26" rx="1"/></g><g fill="#5e9fdf"><path d="M31 38h24c.55 0 1 .45 1 1v3H30v-3c0-.55.45-1 1-1z"/><path d="M36 38h9c1.66 0 3 1.34 3 3v1H36v-4h0z"/></g><path d="M31 38h6c1.66 0 3 1.34 3 3v1H30v-3c0-.55.45-1 1-1z" fill="#f3f3f3"/><path d="M29 21h-1c-1.32 0-1.32-2 0-2h1c.55 0 1-.45 1-1V8a3.01 3.01 0 0 1 3-3h2c1.32 0 1.32 2 0 2h-2c-.55 0-1 .45-1 1v10a3.01 3.01 0 0 1-3 3zm13 14v-1a3.01 3.01 0 0 1 3-3h4c.55 0 1-.45 1-1v-1c0-1.32 2-1.32 2 0v1a3.01 3.01 0 0 1-3 3h-4c-.55 0-1 .45-1 1v1c0 1.32-2 1.32-2 0z" fill="#d38e2a"/><path d="M2 14h12v15H2z" fill="#d9d9d9"/><path d="M14 14h-1.28L8 19.91 3.28 14H2v1.6l4.72 5.9L2 27.41V29h1.28L8 23.1l4.72 5.9H14v-1.59L9.28 21.5 14 15.6V14z" fill="#c8c8c8"/><path d="M16 14h8v2h-8zm0 4h8v2h-8zm0 4h8v5h-8zM40 8h14v8H40z" fill="#d9d9d9"/><path d="M54 8h-2.02L47 10.84 42.02 8H40v1.16L44.98 12 40 14.84V16h2.02L47 13.16 51.98 16H54v-1.16L49.02 12 54 9.16V8z" fill="#c8c8c8"/><path d="M56 8h6v2h-6zM40 18h16v2H40zm0 4h16v2H40zm16-10h6v2h-6zM32 44h22v10H32z" fill="#d9d9d9"/><path d="M54 44h-2.41L43 47.9 34.41 44H32v1.1l8.59 3.9L32 52.9V54h2.41L43 50.1l8.59 3.9H54v-1.1L45.41 49 54 45.1V44z" fill="#c8c8c8"/><path d="M32 56h16v2H32zm0 4h22v2H32z" fill="#d9d9d9"/></svg>