<svg xmlns="http://www.w3.org/2000/svg" viewBox="0 0 64 64" xmlns:v="https://vecta.io/nano"><rect y="2" width="64" height="50" rx="4" fill="#5e9fdf"/><path d="M44,62H20c2.75-2.75,4-6.21,4-10h16c0,4.08,1.44,7.44,4,10Z" fill="#1976d2"/><path d="M46 62H18c-.55 0-1-.45-1-1 0-.29.22-1 1-1h28c.55 0 1 .45 1 1 0 .29-.22 1-1 1z" fill="#5e9fdf"/><rect x="3" y="5" width="58" height="42" rx="2" fill="#fff"/><path d="M6 8h52v39H6z" fill="#f3f3f3"/><path d="M13 43V17h33.33c.92 0 1.67.9 1.67 2v24H13z" fill="#1976d2"/><g fill="#5e9fdf"><path d="M16,17v4h19.83c-1.81,0-3.55-.72-4.83-2s-2.97-2-4.83-2h-10.17Z"/><path d="M6 47V19c0-1.1.9-2 2-2h8.5c1.57 0 3.06.74 4 2s2.43 2 4 2H48v26H6z"/></g><rect x="10" y="27" width="14" height="16" rx="2" fill="#f3f3f3"/><path d="M28 27h16v2H28zm0 4h16v2H28zm0 4h16v2H28zm0 4h10v2H28z" fill="#5e9fdf"/><g fill="#d38e2a"><path d="M18.28 35l3.5-4.38c.35-.43.28-1.06-.16-1.41-.43-.34-1.06-.28-1.41.16l-3.22 4.02-3.22-4.02a1.01 1.01 0 0 0-1.41-.16 1.01 1.01 0 0 0-.16 1.41L15.7 35l-3.5 4.38c-.35.43-.28 1.06.16 1.41.43.35 1.06.27 1.41-.16l3.22-4.02 3.22 4.02a1.01 1.01 0 0 0 1.41.16 1.01 1.01 0 0 0 .16-1.41L18.28 35zM58 14c-.55 0-1-.45-1-1V9h-4c-.55 0-1-.45-1-1s.45-1 1-1h5c.55 0 1 .45 1 1v5c0 .55-.45 1-1 1z"/><path d="M51.5 15.5c-.88 0-1.34-1.07-.71-1.71l5.5-5.5c.39-.39 1.02-.39 1.41 0s.39 1.02 0 1.41l-5.5 5.5a.98.98 0 0 1-.71.29z"/></g></svg>