<svg xmlns="http://www.w3.org/2000/svg" viewBox="0 0 64 64" xmlns:v="https://vecta.io/nano"><path d="M9,7H28c1.1,0,2,.9,2,2v2H9V7h0Z" fill="#5e9fdf"/><path d="M8 7h8.17c1.81 0 3.55.72 4.83 2 2.3 2.3 4.8 2 7 2v4H8V7z" fill="#1976d2"/><g fill="#5e9fdf"><path d="M30 11v20c0 1.1-.9 2-2 2H2c-1.1 0-2-.9-2-2V9c0-1.1.9-2 2-2l7 .03c1.38.14 2.66.85 3.5 1.97.94 1.26 2.43 2 4 2H30z"/><circle cx="9" cy="10" r="1"/><path d="M43 7h19c1.1 0 2 .9 2 2v2H43V7h0z"/></g><path d="M42 7h8.17c1.81 0 3.55.72 4.83 2 2.3 2.3 4.8 2 7 2v4H42V7z" fill="#1976d2"/><g fill="#5e9fdf"><path d="M64 11v20c0 1.1-.9 2-2 2H36c-1.1 0-2-.9-2-2V9c0-1.1.9-2 2-2h6.5c1.57 0 3.06.74 4 2s2.43 2 4 2H64zm-34 4v16c0 1.1-.9 2-2 2H11V19a4 4 0 0 1 4-4h15z"/><path d="M53 19v14H36c-1.1 0-2-.9-2-2V15h15a4 4 0 0 1 4 4z"/><circle cx="43" cy="10" r="1"/></g><path d="M22,17h27c1.1,0,2,.9,2,2v2H22v-4h0Z" fill="#d38e2a"/><path d="M25,17h10.17c1.81,0,3.55,.72,4.83,2s2.97,2,4.83,2h4.17v4H25v-8Z" fill="#1976d2"/><path d="M13 47V19c0-1.1.9-2 2-2h10.5c1.57 0 3.06.74 4 2s2.43 2 4 2H51v26c0 1.1-.9 2-2 2H15c-1.1 0-2-.9-2-2z" fill="#f3f3f3"/><circle cx="25" cy="20" r="1" fill="#5e9fdf"/><rect x="17" y="27" width="12" height="18" rx="2" fill="#d38e2a"/><g fill="#fff"><path d="M26 43c-.37 0-.72-.2-.9-.55l-6-12c-.25-.49-.05-1.09.45-1.34.49-.25 1.09-.05 1.34.45l6 12c.33.67-.16 1.45-.89 1.45z"/><path d="M20 43a1 1 0 0 1-.89-1.45l6-12a1.01 1.01 0 0 1 1.34-.45 1.01 1.01 0 0 1 .45 1.34l-6 12c-.18.35-.53.55-.9.55z"/></g><path d="M39 27h8v2h-8zm-6 4h14v2H33zm0 4h14v2H33zm0 4h14v2H33zm0 4h10v2H33z" fill="#d9d9d9"/><g fill="#d38e2a"><circle cx="32" cy="55" r="2"/><circle cx="27" cy="55" r="1"/><circle cx="23" cy="55" r="1"/><circle cx="37" cy="55" r="1"/><circle cx="41" cy="55" r="1"/><path d="M8 36c-.54 0-.57-.15-2.71-2.29-.39-.39-.39-1.02 0-1.41l2-2c.39-.39 1.02-.39 1.41 0s.39 1.02 0 1.41L7.41 33l1.29 1.29A1.01 1.01 0 0 1 7.99 36zm48 0c-.88 0-1.34-1.07-.71-1.71L56.58 33l-1.29-1.29c-.39-.39-.39-1.02 0-1.41s1.02-.39 1.41 0l2 2c.39.39.39 1.02 0 1.41-2.18 2.18-2.17 2.29-2.71 2.29z"/></g></svg>