<svg xmlns="http://www.w3.org/2000/svg" viewBox="0 0 64 64" xmlns:v="https://vecta.io/nano"><path d="M13 0h37c1.1 0 2 .9 2 2v2H13V0h0z" fill="#5e9fdf"/><path d="M14,0H30.17C31.98,0,33.72,.72,35,2s2.97,2,4.83,2h10.17V8H14V0Z" fill="#1976d2"/><path d="M52 4v38c0 1.1-.9 2-2 2H2c-1.1 0-2-.9-2-2V2C0 .9.9 0 2 0c13.37 0 12.99-.1 14 .24.99.3 1.87.91 2.5 1.76.94 1.26 2.43 2 4 2H52z" fill="#f3f3f3"/><circle cx="16" cy="3" r="1" fill="#5e9fdf"/><path d="M52 13v29c0 1.1-.9 2-2 2H10V17a4 4 0 0 1 4-4h38z" fill="#d9d9d9"/><path d="M23,15H56c1.1,0,2,.9,2,2v2H23v-4h0Z" fill="#5e9fdf"/><path d="M25,15h13.17c1.81,0,3.55,.72,4.83,2s2.97,2,4.83,2h8.17v4H25V15Z" fill="#1976d2"/><g fill="#5e9fdf"><path d="M58 19v30c0 1.1-.9 2-2 2H14c-1.1 0-2-.9-2-2V17c0-1.1.9-2 2-2 11.57 0 11.02-.09 12 .24.99.3 1.87.91 2.5 1.76.94 1.26 2.43 2 4 2H58z"/><circle cx="26" cy="18" r="1"/></g><g fill="#fff"><path d="M17 25c-.55 0-1-.45-1-1v-4c0-.55.45-1 1-1h4c.55 0 1 .45 1 1s-.45 1-1 1h-3v3c0 .55-.45 1-1 1z"/><path d="M21 25c-.26 0-.51-.1-.71-.29l-3-3c-.39-.39-.39-1.02 0-1.41s1.02-.39 1.41 0l3 3a1.01 1.01 0 0 1-.71 1.71z"/></g><g fill="#d38e2a"><path d="M5 10c-.55 0-1-.45-1-1V5c0-.55.45-1 1-1h4c.55 0 1 .45 1 1s-.45 1-1 1H6v3c0 .55-.45 1-1 1z"/><path d="M9 10c-.26 0-.51-.1-.71-.29l-3-3c-.39-.39-.39-1.02 0-1.41s1.02-.39 1.41 0l3 3a1.01 1.01 0 0 1-.71 1.71z"/></g><g fill="#5e9fdf"><path d="M58 30v19c0 1.1-.9 2-2 2H22V34a4 4 0 0 1 4-4h32z"/><path d="M33 32h29c1.1 0 2 .9 2 2v2H33v-4h0z"/></g><path d="M34,32h12.17c1.81,0,3.55,.72,4.83,2s2.97,2,4.83,2h6.17v4h-28v-8Z" fill="#1976d2"/><path d="M24 62V34c0-1.1.9-2 2-2h8.5c1.57 0 3.06.74 4 2s2.43 2 4 2H64v26c0 1.1-.9 2-2 2H26c-1.1 0-2-.9-2-2z" fill="#f3f3f3"/><circle cx="36" cy="35" r="1" fill="#5e9fdf"/><rect x="28" y="42" width="12" height="18" rx="2" fill="#d38e2a"/><g fill="#fff"><path d="M37 58c-.37 0-.72-.2-.9-.55l-6-12c-.25-.49-.05-1.09.45-1.34s1.1-.05 1.34.45l6 12c.33.67-.16 1.45-.89 1.45z"/><path d="M31 58a1 1 0 0 1-.89-1.45l6-12a1.01 1.01 0 0 1 1.34-.45 1.01 1.01 0 0 1 .45 1.34l-6 12c-.18.35-.53.55-.9.55z"/></g><path d="M50 42h10v2H50zm-6 4h16v2H44zm0 4h16v2H44zm0 4h16v2H44zm0 4h10v2H44z" fill="#d9d9d9"/></svg>