<svg xmlns="http://www.w3.org/2000/svg" viewBox="0 0 64 64" xmlns:v="https://vecta.io/nano"><g fill="#d9d9d9"><path d="M59 37c-.12 0 1.62.25-27.15-4.01-.55-.08-.92-.59-.84-1.14s.59-.92 1.14-.84l27 4c.55.08.92.59.84 1.14-.07.5-.5.85-.99.85z"/><path d="M32 33c-.54 0-1-.44-1-1V5c0-.55.45-1 1-1s1 .45 1 1v24.83L58.44 8.15a1 1 0 1 1 1.3 1.52L32 33z"/></g><g fill="#1976d2"><circle cx="59.09" cy="8.91" r="5"/><circle cx="59" cy="36" r="5"/></g><g fill="#d9d9d9"><path d="M5 37a1 1 0 0 1-.99-.85 1.01 1.01 0 0 1 .84-1.14l27-4c.55-.08 1.06.3 1.14.84a1.01 1.01 0 0 1-.84 1.14L5 37z"/><path d="M32 33c-.57 0 1.42 1.52-27.74-23.33a1 1 0 1 1 1.3-1.52L31 29.83V5c0-.55.45-1 1-1s1 .45 1 1v27c0 .56-.45 1-1 1z"/></g><path d="M53 54.77V64H11v-9.23a4 4 0 0 1 2.6-3.75L27 45.99h10l13.4 5.03c1.56.59 2.6 2.08 2.6 3.75z" fill="#5e9fdf"/><path d="M32,52c-2.76,0-5-2.23-5-5v-3h10v3c0,2.76-2.24,5-5,5Z" fill="#d38e2a"/><path d="M32,47c-5.52,0-10-4.48-10-10v-8h20v8c0,5.52-4.48,10-10,10Z" fill="#e4c290"/><g fill="#1976d2"><path d="M19 28h3v6h-3z"/><path d="M40 29H21a4 4 0 0 1-4-4v-7h21c1.66 0 3 1.34 3 3a4 4 0 0 1 4 4v9h-3v-3c0-1.1-.9-2-2-2z"/></g><path d="M43 38h-1v-6h1c1.66 0 3 1.34 3 3s-1.34 3-3 3zm-22 0h1v-6h-1c-1.66 0-3 1.34-3 3s1.34 3 3 3z" fill="#e4c290"/><g fill="#1976d2"><circle cx="32" cy="5" r="5"/><circle cx="4.91" cy="8.91" r="5"/><circle cx="5" cy="36" r="5"/></g><path d="M29.55 43.89a1.01 1.01 0 0 1-.45-1.34 1.01 1.01 0 0 1 1.34-.45c.97.49 2.13.49 3.11 0 .49-.25 1.09-.05 1.34.45.25.49.05 1.09-.45 1.34-1.5.75-3.33.78-4.89 0z" fill="#d38e2a"/></svg>