<svg xmlns="http://www.w3.org/2000/svg" viewBox="0 0 64 64" xmlns:v="https://vecta.io/nano"><g fill="#d38e2a"><path d="M32 64c-.55 0-1-.45-1-1V2c0-.55.45-1 1-1s1 .45 1 1v61c0 .55-.45 1-1 1z"/><path d="M22 64a1 1 0 0 1-.79-1.61l10-13a.99.99 0 1 1 1.58 1.22l-10 13c-.2.26-.49.39-.79.39z"/><path d="M42 64a.97.97 0 0 1-.79-.39l-10-13a1 1 0 0 1 .18-1.4 1 1 0 0 1 1.4.18l10 13c.51.66.02 1.61-.79 1.61z"/></g><g fill="#5e9fdf"><rect y="4" width="64" height="4" rx="1"/><rect y="48" width="64" height="4" rx="1"/></g><path d="M2 8h60v40H2z" fill="#f3f3f3"/><g fill="#d9d9d9"><path d="M30,29H10c-.55,0-1-.45-1-1s.45-1,1-1H30c.55,0,1,.45,1,1s-.45,1-1,1Z"/><path d="M16 41c-.96 0-1.37-1.22-.6-1.8L30.33 28 15.4 16.8c-.44-.33-.53-.96-.2-1.4s.96-.53 1.4-.2l16 12c.53.4.53 1.2 0 1.6L16 41z"/></g><g fill="#1976d2"><circle cx="16" cy="16" r="4"/><circle cx="16" cy="40" r="4"/><circle cx="10" cy="28" r="5"/></g><g fill="#d9d9d9"><path d="M54 29H34c-.55 0-1-.45-1-1s.45-1 1-1h20c.55 0 1 .45 1 1s-.45 1-1 1z"/><path d="M48 41c-.49 0 .73.79-16.6-12.2-.53-.4-.53-1.2 0-1.6l16-12c.44-.33 1.07-.24 1.4.2s.24 1.07-.2 1.4L33.67 28 48.6 39.2c.77.58.36 1.8-.6 1.8z"/></g><circle cx="32" cy="28" r="11" fill="#d38e2a"/><g fill="#1976d2"><circle cx="48" cy="16" r="4"/><circle cx="48" cy="40" r="4"/><circle cx="54" cy="28" r="5"/></g><g fill="#fff"><circle cx="26" cy="28" r="2"/><circle cx="32" cy="28" r="2"/><circle cx="38" cy="28" r="2"/></g><path d="M9 13H5v-2h4zm0 4H5v-2h4zm50 24h-4v-2h4zm0 4h-4v-2h4z" fill="#d9d9d9"/></svg>