<svg xmlns="http://www.w3.org/2000/svg" viewBox="0 0 64 64" xmlns:v="https://vecta.io/nano"><path d="M54,58v4c0,1.1-.9,2-2,2H4c-1.1,0-2-.9-2-2v-4H54Z" fill="#5e9fdf"/><rect x="6" width="48" height="39" rx="2" fill="#1976d2"/><g fill="#5e9fdf"><path d="M41 8H15V0h15.53a4.02 4.02 0 0 1 3.58 2.21l.79 1.58A3.99 3.99 0 0 0 38.48 6h2.53v2z"/><path d="M54 6v42c0 1.1-.9 2-2 2H4c-1.1 0-2-.9-2-2V2c0-1.1.9-2 2-2h13.53a4.02 4.02 0 0 1 3.58 2.21l.78 1.58A4.02 4.02 0 0 0 25.47 6H54z"/><circle cx="51" cy="3" r="1"/><circle cx="47" cy="3" r="1"/><circle cx="43" cy="3" r="1"/><path d="M54,9V48c0,1.1-.9,2-2,2H4c-1.1,0-2-.9-2-2V9H54Z"/><circle cx="18" cy="3" r="1"/></g><g fill="#1976d2"><rect x="6" y="11" width="50" height="8" rx="2"/><path d="M45 18H15v-7h19.53a4.01 4.01 0 0 1 3.58 2.21l.79 1.58A3.99 3.99 0 0 0 42.48 17h2.53v1z"/></g><path d="M2 58h52v3H2z" fill="#5e9fdf"/><path d="M56 17v40c0 1.1-.9 2-2 2H2c-1.1 0-2-.9-2-2V13c0-1.1.9-2 2-2h15.53a4.02 4.02 0 0 1 3.58 2.21l.78 1.58A4.02 4.02 0 0 0 25.47 17H56z" fill="#f3f3f3"/><rect x="8" y="21" width="40" height="28" rx="1" fill="#d9d9d9"/><path d="M48 48a1.01 1.01 0 0 1-1 1H9c-.86 0-1.27-.98-.8-1.6l12-16c.37-.52 1.17-.53 1.57-.03l8.26 10.08 6.22-7.11a1 1 0 0 1 1.54.05C48.71 48.58 48 47.52 48 48z" fill="#1976d2"/><circle cx="35" cy="28" r="3" fill="#d38e2a"/><g fill="#5e9fdf"><circle cx="52" cy="14" r="1"/><circle cx="48" cy="14" r="1"/><circle cx="44" cy="14" r="1"/><circle cx="18" cy="14" r="1"/><circle cx="9" cy="52" r="1"/><circle cx="13" cy="52" r="1"/></g><circle cx="17" cy="52" r="1" fill="#1976d2"/><path d="M8 55h14v2H8z" fill="#d9d9d9"/><path d="M62 56c-.29 0-1-.22-1-1V9c0-.55.45-1 1-1 .29 0 1 .22 1 1v46c0 .55-.45 1-1 1z" fill="#f3f3f3"/><rect x="60" y="20" width="4" height="24" rx="1" fill="#d38e2a"/></svg>