<svg xmlns="http://www.w3.org/2000/svg" viewBox="0 0 64 64" xmlns:v="https://vecta.io/nano"><rect x="12" width="40" height="64" rx="6" fill="#5e9fdf"/><path d="M50 6v50a4 4 0 0 1-4 4H18a4 4 0 0 1-4-4V6a4 4 0 0 1 4-4h5.28c.43 0 .81.28.95.68l.32.95A2 2 0 0 0 26.45 5h11.12a2 2 0 0 0 1.9-1.37c.32-.97.42-1.63 1.26-1.63h5.28a4 4 0 0 1 4 4z" fill="#fff"/><path d="M45 14l-3-4-3 4h-1c-1.1 0-2 .9-2 2v16c0 1.1.9 2 2 2h24c1.1 0 2-.9 2-2V16c0-1.1-.9-2-2-2H45z" fill="#d38e2a"/><path d="M42 29h-2c-1.32 0-1.32-2 0-2h2c1.32 0 1.32-2 0-2a3.01 3.01 0 0 1-3-3 3.01 3.01 0 0 1 3-3h2c1.32 0 1.32 2 0 2h-2c-1.32 0-1.32 2 0 2a3.01 3.01 0 0 1 3 3 3.01 3.01 0 0 1-3 3zm10-2h-3v-2h2c1.32 0 1.32-2 0-2h-2v-2h3c1.32 0 1.32-2 0-2h-3c-1.1 0-2 .9-2 2v6c0 1.1.9 2 2 2h3c1.32 0 1.32-2 0-2zm6 2a3.01 3.01 0 0 1-3-3v-4a3.01 3.01 0 0 1 3-3 3.01 3.01 0 0 1 3 3v4a3.01 3.01 0 0 1-3 3zm-1-7v4c0 1.32 2 1.32 2 0v-4c0-1.32-2-1.32-2 0z" fill="#fff"/><path d="M23.84 38L21 34l-3 4H2c-1.1 0-2 .9-2 2v8c0 1.1.9 2 2 2h24c1.1 0 2-.9 2-2v-8c0-1.1-.9-2-2-2h-2.16z" fill="#1976d2"/><g fill="#5e9fdf"><circle cx="22" cy="44" r="2"/><circle cx="14" cy="44" r="2"/></g><circle cx="6" cy="44" r="2" fill="#fff"/><path d="M44,58H22c-1.34,0-1.29-2,0-2h22c1.34,0,1.29,2,0,2Z" fill="#d9d9d9"/></svg>