<svg xmlns="http://www.w3.org/2000/svg" viewBox="0 0 64 64" xmlns:v="https://vecta.io/nano"><path d="M21 55h22v7c0 1.1-.9 2-2 2H23c-1.1 0-2-.9-2-2v-7h0zM43 2v7H21V2c0-1.1.9-2 2-2h18c1.1 0 2 .9 2 2z" fill="#1976d2"/><g fill="#5e9fdf"><path d="M46 50H18l1.54 4.63a2 2 0 0 0 1.9 1.37h21.12a2 2 0 0 0 1.9-1.37L46 50zm0-36H18l1.54-4.63A2.01 2.01 0 0 1 21.44 8h21.12a2.01 2.01 0 0 1 1.9 1.37L46 14z"/><rect x="14" y="12" width="36" height="40" rx="6"/></g><rect x="17" y="15" width="30" height="34" rx="3" fill="#fff"/><circle cx="32" cy="32" r="5" fill="#e4c290"/><g fill="#d38e2a"><circle cx="32" cy="22" r="2"/><circle cx="24.93" cy="24.93" r="2"/><circle cx="22" cy="32" r="2"/><circle cx="24.93" cy="39.07" r="2"/><circle cx="32" cy="42" r="2"/><circle cx="39.07" cy="39.07" r="2"/><circle cx="42" cy="32" r="2"/><circle cx="39.07" cy="24.93" r="2"/></g><path d="M50,27v-8c.81,0,2,.63,2,2v4c0,.81-.63,2-2,2Z" fill="#5e9fdf"/></svg>