<svg xmlns="http://www.w3.org/2000/svg" viewBox="0 0 64 64" xmlns:v="https://vecta.io/nano"><path d="M31 38h2v20h-2z" fill="#d9d9d9"/><rect x="27" y="58" width="10" height="6" rx="2" fill="#d38e2a"/><path d="M8 60h19v2H8z" fill="#d9d9d9"/><circle cx="8" cy="61" r="3" fill="#d38e2a"/><path d="M56 62H37v-2h19z" fill="#d9d9d9"/><circle cx="56" cy="61" r="3" fill="#d38e2a"/><path d="M13 16.8V47c0 1.1.9 2 2 2h34c1.1 0 2-.9 2-2V16.8L35.75 3h-7.5L13 16.8z" fill="#f3f3f3"/><g fill="#5e9fdf"><circle cx="32" cy="38" r="2"/><path d="M36.24 35.76c-.26 0-.51-.1-.71-.3-1.93-1.95-5.12-1.96-7.06 0-.39.39-1.02.39-1.41 0s-.4-1.02 0-1.41a6.99 6.99 0 0 1 9.9 0c.63.63.17 1.7-.71 1.7zm2.83-2.83c-.26 0-.51-.1-.71-.29-3.52-3.52-9.21-3.52-12.73 0-.39.39-1.02.39-1.41 0s-.39-1.02 0-1.41c4.3-4.3 11.25-4.3 15.55 0a1.01 1.01 0 0 1-.71 1.71zm2.83-2.83c-.26 0-.51-.1-.71-.29a13 13 0 0 0-18.39 0c-.39.39-1.02.39-1.41 0s-.39-1.02 0-1.41c5.88-5.86 15.33-5.86 21.21 0 .63.63.18 1.71-.71 1.71z"/></g><path d="M57 20.94a1.95 1.95 0 0 1-3.17 1.52L32 5 10.17 22.46C8.89 23.48 7 22.57 7 20.94a1.94 1.94 0 0 1 .73-1.52L32 0l24.27 19.41c.46.37.73.93.73 1.52z" fill="#1976d2"/></svg>