<svg xmlns="http://www.w3.org/2000/svg" viewBox="0 0 64 64" xmlns:v="https://vecta.io/nano"><path d="M58 30H6l4.77-14.32a1 1 0 0 1 .95-.68h39.6a1 1 0 0 1 .93.63L58 30z" fill="#1976d2"/><path d="M57 30v34H7V30h12.64l11.72-9.77c.37-.31.91-.31 1.28 0L44.36 30H57z" fill="#5e9fdf"/><path d="M60 32H44c-.51 0 .47.69-12-9.7C19.51 32.71 20.51 32 20 32H4c-1.32 0-1.32-2 0-2h15.64l11.72-9.77c.37-.31.91-.31 1.28 0L44.36 30H60c1.32 0 1.32 2 0 2zM39 64H25v-9c0-3.87 3.13-7 7-7s7 3.13 7 7v9z" fill="#1976d2"/><path d="M39 32v13H25V32l7-6 7 6z" fill="#5e9fdf"/><path d="M10 35h10v10H10zm0 13h10v14H10zm34-13h10v10H44zm0 13h10v14H44z" fill="#fdfdfd"/><path d="M41.22,15c-4.34,6.67-14.11,6.66-18.44,0h18.44Z" fill="#1976d2"/><circle cx="32" cy="9" r="9" fill="#d38e2a"/><path d="M34.13 10.88c-1.15-1.14-3.1-1.14-4.26 0-.95.93-2.35-.5-1.4-1.42a5 5 0 0 1 7.06 0c.94.93-.47 2.34-1.4 1.42zm3.53-2.54c-.63 0-.66-.38-1.57-1.02-2.73-1.96-6.63-1.69-9.04.73-.94.94-2.35-.48-1.41-1.42 3.54-3.53 9.23-3.49 12.73 0 .63.63.18 1.71-.71 1.71zM33 13c0-1.32-2-1.32-2 0s2 1.32 2 0z" fill="#fdfdfd"/><g fill="#1976d2"><path d="M48 35h2v10h-2z"/><path d="M44 41v-2h10v2zm4 7h2v14h-2zM14 35h2v10h-2z"/><path d="M10 41v-2h10v2zm4 7h2v14h-2zm30 8v-2h10v2z"/><path d="M10 56v-2h10v2zm27 1c0-1.32-2-1.32-2 0s2 1.32 2 0z"/></g></svg>