<svg xmlns="http://www.w3.org/2000/svg" viewBox="0 0 64 64" xmlns:v="https://vecta.io/nano"><rect x="14" y="13" width="36" height="38" rx="3" fill="#1976d2"/><rect x="17" y="16" width="30" height="32" rx="1" fill="#f3f3f3"/><path d="M47 13H17l4-13h22l4 13zm0 38H17l4 13h22l4-13z" fill="#1976d2"/><path d="M50 21h2c1.1 0 2 .9 2 2v6c0 1.1-.9 2-2 2h-2V21h0z" fill="#d38e2a"/><circle cx="32" cy="43" r="2" fill="#5e9fdf"/><circle cx="41" cy="43" r="2" fill="#1976d2"/><circle cx="23" cy="43" r="2" fill="#5e9fdf"/><g fill="#d38e2a"><path d="M39.71,34.37c-4.01,4.83-11.4,4.85-15.42,0,3.49-5.83,11.93-5.82,15.42,0Z"/><circle cx="32" cy="25" r="3"/><path d="M40.9 32.54a11.05 11.05 0 0 0-5.4-3.97c3.19-3.16.95-8.57-3.5-8.57s-6.69 5.42-3.5 8.57a11.05 11.05 0 0 0-5.4 3.97C19.74 26.1 24.4 18 32 18s12.27 8.09 8.9 14.54z"/></g></svg>