<svg xmlns="http://www.w3.org/2000/svg" xmlns:xlink="http://www.w3.org/1999/xlink" viewBox="0 0 64 64" xmlns:v="https://vecta.io/nano"><path d="M52 6v52c0 3.31-2.69 6-6 6H18c-3.31 0-6-2.69-6-6V6c0-3.31 2.69-6 6-6l29.2.12C49.91.67 52 3.08 52 6z" fill="#5e9fdf"/><path d="M43,58H21c-1.34,0-1.29-2,0-2h22c1.34,0,1.29,2,0,2Z" fill="#d9d9d9"/><rect x="14" y="2" width="36" height="58" rx="4" fill="#fff"/><path d="M18 2h2v11h-6V6a4 4 0 0 1 4-4z" fill="#5e9fdf"/><path d="M20 2h6v11h-6z" fill="#1976d2"/><path d="M26 2h6v11h-6z" fill="#5e9fdf"/><path d="M32 2h6v11h-6z" fill="#1976d2"/><path d="M38 2h6v11h-6z" fill="#5e9fdf"/><g fill="#1976d2"><path d="M44 2h2a4 4 0 0 1 4 4v7h-6V2h0z"/><use xlink:href="#B"/><use xlink:href="#B" x="6"/><use xlink:href="#B" x="12"/><use xlink:href="#B" x="18"/><use xlink:href="#B" x="24"/><use xlink:href="#B" x="30"/></g><path d="M43,58H21c-1.34,0-1.29-2,0-2h22c1.34,0,1.29,2,0,2Z" fill="#d9d9d9"/><g fill="#d38e2a"><path d="M43,32H21c-1.34,0-1.29-2,0-2h22c1.34,0,1.29,2,0,2Z"/><path d="M38.46 44H25.54c-1.47 0-2.72-1.06-2.96-2.51L21 32h22l-1.58 9.49c-.24 1.45-1.49 2.51-2.96 2.51z"/><path d="M24 32c-.84 0-1.31-.98-.77-1.64l5-6c.85-1.01 2.38.26 1.54 1.28C24.42 32.06 24.65 32 24 32zm16 0c-.65 0-.44.03-5.77-6.36-.85-1.02.69-2.3 1.54-1.28l5 6c.55.66.07 1.64-.77 1.64z"/></g><g fill="#fff"><use xlink:href="#C"/><use xlink:href="#C" x="4"/><use xlink:href="#C" x="8"/><use xlink:href="#C" x="12"/></g><defs ><path id="B" d="M17,17c-1.66,0-3-1.34-3-3v-1h6v1c0,1.66-1.34,3-3,3Z"/><path id="C" d="M25,41v-6c0-1.34,2-1.29,2,0v6c0,1.34-2,1.29-2,0Z"/></defs></svg>