<svg xmlns="http://www.w3.org/2000/svg" viewBox="0 0 64 64" xmlns:v="https://vecta.io/nano"><path d="M50 4v48a4 4 0 0 1-4 4H22a4 4 0 0 1-4-4V4c0-1.65.99-3.06 2.42-3.67C21.48-.13 19.88 0 46 0a4 4 0 0 1 4 4z" fill="#5e9fdf"/><path d="M48 4v46c0 1.1-.9 2-2 2H22c-1.1 0-2-.9-2-2V4c0-1.1.89-1.99 1.99-2 5.75 0 5.92-.18 6.29.55.31.63.52 1.45 1.34 1.45h8.76c.38 0 .73-.21.9-.55C40.2 1.57 39.39 2 46 2c1.1 0 2 .9 2 2z" fill="#fff"/><path d="M43,50H25c-1.32,0-1.32-2,0-2h18c1.32,0,1.32,2,0,2Z" fill="#d9d9d9"/><path d="M50 41.37V52a4 4 0 0 1-4 4h-1.1l-4.55-4H46c1.1 0 2-.9 2-2V39.85l2 1.52z" fill="#1976d2"/><path d="M48 39.85V50c0 1.1-.9 2-2 2h-5.65c-.93-.82-1.4-1.18-2.09-2H43c1.32 0 1.32-2 0-2h-6.02c-1.57-3.26-1.29-7.25 1.02-10.34a4.3 4.3 0 0 1 6.07-.81l3.93 3z" fill="#f3f3f3"/><path d="M43 50h-4.74a9.84 9.84 0 0 1-1.28-2H43c1.32 0 1.32 2 0 2z" fill="#c8c8c8"/><g fill="#d38e2a"><path d="M58 29.72c0 34.02.33 27.61-1 34.28H32v-4l-3-4h17c0-2.51-1.37-3.12-5.06-6.14-5.91-4.84-1.66-14.23 1.9-11.43L50 44V20l5.95 5.21c1.3 1.14 2.05 2.78 2.05 4.51zM18 38v8l-.84-.42c-3.41-1.71-4.45-6.8-1.16-7.77.69-.2 1.37-.12 2 .19z"/><path d="M18 30v8l-.84-.42c-3.41-1.71-4.45-6.8-1.16-7.77.69-.2 1.37-.12 2 .19z"/></g><g fill="#e4c290"><path d="M18,30v8c-.87-.44-1.36-.64-2-1.19v-7c.69-.2,1.37-.12,2,.19Z"/><path d="M18 38v8c-.87-.44-1.36-.64-2-1.19v-7c.69-.2 1.37-.12 2 .19zm34-16.25V45.6L50 44V20l2 1.75zm-6 34.24c0 .83-.65 2.01-2.01 2.01H30.5L29 56h17z"/></g><g fill="#1976d2"><rect x="22" y="10" width="10" height="10" rx="1"/><rect x="36" y="10" width="10" height="10" rx="1"/><rect x="22" y="24" width="10" height="10" rx="1"/><rect x="36" y="24" width="10" height="10" rx="1"/></g><g fill="#f3f3f3"><path d="M29 16h-1v-2h1c1.32 0 1.32-2 0-2h-1c-1.1 0-2 .9-2 2v2c-1.32 0-1.32 2 0 2v2h2v-2h1c1.32 0 1.32-2 0-2zm15-3.1c-.32.71-.27.57-.3.74.02 2.81-2.55 5.2-5.68 4.06.69-.31 2.16-1.44 1.54-1.83-1.12-.7-1.79-2.09-1.47-3.71.53.81 1.25 1.31 2.12 1.46.17.03.33-.09.36-.27.26-1.38 1.92-1.82 2.77-.75.08.1.14.1.67.3zM25 27.14v3.71a.58.58 0 0 0 .92.46l2.47-1.86a.57.57 0 0 0 0-.92l-2.47-1.86a.58.58 0 0 0-.92.46z"/><circle cx="41" cy="29" r="2"/><path d="M45,26c0-1.32-2-1.32-2,0s2,1.32,2,0Z"/></g></svg>