<svg xmlns="http://www.w3.org/2000/svg" viewBox="0 0 64 64" xmlns:v="https://vecta.io/nano"><path d="M64 3v10c0 1.66-1.34 3-3 3h-3v-5h3c1.32 0 1.32-2 0-2h-3V7c0-.55.45-1 1-1h2c1.32 0 1.32-2 0-2h-2a3.01 3.01 0 0 0-3 3v2h-1c-1.32 0-1.32 2 0 2h1v5h-5c-1.66 0-3-1.34-3-3V3c0-1.66 1.34-3 3-3h10c1.66 0 3 1.34 3 3zM13 0H3C1.34 0 0 1.34 0 3v10c0 1.66 1.34 3 3 3h10c1.66 0 3-1.34 3-3V3c0-1.66-1.34-3-3-3zm-.41 5.73c.03 4.6-4.2 8.67-9.56 6.77 1.13-.51 2-1.27 2.73-2.23.21-.27.14-.64-.14-.83C3.75 8.3 2.59 6.01 3.14 3.26c.89 1.36 2.11 2.19 3.56 2.43.29.05.56-.15.61-.45.44-2.31 3.25-3.02 4.67-1.24.15.21.22.15 1.02 0l-.41 1.73zM61 48H51c-1.66 0-3 1.34-3 3v10c0 1.66 1.34 3 3 3h10c1.66 0 3-1.34 3-3V51c0-1.66-1.34-3-3-3zm-2.25 8.83l-3.2 2.13c-.66.45-1.55-.03-1.55-.83v-4.26c0-.8.89-1.28 1.55-.83l3.2 2.13a.99.99 0 0 1 0 1.66z" fill="#1976d2"/><circle cx="8" cy="56" r="3" fill="#5e9fdf"/><path d="M0 51v10c0 1.66 1.34 3 3 3h10c1.66 0 3-1.34 3-3V51c0-1.66-1.34-3-3-3H3c-1.66 0-3 1.34-3 3zm8 10c-2.76 0-5-2.24-5-5s2.24-5 5-5 5 2.24 5 5-2.24 5-5 5zm5-9c-1.32 0-1.32-2 0-2s1.32 2 0 2z" fill="#1976d2"/><path d="M41,41V21c0-1.34,2-1.29,2,0v20c0,1.34-2,1.29-2,0Z" fill="#5e9fdf"/><path d="M23 39l.45 1.68c.49 2.92-3.34 4.2-3.53 2.68L19 35.99h5l-1 3z" fill="#1976d2"/><path d="M20 25h5c.55 0 1 .45 1 1v10c0 .55-.45 1-1 1h-5c-1.1 0-2-.9-2-2v-8c0-1.1.9-2 2-2z" fill="#5e9fdf"/><path d="M41 21v20a40.25 40.25 0 0 0-15-5V26c5.1-.64 10.22-2.27 15-5z" fill="#f3f3f3"/><path d="M15 27h3v8h-3c-.55 0-1-.45-1-1v-6c0-.55.45-1 1-1z" fill="#1976d2"/><circle cx="8" cy="56" r="3" fill="#d38e2a"/><circle cx="8" cy="56" r="3" fill="#1976d2"/><path d="M45 9H19c-1.34 0-1.29-2 0-2h26c1.34 0 1.29 2 0 2zm10 36V19c0-1.34 2-1.29 2 0v26c0 1.34-2 1.29-2 0zM19 55h26c1.34 0 1.29 2 0 2H19c-1.34 0-1.29-2 0-2zM9 19v26c0 1.34-2 1.29-2 0V19c0-1.34 2-1.29 2 0z" fill="#d38e2a"/></svg>