<svg xmlns="http://www.w3.org/2000/svg" viewBox="0 0 64 64" xmlns:v="https://vecta.io/nano"><path d="M0 42h64v6H0z" fill="#c8c8c8"/><path d="M11 20h8.81l-1.05 6H8l3-6zm20 0v6H20.8l1.05-6H31zm12.2 6H33v-6h9.15l1.05 6zM56 26H45.24l-1.05-6H53l3 6zM7 28h11.42l-1.05 6H4l3-6zm24 0v6H19.41l1.04-6H31zm13.59 6H33v-6h10.55l1.04 6zM60 34H46.63l-1.05-6H57l3 6zM3 36h14.02l-1.01 5.83c-.04.25 1.31.17-16.01.17l3-6zm28 0v6H18.02l1.04-6H31zm14.98 6H33v-6h11.94l1.04 6zM64 42c-17.84 0-15.97.07-16.01-.17L46.98 36H61l3 6z" fill="#d9d9d9"/><path d="M39 50H25c-1.1 0-2-.9-2-2 0-.1-.84 0 18 0 0 .81-.63 2-2 2zM24 60h16c1.1 0 2 .9 2 2v2H22v-2c0-1.1.9-2 2-2z" fill="#1976d2"/><path d="M29 50h6v10h-6z" fill="#5e9fdf"/><circle cx="32" cy="9" r="9" fill="#d38e2a"/><path d="M34.13 11.88c-1.15-1.14-3.1-1.14-4.26 0-.95.93-2.35-.5-1.4-1.42a5 5 0 0 1 7.06 0c.94.93-.47 2.34-1.4 1.42zm3.53-2.54c-.63 0-.66-.38-1.57-1.02-2.73-1.96-6.63-1.69-9.04.73-.94.94-2.35-.48-1.41-1.42 3.54-3.53 9.23-3.49 12.73 0 .63.63.18 1.71-.71 1.71zM33 14c0-1.32-2-1.32-2 0s2 1.32 2 0z" fill="#fdfdfd"/></svg>