<svg xmlns="http://www.w3.org/2000/svg" viewBox="0 0 64 64" xmlns:v="https://vecta.io/nano"><rect y="15" width="64" height="46" rx="3" fill="#1976d2"/><g fill="#f3f3f3"><path d="M32 15.41V58c-1.28-1.28-3.02-2-4.83-2H4V12h24.59c1.92 0 3.41 1.56 3.41 3.41z"/><path d="M32 15.41V58c1.28-1.28 3.02-2 4.83-2H60V12H35.41C33.49 12 32 13.56 32 15.41z"/></g><path d="M36 17h21v12H36zM8 17h12v18H8zm28 14h17v2H36zm0 4h21v2H36zm0 4h21v2H36zm0 4h21v2H36zm0 4h21v2H36zm0 4h21v2H36zM22 17h6v2h-6zm0 4h6v2h-6zm0 4h6v2h-6zm0 4h6v2h-6zm0 4h6v2h-6zm-12 4h18v2H10zm0 4h18v2H10zm0 4h18v2H10zm0 4h18v2H10z" fill="#d9d9d9"/><g fill="#d38e2a"><path d="M11 12v47l-2-2-2 2V12c0-1.1.9-2 2-2 .81 0 2 .63 2 2zm42 52l-2-9 9 2-7 7z"/><path d="M53.001 58.992l2.001-2.001 4.999 4.999L58 63.991zM39.91 8.89l1.38-.79c.48-.28.65-.89.37-1.37l-2-3.46a1.01 1.01 0 0 0-1.37-.37l-1.37.8c-.58-.46-1.23-.83-1.92-1.11V1c0-.55-.45-1-1-1h-4c-.55 0-1 .45-1 1v1.59c-.69.28-1.34.65-1.92 1.11l-1.37-.8c-.48-.28-1.09-.11-1.37.37l-2 3.46c-.28.48-.11 1.09.37 1.37l1.38.79a6.89 6.89 0 0 0 0 2.22l-1.38.79c-.48.28-.65.89-.37 1.37l2 3.46a1.01 1.01 0 0 0 1.37.37l1.37-.8c.58.46 1.23.83 1.92 1.11V19c0 .55.45 1 1 1h4c.55 0 1-.45 1-1v-1.59c.69-.28 1.34-.65 1.92-1.11l1.37.8c.48.28 1.09.11 1.37-.37l2-3.46c.28-.48.11-1.09-.37-1.37l-1.38-.79a6.89 6.89 0 0 0 0-2.22zM32 14a4 4 0 1 1 0-8 4 4 0 1 1 0 8z"/></g></svg>