<svg xmlns="http://www.w3.org/2000/svg" xmlns:xlink="http://www.w3.org/1999/xlink" viewBox="0 0 64 64" xmlns:v="https://vecta.io/nano"><path d="M52 8v48a8 8 0 0 1-8 8H20a8 8 0 0 1-8-8V8a8 8 0 0 1 8-8h24a8 8 0 0 1 8 8z" fill="#1976d2"/><path d="M49 9v45c0 3.31-2.69 6-6 6H21c-3.31 0-6-2.69-6-6V9c0-3.38 2.75-6 6-6h3.29a.98.98 0 0 1 .94.68l.31.95A2.01 2.01 0 0 0 27.44 6h9.12a2.01 2.01 0 0 0 1.9-1.37l.31-.94a1 1 0 0 1 .95-.69H43c3.31 0 6 2.69 6 6z" fill="#fff"/><g fill="#5e9fdf"><circle cx="32" cy="43" r="8"/><path d="M39.78 51.78c-.88 0-1.34-1.07-.71-1.71 3.85-3.85 3.94-9.97.2-13.93-.38-.4-.36-1.03.04-1.41s1.04-.36 1.41.04c4.49 4.75 4.38 12.1-.24 16.72a.98.98 0 0 1-.71.29zm-15.56 0c-.26 0-.51-.1-.71-.29-4.68-4.68-4.68-12.29 0-16.97.39-.39 1.02-.39 1.41 0s.39 1.02 0 1.41a10.01 10.01 0 0 0 0 14.14 1.01 1.01 0 0 1-.71 1.71z"/></g><path d="M35.95 44.71l-.98-.98a.99.99 0 0 0-1.02-.24l-1.54.51L31 42.59l.51-1.54c.12-.36.03-.76-.24-1.02l-.98-.98c-1.35-1.35-3.52 2.13-1.41 4.24l2.83 2.83c2.1 2.1 5.61-.05 4.24-1.41z" fill="#fff"/><g fill="#d9d9d9"><path d="M42 58H22c-.55 0-1-.45-1-1 0-.29.22-1 1-1h20c.55 0 1 .45 1 1 0 .29-.22 1-1 1z"/><circle cx="44" cy="6" r="1"/></g><path d="M49 9h3v20h-3zM12 9h3v20h-3z" fill="#1976d2"/><path d="M49 9v20H36.96l-2.62 3.27c-1.19 1.51-3.49 1.51-4.68 0L27.04 29H15V9h34z" fill="#f3f3f3"/><path d="M7 13v12c0 1.1.9 2 2 2h18.04c.61 0 1.18.28 1.56.75l2.62 3.27a1 1 0 0 0 1.56 0l2.62-3.27c.38-.47.95-.75 1.56-.75H55c1.1 0 2-.9 2-2V13c0-1.1-.9-2-2-2H9c-1.1 0-2 .9-2 2z" fill="#d38e2a"/><g fill="#fff"><use xlink:href="#B"/><use xlink:href="#B" x="20"/><path d="M32 24a4 4 0 0 1-4-4v-2a4 4 0 1 1 8 0v2a4 4 0 0 1-4 4zm0-8c-1.1 0-2 .9-2 2v2c0 1.1.9 2 2 2s2-.9 2-2v-2c0-1.1-.9-2-2-2z"/><use xlink:href="#C"/><circle cx="13" cy="24" r="1"/><use xlink:href="#C" x="38"/><circle cx="51" cy="24" r="1"/></g><defs ><path id="B" d="M22,24h-2c-.55,0-1-.45-1-1s.45-1,1-1h2c.55,0,1-.45,1-1s-.45-1-1-1c-1.65,0-3-1.35-3-3s1.35-3,3-3h2c.55,0,1,.45,1,1s-.45,1-1,1h-2c-.55,0-1,.45-1,1s.45,1,1,1c1.65,0,3,1.35,3,3s-1.35,3-3,3Z"/><path id="C" d="M13 21h0c-.57 0-1.05-.43-1.12-.99l-.63-5.02c-.13-1.05.69-1.98 1.75-1.98h0c1.06 0 1.88.93 1.75 1.98l-.63 5.02c-.07.57-.55.99-1.12.99z"/></defs></svg>