<svg xmlns="http://www.w3.org/2000/svg" viewBox="0 0 64 64" xmlns:v="https://vecta.io/nano"><path d="M61 24v34c0 .6-.27 1.14-.69 1.5-.35.32-.81.5-1.31.5H5c-.5 0-.96-.18-1.31-.5-.42-.36-.69-.9-.69-1.5V24h58z" fill="#5e9fdf"/><path d="M61 24L32 46 3 24 32 2l29 22z" fill="#1976d2"/><path d="M53 2v28.07L32 46 11 30.07V2c0-1.1.9-2 2-2h38c1.1 0 2 .9 2 2z" fill="#f3f3f3"/><path d="M8.18 2.99L1.33 13.77C.44 15.17 1.46 17 3.15 17h13.7c1.68 0 2.71-1.82 1.82-3.23L11.82 2.99a2.17 2.17 0 0 0-3.64 0z" fill="#d38e2a"/><g fill="#f3f3f3"><rect x="9" y="5" width="2" height="6" rx="1"/><circle cx="10" cy="14" r="1"/></g><g fill="#d9d9d9"><path d="M41.19 27.78L24.22 10.81c.78-.78.78-2.05 0-2.83s-2.05-.78-2.83 0a1.99 1.99 0 0 0-.51.9 1.99 1.99 0 0 0-.9.51c-.78.78-.78 2.05 0 2.83s2.05.78 2.83 0l16.97 16.97c-.78.78-.78 2.05 0 2.83s2.05.78 2.83 0a1.99 1.99 0 0 0 .51-.9 1.99 1.99 0 0 0 .9-.51c.78-.78.78-2.05 0-2.83s-2.05-.78-2.83 0z"/><path d="M41.19 12.22L24.22 29.19c.78.78.78 2.05 0 2.83s-2.05.78-2.83 0a1.99 1.99 0 0 1-.51-.9 1.99 1.99 0 0 1-.9-.51c-.78-.78-.78-2.05 0-2.83s2.05-.78 2.83 0l16.97-16.97c-.78-.78-.78-2.05 0-2.83s2.05-.78 2.83 0a1.99 1.99 0 0 1 .51.9 1.99 1.99 0 0 1 .9.51c.78.78.78 2.05 0 2.83s-2.05.78-2.83 0z"/></g><path d="M41 19c0-5.31-4.6-9.54-10.03-8.94-4.14.46-7.49 3.84-7.92 7.98-.35 3.38 1.18 6.43 3.66 8.24.39.28.68.68.77 1.15l.23 1.13a1.81 1.81 0 0 0 1.77 1.45h5.04a1.81 1.81 0 0 0 1.77-1.45l.23-1.13c.09-.47.38-.87.77-1.15 2.25-1.64 3.72-4.28 3.72-7.27z" fill="#d38e2a"/><path d="M27.795 17.602l1.874.699c1.031.385 1.559 1.542 1.175 2.573h0c-.385 1.031-1.542 1.559-2.573 1.175h0c-1.555-.58-2.342-2.304-1.762-3.859h0c.192-.515.771-.78 1.286-.587z" fill="#e4c290"/><path d="M60.31 59.5c-.35.32-.81.5-1.31.5H5c-.5 0-.96-.18-1.31-.5l25.96-18.8c1.4-1.01 3.3-1.01 4.7 0l13.55 9.81 12.41 8.99z" fill="#1976d2"/><path d="M35.729 22.049h0c-1.031.385-2.188-.144-2.573-1.175h0c-.385-1.031.144-2.188 1.175-2.573l1.874-.699c.515-.192 1.094.072 1.286.587h0c.58 1.555-.207 3.279-1.762 3.859z" fill="#e4c290"/><g fill="#1976d2"><path d="M61 55.25V58c0 .6-.27 1.14-.69 1.5L47.9 50.51l1.69-2.76c.73-1.2 2.01-1.91 3.41-1.91s2.68.71 3.41 1.91l4.59 7.5z"/><path d="M60.31 59.5c-.35.32-.81.5-1.31.5H42.1l.05-.09 5.75-9.4 12.41 8.99z"/></g><path d="M51.19 48.79l-7.88 12.16c-.86 1.33.15 3.04 1.81 3.04h15.75c1.66 0 2.67-1.71 1.81-3.04L54.8 48.79c-.83-1.28-2.79-1.28-3.62 0z" fill="#d38e2a"/><g fill="#f3f3f3"><rect x="52" y="52" width="2" height="6" rx="1"/><circle cx="53" cy="61" r="1"/></g></svg>