<svg xmlns="http://www.w3.org/2000/svg" xmlns:xlink="http://www.w3.org/1999/xlink" viewBox="0 0 64 64" xmlns:v="https://vecta.io/nano"><rect y="4" width="50" height="56" rx="2" fill="#f3f3f3"/><path d="M54 10h6v43h-6z" fill="#d38e2a"/><path d="M60 53l-3 7-3-7h6z" fill="#5e9fdf"/><path d="M63 34c-.55 0-1-.45-1-1V12c0-1.1-.9-2-2-2h-6c-.55 0-1-.45-1-1s.45-1 1-1h6a4 4 0 0 1 4 4v21c0 .55-.45 1-1 1z" fill="#1976d2"/><path d="M57 4c-.81 0-2 .63-2 2v2h4V6c0-1.1-.9-2-2-2z" fill="#e4c290"/><path d="M58.29 57L57 60l-1.29-3h2.58z" fill="#1976d2"/><path d="M2,60H48v2c0,1.1-.9,2-2,2H4c-1.1,0-2-.9-2-2v-2h0Z" fill="#5e9fdf"/><g fill="#d38e2a"><use xlink:href="#B"/><use xlink:href="#B" x="10"/><use xlink:href="#B" x="20"/><use xlink:href="#B" x="30"/></g><path d="M20 14h26v2H20zm0 4h16v2H20z" fill="#d9d9d9"/><g fill="#5e9fdf"><circle cx="9" cy="17" r="5"/><use xlink:href="#C"/></g><path d="M20 30h26v2H20zm0 4h16v2H20z" fill="#d9d9d9"/><g fill="#5e9fdf"><circle cx="9" cy="33" r="5"/><use xlink:href="#C" y="16"/></g><path d="M20 46h26v2H20zm0 4h16v2H20z" fill="#d9d9d9"/><g fill="#5e9fdf"><circle cx="9" cy="49" r="5"/><use xlink:href="#C" y="32"/></g><defs ><path id="B" d="M10 8c-.81 0-2-.63-2-2V2c0-1.1.9-2 2-2 .81 0 2 .63 2 2v4c0 1.1-.9 2-2 2z"/><path id="C" d="M10 19c-.54 0-.57-.15-2.71-2.29-.39-.39-.39-1.02 0-1.41s1.02-.39 1.41 0l1.29 1.29 3.29-3.29c.39-.39 1.02-.39 1.41 0s.39 1.02 0 1.41l-4 4a.98.98 0 0 1-.71.29z"/></defs></svg>