<svg xmlns="http://www.w3.org/2000/svg" viewBox="0 0 64 64" xmlns:v="https://vecta.io/nano"><path d="M62,11V50H2V11c0-1.66,1.34-3,3-3H59c1.66,0,3,1.34,3,3Z" fill="#1976d2"/><path d="M1 50h62c.55 0 1 .45 1 1v2c0 1.66-1.34 3-3 3H3c-1.66 0-3-1.34-3-3v-2c0-.55.45-1 1-1z" fill="#5e9fdf"/><path d="M60 11v37H4V11c0-.55.45-1 1-1h54c.55 0 1 .45 1 1z" fill="#fff"/><path d="M39 52H25c-1.1 0-2-.9-2-2 0-.1-.84 0 18 0 0 .81-.63 2-2 2z" fill="#f3f3f3"/><g fill="#5e9fdf"><path d="M5 10h54c.55 0 1 .45 1 1v3H4v-3c0-.55.45-1 1-1z"/><path d="M18,10h17c1.66,0,3,1.34,3,3v1H18v-4h0Z"/></g><path d="M5 10h14c1.66 0 3 1.34 3 3v3H4v-5c0-.55.45-1 1-1z" fill="#fff"/><path d="M54 48h-6c0-4.42-1.79-8.42-4.68-11.32l4.24-4.24A21.93 21.93 0 0 1 54 48z" fill="#d38e2a"/><path d="M47.56,32.44l-4.24,4.24c-6.26-6.24-16.38-6.24-22.64,0l-4.24-4.24c8.58-8.58,22.52-8.6,31.12,0Z" fill="#5e9fdf"/><path d="M48 48a16 16 0 1 0-32 0" fill="#f3f3f3"/><path d="M20.68 36.68C17.79 39.58 16 43.58 16 48h-6a21.93 21.93 0 0 1 6.44-15.56l4.24 4.24z" fill="#5e9fdf"/><path d="M33.41 48L32 46.59l5.66-7.08 3.53-.7-.71 3.53L33.41 48z" fill="#1976d2"/><path d="M36 48a4 4 0 1 0-8 0" fill="#5e9fdf"/><path d="M32 22C17.66 22 6 33.66 6 48h2c0-13.23 10.77-24 24-24s24 10.77 24 24h2c0-14.34-11.66-26-26-26z" fill="#f3f3f3"/><path d="M7 17h12v2H7zm3 4h6v2h-6z" fill="#5e9fdf"/><path d="M45 17h12v2H45zm3 4h6v2h-6z" fill="#d38e2a"/></svg>