<svg xmlns="http://www.w3.org/2000/svg" viewBox="0 0 64 64" xmlns:v="https://vecta.io/nano"><g fill="#5e9fdf"><path d="M6 0h52c1.1 0 2 .9 2 2v4H4V2c0-1.1.9-2 2-2z"/><path d="M17 0h19a4 4 0 0 1 4 4v2H17V0h0z"/></g><path d="M60 6v42c0 1.1-.9 2-2 2H6c-1.1 0-2-.9-2-2V2c0-1.1.9-2 2-2h12a4 4 0 0 1 4 4v2h38z" fill="#f3f3f3"/><circle cx="32" cy="28" r="16" fill="#d9d9d9"/><path d="M22 33h-2c-1.32 0-1.32-2 0-2h2c1.32 0 1.32-2 0-2a3.01 3.01 0 0 1-3-3 3.01 3.01 0 0 1 3-3h2c1.32 0 1.32 2 0 2h-2c-1.32 0-1.32 2 0 2a3.01 3.01 0 0 1 3 3 3.01 3.01 0 0 1-3 3zm12-2h-3v-2h2c1.32 0 1.32-2 0-2h-2v-2h3c1.32 0 1.32-2 0-2h-3c-1.1 0-2 .9-2 2v6c0 1.1.9 2 2 2h3c1.32 0 1.32-2 0-2zm8 2a3.01 3.01 0 0 1-3-3v-4a3.01 3.01 0 0 1 3-3 3.01 3.01 0 0 1 3 3v4a3.01 3.01 0 0 1-3 3zm-1-7v4c0 1.32 2 1.32 2 0v-4c0-1.32-2-1.32-2 0z" fill="#c8c8c8"/><path d="M57 3c0-1.32-2-1.32-2 0s2 1.32 2 0zm-4 0c0-1.32-2-1.32-2 0s2 1.32 2 0z" fill="#1976d2"/><path d="M49,3c0-1.32-2-1.32-2,0s2,1.32,2,0Z" fill="#f3f3f3"/><path d="M37,3c0-1.32-2-1.32-2,0s2,1.32,2,0Z" fill="#1976d2"/><path d="M19,3c0-1.32-2-1.32-2,0s2,1.32,2,0Z" fill="#d38e2a"/><path d="M44.96,50H15.04c-.36-3.96,1.17-8.57,4.6-11.83,5.69,6.89,15.84,7.76,22.58,2.14,2.14,2.99,3.02,6.64,2.74,9.69Z" fill="#d9d9d9"/><path d="M42.22 40.31a16.02 16.02 0 0 1-22.58-2.14c6.57-6.32 17.26-5.33 22.58 2.14z" fill="#c8c8c8"/><circle cx="32" cy="49" r="15" fill="#5e9fdf"/><circle cx="32" cy="49" r="10" fill="#f3f3f3"/><path d="M47 49h-5a9.97 9.97 0 0 0-2.93-7.07l3.53-3.53C45.32 41.11 47 44.86 47 49z" fill="#d38e2a"/><path d="M42.6 38.4l-3.53 3.53a10 10 0 0 0-14.14 0L21.4 38.4c5.85-5.87 15.36-5.86 21.2 0z" fill="#1976d2"/><path d="M24.93 41.93A9.97 9.97 0 0 0 22 49h-5c0-4.14 1.68-7.89 4.4-10.6l3.53 3.53z" fill="#5e9fdf"/><g fill="#d38e2a"><circle cx="32" cy="49" r="2"/><path d="M32 50c-.88 0-1.34-1.07-.71-1.71l5-5c.94-.94 2.35.48 1.41 1.41-5.24 5.24-5.12 5.29-5.71 5.29z"/></g></svg>