<svg xmlns="http://www.w3.org/2000/svg" viewBox="0 0 64 64" xmlns:v="https://vecta.io/nano"><path d="M62,11V50H2V11c0-1.66,1.34-3,3-3H59c1.66,0,3,1.34,3,3Z" fill="#5e9fdf"/><path d="M1 50h62c.55 0 1 .45 1 1v2c0 1.66-1.34 3-3 3H3c-1.66 0-3-1.34-3-3v-2c0-.55.45-1 1-1z" fill="#1976d2"/><path d="M60 11v4H20l-4-5h43c.55 0 1 .45 1 1z" fill="#5e9fdf"/><path d="M60 15v33H4V11c0-.55.45-1 1-1h14.08c1.21 0 2.36.55 3.12 1.5l1.6 2c.86 1.03 1.97 1.5 3.12 1.5H60z" fill="#fff"/><path d="M39 52H25c-.81 0-2-.63-2-2h18c0 .81-.63 2-2 2z" fill="#f3f3f3"/><path d="M31 15h2v33h-2z" fill="#5e9fdf"/><g fill="#d38e2a"><path d="M15 21c-.55 0-1-.45-1-1v-1H8v1c0 .55-.45 1-1 1s-1-.45-1-1v-2c0-.55.45-1 1-1h8c.55 0 1 .45 1 1v2c0 .55-.45 1-1 1z"/><path d="M11 27c-.55 0-1-.45-1-1v-8c0-.55.45-1 1-1s1 .45 1 1v8c0 .55-.45 1-1 1z"/><path d="M13 27H9c-.55 0-1-.45-1-1s.45-1 1-1h4c.55 0 1 .45 1 1s-.45 1-1 1z"/></g><path d="M18 17h11v2H18zm0 4h11v2H18zm0 4h11v2H18zM6 29h23v2H6zm0 4h23v2H6zm0 4h23v2H6zm0 4h23v2H6z" fill="#d9d9d9"/><circle cx="20" cy="13" r="1" fill="#5e9fdf"/><rect x="35" y="17" width="23" height="16" rx="2" fill="#d38e2a"/><path d="M49.51 25.86l-5 3c-.66.4-1.51-.09-1.51-.86v-6c0-.77.85-1.26 1.51-.86l5 3c.65.38.65 1.34 0 1.72z" fill="#f3f3f3"/><g fill="#1976d2"><rect x="51" y="35" width="7" height="4" rx="1"/><rect x="51" y="41" width="7" height="4" rx="1"/></g><path d="M38 35h11v2H38zm0 6h11v2H38z" fill="#d9d9d9"/></svg>