<svg xmlns="http://www.w3.org/2000/svg" viewBox="0 0 64 64" xmlns:v="https://vecta.io/nano"><rect x="1" width="46" height="56" rx="2" fill="#f3f3f3"/><path d="M32 7v3.46A12.32 12.32 0 0 1 24 22a12.33 12.33 0 0 1-8-11.54V7l8-3 8 3z" fill="#e4c290"/><path d="M23.65 22.94C18.48 21 15 15.98 15 10.46V7c0-.42.26-.79.65-.94 8.64-3.24 8.21-3.18 8.7-3l8 3c.39.15.65.52.65.94v3.46c0 5.52-3.48 10.54-8.65 12.48-.22.08-.47.09-.7 0zM17 7.7v2.76c0 4.57 2.8 8.73 7 10.47 4.2-1.74 7-5.9 7-10.47V7.7l-7-2.62-7 2.62z" fill="#d38e2a"/><path d="M15 26h26v2H15zm-8 6h34v2H7zm0 6h31v2H7zm0 6h23v2H7z" fill="#d9d9d9"/><path d="M18 64c-.4 0-.23.03-5-2.83l-4.49 2.69A1 1 0 0 1 7 63V50c0-.55.45-1 1-1h10c.55 0 1 .45 1 1v13c0 .55-.45 1-1 1z" fill="#1976d2"/><circle cx="13" cy="49" r="9" fill="#5e9fdf"/><path d="M47 26.5v16.88L37.62 34H41v-2h-4.56l1.71-1.71c1.74-1.74 4.6-2.03 6.71-.3.87-.23 1.21-.15 1.58-.11.61-1.68.24-1.92.56-3.38z" fill="#d9d9d9"/><path d="M41 32v2h-3.38l-1.59-1.59.41-.41H41z" fill="#c8c8c8"/><g fill="#5e9fdf"><circle cx="39" cy="48" r="6"/><path d="M43.814 31.71l8.485 8.485c1.174 1.174 1.174 3.069 0 4.243l-.707.707-12.728-12.728.707-.707c1.174-1.174 3.069-1.174 4.243 0z"/></g><path d="M51.59 36.66l-4.24-4.24c-.57-.57-1.86-.97-2.83 0l7.07 7.07c.57-.57.97-1.86 0-2.83z" fill="#1976d2"/><path d="M60.69,23.14c-4.28-4.13-11.68-1.29-11.85,4.83-.04,1.6-.56,3.14-1.49,4.45l4.24,4.24c1.31-.94,2.85-1.46,4.39-1.49,6.17-.12,9.19-7.7,4.71-12.03Z" fill="#d38e2a"/><path d="M39 51c-.54 0-.57-.15-2.71-2.29-.39-.39-.39-1.02 0-1.41s1.02-.39 1.41 0l1.29 1.29 2.29-2.29c.39-.39 1.02-.39 1.41 0s.39 1.02 0 1.41l-3 3a.98.98 0 0 1-.71.29z" fill="#fff"/><path d="M12.53 52.78l-1.45.76a1 1 0 0 1-1.45-1.05l.28-1.61a.99.99 0 0 0-.29-.89l-1.17-1.14c-.59-.58-.27-1.59.55-1.71l1.62-.24c.33-.05.61-.25.75-.55l.72-1.47c.37-.74 1.43-.74 1.79 0l.72 1.47a1.01 1.01 0 0 0 .75.55l1.62.24c.82.12 1.15 1.13.55 1.71l-1.17 1.14a1.01 1.01 0 0 0-.29.89l.28 1.61a1 1 0 0 1-1.45 1.05l-1.45-.76c-.29-.15-.64-.15-.93 0z" fill="#f3f3f3"/></svg>