<svg xmlns="http://www.w3.org/2000/svg" xmlns:xlink="http://www.w3.org/1999/xlink" viewBox="0 0 64 64" xmlns:v="https://vecta.io/nano"><path d="M56 56c0-1.1.9-2 2-2v-2c-1.1 0-2-.9-2-2s.9-2 2-2v-2c-1.1 0-2-.9-2-2s.9-2 2-2v-2c-1.1 0-2-.9-2-2s.9-2 2-2v-2c-1.1 0-2-.9-2-2s.9-2 2-2v-2c-1.1 0-2-.9-2-2s.9-2 2-2v-2c-1.1 0-2-.9-2-2s.9-2 2-2v-2c-1.1 0-2-.9-2-2s.9-2 2-2v-2c-1.1 0-2-.9-2-2s.9-2 2-2V0h-6c0 1.1-.9 2-2 2s-2-.9-2-2h-2c0 1.1-.9 2-2 2s-2-.9-2-2h-2c0 1.1-.9 2-2 2s-2-.9-2-2h-2c0 1.1-.9 2-2 2s-2-.9-2-2h-2c0 1.1-.9 2-2 2s-2-.9-2-2h-2c0 1.1-.9 2-2 2s-2-.9-2-2h-2c0 1.1-.9 2-2 2s-2-.9-2-2H6v6c1.1 0 2 .9 2 2s-.9 2-2 2v2c1.1 0 2 .9 2 2s-.9 2-2 2v2c1.1 0 2 .9 2 2s-.9 2-2 2v2c1.1 0 2 .9 2 2s-.9 2-2 2v2c1.1 0 2 .9 2 2s-.9 2-2 2v2c1.1 0 2 .9 2 2s-.9 2-2 2v2c1.1 0 2 .9 2 2s-.9 2-2 2v2c1.1 0 2 .9 2 2s-.9 2-2 2v2c1.1 0 2 .9 2 2s-.9 2-2 2v6h6c0-1.1.9-2 2-2s2 .9 2 2h2c0-1.1.9-2 2-2s2 .9 2 2h2c0-1.1.9-2 2-2s2 .9 2 2h2c0-1.1.9-2 2-2s2 .9 2 2h2c0-1.1.9-2 2-2s2 .9 2 2h2c0-1.1.9-2 2-2s2 .9 2 2h2c0-1.1.9-2 2-2s2 .9 2 2h6v-6c-1.1 0-2-.9-2-2z" fill="#1976d2"/><path d="M10 4h44v56H10z" fill="#fdfdfd"/><path d="M10 4h44v28H10z" fill="#5e9fdf"/><circle cx="43" cy="15" r="7" fill="#d38e2a"/><path d="M10 32h44v28H10z" fill="#f3f3f3"/><path d="M14 36h36v20H14z" fill="#d9d9d9"/><path d="M14 28h18v2H14zm0-4h18v2H14z" fill="#f3f3f3"/><g fill="#1976d2"><use xlink:href="#B"/><use xlink:href="#B" y="5"/></g><defs ><path id="B" d="M39 14.12c-1.81 0-2.07-1.24-3-1.24-.21 0-.52.06-.79.33-1.18 1.18-3.24 1.18-4.41 0-.44-.44-1.15-.44-1.59 0-1.18 1.18-3.24 1.18-4.41 0-.27-.27-.58-.33-.79-.33-1.32 0-1.32-2 0-2 1.81 0 2.07 1.24 3 1.24.21 0 .52-.06.79-.33 1.18-1.18 3.24-1.18 4.41 0 .44.44 1.15.44 1.59 0 1.18-1.18 3.24-1.18 4.41 0 .27.27.58.33.79.33 1.32 0 1.32 2 0 2z"/></defs></svg>