<svg xmlns="http://www.w3.org/2000/svg" viewBox="0 0 64 64" xmlns:v="https://vecta.io/nano"><path d="M36 10v2h-8v-2c1.1-1.1 2-1.75 2-3.24V2c0-1.1.9-2 2-2 .81 0 2 .63 2 2 0 6.43-.4 5.6 2 8zm-16.73 3.61l1.41 1.41-5.66 5.66-1.41-1.41c0-1.56.18-2.65-.88-3.71L9.37 12.2c-.78-.78-.78-2.05 0-2.83.57-.57 1.86-.97 2.83 0 4.55 4.55 3.68 4.24 7.07 4.24zM10 28h2v8h-2c-1.1-1.1-1.75-2-3.24-2H2c-1.1 0-2-.9-2-2 0-.81.63-2 2-2 6.43 0 5.6.4 8-2zm3.61 16.73l1.41-1.41 5.66 5.66-1.41 1.41c-1.56 0-2.65-.18-3.71.88l-3.36 3.36c-.78.78-2.05.78-2.83 0-.57-.57-.97-1.86 0-2.83 4.55-4.55 4.24-3.68 4.24-7.07zM28 54v-2h8v2c-1.1 1.1-2 1.75-2 3.24V62c0 1.1-.9 2-2 2-.81 0-2-.63-2-2 0-6.43.4-5.6-2-8zm16.73-3.61l-1.41-1.41 5.66-5.66 1.41 1.41c0 1.56-.18 2.65.88 3.71l3.36 3.36c.78.78.78 2.05 0 2.83-.57.57-1.86.97-2.83 0-4.55-4.55-3.68-4.24-7.07-4.24zM54 36h-2v-8c1.38 0 1.91-.09 2.59.59.98.98 1.28 1.41 2.24 1.41H62c1.1 0 2 .9 2 2 0 .81-.63 2-2 2-6.88 0-5.56-.44-8 2zm-3.62-16.73l-1.41 1.41-5.66-5.66 1.41-1.41c1.56 0 2.65.18 3.71-.88l3.36-3.36c.78-.78 2.05-.78 2.83 0 .57.57.97 1.86 0 2.83-4.55 4.55-4.24 3.68-4.24 7.07z" fill="#1976d2"/><circle cx="32" cy="32" r="9" fill="#d38e2a"/><path d="M32 31c-1.32 0-1.32-2 0-2h2c1.32 0 1.32-2 0-2h-1v-1c0-1.32-2-1.32-2 0l.04 1.17c-3.21 1.1-2.4 5.83.96 5.83 1.32 0 1.32 2 0 2h-2c-1.32 0-1.32 2 0 2h1v1c0 1.32 2 1.32 2 0l-.04-1.17c3.21-1.1 2.4-5.83-.96-5.83z" fill="#fdfdfd"/><path d="M30 13h4v7h-4zm-12.844 6.979l2.828-2.828 4.95 4.95-2.828 2.828zM13 34v-4h7v4zm6.979 12.844l-2.828-2.828 4.95-4.95 2.828 2.828zM34 51h-4v-7h4zm12.844-6.979l-2.828 2.828-4.95-4.95 2.828-2.828zM51 30v4h-7v-4zm-6.98-12.844l2.828 2.828-4.95 4.95-2.828-2.828z" fill="#1976d2"/><path d="M32 11c-11.6 0-21 9.4-21 21s9.4 21 21 21 21-9.4 21-21-9.4-21-21-21zm0 38c-9.39 0-17-7.61-17-17s7.61-17 17-17 17 7.61 17 17-7.61 17-17 17zm0-30c-7.18 0-13 5.82-13 13s5.82 13 13 13 13-5.82 13-13-5.82-13-13-13zm0 24c-6.08 0-11-4.92-11-11s4.92-11 11-11 11 4.92 11 11-4.92 11-11 11z" fill="#5e9fdf"/></svg>