<svg xmlns="http://www.w3.org/2000/svg" viewBox="0 0 64 64" xmlns:v="https://vecta.io/nano"><path d="M5 31l10-10 17 17 28-28v49H5V31" fill="#5e9fdf"/><path d="M32 39c-.6 0 .71 1.12-17-16.59l-9.29 9.3c-.94.94-2.35-.48-1.41-1.41l10-10c.39-.39 1.02-.39 1.41 0L32 36.59l27.29-27.3c.94-.94 2.35.48 1.41 1.41L31.99 38.99z" fill="#1976d2"/><path d="M61,63v-3h2v3c0,1.34-2,1.29-2,0Z" fill="#d9d9d9"/><path d="M14 31v-2c0-1.34 2-1.29 2 0v2c0 1.34-2 1.29-2 0zm0 6v-2c0-1.34 2-1.29 2 0v2c0 1.34-2 1.29-2 0zm0 6v-2c0-1.34 2-1.29 2 0v2c0 1.34-2 1.29-2 0zm0 6v-2c0-1.34 2-1.29 2 0v2c0 1.34-2 1.29-2 0zm0 6v-2c0-1.34 2-1.29 2 0v2c0 1.34-2 1.29-2 0zm17-9v-2c0-1.34 2-1.29 2 0v2c0 1.34-2 1.29-2 0zm0 6v-2c0-1.34 2-1.29 2 0v2c0 1.34-2 1.29-2 0z" fill="#1976d2"/><path d="M63 58c-8.06 0 20.88 0-57 0V5c0-1.32-2-1.32-2 0v1H1C-.32 6-.32 8 1 8h3v4H1c-1.32 0-1.32 2 0 2h3v4H1c-1.32 0-1.32 2 0 2h3v4H1c-1.32 0-1.32 2 0 2h3v4H1c-1.32 0-1.32 2 0 2h3v4H1c-1.32 0-1.32 2 0 2h3v4H1c-1.32 0-1.32 2 0 2h3v4H1c-1.32 0-1.32 2 0 2h3v4H1c-1.32 0-1.32 2 0 2h3v3c0 .55.45 1 1 1h2v3c0 1.32 2 1.32 2 0v-3h4v3c0 1.32 2 1.32 2 0v-3h4v3c0 1.32 2 1.32 2 0v-3h4v3c0 1.32 2 1.32 2 0v-3h4v3c0 1.32 2 1.32 2 0v-3h4v3c0 1.32 2 1.32 2 0v-3h4v3c0 1.32 2 1.32 2 0v-3h4v3c0 1.32 2 1.32 2 0v-3h4v3c0 1.32 2 1.32 2 0v-3h6c1.32 0 1.32-2 0-2z" fill="#d9d9d9"/><rect x="8" width="14" height="14" rx="1" fill="#d38e2a"/><path d="M13,0h4V3c0,.55-.45,1-1,1h-2c-.55,0-1-.45-1-1V0h0Z" fill="#f3f3f3"/><path d="M24 1h14v2H24zm0 4h8v2h-8z" fill="#d9d9d9"/><g fill="#d38e2a"><circle cx="15" cy="22" r="4"/><circle cx="32" cy="37" r="4"/><circle cx="60" cy="10" r="4"/></g><g fill="#e4c290"><circle cx="60" cy="10" r="2"/><circle cx="32" cy="37" r="2"/><circle cx="15" cy="22" r="2"/></g></svg>