<svg xmlns="http://www.w3.org/2000/svg" xmlns:xlink="http://www.w3.org/1999/xlink" viewBox="0 0 64 64" xmlns:v="https://vecta.io/nano"><rect y="2" width="64" height="50" rx="4" fill="#5e9fdf"/><path d="M44,62H20c2.75-2.75,4-6.21,4-10h16c0,4.08,1.44,7.44,4,10Z" fill="#1976d2"/><path d="M46 62H18c-.55 0-1-.45-1-1 0-.29.22-1 1-1h28c.55 0 1 .45 1 1 0 .29-.22 1-1 1zM61 6v15H8V5h52c.55 0 1 .45 1 1z" fill="#5e9fdf"/><path d="M61 10v36c0 .55-.45 1-1 1H4c-.55 0-1-.45-1-1V6c0-.55.45-1 1-1l17 .11a3.98 3.98 0 0 1 2.2 1.39l1.6 2c.76.95 1.91 1.5 3.12 1.5H61z" fill="#fff"/><circle cx="21" cy="8" r="1" fill="#d38e2a"/><g fill="#1976d2"><rect x="27" y="25" width="6" height="16" rx="1"/><use xlink:href="#B"/><path d="M31 25h-2v-1c0-.55.45-1 1-1 .29 0 1 .22 1 1v1z"/></g><g fill="#5e9fdf"><rect x="15" y="29" width="6" height="12" rx="1"/><use xlink:href="#B" x="-12"/><path d="M19 29h-2v-1c0-.55.45-1 1-1 .29 0 1 .22 1 1v1z"/></g><g fill="#1976d2"><rect x="39" y="21" width="6" height="20" rx="1"/><use xlink:href="#B" x="12"/><path d="M43 21h-2v-1c0-.55.45-1 1-1 .29 0 1 .22 1 1v1z"/></g><g fill="#d38e2a"><rect x="51" y="19" width="6" height="22" rx="1"/><use xlink:href="#B" x="24"/><path d="M55 19h-2v-1c0-.55.45-1 1-1 .29 0 1 .22 1 1v1z"/></g><path d="M7 14h14v2H7zm0 4h8v2H7zm0 4h12v2H7zm16-8h2v2h-2zm-6 4h2v2h-2z" fill="#d9d9d9"/><defs ><path id="B" d="M30,43c-.29,0-1-.22-1-1v-1h2v1c0,.55-.45,1-1,1Z"/></defs></svg>