<svg xmlns="http://www.w3.org/2000/svg" viewBox="0 0 64 64" xmlns:v="https://vecta.io/nano"><rect x="14" y="6" width="44" height="56" rx="3" fill="#d38e2a"/><rect x="16" y="8" width="40" height="52" rx="1" fill="#fff"/><path d="M26.82 62H17c-1.66 0-3-1.34-3-3V32h2v27c0 .55.45 1 1 1h9c0 .25-.03.48-.07.72a3.03 3.03 0 0 1 .89 1.28z" fill="#e4c290"/><path d="M26 60h-9c-.55 0-1-.45-1-1V32c1.78 0 2.37-.1 3 .27.61-.36.83-.27 4-.27 1.1 0 2 .9 2 2v9c0 1.44-1.02 2.64-2.37 2.93A1.22 1.22 0 0 0 22 47a10.06 10.06 0 0 0 2 6c1.12 1.49 1.34 1.82.43 3.61C25.35 57.5 26 58.5 26 60z" fill="#f3f3f3"/><path d="M23,34v9c0,.55-.45,1-1,1H8c-.55,0-1-.45-1-1v-9h3v2h2v-2h6v2h2v-2h3Z" fill="#5e9fdf"/><g fill="#1976d2"><path d="M20 47H10c0-1.35-.75-2.37-2-3h14c-1.41.71-2 1.8-2 3z"/><path d="M23,55H7c1.78-2.38,3-4.59,3-8h10c0,3.25,1.08,5.44,3,8Z"/><path d="M23.29 61.71c-.42.42 1.46.29-16.29.29l-.29-.29c-.93-.93-.95-2.46 0-3.41l.27-.27a1.99 1.99 0 0 0 .37-2.31l-.36-.71H23l-.36.71c-.38.77-.23 1.7.37 2.31l.27.27c.93.93.95 2.46 0 3.41z"/><path d="M24,64H6c-1.34,0-1.29-2,0-2H24c1.34,0,1.29,2,0,2Z"/></g><path d="M25 6h22v2H25z" fill="#e4c290"/><path d="M47 8v2a4 4 0 0 1-4 4H29a4 4 0 0 1-4-4V8h22z" fill="#f3f3f3"/><g fill="#d9d9d9"><rect x="27" y="4" width="18" height="8" rx="2"/><path d="M36 0a4 4 0 1 0 0 8 4 4 0 1 0 0-8zm0 6c-1.1 0-2-.9-2-2s.9-2 2-2 2 .9 2 2-.9 2-2 2z"/></g><g fill="#5e9fdf"><path d="M41 15h2v14h-2z"/><path d="M43,17h4c.55,0,1,.45,1,1v5h-5v-6h0Z"/></g><g fill="#1976d2"><path d="M53,20v4c0,.55-.45,1-1,1h-4v-6h4c.55,0,1,.45,1,1Z"/><path d="M48 25l-2.03-2H48"/></g><path d="M35 31c-1.32 0-1.32 2 0 2h1.59L25.3 44.29c-.94.94.48 2.35 1.41 1.41L38 34.41V36c0 1.32 2 1.32 2 0 0-5.88.9-5-5-5z" fill="#d38e2a"/><path d="M50.41 53l2.29-2.29c.94-.94-.48-2.35-1.41-1.41L49 51.59l-2.29-2.29c-.94-.94-2.35.48-1.41 1.41L47.59 53l-2.29 2.29c-.94.94.48 2.35 1.41 1.41L49 54.41l2.29 2.29c.94.94 2.35-.48 1.41-1.41L50.41 53zm-26-26l2.29-2.29c.94-.94-.48-2.35-1.41-1.41L23 25.59l-2.29-2.29c-.94-.94-2.35.48-1.41 1.41L21.59 27l-2.29 2.29c-.94.94.48 2.35 1.41 1.41L23 28.41l2.29 2.29c.94.94 2.35-.48 1.41-1.41L24.41 27z" fill="#d9d9d9"/><path d="M39 45h14v2H39zm4-4h10v2H43zM19 19h14v2H19zm0-4h10v2H19z" fill="#f3f3f3"/><path d="M30 49a3.01 3.01 0 0 0-3 3v2a3.01 3.01 0 0 0 3 3 3.01 3.01 0 0 0 3-3v-2a3.01 3.01 0 0 0-3-3zm1 5c0 1.32-2 1.32-2 0v-2c0-1.32 2-1.32 2 0v2zm6.53-4.85c-.62-.38-.96-.05-2.97.96-1.18.59-.29 2.38.89 1.79l.55-.28V56c0 1.32 2 1.32 2 0 0-6.5.16-6.46-.47-6.85z" fill="#5e9fdf"/></svg>