<svg xmlns="http://www.w3.org/2000/svg" xmlns:xlink="http://www.w3.org/1999/xlink" viewBox="0 0 64 64" xmlns:v="https://vecta.io/nano"><path d="M62,19V58H2V19c0-1.66,1.34-3,3-3H59c1.66,0,3,1.34,3,3Z" fill="#5e9fdf"/><path d="M1 58h62c.55 0 1 .45 1 1v2c0 1.66-1.34 3-3 3H3c-1.66 0-3-1.34-3-3v-2c0-.55.45-1 1-1z" fill="#1976d2"/><path d="M60 19v4H20l-3.29-4.11L16 18h43c.55 0 1 .45 1 1z" fill="#5e9fdf"/><path d="M60 23v33H4V19c0-.55.45-1 1-1h18.08c.69 0 1.35.18 1.94.51.45.24.85.58 1.18.99l1.6 2c.76.95 1.91 1.5 3.12 1.5H60z" fill="#fff"/><path d="M24.02 18.51c-.59-.33-1.25-.51-1.94-.51H5c-.55 0-1 .45-1 1v5H2.69c-.23 0-.46-.02-.69-.07V19c0-1.66 1.34-3 3-3h17.49l1.18 1.82a3.73 3.73 0 0 1 .35.69z" fill="#1976d2"/><path d="M23.83 21.91A4 4 0 0 1 20.31 24H4v-5c0-.55.45-1 1-1h17.08c.69 0 1.35.18 1.94.51a3.98 3.98 0 0 1-.19 3.4z" fill="#f3f3f3"/><path d="M9.37 4.58L.32 18.91C-.52 20.24.41 22 1.95 22h18.1c1.54 0 2.47-1.76 1.63-3.09L12.63 4.58c-.77-1.21-2.49-1.21-3.26 0z" fill="#d38e2a"/><g fill="#f3f3f3"><rect x="10" y="9" width="2" height="6" rx="1"/><circle cx="11" cy="18" r="1"/><path d="M23 58h18c0 1.1-.9 2-2 2H25c-1.1 0-2-.9-2-2h0z"/></g><path d="M28 30h-2.67c-2.13 0-4.18.85-5.69 2.36h0a8.1 8.1 0 0 0-2.16 3.91L12.99 56h8l7-26z" fill="#d38e2a"/><g fill="#5e9fdf"><path d="M44.29 33.04l-9.66-2.89-1.8-2.7c-.18-.28-.5-.45-.83-.45h-2c-.32 0-.63.16-.81.42l-5 7c-.08.11-.14.23-.17.36L19.2 56h21.53l-3.74-12-.63-2v-.04c.83-.13 1.62-.53 2.23-1.13l.9-.91 4.71-.94A1 1 0 0 0 45 38v-4a1.01 1.01 0 0 0-.71-.96z"/><path d="M36.99 44H34a4 4 0 0 1-4-4c0-.55.45-1 1-1s1 .45 1 1c0 1.1.9 2 2 2h2.36l.63 2zM35 35h-2c-.55 0-1-.45-1-1s.45-1 1-1h2c.55 0 1 .45 1 1s-.45 1-1 1z"/></g><g fill="#d9d9d9"><path d="M7 33h8v2H7zm0 4h7v2H7zm0 4h6v2H7zm38 3h12v2H45zm0 4h12v2H45zm0 4h10v2H45z"/><circle cx="53" cy="31" r="4"/><path d="M53 37c-.55 0-1-.45-1-1V26c0-.55.45-1 1-1s1 .45 1 1v10c0 .55-.45 1-1 1z"/><use xlink:href="#B"/><path d="M58 32H48c-.55 0-1-.45-1-1s.45-1 1-1h10c.55 0 1 .45 1 1s-.45 1-1 1z"/><use xlink:href="#C"/></g><g fill="#d38e2a"><circle cx="41" cy="6" r="4"/><path d="M41 12c-.55 0-1-.45-1-1V1c0-.55.45-1 1-1s1 .45 1 1v10c0 .55-.45 1-1 1z"/><use xlink:href="#B" x="-12" y="-25"/><path d="M46 7H36c-.55 0-1-.45-1-1s.45-1 1-1h10c.55 0 1 .45 1 1s-.45 1-1 1z"/><use xlink:href="#C" x="-12" y="-25"/></g><defs ><path id="B" d="M56.54 35.54c-.26 0-.51-.1-.71-.29l-7.07-7.07c-.39-.39-.39-1.02 0-1.41s1.02-.39 1.41 0l7.07 7.07c.39.39.39 1.02 0 1.41a.98.98 0 0 1-.71.29z"/><path id="C" d="M49.46 35.54c-.26 0-.51-.1-.71-.29-.39-.39-.39-1.02 0-1.41l7.07-7.07c.39-.39 1.02-.39 1.41 0s.39 1.02 0 1.41l-7.07 7.07a.98.98 0 0 1-.71.29z"/></defs></svg>