<svg xmlns="http://www.w3.org/2000/svg" viewBox="0 0 64 64" xmlns:v="https://vecta.io/nano"><path d="M3,5H61V50c0,1.66-1.34,3-3,3H6c-1.66,0-3-1.34-3-3V5h0Z" fill="#1976d2"/><path d="M5,5H59V50c0,.55-.45,1-1,1H6c-.55,0-1-.45-1-1V5h0Z" fill="#f3f3f3"/><path d="M61 6H3C1.34 6 0 4.66 0 3s1.34-3 3-3h58c1.66 0 3 1.34 3 3s-1.34 3-3 3z" fill="#5e9fdf"/><g fill="#1976d2"><path d="M31 53h2v6h-2z"/><circle cx="32" cy="61" r="3"/></g><g fill="#d38e2a"><path d="M45,24V11c0-1.34,2-1.29,2,0v13c0,1.34-2,1.29-2,0Z"/><path d="M55.59 14.41L54 16l1.59 1.59c.89.89.26 2.41-1 2.41H47v-8h7.59c1.26 0 1.88 1.53 1 2.41z"/></g><path d="M13 33c-2.76 0-5 2.24-5 5s5 9 5 9 5-6.24 5-9-2.24-5-5-5zm0 7c-1.1 0-2-.9-2-2s.9-2 2-2 2 .9 2 2-.9 2-2 2z" fill="#1976d2"/><path d="M28,41h-6c-1.32,0-1.32-2,0-2h6c1.65,0,3-1.35,3-3v-15c0-2.76,2.24-5,5-5h6c1.32,0,1.32,2,0,2h-6c-1.65,0-3,1.35-3,3v15c0,2.76-2.24,5-5,5Z" fill="#d9d9d9"/><path d="M50.41 42l2.29-2.29c.94-.94-.48-2.35-1.41-1.41L49 40.59l-2.29-2.29c-.94-.94-2.35.48-1.41 1.41L47.59 42l-2.29 2.29c-.94.94.48 2.35 1.41 1.41L49 43.41l2.29 2.29c.94.94 2.35-.48 1.41-1.41L50.41 42zM16.29 10.29L14 12.58l-2.29-2.29c-.94-.94-2.35.48-1.41 1.41l2.29 2.29-2.29 2.29c-.94.94.48 2.35 1.41 1.41L14 15.4l2.29 2.29c.94.94 2.35-.48 1.41-1.41l-2.29-2.29 2.29-2.29c.94-.94-.48-2.35-1.41-1.41z" fill="#c8c8c8"/></svg>