<?xml version="1.0" encoding="UTF-8"?><svg id="a" xmlns="http://www.w3.org/2000/svg" viewBox="0 0 64 64"><defs><style>.b{fill:#5e9fdf;}.c{fill:#fdfdfd;}.d{fill:#d38e2a;}.e{fill:#1976d2;}</style></defs><circle class="d" cx="51" cy="13" r="13"/><g><path class="c" d="M49,18h-4c-.38,0-.73-.22-.9-.57-.17-.35-.12-.76,.12-1.06l3.51-4.39c.3-.37,.35-.86,.15-1.29-.21-.44-.62-.7-1.1-.7-.52,0-.78,.34-.78,1,0,.55-.45,1-1,1s-1-.45-1-1c0-2.37,1.82-3,2.78-3,1.25,0,2.36,.7,2.9,1.83,.54,1.13,.39,2.43-.39,3.4l-2.21,2.76h1.92c.55,0,1,.45,1,1s-.45,1-1,1Zm8-4h-4c-.55,0-1-.45-1-1v-4c0-.55,.45-1,1-1s1,.45,1,1v3h3c.55,0,1,.45,1,1s-.45,1-1,1Z"/><path class="c" d="M57,18c-.55,0-1-.45-1-1V9c0-.55,.45-1,1-1s1,.45,1,1v8c0,.55-.45,1-1,1Z"/></g><path class="b" d="M57,47v11.81c0,.8-.47,1.52-1.19,1.84-.64,.18-7.86,3.9-18.47,3.28C17.34,62.77,1.23,46.64,.07,26.66-.55,15.95,3.21,8.69,3.35,8.19c.32-.72,1.04-1.19,1.84-1.19h11.81c1.1,0,2,.9,2,2v15.93c0,.67-.33,1.29-.88,1.66l-5.99,4.02c-.74,.5-1.05,1.43-.78,2.29,2.89,9.39,10.36,16.86,19.75,19.75,.86,.27,1.79-.04,2.29-.78l4.02-5.99c.37-.55,.99-.88,1.66-.88h15.93c1.1,0,2,.9,2,2Z"/><path class="d" d="M57.51,42.57c-.72,1.05-2.4,0-1.64-1.12,3.22-4.74,4.56-10.38,4.02-15.77-.13-1.3,1.86-1.53,1.99-.23,.58,5.88-.84,11.96-4.36,17.12h-.01ZM38.33,4.12c-5.38-.55-11.02,.78-15.77,4.01-1.13,.77-2.17-.93-1.12-1.64,5.02-3.42,11.08-4.97,17.12-4.36,1.33,.13,1.05,2.12-.23,1.99Z"/><path class="e" d="M19,9v15.93c0,.67-.33,1.29-.88,1.66l-5.12,3.44V7h4c1.1,0,2,.9,2,2ZM57,47v4h-23.03l3.44-5.12c.37-.55,.99-.88,1.66-.88h15.93c1.1,0,2,.9,2,2Z"/></svg>