<svg xmlns="http://www.w3.org/2000/svg" viewBox="0 0 64 64" xmlns:v="https://vecta.io/nano"><path d="M34 41.95V55c0 1.1-.9 2-2 2H2c-1.1 0-2-.9-2-2V41.95c0-1.75 1.15-3.3 2.82-3.82L13 35h8l10.18 3.13c1.67.52 2.82 2.07 2.82 3.82z" fill="#5e9fdf"/><path d="M56.9 21.63c-1.11 8.87-10.72 14.03-18.76 9.97-.76-.4-1.02-.24-4.86.24-.65.08-1.2-.47-1.12-1.12.49-3.92.63-4.12.24-4.86-4.07-8.04 1.14-17.68 9.97-18.76 8.46-1.03 15.56 6.07 14.53 14.53z" fill="#e4c290"/><g fill="#fff"><path d="M40 17v2h2v10h4V17h-6z"/><circle cx="44" cy="13" r="2"/></g><path d="M16 42h2v15h-2z" fill="#1976d2"/><path d="M17,42c-2.76,0-5-2.23-5-5v-3h10v3c0,2.76-2.24,5-5,5Z" fill="#d38e2a"/><g fill="#5e9fdf"><path d="M17 42l-6 3-.91-9.11 2.09-.64L17 42z"/><path d="M23.91 35.89L23 45l-6-3 4.82-6.75 2.09.64z"/></g><path d="M6 19h2v6H6z" fill="#1976d2"/><path d="M6 23h3v8H6c-.55 0-1-.45-1-1v-6c0-.55.45-1 1-1z" fill="#5e9fdf"/><path d="M24,21H7c-1.66,0-3-1.34-3-3v-6H22c1.66,0,3,1.34,3,3,1.66,0,3,1.34,3,3v7h-2v-2c0-1.1-.9-2-2-2Z" fill="#1976d2"/><path d="M28 31h-3v-8h3c.55 0 1 .45 1 1v6c0 .55-.45 1-1 1z" fill="#5e9fdf"/><path d="M17,37c-4.97,0-9-4.03-9-9v-7h16c1.1,0,2,.9,2,2v5c0,4.97-4.03,9-9,9Z" fill="#e4c290"/><path d="M14.55 33.89a1.01 1.01 0 0 1-.45-1.34 1.01 1.01 0 0 1 1.34-.45c.97.49 2.13.49 3.11 0 .49-.25 1.09-.05 1.34.45a.99.99 0 0 1-.45 1.34c-1.53.77-3.36.77-4.89 0z" fill="#d38e2a"/><path d="M28 34h-4c-.55 0-1-.45-1-1s.45-1 1-1h3v-2c0-.55.45-1 1-1s1 .45 1 1v3c0 .55-.45 1-1 1z" fill="#f3f3f3"/><path d="M22 50h7v2h-7z" fill="#1976d2"/><path d="M26 48h2v2h-2z" fill="#5e9fdf"/><path d="M55.98,25.05c-2.08,4.92-6.98,7.93-11.56,7.93,1.49-5.25,6.69-8.52,11.56-7.93Z" fill="#d38e2a"/><circle cx="55" cy="36" r="9" fill="#fff"/><circle cx="55" cy="36" r="7" fill="#5e9fdf"/><g fill="#f3f3f3"><circle cx="51" cy="36" r="1"/><circle cx="55" cy="36" r="1"/><circle cx="59" cy="36" r="1"/></g></svg>