<svg xmlns="http://www.w3.org/2000/svg" viewBox="0 0 64 64" xmlns:v="https://vecta.io/nano"><path d="M56,14V47H8V14c0-1.66,1.34-3,3-3H53c1.66,0,3,1.34,3,3Z" fill="#5e9fdf"/><path d="M7 47h50c.55 0 1 .45 1 1v2c0 1.66-1.34 3-3 3H9c-1.66 0-3-1.34-3-3v-2c0-.55.45-1 1-1z" fill="#1976d2"/><path d="M54 14v4H20l-4-5h37c.55 0 1 .45 1 1z" fill="#5e9fdf"/><path d="M54 18v27H10V14c0-.55.45-1 1-1h8.08c1.21 0 2.36.55 3.12 1.5l1.6 2c.86 1.03 1.97 1.5 3.12 1.5H54z" fill="#fff"/><path d="M21 9h8c1.1 0 2 .9 2 2v34H19V11c0-1.1.9-2 2-2z" fill="#d38e2a"/><path d="M37 49H27c-.81 0-2-.63-2-2h14c0 .81-.63 2-2 2z" fill="#f3f3f3"/><path d="M36 26h6v19h-6z" fill="#1976d2"/><path d="M42 26a5.41 5.41 0 0 1-6 0l3-5 3 5z" fill="#d38e2a"/><path d="M40.2 23h-2.4l1.2-2 1.2 2z" fill="#e4c290"/><path d="M39 43c-.29 0-1-.22-1-1v-8c0-.55.45-1 1-1 .29 0 1 .22 1 1v8c0 .55-.45 1-1 1z" fill="#5e9fdf"/><path d="M26 16h5v-2h-5c-.55 0-1 .45-1 1 0 .29.22 1 1 1zm2 6h3v-2h-3c-.55 0-1 .45-1 1 0 .29.22 1 1 1zm-2 6h5v-2h-5c-.55 0-1 .45-1 1 0 .29.22 1 1 1zm2 6h3v-2h-3c-.55 0-1 .45-1 1 0 .29.22 1 1 1zm-2 6h5v-2h-5c-.55 0-1 .45-1 1 0 .29.22 1 1 1z" fill="#f3f3f3"/><path d="M10 3h44v1h2V0h-2v1H10V0H8v4h2V3zm46 58H8v-1H6v4h2v-1h48v1h2v-4h-2v1zM0 13h1v38H0v2h4v-2H3V13h1v-2H0v2zm64 0v-2h-4v2h1v38h-1v2h4v-2h-1V13h1z" fill="#5e9fdf"/><path d="M12 17h5v2h-5zm32 10h8v2h-8zm0 4h8v2h-8zm0 4h4v2h-4zM12 21h5v2h-5zm0 4h5v2h-5z" fill="#d9d9d9"/></svg>