<svg xmlns="http://www.w3.org/2000/svg" viewBox="0 0 64 64" xmlns:v="https://vecta.io/nano"><path d="M55 12v50c0 1.1-.9 2-2 2H11c-1.1 0-2-.9-2-2V2c0-1.1.9-2 2-2h32l12 12z" fill="#f3f3f3"/><path d="M55 12H43V0l12 12z" fill="#5e9fdf"/><path d="M7 37h50c1.1 0 2 .9 2 2v16c0 1.1-.9 2-2 2H5V39c0-1.1.9-2 2-2z" fill="#d38e2a"/><path d="M5 57l4 4v-4H5z" fill="#e4c290"/><path d="M33 40h-5c-.55 0-1 .45-1 1v12c0 1.32 2 1.32 2 0v-5h4a4 4 0 1 0 0-8zm0 6h-4v-4h4c1.1 0 2 .9 2 2s-.9 2-2 2zm-9-4c1.32 0 1.32-2 0-2h-8c-.55 0-1 .45-1 1v12c0 .55.45 1 1 1h8c1.32 0 1.32-2 0-2h-7v-4h6c1.32 0 1.32-2 0-2h-6v-4h7zm21 4h-2c-1.1 0-2-.9-2-2s.9-2 2-2h5c1.32 0 1.32-2 0-2h-5a4 4 0 1 0 0 8h2c1.1 0 2 .9 2 2s-.9 2-2 2h-5c-1.32 0-1.32 2 0 2h5a4 4 0 1 0 0-8z" fill="#fdfdfd"/><g fill="#1976d2"><rect x="29.71" y="6.15" width="4" height="4" rx="1" transform="matrix(.707107 -.707107 .707107 .707107 3.52 24.81)"/><rect x="14.15" y="21.71" width="4" height="4" rx="1" transform="matrix(.707107 -.707107 .707107 .707107 -12.03 18.36)"/></g><g fill="#5e9fdf"><path d="M16.863 21.582l4.95-4.95 1.414 1.414-4.95 4.95zm7.77-7.772l4.95-4.95 1.414 1.414-4.95 4.95z"/><path d="M37.36 16.64c-3.51-3.51-9.22-3.51-12.73 0s-3.51 9.22 0 12.73c.94.94-.48 2.35-1.41 1.41-4.29-4.29-4.29-11.27 0-15.56s11.27-4.29 15.56 0c.94.94-.48 2.35-1.41 1.41z"/></g><g fill="#1976d2"><rect x="21.93" y="13.93" width="4" height="4" rx="1" transform="matrix(.707107 -.707107 .707107 .707107 -4.25 21.59)"/><rect x="36.07" y="13.93" width="4" height="4" rx="1" transform="matrix(.707107 -.707107 .707107 .707107 -.11 31.59)"/><rect x="21.93" y="28.07" width="4" height="4" rx="1" transform="matrix(.707107 -.707107 .707107 .707107 -14.25 25.73)"/></g><g fill="#d9d9d9"><path d="M45 20h8v2h-8zm-2 4h10v2H43zm-2 4h12v2H41z"/><circle cx="14" cy="5" r="2"/></g></svg>