<?xml version="1.0" encoding="UTF-8"?><svg id="a" xmlns="http://www.w3.org/2000/svg" viewBox="0 0 64 64"><defs><style>.b{fill:#fff;}.c{fill:#5e9fdf;}.d{fill:#e4c290;}.e{fill:#c8c8c8;}.f{fill:#fdfdfd;}.g{fill:#d38e2a;}.h{fill:#f3f3f3;}.i{fill:#d9d9d9;}.j{fill:#1976d2;}</style></defs><rect class="g" y="16" width="30" height="48" rx="5" ry="5"/><path class="b" d="M28,21V58c0,1.66-1.34,3-3,3H5c-1.66,0-3-1.34-3-3V21c0-1.66,1.34-3,3-3h4c.72,1.19,1.06,2,2.33,2h7.34c1.26,0,1.65-.87,2.33-2h4c1.66,0,3,1.34,3,3Z"/><path class="c" d="M64,5V43c0,2.76-2.24,5-5,5h-20c-2.38,0-4.42-1.67-4.9-4-.15-.67-.1,1.81-.1-39,0-2.76,2.24-5,5-5h20c2.76,0,5,2.24,5,5Z"/><path class="b" d="M62,5V42c0,1.66-1.34,3-3,3h-20c-1.73,0-3-1.42-3-3V5c0-1.66,1.34-3,3-3h4c.72,1.19,1.06,2,2.33,2h7.34c1.26,0,1.65-.87,2.33-2h4c1.66,0,3,1.34,3,3Z"/><path class="c" d="M21,30c0,5.35-6.47,7.97-10.2,4.28-.95-.82-1.8-2.51-1.8-4.28,0-3.31,2.69-6,6-6s6,2.69,6,6Z"/><g><path class="j" d="M19.2,34.28c-2.32,2.3-6.09,2.29-8.4,0,2-3.04,6.4-3.04,8.4,0Z"/><circle class="j" cx="15" cy="29" r="3"/></g><path class="i" d="M7,38H23v2H7v-2Zm1,4h14v2H8v-2Z"/><path class="g" d="M55,14c0,5.35-6.47,7.97-10.2,4.28-.95-.82-1.8-2.51-1.8-4.28,0-3.31,2.69-6,6-6s6,2.69,6,6Z"/><g><path class="d" d="M53.2,18.28c-2.32,2.3-6.09,2.29-8.4,0,2-3.04,6.4-3.04,8.4,0Z"/><circle class="d" cx="49" cy="13" r="3"/></g><path class="i" d="M41,22h16v2h-16v-2Zm1,4h14v2h-14v-2Z"/><g><path class="i" d="M16,58h-2c-.55,0-1-.45-1-1s.45-1,1-1h0v-3c-.26,0-.51-.1-.71-.29-.39-.39-.39-1.02,0-1.41l1-1c.29-.29,.71-.37,1.09-.22,.37,.15,.62,.52,.62,.92v5c.55,0,1,.45,1,1s-.45,1-1,1Z"/><path class="i" d="M8,58c-1.44,0-3-1.15-3-3v-2c0-1.65,1.35-3,3-3,1.44,0,3,1.15,3,3v2c0,1.65-1.35,3-3,3Zm0-6c-.55,0-1,.45-1,1v2c0,.82,.8,1,1,1,.55,0,1-.45,1-1v-2c0-.82-.8-1-1-1Zm41-9c-1.44,0-3-1.15-3-3v-2c0-1.65,1.35-3,3-3,1.44,0,3,1.15,3,3v2c0,1.65-1.35,3-3,3Zm0-6c-.55,0-1,.45-1,1v2c0,.82,.8,1,1,1,.55,0,1-.45,1-1v-2c0-.82-.8-1-1-1Z"/><path class="i" d="M59,43h-4c-.4,0-.77-.24-.92-.62-.16-.37-.07-.8,.22-1.09l3.59-3.59c.17-.17,.13-.35,.09-.45-.04-.1-.14-.25-.38-.25h-1.59v1c0,.55-.45,1-1,1s-1-.45-1-1v-1c0-1.1,.9-2,2-2h1.59c.98,0,1.86,.58,2.23,1.49s.17,1.94-.52,2.63l-1.88,1.88h1.59c.55,0,1,.45,1,1s-.45,1-1,1Z"/></g><path class="d" d="M28,22h2v22h-2V22Z"/><path class="h" d="M28,22v22h-1c-2.54,0-4.81-1.6-5.65-4h1.65v-2h-2v-10c0-3.31,2.69-6,6-6h1Z"/><path class="e" d="M23,38v2h-1.65c-.23-.63-.35-1.3-.35-2h2Z"/><path class="j" d="M36.77,44h-2.67c-.14-.65-.1,.99-.1-22h2v20c0,.77,.29,1.47,.77,2Z"/><path class="h" d="M43,28v10c0,3.09-2.39,6-6.23,6-.48-.53-.77-1.23-.77-2V22c1.69,0,3.25-.04,5,1.54v.46h.46c.52,.58,.93,1.26,1.19,2h-.65v2h1Z"/><path class="e" d="M41.46,24h-.46v-.46c.16,.14,.32,.3,.46,.46Zm1.54,4h-1v-2h.65c.23,.63,.35,1.3,.35,2Z"/><rect class="c" x="23" y="24" width="18" height="18" rx="4" ry="4"/><path class="f" d="M30.71,32.71c.94-.94-.48-2.35-1.41-1.41l-.29,.29v-2.59h7c1.32,0,1.32-2,0-2h-8c-.55,0-1,.45-1,1v3.59l-.29-.29c-.94-.94-2.35,.48-1.41,1.41,3.09,3.09,2.31,3.1,5.41,0h0Zm8,.58c-3.12-3.12-2.41-3.01-5.41,0-.94,.94,.48,2.35,1.41,1.41l.29-.29v2.59h-7c-1.32,0-1.32,2,0,2h8c.55,0,1-.45,1-1v-3.59l.29,.29c.94,.94,2.35-.48,1.41-1.41h0Z"/></svg>