<svg xmlns="http://www.w3.org/2000/svg" viewBox="0 0 64 64" xmlns:v="https://vecta.io/nano"><rect y="12" width="64" height="44" rx="3" fill="#5e9fdf"/><rect x="2" y="14" width="60" height="40" rx="1" fill="#fff"/><g fill="#1976d2"><path d="M40,18H24c-1.34,0-1.29-2,0-2h16c1.34,0,1.29,2,0,2Z"/><path d="M37 0H27c-1.1 0-2 .9-2 2v15h14V2c0-1.1-.9-2-2-2zm-5 4c1.66 0 3 1.34 3 3s-1.34 3-3 3-3-1.34-3-3 1.34-3 3-3z"/></g><g fill="#5e9fdf"><path d="M55 18h-6c-1.34 0-1.29-2 0-2h6c1.34 0 1.29 2 0 2zm-40 0H9c-1.34 0-1.29-2 0-2h6c1.34 0 1.29 2 0 2zm26 3h18v20H41z"/><path d="M59 41H41c0-4.97 4.03-9 9-9s9 4.03 9 9z"/><circle cx="50" cy="29" r="5"/></g><path d="M5 23h30v2H5zm0 6h30v2H5zm0 6h30v2H5zm0 6h30v2H5zm0 6h30v2H5zm48 0h6v2h-6zm-12 0h6v2h-6z" fill="#d9d9d9"/><path d="M44,54c0,.68-.06,1.35-.17,2H20.17c-.11-.65-.17-1.32-.17-2h24Z" fill="#1976d2"/><path d="M44 54H20c0-1.78.39-3.48 1.09-5H35v-2H22.26c1.25-1.74 2.96-3.13 4.94-4H35v-.62c2.75.71 5.12 2.37 6.74 4.62H41v2h1.91c.7 1.52 1.09 3.22 1.09 5z" fill="#f3f3f3"/><path d="M35 42.38V43h-7.8a12.03 12.03 0 0 1 7.8-.62zM22.26 47H35v2H21.09a11.38 11.38 0 0 1 1.17-2zm20.65 2H41v-2h.74a11.38 11.38 0 0 1 1.17 2z" fill="#c8c8c8"/><path d="M32,64c-5.52,0-10-4.48-10-10s4.48-10,10-10,10,4.48,10,10-4.48,10-10,10Z" fill="#d38e2a"/><path d="M30 59c-.55 0-.43-.02-3.71-3.29-.94-.94.48-2.35 1.41-1.41l2.24 2.24 6.3-7.2c.87-1 2.38.32 1.5 1.32-7.57 8.65-7.11 8.34-7.75 8.34z" fill="#fdfdfd"/></svg>