<svg xmlns="http://www.w3.org/2000/svg" viewBox="0 0 64 64" xmlns:v="https://vecta.io/nano"><path d="M64 4v30c0 1.1-.9 2-2 2h-1.06a2 2 0 0 0-1.54.72l-2.86 3.44c-.8.96-2.27.96-3.07 0l-2.86-3.44c-.38-.46-.94-.72-1.54-.72H24c-1.1 0-2-.9-2-2V4c0-1.1.9-2 2-2h38c1.1 0 2 .9 2 2z" fill="#1976d2"/><path d="M42 14v30c0 1.1-.9 2-2 2H14.94a2 2 0 0 0-1.54.72l-2.86 3.44c-.8.96-2.27.96-3.07 0l-2.86-3.44c-.38-.46-.94-.72-1.54-.72H2.01c-1.1 0-2-.9-2-2V14c0-1.1.9-2 2-2H40c1.1 0 2 .9 2 2z" fill="#5e9fdf"/><path d="M42 34.43V46H22.02c-.03-.39-.02-.51-.02-6a3 3 0 0 1 1.76-2.73C35.55 31.9 35.08 32 36 32c.86 0 .79.07 6 2.43z" fill="#1976d2"/><path d="M47 40v5.3A16.7 16.7 0 0 1 36 61a16.71 16.71 0 0 1-11-15.7V40l11-5 11 5z" fill="#d38e2a"/><path d="M45.45 36H42v-1.57L45.45 36z" fill="#1976d2"/><path d="M35.66 61.94C28.69 59.4 24 52.72 24 45.3v-5.29a1 1 0 0 1 .59-.91l11-5a1 1 0 0 1 .83 0l11 5a1 1 0 0 1 .59.91v5.29c0 7.42-4.69 14.11-11.66 16.64-.22.08-.46.08-.68 0zM26 40.64v4.65c0 6.46 4 12.3 10 14.64 6-2.34 10-8.18 10-14.64v-4.65L36 36.1l-10 4.54z" fill="#e4c290"/><path d="M33.79 51.71l-3-3c-.39-.39-.39-1.02 0-1.41s1.02-.39 1.41 0l2.29 2.29 5.29-5.29c.39-.39 1.02-.39 1.41 0s.39 1.02 0 1.41l-6 6c-.39.39-1.02.39-1.41 0z" fill="#f3f3f3"/><g fill="#fff"><circle cx="21" cy="29" r="3"/><circle cx="33" cy="29" r="3"/><circle cx="9" cy="29" r="3"/></g></svg>