<svg xmlns="http://www.w3.org/2000/svg" viewBox="0 0 64 64" xmlns:v="https://vecta.io/nano"><path d="M13 0h49c1.1 0 2 .9 2 2v4H13V0h0z" fill="#5e9fdf"/><path d="M16 0h22.65c2.05 0 3.93 1.16 4.85 3s2.79 3 4.85 3C57.61 6 25.21 6 16 6V0z" fill="#1976d2"/><path d="M24,22H62c1.1,0,2,.9,2,2v4H24v-6h0Z" fill="#5e9fdf"/><path d="M0 14V2C0 .9.9 0 2 0h14.65c2.05 0 3.93 1.16 4.85 3s2.79 3 4.85 3H64v8c0 1.1-.9 2-2 2H2c-1.1 0-2-.9-2-2z" fill="#f3f3f3"/><path d="M16,22h22.65c2.06,0,3.93,1.16,4.85,3s2.79,3,4.85,3c9.26,0-23.14,0-32.35,0v-6Z" fill="#1976d2"/><path d="M6 10h10v2H6zm14 0h10v2H20zm14 0h10v2H34zm14 0h10v2H48z" fill="#d9d9d9"/><path d="M0 62V24c0-1.1.9-2 2-2h14.65c2.06 0 3.93 1.16 4.85 3s2.79 3 4.85 3H64v34c0 1.1-.9 2-2 2H2c-1.1 0-2-.9-2-2z" fill="#f3f3f3"/><circle cx="61" cy="25" r="1" fill="#1976d2"/><path d="M6 32h10v2H6zm0 27h32v2H6zm14-27h10v2H20zm14 0h10v2H34zm14 0h10v2H48z" fill="#d9d9d9"/><g fill="#1976d2"><circle cx="57" cy="25" r="1"/><circle cx="53" cy="25" r="1"/></g><circle cx="18" cy="25" r="1" fill="#5e9fdf"/><g fill="#1976d2"><circle cx="61" cy="3" r="1"/><circle cx="57" cy="3" r="1"/><circle cx="53" cy="3" r="1"/></g><circle cx="18" cy="3" r="1" fill="#5e9fdf"/><rect x="6" y="38" width="52" height="18" rx="2" fill="#d38e2a"/><path d="M42 59h16v2H42z" fill="#d9d9d9"/><path d="M7.71 23.71l2-2c.39-.39.39-1.02 0-1.41s-1.02-.39-1.41 0l-.29.29v-3.17l.29.29c.39.39 1.02.39 1.41 0s.39-1.02 0-1.41l-2-2c-.39-.39-1.02-.39-1.41 0-2.18 2.18-2.29 2.17-2.29 2.71 0 .88 1.07 1.34 1.71.71l.29-.29v3.17l-.29-.29c-.39-.39-1.02-.39-1.41 0s-.39 1.02 0 1.41l2 2c.39.39 1.02.39 1.41 0z" fill="#d38e2a"/><g fill="#fff"><path d="M55 54c-.2 0 2.6.71-46.25-12.03-.53-.14-.85-.69-.72-1.22s.69-.86 1.22-.72l46 12c1.13.3.91 1.97-.25 1.97z"/><path d="M9 54c-1.17 0-1.38-1.67-.25-1.97l46-12a1 1 0 0 1 .5 1.94L9 54z"/></g></svg>