<svg xmlns="http://www.w3.org/2000/svg" viewBox="0 0 64 64" xmlns:v="https://vecta.io/nano"><rect y="9" width="64" height="46" rx="4" fill="#1976d2"/><rect x="3" y="12" width="53" height="40" rx="1" fill="#fff"/><circle cx="60" cy="32" r="2" fill="#f3f3f3"/><path d="M21 26.09c4.35.73 6.45 5.78 3.89 9.38l4.98 4.98c6.88-8.03 1.76-20.59-8.87-21.4v7.04z" fill="#5e9fdf"/><path d="M19 37.91c-2.84-.48-5-2.94-5-5.91s2.16-5.43 5-5.91v-7.04C12.29 19.56 7 25.16 7 32s5.29 12.44 12 12.95v-7.04z" fill="#1976d2"/><path d="M23.47 36.89A5.95 5.95 0 0 1 21 37.91v7.04c2.84-.22 5.41-1.34 7.45-3.08l-4.98-4.98z" fill="#d38e2a"/><path d="M36 23h4v4h-4z" fill="#5e9fdf"/><path d="M42 24h10v2H42z" fill="#d9d9d9"/><path d="M36 30h4v4h-4z" fill="#1976d2"/><path d="M42 31h10v2H42z" fill="#d9d9d9"/><path d="M36 37h4v4h-4z" fill="#d38e2a"/><g fill="#d9d9d9"><path d="M42 38h10v2H42zM32 16h20v2H32z"/><circle cx="7" cy="16" r="1"/><circle cx="7" cy="20" r="1"/><path d="M8 47h8v2H8z"/></g></svg>