<svg xmlns="http://www.w3.org/2000/svg" viewBox="0 0 64 64" xmlns:v="https://vecta.io/nano"><rect x="6" width="52" height="64" rx="6" fill="#5e9fdf"/><rect x="9" y="3" width="46" height="54" rx="3" fill="#fff"/><path d="M19,16h28c1.1,0,2,.9,2,2v24H19V16h0Z" fill="#1976d2"/><g fill="#5e9fdf"><path d="M22,16v4h19.83c-1.81,0-3.55-.72-4.83-2s-2.97-2-4.83-2h-10.17Z"/><path d="M13 42V18c0-1.1.9-2 2-2h7.5c1.57 0 3.06.74 4 2s2.43 2 4 2H49v22c0 1.1-.9 2-2 2H15c-1.1 0-2-.9-2-2z"/></g><rect x="16" y="25" width="14" height="16" rx="2" fill="#fff"/><path d="M34 25h12v2H34zm0 4h12v2H34zm0 4h12v2H34zm0 4h10v2H34z" fill="#5e9fdf"/><path d="M24.28 33l3.5-4.38c.35-.43.28-1.06-.16-1.41-.43-.34-1.06-.28-1.41.16l-3.22 4.02-3.22-4.02a1.01 1.01 0 0 0-1.41-.16 1.01 1.01 0 0 0-.16 1.41L21.7 33l-3.5 4.38c-.35.43-.28 1.06.16 1.41.43.35 1.06.27 1.41-.16l3.22-4.02 3.22 4.02a1.01 1.01 0 0 0 1.41.16 1.01 1.01 0 0 0 .16-1.41L24.28 33z" fill="#d38e2a"/><rect x="28" y="59" width="8" height="3" rx="1.5" fill="#5e9fdf"/><g fill="#d38e2a"><path d="M35 10c-.55 0-.54-.13-3-2.59L29.71 9.7c-.39.39-1.02.39-1.41 0s-.39-1.02 0-1.41l3-3c.39-.39 1.02-.39 1.41 0l3 3A1.01 1.01 0 0 1 35 10z"/><path d="M32 14c-.55 0-1-.45-1-1V7c0-.55.45-1 1-1s1 .45 1 1v6c0 .55-.45 1-1 1zm-.71 40.71l-3-3c-.39-.39-.39-1.02 0-1.41s1.02-.39 1.41 0l2.29 2.29 2.29-2.29c.39-.39 1.02-.39 1.41 0s.39 1.02 0 1.41l-3 3c-.39.39-1.02.39-1.41 0z"/><path d="M32 54c-.55 0-1-.45-1-1v-6c0-.55.45-1 1-1s1 .45 1 1v6c0 .55-.45 1-1 1z"/></g><g fill="#d9d9d9"><circle cx="50" cy="7" r="1"/><circle cx="46" cy="7" r="1"/><circle cx="42" cy="7" r="1"/><path d="M13 11h10v2H13zm0-4h6v2h-6z"/></g></svg>