<svg xmlns="http://www.w3.org/2000/svg" viewBox="0 0 64 64" xmlns:v="https://vecta.io/nano"><path d="M59.28 26.4l-10.72-8.94C47.75 16.79 50.9 17 6 17c-1.1 0-2 .9-2 2v26c0 1.08.88 2 2 2 44.92 0 41.77.2 42.56-.46l10.72-8.94c.46-.38.72-.94.72-1.54 0-8.77.23-8.87-.72-9.66zM53 34c-1.1 0-2-.9-2-2s.9-2 2-2 2 .9 2 2-.9 2-2 2z" fill="#1976d2"/><path d="M13 25h4c1.32 0 1.32-2 0-2h-4c-2.76 0-5 2.24-5 5s2.24 5 5 5a3.01 3.01 0 0 1 3 3 3.01 3.01 0 0 1-3 3H9c-1.32 0-1.32 2 0 2h4c2.76 0 5-2.24 5-5s-2.24-5-5-5a3.01 3.01 0 0 1-3-3 3.01 3.01 0 0 1 3-3zm12 0h6c1.32 0 1.32-2 0-2h-6a3.01 3.01 0 0 0-3 3v12a3.01 3.01 0 0 0 3 3h6c1.32 0 1.32-2 0-2h-6c-.55 0-1-.45-1-1v-5h5c1.32 0 1.32-2 0-2h-5v-5c0-.55.45-1 1-1zm16-2c-2.76 0-5 2.24-5 5v8c0 2.76 2.24 5 5 5s5-2.24 5-5v-8c0-2.76-2.24-5-5-5zm3 13a3.01 3.01 0 0 1-3 3 3.01 3.01 0 0 1-3-3v-8a3.01 3.01 0 0 1 3-3 3.01 3.01 0 0 1 3 3v8z" fill="#fdfdfd"/><path d="M57.22 24.68c-6.43 3.5-14.68-.25-16.04-7.68 6.58 0 6.65-.15 7.38.46l8.66 7.22z" fill="#1976d2"/><circle cx="53" cy="13" r="11" fill="#d38e2a"/><path d="M53.62 5.04C49.47 4.51 45 8.07 45 13c0 3.76 2.64 7.48 7.5 7.97.1 0 .54.07 1.07 0C57.74 20.7 61 17.2 61 13s-3.27-7.69-7.38-7.96zM58.91 12h-1.95c-.13-1.51-.55-2.98-1.22-4.33 1.65.85 2.86 2.45 3.17 4.33zM53 18.97c-1.09-1.45-1.76-3.17-1.94-4.97h3.89a9.97 9.97 0 0 1-1.94 4.97zM51.06 12A9.97 9.97 0 0 1 53 7.03c1.09 1.45 1.76 3.17 1.94 4.97h-3.89zm-.8-4.32A11.82 11.82 0 0 0 49.05 12H47.1c.32-1.87 1.51-3.46 3.17-4.32zM47.09 14h1.95c.13 1.51.55 2.98 1.22 4.33-1.65-.85-2.86-2.45-3.17-4.33zm8.66 4.32A11.82 11.82 0 0 0 56.96 14h1.95c-.32 1.87-1.51 3.46-3.17 4.32z" fill="#fdfdfd"/><path d="M17.7 47c-12.3 0-12.18.19-12.96-.45 3.63-3.56 9.55-3.38 12.96.45z" fill="#1976d2"/><circle cx="9" cy="53" r="9" fill="#d38e2a"/><path d="M11 59H7v-7H5l4-5 4 5h-2v7z" fill="#fdfdfd"/></svg>