<svg xmlns="http://www.w3.org/2000/svg" viewBox="0 0 64 64" xmlns:v="https://vecta.io/nano"><g fill="#5e9fdf"><path d="M53 31h10c1.34 0 1.29 2 0 2H53c-1.34 0-1.29-2 0-2zM31 11V1c0-1.34 2-1.29 2 0v10c0 1.34-2 1.29-2 0zM11 33H1c-1.34 0-1.29-2 0-2h10c1.34 0 1.29 2 0 2zm22 20v10c0 1.34-2 1.29-2 0V53c0-1.34 2-1.29 2 0z"/><path d="M32 4C16.54 4 4 16.54 4 32s12.54 28 28 28 28-12.54 28-28S47.46 4 32 4zm0 54C17.64 58 6 46.36 6 32S17.64 6 32 6s26 11.64 26 26-11.64 26-26 26zM47 0c-1.34 0-1.29 2 0 2h14c.55 0 1 .45 1 1v14c0 1.34 2 1.29 2 0V1c0-.55-.45-1-1-1H47zm17 47c0-1.34-2-1.29-2 0v14c0 .55-.45 1-1 1H47c-1.34 0-1.29 2 0 2h16c.55 0 1-.45 1-1V47zM17 64c1.34 0 1.29-2 0-2H3c-.55 0-1-.45-1-1V47c0-1.34-2-1.29-2 0v16c0 .55.45 1 1 1h16zM0 17c0 1.34 2 1.29 2 0V3c0-.55.45-1 1-1h14c1.34 0 1.29-2 0-2H1C.45 0 0 .45 0 1v16z"/></g><circle cx="32" cy="32" r="18" fill="#d9d9d9"/><g fill="#d38e2a"><path d="M32 36c-3.87 0-7-3.13-7-7v-9c0-.55.45-1 1-1h12c.55 0 1 .45 1 1v9c0 3.87-3.13 7-7 7z"/><rect x="27" y="39" width="10" height="6" rx="1"/><path d="M30 35h4v4h-4zm9.4-4H38c-1.32 0-1.32-2 0-2h1.4a2.01 2.01 0 0 0 1.98-1.72l.47-3.28H39c-1.32 0-1.32-2 0-2h4c.61 0 1.08.54.99 1.14l-.63 4.42c-.28 1.96-1.98 3.43-3.96 3.43zM26 31h-1.4c-1.98 0-3.68-1.48-3.96-3.43-.69-4.8-.8-4.76-.4-5.22s.44-.34 4.76-.34c1.32 0 1.32 2 0 2h-2.85l.47 3.28a2.01 2.01 0 0 0 1.98 1.72H26c1.32 0 1.32 2 0 2z"/></g></svg>