<svg xmlns="http://www.w3.org/2000/svg" viewBox="0 0 64 64" xmlns:v="https://vecta.io/nano"><path d="M62 26v34a4 4 0 0 1-4 4H6a4 4 0 0 1-4-4V26h60z" fill="#5e9fdf"/><path d="M62 26L32 50 2 26 32 2l30 24z" fill="#1976d2"/><path d="M56 2v28.8L32 50 8 30.8V2c0-1.1.9-2 2-2h44c1.1 0 2 .9 2 2z" fill="#f3f3f3"/><path d="M62 26v8.49c-3.52 2.89-8.33 3.26-12.15 1.23L62 26z" fill="#1976d2"/><path d="M56 15.05V30.8l-6.15 4.92c-7.78-4.14-7.8-15.29 0-19.44 1.85-.99 3.95-1.43 6.15-1.23z" fill="#d9d9d9"/><circle cx="55" cy="26" r="9" fill="#e4c290"/><circle cx="55" cy="26" r="7" fill="#d38e2a"/><path d="M55 29c-.54 0-.57-.15-2.71-2.29-.39-.39-.39-1.02 0-1.41s1.02-.39 1.41 0l1.29 1.29 3.29-3.29c.39-.39 1.02-.39 1.41 0s.39 1.02 0 1.41l-4 4a.98.98 0 0 1-.71.29z" fill="#f3f3f3"/><g fill="#d38e2a"><path d="M23,6h-6c-.55,0-1-.45-1-1s.45-1,1-1h6c.55,0,1,.45,1,1s-.45,1-1,1Z"/><path d="M20 14c-.55 0-1-.45-1-1V5c0-.55.45-1 1-1s1 .45 1 1v8c0 .55-.45 1-1 1zm11 0c-.4 0-.79-.25-.94-.65L28 7.85l-2.06 5.5c-.19.52-.77.78-1.29.59a.99.99 0 0 1-.58-1.29l3-8c.32-.86 1.55-.86 1.87 0l3 8c.24.65-.24 1.35-.94 1.35z"/><path d="M30 12h-4c-.55 0-1-.45-1-1s.45-1 1-1h4c.55 0 1 .45 1 1s-.45 1-1 1zm7 2h-2c-.55 0-1-.45-1-1s.45-1 1-1h2c.55 0 1-.45 1-1s-.45-1-1-1a3.01 3.01 0 0 1-3-3 3.01 3.01 0 0 1 3-3h2c.55 0 1 .45 1 1s-.45 1-1 1h-2c-.55 0-1 .45-1 1s.45 1 1 1a3.01 3.01 0 0 1 3 3 3.01 3.01 0 0 1-3 3zm6 0c-.55 0-1-.45-1-1V5c0-.55.45-1 1-1s1 .45 1 1v8c0 .55-.45 1-1 1z"/><path d="M43 11a1 1 0 0 1-.78-1.62l4-5a1.01 1.01 0 0 1 1.41-.16 1.01 1.01 0 0 1 .16 1.41l-4 5a1 1 0 0 1-.78.38z"/><path d="M47 14c-.4 0-.77-.24-.93-.63l-2-5c-.21-.51.04-1.09.56-1.3.51-.2 1.09.04 1.3.56l2 5c.26.66-.23 1.37-.93 1.37z"/></g><path d="M20 19h22v2H20zm-4 4h26v2H16zm0 4h26v2H16zm0 4h26v2H16zm4 4h16v2H20z" fill="#d9d9d9"/></svg>