<svg xmlns="http://www.w3.org/2000/svg" xmlns:xlink="http://www.w3.org/1999/xlink" viewBox="0 0 64 64" xmlns:v="https://vecta.io/nano"><g fill="#f3f3f3"><path d="M33,7l-2.8,3.91c-1.27,1.78-1.07,4.22,.48,5.77s1.7,3.56,.88,5.2l-1.56,3.11,3.33-2.85c1.98-1.7,2.1-4.72,.25-6.56-1-1-1.47-2.4-1.27-3.8l.68-4.78Z"/><use xlink:href="#B"/><use xlink:href="#B" x="22"/></g><path d="M61 40c0 8.81-7.14 16-16 16h-2v-4h2a12 12 0 0 0 12-12c0-.81-.63-2-2-2h-7v-4h7c3.31 0 6 2.69 6 6z" fill="#d9d9d9"/><path d="M51 34v9c0 5.38-2.02 10.29-5.35 14C32.65 71.49 9 61.96 9 43v-9c0-1.1.9-2 2-2h38c1.1 0 2 .9 2 2z" fill="#f3f3f3"/><path d="M61 15v10c0 1.1-.9 2-2 2H41l-2 2-2-2h-2c-1.1 0-2-.9-2-2V15c0-1.1.9-2 2-2h24c1.1 0 2 .9 2 2z" fill="#1976d2"/><path d="M31 9v10c0 1.1-.9 2-2 2h-2l-2 2-2-2H5c-1.1 0-2-.9-2-2V9c0-1.1.9-2 2-2h24c1.1 0 2 .9 2 2z" fill="#d38e2a"/><path d="M61 15v2.71c-3.79 1.13-7.67-1.14-8.71-4.71H59c1.1 0 2 .9 2 2z" fill="#1976d2"/><circle cx="59" cy="11" r="5" fill="#d38e2a"/><path d="M45.65,57c-1.4,1.56-3.02,2.91-4.83,4H19.18c-1.81-1.09-3.43-2.44-4.83-4h31.3Z" fill="#d9d9d9"/><g fill="#5e9fdf"><circle cx="55" cy="20" r="2"/><circle cx="47" cy="20" r="2"/></g><g fill="#f3f3f3"><circle cx="39" cy="20" r="2"/><circle cx="25" cy="14" r="2"/><circle cx="17" cy="14" r="2"/><circle cx="9" cy="14" r="2"/></g><g fill="#e4c290"><path d="M63,14c-2,2.67-6,2.66-8,0,2-2.67,6-2.66,8,0Z"/><circle cx="59" cy="10" r="2"/><path d="M11.71 7c-1.05 3.59-4.94 5.83-8.71 4.71V9c0-1.1.9-2 2-2h6.71z"/></g><circle cx="5" cy="5" r="5" fill="#5e9fdf"/><g fill="#1976d2"><path d="M9,8c-2,2.67-6,2.66-8,0,2-2.67,6-2.66,8,0Z"/><circle cx="5" cy="4" r="2"/></g><defs ><path id="B" d="M22,12l-2.8,3.91c-1.27,1.78-1.07,4.22,.48,5.77s1.7,3.56,.88,5.2l-1.56,3.11,3.33-2.85c1.98-1.7,2.1-4.72,.25-6.56-1-1-1.47-2.4-1.27-3.8l.68-4.78Z"/></defs></svg>