<?xml version="1.0" encoding="UTF-8"?><svg id="a" xmlns="http://www.w3.org/2000/svg" viewBox="0 0 58 64"><defs><style>.b{fill:#5e9fdf;}.c{fill:#d38e2a;}.d{fill:#d9d9d9;}.e{fill:#1976d2;}</style></defs><circle class="e" cx="29" cy="22" r="10"/><circle class="b" cx="9" cy="55" r="9"/><path class="e" d="M16.48,60c-3.56,5.32-11.39,5.34-14.96,0,3.56-5.32,11.39-5.34,14.96,0Z"/><path class="c" d="M22,10h14V1l-4,3L29,0l-3,4-4-3V10Z"/><path class="c" d="M49,44c-.55,0-1-.45-1-1v-1c0-.55-.45-1-1-1H11c-.55,0-1,.45-1,1v1c0,.55-.45,1-1,1s-1-.45-1-1v-1c0-1.65,1.35-3,3-3H28v-4c0-.55,.45-1,1-1s1,.45,1,1v4h17c1.65,0,3,1.35,3,3v1c0,.55-.45,1-1,1Z"/><g><path class="b" d="M37.4,27.42c-3.94,6.1-12.86,6.1-16.8,0,4.67-4.56,12.13-4.56,16.8,0Z"/><circle class="b" cx="29" cy="19" r="5"/></g><circle class="e" cx="9" cy="52" r="4"/><circle class="b" cx="49" cy="55" r="9"/><g><path class="e" d="M56.48,60c-3.56,5.32-11.39,5.34-14.96,0,3.56-5.32,11.39-5.34,14.96,0Z"/><circle class="e" cx="49" cy="52" r="4"/></g><path class="d" d="M41,12h12v2h-12v-2Zm0,4h8v2h-8v-2Zm-21,30h12v2h-12v-2Zm0,4h8v2h-8v-2Zm18,10h-12v-2h12v2Zm0,4h-8v-2h8v2Z"/></svg>