<?xml version="1.0" encoding="UTF-8"?><svg id="a" xmlns="http://www.w3.org/2000/svg" viewBox="0 0 64 64"><defs><style>.b{fill:#5e9fdf;}.c{fill:#e4c290;}.d{fill:#d38e2a;}.e{fill:#f3f3f3;}.f{fill:#1976d2;}</style></defs><rect class="f" y="10" width="64" height="52" rx="3" ry="3"/><g><path class="b" d="M26,14h26v14H26V14Z"/><rect class="b" x="26" y="32" width="6" height="6" rx="1" ry="1"/><rect class="b" x="36" y="32" width="6" height="6" rx="1" ry="1"/><rect class="b" x="46" y="32" width="6" height="6" rx="1" ry="1"/><rect class="b" x="26" y="42" width="6" height="6" rx="1" ry="1"/><rect class="b" x="36" y="42" width="6" height="6" rx="1" ry="1"/><rect class="b" x="46" y="42" width="6" height="6" rx="1" ry="1"/><rect class="b" x="26" y="52" width="6" height="6" rx="1" ry="1"/></g><rect class="d" x="36" y="52" width="6" height="6" rx="1" ry="1"/><g><rect class="b" x="46" y="52" width="6" height="6" rx="1" ry="1"/><path class="b" d="M59,16h-3c-1.34,0-1.29-2,0-2h3c1.34,0,1.29,2,0,2Zm0,4h-3c-1.34,0-1.29-2,0-2h3c1.34,0,1.29,2,0,2Zm0,4h-3c-1.34,0-1.29-2,0-2h3c1.34,0,1.29,2,0,2Zm0,4h-3c-1.34,0-1.29-2,0-2h3c1.34,0,1.29,2,0,2Z"/></g><path class="e" d="M45,28h-5l7-14h5l-7,14Zm-8,0h-5l7-14h5l-7,14Z"/><path class="d" d="M22,16v12c-1.28,1.28-2,3.02-2,4.83v12.34c0,1.81,.72,3.55,2,4.83v12c0,1.1-.9,2-2,2H6c-1.1,0-2-.9-2-2v-12c1.28-1.28,2-3.02,2-4.83v-12.34c0-1.81-.72-3.55-2-4.83v-12c0-1.1,.9-2,2-2h14c1.1,0,2,.9,2,2Z"/><path class="e" d="M12,48v-16c0-1.34,2-1.29,2,0v16c0,1.34-2,1.29-2,0Z"/><path class="f" d="M35,10c0,1.4-.24,2.75-.69,4h-8.31v7.62c-1.36,.35-2.8,.45-4,.34v-5.96c0-1.1-.9-2-2-2H11.69c-.46-1.27-.69-2.62-.69-4h24Z"/><path class="c" d="M22,16v5.96c-.99-.08-1.96-.29-2.9-.62l-4.1,.66c-1.1,0-2-.9-2-2v-3.37c-.55-.82-.99-1.71-1.31-2.63h8.31c1.1,0,2,.9,2,2Z"/><path class="b" d="M34.31,14c-1.32,3.74-4.44,6.62-8.31,7.62v-7.62h8.31Z"/><path class="e" d="M33,10c0,7.18-7.33,11.91-13.7,9.28l-4.3,.72v-4.01C10.11,9.51,14.7,0,23,0c5.52,0,10,4.48,10,10Z"/><path class="d" d="M25,15.17c-.8,0-1.56-.31-2.12-.88l-4.17-4.17c-.57-.57-.88-1.32-.88-2.12s.31-1.56,.88-2.12l1.59-1.59c.39-.39,1.02-.39,1.41,0l1,1c.39,.39,.39,1.02,0,1.41l-1.29,1.29,3.59,3.59,1.29-1.29c.39-.39,1.02-.39,1.41,0l1,1c.39,.39,.39,1.02,0,1.41l-1.59,1.59c-.57,.57-1.32,.88-2.12,.88Z"/></svg>