<svg xmlns="http://www.w3.org/2000/svg" viewBox="0 0 64 64" xmlns:v="https://vecta.io/nano"><path d="M54 60H4l4.41-24.7a4 4 0 0 1 3.94-3.3h33.3a4 4 0 0 1 3.94 3.3L54 60z" fill="#5e9fdf"/><path d="M58 62c0 .81-.63 2-2 2H2c-1.1 0-2-.9-2-2 0-.81.63-2 2-2h54c1.1 0 2 .9 2 2z" fill="#1976d2"/><path d="M25 29v3h-4v-3c0-.55.45-1 1-1h2c.55 0 1 .45 1 1zm12 0v3h-4v-3c0-.55.45-1 1-1h2c.55 0 1 .45 1 1z" fill="#5e9fdf"/><circle cx="29" cy="46" r="11" fill="#fff"/><g fill="#5e9fdf"><circle cx="29" cy="46" r="5"/><circle cx="29" cy="38" r="1"/><circle cx="23.34" cy="40.34" r="1"/><circle cx="21" cy="46" r="1"/><circle cx="23.34" cy="51.66" r="1"/><circle cx="29" cy="54" r="1"/><circle cx="34.66" cy="51.66" r="1"/><circle cx="37" cy="46" r="1"/><circle cx="34.66" cy="40.34" r="1"/></g><g fill="#1976d2"><path d="M55 19.95V26a4 4 0 0 1-4 4h-8.12c-1.72 0-3.25-1.1-3.79-2.74l-1.63-4.89a2.01 2.01 0 0 0-1.9-1.37H22.44a2.01 2.01 0 0 0-1.9 1.37l-1.63 4.89C18.37 28.9 16.84 30 15.12 30H7a4 4 0 0 1-4-4v-6a8 8 0 0 1 8-8l37.39.12c3.74.66 6.59 3.91 6.61 7.83z"/><path d="M55 20v1.96c-6.14.56-11.8-3.81-12.83-9.96H47a8 8 0 0 1 8 8z"/></g><path d="M64 10c0 5.51-4.47 10-10 10-4.85 0-8.88-3.45-9.8-8a10.02 10.02 0 0 1 4.12-10.23C54.8-2.74 64 1.84 64 10z" fill="#fff"/><path d="M61 10c0 3.87-3.13 7-7 7a6.99 6.99 0 0 1-6.32-3.99c-1.36-2.81-.68-6.4 1.97-8.49C54.05.97 61 3.99 61 10z" fill="#d38e2a"/><g fill="#fff"><path d="M51 10c0 .94-1.2 1.36-1.77.63-.46-.52-.2-1.43.54-1.6A1 1 0 0 1 51 10z"/><circle cx="54" cy="10" r="1"/></g><path d="M45.29 14.91c-4 2.19-9.13 1.02-11.77-2.91H44.2a9.71 9.71 0 0 0 1.09 2.91z" fill="#1976d2"/><path d="M47.68 13.01a8.5 8.5 0 0 1-2.39 1.9c-2.49-4.34-1.33-10.12 3.03-13.14a8.77 8.77 0 0 1 1.33 2.75c-2.65 2.1-3.32 5.69-1.97 8.49z" fill="#f3f3f3"/><path d="M49.23 10.63c-.4.92-1.01 1.79-1.55 2.38-1.36-2.81-.68-6.4 1.97-8.49a8.96 8.96 0 0 1 .12 4.51c-.74.17-1 1.08-.54 1.6z" fill="#e4c290"/><path d="M49.77 9.03c-.13.56-.31 1.09-.54 1.6-.46-.52-.2-1.43.54-1.6z" fill="#f3f3f3"/><circle cx="41" cy="7" r="7" fill="#fff"/><circle cx="41" cy="7" r="5" fill="#5e9fdf"/><g fill="#1976d2"><path d="M44.66 10.41a5.01 5.01 0 0 1-7.32 0c1.38-3.2 5.94-3.22 7.32 0z"/><circle cx="41" cy="6" r="2"/></g><g fill="#fff"><circle cx="58" cy="10" r="1"/><path d="M13 58H9c-.55 0-1-.45-1-1 0-.29.22-1 1-1h4c.55 0 1 .45 1 1 0 .29-.22 1-1 1zm-2-4H9c-.55 0-1-.45-1-1 0-.29.22-1 1-1h2c.55 0 1 .45 1 1 0 .29-.22 1-1 1zm38 4h-2c-.55 0-1-.45-1-1 0-.29.22-1 1-1h2c.55 0 1 .45 1 1 0 .29-.22 1-1 1z"/></g></svg>