<svg xmlns="http://www.w3.org/2000/svg" viewBox="0 0 64 64" xmlns:v="https://vecta.io/nano"><g fill="#1976d2"><path d="M64 6l-.18 43c-.4 1.17-1.51 2-2.82 2H3c-1.66 0-3-1.34-3-3V6c0-1.66 1.34-3 3-3h58c1.66 0 3 1.34 3 3z"/><path d="M39.81 61.05l-16-.1 1.07-10 14 .1.93 10z"/></g><path d="M46.81 62.1l-30-.2c-1.34 0-1.28-2.01.01-2l30 .2c1.34 0 1.28 2.01-.01 2z" fill="#5e9fdf"/><path d="M2 9h60v36H2z" fill="#fff"/><g fill="#5e9fdf"><path d="M3 5h58c.55 0 1 .45 1 1v3H2V6c0-.55.45-1 1-1z"/><path d="M36,8v1H18V5h15c1.66,0,3,1.34,3,3Z"/></g><path d="M3 5h16c1.66 0 3 1.34 3 3v2H2V6c0-.55.45-1 1-1z" fill="#fff"/><path d="M39 17H25c-.55 0-1 .45-1 1v12c0 .55.45 1 1 1h14c.55 0 1-.45 1-1V18c0-.55-.45-1-1-1zm-1 8h-8v-6h8v6zm-12-6h2v6h-2v-6zm12 10H26v-2h12v2z" fill="#d38e2a"/><path d="M58 17H44c-.55 0-1 .45-1 1v12c0 .55.45 1 1 1h14c.55 0 1-.45 1-1V18c0-.55-.45-1-1-1zm-1 6h-4v-4h4v4zm-12-4h6v4h-6v-4zm0 10v-4h12v4H45zM20 17H6c-.55 0-1 .45-1 1v12c0 .55.45 1 1 1h14c.55 0 1-.45 1-1V18c0-.55-.45-1-1-1zm-1 6h-4v-4h4v4zM7 19h6v4H7v-4zm0 6h4v4H7v-4zm12 4h-6v-4h6v4z" fill="#5e9fdf"/><path d="M5 33h14v2H5zm0 4h8v2H5zm19-4h14v2H24zm0 4h8v2h-8zm19-4h14v2H43zm0 4h8v2h-8z" fill="#d9d9d9"/><path d="M5 13h2v2H5z" fill="#5e9fdf"/><path d="M24 13h2v2h-2z" fill="#d38e2a"/><path d="M43 13h2v2h-2z" fill="#5e9fdf"/><path d="M64 46.82L62.83 48l.99 1c-.4 1.17-1.51 2-2.82 2H50.02l-1.38-6H62v-2.28c1.6.36 1.66.35 2 .55v3.55z" fill="#1976d2"/><path d="M62 42.72V45H48.64c-.52-2.24-1.08-3.4-.05-4.41.46-.46 1.1-.69 1.86-.54L62 42.72z" fill="#f3f3f3"/><path d="M50 42l3 13 3-3 4 4 4-4-4-4 3-3-13-3z" fill="#d38e2a"/></svg>