<svg xmlns="http://www.w3.org/2000/svg" viewBox="0 0 64 64" xmlns:v="https://vecta.io/nano"><g fill="#5e9fdf"><path d="M2 0h52c1.1 0 2 .9 2 2v4H0V2C0 .9.9 0 2 0z"/><path d="M13 0h19a4 4 0 0 1 4 4v2H13V0h0z"/></g><path d="M56 6v42c0 1.1-.9 2-2 2H2c-1.1 0-2-.9-2-2V2C0 .9.9 0 2 0h12a4 4 0 0 1 4 4v2h38z" fill="#f3f3f3"/><path d="M53 3c0-1.32-2-1.32-2 0s2 1.32 2 0zm-4 0c0-1.32-2-1.32-2 0s2 1.32 2 0z" fill="#1976d2"/><path d="M45,3c0-1.32-2-1.32-2,0s2,1.32,2,0Z" fill="#f3f3f3"/><path d="M33,3c0-1.32-2-1.32-2,0s2,1.32,2,0Z" fill="#1976d2"/><path d="M15,3c0-1.32-2-1.32-2,0s2,1.32,2,0Z" fill="#d38e2a"/><path d="M3 9h50v18H3zm0 22h16v16H3z" fill="#d9d9d9"/><path d="M53 10.06L31.11 17.5 53 24.94V27c-.27 0 1.31.51-25-8.44L3 27v-2.06l21.89-7.44L3 10.06V9h3.11L28 16.44 49.89 9H53v1.06zM19 32.42L12.41 39 19 45.58V47h-1.42L11 40.41 4.42 47H3v-1.42L9.59 39 3 32.42V31h1.42L11 37.59 17.58 31H19v1.42z" fill="#c8c8c8"/><g fill="#d9d9d9"><path d="M22 31h31v2H22zm0 4h31v2H22z"/><path d="M56 24.34v11.51L52.33 39h-9.9l1.71-2H53v-2h-7.14l1.71-2H53v-2h-3.71c4.69-5.47 4.93-6.15 6.71-6.66z"/><path d="M22 39h31v2H22zm0 4h31v2H22z"/></g><path d="M47.66 43l-2.33 2h-8.04L39 43h8.66z" fill="#c8c8c8"/><path d="M45.33 45l-5.83 5h-9.96c.26-.65.57-1.19.92-1.54 1.34-1.33 3.23-1.73 4.92-1.24l1.71-1.99c.28-.32-.63-.23 8.24-.23z" fill="#d9d9d9"/><path d="M52.33 39l-2.34 2h-9.27l1.71-2h9.9zm.67-8v2h-5.43l1.72-2H53zm-7.14 4H53v2h-8.86l1.72-2z" fill="#c8c8c8"/><path d="M42.77 48.91L38 53l-3-3 4.09-4.77 3.68 3.68z" fill="#5e9fdf"/><path d="M49.99 41l-2.33 2H39l1.72-2h9.27z" fill="#d9d9d9"/><path d="M62.24 32.22L42.77 48.91l-3.68-3.68 16.69-19.47a4.58 4.58 0 1 1 6.46 6.46z" fill="#1976d2"/><path d="M39.54 55.54c1.95-1.95 1.95-5.12 0-7.07s-5.12-1.95-7.07 0-2.46 9.54-2.46 9.54 7.58-.51 9.54-2.46z" fill="#d38e2a"/></svg>