<svg xmlns="http://www.w3.org/2000/svg" xmlns:xlink="http://www.w3.org/1999/xlink" viewBox="0 0 64 64" xmlns:v="https://vecta.io/nano"><g fill="#1976d2"><path d="M62,19V58H2V19c0-1.66,1.34-3,3-3H59c1.66,0,3,1.34,3,3Z"/><path d="M1 58h62c.55 0 1 .45 1 1v2c0 1.66-1.34 3-3 3H3c-1.66 0-3-1.34-3-3v-2c0-.55.45-1 1-1z"/></g><path d="M60 19v4H20l-4-5h43c.55 0 1 .45 1 1z" fill="#5e9fdf"/><path d="M60 23v33H4V19c0-.55.45-1 1-1h14.08c1.21 0 2.36.55 3.12 1.5l1.6 2c.86 1.03 1.97 1.5 3.12 1.5H60z" fill="#fff"/><path d="M39 60H25c-.81 0-2-.63-2-2h18c0 .81-.63 2-2 2z" fill="#f3f3f3"/><g fill="#1976d2"><path d="M9 16h46v2H9z"/><path d="M55 18v5H26.92c-1.14 0-2.26-.47-3.12-1.5l-1.6-2c-.76-.95-1.91-1.5-3.12-1.5H55z"/></g><path d="M55 23v33H9V18h10.08c4.04 0 3.78 5 7.84 5H55z" fill="#f3f3f3"/><path d="M13 6h38c1.1 0 2 .9 2 2v48H11V8c0-1.1.9-2 2-2z" fill="#5e9fdf"/><path d="M14 9h36v47H14z" fill="#fff"/><g fill="#d38e2a"><rect x="22" y="4" width="20" height="8" rx="2"/><path d="M35 3v1h-2V3c0-.55-.45-1-1-1-.29 0-1 .22-1 1v1h-2V3c0-1.66 1.34-3 3-3s3 1.34 3 3z"/><rect x="17" y="16" width="10" height="10" rx="2"/></g><g fill="#fff"><use xlink:href="#B"/><use xlink:href="#C"/></g><rect x="17" y="29" width="10" height="10" rx="2" fill="#d38e2a"/><g fill="#fff"><use xlink:href="#B" y="13"/><use xlink:href="#C" y="13"/></g><rect x="17" y="42" width="10" height="10" rx="2" fill="#5e9fdf"/><path d="M22 50c-.54 0-.57-.15-2.71-2.29-.39-.39-.39-1.02 0-1.41s1.02-.39 1.41 0l1.29 1.29 4.29-4.29c.39-.39 1.02-.39 1.41 0s.39 1.02 0 1.41l-5 5a.98.98 0 0 1-.71.29z" fill="#1976d2"/><path d="M30 18h16v2H30zm0 4h12v2H30zm0 9h16v2H30zm0 4h12v2H30zm0 9h16v2H30zm0 4h12v2H30z" fill="#d9d9d9"/><defs ><path id="B" d="M24 24c-.26 0-.51-.1-.71-.29l-4-4c-.39-.39-.39-1.02 0-1.41s1.02-.39 1.41 0l4 4a1.01 1.01 0 0 1-.71 1.71z"/><path id="C" d="M20 24c-.88 0-1.34-1.07-.71-1.71l4-4c.39-.39 1.02-.39 1.41 0s.39 1.02 0 1.41l-4 4a.98.98 0 0 1-.71.29z"/></defs></svg>