<svg xmlns="http://www.w3.org/2000/svg" viewBox="0 0 64 64" xmlns:v="https://vecta.io/nano"><path d="M5 0H2C.9 0 0 .9 0 2v52c0 .81.63 2 2 2h3c1.34 0 1.29-2 0-2H2v-4h3c1.34 0 1.29-2 0-2H2v-4h3c1.34 0 1.29-2 0-2H2v-4h3c1.34 0 1.29-2 0-2H2v-4h3c1.34 0 1.29-2 0-2H2v-4h3c1.34 0 1.29-2 0-2H2v-4h3c1.34 0 1.29-2 0-2H2v-4h3c1.34 0 1.29-2 0-2H2V8h3c1.34 0 1.29-2 0-2H2V2h3c1.34 0 1.29-2 0-2zm3 59v3c0 1.1.9 2 2 2h52c.81 0 2-.63 2-2v-3c0-1.34-2-1.29-2 0v3h-4v-3c0-1.34-2-1.29-2 0v3h-4v-3c0-1.34-2-1.29-2 0v3h-4v-3c0-1.34-2-1.29-2 0v3h-4v-3c0-1.34-2-1.29-2 0v3h-4v-3c0-1.34-2-1.29-2 0v3h-4v-3c0-1.34-2-1.29-2 0v3h-4v-3c0-1.34-2-1.29-2 0v3h-4v-3c0-1.34-2-1.29-2 0v3h-4v-3c0-1.34-2-1.29-2 0z" fill="#5e9fdf"/><path d="M9,6v10h3l3-4h13V46l-6,3v3h18v-3l-6-3V12h13l3,4h3V6H9Z" fill="#d38e2a"/><path d="M62.29 47.29L61 48.58V9.41c1.23 1.23 1.44 1.59 2 1.59.88 0 1.34-1.07.71-1.71l-3.32-3.22a1 1 0 0 0-1.09.22l-3 3c-.94.94.48 2.35 1.41 1.41L59 9.41v39.18l-1.29-1.29c-.94-.94-2.35.48-1.41 1.41 3.11 3.11 3.13 3.29 3.71 3.29s.43-.02 3.71-3.29c.94-.94-.48-2.35-1.41-1.41z" fill="#5e9fdf"/></svg>