<svg xmlns="http://www.w3.org/2000/svg" viewBox="0 0 64 64" xmlns:v="https://vecta.io/nano"><path d="M37 28l-4 8h-6l-4-8 7-4 7 4z" fill="#e4c290"/><g fill="#1976d2"><path d="M45 10L30 24 15 10h30z"/><path d="M40.95 10C40.47 15.64 35.7 20 30 20s-10.46-4.34-10.95-10h21.9z"/></g><circle cx="30" cy="9" r="9" fill="#d38e2a"/><path d="M30 8c-1.32 0-1.32-2 0-2h2c1.32 0 1.32-2 0-2h-1V3c0-1.32-2-1.32-2 0l.04 1.17C25.83 5.27 26.64 10 30 10c1.32 0 1.32 2 0 2h-2c-1.32 0-1.32 2 0 2h1v1c0 1.32 2 1.32 2 0l-.04-1.17C34.17 12.73 33.36 8 30 8z" fill="#fdfdfd"/><g fill="#5e9fdf"><path d="M30 24l-9 9-8.48-17.91c-.32-.67-.24-1.46.21-2.06L15.01 10l15 14z"/><path d="M30 24l9 9 8.48-17.91c.32-.67.24-1.46-.21-2.06L44.99 10l-15 14z"/></g><path d="M33.6 40.4l-9.04 9.04 1.11-6.11L33 36l.6 4.4z" fill="#e4c290"/><path d="M34.44 46.56L23 58l1.56-8.56 9.04-9.04.84 6.16z" fill="#d38e2a"/><path d="M35.04 50.96l-9.35 9.35L23 58l11.44-11.44.6 4.4z" fill="#e4c290"/><path d="M36 58l-6 6-4.31-3.69 9.35-9.35L36 58zm-3-22l-7.33 7.33L27 36h6z" fill="#d38e2a"/><path d="M10 40h12v2H10zm4 4h8v2h-8zM54 2H42V0h12zm-4 4h-8V4h8z" fill="#d9d9d9"/></svg>