<svg xmlns="http://www.w3.org/2000/svg" xmlns:xlink="http://www.w3.org/1999/xlink" viewBox="0 0 64 64" xmlns:v="https://vecta.io/nano"><path d="M53.923 9.84l4.243 4.243-6.364 6.364-4.243-4.243z" fill="#1976d2"/><path d="M58.16 16.91l-7.07-7.07c-.78-.78-.78-2.05 0-2.83.57-.57 1.86-.97 2.83 0l7.07 7.07c.78.78.78 2.05 0 2.83-.57.57-1.86.97-2.83 0z" fill="#d38e2a"/><g fill="#1976d2"><path d="M29 2h6v9h-6z"/><path d="M60 36c0 20.26-20.88 33.74-39.28 25.63C10.84 57.27 4 47.42 4 36 4 20.54 16.54 8 32 8s28 12.54 28 28z"/></g><g fill="#5e9fdf"><use xlink:href="#B"/><use xlink:href="#B"/><path d="M49,36c0,12.97-13.94,21.08-25.17,14.91-5.28-2.9-8.83-8.49-8.83-14.91,0-9.37,7.59-17,17-17s17,7.61,17,17Z"/></g><g fill="#fff"><path d="M30 42h-6c-.55 0-1-.45-1-1 0-1.61.9-3.07 2.34-3.79l2.5-1.25c1.29-.64 1.54-2.35.54-3.35-1.27-1.27-3.39-.44-3.39 1.3 0 .55-.45 1.05-1 1.05s-1-.4-1-.95c0-3.66 4.3-5.3 6.8-2.8 1.97 1.97 1.44 5.3-1.06 6.55-2.81 1.4-3.1 1.44-3.5 2.25H30c.55 0 1 .45 1 1s-.45 1-1 1zm24-6c0 15.64-15.97 26.33-30.43 20.32-9.72-4.05-15.16-14.41-13.17-24.51.1-.54.63-.89 1.17-.79s.9.63.79 1.17c-1.78 9.29 3.13 18.37 11.57 22.11C37.09 60.11 52 50.45 52 36c0-11.03-8.97-20-20-20-6.38 0-12.23 2.96-15.99 8H19c.55 0 1 .45 1 1s-.45 1-1 1h-5c-.55 0-1-.45-1-1v-5c0-.55.45-1 1-1s1 .45 1 1v2.04C19.14 16.96 25.31 14 32 14c12.13 0 22 9.87 22 22zm-14 3h-6a1 1 0 0 1-.92-1.39l3-7c.22-.51.81-.74 1.31-.52.51.22.74.81.53 1.31l-2.4 5.61H40c.55 0 1 .45 1 1s-.45 1-1 1z"/><path d="M40 42c-.55 0-1-.45-1-1v-7c0-.55.45-1 1-1s1 .45 1 1v7c0 .55-.45 1-1 1z"/></g><path d="M37 4H27c-1.1 0-2-.9-2-2 0-.81.63-2 2-2h10c1.1 0 2 .9 2 2 0 .81-.63 2-2 2z" fill="#d38e2a"/><path d="M23.57 56.32c-.53 2-1.52 3.81-2.85 5.31-8.16-3.6-14.29-10.98-16.14-19.93a12.83 12.83 0 0 1 5.8-1.68c1.36 7.38 6.42 13.48 13.19 16.3zm.36-2.02c-5.82-2.58-10.19-7.85-11.51-14.22a12.89 12.89 0 0 1 3.29.81c1.29 4.3 4.25 7.89 8.12 10.02.2 1.23.21 2.43.1 3.39z" fill="#1976d2"/><path d="M23.83,50.91c-3.87-2.13-6.83-5.72-8.12-10.02,4.22,1.64,7.38,5.43,8.12,10.02Z" fill="#5e9fdf"/><circle cx="11" cy="53" r="11" fill="#fff"/><path d="M23.93 54.3a12.19 12.19 0 0 1-.36 2.02c-6.77-2.82-11.83-8.92-13.19-16.3.35-.03 1.14-.04 2.04.06 1.32 6.37 5.69 11.64 11.51 14.22z" fill="#f3f3f3"/><circle cx="11" cy="53" r="8" fill="#d38e2a"/><path d="M14.95 54.71l-.98-.98a.99.99 0 0 0-1.02-.24l-1.54.51L10 52.59l.51-1.54c.12-.36.03-.76-.24-1.02l-.98-.98c-1.35-1.35-3.52 2.13-1.41 4.24l2.83 2.83c2.1 2.1 5.61-.05 4.24-1.41z" fill="#fff"/><defs ><path id="B" d="M12.19 29C7.38 42.59 17.46 57 32 57c11.6 0 21-9.4 21-21s-9.4-21-21-21c-9.14 0-16.92 5.84-19.81 14"/></defs></svg>