<svg xmlns="http://www.w3.org/2000/svg" viewBox="0 0 64 64" xmlns:v="https://vecta.io/nano"><rect width="64" height="50" rx="5" fill="#1976d2"/><rect x="3" y="3" width="58" height="44" rx="2" fill="#fff"/><path d="M8 24h48v2H8z" fill="#d9d9d9"/><rect x="7" y="14" width="14" height="22" rx="2" fill="#5e9fdf"/><rect x="25" y="14" width="14" height="22" rx="2" fill="#1976d2"/><rect x="43" y="14" width="14" height="22" rx="2" fill="#d38e2a"/><path d="M11 18h8v2h-8zm-2 4h10v2H9zm0 4h10v2H9zm0 4h6v2H9zm20-12h8v2h-8zm-2 4h10v2H27zm0 4h10v2H27zm0 4h6v2h-6zm20-12h8v2h-8zm-2 4h10v2H45zm0 4h10v2H45zm0 4h6v2h-6z" fill="#fff"/><path d="M45.86,50H18.14c.15-1.04,.42-2.05,.78-3h26.16c.36,.95,.63,1.96,.78,3Z" fill="#1976d2"/><path d="M45.08,47H18.92c2.02-5.26,7.12-9,13.08-9s11.06,3.74,13.08,9Z" fill="#f3f3f3"/><g fill="#5e9fdf"><circle cx="32" cy="52" r="12"/><circle cx="32" cy="52" r="9"/></g><path d="M29 56c-.88 0-1.34-1.07-.71-1.71L31 51.58v-5.59c0-.55.45-1 1-1s1 .45 1 1v6c0 .27-.11.52-.29.71l-3 3a.98.98 0 0 1-.71.29z" fill="#f3f3f3"/><path d="M14 16c-.54 0-.57-.15-2.71-2.29-.39-.39-.39-1.02 0-1.41s1.02-.39 1.41 0l1.29 1.29 3.29-3.29c.39-.39 1.02-.39 1.41 0s.39 1.02 0 1.41l-4 4a.98.98 0 0 1-.71.29z" fill="#d38e2a"/><g fill="#d9d9d9"><circle cx="34" cy="11" r="1"/><circle cx="38" cy="11" r="1"/><circle cx="52" cy="11" r="1"/><circle cx="56" cy="11" r="1"/></g><g fill="#d38e2a"><circle cx="47" cy="53" r="1"/><circle cx="51" cy="53" r="1"/><circle cx="55" cy="53" r="1"/></g></svg>