<svg xmlns="http://www.w3.org/2000/svg" viewBox="0 0 64 64" xmlns:v="https://vecta.io/nano"><path d="M42.5 56H41c-1.32 0-1.32-2 0-2h1.5a8.51 8.51 0 0 0 8.5-8.5 8.51 8.51 0 0 0-8.5-8.5h-28C8.71 37 4 32.29 4 26.5v-3C4 17.71 8.71 13 14.5 13H21c1.32 0 1.32 2 0 2h-6.5A8.51 8.51 0 0 0 6 23.5v3a8.51 8.51 0 0 0 8.5 8.5h28C48.29 35 53 39.71 53 45.5S48.29 56 42.5 56z" fill="#d38e2a"/><path d="M47 24c-.81 0-2-.63-2-2V6c0-1.1.9-2 2-2 .81 0 2 .63 2 2v16c0 1.1-.9 2-2 2zm-24 0c-.81 0-2-.63-2-2V6c0-1.1.9-2 2-2 .81 0 2 .63 2 2v16c0 1.1-.9 2-2 2z" fill="#1976d2"/><path d="M25 6h20v16H25z" fill="#f3f3f3"/><path d="M39 64c-.81 0-2-.63-2-2V46c0-1.1.9-2 2-2 .81 0 2 .63 2 2v16c0 1.1-.9 2-2 2zm-24 0c-.81 0-2-.63-2-2V46c0-1.1.9-2 2-2 .81 0 2 .63 2 2v16c0 1.1-.9 2-2 2z" fill="#1976d2"/><path d="M17 46h20v16H17z" fill="#f3f3f3"/><path d="M41.43 7.78C38.65 14.23 29.08 12.96 28.07 6H41c0 .64.15 1.24.43 1.78z" fill="#d9d9d9"/><circle cx="35" cy="5" r="5" fill="#5e9fdf"/><g fill="#1976d2"><path d="M39,8c-2,2.67-6,2.66-8,0,2-2.67,6-2.66,8,0Z"/><circle cx="35" cy="4" r="2"/></g><path d="M45 6v4c-2.29 0-4-1.88-4-4h4zM31 22h-6v-6c3.31 0 6 2.69 6 6z" fill="#d38e2a"/><path d="M41.93 6c-.09.62-.26 1.22-.5 1.78C41.15 7.24 41 6.64 41 6h.93z" fill="#e4c290"/><g fill="#d38e2a"><circle cx="37" cy="16" r="4"/><path d="M24 46a7.01 7.01 0 0 1-7 7v-7h7zm8 16H22c0-2.76 2.24-5 5-5s5 2.24 5 5z"/><circle cx="32" cy="53" r="3"/></g><path d="M33.93 46c-.78 5.39-7.21 7.91-11.45 4.34C23.44 49.15 24 47.65 24 46h9.93z" fill="#d9d9d9"/><path d="M24 46c0 1.65-.56 3.15-1.52 4.34A6.96 6.96 0 0 1 20.07 46H24z" fill="#e4c290"/><circle cx="27" cy="45" r="5" fill="#5e9fdf"/><g fill="#1976d2"><path d="M31,48c-2,2.67-6,2.66-8,0,2-2.67,6-2.66,8,0Z"/><circle cx="27" cy="44" r="2"/></g><path d="M63 10l-6 2V9l-6 5 6 5v-3l6 2v-8z" fill="#5e9fdf"/><path d="M8 55H2c-1.32 0-1.32-2 0-2h6c1.32 0 1.32 2 0 2zm0-5c-.56 0-.3.12-4.71-4.29-.94-.94.48-2.35 1.41-1.41l4 4a1.01 1.01 0 0 1-.71 1.71zM4 64c-.88 0-1.34-1.07-.71-1.71l4-4c.94-.94 2.35.48 1.41 1.41-4.37 4.37-4.15 4.29-4.71 4.29z" fill="#d38e2a"/></svg>