<svg xmlns="http://www.w3.org/2000/svg" xmlns:xlink="http://www.w3.org/1999/xlink" viewBox="0 0 64 64" xmlns:v="https://vecta.io/nano"><path d="M5 11h54c1.1 0 2 .9 2 2v40H3V13c0-1.1.9-2 2-2z" fill="#fff"/><path d="M61,54H3c-.55,0-1-.45-1-1V13c0-1.65,1.35-3,3-3H59c1.65,0,3,1.35,3,3V53c0,.55-.45,1-1,1Zm-57-2H60V13c0-.55-.45-1-1-1H5c-.55,0-1,.45-1,1V52Z" fill="#5e9fdf"/><path d="M1 52h62c.55 0 1 .45 1 1v2c0 1.66-1.34 3-3 3H3c-1.66 0-3-1.34-3-3v-2c0-.55.45-1 1-1z" fill="#1976d2"/><path d="M12 10H8V8c0-1.1.9-2 2-2 .81 0 2 .63 2 2v2zm44 0h-4V8c0-1.1.9-2 2-2 .81 0 2 .63 2 2v2z" fill="#d38e2a"/><g fill="#5e9fdf"><path d="M22,18h-4c-.55,0-1-.45-1-1s.45-1,1-1h4c.55,0,1,.45,1,1s-.45,1-1,1Z"/><path d="M20 22c-.55 0-1-.45-1-1v-4c0-.55.45-1 1-1s1 .45 1 1v4c0 .55-.45 1-1 1z"/><use xlink:href="#B"/><path d="M37,22h-2c-.55,0-1-.45-1-1v-4c0-.55,.45-1,1-1h2c1.65,0,3,1.35,3,3s-1.35,3-3,3Zm-1-2h1c.55,0,1-.45,1-1s-.45-1-1-1h-1v2Z"/></g><path d="M21 36h22v2H21z" fill="#d9d9d9"/><g fill="#5e9fdf"><use xlink:href="#B" x="17"/><rect x="8" y="27" width="14" height="20" rx="2"/></g><rect x="25" y="27" width="14" height="20" rx="2" fill="#1976d2"/><rect x="42" y="27" width="14" height="20" rx="2" fill="#d38e2a"/><path d="M12 32h8v2h-8zm-2 4h10v2H10zm0 4h10v2H10zm19-8h8v2h-8zm-2 4h10v2H27zm0 4h10v2H27zm19-8h8v2h-8zm-2 4h10v2H44zm0 4h10v2H44z" fill="#fff"/><g fill="#5e9fdf"><path d="M52 29c-.54 0-.57-.15-2.71-2.29-.39-.39-.39-1.02 0-1.41s1.02-.39 1.41 0l1.29 1.29 3.29-3.29c.39-.39 1.02-.39 1.41 0s.39 1.02 0 1.41l-4 4a.98.98 0 0 1-.71.29z"/><circle cx="9" cy="24" r="1"/><circle cx="13" cy="24" r="1"/></g><defs ><path id="B" d="M27,22c-1.65,0-3-1.35-3-3s1.35-3,3-3,3,1.35,3,3-1.35,3-3,3Zm0-4c-.55,0-1,.45-1,1s.45,1,1,1,1-.45,1-1-.45-1-1-1Z"/></defs></svg>