<svg xmlns="http://www.w3.org/2000/svg" viewBox="0 0 64 64" xmlns:v="https://vecta.io/nano"><path d="M62,19V58H2V19c0-1.66,1.34-3,3-3H59c1.66,0,3,1.34,3,3Z" fill="#5e9fdf"/><path d="M1 58h62c.55 0 1 .45 1 1v2c0 1.66-1.34 3-3 3H3c-1.66 0-3-1.34-3-3v-2c0-.55.45-1 1-1z" fill="#1976d2"/><path d="M60 19v37H4V19c0-.55.45-1 1-1h54c.55 0 1 .45 1 1z" fill="#fff"/><path d="M39 60H25c-1.1 0-2-.9-2-2 0-.1-.84 0 18 0 0 .81-.63 2-2 2z" fill="#f3f3f3"/><path d="M6 20h26v16H6zm30 10h22v12H36zM6 38h26v2H6zm0 4h26v2H6zm0 4h26v2H6zm30-2h22v2H36zm0 4h22v2H36zm0 4h22v2H36zM6 50h22v2H6z" fill="#d9d9d9"/><g fill="#d38e2a"><rect x="34" width="12" height="44" rx="1"/><path d="M22 40h6V3c0-1.66-1.34-3-3-3s-3 1.34-3 3v37z"/></g><path d="M18 10v10c0 .81.63 2 2 2V10c0-1.1.9-2 2-2h6c1.32 0 1.32-2 0-2h-6a4 4 0 0 0-4 4z" fill="#c8c8c8"/><path d="M37 5h-3V3h3c1.34 0 1.29 2 0 2zm2 4h-5V7h5c1.34 0 1.29 2 0 2zm-2 4h-3v-2h3c1.34 0 1.29 2 0 2zm2 4h-5v-2h5c1.34 0 1.29 2 0 2zm-2 4h-3v-2h3c1.34 0 1.29 2 0 2zm2 4h-5v-2h5c1.34 0 1.29 2 0 2zm-2 4h-3v-2h3c1.34 0 1.29 2 0 2zm2 4h-5v-2h5c1.34 0 1.29 2 0 2zm-2 4h-3v-2h3c1.34 0 1.29 2 0 2zm2 4h-5v-2h5c1.34 0 1.29 2 0 2z" fill="#f3f3f3"/><path d="M28 40l-2.11 4.21a1 1 0 0 1-1.79 0L21.99 40" fill="#d38e2a"/></svg>