<svg xmlns="http://www.w3.org/2000/svg" viewBox="0 0 64 64" xmlns:v="https://vecta.io/nano"><rect y="2" width="64" height="50" rx="4" fill="#5e9fdf"/><path d="M44,62H20c2.75-2.75,4-6.21,4-10h16c0,4.08,1.44,7.44,4,10Z" fill="#1976d2"/><path d="M46 62H18c-.55 0-1-.45-1-1 0-.29.22-1 1-1h28c.55 0 1 .45 1 1 0 .29-.22 1-1 1zM61 6v15H8V5h52c.55 0 1 .45 1 1z" fill="#5e9fdf"/><path d="M61 10v36c0 .55-.45 1-1 1H4c-.55 0-1-.45-1-1V6c0-.55.45-1 1-1l17 .11a3.98 3.98 0 0 1 2.2 1.39l1.6 2c.76.95 1.91 1.5 3.12 1.5H61z" fill="#fff"/><g fill="#d38e2a"><circle cx="21" cy="8" r="1"/><path d="M32 18l-11 5v13l11 5 11-5V23l-11-5z"/></g><g fill="#e4c290"><path d="M32 29c-.31 0 .61.38-11.41-5.09-.78-.35-.78-1.47 0-1.82l11-5a1 1 0 0 1 .83 0l11 5c.78.35.78 1.47 0 1.82L32.01 29zm-8.58-6L32 26.9l8.58-3.9L32 19.1 23.42 23z"/><path d="M32 42c-.31 0 .61.38-11.41-5.09A1 1 0 0 1 20 36V23a1 1 0 0 1 1.41-.91l11 5A1 1 0 0 1 33 28v13c0 .55-.45 1-1 1zm-10-6.64l9 4.09v-10.8l-9-4.09v10.8z"/><path d="M32 42c-.55 0-1-.45-1-1V28a1 1 0 0 1 .59-.91l11-5A1 1 0 0 1 44 23v13a1 1 0 0 1-.59.91L32 42zm1-13.36v10.8l9-4.09v-10.8l-9 4.09z"/></g><path d="M43 20c-.88 0-1.34-1.07-.71-1.71C44.43 16.15 44.45 16 45 16h11c.55 0 1 .45 1 1s-.45 1-1 1H45.41c-1.8 1.8-1.86 2-2.41 2zm13-6h-6c-.55 0-1-.45-1-1s.45-1 1-1h6c.55 0 1 .45 1 1s-.45 1-1 1zM17 36H8c-.55 0-1-.45-1-1s.45-1 1-1h9c.55 0 1 .45 1 1s-.45 1-1 1zm-5 4H8c-.55 0-1-.45-1-1s.45-1 1-1h4c.55 0 1 .45 1 1s-.45 1-1 1z" fill="#d9d9d9"/><g fill="#5e9fdf"><path d="M7 12h12v2H7z"/><path d="M7 14h12v8H7z"/><path d="M12 14h2v8h-2z"/><path d="M7 17h12v2H7z"/><rect x="47" y="31" width="10" height="12" rx="2"/></g><g fill="#fff"><circle cx="52" cy="35" r="1"/><circle cx="52" cy="39" r="1"/></g></svg>