<svg xmlns="http://www.w3.org/2000/svg" viewBox="0 0 64 64" xmlns:v="https://vecta.io/nano"><path d="M52 8v48c0 3.64-2.43 6.71-5.75 7.68-1.52.45-.39.32-26.25.32a8 8 0 0 1-8-8V8a8 8 0 0 1 8-8h24a8 8 0 0 1 8 8z" fill="#5e9fdf"/><path d="M49 9v45c0 3.31-2.69 6-6 6H21c-3.31 0-6-2.69-6-6V9c0-3.31 2.69-6 6-6h3.29a.98.98 0 0 1 .94.68l.31.95A2.01 2.01 0 0 0 27.44 6h9.12a2.01 2.01 0 0 0 1.9-1.37l.31-.94a1 1 0 0 1 .95-.69H43c3.36 0 6 2.74 6 6z" fill="#fff"/><path d="M42 58H22c-.55 0-1-.45-1-1 0-.29.22-1 1-1h20c.55 0 1 .45 1 1 0 .29-.22 1-1 1z" fill="#d9d9d9"/><path d="M52 8v26h-3l-.09-26H52z" fill="#1976d2"/><path d="M49 34h-2l-1.6 2.13c-1.18 1.59-3.61 1.61-4.8 0L39 34h-1a4 4 0 0 1-4-4V12a4 4 0 0 1 4-4h10.91c.13.69.09-1.33.09 26z" fill="#f3f3f3"/><path d="M36 12v18c0 1.1.9 2 2 2h1c.63 0 1.22.3 1.6.8l1.6 2.13c.4.53 1.2.53 1.6 0l1.6-2.13c.38-.5.97-.8 1.6-.8h15c1.1 0 2-.9 2-2V12c0-1.1-.9-2-2-2H38c-1.1 0-2 .9-2 2z" fill="#5e9fdf"/><g fill="#fff"><path d="M54 26c-.4 0-.77-.24-.93-.63L50 17.69l-3.07 7.68a1.01 1.01 0 0 1-1.3.56 1.01 1.01 0 0 1-.56-1.3l4-10c.34-.84 1.52-.84 1.86 0l4 10A1 1 0 0 1 54 26z"/><path d="M52,23h-4c-.55,0-1-.45-1-1s.45-1,1-1h4c.55,0,1,.45,1,1s-.45,1-1,1Z"/></g><path d="M12 28h3v26h-3z" fill="#1976d2"/><path d="M30 32v18a4 4 0 0 1-4 4H15V28h3l1.6-2.13c1.18-1.59 3.61-1.61 4.8 0L26 28a4 4 0 0 1 4 4z" fill="#f3f3f3"/><path d="M24.4 29.2l-1.6-2.13c-.4-.53-1.2-.53-1.6 0l-1.6 2.13c-.38.5-.97.8-1.6.8H2c-1.1 0-2 .9-2 2v18c0 1.1.9 2 2 2h24c1.1 0 2-.9 2-2V32c0-1.1-.9-2-2-2-.84 0-1.37-.49-1.6-.8z" fill="#d38e2a"/><g fill="#fff"><path d="M18,40H8c-.55,0-1-.45-1-1s.45-1,1-1h10c.55,0,1,.45,1,1s-.45,1-1,1Z"/><path d="M13 40c-.55 0-1-.45-1-1v-4c0-.55.45-1 1-1s1 .45 1 1v4c0 .55-.45 1-1 1zm-4.99 7.16c-.09-.54.28-1.06.82-1.15a7.3 7.3 0 0 0 6.04-6.18l.14-.98a1 1 0 0 1 1.13-.85c.55.08.93.58.85 1.13l-.14.98c-.58 4.03-3.67 7.2-7.69 7.87-.53.09-1.06-.27-1.15-.82z"/><path d="M16.84 47.99a9.34 9.34 0 0 1-6.51-4.48 1 1 0 1 1 1.73-1.01c1.1 1.88 2.96 3.16 5.11 3.52.54.09.91.61.82 1.15s-.62.92-1.15.82z"/></g><path d="M21 11h11v2H21zm-4 4h15v2H17zm0 4h10v2H17zm19 22h11v2H36zm-4 4h15v2H32zm0 4h10v2H32z" fill="#d9d9d9"/></svg>