<svg xmlns="http://www.w3.org/2000/svg" viewBox="0 0 64 64" xmlns:v="https://vecta.io/nano"><path d="M62,19V58H2V19c0-1.66,1.34-3,3-3H59c1.66,0,3,1.34,3,3Z" fill="#5e9fdf"/><path d="M1 58h62c.55 0 1 .45 1 1v2c0 1.66-1.34 3-3 3H3c-1.66 0-3-1.34-3-3v-2c0-.55.45-1 1-1z" fill="#1976d2"/><path d="M60 19v37H4V19c0-.55.45-1 1-1h54c.55 0 1 .45 1 1z" fill="#fff"/><path d="M39 60H25c-1.1 0-2-.9-2-2 0-.1-.84 0 18 0 0 .81-.63 2-2 2z" fill="#f3f3f3"/><path d="M61 16.18V19c0-.55-.45-1-1-1H35v-2l26 .18z" fill="#1976d2"/><path d="M57 23H45.54c-.71 0-.91.55-1.71 1.75a.99.99 0 0 1-1.66 0C40.82 22.73 41.3 23 39 23s-4-1.79-4-4v-1h25c2.09 0 .82 5-3 5z" fill="#f3f3f3"/><path d="M63 2v17c0 1.1-.9 2-2 2-14.46 0-13.87-.19-14.3.45l-.87 1.31a1 1 0 0 1-1.66 0c-.99-1.49-1.06-1.75-1.7-1.75h-3.46c-1.1 0-2-.9-2-2V2c0-1.1.9-2 2-2h22c1.1 0 2 .9 2 2z" fill="#d38e2a"/><path d="M46.47 12.46c-.94.93.46 2.35 1.4 1.42 1.15-1.14 3.1-1.14 4.26 0 .4.39 1.03.38 1.41-.01 1.58-1.61-3.75-4.69-7.07-1.41zm-2.84-2.83c-.94.93.47 2.35 1.41 1.42a7.02 7.02 0 0 1 9.91 0c.93.92 2.35-.49 1.41-1.42a9.01 9.01 0 0 0-12.73 0zM59.2 6.8c-5.07-5.07-13.32-5.07-18.39 0-.94.94.48 2.35 1.41 1.41a11.03 11.03 0 0 1 15.57 0c.94.94 2.35-.48 1.41-1.41zM50 15c-1.32 0-1.32 2 0 2s1.32-2 0-2z" fill="#fff"/><g fill="#5e9fdf"><path d="M17,29v-3c0-1.32,2-1.32,2,0v3c0,1.32-2,1.32-2,0Z"/><path d="M22,30H14c-1.32,0-1.32-2,0-2h8c1.32,0,1.32,2,0,2Z"/><path d="M14 40c-1.02 0-1.39-1.36-.5-1.87l3.87-2.21a5.21 5.21 0 0 0 2.62-4.52V29c0-1.32 2-1.32 2 0v2.4c0 2.58-1.39 4.98-3.63 6.26L13.99 40z"/><path d="M21 40c-.43 0-.24.04-4.89-3.06C14.79 36.06 14 34.59 14 33c0-1.32 2-1.32 2 0 0 .92.46 1.77 1.22 2.28l4.34 2.89c.82.55.43 1.83-.56 1.83zm29.07.36L46 29.79l-4.07 10.57c-.48 1.24-2.34.52-1.87-.72l5-13c.33-.85 1.54-.85 1.87 0l5 13c.47 1.23-1.39 1.95-1.87.72z"/><path d="M49,37h-6c-1.32,0-1.32-2,0-2h6c1.32,0,1.32,2,0,2Z"/></g><path d="M6 42h24v2H6zm0 4h24v2H6zm0 4h24v4H6zm28-8h24v2H34zm0 4h24v2H34zm0 4h24v4H34z" fill="#d9d9d9"/><path d="M31 38a1 1 0 0 1-.83-1.55L31.8 34l-1.63-2.45c-.73-1.1.93-2.21 1.66-1.11l2 3c.22.34.22.77 0 1.11C31.7 37.75 31.7 38 31 38z" fill="#d38e2a"/></svg>