<svg xmlns="http://www.w3.org/2000/svg" viewBox="0 0 64 64" xmlns:v="https://vecta.io/nano"><path d="M64 37c0 6.67-4.67 12.27-11 13.68-2.12.46-.15.32-39 .32-3.32 0-6.39-1.16-8.78-3.11-7.64-6.12-6.77-18.09 1.79-23.01C4.08 19.61 7.85 13 14 13c1.47 0 2.9.41 4.15 1.16 6.81-9.63 21.18-9.53 27.85.21 1.73 2.49 2.79 5.46 2.97 8.67C56.84 22.35 64 28.72 64 37z" fill="#f3f3f3"/><path d="M33.26 48.13c.66.82.84 1.89.48 2.87H16.26c-.36-.98-.18-2.05.48-2.87l5.92-7.4c1.19-1.51 3.49-1.51 4.68 0l5.92 7.4zM44 42v9H34v-9a3.01 3.01 0 0 1 3-3h4a3.01 3.01 0 0 1 3 3zm2-27.63V28a4 4 0 0 1-4 4H22a4 4 0 0 1-4-4l.15-13.84c6.81-9.63 21.18-9.53 27.85.21z" fill="#d9d9d9"/><path d="M44 6v22c0 1.1-.9 2-2 2H22c-1.1 0-2-.9-2-2V2c0-1.1.9-2 2-2h16l6 6zM30.92 51H28v12c0 .55-.45 1-1 1h-4c-.55 0-1-.45-1-1V51h-2.92a1 1 0 0 1-.78-1.62l5.92-7.4a1 1 0 0 1 1.56 0l5.92 7.4a1 1 0 0 1-.78 1.62z" fill="#5e9fdf"/><path d="M33.08 54H36V42c0-.55.45-1 1-1h4c.55 0 1 .45 1 1v12h2.92a1 1 0 0 1 .78 1.62l-5.92 7.4a1 1 0 0 1-1.56 0l-5.92-7.4a1 1 0 0 1 .78-1.62z" fill="#d38e2a"/><path d="M44 6h-6V0l6 6z" fill="#1976d2"/><path d="M39 17H29c-.55 0-1-.45-1-1 0-.29.22-1 1-1h10c.55 0 1 .45 1 1 0 .29-.22 1-1 1zm0 4H25c-.55 0-1-.45-1-1 0-.29.22-1 1-1h14c.55 0 1 .45 1 1 0 .29-.22 1-1 1zm0 4H25c-.55 0-1-.45-1-1 0-.29.22-1 1-1h14c.55 0 1 .45 1 1 0 .29-.22 1-1 1z" fill="#f3f3f3"/></svg>