<?xml version="1.0" encoding="UTF-8"?><svg id="a" xmlns="http://www.w3.org/2000/svg" viewBox="0 0 58.01 64.05"><defs><style>.d{fill:#5e9fdf;}.e{fill:#d38e2a;}.f{fill:#f3f3f3;}.g{fill:#d9d9d9;}.h{fill:#1976d2;}</style></defs><g><path id="b" class="d" d="M57,35c0,20.12-20.7,33.33-38.29,26.04-5.38-1.98-1.68-2.91-10.71,.96,.87-7.03,1.13-7.24,.29-8.16C-7.54,36.44,4,8.83,26.8,7.08c10.26-.78,20.48,3.98,26.4,13.84,0,.01,1.37,2.44,1.37,2.68,.14,.14,2.43,5.29,2.43,11.4Z"/><path id="c" class="d" d="M57,35c0,20.12-20.7,33.33-38.29,26.04-5.38-1.98-1.68-2.91-10.71,.96,.87-7.03,1.13-7.24,.29-8.16C-7.54,36.44,4,8.83,26.8,7.08c10.26-.78,20.48,3.98,26.4,13.84,0,.01,1.37,2.44,1.37,2.68,.14,.14,2.43,5.29,2.43,11.4Z"/><path class="d" d="M26,7.16l-.02,5.64c-.09,1.47-.68,3.02-1.74,4.25-2.58,3.03-2.58,6.87,0,9.9,4.09,4.73,.64,12.05-5.54,12.05-.94,0-1.7,.76-1.7,1.7h0v4.13c0,4.58-6.39,5.78-8.05,1.55-.62-1.53-2.06-2.38-3.51-2.38H2.49C-3.45,26.63,8.67,9.01,26,7.16Zm14,53.04v.55c-7.1,3.09-15.47,2.9-21.85,.07,.1-.1-.18,.22,3.3-3.96,2.74-3.27,1.83-5.08,4.29-6.84,3.06-2.21,7.36-.67,8.38,2.91,.56,1.94,1.97,3.51,3.84,4.25,1.23,.5,2.04,1.69,2.04,3.02Zm14.93-14.62c-1.07,2.49-1.54,3.12-1.69,3.42h-6.24c-2.21,0-4-1.79-4-4s-1.8-4-4-4-4-1.8-4-4v-4c0-2.21,1.79-4,4-4h.72c1.91,0,3.55-1.35,3.92-3.22,.8-3.86,4.13-6.78,8.33-6.78,5.66,7.92,6.32,18.45,2.96,26.58Z"/></g><path class="h" d="M57.85,32.06c-.6-6.01-3.1-11.59-6.85-15.96C39.47,2.65,18.55,2.63,7,16.1c-9.47,11.02-9.43,27.65,.74,38.62-.8,7.81-.96,7.62-.34,8.08,.63,.46,.43,.35,7.37-2.53,20.51,11.56,45.48-4.98,43.08-28.21Zm-4.68-9.06h-11.2c-1.98-5.59-5.38-10.63-10.02-14.82,9.19,1,17.2,6.65,21.22,14.82Zm-12.66,22H17.49c-1.99-6.52-1.99-13.48,0-20h23.02c2.04,6.73,1.93,13.72,0,20Zm-.69-22H18.18c2.26-5.91,5.96-10.8,10.82-14.73,5.03,4.06,8.69,9.09,10.82,14.73Zm-13.77-14.82c-4.83,4.36-8.14,9.49-10.02,14.82H4.83c4.01-8.16,12.02-13.82,21.22-14.82ZM3.93,25H15.4c-1.87,6.47-1.87,13.52,0,20H3.93c-2.71-6.51-2.4-14.25,0-20ZM15.36,58.3c-.59-.33-.36-.28-6.19,2.13,.66-6.47,.77-6.31,.33-6.75-1.9-2-3.45-4.25-4.66-6.68h11.19c1.98,5.59,5.38,10.63,10.03,14.83-3.78-.42-7.43-1.61-10.7-3.53Zm2.82-11.3h21.64c-2.13,5.64-5.79,10.67-10.82,14.73-5.03-4.06-8.69-9.09-10.82-14.73Zm13.77,14.82c4.64-4.19,8.04-9.23,10.02-14.82h11.2c-4.1,8.27-12.11,13.83-21.22,14.82Zm22.12-16.82h-11.47c1.86-6.44,1.88-13.47,0-20h11.47c2.55,6.12,2.57,13.83,0,20Z"/><path class="d" d="M50.78,19.08c-2.41,.32-4.51,1.58-6.04,3.92h-2.77c-1.98-5.59-5.38-10.63-10.02-14.82,7.58,.83,14.4,4.81,18.83,10.9Z"/><path class="h" d="M51,23h-6.26c1.51-2.31,3.59-3.6,6.04-3.92,.3,.34,.22-.02,.22,3.92Z"/><path class="d" d="M25,23v-1h-2.68c0-4.57,3.4-4.9,3.66-9.2,.03-.43,.02-.29,.02-1.83,.94-.94,1.94-1.84,3-2.7,5.03,4.06,8.69,9.09,10.82,14.73h-14.82Z"/><path class="h" d="M26,10.97c0,1.56,.21,3.81-1.76,6.08-1.22,1.43-1.92,2.99-1.92,4.95h-3.74c1.68-4.06,4.18-7.78,7.42-11.03Zm.05-2.79c-4.36,3.94-7.63,8.63-9.64,13.82h-7.41c-1.1,0-2-.9-2-2v-.63c4.43-6.25,11.35-10.35,19.05-11.19Z"/><path class="d" d="M41.06,27c-14.24,0-14.32,.05-14.72-.11-.41-.21-.64-.31-.94-.7-.05-.1-.4-.51-.4-1.19h15.51c.2,.66,.39,1.32,.55,2Z"/><g><path class="h" d="M51,25c0,1.1-.9,2-2,2h-5.89l-.51-2h8.4Z"/><path class="h" d="M31.95,8.18c4.64,4.19,8.04,9.23,10.02,14.82h9.03v2h-8.4c.19,.66,.36,1.33,.51,2h-2.05c-.16-.68-.35-1.34-.55-2h-15.51v-2h14.82c-2.13-5.64-5.79-10.67-10.82-14.73-4.73,3.82-8.25,8.49-10.42,13.73h-2.17c2.01-5.19,5.28-9.88,9.64-13.82-7.7,.84-14.62,4.94-19.05,11.19v-3.27c11.53-13.45,32.45-13.47,44,0v3.27c-4.43-6.25-11.35-10.35-19.05-11.19Z"/></g><path class="e" d="M27,5h22V25H27V5Z"/><path class="f" d="M9,0H31V20H9V0Z"/><path class="e" d="M25.89,14.55l-5-10c-.34-.68-1.45-.68-1.79,0l-5,10c-.59,1.18,1.2,2.08,1.79,.89l1.22-2.45h5.76l1.22,2.45c.59,1.18,2.38,.29,1.79-.89h.01Zm-7.78-3.55l1.88-3.76,1.88,3.76h-3.76Z"/><g><path class="f" d="M38,13c-.55,0-1-.45-1-1v-2c0-.55,.45-1,1-1s1,.45,1,1v2c0,.55-.45,1-1,1Z"/><path class="f" d="M42,13h-8c-.55,0-1-.45-1-1s.45-1,1-1h8c.55,0,1,.45,1,1s-.45,1-1,1Z"/><path class="f" d="M34,21c-.39,0-.76-.23-.92-.61-.22-.51,.02-1.1,.52-1.31l2.4-1.03c2.43-1.04,3.99-3.42,3.99-6.05,0-.55,.45-1,1-1s1,.45,1,1c0,3.44-2.04,6.53-5.21,7.89l-2.4,1.03c-.13,.06-.26,.08-.39,.08Z"/><path class="f" d="M42,21c-.13,0-.27-.03-.39-.08l-.84-.35c-2.14-.89-3.99-1.66-5.46-4.04-.29-.47-.15-1.09,.32-1.38,.47-.29,1.09-.15,1.38,.32,1.14,1.83,2.49,2.39,4.53,3.25l.86,.36c.51,.22,.74,.81,.52,1.31-.16,.38-.53,.61-.92,.61Z"/></g><path class="g" d="M31,20l-4,5v-5h4Z"/></svg>