<svg xmlns="http://www.w3.org/2000/svg" viewBox="0 0 64 64" xmlns:v="https://vecta.io/nano"><path d="M62 19v39H2V19c0-1.31.84-2.42 2.01-2.82.68-.26 0-.18 12.62-.18l3.37.96 3.37-.96H59c1.66 0 3 1.34 3 3z" fill="#5e9fdf"/><path d="M1 58h62c.55 0 1 .45 1 1v2c0 1.66-1.34 3-3 3H3c-1.66 0-3-1.34-3-3v-2c0-.55.45-1 1-1z" fill="#1976d2"/><path d="M60 19v4H20l-4-5h43c.55 0 1 .45 1 1z" fill="#5e9fdf"/><path d="M60 23v33H4l.19-37.59c.19-.25.48-.41.81-.41h14.08c1.21 0 2.36.55 3.12 1.5l1.6 2c.86 1.03 1.97 1.5 3.12 1.5H60z" fill="#fff"/><path d="M39 60H25c-.81 0-2-.63-2-2h18c0 .81-.63 2-2 2zm-5.79-39A15.96 15.96 0 0 1 28 25.86V54H12V25.86c-3.7-2.13-6.37-5.68-7.46-9.75.31-.16-.57-.11 11.46-.11l4 5h13.21z" fill="#f3f3f3"/><path d="M34.82 18a16.15 16.15 0 0 1-3.22 5H20l-4-5h18.82z" fill="#5e9fdf"/><path d="M35.48 16c-.17.68-.39 1.35-.66 2H5.17c-.5-1.24-.6-1.86-.65-1.96.3-.06-.5-.04 12.11-.04l3.37.96 3.37-.96h12.11z" fill="#1976d2"/><path d="M27.54.21c-.68-.42-1.54.07-1.54.85v10.19l-6 1.71-6-1.71V1.06c0-.78-.86-1.27-1.54-.85C3.21 6.09 4.05 19.94 14 24.65V56h12V24.65C35.94 19.94 36.79 6.09 27.54.21z" fill="#d38e2a"/><path d="M54 36.69v-1.38c0-.72-.59-1.31-1.31-1.31-.18 0-.93-.07-1.21-.81l-.2-.49c-.4-.88.4-1.54.28-1.43a1.31 1.31 0 0 0 0-1.85l-.97-.97a1.31 1.31 0 0 0-1.85 0c-.13.13-.7.61-1.43.28l-.49-.2c-.9-.34-.81-1.37-.81-1.21 0-.72-.59-1.31-1.31-1.31h-1.38c-.72 0-1.31.59-1.31 1.31 0 .18-.07.93-.81 1.21l-.49.2c-.88.4-1.54-.4-1.43-.28a1.31 1.31 0 0 0-1.85 0l-.97.97a1.31 1.31 0 0 0 0 1.85c.13.13.61.7.28 1.43l-.2.49c-.34.9-1.37.81-1.21.81-.72 0-1.31.59-1.31 1.31v1.38c0 .72.59 1.31 1.31 1.31.18 0 .93.07 1.21.81l.2.49c.4.88-.4 1.54-.28 1.43a1.31 1.31 0 0 0 0 1.85l.97.97a1.31 1.31 0 0 0 1.85 0c.13-.13.7-.61 1.43-.28l.49.2c.9.34.81 1.37.81 1.21 0 .72.59 1.31 1.31 1.31h1.38c.72 0 1.31-.59 1.31-1.31 0-.18.07-.93.81-1.21l.49-.2c.88-.4 1.54.4 1.43.28a1.31 1.31 0 0 0 1.85 0l.97-.97a1.31 1.31 0 0 0 0-1.85c-.13-.13-.61-.7-.28-1.43l.2-.49c.34-.9 1.37-.81 1.21-.81.72 0 1.31-.59 1.31-1.31z" fill="#5e9fdf"/><circle cx="44" cy="36" r="5" fill="#1976d2"/><path d="M33 48h6v2h-6zm10 0h13v2H43zm-10 4h6v2h-6zm10 0h13v2H43z" fill="#d9d9d9"/><path d="M20 52c-.81 0-2-.63-2-2V40c0-1.1.9-2 2-2 .81 0 2 .63 2 2v10c0 1.1-.9 2-2 2z" fill="#e4c290"/></svg>