<svg xmlns="http://www.w3.org/2000/svg" viewBox="0 0 64 64" xmlns:v="https://vecta.io/nano"><path d="M60 8v38c0 1.1-.9 2-2 2H24c-1.1 0-2-.9-2-2V2c0-1.1.9-2 2-2h28l8 8z" fill="#f3f3f3"/><path d="M48,32v16H24c-1.1,0-2-.9-2-2V26h20c3.31,0,6,2.69,6,6Z" fill="#d9d9d9"/><rect x="1" y="29" width="44" height="34" rx="3" fill="#fff"/><path d="M42 64H4a4 4 0 0 1-4-4V32a4 4 0 0 1 4-4h38a4 4 0 0 1 4 4v28a4 4 0 0 1-4 4zM4 30c-1.1 0-2 .9-2 2v28c0 1.1.9 2 2 2h38c1.1 0 2-.9 2-2V32c0-1.1-.9-2-2-2H4z" fill="#5e9fdf"/><path d="M54 35h6v22h-6z" fill="#d38e2a"/><path d="M60 57l-3 7-3-7h6z" fill="#5e9fdf"/><path d="M63 49c-.55 0-1-.45-1-1V37c0-1.1-.9-2-2-2h-6c-.55 0-1-.45-1-1s.45-1 1-1h6a4 4 0 0 1 4 4v11c0 .55-.45 1-1 1z" fill="#1976d2"/><path d="M57,27c-1.66,0-3,1.34-3,3v3h6v-3c0-1.66-1.34-3-3-3Z" fill="#e4c290"/><path d="M58.29 61L57 64l-1.29-3h2.58z" fill="#1976d2"/><path d="M60,8h-6c-1.1,0-2-.9-2-2V0l8,8Z" fill="#d9d9d9"/><path d="M38 58H8c-.55 0-1-.45-1-1 0-.29.22-1 1-1h30c.55 0 1 .45 1 1 0 .29-.22 1-1 1z" fill="#5e9fdf"/><circle cx="13" cy="57" r="2" fill="#1976d2"/><path d="M18 49.18V38.82a1 1 0 0 1 1.54-.84l8.14 5.18a1 1 0 0 1 0 1.69l-8.14 5.18c-.67.42-1.54-.05-1.54-.84z" fill="#d38e2a"/><g fill="#d9d9d9"><path d="M27 12h6v2h-6zm10 0h18v2H37zm-10 5h6v2h-6zm10 0h18v2H37zm-10 5h6v2h-6zm10 0h18v2H37z"/><circle cx="40" cy="34" r="1"/><circle cx="36" cy="34" r="1"/><circle cx="32" cy="34" r="1"/><path d="M5 38h6v2H5zm0 4h4v2H5z"/></g></svg>