<svg xmlns="http://www.w3.org/2000/svg" viewBox="0 0 64 64" xmlns:v="https://vecta.io/nano"><path d="M62,19V58H2V19c0-1.66,1.34-3,3-3H59c1.66,0,3,1.34,3,3Z" fill="#5e9fdf"/><path d="M1 58h62c.55 0 1 .45 1 1v2c0 1.66-1.34 3-3 3H3c-1.66 0-3-1.34-3-3v-2c0-.55.45-1 1-1z" fill="#1976d2"/><path d="M60 19v37H4V19c0-.55.45-1 1-1h54c.55 0 1 .45 1 1z" fill="#fff"/><path d="M39 60H25c-1.1 0-2-.9-2-2 0-.1-.84 0 18 0 0 .81-.63 2-2 2z" fill="#f3f3f3"/><rect x="8" y="1" width="24" height="20" rx="2" fill="#1976d2"/><g fill="#5e9fdf"><circle cx="27" cy="11" r="2"/><circle cx="20" cy="11" r="2"/></g><circle cx="13" cy="11" r="2" fill="#f3f3f3"/><path d="M22 21l2 2 2-2" fill="#1976d2"/><path d="M6 26h26v16H6zm30 4h22v12H36z" fill="#d9d9d9"/><path d="M16 30v8l6-4-6-4z" fill="#c8c8c8"/><path d="M6 44h26v2H6zm0 4h26v2H6zm30-4h22v2H36zm0 4h22v2H36zm0 4h22v2H36zM6 52h22v2H6z" fill="#d9d9d9"/><g fill="#d38e2a"><path d="M52,46h-6V9c0-1.66,1.34-3,3-3s3,1.34,3,3V46Z"/><path d="M46 46l2.11 4.21a1 1 0 0 0 1.79 0L52.01 46"/></g><path d="M56 16v10c0 .81-.63 2-2 2V16c0-1.1-.9-2-2-2h-6c-1.32 0-1.32-2 0-2h6a4 4 0 0 1 4 4z" fill="#c8c8c8"/></svg>