<svg xmlns="http://www.w3.org/2000/svg" viewBox="0 0 64 64" xmlns:v="https://vecta.io/nano"><rect y="12" width="64" height="46" rx="3" fill="#1976d2"/><rect x="2" y="14" width="60" height="40" rx="1" fill="#fff"/><g fill="#1976d2"><path d="M28 58h8v4h-8z"/><path d="M51 64c0 .1 1.23 0-38 0 0-.81.63-2 2-2h34c1.1 0 2 .9 2 2z"/></g><path d="M2 14h60v22H2z" fill="#5e9fdf"/><path d="M16,40c-3.87,0-7-3.13-7-7v-5h14v5c0,3.87-3.13,7-7,7Z" fill="#d38e2a"/><path d="M9 28h14c0-2.76-2.24-5-5-5-3.9 0-6.73.14-11-2v5c0 1.1.9 2 2 2z" fill="#1976d2"/><path d="M11,40h10c3.31,0,6,2.69,6,6v8H5v-8c0-3.31,2.69-6,6-6Z" fill="#5e9fdf"/><path d="M11 54H9v-3c0-1.32 2-1.32 2 0v3zm12 0h-2v-3c0-1.32 2-1.32 2 0v3z" fill="#1976d2"/><rect x="30" y="21" width="28" height="22" rx="3" fill="#5e9fdf"/><path d="M30 45h20v2H30zm0 4h14v2H30z" fill="#d9d9d9"/><path d="M41 29.87v4.26c0 .8.89 1.28 1.55.83l3.2-2.13a1 1 0 0 0 0-1.66l-3.2-2.13a1 1 0 0 0-1.55.83zM11 12h28v2H11z" fill="#1976d2"/><path d="M39 14a4 4 0 0 1-4 4H21.83c-1.3 1.29-1.77 2-2.83 2s-1.36-.54-2.83-2H15a4 4 0 0 1-4-4h28z" fill="#5e9fdf"/><path d="M13 2v12c0 1.1.9 2 2 2h2l2 2 2-2h14c1.1 0 2-.9 2-2V2c0-1.1-.9-2-2-2H15c-1.1 0-2 .9-2 2z" fill="#d38e2a"/><g fill="#fff"><circle cx="18" cy="8" r="2"/><circle cx="25" cy="8" r="2"/><circle cx="32" cy="8" r="2"/></g></svg>