<svg xmlns="http://www.w3.org/2000/svg" viewBox="0 0 64 64" xmlns:v="https://vecta.io/nano"><rect y="14" width="61" height="46" rx="4" fill="#5e9fdf"/><rect x="3" y="17" width="50" height="40" rx="2" fill="#fff"/><circle cx="57" cy="37" r="2" fill="#1976d2"/><path d="M6 20h44v26H6z" fill="#5e9fdf"/><path d="M61 18v7.24A12.94 12.94 0 0 1 53 28v-9c0-1.1-.9-2-2-2H40.15c-.18-1.19-.18-2.35-.1-3H57a4 4 0 0 1 4 4z" fill="#1976d2"/><path d="M53 19v9a12.96 12.96 0 0 1-3-.35V20h-9a12.6 12.6 0 0 1-.85-3H51c1.1 0 2 .9 2 2z" fill="#f3f3f3"/><path d="M50,20v7.65c-4.07-.97-7.41-3.85-9-7.65h9Z" fill="#1976d2"/><circle cx="53" cy="15" r="11" fill="#f3f3f3"/><path d="M23 40c-.55 0-1-.45-1-1V27a1 1 0 0 1 1.51-.86l10 6c.65.39.65 1.33 0 1.71-10.9 6.54-10.12 6.14-10.51 6.14z" fill="#fff"/><path d="M49,53H7c-.55,0-1-.45-1-1s.45-1,1-1H49c.55,0,1,.45,1,1s-.45,1-1,1Z" fill="#d9d9d9"/><g fill="#d38e2a"><circle cx="14" cy="52" r="2"/><circle cx="53" cy="19" r="2"/><path d="M56.54 16.46a1 1 0 0 1-.7-.29c-1.53-1.51-4.15-1.51-5.67 0-.39.39-1.03.38-1.41 0-.39-.39-.38-1.03 0-1.41a6.03 6.03 0 0 1 8.49 0c.63.63.19 1.71-.7 1.71zm2.82-2.82c-.26 0-.51-.1-.71-.3-3.1-3.12-8.19-3.13-11.3 0-.39.39-1.02.39-1.41 0s-.39-1.02 0-1.41c3.89-3.92 10.25-3.92 14.14 0 .63.63.17 1.7-.71 1.7z"/></g><g fill="#f3f3f3"><circle cx="10" cy="24" r="1"/><circle cx="14" cy="24" r="1"/></g></svg>