<?xml version="1.0" encoding="UTF-8"?><svg id="a" xmlns="http://www.w3.org/2000/svg" viewBox="0 0 64 56"><defs><style>.b{fill:#5e9fdf;}.c{fill:#d38e2a;}.d{fill:#f3f3f3;}.e{fill:#1976d2;}</style></defs><path class="b" d="M2,26H62c1.1,0,2,.9,2,2v24H0V28c0-1.1,.9-2,2-2Z"/><path class="e" d="M62,56H2c-1.1,0-2-.9-2-2v-2H64v2c0,1.1-.9,2-2,2Z"/><g><rect class="d" x="3" y="28" width="4" height="4" rx="1" ry="1"/><rect class="d" x="3" y="40" width="8" height="4" rx="1" ry="1"/><rect class="d" x="3" y="46" width="4" height="4" rx="1" ry="1"/><rect class="d" x="9" y="46" width="4" height="4" rx="1" ry="1"/><rect class="d" x="51" y="46" width="4" height="4" rx="1" ry="1"/><rect class="d" x="57" y="46" width="4" height="4" rx="1" ry="1"/><rect class="d" x="9" y="28" width="4" height="4" rx="1" ry="1"/><rect class="d" x="11" y="34" width="4" height="4" rx="1" ry="1"/><rect class="d" x="13" y="40" width="4" height="4" rx="1" ry="1"/><rect class="d" x="19" y="40" width="4" height="4" rx="1" ry="1"/><rect class="d" x="25" y="40" width="4" height="4" rx="1" ry="1"/><rect class="d" x="31" y="40" width="4" height="4" rx="1" ry="1"/><rect class="d" x="37" y="40" width="4" height="4" rx="1" ry="1"/><rect class="d" x="43" y="40" width="4" height="4" rx="1" ry="1"/><rect class="d" x="17" y="34" width="4" height="4" rx="1" ry="1"/><rect class="d" x="23" y="34" width="4" height="4" rx="1" ry="1"/><rect class="d" x="29" y="34" width="4" height="4" rx="1" ry="1"/><rect class="d" x="35" y="34" width="4" height="4" rx="1" ry="1"/><rect class="d" x="41" y="34" width="4" height="4" rx="1" ry="1"/><rect class="d" x="15" y="28" width="4" height="4" rx="1" ry="1"/><rect class="d" x="21" y="28" width="4" height="4" rx="1" ry="1"/><rect class="d" x="27" y="28" width="4" height="4" rx="1" ry="1"/><rect class="d" x="33" y="28" width="4" height="4" rx="1" ry="1"/><rect class="d" x="39" y="28" width="4" height="4" rx="1" ry="1"/><rect class="d" x="45" y="28" width="4" height="4" rx="1" ry="1"/><rect class="d" x="47" y="34" width="4" height="4" rx="1" ry="1"/><rect class="d" x="49" y="40" width="4" height="4" rx="1" ry="1"/><rect class="d" x="51" y="28" width="4" height="4" rx="1" ry="1"/><rect class="d" x="57" y="28" width="4" height="4" rx="1" ry="1"/><rect class="d" x="3" y="34" width="6" height="4" rx="1" ry="1"/><rect class="d" x="53" y="34" width="8" height="4" rx="1" ry="1"/><rect class="d" x="55" y="40" width="6" height="4" rx="1" ry="1"/><rect class="d" x="15" y="46" width="34" height="4" rx="1" ry="1"/></g><path class="e" d="M34,3v15c0,1.66-1.34,3-3,3-13.37,0-12.88-.18-13.3,.45l-.87,1.3c-.3,.46-.91,.59-1.37,.29-.12-.08-.21-.17-.29-.29-.99-1.48-1.06-1.75-1.71-1.75h-2.46c-1.66,0-3-1.34-3-3V3c0-1.66,1.34-3,3-3H31c1.66,0,3,1.34,3,3Z"/><g><circle class="b" cx="28" cy="11" r="2"/><circle class="b" cx="21" cy="11" r="2"/></g><circle class="d" cx="14" cy="11" r="2"/><path class="c" d="M30,5v15c0,1.66,1.34,3,3,3,13.37,0,12.88-.18,13.3,.45l.87,1.31c.31,.46,.93,.58,1.39,.27,.11-.07,.2-.16,.27-.27,.99-1.49,1.06-1.75,1.7-1.75h2.46c1.66,0,3-1.34,3-3V5c0-1.66-1.34-3-3-3h-20c-1.66,0-3,1.34-3,3h.01Z"/><path class="d" d="M44,17c-.55,0-1-.45-1-1,0-1.79,.75-3.52,2.13-4.88,.78-.78,1.07-1.9,.75-2.98-.3-1.05-1.11-1.82-2.16-2.05-1.64-.37-2.8,.51-3.32,1.45-.51,.91-.68,2.4,.49,3.59,.39,.39,.38,1.03,0,1.41-.39,.39-1.03,.39-1.41,0-1.6-1.62-1.92-3.96-.82-5.96,1.1-1.98,3.26-2.94,5.51-2.44,1.77,.4,3.13,1.68,3.64,3.44,.51,1.77,.03,3.67-1.26,4.96-.99,.98-1.54,2.21-1.54,3.46,0,.55-.45,1-1,1Z"/><path class="d" d="M45,20c0-1.32-2-1.32-2,0s2,1.32,2,0Z"/></svg>