<svg xmlns="http://www.w3.org/2000/svg" xmlns:xlink="http://www.w3.org/1999/xlink" viewBox="0 0 64 64" xmlns:v="https://vecta.io/nano"><path d="M42 45c-.55 0-1-.45-1-1v-1.08c0-2.15 1.14-4.17 2.99-5.27A4.18 4.18 0 0 0 46 34.09v-2.08c0-.55.45-1 1-1s1 .45 1 1v2.08c0 2.15-1.14 4.17-2.99 5.27A4.18 4.18 0 0 0 43 42.92V44c0 .55-.45 1-1 1z" fill="#d38e2a"/><rect x="11" width="42" height="32" rx="2" fill="#5e9fdf"/><path d="M38 38H26l1-6h10l1 6z" fill="#1976d2"/><path d="M39 38H25c-.55 0-1-.45-1-1 0-.29.22-1 1-1h14c.55 0 1 .45 1 1 0 .29-.22 1-1 1z" fill="#5e9fdf"/><path d="M9 44h46c1.1 0 2 .9 2 2v15H7V46c0-1.1.9-2 2-2z" fill="#1976d2"/><path d="M13 2h38v26H13z" fill="#fff"/><path d="M26 20c-.26 0-.51-.1-.71-.29l-4-4c-.39-.39-.39-1.02 0-1.41l4-4c.39-.39 1.02-.39 1.41 0s.39 1.02 0 1.41L23.41 15l3.29 3.29a1.01 1.01 0 0 1-.71 1.71zm12 0c-.88 0-1.34-1.07-.71-1.71L40.58 15l-3.29-3.29c-.39-.39-.39-1.02 0-1.41s1.02-.39 1.41 0l4 4c.39.39.39 1.02 0 1.41l-4 4a.98.98 0 0 1-.71.29zm-8 2c-.68 0-1.16-.67-.95-1.32l4-12c.17-.52.74-.81 1.26-.63a1 1 0 0 1 .63 1.27l-4 12c-.14.42-.53.68-.95.68z" fill="#d38e2a"/><g fill="#5e9fdf"><use xlink:href="#B"/><use xlink:href="#B" x="8"/><use xlink:href="#B" x="16"/><use xlink:href="#B" x="24"/><use xlink:href="#B" x="32"/><use xlink:href="#B" x="40"/><use xlink:href="#B" y="5"/><use xlink:href="#B" x="8" y="5"/><use xlink:href="#B" x="16" y="5"/><use xlink:href="#B" x="24" y="5"/><use xlink:href="#B" x="32" y="5"/><use xlink:href="#B" x="40" y="5"/><use xlink:href="#B" y="10"/><path d="M45 59H19c-.55 0-1-.45-1-1 0-.29.22-1 1-1h26c.55 0 1 .45 1 1 0 .29-.22 1-1 1z"/><use xlink:href="#B" x="40" y="10"/></g><path d="M7,61H57v1c0,1.1-.9,2-2,2H9c-1.1,0-2-.9-2-2v-1h0Z" fill="#1976d2"/><path d="M16 4h8v2h-8zm0 4h4v2h-4zm32 14h-4v-2h4zm0 4h-4v-2h4z" fill="#d9d9d9"/><defs ><path id="B" d="M13 49h-2c-.55 0-1-.45-1-1 0-.29.22-1 1-1h2c.55 0 1 .45 1 1 0 .29-.22 1-1 1z"/></defs></svg>