<svg xmlns="http://www.w3.org/2000/svg" viewBox="0 0 64 64" xmlns:v="https://vecta.io/nano"><path d="M14 32h36v31c0 .55-.45 1-1 1H15c-.55 0-1-.45-1-1V32h0z" fill="#5e9fdf"/><path d="M44 13L32 0 20 13h6l-3 16h18l-3-16h6z" fill="#d38e2a"/><path d="M49 34.5c-1.32 0-2.01-1.61-1.06-2.56l10-10a1.499 1.499 0 1 1 2.12 2.12C49.26 34.86 49.89 34.5 49 34.5zm-34 0c-.87 0-.24.38-11.06-10.44a1.49 1.49 0 0 1 0-2.12 1.49 1.49 0 0 1 2.12 0l10 10c.95.95.26 2.56-1.06 2.56zM26 54h12v10H26z" fill="#5e9fdf"/><g fill="#f3f3f3"><path d="M18 36h10v2H18zm0 4h6v2h-6z"/><rect x="36" y="36" width="10" height="6" rx="1"/></g></svg>