<svg xmlns="http://www.w3.org/2000/svg" viewBox="0 0 64 64" xmlns:v="https://vecta.io/nano"><path d="M58 24v34c0 .6-.27 1.14-.69 1.5-.35.32-.81.5-1.31.5H2c-.5 0-.96-.18-1.31-.5C.27 59.14 0 58.6 0 58V24h58z" fill="#5e9fdf"/><path d="M58 24L29 46 0 24 29 2l29 22z" fill="#1976d2"/><path d="M50 2v28.07l-6 4.55L29 46 14 34.62l-6-4.55V2c0-1.1.9-2 2-2h38c1.1 0 2 .9 2 2z" fill="#f3f3f3"/><path d="M36.33 26.2a9.01 9.01 0 0 0 1.62-6.15 9.05 9.05 0 0 0-7.94-8C24.59 11.46 20 15.69 20 20.99a8.97 8.97 0 0 0 1.66 5.2c.37.52.2 1.25-.38 1.51l-4.92 2.22a4 4 0 0 0-2.35 3.65v1.04l15 11.38 15-11.38v-1.04c0-1.57-.92-3-2.35-3.65l-4.93-2.22c-.58-.26-.76-.99-.39-1.51z" fill="#e4c290"/><g fill="#1976d2"><path d="M57.31 59.5c-.35.32-.81.5-1.31.5H2c-.5 0-.96-.18-1.31-.5l25.96-18.8c1.4-1.01 3.3-1.01 4.7 0L40 46.96l4.9 3.55 12.41 8.99z"/><path d="M58 38.07V58c0 .6-.27 1.14-.69 1.5L44.9 50.51 40 46.96v-2.67a3.99 3.99 0 0 1 2.35-3.64l8.99-4.09c.53-.24 1.09-.36 1.66-.36s1.13.12 1.65.35L58 38.07z"/><path d="M57.31 59.5c-.35.32-.81.5-1.31.5H43.58A16.92 16.92 0 0 1 40 49.6v-2.64l4.9 3.55 12.41 8.99z"/></g><path d="M64 44.29v5.31c0 6.73-4.51 12.63-11 14.4h0c-6.49-1.77-11-7.67-11-14.4v-5.31c0-.78.46-1.5 1.17-1.82l9-4.09c.53-.24 1.13-.24 1.66 0l9 4.09c.71.32 1.17 1.04 1.17 1.82z" fill="#e4c290"/><path d="M53 40l9 4v5.51c0 5.67-3.63 10.7-9 12.49h0c-5.37-1.79-9-6.82-9-12.49V44l9-4z" fill="#d38e2a"/><path d="M19.52 14.94c-.68 1.27-1.99 2.06-3.39 2.06H8V2c0-1.1.87-2 1.94-2h2.79a3.57 3.57 0 0 1 .49.65l6.19 10.23c.75 1.23.78 2.79.11 4.06z" fill="#d9d9d9"/><path d="M7.18.99L.33 11.77C-.56 13.17.46 15 2.15 15h13.7c1.68 0 2.71-1.82 1.82-3.23L10.82.99a2.17 2.17 0 0 0-3.64 0z" fill="#e4c290"/><g fill="#f3f3f3"><rect x="8" y="3" width="2" height="6" rx="1"/><circle cx="9" cy="12" r="1"/><path d="M53 53.96c-.55 0-1-.4-1-.96v-.09c0-1.3.73-2.48 1.96-3.16a1.98 1.98 0 0 0 1-2.12 2.03 2.03 0 0 0-1.6-1.6 2.02 2.02 0 0 0-1.66.43c-.45.38-.71.94-.71 1.53 0 .55-.45 1-1 1s-1-.45-1-1c0-1.19.52-2.3 1.43-3.06s2.11-1.08 3.29-.87a4.03 4.03 0 0 1 3.22 3.22c.3 1.7-.51 3.4-2.01 4.22-.58.32-.93.85-.93 1.41s-.45 1.04-1 1.04z"/><circle cx="53" cy="57" r="1"/></g></svg>