<svg xmlns="http://www.w3.org/2000/svg" viewBox="0 0 64 64" xmlns:v="https://vecta.io/nano"><g fill="#d38e2a"><path d="M58 59h-5.76c-1.14 0-2.17-.64-2.68-1.66l-1.89-3.79a.99.99 0 0 0-.89-.55h-4.76c-.55 0-1-.45-1-1s.45-1 1-1h4.76c1.14 0 2.17.64 2.68 1.66l1.89 3.79a.99.99 0 0 0 .89.55H58c.55 0 1 .45 1 1s-.45 1-1 1z"/><path d="M63 58a3.01 3.01 0 0 1-3 3 3.01 3.01 0 0 1-3-3 3.01 3.01 0 0 1 3-3 3.01 3.01 0 0 1 3 3zm-2 0c0-.55-.45-1-1-1s-1 .45-1 1 .45 1 1 1 1-.45 1-1zM46.76 37H42c-.55 0-1-.45-1-1s.45-1 1-1h4.76a.99.99 0 0 0 .89-.55l1.89-3.79c.51-1.02 1.54-1.66 2.68-1.66h5.76c.55 0 1 .45 1 1s-.45 1-1 1h-5.76a.99.99 0 0 0-.89.55l-1.89 3.79C48.93 36.36 47.9 37 46.76 37zM59 45H40c-.55 0-1-.45-1-1s.45-1 1-1h19c.55 0 1 .45 1 1s-.45 1-1 1zM11 26c-1.1 0-2-.9-2-2v-8C9 7.73 15.73 1 24 1s15 6.73 15 15c0 1.1-.9 2-2 2s-2-.9-2-2A11.01 11.01 0 0 0 24 5a11.01 11.01 0 0 0-11 11v8c0 1.1-.9 2-2 2z"/></g><rect x="4" y="25" width="40" height="38" rx="4" fill="#1976d2"/><circle cx="24" cy="44" r="11" fill="#5e9fdf"/><g fill="#f3f3f3"><path d="M21 49c-.51 0-1.02-.2-1.41-.59-.78-.78-.78-2.05 0-2.83l6-6c.78-.78 2.05-.78 2.83 0s.78 2.05 0 2.83l-6 6c-.39.39-.9.59-1.41.59z"/><path d="M27 49c-.51 0-1.02-.2-1.41-.59l-6-6c-.78-.78-.78-2.05 0-2.83s2.05-.78 2.83 0l6 6c.78.78.78 2.05 0 2.83-.39.39-.9.59-1.41.59z"/></g><path d="M60 33a3.01 3.01 0 0 1-3-3 3.01 3.01 0 0 1 3-3 3.01 3.01 0 0 1 3 3 3.01 3.01 0 0 1-3 3zm0-4c-.55 0-1 .45-1 1s.45 1 1 1 1-.45 1-1-.45-1-1-1zm1 18a3.01 3.01 0 0 1-3-3 3.01 3.01 0 0 1 3-3 3.01 3.01 0 0 1 3 3 3.01 3.01 0 0 1-3 3zm0-4c-.55 0-1 .45-1 1s.45 1 1 1 1-.45 1-1-.45-1-1-1z" fill="#d38e2a"/><path d="M10 34v20a4 4 0 0 1-4 4H4V30h2a4 4 0 0 1 4 4z" fill="#1976d2"/><rect y="32" width="8" height="24" rx="2" fill="#d38e2a"/><path d="M9 23h4c.55 0 1 .45 1 1v1H8v-1c0-.55.45-1 1-1zm26 0h4c.55 0 1 .45 1 1v1h-6v-1c0-.55.45-1 1-1z" fill="#5e9fdf"/></svg>