<svg xmlns="http://www.w3.org/2000/svg" viewBox="0 0 64 64" xmlns:v="https://vecta.io/nano"><path d="M18 25c-1.1 0-2-.9-2-2v-7c0-8.82 7.18-16 16-16s16 7.18 16 16c0 1.1-.9 2-2 2s-2-.9-2-2c0-6.62-5.38-12-12-12S20 9.38 20 16v7c0 1.1-.9 2-2 2z" fill="#d38e2a"/><g fill="#5e9fdf"><rect x="9" y="22" width="46" height="42" rx="6"/><circle cx="32" cy="44" r="17"/></g><circle cx="32" cy="44" r="15" fill="#d38e2a"/><path d="M52 11c-.88 0-1.34-1.07-.71-1.71l2-2c.39-.39 1.02-.39 1.41 0s.39 1.02 0 1.41c-2.18 2.18-2.17 2.29-2.71 2.29zm2 10c-.54 0-.57-.15-2.71-2.29-.39-.39-.39-1.02 0-1.41s1.02-.39 1.41 0l2 2a1.01 1.01 0 0 1-.71 1.71zm2-6h-3c-.55 0-1-.45-1-1s.45-1 1-1h3c.55 0 1 .45 1 1s-.45 1-1 1z" fill="#5e9fdf"/><path d="M39.61 40h6.85c-.19-.69-.43-1.35-.71-2h-6.64c-1.01-3.34-2.89-6.39-5.52-8.91a14.09 14.09 0 0 0-3.18 0c-2.63 2.52-4.51 5.57-5.52 8.91h-6.64c-.28.65-.52 1.31-.71 2h6.85c-.52 2.7-.52 5.3 0 8h-6.85c.19.69.43 1.35.71 2h6.64c1.01 3.34 2.89 6.39 5.52 8.91a14.09 14.09 0 0 0 3.18 0c2.63-2.52 4.51-5.57 5.52-8.91h6.64c.28-.65.52-1.31.71-2h-6.85c.52-2.7.52-5.3 0-8zM32 30.34c2.33 2.17 4.02 4.78 5 7.66H27c.98-2.88 2.67-5.49 5-7.66zm0 27.32c-2.33-2.17-4.02-4.78-5-7.66h10c-.98 2.88-2.67 5.49-5 7.66zM37.57 48H26.44a18.3 18.3 0 0 1 0-8h11.13c.57 2.66.57 5.34 0 8z" fill="#f3f3f3"/></svg>