<svg xmlns="http://www.w3.org/2000/svg" viewBox="0 0 64 64" xmlns:v="https://vecta.io/nano"><rect y="22" width="26" height="42" rx="4" fill="#5e9fdf"/><path d="M24 26v33c0 1.1-.9 2-2 2H4c-1.1 0-2-.9-2-2V26c0-1.1.9-2 2-2h4c.8 1.61.88 2 1.62 2h6.76c.73 0 .84-.44 1.62-2h4c1.1 0 2 .9 2 2z" fill="#f3f3f3"/><circle cx="13" cy="40" r="4" fill="#d38e2a"/><g fill="#5e9fdf"><circle cx="13" cy="52" r="4"/><path d="M15.13 16.88c-1.15-1.14-3.1-1.14-4.26 0-.94.93-2.35-.5-1.4-1.42a5 5 0 0 1 7.06 0c.94.93-.47 2.34-1.4 1.42z"/></g><path d="M5.93 11.93c3.97-3.97 10.38-3.83 14.14 0 .93.94-.5 2.35-1.43 1.4-3.01-3.07-8.13-3.16-11.3 0-.93.93-2.35-.48-1.41-1.41z" fill="#1976d2"/><path d="M14,19c0-1.32-2-1.32-2,0s2,1.32,2,0Z" fill="#5e9fdf"/><g fill="#d38e2a"><path d="M58 18H34c-1.66 0-3 1.34-3 3v22c0 1.66 1.34 3 3 3h24c1.66 0 3-1.34 3-3V21c0-1.66-1.34-3-3-3zM48 32.46V37c0 1.1-.9 2-2 2s-2-.9-2-2v-4.54C40.49 30.44 41.9 25 46 25s5.51 5.44 2 7.46z"/><path d="M57,11v7h-4v-7c0-3.87-3.13-7-7-7s-7,3.13-7,7v2c0,.55-.45,1-1,1h-2c-.55,0-1-.45-1-1v-2c0-6.08,4.92-11,11-11s11,4.92,11,11Z"/></g><rect x="56" y="22" width="8" height="20" rx="2" fill="#d9d9d9"/><path d="M48 51v-2c0-1.32 2-1.32 2 0v2c0 1.32-2 1.32-2 0zm1 7h-2c-1.32 0-1.32-2 0-2h1v-1c0-1.32 2-1.32 2 0v2c0 .55-.45 1-1 1zm-6 0h-2c-1.32 0-1.32-2 0-2h2c1.32 0 1.32 2 0 2zm-6 0h-2c-1.32 0-1.32-2 0-2h2c1.32 0 1.32 2 0 2zm-6 0h-2c-1.32 0-1.32-2 0-2h2c1.32 0 1.32 2 0 2z" fill="#5e9fdf"/></svg>