<svg xmlns="http://www.w3.org/2000/svg" viewBox="0 0 64 64" xmlns:v="https://vecta.io/nano"><rect width="48" height="38" rx="3" fill="#5e9fdf"/><path d="M32 46H14c1.87-1.87 3-4.45 3-7.24V38h12v.76c0 2.64 1.03 5.27 3 7.24z" fill="#1976d2"/><path d="M35,45c0,.55-.45,1-1,1H12c-.55,0-1-.45-1-1s.45-1,1-1h22c.55,0,1,.45,1,1Z" fill="#5e9fdf"/><rect x="3" y="3" width="42" height="31" rx="1" fill="#fff"/><path d="M35 45c0 .55-.45 1-1 1h-2v-2h2c.55 0 1 .45 1 1zm13-29v19c0 1.66-1.34 3-3 3H32v-4h12c.55 0 1-.45 1-1V16h3z" fill="#1976d2"/><path d="M45 16v17c0 .55-.45 1-1 1H32V24c0-4.41 3.59-8 8-8h5z" fill="#f3f3f3"/><rect x="34" y="18" width="30" height="46" rx="6" fill="#5e9fdf"/><path d="M62 24v33a4 4 0 0 1-4 4H40a4 4 0 0 1-4-4V24a4 4 0 0 1 4-4h1.28c.43 0 .81.28.95.68l.31.95a2.01 2.01 0 0 0 1.9 1.37h9.12a2.01 2.01 0 0 0 1.9-1.37l.31-.95c.14-.4.52-.68.95-.68H58a4 4 0 0 1 4 4z" fill="#fff"/><g fill="#d38e2a"><path d="M56.94 43c-.6 0-1.07-.52-.99-1.12A7.02 7.02 0 0 0 49 34c-2.6 0-4.87 1.44-6.05 3.5a.997.997 0 1 1-1.73-.99c1.54-2.7 4.49-4.5 7.79-4.5 5.34 0 9.59 4.67 8.93 10.12-.06.51-.49.88-.99.88zM49 50c-4.96 0-9-4.04-9-9 0-.55.45-1 1-1s1 .45 1 1c0 6.41 8 9.46 12.25 4.63a1 1 0 0 1 1.41-.09c.41.37.45 1 .09 1.41A8.96 8.96 0 0 1 49 50z"/><path d="M45 38h-3c-.55 0-1-.45-1-1v-3c0-.55.45-1 1-1s1 .45 1 1v2h2c.55 0 1 .45 1 1s-.45 1-1 1zm10 12c-.55 0-1-.45-1-1v-2h-2c-.55 0-1-.45-1-1s.45-1 1-1h3c.55 0 1 .45 1 1v3c0 .55-.45 1-1 1zM30.94 20c-.6 0-1.07-.52-.99-1.12A7.02 7.02 0 0 0 23 11c-2.6 0-4.87 1.44-6.05 3.5a.997.997 0 0 1-1.73-.99c1.54-2.7 4.49-4.5 7.79-4.5 5.34 0 9.59 4.67 8.93 10.12-.06.51-.49.88-.99.88zM23 27c-4.96 0-9-4.04-9-9 0-.55.45-1 1-1s1 .45 1 1c0 6.41 8 9.46 12.25 4.63.37-.41 1-.45 1.41-.09.41.37.45 1 .09 1.41A8.96 8.96 0 0 1 23 27z"/><path d="M19 15h-3c-.55 0-1-.45-1-1v-3c0-.55.45-1 1-1s1 .45 1 1v2h2c.55 0 1 .45 1 1s-.45 1-1 1zm10 12c-.55 0-1-.45-1-1v-2h-2c-.55 0-1-.45-1-1s.45-1 1-1h3c.55 0 1 .45 1 1v3c0 .55-.45 1-1 1zm26-11c-.55 0-1-.45-1-1v-2c0-.55-.45-1-1-1h-2c-.55 0-1-.45-1-1s.45-1 1-1h2a3.01 3.01 0 0 1 3 3v2c0 .55-.45 1-1 1z"/></g><g fill="#5e9fdf"><circle cx="42" cy="7" r="1"/><circle cx="38" cy="7" r="1"/><circle cx="34" cy="7" r="1"/></g><path d="M57 58H41c-.55 0-1-.45-1-1 0-.29.22-1 1-1h16c.55 0 1 .45 1 1 0 .29-.22 1-1 1z" fill="#d9d9d9"/></svg>