<svg xmlns="http://www.w3.org/2000/svg" viewBox="0 0 64 64" xmlns:v="https://vecta.io/nano"><rect width="48" height="60" rx="6" fill="#1976d2"/><rect x="3" y="3" width="42" height="51" rx="3" fill="#fff"/><g fill="#d38e2a"><path d="M30 29c-.55 0-1-.45-1-1 0-3.31-2.69-6-6-6-2.04 0-3.85 1.02-4.92 2.57-.31.45-.94.57-1.39.25-.45-.31-.57-.94-.25-1.39C17.86 21.37 20.28 20 23 20c4.41 0 8 3.59 8 8 0 .55-.45 1-1 1zm-7 7c-4.41 0-8-3.59-8-8 0-.55.45-1 1-1s1 .45 1 1c0 3.31 2.69 6 6 6 2.04 0 3.85-1.02 4.92-2.57.31-.45.94-.57 1.39-.25.45.31.57.94.25 1.39C28.14 34.63 25.72 36 23 36z"/><path d="M20 25h-3c-.55 0-1-.45-1-1v-3c0-.55.45-1 1-1s1 .45 1 1v2h2c.55 0 1 .45 1 1s-.45 1-1 1zm9 11c-.55 0-1-.45-1-1v-2h-2c-.55 0-1-.45-1-1s.45-1 1-1h3c.55 0 1 .45 1 1v3c0 .55-.45 1-1 1z"/></g><path d="M27 58h-6c-.55 0-1-.45-1-1 0-.29.22-1 1-1h6c.55 0 1 .45 1 1 0 .29-.22 1-1 1z" fill="#fff"/><path d="M48,16V54c0,3.31-2.69,6-6,6h-9.75c-.34-1.35-.25-2.06-.25-6h10c1.66,0,3-1.34,3-3V16h3Z" fill="#1976d2"/><path d="M45 16v35c0 1.66-1.34 3-3 3H32V24c0-4.41 3.59-8 8-8h5z" fill="#f3f3f3"/><rect x="34" y="18" width="30" height="46" rx="6" fill="#5e9fdf"/><path d="M53.5 22c-.06.12-.52 1-1.62 1h-5.76c-.69 0-1.31-.39-1.62-1-.06-.12-.52-1-1.62-1H41a4 4 0 0 0-4 4v31a4 4 0 0 0 4 4h16a4 4 0 0 0 4-4V25a4 4 0 0 0-4-4h-1.88c-.69 0-1.31.39-1.62 1z" fill="#fff"/><g fill="#d38e2a"><path d="M56 42c-.55 0-1-.45-1-1 0-3.31-2.69-6-6-6-2.04 0-3.85 1.02-4.92 2.57-.32.45-.94.57-1.39.25s-.57-.94-.25-1.39C43.86 34.37 46.28 33 49 33c4.41 0 8 3.59 8 8 0 .55-.45 1-1 1zm-7 7c-4.41 0-8-3.59-8-8 0-.55.45-1 1-1s1 .45 1 1c0 3.31 2.69 6 6 6 2.04 0 3.85-1.02 4.92-2.57a.99.99 0 0 1 1.39-.25c.45.31.57.94.25 1.39C54.14 47.63 51.72 49 49 49z"/><path d="M46 38h-3c-.55 0-1-.45-1-1v-3c0-.55.45-1 1-1s1 .45 1 1v2h2c.55 0 1 .45 1 1s-.45 1-1 1zm9 11c-.55 0-1-.45-1-1v-2h-2c-.55 0-1-.45-1-1s.45-1 1-1h3c.55 0 1 .45 1 1v3c0 .55-.45 1-1 1z"/></g><g fill="#d9d9d9"><circle cx="41" cy="7" r="1"/><circle cx="37" cy="7" r="1"/><circle cx="33" cy="7" r="1"/><path d="M55 58H43c-.55 0-1-.45-1-1 0-.29.22-1 1-1h12c.55 0 1 .45 1 1 0 .29-.22 1-1 1z"/></g><path d="M56,15c-.55,0-1-.45-1-1v-2c0-.55-.45-1-1-1h-2c-.55,0-1-.45-1-1s.45-1,1-1h2c1.65,0,3,1.35,3,3v2c0,.55-.45,1-1,1Z" fill="#d38e2a"/></svg>