<svg xmlns="http://www.w3.org/2000/svg" viewBox="0 0 64 64" xmlns:v="https://vecta.io/nano"><path d="M39.79 9.39l-7-9c-.38-.49-1.2-.49-1.58 0l-7 9A1 1 0 0 0 25 11h3v18c0 .55.45 1 1 1h6c.55 0 1-.45 1-1V11h3c.8 0 1.31-.93.79-1.61zm-17.8 9.44c-.06-.34.45.39-7.2-9.44-.38-.49-1.2-.49-1.58 0l-7 9A1 1 0 0 0 7 20h3v18c0 .55.45 1 1 1h6c.55 0 1-.45 1-1V20h3c.57 0 1.09-.5.99-1.17z" fill="#5e9fdf"/><path d="M18 22.06V38c0 .55-.45 1-1 1h-6c-.55 0-1-.45-1-1l.05-8c.46-4.16 3.78-7.48 7.95-7.94zm18-6.52V29c0 .55-.45 1-1 1h-6c-.55 0-1-.45-1-1V15.54a15.08 15.08 0 0 1 8 0z" fill="#1976d2"/><path d="M58 41c0 6.08-4.92 11-11 11H17c-6.08 0-11-4.92-11-11a11 11 0 0 1 6.01-9.81C12 31.13 12 31.06 12 31a7 7 0 0 1 8.4-6.86c4.46-8.87 16.86-9.62 22.38-1.4h0A12.99 12.99 0 0 1 44.99 30c0 .06 0 .12-.01.18h.01c6.81-1.26 13 4 13 10.82z" fill="#f3f3f3"/><path d="M56.22 35.01c-.55.61-1.34.99-2.22.99h-6a3.01 3.01 0 0 1-3-3v-2.82c4.3-.79 8.77 1.03 11.22 4.83z" fill="#d9d9d9"/><path d="M54 34h-6c-.55 0-1-.45-1-1V21h-3c-.83 0-1.3-.96-.79-1.61l7-9c.38-.49 1.2-.49 1.58 0l7 9A1 1 0 0 1 58 21h-3v12c0 .55-.45 1-1 1z" fill="#5e9fdf"/><path d="M46,52H18c0-7.72,6.28-14,14-14s14,6.28,14,14Z" fill="#d9d9d9"/><circle cx="32" cy="52" r="12" fill="#e4c290"/><circle cx="32" cy="52" r="10" fill="#d38e2a"/><path d="M28 56c-.26 0-.51-.1-.71-.29l-3-3c-.39-.39-.39-1.02 0-1.41l3-3c.39-.39 1.02-.39 1.41 0s.39 1.02 0 1.41L26.41 52l2.29 2.29a1.01 1.01 0 0 1-.71 1.71zm8 0c-.88 0-1.34-1.07-.71-1.71L37.58 52l-2.29-2.29c-.39-.39-.39-1.02 0-1.41s1.02-.39 1.41 0l3 3c.39.39.39 1.02 0 1.41l-3 3a.98.98 0 0 1-.71.29zm-5 2c-.63 0-1.1-.58-.98-1.2l2-10c.11-.54.63-.89 1.18-.78a1 1 0 0 1 .78 1.18l-2 10c-.09.48-.51.8-.98.8z" fill="#fff"/></svg>