<svg xmlns="http://www.w3.org/2000/svg" viewBox="0 0 64 64" xmlns:v="https://vecta.io/nano"><rect x="12" width="40" height="64" rx="8" fill="#5e9fdf"/><path d="M43 3h-3.28a1 1 0 0 0-.95.69l-.31.94A2.01 2.01 0 0 1 36.56 6h-9.12a2.01 2.01 0 0 1-1.9-1.37l-.31-.95a.98.98 0 0 0-.94-.68H21c-3.31 0-6 2.69-6 6v45c0 3.31 2.69 6 6 6h22c3.31 0 6-2.69 6-6V9c0-3.31-2.69-6-6-6z" fill="#fff"/><path d="M46 24c0 3.31-2.69 6-6 6H24c-3.31 0-6-2.69-6-6a5.99 5.99 0 0 1 4.02-5.66c-.2-2.18 1.7-3.71 3.67-3.26 4.09-5.24 12.43-3.48 14.06 2.93.08-.01.16-.01.25-.01 3.31 0 6 2.69 6 6z" fill="#d9d9d9"/><g fill="#5e9fdf"><path d="M36 37h-8a3.01 3.01 0 0 1-3-3v-1c0-.55.45-1 1-1s1 .45 1 1v1c0 .55.45 1 1 1h8c.55 0 1-.45 1-1v-1c0-.55.45-1 1-1s1 .45 1 1v1a3.01 3.01 0 0 1-3 3zm-4-4c-.55 0-1-.45-1-1v-5.59l-1.29 1.29c-.39.39-1.02.39-1.41 0s-.39-1.02 0-1.41l3-3c.63-.63 1.71-.18 1.71.71v8c0 .55-.45 1-1 1z"/><path d="M35 28c-.26 0-.51-.1-.71-.29l-3-3c-.39-.39-.39-1.02 0-1.41s1.02-.39 1.41 0l3 3a1.01 1.01 0 0 1-.71 1.71z"/></g><path d="M42 57H22c-.55 0-1-.45-1-1 0-.29.22-1 1-1h20c.55 0 1 .45 1 1 0 .29-.22 1-1 1z" fill="#d9d9d9"/><path d="M19 41h11v2H19zm0 4h20v2H19zm0 4h20v2H19z" fill="#d38e2a"/></svg>