<svg xmlns="http://www.w3.org/2000/svg" viewBox="0 0 64 64" xmlns:v="https://vecta.io/nano"><path d="M64 32c0 7.18-5.82 13-13 13H11C4.9 45 0 40.06 0 34c0-5.05 3.39-9.29 8.02-10.59-.52-3.35 2.97-7.16 7.19-6.29 7.64-14.41 28.6-13.06 34.48 1.95C57.11 18.21 64 24.18 64 32z" fill="#f3f3f3"/><path d="M23 40v5H11c-4.26 0-7.94-2.41-9.77-5.94C1.57 38.43 2.24 38 3 38h18c1.1 0 2 .9 2 2z" fill="#d9d9d9"/><path d="M32 21l-9 12h5v25h8V33h5l-9-12z" fill="#d38e2a"/><g fill="#5e9fdf"><path d="M2 40h18c.55 0 1 .45 1 1v1H1v-1c0-.55.45-1 1-1z"/><path d="M1 42h20v15c0 .55-.45 1-1 1H2c-.55 0-1-.45-1-1V42h0z"/><path d="M9 42H1v-1c0-.55.45-1 1-1h5c.81 0 2 .63 2 2zm-6 3h8v2H3zm6 4h9v2H9zm4-4h5v2h-5zM3 53h8v2H3zm10 0h5v2h-5zM3 49h4v2H3z"/></g><path d="M62.17 25.36C55.47 32.79 43 28.1 43 18a10.88 10.88 0 0 1 1.8-6.02c2.13 1.93 3.82 4.36 4.89 7.09 5.03-.59 10.12 2.12 12.48 6.29z" fill="#d9d9d9"/><circle cx="54" cy="18" r="9" fill="#d38e2a"/><path d="M50 21c-.54 0-.57-.15-2.71-2.29-.39-.39-.39-1.02 0-1.41l2-2c.94-.94 2.35.48 1.41 1.41L49.41 18l1.29 1.29a1.01 1.01 0 0 1-.71 1.71zm8 0c-.88 0-1.34-1.07-.71-1.71L58.58 18l-1.29-1.29c-.94-.94.48-2.35 1.41-1.41l2 2c.39.39.39 1.02 0 1.41-2.18 2.18-2.17 2.29-2.71 2.29zm-5.97.76l2-8c.32-1.29 2.26-.8 1.94.49l-2 8c-.32 1.28-2.26.8-1.94-.49z" fill="#fdfdfd"/></svg>