<svg xmlns="http://www.w3.org/2000/svg" viewBox="0 0 64 64" xmlns:v="https://vecta.io/nano"><path d="M52 6v52c0 3.31-2.69 6-6 6H18c-3.31 0-6-2.69-6-6V6c0-3.31 2.69-6 6-6 30.32 0 28.68-.17 30.14.4C50.4 1.24 52 3.49 52 6z" fill="#1976d2"/><path d="M50 6v50a4 4 0 0 1-4 4H18a4 4 0 0 1-4-4V6a4 4 0 0 1 4-4h5.28c.43 0 .81.28.95.68.27.83.56 2.32 2.21 2.32h11.12a2.01 2.01 0 0 0 1.9-1.37l.31-.95c.14-.4.52-.68.95-.68l5.77.04C48.33 2.21 50 3.87 50 6z" fill="#fff"/><path d="M43,58H21c-1.34,0-1.29-2,0-2h22c1.34,0,1.29,2,0,2Z" fill="#d9d9d9"/><g fill="#5e9fdf"><path d="M50 6v16H14V6a4 4 0 0 1 4-4h5.28c.43 0 .81.28.95.68.27.83.56 2.32 2.21 2.32h11.12a2.01 2.01 0 0 0 1.9-1.37l.31-.95c.14-.4.52-.68.95-.68l5.77.04C48.33 2.21 50 3.87 50 6z"/><circle cx="32" cy="22" r="13"/></g><path d="M32,27c-2.76,0-5-2.23-5-5v-5h10v5c0,2.76-2.24,5-5,5Z" fill="#d38e2a"/><path d="M27 18h10v-1c0-1.66-1.34-3-3-3-3.37 0-4.65.12-8-1v4c0 .55.45 1 1 1zm12.95 14.28c-4.69 3.62-11.2 3.63-15.9 0C24.4 29.31 26.93 27 30 27h4c3.07 0 5.6 2.31 5.95 5.28z" fill="#1976d2"/><path d="M30.29 23.29c.39-.39 1.02-.39 1.41 0 .16.16.42.16.59 0 .94-.94 2.35.48 1.41 1.42-1.74 1.74-4.69-.14-3.41-1.41zM37 22v-4c.81 0 2 .63 2 2 0 .78-.61 2-2 2zm-10 0v-4c-.81 0-2 .63-2 2 0 .78.61 2 2 2z" fill="#e4c290"/><path d="M22 37h20v4H22zm0 6h20v4H22z" fill="#d9d9d9"/><path d="M38 54H26c-1.1 0-2-.9-2-2 0-.81.63-2 2-2h12c1.1 0 2 .9 2 2 0 .81-.63 2-2 2z" fill="#d38e2a"/><path d="M27 39c0-1.32-2-1.32-2 0s2 1.32 2 0zm4 0c0-1.32-2-1.32-2 0s2 1.32 2 0zm4 0c0-1.32-2-1.32-2 0s2 1.32 2 0zm4 0c0-1.32-2-1.32-2 0s2 1.32 2 0zm-12 6c0-1.32-2-1.32-2 0s2 1.32 2 0zm4 0c0-1.32-2-1.32-2 0s2 1.32 2 0zm4 0c0-1.32-2-1.32-2 0s2 1.32 2 0zm4 0c0-1.32-2-1.32-2 0s2 1.32 2 0z" fill="#c8c8c8"/></svg>