<svg xmlns="http://www.w3.org/2000/svg" viewBox="0 0 64 64" xmlns:v="https://vecta.io/nano"><rect x="8" width="48" height="64" rx="3" fill="#5e9fdf"/><path d="M54 3v58c0 .55-.45 1-1 1H11c-.55 0-1-.45-1-1V3c0-.55.45-1 1-1h13c0 1.1.9 2 2 2 12.66 0 12.6.24 13.41-.59.37-.36.59-.86.59-1.41h13c.55 0 1 .45 1 1z" fill="#fff"/><path d="M30 8h20v2H30zm0 4h20v2H30zm0 4h20v2H30zm0 4h20v2H30zm0 4h20v2H30zm-16 4h36v2H14zm0 4h36v2H14zm0 4h36v2H14zm0 4h36v2H14zm0 4h36v2H14zm0 4h36v2H14zm0 4h36v2H14zm0 4h28v2H14zm0-48h14v18H14z" fill="#d9d9d9"/><path d="M58 14v6l-7 3-7-3v-6h14z" fill="#1976d2"/><path d="M64 13l-13 5-13-5 13-5 13 5z" fill="#5e9fdf"/><path d="M56 22v-5.38l-5.45-2.72c-1.18-.59-.29-2.38.89-1.79l6 3a1 1 0 0 1 .55.89v6c0 1.32-2 1.32-2 0z" fill="#1976d2"/><path d="M24,51c-2.16,4.16-6.98,7-12,7s-9.84-2.84-12-7c2.16-4.16,6.98-7,12-7s9.84,2.84,12,7Z" fill="#d38e2a"/><path d="M12 55a4 4 0 0 1-4-4c0-2.72 2.65-4.62 5.18-3.82-.79 1.64 1.01 3.42 2.64 2.64.8 2.53-1.1 5.18-3.82 5.18z" fill="#f3f3f3"/></svg>