<svg xmlns="http://www.w3.org/2000/svg" viewBox="0 0 64 64" xmlns:v="https://vecta.io/nano"><path d="M62,11V50H2V11c0-1.66,1.34-3,3-3H59c1.66,0,3,1.34,3,3Z" fill="#1976d2"/><path d="M1 50h62c.55 0 1 .45 1 1v2c0 1.66-1.34 3-3 3H3c-1.66 0-3-1.34-3-3v-2c0-.55.45-1 1-1z" fill="#5e9fdf"/><path d="M60 11v37H4V11c0-.55.45-1 1-1h54c.55 0 1 .45 1 1z" fill="#fff"/><path d="M39 52H25c-1.1 0-2-.9-2-2 0-.1-.84 0 18 0 0 .81-.63 2-2 2z" fill="#f3f3f3"/><g fill="#5e9fdf"><path d="M5 10h54c.55 0 1 .45 1 1v3H4v-3c0-.55.45-1 1-1z"/><path d="M18,10h17c1.66,0,3,1.34,3,3v1H18v-4h0Z"/></g><path d="M5 10h14c1.66 0 3 1.34 3 3v1H4v-3c0-.55.45-1 1-1z" fill="#fff"/><g fill="#5e9fdf"><path d="M4 16h56v20H4z"/><path d="M11 36l12.5-12.5L29 29l9-9 15 16H11z"/><circle cx="17" cy="22" r="2"/><path d="M55 29c-.88 0-1.34-1.07-.71-1.71L55.58 26l-1.29-1.29c-.94-.94.48-2.35 1.41-1.41l2 2c.39.39.39 1.02 0 1.41-2.18 2.18-2.17 2.29-2.71 2.29zM9 29c.88 0 1.34-1.07.71-1.71L8.42 26l1.29-1.29c.94-.94-.48-2.35-1.41-1.41l-2 2c-.39.39-.39 1.02 0 1.41C8.48 28.89 8.47 29 9.01 29z"/></g><circle cx="9" cy="42" r="3" fill="#d38e2a"/><path d="M14 39h14v2H14zm0 4h14v2H14z" fill="#d9d9d9"/><g fill="#d38e2a"><circle cx="39" cy="42" r="3"/><circle cx="39" cy="42" r="3"/></g><path d="M44 39h14v2H44zm0 4h14v2H44z" fill="#d9d9d9"/><path d="M9 41c-1.36 0-1.28 2 0 2 1.36 0 1.28-2 0-2zm30 0c-1.36 0-1.28 2 0 2 1.36 0 1.28-2 0-2z" fill="#e4c290"/></svg>