<svg xmlns="http://www.w3.org/2000/svg" viewBox="0 0 64 64" xmlns:v="https://vecta.io/nano"><path d="M60 3v39H2V3c0-1.66 1.34-3 3-3h52c1.66 0 3 1.34 3 3z" fill="#5e9fdf"/><path d="M62 43v2c0 1.66-1.34 3-3 3H3c-1.66 0-3-1.34-3-3v-2c0-.55.45-1 1-1h60c.55 0 1 .45 1 1z" fill="#1976d2"/><path d="M58 3v4H20l-4-5h41c.55 0 1 .45 1 1z" fill="#5e9fdf"/><path d="M58 7v33H4V3c0-.55.45-1 1-1h14.08c1.21 0 2.36.55 3.12 1.5l1.6 2c.86 1.03 1.97 1.5 3.12 1.5H58z" fill="#fff"/><path d="M32 13h22v2H32zm0 5h22v2H32z" fill="#d9d9d9"/><g fill="#f3f3f3"><path d="M58 16v24H32V25h22v-2H32.06c.14-1.08.49-2.1 1.02-3H54v-2H34.72A7.98 7.98 0 0 1 40 16h18z"/><path d="M54 23v2H32l.06-2H54z"/></g><path d="M32 23h22v2H32zm0 5h12v2H32z" fill="#c8c8c8"/><path d="M39 42c0 1.09-.89 2-2 2H25c-1.1 0-2-.9-2-2h16z" fill="#fff"/><g fill="#1976d2"><path d="M60 16.25V42H32v-2h26V16a8.24 8.24 0 0 1 2 .25z"/><path d="M62 43v2c0 1.66-1.34 3-3 3H32v-4h5c1.09 0 2-.89 2-2h22c.55 0 1 .45 1 1z"/></g><path d="M39,42c0,1.09-.89,2-2,2h-5v-2h7Z" fill="#f3f3f3"/><path d="M54 18v2H33.08a7.9 7.9 0 0 1 1.64-2H54z" fill="#c8c8c8"/><rect x="34" y="18" width="30" height="46" rx="6" fill="#5e9fdf"/><path d="M53.5 22c-.06.12-.52 1-1.62 1h-5.76c-.69 0-1.31-.39-1.62-1-.06-.12-.52-1-1.62-1H41a4 4 0 0 0-4 4v31a4 4 0 0 0 4 4h16a4 4 0 0 0 4-4V25a4 4 0 0 0-4-4h-1.88c-.69 0-1.31.39-1.62 1z" fill="#fff"/><circle cx="18" cy="23" r="10" fill="#d38e2a"/><g fill="#e4c290"><path d="M25.19,26.5c-2.93,5.99-11.45,5.99-14.38,0,2.9-5.99,11.47-5.99,14.38,0Z"/><circle cx="18" cy="20" r="4"/></g><circle cx="20" cy="5" r="1" fill="#1976d2"/><circle cx="49" cy="34" r="8" fill="#d38e2a"/><g fill="#e4c290"><path d="M54.42 36.57c-2.16 4.56-8.68 4.57-10.84 0a7 7 0 0 1 10.84 0z"/><circle cx="49" cy="32" r="3"/></g><path d="M40 45h4v2h-4zm7 0h11v2H47zm-7 4h4v2h-4zm7 0h11v2H47z" fill="#d9d9d9"/><path d="M31 58h-4a3.01 3.01 0 0 1-3-3v-4c0-.55.45-1 1-1s1 .45 1 1v4c0 .55.45 1 1 1h4c.55 0 1 .45 1 1s-.45 1-1 1z" fill="#d38e2a"/></svg>