<svg xmlns="http://www.w3.org/2000/svg" xmlns:xlink="http://www.w3.org/1999/xlink" viewBox="0 0 64 64" xmlns:v="https://vecta.io/nano"><path d="M33 56C19.77 56 9 45.23 9 32S19.77 8 33 8s24 10.77 24 24-10.77 24-24 24zm0-46c-12.13 0-22 9.87-22 22s9.87 22 22 22 22-9.87 22-22-9.87-22-22-22z" fill="#d9d9d9"/><path d="M33 52c-11.03 0-20-8.97-20-20s8.97-20 20-20 20 8.97 20 20-8.97 20-20 20zm0-38c-9.93 0-18 8.07-18 18s8.07 18 18 18 18-8.07 18-18-8.08-18-18-18z" fill="#f3f3f3"/><circle cx="12" cy="32" r="12" fill="#d38e2a"/><circle cx="12" cy="32" r="10" fill="#f3f3f3"/><circle cx="47" cy="52" r="12" fill="#1976d2"/><circle cx="47" cy="52" r="10" fill="#f3f3f3"/><circle cx="52" cy="20" r="12" fill="#1976d2"/><circle cx="52" cy="20" r="10" fill="#f3f3f3"/><path d="M11 11v6c0 .55.45 1 1 1h6l2 2 2-2h2c.55 0 1-.45 1-1v-6c0-.55-.45-1-1-1H12c-.55 0-1 .45-1 1z" fill="#1976d2"/><path d="M13 14c0-1.32 2-1.32 2 0s-2 1.32-2 0zm4 0c0-1.32 2-1.32 2 0s-2 1.32-2 0zm4 0c0-1.32 2-1.32 2 0s-2 1.32-2 0z" fill="#f3f3f3"/><path d="M34 54l-2 2v3c0 .55-.45 1-1 1H19c-.55 0-1-.45-1-1v-6c0-.55.45-1 1-1h12c.55 0 1 .45 1 1v1h2z" fill="#d38e2a"/><path d="M20 56c0-1.32 2-1.32 2 0s-2 1.32-2 0zm4 0c0-1.32 2-1.32 2 0s-2 1.32-2 0zm4 0c0-1.32 2-1.32 2 0s-2 1.32-2 0z" fill="#f3f3f3"/><path d="M32 1v6c0 .55.45 1 1 1h6l2 2 2-2h2c.55 0 1-.45 1-1V1c0-.55-.45-1-1-1H33c-.55 0-1 .45-1 1z" fill="#d38e2a"/><path d="M34 4c0-1.32 2-1.32 2 0s-2 1.32-2 0zm4 0c0-1.32 2-1.32 2 0s-2 1.32-2 0zm4 0c0-1.32 2-1.32 2 0s-2 1.32-2 0z" fill="#f3f3f3"/><use xlink:href="#B" fill="#d38e2a"/><g fill="#1976d2"><use xlink:href="#B" x="35" y="20"/><use xlink:href="#B" x="40" y="-12"/></g><defs ><path id="B" d="M15.43 32.63c3.28-3.1 1.09-8.62-3.43-8.62s-6.71 5.52-3.43 8.62c-2.21.81-4.07 2.36-5.23 4.38 3.85 6.66 13.46 6.66 17.32 0a10.07 10.07 0 0 0-5.23-4.38z"/></defs></svg>