<svg xmlns="http://www.w3.org/2000/svg" viewBox="0 0 64 64" xmlns:v="https://vecta.io/nano"><rect y="24" width="64" height="40" rx="8" fill="#5e9fdf"/><path d="M60 33v22c0 3.31-2.69 6-6 6H9c-3.38 0-6-2.75-6-6v-3.29a.98.98 0 0 1 .68-.94l.95-.31A2.01 2.01 0 0 0 6 48.56v-9.12a2.01 2.01 0 0 0-1.37-1.9l-.94-.31a1 1 0 0 1-.69-.95V33c0-3.31 2.69-6 6-6h45c3.31 0 6 2.69 6 6z" fill="#f3f3f3"/><path d="M58 34v20c0 .55-.45 1-1 1-.29 0-1-.22-1-1V34c0-.55.45-1 1-1 .29 0 1 .22 1 1zm-48-7h44v34H10z" fill="#d9d9d9"/><path d="M10 24h44v3H10z" fill="#1976d2"/><path d="M12 15h40v46H12z" fill="#f3f3f3"/><g fill="#d38e2a"><path d="M52 13v2H12v-2c0-1.1.9-2 2-2h36c1.1 0 2 .9 2 2z"/><circle cx="32" cy="29" r="10"/></g><g fill="#e4c290"><path d="M38.83,33.15c-3.1,5.12-10.55,5.14-13.66,0,3.59-4.2,10.07-4.2,13.66,0Z"/><circle cx="32" cy="27" r="4"/></g><path d="M18 43h8v2h-8zm12 0h16v2H30zm-12 5h8v2h-8zm12 0h16v2H30zm-12 5h8v2h-8zm12 0h16v2H30z" fill="#d9d9d9"/><g fill="#5e9fdf"><circle cx="49" cy="18" r="1"/><circle cx="45" cy="18" r="1"/><circle cx="41" cy="18" r="1"/></g><path d="M25.68 15H12v-2c0-1.1.9-2 2-2h11.96c.1 1.07.03 2.56-.28 4z" fill="#e4c290"/><path d="M25.68 15C24.3 21.28 18.69 26 12 26V15h13.68z" fill="#d9d9d9"/><circle cx="12" cy="12" r="12" fill="#fff"/><path d="M20.06,16c-3.3,6.65-12.81,6.67-16.12,0-1.25-2.54-1.27-5.42,0-8,3.3-6.65,12.81-6.67,16.12,0,1.25,2.55,1.26,5.43,0,8Z" fill="#5e9fdf"/><g fill="#1976d2"><path d="M11.33 20.75C9.08 18.74 7 16.28 7 12s2.08-6.73 4.33-8.75c.38-.34.95-.34 1.33 0 2.25 2.01 4.33 4.47 4.33 8.75s-2.08 6.73-4.33 8.75c-.38.34-.95.34-1.33 0zM12 5.37C10.17 7.15 9 9.05 9 12s1.17 4.86 3 6.63c1.83-1.78 3-3.68 3-6.63s-1.17-4.86-3-6.63z"/><path d="M20.06 8H3.94c-.31.63-.56 1.3-.72 2h17.56c-.16-.7-.41-1.37-.72-2zM3.94 16h16.12c.31-.63.56-1.3.72-2H3.22c.16.7.41 1.37.72 2z"/></g></svg>