<svg xmlns="http://www.w3.org/2000/svg" viewBox="0 0 64 64" xmlns:v="https://vecta.io/nano"><path d="M45 27c-.88 0-1.34-1.07-.71-1.71l5.83-5.83c.94-.94 2.2-1.46 3.54-1.46H59c.55 0 1 .45 1 1s-.45 1-1 1h-5.34c-.8 0-1.56.31-2.12.88l-5.83 5.83A.98.98 0 0 1 45 27z" fill="#d9d9d9"/><circle cx="59" cy="19" r="3" fill="#d38e2a"/><path d="M59 46h-5.34c-1.34 0-2.59-.52-3.54-1.46l-5.83-5.83c-.39-.39-.39-1.02 0-1.41s1.02-.39 1.41 0l5.83 5.83a2.97 2.97 0 0 0 2.12.88h5.34c.55 0 1 .45 1 1s-.45 1-1 1zm2-13H51c-.55 0-1-.45-1-1s.45-1 1-1h10c.55 0 1 .45 1 1s-.45 1-1 1z" fill="#d9d9d9"/><g fill="#d38e2a"><circle cx="61" cy="32" r="3"/><circle cx="59" cy="45" r="3"/></g><path d="M19 27c-.26 0-.51-.1-.71-.29l-5.83-5.83a2.97 2.97 0 0 0-2.12-.88H5c-.55 0-1-.45-1-1s.45-1 1-1h5.34c1.34 0 2.59.52 3.54 1.46l5.83 5.83A1.01 1.01 0 0 1 19 27z" fill="#d9d9d9"/><circle cx="5" cy="19" r="3" fill="#d38e2a"/><path d="M10.34 46H5c-.55 0-1-.45-1-1s.45-1 1-1h5.34c.8 0 1.56-.31 2.12-.88l5.83-5.83c.39-.39 1.02-.39 1.41 0s.39 1.02 0 1.41l-5.83 5.83c-.94.94-2.2 1.46-3.54 1.46zM13 33H3c-.55 0-1-.45-1-1s.45-1 1-1h10c.55 0 1 .45 1 1s-.45 1-1 1z" fill="#d9d9d9"/><circle cx="32" cy="32" r="21" fill="#5e9fdf"/><g fill="#d38e2a"><circle cx="3" cy="32" r="3"/><circle cx="5" cy="45" r="3"/></g><path d="M43.32 38c.91-3.99.91-8 0-12h8.81a19.77 19.77 0 0 0-.71-2h-8.64c-1.67-5.28-4.87-9.68-9-12.92-1.24-.1-2.28-.11-3.56 0-4.14 3.25-7.33 7.65-9 12.92h-8.64a19.77 19.77 0 0 0-.71 2h8.81c-.91 3.99-.91 8 0 12h-8.81a19.77 19.77 0 0 0 .71 2h8.64c1.67 5.28 4.87 9.68 9 12.92 1.26.11 2.3.11 3.56 0 4.14-3.25 7.33-7.65 9-12.92h8.64a19.77 19.77 0 0 0 .71-2h-8.81zM32 12.24c4 2.96 7.05 7.07 8.66 11.76H23.34C24.95 19.31 28 15.2 32 12.24zm0 39.52c-3.99-2.95-7.05-7.06-8.66-11.76h17.32c-1.61 4.7-4.67 8.81-8.66 11.76zM41.26 38H22.74c-.99-3.96-.99-8.03 0-12h18.52c.99 3.96.99 8.03 0 12z" fill="#f3f3f3"/><path d="M43.32 26h3.51c-.28-.7-.61-1.36-.99-2h-3.06c-.64-2.02-1.51-3.95-2.61-5.75-1.1-.66-2.29-1.19-3.55-1.57 1.76 2.2 3.13 4.67 4.04 7.32H23.34c.91-2.65 2.28-5.12 4.04-7.32-1.26.38-2.45.91-3.55 1.57-1.1 1.8-1.97 3.73-2.61 5.75h-3.06c-.38.64-.71 1.3-.99 2h3.51c-.91 3.99-.91 8 0 12h-3.51c.28.7.61 1.36.99 2h3.06c.64 2.02 1.51 3.95 2.61 5.75 1.1.66 2.29 1.19 3.55 1.57-1.76-2.2-3.13-4.67-4.04-7.32h17.32c-.91 2.65-2.28 5.12-4.04 7.32 1.26-.38 2.45-.91 3.55-1.57 1.1-1.8 1.97-3.73 2.61-5.75h3.06c.38-.64.71-1.3.99-2h-3.51c.91-3.99.91-8 0-12zm-2.06 12H22.74c-.99-3.96-.99-8.03 0-12h18.52c.99 3.96.99 8.03 0 12z" fill="#d9d9d9"/><path d="M45.84 24h-3.06c-.64-2.02-1.51-3.95-2.61-5.75 2.35 1.4 4.31 3.38 5.67 5.75zm.99 14h-3.51c.91-3.99.91-8 0-12h3.51a15.97 15.97 0 0 1 0 12zm-.99 2c-1.36 2.37-3.32 4.35-5.67 5.75 1.1-1.8 1.97-3.73 2.61-5.75h3.06zm-5.18 0c-.91 2.65-2.28 5.12-4.04 7.32a15.98 15.98 0 0 1-9.24 0c-1.76-2.2-3.13-4.67-4.04-7.32h17.32zm-16.83 5.75c-2.35-1.4-4.31-3.38-5.67-5.75h3.06c.64 2.02 1.51 3.95 2.61 5.75zM20.68 38h-3.51a15.97 15.97 0 0 1 0-12h3.51c-.91 3.99-.91 8 0 12zm3.15-19.75c-1.1 1.8-1.97 3.73-2.61 5.75h-3.06c1.36-2.37 3.32-4.35 5.67-5.75zM40.66 24H23.34c.91-2.65 2.28-5.12 4.04-7.32a15.98 15.98 0 0 1 9.24 0c1.76 2.2 3.13 4.67 4.04 7.32z" fill="#1976d2"/><circle cx="32" cy="32" r="14" fill="#d38e2a"/><path d="M42 33v-2c0-.55-.45-1-1-1h-.52c-.44 0-.81-.29-.96-.71l-.29-.7c-.19-.4-.13-.86.18-1.17l.37-.37c.39-.39.39-1.02 0-1.41l-1.41-1.41c-.39-.39-1.02-.39-1.41 0l-.37.37c-.31.31-.78.36-1.17.18-.23-.11-.46-.2-.7-.29-.41-.15-.71-.52-.71-.96v-.52c0-.55-.45-1-1-1h-2c-.55 0-1 .45-1 1v.52c0 .44-.29.81-.71.96l-.7.29c-.4.19-.86.13-1.17-.18l-.37-.37c-.39-.39-1.02-.39-1.41 0l-1.41 1.41c-.39.39-.39 1.02 0 1.41l.37.37c.31.31.36.78.18 1.17-.11.23-.2.46-.29.7-.15.41-.52.71-.96.71h-.52c-.55 0-1 .45-1 1v2c0 .55.45 1 1 1h.52c.44 0 .81.29.96.71l.29.7c.19.4.13.86-.18 1.17l-.37.37c-.39.39-.39 1.02 0 1.41l1.41 1.41c.39.39 1.02.39 1.41 0l.37-.37c.31-.31.78-.36 1.17-.18.23.11.46.2.7.29.41.15.71.52.71.96v.52c0 .55.45 1 1 1h2c.55 0 1-.45 1-1v-.52c0-.44.29-.81.71-.96l.7-.29c.4-.19.86-.13 1.17.18l.37.37c.39.39 1.02.39 1.41 0l1.41-1.41c.39-.39.39-1.02 0-1.41l-.37-.37c-.31-.31-.36-.78-.18-1.17.11-.23.2-.46.29-.7.15-.41.52-.71.96-.71H41c.55 0 1-.45 1-1z" fill="#f3f3f3"/><circle cx="32" cy="32" r="3" fill="#d38e2a"/></svg>