<svg xmlns="http://www.w3.org/2000/svg" viewBox="0 0 64 64" xmlns:v="https://vecta.io/nano"><g fill="#1976d2"><rect y="3" width="64" height="48" rx="3"/><path d="M39.81 61.05l-16-.1 1.07-10 14 .1.93 10z"/></g><path d="M46.81 62.1l-30-.2c-1.34 0-1.28-2.01.01-2l30 .2c1.34 0 1.28 2.01-.01 2z" fill="#5e9fdf"/><path d="M3 5h58c.55 0 1 .45 1 1v3H2V6c0-.55.45-1 1-1z" fill="#c8c8c8"/><path d="M2 9h60v36H2z" fill="#fff"/><path d="M2 9h10v26H2zm48 0h12v36H50z" fill="#f3f3f3"/><g fill="#c8c8c8"><path d="M4 11h3v3H4z"/><path d="M7 14h3v3H7z"/></g><g fill="#d9d9d9"><path d="M7 11h3v3H7z"/><path d="M4 14h3v3H4z"/></g><g fill="#c8c8c8"><path d="M4 17h3v3H4z"/><path d="M7 20h3v3H7z"/></g><g fill="#d9d9d9"><path d="M7 17h3v3H7z"/><path d="M4 20h3v3H4z"/></g><path d="M6 27h4v4H6z" fill="#e4c290"/><path d="M4 25h4v4H4z" fill="#d38e2a"/><path d="M50 30h12v4H50z" fill="#d9d9d9"/><path d="M50 32h5v2h-5z" fill="#f3f3f3"/><path d="M50 9h12v4H50z" fill="#d9d9d9"/><path d="M50 11h5v2h-5z" fill="#f3f3f3"/><path d="M54 17h4v4h-4z" fill="#e4c290"/><path d="M52 15h4v4h-4z" fill="#d38e2a"/><path d="M52 23h8v2h-8zm0 13h8v2h-8zm0 4h8v2h-8z" fill="#5e9fdf"/><path d="M14 11h10v2H14zm0 4h6v2h-6z" fill="#f3f3f3"/><path d="M45 24L32 41 19 24l4-6h18l4 6z" fill="#d38e2a"/><path d="M45 24H19l4-6h18l4 6z" fill="#e4c290"/><path d="M32 18l-6 6h12l-6-6z" fill="#d38e2a"/><path d="M26 24l6 17 6-17H26z" fill="#e4c290"/><path d="M18 23h2v2h-2zm26 0h2v2h-2zM31 40h2v2h-2zm-9-23h2v2h-2zm18 0h2v2h-2z" fill="#5e9fdf"/><path d="M41.05 35L46 37.12l-2.12.71-.71 2.12L41.05 35z" fill="#1976d2"/><path d="M15 35h8v6h-8z" fill="#d38e2a"/></svg>