<svg xmlns="http://www.w3.org/2000/svg" viewBox="0 0 64 64" xmlns:v="https://vecta.io/nano"><path d="M51 26.83l2-2V58c0 3.31-2.69 6-6 6H19c-3.31 0-6-2.69-6-6V6c0-3.31 2.69-6 6-6h28c3.29 0 6 2.67 6 6h-2v20.83z" fill="#1976d2"/><path d="M51 6v50a4 4 0 0 1-4 4H19a4 4 0 0 1-4-4V6a4 4 0 0 1 4-4h5.28c.43 0 .81.28.95.68.27.83.56 2.32 2.21 2.32h11.12a2.01 2.01 0 0 0 1.9-1.37l.31-.95c.14-.4.52-.68.95-.68l5.77.04C49.32 2.21 51 3.85 51 6z" fill="#fff"/><path d="M51 21.37V56a4 4 0 0 1-4 4H34v-7H24v-9h-5l2.96-12.59C24.19 17.53 40.61 12.54 51 21.37z" fill="#e4c290"/><path d="M51,39.34c-.76,1.54-2.23,2.66-3.98,2.95l-.27,.53c-.69,1.39-2.09,2.25-3.64,2.25h-1.04c-.75,0-1.36-.61-1.36-1.36s.61-1.35,1.36-1.35c2.08,0,1.88-.02,2.86-1.97,.23-.46,.7-.75,1.21-.75,1.5,0,2.72-1.21,2.72-2.71s-1.22-2.72-2.72-2.72h-4.07c-.75,0-1.36-.6-1.36-1.35s.61-1.36,1.36-1.36h4.07c2.13,0,3.98,1.23,4.86,3.03v4.81Z" fill="#d38e2a"/><path d="M30 9l-.05 12.28c-.11.42-.5.72-.95.72H19c-.57 0-1-.47-1-1V9c0-.55.45-1 1-1h10c.55 0 1 .45 1 1z" fill="#5e9fdf"/><path d="M44,58H22c-1.34,0-1.29-2,0-2h22c1.34,0,1.29,2,0,2Z" fill="#d9d9d9"/><g fill="#1976d2"><path d="M29.95 21.28c-.11.42-.5.72-.95.72H19c-.45 0-.84-.3-.95-.72C18.4 18.31 20.93 16 24 16s5.6 2.31 5.95 5.28z"/><circle cx="24" cy="13" r="3"/></g><path d="M31.83 46.55C30.39 48.71 27.99 50 25.39 50H24v-2c1.83 0 4.35.16 6.17-2.55.73-1.12 2.4.02 1.66 1.1z" fill="#d38e2a"/><path d="M53 6v18.83l-2 2V6h2z" fill="#1976d2"/><path d="M51 6v15.37c-2-1.7-4.39-2.97-7-3.7V10a4 4 0 0 1 4-4h3z" fill="#f3f3f3"/><path d="M51 21.37v5.46L48.17 24C45.61 24 44 22.08 44 20v-2.33c2.61.73 5 2 7 3.7z" fill="#d38e2a"/><path d="M15 21.17V39h-2V21.17l1-1 1 1z" fill="#1976d2"/><path d="M20,26v10c0,1.65-1.35,3-3,3h-2V21.17c2.1,2.1,1.76,1.83,2,1.83,1.65,0,3,1.35,3,3Z" fill="#f3f3f3"/><g fill="#e4c290"><rect x="2" y="25" width="16" height="12" rx="1" transform="matrix(-1 0 0 -1 20 62)"/><path d="M16 25l-2-2-2 2h4z"/></g><path d="M15 31c0-1.32-2-1.32-2 0s2 1.32 2 0zm-4 0c0-1.32-2-1.32-2 0s2 1.32 2 0zm-4 0c0-1.32-2-1.32-2 0s2 1.32 2 0z" fill="#fff"/><g fill="#5e9fdf"><rect x="46" y="8" width="16" height="14" rx="2"/><path d="M49 22l2 2 2-2h-4z"/></g><g fill="#f3f3f3"><rect x="50" y="12" width="6" height="6" rx="1"/><path d="M55 15l3-3v6l-3-3z"/></g></svg>