<svg xmlns="http://www.w3.org/2000/svg" viewBox="0 0 64 64" xmlns:v="https://vecta.io/nano"><rect x="12" width="40" height="64" rx="6" fill="#5e9fdf"/><path d="M50 6v50a4 4 0 0 1-4 4H18a4 4 0 0 1-4-4V6a3.98 3.98 0 0 1 2-3.46c1.23-.71 1.73-.54 7.28-.54.43 0 .81.28.95.68.27.83.56 2.32 2.21 2.32h11.12a2.01 2.01 0 0 0 1.9-1.37l.31-.95c.14-.4.52-.68.95-.68H46a4 4 0 0 1 4 4z" fill="#fff"/><path d="M20 9h24v16H20zm25 49H19c-1.34 0-1.29-2 0-2h26c1.34 0 1.29 2 0 2zm1-49h2v4h-2zm0 6h2v4h-2zm0 6h2v4h-2zM16 9h2v4h-2zm0 6h2v4h-2zm0 6h2v4h-2zm4 6h24v16H20zm26 0h2v4h-2zm0 6h2v4h-2zm0 6h2v4h-2zM16 27h2v4h-2zm0 6h2v4h-2zm0 6h2v4h-2zm4 7h24v6H20zm26 0h2v4h-2zm-30 0h2v4h-2z" fill="#d9d9d9"/><path d="M35 17l-6-4v8l6-4zm0 18l-6-4v8l6-4zm-1.5 17H29v-3l4.5 3z" fill="#c8c8c8"/></svg>