<svg xmlns="http://www.w3.org/2000/svg" viewBox="0 0 64 64" xmlns:v="https://vecta.io/nano"><rect x="10" y="13" width="54" height="42" rx="3" fill="#5e9fdf"/><path d="M62 16v33H12V16c0-.55.45-1 1-1h48c.55 0 1 .45 1 1z" fill="#fff"/><path d="M45 63H31l1-8h12l1 8z" fill="#1976d2"/><g fill="#5e9fdf"><path d="M51,64H25c-1.34,0-1.29-2,0-2h26c1.34,0,1.29,2,0,2Z"/><rect x="15" y="18" width="30" height="20" rx="1"/></g><path d="M47 18h12v8H47zm0 10h12v8H47zm0 10h12v8H47z" fill="#d9d9d9"/><path d="M24 2v12c0 1.1-.9 2-2 2h-2l-2 2-2-2H2c-1.1 0-2-.9-2-2V2C0 .9.9 0 2 0h20c1.1 0 2 .9 2 2z" fill="#d38e2a"/><g fill="#fff"><circle cx="19" cy="8" r="2"/><circle cx="12" cy="8" r="2"/><circle cx="5" cy="8" r="2"/><path d="M27 23v10l8-5-8-5zm-10-3h4v4h-4zm0 6h4v4h-4zm0 6h4v4h-4zm22-12h4v4h-4zm0 6h4v4h-4zm0 6h4v4h-4z"/></g><circle cx="18" cy="42" r="2" fill="#5e9fdf"/><path d="M22 41h18v2H22z" fill="#d9d9d9"/></svg>