<svg xmlns="http://www.w3.org/2000/svg" viewBox="0 0 64 64" xmlns:v="https://vecta.io/nano"><path d="M44 8v48c0 3.64-2.43 6.71-5.75 7.68-1.52.45-.39.32-26.25.32a8 8 0 0 1-8-8V8a8 8 0 0 1 8-8h24a8 8 0 0 1 8 8z" fill="#1976d2"/><path d="M41 9v45a5.98 5.98 0 0 1-4 5.65c-1.36.49-.28.35-24 .35-3.31 0-6-2.69-6-6V9c0-3.31 2.69-6 6-6h3.29a.98.98 0 0 1 .94.68l.31.95A2.01 2.01 0 0 0 19.44 6h9.12a2.01 2.01 0 0 0 1.9-1.37l.31-.94a1 1 0 0 1 .95-.69H35c3.28 0 6 2.66 6 6z" fill="#fff"/><path d="M37 43.8v15.85c-1.36.49-.28.35-24 .35-3.31 0-6-2.69-6-6V43.8c0-1.68 1.05-3.18 2.63-3.76L18 37h8l8.37 3.04c1.58.58 2.63 2.08 2.63 3.76z" fill="#5e9fdf"/><path d="M22 41a4 4 0 0 1-4-4v-2h8v2a4 4 0 0 1-4 4z" fill="#d38e2a"/><path d="M22 38a8 8 0 0 1-8-8v-7h16v7a8 8 0 0 1-8 8z" fill="#e4c290"/><g fill="#1976d2"><path d="M12 22h2v4h-2z"/><path d="M28,23H14c-1.66,0-3-1.34-3-3v-6h15c1.66,0,3,1.34,3,3,1.66,0,3,1.34,3,3v6h-2v-1c0-1.1-.9-2-2-2Z"/></g><path d="M14 25v5h-.5c-1.68 0-2.85-1.61-2.41-3.15.28-1.06 1.25-1.85 2.41-1.85h.5zm16.5 5H30v-5h.5a2.5 2.5 0 1 1 0 5z" fill="#e4c290"/><path d="M19.55 34.89a1.01 1.01 0 0 1-.45-1.34 1.01 1.01 0 0 1 1.34-.45c.97.49 2.13.49 3.11 0 .49-.25 1.09-.05 1.34.45a.99.99 0 0 1-.45 1.34c-1.53.77-3.36.77-4.89 0z" fill="#d38e2a"/><path d="M38 44l-.05 12.28c-.11.42-.5.72-.95.72H27c-.57 0-1-.47-1-1V44c0-.55.45-1 1-1h10c.55 0 1 .45 1 1z" fill="#f3f3f3"/><g fill="#e4c290"><circle cx="32" cy="49" r="4"/><path d="M37.95 56.28c-.11.42-.5.72-.95.72H27c-.45 0-.84-.3-.95-.72.23-1.95 1.4-3.62 3.05-4.53 3.71-2.07 8.35.32 8.85 4.53z"/></g><path d="M44 8v19.46a14.8 14.8 0 0 1-3-1.2V9a5.99 5.99 0 0 0-4.37-5.77A14.67 14.67 0 0 1 39.36.74C42.1 2.01 44 4.78 44 8z" fill="#1976d2"/><path d="M41 9v17.26c-8.54-4.53-10.63-15.74-4.37-23.03A5.99 5.99 0 0 1 41 9z" fill="#f3f3f3"/><circle cx="48" cy="13" r="13" fill="#fff"/><path d="M56 8v10c0 .94-1.22 1.36-1.78.62L52 15.85V17c0 .55-.45 1-1 1H41c-.55 0-1-.45-1-1V9c0-.55.45-1 1-1h10c.55 0 1 .45 1 1v1.16l2.22-2.78C54.78 6.65 56 7.05 56 8z" fill="#e4c290"/><g fill="#fff"><circle cx="43" cy="13" r="1"/><circle cx="46" cy="13" r="1"/><circle cx="49" cy="13" r="1"/></g></svg>