<?xml version="1.0" encoding="UTF-8"?><svg id="a" xmlns="http://www.w3.org/2000/svg" viewBox="0 0 64 56"><defs><style>.b{fill:#5e9fdf;}.c{fill:#e4c290;}.d{fill:#c8c8c8;}.e{fill:#fdfdfd;}.f{fill:#d38e2a;}.g{fill:#d9d9d9;}.h{fill:#1976d2;}</style></defs><path class="h" d="M10,28h8v14H10c-1.1,0-2-.9-2-2v-10c0-1.1,.9-2,2-2Zm44,14h-8v-14h8c1.1,0,2,.9,2,2v10c0,1.1-.9,2-2,2Z"/><path class="g" d="M52,16l-1.05,21c-.6,12.28-9.75,19-18.95,19-10.09,0-18.41-7.94-18.9-17.98l-1.1-22.02H52Z"/><path class="b" d="M54,21v14c0,1.1-.9,2-2,2-15.34,0-14.78,.18-15.55-.44l-3.2-2.56c-.73-.58-1.77-.58-2.5,0-3.37,2.69-3.52,3-4.45,3H12c-.72,0-1.36-.39-1.71-.97-.41-.64-.29,.14-.29-15.03,0-1.1,.9-2,2-2H52c1.1,0,2,.9,2,2Z"/><path class="f" d="M52,16H12c-2.21,0-4-1.79-4-4V0c10.24,5.14,18.51,4,32,4,6.56,0,12,5.31,12,12Z"/><path class="h" d="M13.05,37c-1.04,0-2.09,.15-2.76-.97,.91-.07,1.83,0,2.72,.2l.04,.77Z"/><path class="d" d="M18.35,50.18c-3.81-3.97-5.06-8.26-5.3-13.18h2.06c4.93,2.53,6.36,8.8,3.24,13.18Z"/><path class="h" d="M15.11,37h-2.06l-.04-.77c.74,.17,1.44,.43,2.1,.77Z"/><path class="d" d="M52,16l-.15,3h-5.85c-1.09,0-2-.89-2-2v-1h8Z"/><path class="c" d="M52,16h-8c0-11.01-.13-10.46,.38-11.17,4.6,1.8,7.62,6.23,7.62,11.17Z"/><path class="h" d="M64,4V15c0,1.1-.9,2-2,2h-10l-2,3-2-3c-.81,0-2-.63-2-2V4c0-1.1,.9-2,2-2h14c1.1,0,2,.9,2,2Z"/><circle class="f" cx="9" cy="45" r="9"/><path class="e" d="M11.13,46.88c-1.15-1.14-3.1-1.14-4.26,0-.95,.93-2.35-.5-1.4-1.42,1.95-1.95,5.11-1.95,7.06,0,.94,.93-.47,2.34-1.4,1.42Zm3.53-2.54c-.63,0-.66-.38-1.57-1.02-2.73-1.96-6.63-1.69-9.04,.73-.94,.94-2.35-.48-1.41-1.42,3.54-3.53,9.23-3.49,12.73,0,.63,.63,.18,1.71-.71,1.71Zm-4.66,4.66c0-1.32-2-1.32-2,0s2,1.32,2,0Z"/><path class="b" d="M53,6.87v4.26c0,.8,.89,1.28,1.55,.83l3.2-2.13c.46-.31,.58-.93,.27-1.39-.07-.11-.16-.2-.27-.27l-3.2-2.13c-.46-.3-1.08-.18-1.39,.29-.11,.16-.16,.35-.16,.54Z"/><path class="h" d="M10,29H54v2H10v-2Z"/><path class="d" d="M34,51h-4c-.55,0-1-.45-1-1s.45-1,1-1h4c.55,0,1,.45,1,1s-.45,1-1,1Zm3-4c-.26,0-.51-.1-.71-.29l-1.42-1.42-2.32,1.54c-.34,.22-.77,.22-1.11,0l-2.32-1.54-1.42,1.42c-.39,.39-1.02,.39-1.41,0s-.39-1.02,0-1.41l2-2c.34-.34,.86-.39,1.26-.12l2.45,1.63,2.45-1.63c.39-.27,.92-.21,1.26,.12l2,2c.39,.39,.39,1.02,0,1.41-.2,.2-.45,.29-.71,.29Z"/></svg>