<svg xmlns="http://www.w3.org/2000/svg" viewBox="0 0 64 64" xmlns:v="https://vecta.io/nano"><path d="M62,18V57H2V18c0-1.66,1.34-3,3-3H59c1.66,0,3,1.34,3,3Z" fill="#5e9fdf"/><path d="M1 57h62c.55 0 1 .45 1 1v2c0 1.66-1.34 3-3 3H3c-1.66 0-3-1.34-3-3v-2c0-.55.45-1 1-1z" fill="#1976d2"/><path d="M60 18v4H20l-4-5h43c.55 0 1 .45 1 1z" fill="#5e9fdf"/><path d="M60 22v33H4V18c0-.55.45-1 1-1h14.08c1.21 0 2.36.55 3.12 1.5l1.75 2.17c.75.85 1.84 1.33 2.97 1.33H60z" fill="#fff"/><path d="M39 59H25c-.81 0-2-.63-2-2h18c0 .81-.63 2-2 2z" fill="#f3f3f3"/><path d="M14 38c-.18 0 .06.05-3.02-.72-1.12-.28-1.99-1.19-2.21-2.32l-.75-3.76a1 1 0 1 1 1.96-.4l.75 3.76c.08.38.37.68.74.77l2.77.69c1.14.28.93 1.97-.24 1.97zM9 50c-.63 0-1.1-.58-.98-1.2l.75-3.76C9 43.91 9.86 43 10.98 42.72l2.77-.69c.54-.13 1.08.19 1.21.73s-.19 1.08-.73 1.21l-2.77.69a1.02 1.02 0 0 0-.74.77l-.75 3.76c-.1.48-.51.8-.98.8zm8-19c-.15 0-.3-.03-.45-.11A4.6 4.6 0 0 1 14 26.76V26c0-.55.45-1 1-1s1 .45 1 1v.76a2.58 2.58 0 0 0 1.45 2.34c.94.47.6 1.89-.45 1.89zm-4 10H7c-.55 0-1-.45-1-1s.45-1 1-1h6c.55 0 1 .45 1 1s-.45 1-1 1zm11-3c-1.17 0-1.38-1.69-.24-1.97l2.77-.69a1.02 1.02 0 0 0 .74-.77l.75-3.76a.99.99 0 0 1 1.18-.78c.54.11.89.63.78 1.18l-.75 3.76c-.23 1.13-1.09 2.04-2.21 2.32l-3.02.72zm5 12c-.47 0-.88-.33-.98-.8l-.75-3.76c-.08-.38-.37-.68-.74-.77l-2.77-.69a1 1 0 0 1-.73-1.21 1.01 1.01 0 0 1 1.21-.73l2.77.69c1.12.28 1.99 1.19 2.21 2.32l.75 3.76c.12.62-.35 1.2-.98 1.2zm-8-19c-1.05 0-1.39-1.42-.45-1.89A2.54 2.54 0 0 0 22 26.77v-.76c0-.55.45-1 1-1s1 .45 1 1v.76c0 2.58-2.14 4.24-3 4.24zm10 10h-6c-.55 0-1-.45-1-1s.45-1 1-1h6c.55 0 1 .45 1 1s-.45 1-1 1z" fill="#1976d2"/><path d="M23 34h-8v-2a4 4 0 1 1 8 0v2z" fill="#5e9fdf"/><path d="M19 50c-3.87 0-7-3.13-7-7v-7c0-1.1.9-2 2-2h10c1.1 0 2 .9 2 2v7c0 3.87-3.13 7-7 7z" fill="#1976d2"/><path d="M37 31h21v2H37zm0 4h18v2H37zm0 4h12v2H37z" fill="#d9d9d9"/><path d="M62 18v4h-2v-4c0-.55-.45-1-1-1H40.71l1.25-2H59c1.66 0 3 1.34 3 3z" fill="#1976d2"/><path d="M60 18v4H43c-2.34 0-3.78-2.58-2.55-4.59l.26-.41H59c.55 0 1 .45 1 1z" fill="#5e9fdf"/><path d="M63 20H43c-.78 0-1.26-.91-.85-1.62l10-16.92c.37-.62 1.33-.62 1.7 0l10 16.92c.42.7-.07 1.62-.85 1.62z" fill="#d38e2a"/><path d="M47 50h-8c-1.1 0-2-.9-2-2 0-.81.63-2 2-2h8c1.1 0 2 .9 2 2 0 .81-.63 2-2 2z" fill="#5e9fdf"/><g fill="#f3f3f3"><path d="M51.86 13.01l-.58-4.03C51.13 7.94 51.94 7 53 7h0a1.73 1.73 0 0 1 1.72 1.98l-.58 4.03c-.18 1.29-2.09 1.35-2.28 0z"/><circle cx="53" cy="17" r="1"/></g><circle cx="19" cy="20" r="1" fill="#d9d9d9"/></svg>