<svg xmlns="http://www.w3.org/2000/svg" viewBox="0 0 64 64" xmlns:v="https://vecta.io/nano"><rect x="11.68" width="40.32" height="64" rx="8" fill="#5e9fdf"/><path d="M49 9v45c0 3.31-2.69 6-6 6H21c-3.31 0-6-2.69-6-6V9c0-3.38 2.75-6 6-6h3.29a.98.98 0 0 1 .94.68l.31.95A2.01 2.01 0 0 0 27.44 6h9.12a2.01 2.01 0 0 0 1.9-1.37l.31-.94a1 1 0 0 1 .95-.69H43c3.31 0 6 2.69 6 6z" fill="#fff"/><path d="M17 20H1c-.78 0-1.23-.84-.87-1.5l8-14c.36-.62 1.38-.62 1.74 0l8 14c.36.66-.09 1.5-.87 1.5z" fill="#d38e2a"/><g fill="#fff"><path d="M9 14c-.55 0-1-.45-1-1v-3c0-.55.45-1 1-1s1 .45 1 1v3c0 .55-.45 1-1 1z"/><circle cx="9" cy="17" r="1"/></g><path d="M42 58H22c-.55 0-1-.45-1-1 0-.29.22-1 1-1h20c.55 0 1 .45 1 1 0 .29-.22 1-1 1z" fill="#d9d9d9"/><path d="M49 13h3v40h-3z" fill="#1976d2"/><path d="M49 13v40H38a4 4 0 0 1-4-4v-1l-2.13-1.6c-1.59-1.18-1.61-3.61 0-4.8L34 40V17a4 4 0 0 1 4-4h11z" fill="#f3f3f3"/><path d="M36 17v23c0 .63-.3 1.22-.8 1.6l-2.13 1.6c-.53.4-.53 1.2 0 1.6l2.13 1.6c.5.38.8.97.8 1.6v1c0 1.1.9 2 2 2h24c1.1 0 2-.9 2-2V17c0-1.1-.9-2-2-2H38c-1.1 0-2 .9-2 2z" fill="#fff"/><g fill="#5e9fdf"><path d="M49 25c-.37 0-.72-.2-.9-.55l-1-2c-.25-.49-.05-1.09.45-1.34.49-.25 1.09-.05 1.34.45l1 2c.33.67-.16 1.45-.89 1.45z"/><path d="M51 25a1 1 0 0 1-.89-1.45l1-2a1.01 1.01 0 0 1 1.34-.45 1.01 1.01 0 0 1 .45 1.34l-1 2c-.18.35-.53.55-.9.55zm-6 7h-3c-.43 0-.81-.28-.95-.68l-.93-2.78-.83-.83c-.39-.39-.39-1.02 0-1.41s1.02-.39 1.41 0c1 1 1.14 1.08 1.24 1.39l.77 2.32h2.28c.55 0 1 .45 1 1s-.45 1-1 1zm0 4h-5c-.55 0-1-.45-1-1s.45-1 1-1h5c.55 0 1 .45 1 1s-.45 1-1 1zm-5 9c-.88 0-1.34-1.07-.71-1.71l.8-.8.93-3.73c.11-.45.51-.76.97-.76h3c.55 0 1 .45 1 1s-.45 1-1 1h-2.22l-.81 3.24c-.09.34-.19.39-1.26 1.46a.98.98 0 0 1-.71.29zm18-13h-3c-.55 0-1-.45-1-1s.45-1 1-1h2.28c.85-2.54.79-2.49 1.01-2.71l1-1c.39-.39 1.02-.39 1.41 0s.39 1.02 0 1.41l-.83.83-.93 2.78a1 1 0 0 1-.95.68zm2 4h-5c-.55 0-1-.45-1-1s.45-1 1-1h5c.55 0 1 .45 1 1s-.45 1-1 1zm0 9c-.53 0-.67-.26-1.71-1.29-.26-.26-.18-.13-1.07-3.71H55c-.55 0-1-.45-1-1s.45-1 1-1h3c.46 0 .86.31.97.76l.93 3.73.8.8a1.01 1.01 0 0 1-.71 1.71z"/><path d="M53,27h-6v-1c0-1.66,1.34-3,3-3s3,1.34,3,3v1Z"/></g><g fill="#1976d2"><path d="M50 43c-3.31 0-6-2.69-6-6v-8c0-1.1.9-2 2-2h8c1.1 0 2 .9 2 2v8c0 3.31-2.69 6-6 6z"/><path d="M49 31h2v12h-2z"/></g><g fill="#d9d9d9"><path d="M22 16h10v2H22zm0 5h10v2H22zm-3 5h13v2H19zm0 5h13v2H19zm0 5h13v2H19z"/><circle cx="45" cy="7" r="1"/><circle cx="41" cy="7" r="1"/></g><g fill="#d38e2a"><path d="M56 12c-.88 0-1.34-1.07-.71-1.71l4-4c.39-.39 1.02-.39 1.41 0s.39 1.02 0 1.41l-4 4a.98.98 0 0 1-.71.29z"/><path d="M60 12c-.26 0-.51-.1-.71-.29l-4-4c-.39-.39-.39-1.02 0-1.41s1.02-.39 1.41 0l4 4a1.01 1.01 0 0 1-.71 1.71zM5 53c-.88 0-1.34-1.07-.71-1.71l4-4c.39-.39 1.02-.39 1.41 0s.39 1.02 0 1.41l-4 4a.98.98 0 0 1-.71.29z"/><path d="M9 53c-.26 0-.51-.1-.71-.29l-4-4c-.39-.39-.39-1.02 0-1.41s1.02-.39 1.41 0l4 4a1.01 1.01 0 0 1-.71 1.71z"/></g></svg>