<svg xmlns="http://www.w3.org/2000/svg" xmlns:xlink="http://www.w3.org/1999/xlink" viewBox="0 0 64 64" xmlns:v="https://vecta.io/nano"><g fill="#d38e2a"><path d="M32 17c-.55 0-1-.45-1-1V5c0-.55.45-1 1-1s1 .45 1 1v11c0 .55-.45 1-1 1z"/><path d="M35 3a3.01 3.01 0 0 1-3 3 3.01 3.01 0 0 1-3-3 3.01 3.01 0 0 1 3-3 3.01 3.01 0 0 1 3 3zm-2 0c0-.55-.45-1-1-1s-1 .45-1 1 .45 1 1 1 1-.45 1-1zM16 33H5c-.55 0-1-.45-1-1s.45-1 1-1h11c.55 0 1 .45 1 1s-.45 1-1 1z"/><path d="M0,32c0-1.65,1.35-3,3-3s3,1.35,3,3-1.35,3-3,3S0,33.65,0,32Zm4,0c0-.55-.45-1-1-1s-1,.45-1,1,.45,1,1,1,1-.45,1-1Z"/><use xlink:href="#B"/><use xlink:href="#C"/><use xlink:href="#D"/><use xlink:href="#E"/><use xlink:href="#B"/><use xlink:href="#C"/><use xlink:href="#D"/><use xlink:href="#E"/><path d="M54.59 55.59c-.26 0-.51-.1-.71-.29L42.6 44.02c-.39-.39-.39-1.02 0-1.41s1.02-.39 1.41 0l11.28 11.28c.39.39.39 1.02 0 1.41a.98.98 0 0 1-.71.29z"/><path d="M53.88 58.13a3 3 0 0 1 0-4.24 3 3 0 0 1 4.24 0 3 3 0 0 1 0 4.24 3 3 0 0 1-4.24 0zm1.41-1.41c.39.39 1.02.39 1.41 0s.39-1.02 0-1.41-1.02-.39-1.41 0-.39 1.02 0 1.41zM9.41 55.59c-.26 0-.51-.1-.71-.29-.39-.39-.39-1.02 0-1.41l11.28-11.28c.39-.39 1.02-.39 1.41 0s.39 1.02 0 1.41L10.11 55.3a.98.98 0 0 1-.71.29z"/><path d="M5.87 53.88a3 3 0 0 1 4.24 0 3 3 0 0 1 0 4.24 3 3 0 0 1-4.24 0 3 3 0 0 1 0-4.24zm1.41 1.41c-.39.39-.39 1.02 0 1.41s1.02.39 1.41 0 .39-1.02 0-1.41-1.02-.39-1.41 0zM59 33H48c-.55 0-1-.45-1-1s.45-1 1-1h11c.55 0 1 .45 1 1s-.45 1-1 1z"/><path d="M61 35a3.01 3.01 0 0 1-3-3 3.01 3.01 0 0 1 3-3 3.01 3.01 0 0 1 3 3 3.01 3.01 0 0 1-3 3zm0-2c.55 0 1-.45 1-1s-.45-1-1-1-1 .45-1 1 .45 1 1 1zm-8-1c0 6.22-2.7 11.81-7 15.65C42.29 50.98 37.38 53 32 53s-10.29-2.02-14-5.35c-4.3-3.84-7-9.43-7-15.65 0-11.6 9.4-21 21-21s21 9.4 21 21z"/></g><path d="M46,42.33v5.32c-3.71,3.33-8.62,5.35-14,5.35s-10.29-2.02-14-5.35v-5.32c0-1.62,.97-3.07,2.46-3.69l10-4.17c.49-.2,1.01-.3,1.54-.3s1.05,.1,1.54,.3l10,4.17c1.49,.62,2.46,2.07,2.46,3.69Z" fill="#e4c290"/><path d="M44 42.33v6.3C44 55.9 39.05 62.24 32 64h0c-7.05-1.76-12-8.1-12-15.37v-6.3a2.01 2.01 0 0 1 1.23-1.85l10-4.17a1.96 1.96 0 0 1 1.54 0l10 4.17c.75.31 1.23 1.04 1.23 1.85z" fill="#5e9fdf"/><path d="M32 39l9 4v5.51c0 5.67-3.63 10.7-9 12.49h0c-5.37-1.79-9-6.82-9-12.49V43l9-4z" fill="#1976d2"/><path d="M31 54c-.26 0-.51-.1-.71-.29l-3-3c-.39-.39-.39-1.02 0-1.41s1.02-.39 1.41 0l2.29 2.29 4.29-4.29c.39-.39 1.02-.39 1.41 0s.39 1.02 0 1.41l-5 5a.98.98 0 0 1-.71.29z" fill="#f3f3f3"/><path d="M23.4 24.265l3.799 1.251a4 4 0 0 1 2.549 5.05h0a4 4 0 0 1-5.05 2.549h0c-3.144-1.035-4.858-4.431-3.823-7.575h0c.344-1.045 1.48-1.618 2.525-1.274zm15.899 8.845h0a4 4 0 0 1-5.05-2.549h0a4 4 0 0 1 2.549-5.05l3.799-1.251c1.045-.344 2.181.23 2.525 1.274h0c1.035 3.144-.679 6.54-3.823 7.575z" fill="#e4c290"/><defs ><path id="B" d="M20.69 21.69c-.26 0-.51-.1-.71-.29L8.7 10.12c-.39-.39-.39-1.02 0-1.41s1.02-.39 1.41 0l11.28 11.28c.39.39.39 1.02 0 1.41a.98.98 0 0 1-.71.29z"/><path id="C" d="M5.87 5.87a3 3 0 0 1 4.24 0 3 3 0 0 1 0 4.24 3 3 0 0 1-4.24 0 3 3 0 0 1 0-4.24zM8.7 8.7c.39-.39.39-1.02 0-1.41s-1.02-.39-1.41 0-.39 1.02 0 1.41 1.02.39 1.41 0z"/><path id="D" d="M43.31 21.69c-.26 0-.51-.1-.71-.29-.39-.39-.39-1.02 0-1.41L53.88 8.71c.39-.39 1.02-.39 1.41 0s.39 1.02 0 1.41L44.01 21.4a.98.98 0 0 1-.71.29z"/><path id="E" d="M58.13 10.12a3 3 0 0 1-4.24 0 3 3 0 0 1 0-4.24 3 3 0 0 1 4.24 0 3 3 0 0 1 0 4.24zm-1.41-1.41c.39-.39.39-1.02 0-1.41s-1.02-.39-1.41 0-.39 1.02 0 1.41 1.02.39 1.41 0z"/></defs></svg>