<svg xmlns="http://www.w3.org/2000/svg" viewBox="0 0 64 64" xmlns:v="https://vecta.io/nano"><rect x="1" y="6" width="62" height="48" rx="4" fill="#5e9fdf"/><path d="M44,64H20c2.75-2.75,4-6.21,4-10h16c0,4.08,1.44,7.44,4,10Z" fill="#1976d2"/><g fill="#5e9fdf"><path d="M45 64H19c-.55 0-1-.45-1-1 0-.29.22-1 1-1h26c.55 0 1 .45 1 1 0 .29-.22 1-1 1z"/><rect x="4" y="9" width="56" height="40" rx="1"/></g><path d="M60 14v34c0 .55-.45 1-1 1H5c-.55 0-1-.45-1-1V10c0-.55.45-1 1-1l16 .11a3.98 3.98 0 0 1 2.2 1.39l1.6 2c.76.95 1.91 1.5 3.12 1.5H60z" fill="#fff"/><path d="M14 32c-.18 0 .06.05-3.02-.72-1.12-.28-1.99-1.19-2.21-2.32l-.75-3.76a1 1 0 1 1 1.96-.4l.75 3.76c.08.38.37.68.74.77l2.77.69c1.14.28.93 1.97-.24 1.97zM9 44c-.63 0-1.1-.58-.98-1.2l.75-3.76C9 37.91 9.86 37 10.98 36.72l2.77-.69a1 1 0 0 1 1.21.73c.13.54-.19 1.08-.73 1.21l-2.77.69a1.02 1.02 0 0 0-.74.77l-.75 3.76c-.1.48-.51.8-.98.8zm8-19c-.15 0-.3-.03-.45-.11A4.6 4.6 0 0 1 14 20.76V20c0-.55.45-1 1-1s1 .45 1 1v.76a2.58 2.58 0 0 0 1.45 2.34c.94.47.6 1.89-.45 1.89zm-4 10H7c-.55 0-1-.45-1-1s.45-1 1-1h6c.55 0 1 .45 1 1s-.45 1-1 1zm11-3c-1.17 0-1.38-1.69-.24-1.97l2.77-.69a1.02 1.02 0 0 0 .74-.77l.75-3.76a.99.99 0 0 1 1.18-.78c.54.11.89.63.78 1.18l-.75 3.76c-.23 1.13-1.09 2.04-2.21 2.32l-3.02.72zm5 12c-.47 0-.88-.33-.98-.8l-.75-3.76c-.08-.38-.37-.68-.74-.77l-2.77-.69a1 1 0 0 1-.73-1.21 1.01 1.01 0 0 1 1.21-.73l2.77.69c1.12.28 1.99 1.19 2.21 2.32l.75 3.76c.12.62-.35 1.2-.98 1.2zm-8-19c-1.05 0-1.39-1.42-.45-1.89A2.54 2.54 0 0 0 22 20.77v-.76c0-.55.45-1 1-1s1 .45 1 1v.76c0 2.58-2.14 4.24-3 4.24zm10 10h-6c-.55 0-1-.45-1-1s.45-1 1-1h6c.55 0 1 .45 1 1s-.45 1-1 1z" fill="#1976d2"/><path d="M23 28h-8v-2a4 4 0 1 1 8 0v2z" fill="#5e9fdf"/><path d="M19 44c-3.87 0-7-3.13-7-7v-7c0-1.1.9-2 2-2h10c1.1 0 2 .9 2 2v7c0 3.87-3.13 7-7 7z" fill="#1976d2"/><path d="M37 25h21v2H37zm0 4h18v2H37zm0 4h12v2H37z" fill="#d9d9d9"/><path d="M47 44h-8c-1.1 0-2-.9-2-2 0-.81.63-2 2-2h8c1.1 0 2 .9 2 2 0 .81-.63 2-2 2z" fill="#5e9fdf"/><path d="M53.53 9H36.47l1.87-3h13.32l1.87 3z" fill="#1976d2"/><path d="M56.66 14H33.34l3.13-5h17.06l3.13 5z" fill="#5e9fdf"/><path d="M55 20H35c-2.36 0-3.79-2.61-2.54-4.59l.88-1.41h23.32l.88 1.41C58.79 17.39 57.35 20 55 20z" fill="#f3f3f3"/><path d="M55 18H35c-.78 0-1.27-.86-.85-1.53l10-16c.37-.58 1.33-.58 1.7 0l10 16c.41.67-.06 1.53-.85 1.53z" fill="#d38e2a"/><g fill="#f3f3f3"><path d="M43.86 11.01l-.58-4.03C43.13 5.94 43.94 5 45 5h0a1.73 1.73 0 0 1 1.72 1.98l-.58 4.03c-.18 1.29-2.09 1.35-2.28 0z"/><circle cx="45" cy="15" r="1"/></g><circle cx="20" cy="12" r="1" fill="#d9d9d9"/></svg>