<svg xmlns="http://www.w3.org/2000/svg" viewBox="0 0 64 64" xmlns:v="https://vecta.io/nano"><path d="M62,19V58H2V19c0-1.66,1.34-3,3-3H59c1.66,0,3,1.34,3,3Z" fill="#5e9fdf"/><path d="M1 58h62c.55 0 1 .45 1 1v2c0 1.66-1.34 3-3 3H3c-1.66 0-3-1.34-3-3v-2c0-.55.45-1 1-1z" fill="#1976d2"/><path d="M60 19v4H20l-3.29-4.11L16 18h43c.55 0 1 .45 1 1z" fill="#5e9fdf"/><path d="M60 23v33H4V19c0-.55.45-1 1-1h14.08c1.21 0 2.36.55 3.12 1.5l1.6 2c.76.95 1.91 1.5 3.12 1.5H60z" fill="#fff"/><path d="M28 42h28v2H28zm0 4h28v2H28zm0 4h16v2H28z" fill="#d9d9d9"/><path d="M23 58h18c0 1.1-.9 2-2 2H25c-1.1 0-2-.9-2-2h0z" fill="#f3f3f3"/><g fill="#d38e2a"><path d="M32 15c-.55 0-1-.45-1-1V5c0-.55.45-1 1-1s1 .45 1 1v9c0 .55-.45 1-1 1z"/><path d="M35 3a3.01 3.01 0 0 1-3 3 3.01 3.01 0 0 1-3-3 3.01 3.01 0 0 1 3-3 3.01 3.01 0 0 1 3 3zm-2 0c0-.55-.45-1-1-1s-1 .45-1 1 .45 1 1 1 1-.45 1-1zM21 7a3.01 3.01 0 0 1-3 3 3.01 3.01 0 0 1-3-3 3.01 3.01 0 0 1 3-3 3.01 3.01 0 0 1 3 3zm-2 0c0-.55-.45-1-1-1s-1 .45-1 1 .45 1 1 1 1-.45 1-1z"/><path d="M27 16c-.55 0-1-.45-1-1V9c0-.55-.45-1-1-1h-5c-.55 0-1-.45-1-1s.45-1 1-1h5a3.01 3.01 0 0 1 3 3v6c0 .55-.45 1-1 1zM46 4a3.01 3.01 0 0 1 3 3 3.01 3.01 0 0 1-3 3 3.01 3.01 0 0 1-3-3 3.01 3.01 0 0 1 3-3zm0 4c.55 0 1-.45 1-1s-.45-1-1-1-1 .45-1 1 .45 1 1 1z"/><path d="M37,16c-.55,0-1-.45-1-1v-6c0-1.65,1.35-3,3-3h5c.55,0,1,.45,1,1s-.45,1-1,1h-5c-.55,0-1,.45-1,1v6c0,.55-.45,1-1,1Z"/></g><path d="M49.62 18H14.38c.09-.32.22-.63.39-.93l.65-1.07h33.16l.66 1.07a3.57 3.57 0 0 1 .38.93z" fill="#1976d2"/><path d="M49.23 20.93A20.42 20.42 0 0 1 47.88 23H26.92c-1.21 0-2.36-.55-3.12-1.5l-1.6-2c-.76-.95-1.91-1.5-3.12-1.5h30.54c.26.98.13 2.04-.39 2.93z" fill="#5e9fdf"/><path d="M47.88 23c-3.73 5.05-9.51 8-15.88 8-7.2 0-13.64-3.76-17.24-10.07a3.9 3.9 0 0 1-.38-2.93h4.7c1.21 0 2.36.55 3.12 1.5l1.6 2c.76.95 1.91 1.5 3.12 1.5h20.96z" fill="#f3f3f3"/><g fill="#d38e2a"><path d="M32 34c-.55 0-1-.45-1-1v-9c0-.55.45-1 1-1s1 .45 1 1v9c0 .55-.45 1-1 1z"/><path d="M32 38a3.01 3.01 0 0 1-3-3 3.01 3.01 0 0 1 3-3 3.01 3.01 0 0 1 3 3 3.01 3.01 0 0 1-3 3zm0-4c-.55 0-1 .45-1 1s.45 1 1 1 1-.45 1-1-.45-1-1-1zm-14 0a3.01 3.01 0 0 1-3-3 3.01 3.01 0 0 1 3-3 3.01 3.01 0 0 1 3 3 3.01 3.01 0 0 1-3 3zm0-4c-.55 0-1 .45-1 1s.45 1 1 1 1-.45 1-1-.45-1-1-1z"/><path d="M25 32h-5c-.55 0-1-.45-1-1s.45-1 1-1h5c.55 0 1-.45 1-1v-6c0-.55.45-1 1-1s1 .45 1 1v6a3.01 3.01 0 0 1-3 3zm18-1a3.01 3.01 0 0 1 3-3 3.01 3.01 0 0 1 3 3 3.01 3.01 0 0 1-3 3 3.01 3.01 0 0 1-3-3zm2 0c0 .55.45 1 1 1s1-.45 1-1-.45-1-1-1-1 .45-1 1z"/><path d="M44 32h-5a3.01 3.01 0 0 1-3-3v-6c0-.55.45-1 1-1s1 .45 1 1v6c0 .55.45 1 1 1h5c.55 0 1 .45 1 1s-.45 1-1 1z"/></g><path d="M9 42h14v10H9zm45-9h2v6h-2zm-6.5-14.94a1.91 1.91 0 0 1 0 1.88C44.41 25.35 38.68 29 32 29s-12.41-3.64-15.5-9.06a1.91 1.91 0 0 1 0-1.88C19.59 12.65 25.32 9 32 9s12.41 3.64 15.5 9.06z" fill="#d9d9d9"/><circle cx="32" cy="19" r="7" fill="#5e9fdf"/><circle cx="32" cy="19" r="3" fill="#1976d2"/></svg>