<svg xmlns="http://www.w3.org/2000/svg" viewBox="0 0 64 64" xmlns:v="https://vecta.io/nano"><g fill="#d38e2a"><path d="M32 63c-.55 0-1-.45-1-1V48c0-.55.45-1 1-1s1 .45 1 1v14c0 .55-.45 1-1 1z"/><circle cx="32" cy="61" r="3"/><path d="M48 60c-.48 0-.25.08-4.87-3.62-.72-.57-1.13-1.43-1.13-2.34V46c0-.55.45-1 1-1s1 .45 1 1v8.04a1 1 0 0 0 .38.78l4.25 3.4c.74.59.31 1.78-.62 1.78z"/><circle cx="48" cy="59" r="3"/><path d="M16 60c-.94 0-1.37-1.19-.62-1.78l4.25-3.4a1 1 0 0 0 .38-.78V46c0-.55.45-1 1-1s1 .45 1 1v8.04a2.98 2.98 0 0 1-1.12 2.34c-4.5 3.6-4.37 3.62-4.87 3.62z"/><circle cx="16" cy="59" r="3"/><path d="M43 19c-.55 0-1-.45-1-1V9.96a2.98 2.98 0 0 1 1.12-2.34l4.25-3.4c.43-.34 1.06-.27 1.41.16s.28 1.06-.16 1.41l-4.25 3.4a1 1 0 0 0-.38.78v8.04c0 .55-.45 1-1 1z"/><circle cx="48" cy="5" r="3"/><path d="M21 19c-.55 0-1-.45-1-1V9.96a1 1 0 0 0-.38-.78l-4.25-3.4a1.01 1.01 0 0 1-.16-1.41c.35-.43.98-.5 1.41-.16l4.25 3.4c.72.57 1.13 1.43 1.13 2.34v8.04c0 .55-.45 1-1 1zm11-2c-.55 0-1-.45-1-1V2c0-.55.45-1 1-1s1 .45 1 1v14c0 .55-.45 1-1 1z"/></g><path d="M64,32c-6.07,11.31-18.27,19-32,19S6.07,43.31,0,32C6.07,20.69,18.27,13,32,13s25.93,7.69,32,19Z" fill="#f3f3f3"/><circle cx="32" cy="32" r="16" fill="#5e9fdf"/><path d="M39.66 28h7.84a14.67 14.67 0 0 0-.67-2h-7.61c-.99-3.64-2.91-6.97-5.74-9.93a16.26 16.26 0 0 0-2.96 0c-2.83 2.96-4.75 6.29-5.74 9.93h-7.61a14.67 14.67 0 0 0-.67 2h7.84a23.87 23.87 0 0 0 0 8H16.5a14.67 14.67 0 0 0 .67 2h7.61c.99 3.64 2.91 6.97 5.74 9.93a16.26 16.26 0 0 0 2.96 0c2.83-2.96 4.75-6.29 5.74-9.93h7.61a14.67 14.67 0 0 0 .67-2h-7.84a23.87 23.87 0 0 0 0-8zM32 17.42c2.48 2.58 4.19 5.45 5.13 8.58H26.87c.94-3.13 2.65-6 5.13-8.58zm0 29.16C29.52 44 27.81 41.13 26.87 38h10.26c-.94 3.13-2.65 6-5.13 8.58zM37.63 36H26.37a21.95 21.95 0 0 1 0-8h11.26a21.95 21.95 0 0 1 0 8z" fill="#1976d2"/><g fill="#d38e2a"><circle cx="32" cy="3" r="3"/><circle cx="16" cy="5" r="3"/></g></svg>