<svg xmlns="http://www.w3.org/2000/svg" viewBox="0 0 64 64" xmlns:v="https://vecta.io/nano"><g fill="#5e9fdf"><path d="M58 13v12.14C58 41.77 47.81 56.92 32 63 16.48 57.03 6 42.08 6 25.14V13l1.97-.25A41.24 41.24 0 0 0 32 1c6.31 6.31 14.71 10.59 24.03 11.75L58 13z"/><path d="M58.12 12.01l-1.96-.25C47.33 10.66 39 6.58 32.71.29a1.01 1.01 0 0 0-1.42 0C25 6.58 16.67 10.66 7.84 11.76l-1.96.25c-.5.06-.88.49-.88.99v12.14c0 16.79 10.48 32.58 26.64 38.79.22.09.49.1.72 0C48.1 57.88 59 42.38 59 25.14V13c0-.5-.38-.93-.88-.99zM57 25.14c0 15.91-9.86 30.79-25 36.79-15.15-6-25-20.89-25-36.79V13.88c10.14-1.21 18.4-5.2 25-11.48 6.6 6.28 14.86 10.27 25 11.48v11.26z"/><path d="M57 23v2.14c0 7.1-1.95 13.93-5.41 19.86H12.41C8.95 39.07 7 32.24 7 25.14V23h50z"/></g><path d="M7 25.14c0 7.1 1.95 13.93 5.41 19.86h-2.29C6.83 39.01 5 32.21 5 25.14V23h2v2.14zM59 23v2.14c0 7.07-1.83 13.87-5.12 19.86h-2.29C55.05 39.07 57 32.24 57 25.14V23h2z" fill="#1976d2"/><path d="M64 27.03l-3.43 5.98c-.35.62-.35 1.37 0 1.99L64 41.43h0c0 .87-.71 1.58-1.58 1.58H1.58a1.58 1.58 0 0 1-1.37-2.36l3.22-5.64c.35-.62.35-1.37 0-1.99L0 26.61v-.03C0 25.71.71 25 1.58 25h60.84c.87 0 1.58.71 1.58 1.58v.45z" fill="#d38e2a"/><g fill="#f3f3f3"><path d="M19.11 38.45l-4-8c-.25-.49-.05-1.09.45-1.34s1.1-.05 1.34.45l3.11 6.21 3.11-6.21a1.01 1.01 0 0 1 1.34-.45 1.01 1.01 0 0 1 .45 1.34l-4 8a1 1 0 0 1-1.79 0zM31.5 36H29c-.55 0-1-.45-1-1v-5c0-.55.45-1 1-1h2.5c1.93 0 3.5 1.57 3.5 3.5S33.43 36 31.5 36zM30 34h1.5a1.5 1.5 0 1 0 0-3H30v3z"/><path d="M29 39c-.55 0-1-.45-1-1v-8c0-.55.45-1 1-1s1 .45 1 1v8c0 .55-.45 1-1 1zm14.15-.47L40 33.49V38c0 .55-.45 1-1 1s-1-.45-1-1v-8c0-1 1.32-1.38 1.85-.53L43 34.51V30c0-.55.45-1 1-1s1 .45 1 1v8c0 1-1.32 1.38-1.85.53z"/></g></svg>