<svg xmlns="http://www.w3.org/2000/svg" viewBox="0 0 64 64" xmlns:v="https://vecta.io/nano"><path d="M62,19V58H2V19c0-1.66,1.34-3,3-3H59c1.66,0,3,1.34,3,3Z" fill="#1976d2"/><path d="M1 58h62c.55 0 1 .45 1 1v2c0 1.66-1.34 3-3 3H3c-1.66 0-3-1.34-3-3v-2c0-.55.45-1 1-1z" fill="#5e9fdf"/><path d="M60 19v37H4V19c0-.55.45-1 1-1h54c.55 0 1 .45 1 1z" fill="#fff"/><path d="M39 60H25c-1.1 0-2-.9-2-2 0-.1-.84 0 18 0 0 .81-.63 2-2 2z" fill="#f3f3f3"/><g fill="#5e9fdf"><path d="M60 19v3H4v-3c0-.55.45-1 1-1h54c.55 0 1 .45 1 1z"/><path d="M46 22h14v34H46z"/><path d="M46 32h14v2H46zm2-8h10v6H48zm0 12h10v2H48zm0 4h10v2H48zm0 4h10v2H48zm0 4h10v2H48zm0 4h10v2H48zM4 22h4v34H4z"/></g><path d="M41 28H15c-.55 0-1 .45-1 1v20c0 .55.45 1 1 1h26c.55 0 1-.45 1-1V29c0-.55-.45-1-1-1zm-1 12H22V30h18v10zM16 30h4v10h-4V30zm24 18H16v-6h24v6z" fill="#d38e2a"/><g fill="#1976d2"><path d="M22.18 18a2.94 2.94 0 0 1 .78-1.18l-.49-.82h19.06l-.49.82a2.94 2.94 0 0 1 .78 1.18H22.18z"/><path d="M42 22H22c0-3.15-.06-3.38.18-4h19.64c.24.63.18.88.18 4z"/></g><path d="M42,22v3c0,1.65-1.35,3-3,3h-14c-1.65,0-3-1.35-3-3v-3h20Z" fill="#f3f3f3"/><rect x="24" y="18" width="16" height="8" rx="1" fill="#fff"/><path d="M41 13l-3 5H26l-3-5 8-13c0 9.16.15 8.03-.41 8.59C29.32 9.86 30.24 12 32 12s2.68-2.14 1.41-3.41C32.85 8.03 33 9.17 33 0l8 13z" fill="#d38e2a"/><path d="M21 49l-3.73 2.46 2.23.14 1.23 1.86L21 49z" fill="#5e9fdf"/></svg>