<svg xmlns="http://www.w3.org/2000/svg" viewBox="0 0 64 64" xmlns:v="https://vecta.io/nano"><g fill="#5e9fdf"><path d="M2 0h52c1.1 0 2 .9 2 2v4H0V2C0 .9.9 0 2 0z"/><path d="M13 0h19a4 4 0 0 1 4 4v2H13V0h0z"/></g><path d="M56 6v42c0 1.1-.9 2-2 2H2c-1.1 0-2-.9-2-2V2C0 .9.9 0 2 0h12a4 4 0 0 1 4 4v2h38z" fill="#f3f3f3"/><path d="M53 3c0-1.32-2-1.32-2 0s2 1.32 2 0zm-4 0c0-1.32-2-1.32-2 0s2 1.32 2 0z" fill="#1976d2"/><path d="M45,3c0-1.32-2-1.32-2,0s2,1.32,2,0Z" fill="#f3f3f3"/><path d="M33,3c0-1.32-2-1.32-2,0s2,1.32,2,0Z" fill="#1976d2"/><path d="M15,3c0-1.32-2-1.32-2,0s2,1.32,2,0Z" fill="#d38e2a"/><g fill="#d9d9d9"><path d="M9 11h14v2H9zm0 4h10v2H9zm2 8h9v2h-9zm0 10h9v2h-9zM9 19h18v2H9zm17-8h16v2H26zm9 4h16v2H35zm-13 8h27v2H22zm7-4h16v2H29zM9 37h18v2H9zm20 0h16v2H29zm-8-22h12v2H21zM9 27h10v2H9zm26 0h16v2H35zm-14 0h12v2H21z"/><path d="M17.74 49.04l.21-.49c-.4-.56-.61-1.22-.61-1.91 0-1.6.94-2.3 1.99-3.35 1.03-1.02 2.53-1.19 3.67-.65V39h4v-2h-4c0-5.6-.47-3.75 2.07-8h5.86l1.82 3.04c.36.66.25.97.25 4.96h-4v2h4v3.64c.42-.2.88-.3 1.36-.3 1.59 0 2.3.94 3.35 1.99 1.12 1.12 1.27 2.91.34 4.22l.21.49a3.26 3.26 0 0 1 1.82.96H15.92a3.26 3.26 0 0 1 1.82-.96z"/></g><path d="M23 37h4v2h-4z" fill="#c8c8c8"/><path d="M29.73 27c-3.62 0-3.51.07-3.44-.03.71-1.18 2.48-1.42 3.44.03z" fill="#d9d9d9"/><path d="M30.93 29h-5.86l1.2-2h3.46l1.2 2zM29 37h4v2h-4z" fill="#c8c8c8"/><path d="M39 53.73v-1.46A1.27 1.27 0 0 0 37.73 51c-.2 0-.94-.08-1.19-.83-.14-.41-.3-.81-.49-1.19-.24-.48-.13-1.06.25-1.43.1-.1.81-1 0-1.8l-1.03-1.03c-.5-.5-1.3-.5-1.8 0-.15.15-.73.61-1.44.25-.38-.19-.78-.36-1.19-.49-.51-.17-.83-.66-.83-1.19 0-.15-.14-1.27-1.27-1.27h-1.46a1.27 1.27 0 0 0-1.27 1.27c0 .2-.08.94-.83 1.19-.41.14-.81.3-1.19.49-.48.24-1.06.13-1.43-.25-.1-.1-1-.81-1.8 0l-1.03 1.03c-.5.5-.5 1.3 0 1.8.15.15.61.73.25 1.44-.19.38-.36.78-.49 1.19-.17.51-.66.83-1.19.83-.15 0-1.27.14-1.27 1.27v1.46a1.27 1.27 0 0 0 1.27 1.27c.2 0 .94.08 1.19.83.14.41.3.81.49 1.19.24.48.13 1.06-.25 1.43-.1.1-.81 1 0 1.8l1.03 1.03c.5.5 1.3.5 1.8 0 .15-.15.73-.61 1.44-.25.38.19.78.36 1.19.49.51.17.83.66.83 1.19 0 .15.14 1.27 1.27 1.27h1.46a1.27 1.27 0 0 0 1.27-1.27c0-.2.08-.94.83-1.19.41-.14.81-.3 1.19-.49.48-.24 1.06-.13 1.43.25.1.1 1 .81 1.8 0l1.03-1.03c.5-.5.5-1.3 0-1.8-.15-.15-.61-.73-.25-1.44.19-.38.36-.78.49-1.19.17-.51.66-.83 1.19-.83.15 0 1.27-.14 1.27-1.27zM28 58c-2.76 0-5-2.24-5-5s2.24-5 5-5 5 2.24 5 5-2.24 5-5 5z" fill="#d38e2a"/><g fill="#1976d2"><path d="M30 44.23V42h-4v2.23c-.34.08-.68.18-1 .3V49a5.01 5.01 0 0 1 6 0v-4.47c-.32-.12-.66-.22-1-.3z"/><path d="M31 33v24a5.01 5.01 0 0 1-6 0V33h6z"/><path d="M28 56a3.01 3.01 0 0 1-3-3v4a5.01 5.01 0 0 0 6 0v-4a3.01 3.01 0 0 1-3 3z"/></g><path d="M31 33h-6l3-5 3 5z" fill="#d38e2a"/><path d="M29.2 30h-2.4l1.2-2 1.2 2z" fill="#1976d2"/><path d="M3 11h2v36H3zm53-2v18h-8a3.98 3.98 0 0 1-3.46-2H49v-2h-5v-2h1v-2h-1v-2h7v-2h-7v-2a4 4 0 0 1 4-4h8z" fill="#d9d9d9"/><path d="M44 19h1v2h-1zm0 4h5v2h-4.46a3.99 3.99 0 0 1-.54-2zm0-8h7v2h-7z" fill="#c8c8c8"/><rect x="46" y="11" width="18" height="14" rx="2" fill="#1976d2"/><path d="M51 21c-.54 0-.57-.15-2.71-2.29-.39-.39-.39-1.02 0-1.41l2-2c.94-.94 2.35.48 1.41 1.41L50.41 18l1.29 1.29a1.01 1.01 0 0 1-.71 1.71zm8 0c-.88 0-1.34-1.07-.71-1.71L59.58 18l-1.29-1.29c-.94-.94.48-2.35 1.41-1.41l2 2c.39.39.39 1.02 0 1.41-2.18 2.18-2.17 2.29-2.71 2.29zm-5.97.76l2-8c.32-1.29 2.26-.8 1.94.49l-2 8c-.32 1.28-2.26.8-1.94-.49z" fill="#f3f3f3"/></svg>