<svg xmlns="http://www.w3.org/2000/svg" viewBox="0 0 64 64" xmlns:v="https://vecta.io/nano"><g fill="#5e9fdf"><rect x="6" y="4" width="58" height="45" rx="2"/><path d="M51 58H17V4h19.53a4.01 4.01 0 0 1 3.58 2.21l.79 1.58A3.99 3.99 0 0 0 44.48 10h6.53v48z"/></g><path d="M64 10v48c0 1.1-.9 2-2 2H2c-1.1 0-2-.9-2-2V6c0-1.1.9-2 2-2h17.53a4.02 4.02 0 0 1 3.58 2.21l.78 1.58A4.02 4.02 0 0 0 27.47 10H64z" fill="#f3f3f3"/><g fill="#1976d2"><circle cx="60" cy="7" r="1"/><circle cx="56" cy="7" r="1"/><circle cx="52" cy="7" r="1"/></g><circle cx="20" cy="7" r="1" fill="#5e9fdf"/><path d="M60 36H4c-.55 0-1-.45-1-1 0-.29.22-1 1-1h56c.55 0 1 .45 1 1 0 .29-.22 1-1 1z" fill="#d38e2a"/><g fill="#5e9fdf"><path d="M13 36h2v14h-2zm36 0h2v14h-2zM31 20h2v14h-2z"/><circle cx="14" cy="35" r="3"/><circle cx="14" cy="51" r="5"/><circle cx="50" cy="35" r="3"/><circle cx="50" cy="51" r="5"/><circle cx="32" cy="35" r="3"/><circle cx="32" cy="19" r="5"/></g><path d="M21 53h10v2H21zm36 0h4v2h-4zm0-4h4v2h-4zm-36 0h14v2H21zm18-29h10v2H39zm0-4h14v2H39z" fill="#d9d9d9"/><path d="M3 12h14v4H3z" fill="#5e9fdf"/><path d="M3 18h18v2H3z" fill="#d9d9d9"/></svg>