<svg xmlns="http://www.w3.org/2000/svg" viewBox="0 0 64 64" xmlns:v="https://vecta.io/nano"><path d="M52 6v52c0 3.31-2.69 6-6 6H18c-3.31 0-6-2.69-6-6V6c0-3.31 2.69-6 6-6 30.32 0 28.68-.17 30.14.4 2.2.82 3.86 3 3.86 5.6z" fill="#1976d2"/><path d="M50 6v50a4 4 0 0 1-4 4H18a4 4 0 0 1-4-4V6a4 4 0 0 1 4-4h5.28c.43 0 .81.28.95.68.27.83.56 2.32 2.21 2.32h11.12a2.01 2.01 0 0 0 1.9-1.37l.31-.95c.14-.4.52-.68.95-.68l5.77.04C48.32 2.21 50 3.85 50 6z" fill="#fff"/><path d="M45,58H23c-1.34,0-1.29-2,0-2h22c1.34,0,1.29,2,0,2Z" fill="#d9d9d9"/><g fill="#d38e2a"><circle cx="32" cy="45" r="4"/><path d="M23.92 35.82c-.97.77-.99 2.25-.06 3.06s1.99.52 2.52.09c3.29-2.64 8.05-2.65 11.36.1 1.38 1.15 2.83-.32 2.51-.05.95-.8.95-2.28 0-3.07a12.99 12.99 0 0 0-16.32-.13zm-6.22-5.2c-.85.8-.8 2.17.08 2.94 1.04.91 2.23.37 2.7-.06 6.58-6.07 16.75-5.98 23.23.19.75.72 1.91.78 2.7.11h0c.89-.76.97-2.14.13-2.95-8.03-7.71-20.69-7.82-28.84-.23zm-6.04-5.29a2.01 2.01 0 0 0 .08 2.95c.52.45 1.75.87 2.72-.09 9.85-9.72 25.74-9.53 35.37.29.73.75 1.91.81 2.71.13.69-.59 1.13-1.93.17-2.91-11.09-11.3-29.4-11.78-41.05-.37z"/></g></svg>