<svg xmlns="http://www.w3.org/2000/svg" viewBox="0 0 64 64" xmlns:v="https://vecta.io/nano"><rect x="2" y="6" width="60" height="48" rx="4" fill="#5e9fdf"/><rect x="5" y="9" width="54" height="40" rx="1" fill="#fff"/><path d="M44,64H20c2.75-2.75,4-6.21,4-10h16c0,4.08,1.44,7.44,4,10Z" fill="#1976d2"/><path d="M45 64H19c-.55 0-1-.45-1-1 0-.29.22-1 1-1h26c.55 0 1 .45 1 1 0 .29-.22 1-1 1z" fill="#5e9fdf"/><path d="M48.59 9H15.41c.45-1.06 1-2.06 1.64-3h29.9c.64.94 1.19 1.94 1.64 3z" fill="#1976d2"/><path d="M32 34C19.11 34 10.42 20.78 15.41 9h33.18C53.57 20.77 44.9 34 32 34z" fill="#f3f3f3"/><circle cx="32" cy="16" r="16" fill="#d38e2a"/><g fill="#fff"><circle cx="32" cy="22" r="2"/><path d="M36.24 19.76c-.26 0-.51-.1-.71-.3-1.93-1.95-5.12-1.96-7.06 0-.39.39-1.02.39-1.41 0s-.4-1.02 0-1.41a6.99 6.99 0 0 1 9.9 0c.63.63.17 1.7-.71 1.7zm2.83-2.83c-.26 0-.51-.1-.71-.29-3.52-3.52-9.21-3.52-12.73 0-.39.39-1.02.39-1.41 0s-.39-1.02 0-1.41c4.3-4.3 11.25-4.3 15.55 0a1.01 1.01 0 0 1-.71 1.71zm2.83-2.83c-.26 0-.51-.1-.71-.29a13 13 0 0 0-18.39 0c-.39.39-1.02.39-1.41 0s-.39-1.02 0-1.41c5.88-5.86 15.33-5.86 21.21 0 .63.63.18 1.71-.71 1.71z"/></g><path d="M48,44H16c-1.66,0-3-1.34-3-3s1.34-3,3-3H48c1.66,0,3,1.34,3,3s-1.34,3-3,3Z" fill="#f3f3f3"/><path d="M39 42H16c-.55 0-1-.45-1-1 0-.29.22-1 1-1h23v2z" fill="#d9d9d9"/></svg>