<svg xmlns="http://www.w3.org/2000/svg" viewBox="0 0 64 64" xmlns:v="https://vecta.io/nano"><circle cx="32" cy="32" r="23" fill="#d38e2a"/><circle cx="32" cy="32" r="21" fill="#f3f3f3"/><rect x="16" y="5" width="32" height="54" rx="6" fill="#5e9fdf"/><path d="M46 11v42c0 1.66-1.34 3-3 3H21c-1.66 0-3-1.34-3-3V11a4 4 0 0 1 4-4h3c.45.91.83 2 2.24 2h9.53c1.37 0 1.76-1.06 2.24-2h3a4 4 0 0 1 4 4z" fill="#f3f3f3"/><path d="M58.12 35.12c-.88 0-1.34-1.07-.71-1.71.78-.78.78-2.04 0-2.83-.94-.94.48-2.35 1.41-1.41 2.31 2.31.69 5.95-.71 5.95z" fill="#5e9fdf"/><path d="M60.24 36.24c2.34-2.34 2.34-6.14 0-8.49-.94-.94.48-2.35 1.41-1.41 3.13 3.13 3.13 8.19 0 11.31-.93.93-2.35-.48-1.41-1.41z" fill="#1976d2"/><path d="M5.88 35.12c.88 0 1.34-1.07.71-1.71-.78-.78-.78-2.04 0-2.83.94-.94-.48-2.35-1.41-1.41-2.31 2.31-.69 5.95.71 5.95z" fill="#5e9fdf"/><path d="M3.76 36.24c-2.34-2.34-2.34-6.14 0-8.49.94-.94-.48-2.35-1.41-1.41-3.13 3.13-3.13 8.19 0 11.31.93.93 2.35-.48 1.41-1.41z" fill="#1976d2"/><path d="M41,54H23c-1.34,0-1.29-2,0-2h18c1.34,0,1.29,2,0,2Z" fill="#d9d9d9"/><path d="M28 21h8l-2 8h4l-9 14 1-11h-4l2-11z" fill="#d38e2a"/></svg>