<svg xmlns="http://www.w3.org/2000/svg" xmlns:xlink="http://www.w3.org/1999/xlink" viewBox="0 0 64 64" xmlns:v="https://vecta.io/nano"><path d="M44 18L32 31 20 18h6L23 0h18l-3 18h6zm-30 5v-4c0-1.32 2-1.32 2 0v4c0 1.32-2 1.32-2 0zm-5 7H5c-1.32 0-1.32-2 0-2h4c1.32 0 1.32 2 0 2zm2-4c-.55 0-.43-.02-3.71-3.29-.94-.94.48-2.35 1.41-1.41l3 3a1.01 1.01 0 0 1-.71 1.71zm37-3v-4c0-1.32 2-1.32 2 0v4c0 1.32-2 1.32-2 0zm11 7h-4c-1.32 0-1.32-2 0-2h4c1.32 0 1.32 2 0 2zm-6-4c-.88 0-1.34-1.07-.71-1.71l3-3c.94-.94 2.35.48 1.41 1.41-3.11 3.11-3.13 3.29-3.71 3.29z" fill="#d38e2a"/><rect x="7" y="34" width="50" height="4" rx="1" fill="#1976d2"/><path d="M50.22 64H13.78a2 2 0 0 1-1.99-1.77L8.99 38H55l-2.8 24.23A2 2 0 0 1 50.21 64z" fill="#5e9fdf"/><g fill="#1976d2"><use xlink:href="#B"/><use xlink:href="#B" x="7"/><use xlink:href="#B" x="14"/><use xlink:href="#B" x="21"/><use xlink:href="#B" x="28"/><rect x="41.38" y="30.12" width="4.24" height="36.77" rx="2.12" transform="matrix(.707107 -.707107 .707107 .707107 -21.55 44.96)"/><path d="M33,37c0-1.32-2-1.32-2,0s2,1.32,2,0Z"/></g><defs ><path id="B" d="M18 60c-.81 0-2-.63-2-2V44c0-1.1.9-2 2-2 .81 0 2 .63 2 2v14c0 1.1-.9 2-2 2z"/></defs></svg>