<svg xmlns="http://www.w3.org/2000/svg" xmlns:xlink="http://www.w3.org/1999/xlink" viewBox="0 0 64 64" xmlns:v="https://vecta.io/nano"><path d="M31 53h2v5h-2z" fill="#d9d9d9"/><rect x="27" y="58" width="10" height="6" rx="2" fill="#d38e2a"/><path d="M8 60h19v2H8z" fill="#d9d9d9"/><circle cx="8" cy="61" r="3" fill="#d38e2a"/><path d="M56 62H37v-2h19z" fill="#d9d9d9"/><circle cx="56" cy="61" r="3" fill="#d38e2a"/><path d="M48,43c0,1.09-.78,2.12-2.14,3-2.76,1.79-7.94,3-13.86,3s-11.1-1.21-13.86-3c-1.36-.88-2.14-1.91-2.14-3,0-3.31,7.16-6,16-6s16,2.69,16,6Z" fill="#5e9fdf"/><use xlink:href="#B" fill="#1976d2"/><path d="M48,33c0,1.09-.78,2.12-2.14,3-2.76,1.79-7.94,3-13.86,3s-11.1-1.21-13.86-3c-1.36-.88-2.14-1.91-2.14-3,0-3.31,7.16-6,16-6s16,2.69,16,6Z" fill="#5e9fdf"/><use xlink:href="#B" y="-10" fill="#1976d2"/><path d="M48,23c0,1.09-.78,2.12-2.14,3-2.76,1.79-7.94,3-13.86,3s-11.1-1.21-13.86-3c-1.36-.88-2.14-1.91-2.14-3,0-3.31,7.16-6,16-6s16,2.69,16,6Z" fill="#5e9fdf"/><path d="M43 6.29v5.31c0 6.73-4.51 12.63-11 14.4h0c-6.49-1.77-11-7.67-11-14.4V6.29c0-.78.46-1.5 1.17-1.82l9-4.09c.53-.24 1.13-.24 1.66 0l9 4.09c.71.32 1.17 1.04 1.17 1.82z" fill="#d38e2a"/><path d="M32 2l9 4v5.51c0 5.67-3.63 10.7-9 12.49h0c-5.37-1.79-9-6.82-9-12.49V6l9-4z" fill="#e4c290"/><path d="M31 16c-.26 0-.51-.1-.71-.29l-3-3c-.39-.39-.39-1.02 0-1.41s1.02-.39 1.41 0l2.29 2.29 4.29-4.29c.39-.39 1.02-.39 1.41 0s.39 1.02 0 1.41l-5 5a.98.98 0 0 1-.71.29z" fill="#f3f3f3"/><use xlink:href="#B" y="-20" fill="#1976d2"/><defs ><path id="B" d="M48 43v6c0 3.31-7.16 6-16 6s-16-2.69-16-6v-6c0 1.09.78 2.12 2.14 3 2.76 1.79 7.94 3 13.86 3s11.1-1.21 13.86-3c1.36-.88 2.14-1.91 2.14-3z"/></defs></svg>