<svg xmlns="http://www.w3.org/2000/svg" viewBox="0 0 64 64" xmlns:v="https://vecta.io/nano"><g fill="#5e9fdf"><circle cx="32" cy="32" r="28"/><path d="M56.24 46H50a4 4 0 0 1-4-4c0-1.1-.45-2.1-1.17-2.83-2.05-2.02-3.61-.32-5.66-2.34C37.7 35.34 38 34.06 38 30a4 4 0 0 1 4-4h.72c1.91 0 3.55-1.35 3.92-3.22.78-3.82 4.11-6.78 8.33-6.78 5.89 8.25 6.98 20.11 1.27 30zM27.07 14.25c-2.17 2.53-2.57 6.48.17 9.7C31.32 28.67 27.89 36 21.7 36a1.7 1.7 0 0 0-1.7 1.7v4.13c0 4.58-6.39 5.78-8.05 1.55C11.33 41.85 9.89 41 8.44 41H5.49C-.33 23.98 11.33 6.05 29 4.16c0 5.49.43 7.32-1.93 10.09z"/><path d="M54.97 16c-1.76 0-3.38.51-4.77 1.44-.5-1.98.01-4.11 1.07-5.75 1.38 1.31 2.62 2.75 3.7 4.31z"/></g><path d="M59.83 28.88C59.37 29.53 58.9 30 58 30a2.01 2.01 0 0 1-1.65-.86c-.94-1.36-5.19-7.67-6.15-11.7A8.46 8.46 0 0 1 54.97 16c2.62 3.67 4.31 8.3 4.86 12.88z" fill="#1976d2"/><path d="M43 57.2v.55c-6.71 2.88-14.63 3.1-21.85.07l3.3-3.96c1.79-2.15 2.38-4.35 2.31-4.15 1.7-5.1 8.91-4.84 10.36.23.55 1.93 1.96 3.5 3.84 4.25A3.25 3.25 0 0 1 43 57.2z" fill="#5e9fdf"/><path d="M64 16c0-3.31-2.69-6-6-6s-6 2.69-6 6 6 12 6 12 6-8.69 6-12z" fill="#d38e2a"/><circle cx="58" cy="16" r="3" fill="#fdfdfd"/><path d="M20.99 6.26c-.23 3.84-5.3 11.37-6.34 12.88a2.01 2.01 0 0 1-3.3 0 72.78 72.78 0 0 1-2.17-3.34 27.87 27.87 0 0 1 11.81-9.54z" fill="#1976d2"/><path d="M59,13.18c-2.03-.72-4,.81-4,2.82s1.96,3.54,4,2.82c-2.66-.95-2.66-4.69,0-5.63Z" fill="#f3f3f3"/><path d="M19 6c0-3.31-2.69-6-6-6S7 2.69 7 6s6 12 6 12 6-8.69 6-12z" fill="#d38e2a"/><circle cx="13" cy="6" r="3" fill="#fdfdfd"/><path d="M14,3.18c-2.03-.72-4,.81-4,2.82s1.96,3.54,4,2.82c-2.66-.95-2.66-4.69,0-5.63Z" fill="#f3f3f3"/><circle cx="11" cy="53" r="11" fill="#d38e2a"/><path d="M25 53c0 .25.31-.18-3.85 4.82C13.81 54.73 8.06 48.6 5.49 41c2.79 0 3.81-.2 5.07.65 1.65 1.09 1.11 2.39 2.92 3.63 2.61 1.76 6.17.11 6.5-3.01C23.05 44.83 25 48.69 25 53z" fill="#5e9fdf"/><path d="M19.98 42.26c0 1.63-1.73 3.74-4.15 3.74-1.75 0-3.28-1.09-3.88-2.62C11.33 41.85 9.89 41 8.44 41H5.49l-.24-.76c4.64-2.12 10.43-1.57 14.73 2.02z" fill="#1976d2"/><circle cx="11" cy="53" r="11" fill="#d38e2a"/><path d="M25 53.15a13.82 13.82 0 0 1-1.24 5.61c-.89-.27-1.76-.58-2.61-.94L25 53.15z" fill="#1976d2"/><path d="M5.49 41l-.24-.76.24.76z" fill="#d38e2a"/><path d="M15.54 50l-1.7-2.55c-.73-1.1-2.4 0-1.66 1.11l.96 1.45H8.88l.96-1.45c.74-1.1-.93-2.21-1.66-1.11L6.48 50H5.02c-.6 0-1.07.53-.99 1.12l.78 6.25C5 58.87 6.27 60 7.79 60h6.47a3.01 3.01 0 0 0 2.98-2.63c.98-7.85 1.47-7.37-1.68-7.37z" fill="#fdfdfd"/></svg>