<?xml version="1.0" encoding="UTF-8"?><svg id="a" xmlns="http://www.w3.org/2000/svg" viewBox="0 0 64.01 58.26"><defs><style>.b{fill:#5e9fdf;}.c{fill:#e4c290;}.d{fill:#d38e2a;}.e{fill:#f3f3f3;}.f{fill:#d9d9d9;}.g{fill:#1976d2;}</style></defs><path class="g" d="M15,6.02c-.55,0-1-.45-1-1v-1c0-.55-.45-1-1-1h-4c-.55,0-1,.45-1,1v1c0,.55-.45,1-1,1s-1-.45-1-1v-1c0-1.65,1.35-3,3-3h4c1.65,0,3,1.35,3,3v1c0,.55-.45,1-1,1Z"/><path class="b" d="M64,29.02c0,15.94-12.92,29-29,29-8.78,0-17.12-3.96-22.67-10.91C-2.79,28.48,10.6,.02,35,.02,51.04,.02,64,13.01,64,29.02Z"/><path class="g" d="M60.39,43.02h-8.69c-.91,0-.93-.18-5.15-3.56-.66-.53-1.17-.44-2.55-.44-2.21,0-4-1.79-4-4v-2c0-2.21,1.79-4,4-4,1.09,0,2-.89,2-2v-4c0-1.07,.88-2,2-2h3c1.1,0,2-.9,2-2s.9-2,2-2h6.41c3.68,8.04,3.52,17.84-1.02,26Z"/><path class="e" d="M64.01,5.25c0,2.75-1.62,3.8-4.81,6.99L14.71,56.73c-2.04,2.04-5.38,2.04-7.42,0-2.04-2.05-2.04-5.37,0-7.42l3.83-3.83,1.21,1.63-3.62,3.62c-1.26,1.26-1.27,3.3-.01,4.57h.01c1.22,1.24,3.36,1.24,4.58,.01C65.49,3.11,62.01,7.17,62.01,5.25c0-1.79-1.45-3.24-3.24-3.24h0c-1.79,0-2.3,.96-5.68,4.34-.53-.42-1.07-.83-1.63-1.21l3.6-3.6c3.3-3.28,8.95-.96,8.95,3.71Z"/><path class="g" d="M35,.02V4.82c0,2.02-.92,3.94-2.5,5.2-1.66,1.32-2.5,3.28-2.5,5.2v6.56c0,1.37-.77,2.63-2,3.24-1.13,.55-2,1.8-2,3.24l-.07,6c-.66,3.02-4.93,2.94-4.93,.78,0-1.2-1.39-1.9-2.36-1.13l-.61,.49c-1.28,1.02-2.03,2.58-2.03,4.22,0,2.76-2.04,5.4-5.83,5.4C-1.53,24.69,12.56,.02,35,.02Zm9,51v5.57c-5.85,1.91-12.15,1.91-18,0v-.57c0-2.76,2.24-5,5-5,0-3.33,2.72-6,6-6h1c3.27,0,6,2.66,6,6Z"/><path class="b" d="M46.4,21.83c-1.73,2.28,5.8-5.42-23.34,23.71-.39-.49-.81-1.76-.57-3.04l-3.17-1.59,2.33-4.67c.58,.43,2.01,.6,3.13-.22h2.13l.84-1.08-1.82-.68c.05-.21,.07-.42,.07-.64,0-5.29-.29-6.4,.91-7.75l10.3-.8,3.34-2.78c1.65-1.38,4.03-1.57,5.85-.46Zm-1.93,17.19l-.55,7.12-1.4,.94c-1.77-2.03-3.77-2.06-5.52-2.06-.29,0-.58,.02-.86,.07l-1.06-2.82-1.08,.84v2.72c-1.34,.75-2.45,2.11-2.85,3.85l-2.04,1.02-1.59-3.16c-1.17,.23-2.51-.15-3.04-.58l16.29-16.29c-.93,1.25-.77,2.28-.77,4.35,0,2.21,1.79,4,4,4h.47Z"/><path class="d" d="M46,25.44c0,1.65,.12,2.3-.59,2.99-1.02,1.05-2.1,.13-3.76,1.36l4.35-4.35Z"/><path class="f" d="M46.07,22.54c-.11,.36-.07,.67-.07,2.9l-21.52,21.52c-.58-.34-1.08-.84-1.42-1.42l23.01-23Z"/><g><path class="g" d="M24.78,36.02c-1.07,.78-2.51,.68-3.13,.22,.16-.31-.31-.22,3.13-.22Zm-.9-9.92l3.03-.23c-.59,.66-.91,1.51-.91,2.39l-.07,6-5.99-2.25,3.94-5.91Zm10.12,19.73v2.43l-2.85,1.42c.4-1.73,1.51-3.09,2.85-3.85Zm8.52,1.25l-4.51,3-1.87-4.99c.47-.08,.76-.07,1.86-.07,1.8,0,3.42,.8,4.52,2.06Zm5.21-17.61l-2.78,3.34-.48,6.21h-.47c-2.21,0-4-1.79-4-4,0-2-.17-3.08,.77-4.35,.77-.77,1.48-1.65,3.23-1.65,1.09,0,2-.89,2-2v-1.58l2.05-2.05c1.24,1.84,1.15,4.31-.32,6.08Z"/><path class="g" d="M41.65,29.79l-.88,.88c.24-.34,.54-.64,.88-.88Z"/></g><path class="f" d="M48.05,23.39l-2.05,2.05c0-2.33-.13-2.91,.4-3.61,.45,.22,1.21,.87,1.65,1.56Z"/><path class="d" d="M46,24.02c-1.13-1.13-2.94-1.21-4.17-.19l-3.83,3.19-13,1-2,3,8,3-3.11,4h-4.89l-1,2,3.12,1.56-.22,.29c-1.67,2.14,1.11,4.92,3.26,3.26l.29-.22,1.56,3.12,2-1v-4.89l4-3.11,3,8,3-2,1-13,3.19-3.83c1.03-1.23,.94-3.04-.19-4.17h-.01Z"/><path class="c" d="M44,29.02c-.55,0-1-.45-1-1s-.45-1-1-1c-1.32,0-1.32-2,0-2,2.97,0,3.92,4,2,4Z"/><path class="g" d="M24,6.02v6.17c0,.87-.38,1.67-1,2.22v5.61c0,2.21-1.79,4-4,4H6.44C8.02,14.88,13.88,7.22,21.88,3.16c.24,0,2.12,.82,2.12,2.86Z"/><path class="b" d="M1,10.02H21v10c0,1.1-.9,2-2,2H3c-1.1,0-2-.9-2-2V10.02h0Z"/><path class="d" d="M21.18,13.17l-10.18,1.85L.82,13.17c-.48-.09-.82-.5-.82-.98V6.02c0-.55,.45-1,1-1H21c.55,0,1,.45,1,1v6.17c0,.48-.35,.89-.82,.98Z"/><path class="e" d="M10,16.02v-2c0-1.34,2-1.29,2,0v2c0,1.34-2,1.29-2,0Z"/></svg>