<svg xmlns="http://www.w3.org/2000/svg" viewBox="0 0 64 64" xmlns:v="https://vecta.io/nano"><path d="M46,22c-1.66,0-3-1.34-3-3V11c0-6.07,4.93-11,11-11h6c1.66,0,3,1.34,3,3s-1.34,3-3,3h-6c-2.76,0-5,2.24-5,5v8c0,1.66-1.34,3-3,3Z" fill="#d38e2a"/><g fill="#5e9fdf"><path d="M8 10h54c1.1 0 2 .9 2 2v4H6v-4c0-1.1.9-2 2-2z"/><path d="M51 53H17V10h19.53c1.52 0 2.9.8 3.58 2.07l.79 1.47c.68 1.27 2.06 2.07 3.58 2.07h6.53V53z"/></g><path d="M61 29c0 .77.29 1.47.77 2-.48.53-.77 1.23-.77 2 0 1.66 1.34 3 3 3v21a1.94 1.94 0 0 1-.51 1.32A1.96 1.96 0 0 1 62 59h-9a4 4 0 1 0-8 0H2a1.96 1.96 0 0 1-1.49-.68A1.94 1.94 0 0 1 0 57V35c2.76 0 5-2.24 5-5s-2.24-5-5-5V12c0-1.1.9-2 2-2h17.53a4.02 4.02 0 0 1 3.58 2.21l.78 1.58A4.02 4.02 0 0 0 27.47 16H64v10c-1.66 0-3 1.34-3 3z" fill="#f3f3f3"/><g fill="#1976d2"><circle cx="60" cy="13" r="1"/><circle cx="56" cy="13" r="1"/><circle cx="52" cy="13" r="1"/></g><circle cx="20" cy="13" r="1" fill="#5e9fdf"/><ellipse cx="27.5" cy="41" rx="3.5" ry="6" fill="#d9d9d9"/><path d="M10,64c-1.66,0-3-1.34-3-3v-12c0-6.07,4.93-11,11-11h8c1.66,0,3,1.34,3,3s-1.34,3-3,3h-8c-2.76,0-5,2.24-5,5v12c0,1.66-1.34,3-3,3Z" fill="#d38e2a"/><g fill="#d9d9d9"><path d="M12 23h27v2H12zm0 6h27v2H12zm23 7h24v2H35zm0 6h24v2H35zm0 6h16v2H35z"/><rect x="44" y="23" width="12" height="8" rx="1"/></g><circle cx="58" cy="2" r="1" fill="#e4c290"/></svg>