<svg xmlns="http://www.w3.org/2000/svg" viewBox="0 0 64 64" xmlns:v="https://vecta.io/nano"><path d="M54,4l-4,28v28H10V8c0-2.19,1.78-4,4-4H54Z" fill="#f3f3f3"/><g fill="#d9d9d9"><path d="M61 32H50V8a4 4 0 1 1 8 0v12m-45 9h34v2H13zm0 4h34v2H13zm0 4h34v2H13zm0 4h34v2H13zm0 4h34v2H13zm0 4h34v2H13zm0 4h34v2H13z"/><path d="M50 40.18v11.64l-3 3V53h-8.31c.36-1.46.39-1.66.58-2H47v-2h-5.82l2-2H47v-2h-1.82L50 40.18z"/></g><path d="M47 45v2h-3.82l2-2H47zm-5.82 4H47v2h-7.73c.18-.31.1-.19 1.91-2z" fill="#c8c8c8"/><path d="M46.82 55c-1.48 1.48-1.65 1.77-2.34 1.94L40 58c-1.25 0-2.26-1.18-1.94-2.48l.13-.52h8.63z" fill="#d9d9d9"/><path d="M47 53c0 2.11.06 1.76-.18 2h-8.63l.5-2H47zm14-21c-1.66 0-3-1.34-3-3v-9h6v9c0 1.66-1.34 3-3 3z" fill="#c8c8c8"/><path d="M59.5 39.5L44 55l-4 1 1-4 15.5-15.5a2.12 2.12 0 1 1 3 3z" fill="#1976d2"/><path d="M22 8v16c0 .55-.45 1-1 1H10l.13-18H21c.55 0 1 .45 1 1z" fill="#d9d9d9"/><path d="M59.29 44.12C55.44 47.98 55.57 48 55 48c-.9 0-1.33-1.09-.71-1.71l3.59-3.58a1.01 1.01 0 0 0 0-1.42c-.14-.12.06.07-3.09-3.08l1.42-1.42 3 3c1.38 1.56 1.13 3.28.08 4.33z" fill="#d38e2a"/><g fill="#5e9fdf"><path d="M0 9h20v14H0z"/><path d="M0 9l10 8 10-8H0z"/></g><path d="M40.2 10.09c-5.86-.85-10.58 4.59-8.82 10.4 1.2 3.96 5.32 6.08 8.81 5.41 1.3-.24.93-2.21-.37-1.96-.2.04-.44.06-.72.06-5.57 0-7.83-6.21-4.65-9.91 3.83-4.46 11.22-1.28 10.51 4.64-.21 1.77-2.96 1.65-2.96-.22v-2.52c0-3.6-7-2.12-7 3a3.01 3.01 0 0 0 3 3c1.13 0 2.15.12 3.15-.92 2.1 1.91 5.46.65 5.79-2.11.53-4.32-2.54-8.28-6.75-8.89zM40 19c0 .55-.45 1-1 1h-1c-1.89 0-.99-4 2-4v3z" fill="#d38e2a"/></svg>