<?xml version="1.0" standalone="no"?>
<!DOCTYPE svg PUBLIC "-//W3C//DTD SVG 1.1//EN" "http://www.w3.org/Graphics/SVG/1.1/DTD/svg11.dtd" >
<svg xmlns="http://www.w3.org/2000/svg">
<metadata>Generated by IcoMoon</metadata>
<defs>
<font id="SL-ICONS-A-E" horiz-adv-x="1024">
<font-face units-per-em="1024" ascent="960" descent="-64" />
<missing-glyph horiz-adv-x="1024" />
<glyph unicode="&#x20;" horiz-adv-x="512" d="" />
<glyph unicode="&#xe900;" d="M192 960h448c53.019 0 96-42.981 96-96v-832c0-53.019-42.981-96-96-96h-448c-53.019 0-96 42.981-96 96v832c0 53.019 42.981 96 96 96z" />
<glyph unicode="&#xe901;" d="M704 864v-800c0-35.346-28.654-64-64-64v0h-448c-35.346 0-64 28.654-64 64v0 800c0 0.035 0 0.077 0 0.119 0 23.511 12.742 44.047 31.696 55.077l0.304 0.163c19.68 11.36 27.68 8.64 116.48 8.64 6.88 0 12.96-4.48 15.2-10.88 4.32-13.28 8.96-37.12 35.36-37.12h177.92c14.063 0.039 25.999 9.098 30.332 21.694l0.068 0.226 4.96 15.2c2.24 6.4 8.32 10.88 15.2 10.88h84.48c35.346 0 64-28.654 64-64v0z" />
<glyph unicode="&#xe902;" d="M736 618.4v-404.8c-10.4-2.4-21.12-4.16-32-4.96v414.56c11.787-0.783 22.725-2.49 33.321-5.072l-1.321 0.272z" />
<glyph unicode="&#xe903;" d="M704 623.2v-414.56c-116.64-10.56-224 83.68-224 207.36s114.24 220.48 224 207.2z" />
<glyph unicode="&#xe904;" d="M928 448c0-114.875-93.125-208-208-208s-208 93.125-208 208c0 114.875 93.125 208 208 208s208-93.125 208-208z" />
<glyph unicode="&#xe905;" d="M624 32h-416c-21.44 0-20.64 32 0 32h416c21.44 0 20.64-32 0-32z" />
<glyph unicode="&#xe906;" d="M640 352h-48c-21.12 0-21.12 32 0 32h48c17.6 0 32 14.4 32 32s-14.4 32-32 32h-48c-8.8 0-16 7.2-16 16v48c0 17.6 14.4 32 32 32h80c21.12 0 21.12-32 0-32h-80v-32h32c35.346 0 64-28.654 64-64s-28.654-64-64-64v0zM832 352h-32c-35.346 0-64 28.654-64 64v0 64c0 35.346 28.654 64 64 64v0h48c21.12 0 21.12-32 0-32h-48c-17.6 0-32-14.4-32-32v-64c0-17.6 14.4-32 32-32h32v48h-16c-21.12 0-21.12 32 0 32h32c8.8 0 16-7.2 16-16v-64c0-17.6-14.4-32-32-32z" />
<glyph unicode="&#xe907;" d="M460.96 367.040c-38.4 46.56-38.72 114.88 0 161.76 13.44 16.32 38.080-4 24.64-20.32-28.8-34.88-28.8-86.080 0-121.12 13.6-16.48-11.36-36.48-24.64-20.32z" />
<glyph unicode="&#xe908;" d="M415.84 321.28c-29.687 33.615-47.81 78.051-47.81 126.72s18.123 93.104 47.989 126.927l-0.179-0.207c14.080 15.84 37.92-5.28 24-21.12-53.12-60.32-53.12-151.040 0-211.2 14.080-16-10.24-36.8-24-21.12z" />
<glyph unicode="&#xe909;" d="M352 128h368v-192h-368z" />
<glyph unicode="&#xe90a;" d="M832 544v-288c0-88.32-71.68-160-160-160v336c0 52.96-43.040 96-96 96h-320c-128.16 0-192 155.52-101.76 245.76 48.32 48.64 100.96 42.24 149.76 42.24-21.28-35.52 4.48-80 45.28-80h290.72c106.88 0 192-86.88 192-192z" />
<glyph unicode="&#xe90b;" d="M832 544h-256c-44.16 0-80 35.84-80 80v112h144c106.88 0 192-86.88 192-192z" />
<glyph unicode="&#xe90c;" d="M576 960h320c26.51 0 48-21.49 48-48v-288c0-26.51-21.49-48-48-48h-320c-26.51 0-48 21.49-48 48v288c0 26.51 21.49 48 48 48z" />
<glyph unicode="&#xe90d;" d="M672 432v-448h-416c-26.56 0-48 21.44-48 48v128l-96 80 128 288h336c52.96 0 96-43.040 96-96z" />
<glyph unicode="&#xe90e;" d="M752 304c0-53.019-42.981-96-96-96s-96 42.981-96 96c0 53.019 42.981 96 96 96s96-42.981 96-96z" />
<glyph unicode="&#xe90f;" d="M352 368c-8.8 0-16 7.2-16 16 0 17.6-14.4 32-32 32s-32-14.4-32-32c0-8.8-7.2-16-16-16-33.6 0-12.96 80 48 80s81.6-80 48-80zM560-48h-208v32h240c0-17.6-14.4-32-32-32zM720 304c0-35.346-28.654-64-64-64v0 128c35.346 0 64-28.654 64-64v0zM240 32h-32v96h128c0-52.96-43.040-96-96-96zM896 784h-144v128c0 21.12-32 21.12-32 0v-128h-144c-21.44 0-20.64-32 0-32h144v-128c0-21.12 32-21.12 32 0v128h144c21.44 0 20.64 32 0 32z" />
<glyph unicode="&#xe910;" d="M608 832v64c0 21.12 32 21.12 32 0v-64c0-21.12-32-21.12-32 0z" />
<glyph unicode="&#xe911;" d="M656 848h-64c-21.12 0-21.12 32 0 32h64c21.12 0 21.12-32 0-32zM617.44 633.44c-14.080 0-21.44 17.12-11.36 27.36l45.28 45.28c15.040 15.040 37.6-7.68 22.56-22.56-49.12-49.12-47.68-49.92-56.64-49.92z" />
<glyph unicode="&#xe912;" d="M662.56 633.44c-8.8 0-7.36 0.8-56.64 49.92-15.040 15.040 7.68 37.6 22.56 22.56l45.28-45.28c2.793-2.9 4.513-6.851 4.513-11.203 0-8.824-7.072-15.996-15.858-16.157h-0.015zM864 848h-64c-21.12 0-21.12 32 0 32h64c21.12 0 21.12-32 0-32zM864 656h-64c-21.12 0-21.12 32 0 32h64c21.12 0 21.12-32 0-32zM848 720c0 21.12-32 21.12-32 0s32-21.12 32 0zM848 624c0 21.12-32 21.12-32 0s32-21.12 32 0z" />
<glyph unicode="&#xe913;" d="M320.96 528h-64.96c-98.4 0-166.88 96.48-137.12 187.84 121.76 72.64 265.76-59.52 202.080-187.84z" />
<glyph unicode="&#xe914;" d="M320.96 528c-21.76-43.68-65.28-74.88-116.16-79.36l35.2 79.36h80.96z" />
<glyph unicode="&#xe915;" d="M304 592c0-61.856-50.144-112-112-112s-112 50.144-112 112c0 61.856 50.144 112 112 112s112-50.144 112-112z" />
<glyph unicode="&#xe916;" d="M200 608h-16c-10.56 0-10.56 16 0 16h40c21.12 0 21.12 32 0 32h-16c0 21.12-32 21.6-32-0.8-18.408-3.836-32.040-19.926-32.040-39.2 0-22.091 17.909-40 40-40 0.014 0 0.028 0 0.042 0h15.998c10.56 0 10.56-16 0-16h-40c-21.12 0-21.12-32 0-32h16c0-21.12 32-21.6 32 0.8 18.408 3.836 32.040 19.926 32.040 39.2 0 22.091-17.909 40-40 40-0.014 0-0.028 0-0.042 0h0.002z" />
<glyph unicode="&#xe917;" d="M272 960h224v-32h-224zM368 896h128v-32h-128z" />
<glyph unicode="&#xe918;" d="M96 960h832c17.6 0 32-14.4 32-32v-64h-896v64c0 17.6 14.4 32 32 32z" />
<glyph unicode="&#xe919;" d="M272 960h304c35.346 0 64-28.654 64-64v0-32h-368v96z" />
<glyph unicode="&#xe91a;" d="M960 864v-672c0-17.6-14.4-32-32-32h-832c-17.6 0-32 14.4-32 32v736c0 17.6 14.4 32 32 32h192c35.346 0 64-28.654 64-64v0-32h608z" />
<glyph unicode="&#xe91b;" d="M912 912c0 21.12-32 21.12-32 0s32-21.12 32 0zM848 912c0 21.12-32 21.12-32 0s32-21.12 32 0z" />
<glyph unicode="&#xe91c;" d="M784 912c0 21.12-32 21.12-32 0s32-21.12 32 0z" />
<glyph unicode="&#xe91d;" d="M592 912c0 21.12-32 21.12-32 0s32-21.12 32 0z" />
<glyph unicode="&#xe91e;" d="M304 912c0 21.12-32 21.12-32 0s32-21.12 32 0zM128 752h608v-96h-608z" />
<glyph unicode="&#xe91f;" d="M128 560h576v-96h-576zM128 368h416v-96h-416z" />
<glyph unicode="&#xe920;" d="M784 736v-80h128v80l-32-32-32 32-32-32-32 32z" />
<glyph unicode="&#xe921;" d="M784 720c21.12 0 21.12 32 0 32zM864 736c0 21.12-32 21.12-32 0s32-21.12 32 0zM912 752c-21.12 0-21.12-32 0-32z" />
<glyph unicode="&#xe922;" d="M384 320v-32h-64c-0.048 0.001-0.104 0.001-0.161 0.001-8.748 0-15.84-7.092-15.84-15.84 0-0.057 0-0.113 0.001-0.169v0.009h240v48h-160z" />
<glyph unicode="&#xe923;" d="M652.16 282.56c-6.56 7.36-9.12 5.44-76.16 5.44v32h-32v-48h-240c0-1.76-2.080 13.28 10.24-73.12 2.43-15.571 10.073-29.030 21.056-38.824l0.064-0.056h289.28c22.56 20.16 20.64 35.52 31.2 109.76 0.64 4.64-0.64 9.28-3.68 12.8zM384 176h-6.4c-16.064 0.074-29.341 11.915-31.658 27.343l-0.022 0.177-7.52 52.48h45.6v-80zM614.080 203.52c-2.339-15.605-15.616-27.446-31.672-27.52h-6.408v80h45.6l-7.52-52.48z" />
<glyph unicode="&#xe924;" d="M684.16 282.56c-6.4 7.36-7.040 5.44-76.16 5.44v32h-192v-32h-64c-9.76 0-17.28-8.64-15.84-18.24l10.080-70.72c4.48-31.36 31.68-54.88 63.36-54.88h12c9.891-27.343 31.057-48.509 57.732-58.188l0.668-0.212v-53.6h-32c-8.8 0-16-7.2-16-16v-64c0-8.8 7.2-16 16-16h128c8.8 0 16 7.2 16 16v64c0 8.8-7.2 16-16 16h-32v53.6c27.343 9.891 48.509 31.057 58.188 57.732l0.212 0.668h12c31.68 0 58.88 23.68 63.36 54.88 11.040 76.8 12.8 76.16 6.4 83.52zM409.76 176c-16.064 0.074-29.341 11.915-31.658 27.343l-0.022 0.177-7.52 52.48h45.6v-80h-6.4zM646.24 203.52c-2.339-15.605-15.616-27.446-31.672-27.52h-6.408v80h45.6l-7.52-52.48z" />
<glyph unicode="&#xe925;" d="M96 848h832c17.6 0 32-14.4 32-32v-64h-896v64c0 17.6 14.4 32 32 32z" />
<glyph unicode="&#xe926;" d="M272 848h304c35.346 0 64-28.654 64-64v0-32h-368v96z" />
<glyph unicode="&#xe927;" d="M960 752v-672c0-17.6-14.4-32-32-32h-832c-17.6 0-32 14.4-32 32v736c0 17.6 14.4 32 32 32h192c35.346 0 64-28.654 64-64v0-32h608z" />
<glyph unicode="&#xe928;" d="M912 800c0 21.12-32 21.12-32 0s32-21.12 32 0zM848 800c0 21.12-32 21.12-32 0s32-21.12 32 0z" />
<glyph unicode="&#xe929;" d="M784 800c0 21.12-32 21.12-32 0s32-21.12 32 0z" />
<glyph unicode="&#xe92a;" d="M592 800c0 21.12-32 21.12-32 0s32-21.12 32 0z" />
<glyph unicode="&#xe92b;" d="M224 640h576c26.51 0 48-21.49 48-48v-288c0-26.51-21.49-48-48-48h-576c-26.51 0-48 21.49-48 48v288c0 26.51 21.49 48 48 48z" />
<glyph unicode="&#xe92c;" d="M304 800c0 21.12-32 21.12-32 0s32-21.12 32 0zM1024 0l-48-48-48 48-32-48-48 176 176-48-48-32 48-48z" />
<glyph unicode="&#xe92d;" d="M398.88 373.92l-64 160c-5.44 13.44-24.32 13.44-29.76 0l-64-160c-7.84-19.52 21.76-31.52 29.76-11.84 17.6 44.16 14.4 37.92 17.12 37.92l65.76 0.32 15.36-38.24c7.84-19.68 37.6-7.84 29.76 11.84zM298.88 432l21.12 52.96 21.12-52.96h-42.4zM512 352h-32c-17.6 0-32 14.4-32 32v128c0 17.6 14.4 32 32 32h32c52.96 0 96-43.040 96-96s-43.040-96-96-96zM480 512v-128h32c35.346 0 64 28.654 64 64s-28.654 64-64 64v0h-32zM728 352h-56c-21.12 0-21.12 32 0 32h56c13.255 0 24 10.745 24 24s-10.745 24-24 24v0h-16c-30.88 0-56 25.12-56 56s25.12 56 56 56h56c21.12 0 21.12-32 0-32h-56c-13.255 0-24-10.745-24-24s10.745-24 24-24v0h16c30.88 0 56-25.12 56-56s-25.12-56-56-56z" />
<glyph unicode="&#xe92e;" d="M256 848c0-100.8-100.48-168.8-192-135.68v103.68c0 17.6 14.4 32 32 32h160z" />
<glyph unicode="&#xe92f;" d="M224 848c0-61.856-50.144-112-112-112s-112 50.144-112 112c0 61.856 50.144 112 112 112s112-50.144 112-112z" />
<glyph unicode="&#xe930;" d="M55.491 836.849l22.627 22.627c6.248 6.248 16.379 6.248 22.627 0l22.627-22.627c6.248-6.248 6.248-16.379 0-22.627l-22.627-22.627c-6.248-6.248-16.379-6.248-22.627 0l-22.627 22.627c-6.248 6.248-6.248 16.379 0 22.627z" />
<glyph unicode="&#xe931;" d="M66.72 825.44c24.8 37.28 45.28 63.040 45.28 113.12 0 1.6 0.96-0.96 90.56-90.56-52.16 0-81.12-24-113.12-45.28l-22.56 22.56z" />
<glyph unicode="&#xe932;" d="M112 780.16l-11.36 11.36 22.56 22.56 11.36-11.36c15.2-15.2-8-37.28-22.56-22.56z" />
<glyph unicode="&#xe933;" d="M832 176h-640c-21.44 0-20.64 32 0 32h640c21.44 0 20.64-32 0-32z" />
<glyph unicode="&#xe934;" d="M224 176v32c0 21.44 32 20.64 32 0v-32c0-21.44-32-20.64-32 0z" />
<glyph unicode="&#xe935;" d="M992 672v-624h-960v624c0 26.56 21.44 48 48 48h864c26.56 0 48-21.44 48-48z" />
<glyph unicode="&#xe936;" d="M16 48h992c8.8 0 16-7.2 16-16v-32c0-26.56-21.44-48-48-48h-928c-26.56 0-48 21.44-48 48v32c0 8.8 7.2 16 16 16z" />
<glyph unicode="&#xe937;" d="M960 672v-64h-640l-64 80h688c8.8 0 16-7.2 16-16z" />
<glyph unicode="&#xe938;" d="M960 608v-528h-896v592c0 8.8 7.2 16 16 16h225.28c11.040 0 21.6-2.88 31.040-8.16 7.2-3.84 13.6-9.28 18.88-15.84l25.6-32c12.16-15.2 30.56-24 49.92-24h529.28z" />
<glyph unicode="&#xe939;" d="M368 48h288c0-17.6-14.4-32-32-32h-224c-17.6 0-32 14.4-32 32v0z" />
<glyph unicode="&#xe93a;" d="M592 128h-160c-4.32 0-8.32 1.76-11.36 4.64l-112 112c-2.867 2.867-4.641 6.827-4.641 11.202 0 0.056 0 0.111 0.001 0.167v-0.008 160c0 4.32 1.76 8.32 4.64 11.36l112 112c2.867 2.867 6.827 4.641 11.202 4.641 0.056 0 0.111 0 0.167-0.001h159.992c4.32 0 8.32-1.76 11.36-4.64l112-112c2.867-2.867 4.641-6.827 4.641-11.202 0-0.056 0-0.111-0.001-0.167v0.008-160c0-4.32-1.76-8.32-4.64-11.36l-112-112c-2.867-2.867-6.827-4.641-11.202-4.641-0.056 0-0.111 0-0.167 0.001h0.008zM438.56 160h146.72l102.56 102.56v146.72l-102.56 102.56h-146.72l-102.56-102.56v-146.72l102.56-102.56z" />
<glyph unicode="&#xe93b;" d="M480 272c-6.4 0-12.64 4-15.040 10.4l-32.96 88-32.96-88c-2.357-6.085-8.164-10.322-14.96-10.322-8.838 0-16.002 7.164-16.002 16.002 0 2.042 0.382 3.994 1.079 5.789l-0.037-0.109 48 128c2.4 6.24 8.32 10.4 15.040 10.4s12.64-4.16 15.040-10.4l48-128c0.632-1.661 0.997-3.582 0.997-5.589 0-6.808-4.21-12.633-10.168-15.013l-0.109-0.038c-1.92-0.64-3.68-0.96-5.6-0.96zM576 272h-32c-8.8 0-16 7.2-16 16v128c0 8.8 7.2 16 16 16h32c44.16 0 80-35.84 80-80s-35.84-80-80-80zM560 304h16c26.473 0.091 47.909 21.527 48 47.991v0.009c-0.091 26.473-21.527 47.909-47.991 48h-16.009v-96z" />
<glyph unicode="&#xe93c;" d="M464 304h-64c-8.8 0-16 7.2-16 16s7.2 16 16 16h64c8.8 0 16-7.2 16-16s-7.2-16-16-16z" />
<glyph unicode="&#xe93d;" d="M376 184c-4.16 0-8.16 1.6-11.36 4.64-6.24 6.24-6.24 16.32 0 22.56l264 264c6.24 6.24 16.32 6.24 22.56 0s6.24-16.32 0-22.56l-264-264c-2.842-2.867-6.782-4.642-11.136-4.642-0.079 0-0.157 0.001-0.236 0.002h0.012z" />
<glyph unicode="&#xe93e;" d="M992 672v-48h-32v48c0 8.8-7.2 16-16 16h-368v32h368c26.56 0 48-21.44 48-48z" />
<glyph unicode="&#xe93f;" d="M779.84 608l-8-16c-9.92-19.68-29.76-32-51.84-32s-41.92 12.32-51.84 32l-8 16h119.68z" />
<glyph unicode="&#xe940;" d="M960 672v-48h-172.16l-8-16h-119.68l-8 16h-12.16c-35.346 0-64 28.654-64 64v0h368c8.8 0 16-7.2 16-16z" />
<glyph unicode="&#xe941;" d="M608 912v-224c0-17.6 14.4-32 32-32h12.16c12.478-0.007 23.285-7.154 28.556-17.577l0.084-0.183 16-32c4.32-8.8 13.28-14.24 23.2-14.24v0c9.76 0 18.72 5.6 23.2 14.24l16 32c5.355 10.606 16.162 17.753 28.639 17.76h204.161c17.6 0 32 14.4 32 32v224c0 17.6-14.4 32-32 32h-352c-17.6 0-32-14.4-32-32z" />
<glyph unicode="&#xe942;" d="M855.68 813.92l-63.68 36.48c-10.72 6.080-24-1.6-24-13.92v-72.8c0-12.32 13.28-20 24-13.92l63.68 36.48c10.72 6.080 10.72 21.6 0 27.84z" />
<glyph unicode="&#xe943;" d="M96 544h192v-32h-192zM96 480h160v-32h-160zM96 416h160v-32h-160zM768 288h160v-32h-160zM768 224h128v-32h-128zM768 160h128v-32h-128z" />
<glyph unicode="&#xe944;" d="M672 896c0-8.837-7.163-16-16-16s-16 7.163-16 16c0 8.837 7.163 16 16 16s16-7.163 16-16z" />
<glyph unicode="&#xe945;" d="M736 896c0-8.837-7.163-16-16-16s-16 7.163-16 16c0 8.837 7.163 16 16 16s16-7.163 16-16z" />
<glyph unicode="&#xe946;" d="M830.56 560c-63.395 142.488-203.722 240.040-366.833 240.040-10.716 0-21.333-0.421-31.836-1.247l1.389 0.088c-189.12-14.080-344.8-163.2-366.56-351.52-11.68-101.92 15.040-197.6 67.68-274.080 5.92-8.48 15.68-13.28 26.080-13.28h75.36c14.080 0 21.28 16.96 11.36 27.040-53.966 54.665-87.298 129.813-87.298 212.745 0 11.801 0.675 23.444 1.988 34.893l-0.13-1.398c23.36 220 272.32 343.52 462.24 225.12 86.56-53.28 145.76-151.36 144-263.040-2.56-167.52-144.8-299.36-312.32-299.36h-251.52c77.92-66.88 182.24-104.16 295.040-94.56 268.64 23.2 441.76 307.36 331.36 558.56z" />
<glyph unicode="&#xe947;" d="M928 832h-192c-8.8 0-16 7.2-16 16v64c0 26.4 21.6 48 48 48h128c26.4 0 48-21.6 48-48v-64c0-8.8-7.2-16-16-16zM752 864h160v48c0 8.8-7.2 16-16 16h-128c-8.8 0-16-7.2-16-16v-48z" />
<glyph unicode="&#xe948;" d="M830.56 560h-108.16c-24.64 40-58.4 73.76-98.4 98.4v108.16c92.765-41.194 165.366-113.795 205.548-204.016l1.012-2.544z" />
<glyph unicode="&#xe949;" d="M656 816h352v-192c0-17.6-14.4-32-32-32h-288c-17.6 0-32 14.4-32 32v192z" />
<glyph unicode="&#xe94a;" d="M1024 848c0-59.36 1.76-61.76-6.4-72.48l-32-42.72c-6.080-8-15.52-12.8-25.6-12.8h-256c-10.080 0-19.52 4.8-25.6 12.8-35.68 47.52-38.4 48.32-38.4 61.92v53.28c0 17.6 14.4 32 32 32h320c17.6 0 32-14.4 32-32z" />
<glyph unicode="&#xe94b;" d="M928 688c-4.64 0-16 3.52-16 16v32c0 8.8 7.2 16 16 16 4.64 0 16-3.52 16-16v-32c0-8.8-7.2-16-16-16zM736 688c-4.64 0-16 3.52-16 16v32c0 8.8 7.2 16 16 16 4.64 0 16-3.52 16-16v-32c0-8.8-7.2-16-16-16z" />
<glyph unicode="&#xe94c;" d="M864-64c-8.8 0-16 7.2-16 16v48h-832c-8.8 0-16 7.2-16 16v64c0 8.8 7.2 16 16 16h832v48c0 12.64 14.080 20.48 24.8 13.28l144-96c4.293-2.914 7.076-7.772 7.076-13.28s-2.783-10.366-7.020-13.244l-0.056-0.036c-156-104-145.92-98.72-152.8-98.72z" />
<glyph unicode="&#xe94d;" d="M704 400c0-132.548-107.452-240-240-240s-240 107.452-240 240c0 132.548 107.452 240 240 240s240-107.452 240-240z" />
<glyph unicode="&#xe94e;" d="M656 400c0-106.039-85.961-192-192-192s-192 85.961-192 192c0 106.039 85.961 192 192 192s192-85.961 192-192z" />
<glyph unicode="&#xe94f;" d="M384 304c-14.080 0-21.44 17.12-11.36 27.36l75.36 75.36v121.44c0 8.8 7.2 16 16 16s16-7.2 16-16v-128c0-4.32-1.76-8.32-4.64-11.36l-80-80c-2.842-2.867-6.782-4.642-11.136-4.642-0.079 0-0.157 0.001-0.236 0.002h0.012z" />
<glyph unicode="&#xe950;" d="M496 832v112c0.32 21.12 32.32 21.12 32.16 0v-112c-0.16-20.64-32.32-22.080-32.16 0zM432 832v112c0.32 21.12 32.32 21.12 32.16 0v-112c-0.16-20.64-32.32-22.080-32.16 0zM368 832v112c0.32 21.12 32.32 21.12 32.16 0v-112c-0.16-20.64-32.32-22.080-32.16 0zM304 832v112c0.32 21.12 32.32 21.12 32.16 0v-112c-0.16-20.64-32.32-22.080-32.16 0zM240 832v112c0.32 21.12 32.32 21.12 32.16 0v-112c-0.16-20.64-32.32-22.080-32.16 0zM752 832v112c0.32 21.12 32.32 21.12 32.16 0v-112c-0.16-20.64-32.32-22.080-32.16 0zM688 832v112c0.32 21.12 32.32 21.12 32.16 0v-112c-0.16-20.64-32.32-22.080-32.16 0zM624 832v112c0.32 21.12 32.32 21.12 32.16 0v-112c-0.16-20.64-32.32-22.080-32.16 0zM560 832v112c0.32 21.12 32.32 21.12 32.16 0v-112c-0.16-20.64-32.32-22.080-32.16 0z" />
<glyph unicode="&#xe951;" d="M896 464h112c21.12-0.32 21.12-32.32 0-32.16h-112c-20.64 0.16-22.080 32.32 0 32.16z" />
<glyph unicode="&#xe952;" d="M896 528h112c21.12-0.32 21.12-32.32 0-32.16h-112c-20.64 0.16-22.080 32.32 0 32.16z" />
<glyph unicode="&#xe953;" d="M896 592h112c21.12-0.32 21.12-32.32 0-32.16h-112c-20.64 0.16-22.080 32.32 0 32.16z" />
<glyph unicode="&#xe954;" d="M896 656h112c21.12-0.32 21.12-32.32 0-32.16h-112c-20.64 0.16-22.080 32.32 0 32.16z" />
<glyph unicode="&#xe955;" d="M896 720h112c21.12-0.32 21.12-32.32 0-32.16h-112c-20.64 0.16-22.080 32.32 0 32.16z" />
<glyph unicode="&#xe956;" d="M896 208h112c21.12-0.32 21.12-32.32 0-32.16h-112c-20.64 0.16-22.080 32.32 0 32.16z" />
<glyph unicode="&#xe957;" d="M896 272h112c21.12-0.32 21.12-32.32 0-32.16h-112c-20.64 0.16-22.080 32.32 0 32.16z" />
<glyph unicode="&#xe958;" d="M896 336h112c21.12-0.32 21.12-32.32 0-32.16h-112c-20.64 0.16-22.080 32.32 0 32.16z" />
<glyph unicode="&#xe959;" d="M896 400h112c21.12-0.32 21.12-32.32 0-32.16h-112c-20.64 0.16-22.080 32.32 0 32.16z" />
<glyph unicode="&#xe95a;" d="M528 64v-112c-0.32-21.12-32.32-21.12-32.16 0v112c0.16 20.64 32.32 22.080 32.16 0z" />
<glyph unicode="&#xe95b;" d="M592 64v-112c-0.32-21.12-32.32-21.12-32.16 0v112c0.16 20.64 32.32 22.080 32.16 0z" />
<glyph unicode="&#xe95c;" d="M656 64v-112c-0.32-21.12-32.32-21.12-32.16 0v112c0.16 20.64 32.32 22.080 32.16 0z" />
<glyph unicode="&#xe95d;" d="M720 64v-112c-0.32-21.12-32.32-21.12-32.16 0v112c0.16 20.64 32.32 22.080 32.16 0z" />
<glyph unicode="&#xe95e;" d="M784 64v-112c-0.32-21.12-32.32-21.12-32.16 0v112c0.16 20.64 32.32 22.080 32.16 0z" />
<glyph unicode="&#xe95f;" d="M272 64v-112c-0.32-21.12-32.32-21.12-32.16 0v112c0.16 20.64 32.32 22.080 32.16 0z" />
<glyph unicode="&#xe960;" d="M336 64v-112c-0.32-21.12-32.32-21.12-32.16 0v112c0.16 20.64 32.32 22.080 32.16 0z" />
<glyph unicode="&#xe961;" d="M400 64v-112c-0.32-21.12-32.32-21.12-32.16 0v112c0.16 20.64 32.32 22.080 32.16 0z" />
<glyph unicode="&#xe962;" d="M464 64v-112c-0.32-21.12-32.32-21.12-32.16 0v112c0.16 20.64 32.32 22.080 32.16 0z" />
<glyph unicode="&#xe963;" d="M128 432h-112c-21.12 0.32-21.12 32.32 0 32.16h112c20.64-0.16 22.080-32.32 0-32.16zM128 368h-112c-21.12 0.32-21.12 32.32 0 32.16h112c20.64-0.16 22.080-32.32 0-32.16zM128 304h-112c-21.12 0.32-21.12 32.32 0 32.16h112c20.64-0.16 22.080-32.32 0-32.16zM128 240h-112c-21.12 0.32-21.12 32.32 0 32.16h112c20.64-0.16 22.080-32.32 0-32.16zM128 176h-112c-21.12 0.32-21.12 32.32 0 32.16h112c20.64-0.16 22.080-32.32 0-32.16zM128 688h-112c-21.12 0.32-21.12 32.32 0 32.16h112c20.64-0.16 22.080-32.32 0-32.16zM128 624h-112c-21.12 0.32-21.12 32.32 0 32.16h112c20.64-0.16 22.080-32.32 0-32.16zM128 560h-112c-21.12 0.32-21.12 32.32 0 32.16h112c20.64-0.16 22.080-32.32 0-32.16zM128 496h-112c-21.12 0.32-21.12 32.32 0 32.16h112c20.64-0.16 22.080-32.32 0-32.16z" />
<glyph unicode="&#xe964;" d="M224 832h576c53.019 0 96-42.981 96-96v-576c0-53.019-42.981-96-96-96h-576c-53.019 0-96 42.981-96 96v576c0 53.019 42.981 96 96 96z" />
<glyph unicode="&#xe965;" d="M240 752h544c17.673 0 32-14.327 32-32v-544c0-17.673-14.327-32-32-32h-544c-17.673 0-32 14.327-32 32v544c0 17.673 14.327 32 32 32z" />
<glyph unicode="&#xe966;" d="M304 672h416c8.837 0 16-7.163 16-16v-416c0-8.837-7.163-16-16-16h-416c-8.837 0-16 7.163-16 16v416c0 8.837 7.163 16 16 16z" />
<glyph unicode="&#xe967;" d="M384 608c0-17.673-14.327-32-32-32s-32 14.327-32 32c0 17.673 14.327 32 32 32s32-14.327 32-32z" />
<glyph unicode="&#xe968;" d="M704 288c0-17.673-14.327-32-32-32s-32 14.327-32 32c0 17.673 14.327 32 32 32s32-14.327 32-32z" />
<glyph unicode="&#xe969;" d="M496 752h32v-80h-32zM432 752h32v-80h-32zM368 752h32v-80h-32zM624 752h32v-80h-32zM560 752h32v-80h-32zM496 224h32v-80h-32zM432 224h32v-80h-32zM368 224h32v-80h-32zM624 224h32v-80h-32zM560 224h32v-80h-32z" />
<glyph unicode="&#xe96a;" d="M494.88 533.92c-5.44 13.44-24.32 13.44-29.76 0l-64-160c-7.84-19.68 21.92-31.52 29.76-11.84l15.36 38.24c4.32-0.48-13.12-0.32 65.76-0.32 2.72 0-0.48 6.24 17.12-37.92 7.84-19.68 37.6-7.84 29.76 11.84l-64 160zM458.88 432l21.12 52.96 21.12-52.96h-42.4zM592 528v-160c0-21.12 32-21.12 32 0v160c0 21.12-32 21.12-32 0z" />
<glyph unicode="&#xe96b;" d="M992 656v-624h-960v624c0 26.56 21.44 48 48 48h864c26.56 0 48-21.44 48-48z" />
<glyph unicode="&#xe96c;" d="M16 32h992c8.8 0 16-7.2 16-16v-32c0-26.56-21.44-48-48-48h-928c-26.56 0-48 21.44-48 48v32c0 8.8 7.2 16 16 16z" />
<glyph unicode="&#xe96d;" d="M960 656v-592h-896v592c0 8.8 7.2 16 16 16h864c8.8 0 16-7.2 16-16z" />
<glyph unicode="&#xe96e;" d="M96 640h416v-256h-416zM576 480h352v-192h-352zM96 352h416v-32h-416zM96 288h416v-32h-416zM96 224h416v-32h-416zM576 256h352v-32h-352zM576 192h352v-32h-352zM576 128h352v-32h-352zM96 160h352v-32h-352z" />
<glyph unicode="&#xe96f;" d="M624 0h-224c-17.6 0-32 14.4-32 32 0 1.6-13.44 0 288 0 0-12.96-10.080-32-32-32z" />
<glyph unicode="&#xe970;" d="M368 848h128c8.837 0 16-7.163 16-16v-32c0-8.837-7.163-16-16-16h-128c-8.837 0-16 7.163-16 16v32c0 8.837 7.163 16 16 16z" />
<glyph unicode="&#xe971;" d="M640 239.36c0-61.44-49.92-111.36-111.36-111.36h-193.44c-88.48 0-140.8 98.080-93.6 171.52 113.6 176.8 126.4 185.92 126.4 224.64v259.84h128c0-283.2-5.12-280.16 15.2-311.68 117.6-183.040 128.8-189.44 128.8-232.96z" />
<glyph unicode="&#xe972;" d="M533.76 160h-203.52c-59.040 0-93.92 65.44-62.4 114.4l124.16 193.12c5.002 7.644 13.517 12.626 23.198 12.64h0.002c18.88 0 25.76 17.44 24.64 15.2 1.6 3.071 4.759 5.133 8.4 5.133s6.8-2.061 8.375-5.080l0.025-0.052c11.84-23.68 140.8-222.4 139.84-220.8 31.36-48.8-3.36-114.4-62.4-114.4z" />
<glyph unicode="&#xe973;" d="M624 592h160c8.837 0 16-7.163 16-16v-32c0-8.837-7.163-16-16-16h-160c-8.837 0-16 7.163-16 16v32c0 8.837 7.163 16 16 16z" />
<glyph unicode="&#xe974;" d="M704 128c-44.16 0-80 35.68-80 80v320h160v-320c0-44.16-35.84-80-80-80z" />
<glyph unicode="&#xe975;" d="M752 459.52v-251.52c0-26.56-21.44-48-48-48s-48 21.44-48 48v203.2c0 20.324 16.476 36.8 36.8 36.8v0c11.2 0 18.72 5.12 20.48 6.24l21.6 14.4c1.711 1.144 3.816 1.825 6.080 1.825 6.064 0 10.986-4.889 11.040-10.94v-0.005z" />
<glyph unicode="&#xe976;" d="M432 912c0-17.673-14.327-32-32-32s-32 14.327-32 32c0 17.673 14.327 32 32 32s32-14.327 32-32z" />
<glyph unicode="&#xe977;" d="M480 944c0 21.12-32 21.12-32 0s32-21.12 32 0zM752 704c0 21.12-32 21.12-32 0s32-21.12 32 0z" />
<glyph unicode="&#xe978;" d="M720 784c0-17.673-14.327-32-32-32s-32 14.327-32 32c0 17.673 14.327 32 32 32s32-14.327 32-32z" />
<glyph unicode="&#xe979;" d="M672 656c0-17.673-14.327-32-32-32s-32 14.327-32 32c0 17.673 14.327 32 32 32s32-14.327 32-32z" />
<glyph unicode="&#xe97a;" d="M686.72 406.080l-160 384c-5.44 13.12-24 13.12-29.6 0l-160-384c-0.759-1.797-1.2-3.887-1.2-6.080 0-8.809 7.118-15.955 15.916-16h320.004c11.36 0 19.2 11.68 14.72 22.080zM512 742.4l63.84-153.12-96.32 74.88 32.64 78.080zM466.72 633.6l112-87.2-190.72-101.76 78.72 188.8zM402.080 416l201.28 107.36 44.8-107.36h-245.92z" />
<glyph unicode="&#xe97b;" d="M112 448h800c17.673 0 32-14.327 32-32v-32c0-17.673-14.327-32-32-32h-800c-17.673 0-32 14.327-32 32v32c0 17.673 14.327 32 32 32z" />
<glyph unicode="&#xe97c;" d="M128 352h768v-416h-768z" />
<glyph unicode="&#xe97d;" d="M560 784c0-26.51-21.49-48-48-48s-48 21.49-48 48c0 26.51 21.49 48 48 48s48-21.49 48-48z" />
<glyph unicode="&#xe97e;" d="M598.56 726.72c-11.68 0-19.52 12.32-14.4 23.040 20.64 42.4-1.12 94.56-46.080 109.76-65.12 23.040-129.76-45.28-98.4-109.76 3.84-8 0.64-17.44-7.36-21.44-7.84-3.84-17.6-0.48-21.44 7.36-28.64 58.72 0.32 131.52 64 153.92 96.64 32.16 180.64-66.4 137.92-153.92-2.72-5.76-8.48-8.96-14.4-8.96zM627.52 657.28c-13.92 0-21.28 16.96-11.52 27.040 86.56 90.24 23.36 241.6-101.6 243.68-131.2 0-192.8-153.76-106.4-243.68 6.080-6.4 5.92-16.48-0.48-22.56s-16.48-5.92-22.56 0.48c-105.44 109.76-30.56 297.76 129.76 297.76 152.64-2.56 230.56-187.36 124.32-297.76-3.2-3.36-7.36-4.96-11.52-4.96z" />
<glyph unicode="&#xe97f;" d="M224 288h64c8.837 0 16-7.163 16-16v-64c0-8.837-7.163-16-16-16h-64c-8.837 0-16 7.163-16 16v64c0 8.837 7.163 16 16 16z" />
<glyph unicode="&#xe980;" d="M368 288h64c8.837 0 16-7.163 16-16v-64c0-8.837-7.163-16-16-16h-64c-8.837 0-16 7.163-16 16v64c0 8.837 7.163 16 16 16z" />
<glyph unicode="&#xe981;" d="M416 128h192c17.6 0 32-14.4 32-32v-160h-256v160c0 17.6 14.4 32 32 32z" />
<glyph unicode="&#xe982;" d="M496 128h32v-192h-32z" />
<glyph unicode="&#xe983;" d="M704 192c-26.473 0.091-47.909 21.527-48 47.991v0.009c0.091 26.473 21.527 47.909 47.991 48h0.009c26.473-0.091 47.909-21.527 48-47.991v-0.009c-0.091-26.473-21.527-47.909-47.991-48h-0.009zM704 256c-8.8 0-16-7.2-16-16s7.2-16 16-16 16 7.2 16 16-7.2 16-16 16zM800 192c-8.8 0-16 7.2-16 16v32c-14.080 0-21.44 17.12-11.36 27.36l16 16c10.080 10.080 27.36 2.88 27.36-11.36v-64c0-8.8-7.2-16-16-16z" />
<glyph unicode="&#xe984;" d="M224 448h-32v48c0 8.8 7.2 16 16 16 4.64 0 16-3.52 16-16v-48zM288 448h-32v16c0 8.8 7.2 16 16 16 4.64 0 16-3.52 16-16v-16z" />
<glyph unicode="&#xe985;" d="M689.28 313.92l-177.28 428.32-177.28-428.32c-8-19.52-37.6-7.36-29.6 12.32l192.16 463.84c5.44 13.12 24.16 13.12 29.6 0l192-464c8.16-19.68-21.44-31.68-29.6-12.32z" />
<glyph unicode="&#xe986;" d="M704 304c-8.64 0 6.88-11.36-201.92 172.32-86.72 59.68-85.12 56.16-86.080 66.24-0.96 10.4-6.56 1.6 131.52 139.68 15.040 15.040 37.6-7.68 22.56-22.56l-113.28-113.28c87.36-60 26.72-11.040 257.6-214.24 11.2-9.76 4-28-10.56-28z" />
<glyph unicode="&#xe987;" d="M320 304c-14.56 0-21.6 18.24-10.56 28 231.2 203.52 170.56 154.4 257.6 214.24l-113.28 113.28c-15.040 15.040 7.68 37.6 22.56 22.56 136.48-136.48 132.48-129.12 131.52-139.68-0.96-10.24 0-7.040-86.080-66.24-208.16-183.040-193.28-172.32-201.92-172.32z" />
<glyph unicode="&#xe988;" d="M560 784c0-26.51-21.49-48-48-48s-48 21.49-48 48c0 26.51 21.49 48 48 48s48-21.49 48-48z" />
<glyph unicode="&#xe989;" d="M64 352h896v-64h-896z" />
<glyph unicode="&#xe98a;" d="M112 288h800v-352h-800z" />
<glyph unicode="&#xe98b;" d="M384 160h256c17.6 0 32-14.4 32-32v-192h-320v192c0 17.6 14.4 32 32 32z" />
<glyph unicode="&#xe98c;" d="M496 160h32v-224h-32zM584.16 749.44c20.16 41.28 0.32 93.92-45.6 110.080-67.2 23.84-129.6-46.88-98.72-110.080 9.28-19.040-19.52-33.12-28.8-14.080-43.2 88.64 43.68 187.68 138.080 154.24 64.16-22.56 92.16-96 63.68-154.24-9.12-18.88-38.080-4.96-28.8 14.080z" />
<glyph unicode="&#xe98d;" d="M385.28 662.080c-106.080 109.6-31.040 297.92 129.76 297.92 152.64-2.72 230.24-187.84 123.68-297.92-14.56-15.2-37.76 7.040-23.040 22.24 87.040 90.080 23.84 241.44-100.96 243.68-131.52 0-193.28-153.92-106.4-243.68 14.72-15.2-8.48-37.28-23.040-22.24z" />
<glyph unicode="&#xe98e;" d="M784 384c-8.8 0-16 7.2-16 16v352h-368c-8.8 0-16 7.2-16 16s7.2 16 16 16h384c8.8 0 16-7.2 16-16v-368c0-8.8-7.2-16-16-16z" />
<glyph unicode="&#xe98f;" d="M368 256v-320h-272v288c0 17.6 14.4 32 32 32h240z" />
<glyph unicode="&#xe990;" d="M888.16 263.2c-83.52-71.36-194.4-111.2-315.040-101.76-209.6 16.32-379.36 186.24-395.84 395.84-0.913 10.523-1.434 22.769-1.434 35.137 0 107.101 39.047 205.082 103.681 280.484l-0.487-0.581c12.16 14.24 33.76 14.88 47.040 1.6l563.68-563.68c13.12-13.12 12.48-34.88-1.6-47.040z" />
<glyph unicode="&#xe991;" d="M368 256v-320h-208.48l57.12 320h151.36z" />
<glyph unicode="&#xe992;" d="M368 384c-55.52 0-103.040-39.84-112.8-94.56l-63.2-353.44h352l-63.2 353.44c-9.76 54.72-57.28 94.56-112.8 94.56z" />
<glyph unicode="&#xe993;" d="M416 272c0-27.68-22.56-48-48-48-38.080 0-60.16 42.080-40.96 72.96 24.48 40.96 88.96 24 88.96-24.96z" />
<glyph unicode="&#xe994;" d="M400 256c0-9.12-2.56-17.76-7.040-24.96-7.2-4.48-15.84-7.040-24.96-7.040-38.080 0-60.16 42.080-40.96 72.96 30.88 19.2 72.96-2.72 72.96-40.96zM368 0c-26.473 0.091-47.909 21.527-48 47.991v0.009c0.091 26.473 21.527 47.909 47.991 48h0.009c26.473-0.091 47.909-21.527 48-47.991v-0.009c-0.091-26.473-21.527-47.909-47.991-48h-0.009zM368 64c-8.8 0-16-7.2-16-16s7.2-16 16-16 16 7.2 16 16-7.2 16-16 16zM464 0c-8.8 0-16 7.2-16 16v32c-14.080 0-21.44 17.12-11.36 27.36l16 16c10.080 10.080 27.36 2.88 27.36-11.36v-64c0-8.8-7.2-16-16-16z" />
<glyph unicode="&#xe995;" d="M656-64h-576c-8.8 0-16 7.2-16 16 0 4.64 3.52 16 16 16h576c8.8 0 16-7.2 16-16 0-4.64-3.52-16-16-16z" />
<glyph unicode="&#xe996;" d="M848 768c0-35.346-28.654-64-64-64s-64 28.654-64 64c0 35.346 28.654 64 64 64s64-28.654 64-64z" />
<glyph unicode="&#xe997;" d="M848 660.16c-15.68 0-21.92 20.32-9.12 29.12 24.984 17.475 41.12 46.111 41.12 78.516 0 0.072 0 0.144 0 0.215v-0.011c0 52.96-43.040 96-96 96-0.036 0-0.078 0-0.121 0-32.43 0-61.091-16.134-78.396-40.813l-0.204-0.307c-4.96-7.2-15.040-9.12-22.24-4-7.2 4.96-9.12 15.040-4 22.24 23.84 34.4 63.040 54.88 104.96 54.88 70.56 0 128-57.44 128-128 0-41.92-20.48-81.28-54.88-104.96-2.536-1.802-5.696-2.88-9.107-2.88-0.004 0-0.009 0-0.013 0h0.001zM848 588c-17.6 0-22.24 24.48-5.76 30.88 61.92 24.16 101.76 82.72 101.76 149.12-0.182 88.292-71.707 159.818-159.982 160h-0.018c-0.191 0.001-0.417 0.001-0.643 0.001-67.263 0-124.782-41.714-148.101-100.683l-0.376-1.078c-3.2-8.32-12.48-12.32-20.64-9.12-6.011 2.393-10.183 8.162-10.183 14.905 0 2.062 0.39 4.033 1.101 5.844l-0.038-0.109c28.35 72.119 97.378 122.242 178.112 122.242 0.27 0 0.54-0.001 0.81-0.002h-0.042c105.92 0 192-86.080 192-192 0.001-0.228 0.002-0.498 0.002-0.768 0-80.734-50.122-149.762-120.947-177.663l-1.295-0.449c-1.665-0.709-3.601-1.121-5.633-1.121-0.045 0-0.089 0-0.134 0.001h0.007z" />
<glyph unicode="&#xe998;" d="M160 208c0-8.837-7.163-16-16-16s-16 7.163-16 16c0 8.837 7.163 16 16 16s16-7.163 16-16z" />
<glyph unicode="&#xe999;" d="M160 144c0-8.837-7.163-16-16-16s-16 7.163-16 16c0 8.837 7.163 16 16 16s16-7.163 16-16z" />
<glyph unicode="&#xe99a;" d="M416 688c-4.16 0-8.16 1.6-11.36 4.64-23.68 23.68-36.64 55.040-36.64 88.64v18.72c0 8.8 7.2 16 16 16s16-7.2 16-16v-18.72c0-24.96 9.76-48.32 27.36-65.92 2.793-2.9 4.513-6.851 4.513-11.203 0-8.824-7.072-15.996-15.858-16.157h-0.015zM544 688c-14.080 0-21.44 17.12-11.36 27.36 17.6 17.6 27.36 40.96 27.36 65.92v18.72c0 8.8 7.2 16 16 16s16-7.2 16-16v-18.72c0-33.44-12.96-64.96-36.64-88.64-2.842-2.867-6.782-4.642-11.136-4.642-0.079 0-0.157 0.001-0.236 0.002h0.012zM320 400h-176c-8.8 0-16 7.2-16 16s7.2 16 16 16h176c8.8 0 16-7.2 16-16s-7.2-16-16-16z" />
<glyph unicode="&#xe99b;" d="M480 160c-97.12 0-176 78.72-176 176v208c0 17.6 14.4 32 32 32h288c17.6 0 32-14.4 32-32v-208c0-97.28-78.72-176-176-176z" />
<glyph unicode="&#xe99c;" d="M320 464c-2.080 0-21.28 3.36-80.48 13.12-16.8 2.72-31.040 14.56-37.12 30.56l-41.6 110.72c-3.040 8.32 1.12 17.44 9.44 20.64 1.661 0.632 3.582 0.997 5.589 0.997 6.808 0 12.633-4.21 15.013-10.168l0.038-0.109 41.44-110.72c2.028-5.303 6.622-9.207 12.221-10.225l0.099-0.015 77.76-12.96c8.64-1.44 14.56-9.76 13.12-18.4-1.28-7.84-8.16-13.44-15.84-13.44zM816 400h-176c-8.8 0-16 7.2-16 16s7.2 16 16 16h176c8.8 0 16-7.2 16-16s-7.2-16-16-16zM176 192c-11.2 0-18.88 11.2-15.040 21.6l41.44 110.72c6.080 16 20.16 27.68 37.12 30.56l77.76 12.96c0.789 0.138 1.697 0.217 2.623 0.217 7.896 0 14.456-5.719 15.763-13.241l0.014-0.096c1.44-8.64-4.48-16.96-13.12-18.4l-77.76-12.96c-5.727-0.969-10.348-4.898-12.284-10.13l-0.036-0.11-41.44-110.72c-2.4-6.4-8.48-10.4-15.040-10.4zM789.6 192.96c-8.32-3.040-17.6 1.28-20.64 9.44l-41.44 110.72c-2.080 5.28-6.72 9.12-12.32 10.080l-77.76 12.96c-8.8 1.44-14.72 9.76-13.28 18.4 1.44 8.8 9.76 14.72 18.4 13.28 82.4-13.76 87.040-12.48 99.36-22.56 7.040-5.28 12.32-12.48 15.52-20.96l41.6-110.72c3.040-8.32-1.12-17.44-9.44-20.64z" />
<glyph unicode="&#xe99d;" d="M640 464c-7.68 0-14.4 5.6-15.84 13.44-1.44 8.64 4.48 16.96 13.12 18.4l77.76 12.96c5.727 0.969 10.348 4.898 12.284 10.13l0.036 0.11 41.44 110.72c2.293 6.105 8.081 10.37 14.866 10.37 2.078 0 4.063-0.4 5.881-1.128l-0.107 0.038c8.32-3.040 12.48-12.32 9.44-20.64l-41.44-110.72c-6.080-16-20.16-27.68-37.12-30.56l-80.48-13.12z" />
<glyph unicode="&#xe99e;" d="M656 544c0-228.96 0.96-218.080-2.72-238.72-12.8-75.52-76.32-137.28-157.28-144.48-103.52-9.44-192 72-192 175.2v208c0 17.6 14.4 32 32 32h288c17.6 0 32-14.4 32-32z" />
<glyph unicode="&#xe99f;" d="M384 624h192c17.6 0 32-14.4 32-32v-16h-256v16c0 17.6 14.4 32 32 32z" />
<glyph unicode="&#xe9a0;" d="M480 752c-52.96 0-96-43.040-96-96v-32h192v32c0 52.96-43.040 96-96 96z" />
<glyph unicode="&#xe9a1;" d="M496 576v-415.2c-4.8-0.535-10.364-0.84-16-0.84s-11.2 0.305-16.678 0.9l0.678-0.060v415.2h32zM789.6 192.96c-8.32-3.040-17.6 1.28-20.64 9.44l-41.44 110.72c-2.080 5.28-6.72 9.12-12.32 10.080l-20.32 3.36 47.040 18.72c7.040-5.28 12.32-12.48 15.52-20.96l41.6-110.72c3.040-8.32-1.12-17.44-9.44-20.64z" />
<glyph unicode="&#xe9a2;" d="M480 960c-264.64 0-480-215.36-480-480s215.36-480 480-480c218.698 0.304 403.139 146.625 461.078 346.685l0.842 3.395c86.88 302.72-143.040 609.92-461.92 609.92zM64 480c0 229.44 186.56 416 416 416 103.2 0 197.6-37.92 270.4-100.32l-586.080-586.080c-62.4 72.8-100.32 167.2-100.32 270.4zM799.040 213.6v0c-142.24-173.12-408.8-204.16-589.44-49.28l586.080 586.080c133.6-155.84 132.8-382.72 3.36-536.8z" />
<glyph unicode="&#xe9a3;" d="M941.92 350.080c-39.040-139.36-139.84-253.28-270.72-310.24-9.92 18.88-17.6 38.88-22.88 60 51.445 23.127 95.252 54.332 131.862 92.496l0.138 0.144c11.52-3.36 23.2 8.48 18.72 20.96 0 3.52 55.68 55.84 83.2 160.64l59.68-24z" />
<glyph unicode="&#xe9a4;" d="M848 336l-160-64v-104.96c0-99.2 64.96-186.56 160-215.040 94.88 28.48 160 115.84 160 215.040v104.96l-160 64z" />
<glyph unicode="&#xe9a5;" d="M653.28 305.28c-2.56-15.040-7.2-29.28-13.28-42.72v9.44c0.015 12.904 5.070 24.624 13.3 33.302l-0.020-0.022zM843.36-63.36c-99.874 30.111-171.363 121.277-171.363 229.14 0 0.443 0.001 0.886 0.004 1.328v-0.068 104.96c0 0.005 0 0.010 0 0.015 0 6.704 4.124 12.446 9.973 14.826l0.107 0.039 160 64c1.758 0.682 3.793 1.078 5.92 1.078s4.162-0.395 6.035-1.117l-0.115 0.039 160-64c5.956-2.419 10.080-8.16 10.080-14.865 0-0.005 0-0.011 0-0.016v0.001-104.96c0.002-0.374 0.003-0.817 0.003-1.26 0-107.863-71.49-199.029-169.672-228.701l-1.691-0.439c-2.88-0.8-6.080-0.96-9.12 0zM704 261.12v-94.080c0-91.2 57.6-170.24 144-198.24 86.4 28 144 107.040 144 198.24v94.080l-144 57.6-144-57.6z" />
<glyph unicode="&#xe9a6;" d="M836.64 84.64l-48 48c-6.24 6.24-6.24 16.32 0 22.56s16.32 6.24 22.56 0l36.64-36.64 68.64 68.64c6.24 6.24 16.32 6.24 22.56 0s6.24-16.32 0-22.56l-80-80c-6.24-6.24-16.32-6.24-22.56 0z" />
<glyph unicode="&#xe9a7;" d="M128 960h864c17.673 0 32-14.327 32-32v-592c0-17.673-14.327-32-32-32h-864c-17.673 0-32 14.327-32 32v592c0 17.673 14.327 32 32 32z" />
<glyph unicode="&#xe9a8;" d="M816 192.16h-544v767.84h312.48c24.913-0.021 46.5-14.238 57.112-34.997l0.168-0.363 12.64-25.28c10.702-21.129 32.257-35.36 57.135-35.36 0.051 0 0.102 0 0.153 0h104.472v-671.84z" />
<glyph unicode="&#xe9a9;" d="M1024 864v-736c0-17.6-14.4-32-32-32h-960c-17.6 0-32 14.4-32 32v800c0 17.6 14.4 32 32 32h280.48c24.902-0.061 46.472-14.263 57.111-34.998l0.169-0.362 12.48-25.28c10.808-21.097 32.378-35.299 57.272-35.36h584.488z" />
<glyph unicode="&#xe9aa;" d="M733.76 96h-443.52c-19.040 137.6 87.52 256 221.76 256s240.8-118.080 221.76-256z" />
<glyph unicode="&#xe9ab;" d="M704 128c0-106.039-85.961-192-192-192s-192 85.961-192 192c0 106.039 85.961 192 192 192s192-85.961 192-192z" />
<glyph unicode="&#xe9ac;" d="M672 128c0-88.366-71.634-160-160-160s-160 71.634-160 160c0 88.366 71.634 160 160 160s160-71.634 160-160z" />
<glyph unicode="&#xe9ad;" d="M448 64c-4.16 0-8.16 1.6-11.36 4.64l-48 48c-6.24 6.24-6.24 16.32 0 22.56l48 48c6.24 6.24 16.32 6.24 22.56 0s6.24-16.32 0-22.56l-36.64-36.64 36.64-36.64c2.793-2.9 4.513-6.851 4.513-11.203 0-8.824-7.072-15.996-15.858-16.157h-0.015zM576 64c-14.080 0-21.44 17.12-11.36 27.36l36.64 36.64-36.64 36.64c-6.24 6.24-6.24 16.32 0 22.56s16.32 6.24 22.56 0l48-48c6.24-6.24 6.24-16.32 0-22.56l-48-48c-2.842-2.867-6.782-4.642-11.136-4.642-0.079 0-0.157 0.001-0.236 0.002h0.012zM496 32c-10.080 0-17.6 9.28-15.68 19.2l32 160c1.76 8.64 10.080 14.24 18.88 12.48 7.357-1.539 12.804-7.972 12.804-15.678 0-1.134-0.118-2.24-0.342-3.307l0.018 0.104-32-160c-1.44-7.68-8.16-12.8-15.68-12.8z" />
<glyph unicode="&#xe9ae;" d="M976 912.16c0-8.837-7.163-16-16-16s-16 7.163-16 16c0 8.837 7.163 16 16 16s16-7.163 16-16z" />
<glyph unicode="&#xe9af;" d="M912 912.16c0-8.837-7.163-16-16-16s-16 7.163-16 16c0 8.837 7.163 16 16 16s16-7.163 16-16z" />
<glyph unicode="&#xe9b0;" d="M848 912.16c0-8.837-7.163-16-16-16s-16 7.163-16 16c0 8.837 7.163 16 16 16s16-7.163 16-16z" />
<glyph unicode="&#xe9b1;" d="M336 912.16c0-8.837-7.163-16-16-16s-16 7.163-16 16c0 8.837 7.163 16 16 16s16-7.163 16-16z" />
<glyph unicode="&#xe9b2;" d="M192 624c-6.4 0-12.64 4-15.040 10.4l-32.96 88-32.96-88c-3.040-8.32-12.32-12.48-20.64-9.44s-12.48 12.32-9.44 20.64l48 128c5.12 13.76 24.8 13.76 29.92 0l48-128c4-10.56-3.84-21.6-15.040-21.6z" />
<glyph unicode="&#xe9b3;" d="M176 656h-64c-8.8 0-16 7.2-16 16s7.2 16 16 16h64c8.8 0 16-7.2 16-16s-7.2-16-16-16zM256 624c-8.8 0-16 7.2-16 16v128c0 8.8 7.2 16 16 16s16-7.2 16-16v-128c0-8.8-7.2-16-16-16z" />
<glyph unicode="&#xe9b4;" d="M296 672h-40c-8.8 0-16 7.2-16 16v80c0 8.8 7.2 16 16 16h40c30.88 0 56-25.12 56-56s-25.12-56-56-56zM272 704h24c13.255 0 24 10.745 24 24s-10.745 24-24 24v0h-24v-48zM400 624c-8.8 0-16 7.2-16 16v128c0 8.8 7.2 16 16 16s16-7.2 16-16v-128c0-8.8-7.2-16-16-16z" />
<glyph unicode="&#xe9b5;" d="M480 640c0-8.837-7.163-16-16-16s-16 7.163-16 16c0 8.837 7.163 16 16 16s16-7.163 16-16z" />
<glyph unicode="&#xe9b6;" d="M544 640c0-8.837-7.163-16-16-16s-16 7.163-16 16c0 8.837 7.163 16 16 16s16-7.163 16-16z" />
<glyph unicode="&#xe9b7;" d="M608 640c0-8.837-7.163-16-16-16s-16 7.163-16 16c0 8.837 7.163 16 16 16s16-7.163 16-16z" />
<glyph unicode="&#xe9b8;" d="M80 560h96v-32h-96zM240 560h704v-32h-704zM80 496h96v-32h-96zM240 496h704v-32h-704zM80 432h96v-32h-96zM80 368h96v-32h-96zM240 432h704v-32h-704z" />
<glyph unicode="&#xe9b9;" d="M992 720v-624h-960v624c0 26.56 21.44 48 48 48h864c26.56 0 48-21.44 48-48z" />
<glyph unicode="&#xe9ba;" d="M16 96h992c8.8 0 16-7.2 16-16v-32c0-26.56-21.44-48-48-48h-928c-26.56 0-48 21.44-48 48v32c0 8.8 7.2 16 16 16z" />
<glyph unicode="&#xe9bb;" d="M960 720v-592h-896v592c0 8.8 7.2 16 16 16h864c8.8 0 16-7.2 16-16z" />
<glyph unicode="&#xe9bc;" d="M624 64h-224c-17.6 0-32 14.4-32 32 0 1.6-13.44 0 288 0 0-12.96-10.080-32-32-32z" />
<glyph unicode="&#xe9bd;" d="M960 720v-48h-896v48c0 8.8 7.2 16 16 16h864c8.8 0 16-7.2 16-16z" />
<glyph unicode="&#xe9be;" d="M288 736h272c26.56 0 48-21.44 48-48v-16h-320v64z" />
<glyph unicode="&#xe9bf;" d="M80 736h224c26.56 0 48-21.44 48-48v-16h-288v48c0 8.8 7.2 16 16 16z" />
<glyph unicode="&#xe9c0;" d="M96 624h32v-464h-32z" />
<glyph unicode="&#xe9c1;" d="M255.040 613.6c-5.12 13.76-24.8 13.76-29.92 0l-48-128c-7.36-19.84 22.56-31.040 29.92-11.2l8.16 21.6h49.76l8.16-21.6c7.52-19.84 37.44-8.64 29.92 11.2l-48 128zM227.2 528l12.96 34.4 12.96-34.4h-25.76zM408 624h-56c-8.8 0-16-7.2-16-16v-128c0-21.12 32-21.12 32 0v32h40c30.88 0 56 25.12 56 56s-25.12 56-56 56zM408 544h-40v48h40c13.255 0 24-10.745 24-24s-10.745-24-24-24v0zM496 608v-128c0-21.12 32-21.12 32 0v128c0 21.12-32 21.12-32 0z" />
<glyph unicode="&#xe9c2;" d="M208 352h128v-32h-128zM176 416h160v-32h-160zM592 352h256v-32h-256zM368 352h192v-32h-192zM432 288h272v-32h-272zM208 288h192v-32h-192zM736 288h112v-32h-112zM336 224h112v-32h-112zM176 224h128v-32h-128z" />
<glyph unicode="&#xe9c3;" d="M992 720v-172.64c-9.76-10.080-20.48-19.040-32-27.040v199.68c0 8.8-7.2 16-16 16h-333.6c1.44 10.88 3.84 21.6 6.88 32h326.72c26.56 0 48-21.44 48-48z" />
<glyph unicode="&#xe9c4;" d="M960 672v-151.68c-135.84-95.2-325.92-13.12-349.76 151.68h349.76z" />
<glyph unicode="&#xe9c5;" d="M960 720v-48h-349.76c-2.88 20.96-3.2 42.56 0.16 64h333.6c8.8 0 16-7.2 16-16z" />
<glyph unicode="&#xe9c6;" d="M1024 704c0-106.039-85.961-192-192-192s-192 85.961-192 192c0 106.039 85.961 192 192 192s192-85.961 192-192z" />
<glyph unicode="&#xe9c7;" d="M992 688v32c0 8.8-7.2 16-16 16s-19.2-1.28-23.68 11.2c-3.84 10.56-11.2 20.64-1.76 30.080l5.92 5.92c6.24 6.24 6.24 16.32 0 22.56l-22.72 22.72c-6.24 6.24-16.32 6.24-22.56 0s-12.64-14.4-24.64-8.8c-10.24 4.8-22.56 6.56-22.56 20v8.32c0 8.8-7.2 16-16 16h-32c-8.8 0-16-7.2-16-16s1.28-19.2-11.2-23.68c-10.56-3.84-20.64-11.2-30.080-1.76l-5.92 5.92c-6.24 6.24-16.32 6.24-22.56 0l-22.72-22.72c-6.24-6.24-6.24-16.32 0-22.56s14.4-12.64 8.8-24.64c-4.8-10.24-6.56-22.56-20-22.56h-8.32c-8.8 0-16-7.2-16-16v-32c0-8.8 7.2-16 16-16s19.2 1.28 23.68-11.2c3.84-10.56 11.2-20.64 1.76-30.080l-5.92-5.92c-6.24-6.24-6.24-16.32 0-22.56l22.72-22.72c6.24-6.24 16.32-6.24 22.56 0s12.64 14.4 24.64 8.8c10.24-4.8 22.56-6.56 22.56-20v-8.32c0-8.8 7.2-16 16-16h32c8.8 0 16 7.2 16 16s-1.28 19.2 11.2 23.68c10.56 3.84 20.64 11.2 30.080 1.76l5.92-5.92c6.24-6.24 16.32-6.24 22.56 0l22.72 22.72c6.24 6.24 6.24 16.32 0 22.56s-14.4 12.64-8.8 24.64c4.8 10.24 6.56 22.56 20 22.56h8.32c8.8 0 16 7.2 16 16zM876.48 655.36c-67.2-48-141.12 26.080-93.12 93.12 1.154 1.628 2.532 3.006 4.107 4.124l0.053 0.036c67.2 48 141.12-26.080 93.12-93.12-1.154-1.628-2.532-3.006-4.107-4.124l-0.053-0.036z" />
<glyph unicode="&#xe9c8;" d="M784 800v-704c0-52.96-43.040-96-96-96h-352c-52.96 0-96 43.040-96 96v704c0 51.2 40.16 93.12 90.72 95.68 1.92 0.48-15.36 0.32 357.28 0.32 52.96 0 96-43.040 96-96z" />
<glyph unicode="&#xe9c9;" d="M752 800v-672c0-35.346-28.654-64-64-64v0h-352c-35.346 0-64 28.654-64 64v0 656c0.020 41.802 32.097 76.105 72.98 79.659l0.3 0.021c5.6 0.32 0.16 0.32 43.2 0.32 13.44 0 15.52-11.84 20.16-26.080 4.401-12.822 16.337-21.881 30.395-21.92h145.925c14.063 0.039 25.999 9.098 30.332 21.694l0.068 0.226 4.96 15.040c2.195 6.43 8.158 10.983 15.193 11.040h52.487c35.346 0 64-28.654 64-64v0z" />
<glyph unicode="&#xe9ca;" d="M320 704h160v-256h-160zM544 448h160v-256h-160z" />
<glyph unicode="&#xe9cb;" d="M544 768h160v-160h-160zM320 400h160v-160h-160z" />
<glyph unicode="&#xe9cc;" d="M320 768h144v-32h-144zM544 576h144v-32h-144zM544 512h144v-32h-144zM320 208h144v-32h-144zM544 160h144v-32h-144z" />
<glyph unicode="&#xe9cd;" d="M345.28 863.68c-41.183-3.575-73.26-37.878-73.28-79.678v-134.402c-12.16-23.2-15.36-43.040-16-44.8 0-20.16 0.32-39.36-16-60.8v256c0 54.24 45.28 95.84 92.48 95.84 4.852-9.128 9.207-19.794 12.487-30.922l0.313-1.238z" />
<glyph unicode="&#xe9ce;" d="M320 768v-32h12.64c-19.52-38.72-39.2-44.48-60.64-86.4v134.4c0.020 41.802 32.097 76.105 72.98 79.659l0.3 0.021c4.267-14.332 6.722-30.799 6.722-47.84s-2.455-33.508-7.032-49.068l0.31 1.228h-25.28z" />
<glyph unicode="&#xe9cf;" d="M345.28 768c-3.040-11.040-7.36-21.76-12.64-32h-12.64v32h25.28z" />
<glyph unicode="&#xe9d0;" d="M320 816c0-94.4-74.72-102.88-95.2-204.32-0.96-4.96 13.76-3.68-96.8-3.68-8.16 40.48-24.64 76.8-54.4 106.88-90.4 91.52-23.52 248.64 106.4 245.12 76.8-2.080 140-67.2 140-144z" />
<glyph unicode="&#xe9d1;" d="M161.12 602.080l-64 160c-0.718 1.753-1.135 3.788-1.135 5.92 0 8.837 7.163 16 16 16 0.005 0 0.011 0 0.016 0h-0.001c141.12 0 134.88 2.56 141.28-7.040s5.92-4.32-62.4-174.88c-5.44-13.44-24.32-13.44-29.76 0zM135.68 752l40.32-100.96 40.32 100.96h-80.8z" />
<glyph unicode="&#xe9d2;" d="M176 544c-26.56 0-48 21.44-48 48v16h96v-16c0-26.56-21.44-48-48-48z" />
<glyph unicode="&#xe9d3;" d="M784 224v-128c0-52.96-43.040-96-96-96h-80v64h80c35.346 0 64 28.654 64 64v0 96h32z" />
<glyph unicode="&#xe9d4;" d="M752 224v-96c0-35.346-28.654-64-64-64v0h-80v64h80v32h-80c0.013 11.79 3.221 22.827 8.803 32.298l-0.163-0.298h87.36v32h48z" />
<glyph unicode="&#xe9d5;" d="M608 160h80v-32h-80z" />
<glyph unicode="&#xe9d6;" d="M704 224v-32h-87.36c21.44 37.28 57.76 32 87.36 32z" />
<glyph unicode="&#xe9d7;" d="M992 160v-192c0-17.6-14.4-32-32-32-309.76 0-297.76-3.84-310.56 9.44-12.96 12.64-9.44 8-9.44 214.56 0 17.6 14.4 32 32 32h288c17.6 0 32-14.4 32-32z" />
<glyph unicode="&#xe9d8;" d="M992 32v-64c0-17.6-14.4-32-32-32-309.76 0-297.76-3.84-310.56 9.44l96 96c12.48 12.48 32.8 12.48 45.28 0l2.72-2.72c12.48-12.48 32.8-12.48 45.28 0l50.72 50.72c12.48 12.48 32.8 12.48 45.28 0l57.44-57.44z" />
<glyph unicode="&#xe9d9;" d="M752 128c0-17.673-14.327-32-32-32s-32 14.327-32 32c0 17.673 14.327 32 32 32s32-14.327 32-32z" />
<glyph unicode="&#xe9da;" d="M640 368.8v-320.8h-576v320.8c0 28.16 18.4 52.96 45.12 61.12l162.88 50.080h160l162.88-50.080c26.34-8.317 45.105-32.525 45.12-61.118v-0.002zM144 752h48v-96h-48z" />
<glyph unicode="&#xe9db;" d="M480 736h-304c-35.346 0-64 28.654-64 64v0 112h336c26.56 0 48-21.44 48-48 35.346 0 64-28.654 64-64v0-112h-48v16c0 17.6-14.4 32-32 32z" />
<glyph unicode="&#xe9dc;" d="M544 576h-48v128h48c17.6 0 32-14.4 32-32v-64c0-17.6-14.4-32-32-32zM160 704h48v-144h-48c-17.6 0-32 14.4-32 32v80c0 17.6 14.4 32 32 32z" />
<glyph unicode="&#xe9dd;" d="M352 384c-44.16 0-80 35.68-80 80v48h160v-48c0-44.16-35.84-80-80-80z" />
<glyph unicode="&#xe9de;" d="M352 448c-88.32 0-160 71.68-160 160v128h288c17.6 0 32-14.4 32-32v-96c0-88.32-71.68-160-160-160z" />
<glyph unicode="&#xe9df;" d="M512 496h-80c-8.8 0-16 7.2-16 16s7.2 16 16 16h80c8.8 0 16 7.2 16 16v48c0 8.8 7.2 16 16 16s16-7.2 16-16v-48c0-26.4-21.6-48-48-48z" />
<glyph unicode="&#xe9e0;" d="M312.8 497.76c-5.274 2.733-8.816 8.15-8.816 14.395 0 2.563 0.597 4.987 1.659 7.14l-0.042-0.095c2.733 5.274 8.15 8.816 14.395 8.816 2.563 0 4.987-0.597 7.14-1.659l-0.095 0.042c15.52-7.84 34.080-7.84 49.76 0 7.84 4 17.44 0.8 21.44-7.2 4-7.84 0.8-17.44-7.2-21.44-24-12-53.28-12.48-78.24 0z" />
<glyph unicode="&#xe9e1;" d="M16 0h672c8.8 0 16-7.2 16-16v-16c0-17.6-14.4-32-32-32h-640c-17.6 0-32 14.4-32 32v16c0 8.8 7.2 16 16 16z" />
<glyph unicode="&#xe9e2;" d="M688 384v-384h-672v384c0 17.6 14.4 32 32 32h608c17.6 0 32-14.4 32-32z" />
<glyph unicode="&#xe9e3;" d="M394.72 144.32c-41.28-36.64-106.72-7.68-106.72 47.68s65.44 84.32 106.72 47.68c-24-2.56-42.72-22.88-42.72-47.68s18.72-45.12 42.72-47.68z" />
<glyph unicode="&#xe9e4;" d="M789.92 958.4c-141.12-17.12-224.8-171.36-159.36-300.16 2.357-4.375 3.742-9.574 3.742-15.096 0-1.333-0.081-2.648-0.238-3.939l0.015 0.155-7.36-59.040c-1.28-10.4 7.52-19.2 17.92-17.92 62.88 7.84 65.6 10.080 77.92 3.84 128.8-65.28 282.88 18.4 300.16 159.36 16.16 135.68-97.44 249.28-232.8 232.8z" />
<glyph unicode="&#xe9e5;" d="M688 368v-352c-97.12 0-176 78.88-176 176s78.88 176 176 176z" />
<glyph unicode="&#xe9e6;" d="M832 192c0-79.529-64.471-144-144-144s-144 64.471-144 144c0 79.529 64.471 144 144 144s144-64.471 144-144z" />
<glyph unicode="&#xe9e7;" d="M800 192c0-61.856-50.144-112-112-112s-112 50.144-112 112c0 61.856 50.144 112 112 112s112-50.144 112-112z" />
<glyph unicode="&#xe9e8;" d="M640 192c0-8.837-7.163-16-16-16s-16 7.163-16 16c0 8.837 7.163 16 16 16s16-7.163 16-16z" />
<glyph unicode="&#xe9e9;" d="M704 192c0-8.837-7.163-16-16-16s-16 7.163-16 16c0 8.837 7.163 16 16 16s16-7.163 16-16z" />
<glyph unicode="&#xe9ea;" d="M768 192c0-8.837-7.163-16-16-16s-16 7.163-16 16c0 8.837 7.163 16 16 16s16-7.163 16-16z" />
<glyph unicode="&#xe9eb;" d="M816 672.32c-5.44 0-16 3.68-16 16.32 0 22.88 14.72 42.88 37.44 51.040 25.44 9.12 42.56 33.28 42.56 60.32 0 34.72-29.28 64-64 64-40.32 0-70.88-37.12-62.72-76.8 0.206-0.962 0.323-2.067 0.323-3.2 0-8.838-7.165-16.003-16.003-16.003-7.706 0-14.139 5.446-15.662 12.699l-0.018 0.104c-1.211 5.724-1.904 12.301-1.904 19.040 0 53.046 42.952 96.060 95.974 96.16h0.010c52 0 96-44 96-96-0.048-41.415-26.271-76.694-63.013-90.186l-0.667-0.214c-9.92-3.52-16.32-11.68-16.32-20.96 0.002-0.095 0.003-0.207 0.003-0.32 0-8.837-7.163-16-16-16-0.001 0-0.002 0-0.003 0v0z" />
<glyph unicode="&#xe9ec;" d="M832 624c0-8.837-7.163-16-16-16s-16 7.163-16 16c0 8.837 7.163 16 16 16s16-7.163 16-16z" />
<glyph unicode="&#xe9ed;" d="M1019.36 267.36c-43.52 43.36-107.52 60.8-167.040 45.28l-208.32-54.4c12.32 21.76 6.56 29.92 6.56 32.64-2.065 7.6-6.544 13.948-12.546 18.334l-0.094 0.066-122.4 89.12c-30.24 21.92-66.080 33.6-103.52 33.6h-94.080c-33.12 0-65.28-9.28-93.28-26.72l-89.12-55.68c-4.533-2.901-7.499-7.902-7.52-13.597v-320.003c0-8.8 7.2-16 16-16 119.36 0 147.84 2.4 197.76-9.12 148.96-34.4 159.52-38.88 195.36-38.88 0.158 0 0.346-0.001 0.533-0.001 51.56 0 99.224 16.681 137.889 44.942l-0.662-0.461 342.4 246.56c7.84 5.44 9.28 16.8 2.080 24.32z" />
<glyph unicode="&#xe9ee;" d="M48 416h64c26.51 0 48-21.49 48-48v-384c0-26.51-21.49-48-48-48h-64c-26.51 0-48 21.49-48 48v384c0 26.51 21.49 48 48 48z" />
<glyph unicode="&#xe9ef;" d="M128 0c0-17.673-14.327-32-32-32s-32 14.327-32 32c0 17.673 14.327 32 32 32s32-14.327 32-32z" />
<glyph unicode="&#xe9f0;" d="M687.84 269.76c-8.48-25.76-34.72-53.92-68.48-65.12-10.606-3.647-22.826-5.753-35.539-5.753-20.469 0-39.664 5.46-56.206 15.003l0.545-0.29-18.56 10.56c-7.68 4.48-10.4 14.24-5.92 21.92 4.32 7.52 14.080 10.24 21.76 5.92l18.56-10.56c33.44-19.040 74.88-11.68 100 16.8l43.84 11.52z" />
<glyph unicode="&#xe9f1;" d="M960 816v-288c0-35.346-28.654-64-64-64v0h-178.72c-8.48 0-16.64-3.36-22.72-9.44l-43.2-43.2c-2.918-2.885-6.931-4.667-11.36-4.667s-8.442 1.782-11.362 4.668l0.002-0.001-43.2 43.2c-6.080 6.080-14.24 9.44-22.72 9.44h-82.72c-35.346 0-64 28.654-64 64v0 288c0 35.346 28.654 64 64 64v0h416c35.346 0 64-28.654 64-64v0z" />
<glyph unicode="&#xe9f2;" d="M768 688h128v-32h-128z" />
<glyph unicode="&#xe9f3;" d="M768 688h128v-32h-89.44c-13.92 6.4-26.88 14.56-38.56 24.16v7.84z" />
<glyph unicode="&#xe9f4;" d="M960 816v-156.8c-46.72-24-103.36-26.080-153.44-3.2h89.44v32h-128v-7.84c-22.88 19.040-40.96 43.68-52 71.84h180v32h-189.12c-5.6 30.56-3.2 64 9.12 96h180c35.346 0 64-28.654 64-64v0z" />
<glyph unicode="&#xe9f5;" d="M480 784h128v-32h-128zM672 784h224v-32h-224zM704 656h-224v32h224z" />
<glyph unicode="&#xe9f6;" d="M896 784v-32h-180c-3.653 9.053-6.809 19.783-8.94 30.877l-0.18 1.123h189.12z" />
<glyph unicode="&#xe9f7;" d="M480 592h128v-32h-128zM672 592h224v-32h-224z" />
<glyph unicode="&#xe9f8;" d="M1024 816c0-79.529-64.471-144-144-144s-144 64.471-144 144c0 79.529 64.471 144 144 144s144-64.471 144-144z" />
<glyph unicode="&#xe9f9;" d="M864 785.44c0 20.8 11.68 39.68 31.36 50.56 9.953 5.473 16.586 15.888 16.586 27.853 0 2.146-0.213 4.243-0.62 6.269l0.034-0.203c-4 23.2-32.8 34.72-52 18.56-7.012-5.909-11.436-14.697-11.436-24.518 0-3.829 0.673-7.502 1.906-10.905l-0.071 0.223c0.564-1.576 0.89-3.394 0.89-5.288 0-6.948-4.385-12.872-10.538-15.155l-0.112-0.036c-1.576-0.564-3.394-0.89-5.288-0.89-6.948 0-12.872 4.385-15.155 10.538l-0.036 0.112c-2.326 6.361-3.671 13.706-3.671 21.365 0 19.641 8.848 37.216 22.775 48.956l0.096 0.079c37.92 31.84 95.84 9.92 104.16-37.6 4.8-27.2-8.16-54.4-32.16-67.52-9.28-5.12-14.88-13.6-14.88-22.56 0-21.44-32-22.88-32 0z" />
<glyph unicode="&#xe9fa;" d="M896 720c0-8.837-7.163-16-16-16s-16 7.163-16 16c0 8.837 7.163 16 16 16s16-7.163 16-16z" />
<glyph unicode="&#xe9fb;" d="M576 256.8v-208.8c0-17.6-14.4-32-32-32h-512c-17.6 0-32 14.4-32 32v208.8c0 28.16 18.4 52.96 45.12 61.12l162.88 50.080h160l162.88-50.080c26.34-8.317 45.105-32.525 45.12-61.118v-0.002z" />
<glyph unicode="&#xe9fc;" d="M384 96h112v-32h-112zM272 272h32v-256h-32zM80 640h48v-96h-48z" />
<glyph unicode="&#xe9fd;" d="M416 624h-304c-35.346 0-64 28.654-64 64v0 112h336c26.56 0 48-21.44 48-48 35.346 0 64-28.654 64-64v0-112h-48v16c0 17.6-14.4 32-32 32z" />
<glyph unicode="&#xe9fe;" d="M480 464h-48v128h48c17.6 0 32-14.4 32-32v-64c0-17.6-14.4-32-32-32zM96 592h48v-144h-48c-17.6 0-32 14.4-32 32v80c0 17.6 14.4 32 32 32z" />
<glyph unicode="&#xe9ff;" d="M288 272c-44.16 0-80 35.68-80 80v48h160v-48c0-44.16-35.84-80-80-80z" />
<glyph unicode="&#xea00;" d="M162.72 354.080l29.28-146.080 96 64-80 96-45.28-13.92z" />
<glyph unicode="&#xea01;" d="M413.28 354.080l-29.28-146.080-96 64 80 96 45.28-13.92z" />
<glyph unicode="&#xea02;" d="M288 336c-88.32 0-160 71.68-160 160v128h288c17.6 0 32-14.4 32-32v-96c0-88.32-71.68-160-160-160z" />
<glyph unicode="&#xea03;" d="M448 384h-80c-8.8 0-16 7.2-16 16s7.2 16 16 16h80c8.8 0 16 7.2 16 16v48c0 8.8 7.2 16 16 16s16-7.2 16-16v-48c0-26.4-21.6-48-48-48z" />
<glyph unicode="&#xea04;" d="M1021.76 595.2l-11.84 176c-1.6 25.12-22.72 44.8-47.84 44.8-121.12 0-138.72 2.88-173.92-8.48-56-8.96-36.96-7.52-84.16-7.52-8.8 0-16-7.2-16-16v-208c0-8.8 7.2-16 16-16 22.72 0 43.2-13.44 52.16-34.4l20.8-48.48c7.525-17.268 24.444-29.12 44.131-29.12 0.010 0 0.020 0 0.031 0h-0.002c31.84 0 56.8 28.64 51.68 60.96l-5.92 35.040h106.88c27.040 0 49.76 22.88 48 51.2z" />
<glyph unicode="&#xea05;" d="M608 816h96c8.837 0 16-7.163 16-16v-240c0-8.837-7.163-16-16-16h-96c-8.837 0-16 7.163-16 16v240c0 8.837 7.163 16 16 16z" />
<glyph unicode="&#xea06;" d="M448 128h32v-32h-32z" />
<glyph unicode="&#xea07;" d="M336 384h-96c-8.8 0-16 7.2-16 16v16c0 35.346 28.654 64 64 64s64-28.654 64-64v0-16c0-8.8-7.2-16-16-16zM256 416h64c0 17.6-14.4 32-32 32s-32-14.4-32-32zM240 512c-5.12 0-4.32 0.32-39.2 17.76-5.274 2.733-8.816 8.15-8.816 14.395 0 2.563 0.597 4.987 1.659 7.14l-0.042-0.095c2.733 5.274 8.15 8.816 14.395 8.816 2.563 0 4.987-0.597 7.14-1.659l-0.095 0.042 32-16c15.040-7.52 9.76-30.24-7.2-30.24zM336 512c-16.8 0-22.24 22.88-7.2 30.24l32 16c8 4 17.6 0.8 21.44-7.2 1.053-2.075 1.67-4.524 1.67-7.117 0-6.238-3.57-11.643-8.779-14.281l-0.091-0.042c-35.2-17.6-34.080-17.76-39.2-17.76z" />
<glyph unicode="&#xea08;" d="M461.6 791.52l-80-128c-8.64-13.6-29.6-7.52-29.6 8.48v64h-48c-8.817 0.025-15.956 7.179-15.956 16 0 0.677 0.042 1.344 0.124 1.998l-0.008-0.078 16 128c0.96 8 7.84 14.080 15.84 14.080h96c8.842-0.108 15.969-7.301 15.969-16.159 0-1.076-0.105-2.127-0.306-3.144l0.017 0.103-12.16-60.8h28.48c12.16 0 20.32-13.6 13.6-24.48zM1008 32h-384c-12.32 0-20.16 13.6-13.76 24.16l192 320c5.76 9.76 21.76 9.76 27.52 0l192-320c6.4-10.56-1.44-24.16-13.76-24.16z" />
<glyph unicode="&#xea09;" d="M816 160v0c-9.12 0-16.8 6.88-17.92 15.84l-10.080 80.32c-2.080 16.8 11.040 31.68 28 31.68v0c16.96 0 30.080-14.88 28-31.68l-10.080-80.32c-1.12-9.12-8.8-15.84-17.92-15.84z" />
<glyph unicode="&#xea0a;" d="M848 96c0-17.673-14.327-32-32-32s-32 14.327-32 32c0 17.673 14.327 32 32 32s32-14.327 32-32z" />
<glyph unicode="&#xea0b;" horiz-adv-x="736" d="M640 864v-832c0-52.96-43.040-96-96-96h-448c-52.96 0-96 43.040-96 96v832c0 52.96 43.040 96 96 96l467.2-1.92c43.36-8.8 76.8-47.36 76.8-94.080z" />
<glyph unicode="&#xea0c;" horiz-adv-x="736" d="M96 928h448c35.346 0 64-28.654 64-64v-800c0-35.346-28.654-64-64-64h-448c-35.346 0-64 28.654-64 64v800c0 35.346 28.654 64 64 64z" />
<glyph unicode="&#xea0d;" horiz-adv-x="736" d="M80 688c-26.56 0-48 21.44-48 48v16h96v-16c0-26.56-21.44-48-48-48z" />
<glyph unicode="&#xea0e;" horiz-adv-x="736" d="M176 688c-26.56 0-48 21.44-48 48v16h96v-16c0-26.56-21.44-48-48-48z" />
<glyph unicode="&#xea0f;" horiz-adv-x="736" d="M272 688c-26.56 0-48 21.44-48 48v16h96v-16c0-26.56-21.44-48-48-48z" />
<glyph unicode="&#xea10;" horiz-adv-x="736" d="M368 688c-26.56 0-48 21.44-48 48v16h96v-16c0-26.56-21.44-48-48-48z" />
<glyph unicode="&#xea11;" horiz-adv-x="736" d="M464 688c-26.56 0-48 21.44-48 48v16h96v-16c0-26.56-21.44-48-48-48z" />
<glyph unicode="&#xea12;" horiz-adv-x="736" d="M560 688c-26.56 0-48 21.44-48 48v16h96v-16c0-26.56-21.44-48-48-48z" />
<glyph unicode="&#xea13;" horiz-adv-x="736" d="M96 928h32v-176h-96v112c0 35.36 28.64 64 64 64z" />
<glyph unicode="&#xea14;" horiz-adv-x="736" d="M128 928h96v-176h-96v176z" />
<glyph unicode="&#xea15;" horiz-adv-x="736" d="M224 928h96v-176h-96v176z" />
<glyph unicode="&#xea16;" horiz-adv-x="736" d="M320 928h96v-176h-96v176z" />
<glyph unicode="&#xea17;" horiz-adv-x="736" d="M416 928h96v-176h-96v176z" />
<glyph unicode="&#xea18;" horiz-adv-x="736" d="M512 928h32c35.36 0 64-28.64 64-64v-112h-96v176z" />
<glyph unicode="&#xea19;" horiz-adv-x="736" d="M496 32h-352c-21.12 0-21.12 32 0 32h352c21.12 0 21.12-32 0-32zM416 128h-192c-35.36 0-64 28.64-64 64s28.8 64 64 64c209.12 0 207.2 4 229.44-12.16 49.92-35.68 24.8-115.84-37.44-115.84z" />
<glyph unicode="&#xea1a;" horiz-adv-x="736" d="M528 384c-14.080 0-21.44 17.12-11.36 27.36l20.64 20.64-20.64 20.64c-15.040 15.040 7.68 37.6 22.56 22.56l32-32c6.24-6.24 6.24-16.32 0-22.56-34.88-34.88-34.72-36.64-43.36-36.64v0zM112 384c-8.64 0-9.12 2.4-43.36 36.64-6.24 6.24-6.24 16.32 0 22.56l32 32c15.040 15.040 37.6-7.68 22.56-22.56l-20.64-20.64 20.64-20.64c6.24-6.4 5.92-16.64-0.48-22.88-2.88-2.88-6.88-4.48-10.88-4.48v0z" />
<glyph unicode="&#xea1b;" horiz-adv-x="736" d="M640 276.96v-244.96c0-52.96-43.040-96-96-96h-73.92c-24.8 16.32-45.28 38.24-60.16 64h134.080c35.36 0 64 28.64 64 64v221.28c11.040-1.76 21.76-4.64 32-8.32z" />
<glyph unicode="&#xea1c;" horiz-adv-x="736" d="M608 285.28v-221.28c0-35.36-28.64-64-64-64h-134.080c-5.92 10.24-10.88 20.96-14.88 32h100.96c21.12 0 21.12 32 0 32h-109.12c-3.68 20-3.84 41.76 0 64 30.080 0 52.32-3.2 74.56 18.72 28.16 28.64 23.68 74.56-7.84 97.12 43.040 35.68 99.52 50.88 154.56 41.44z" />
<glyph unicode="&#xea1d;" horiz-adv-x="736" d="M416 128h-29.28c7.68 46.24 32.16 86.88 66.72 115.84 50.4-36 24.16-115.84-37.44-115.84zM496 32h-100.96c-3.68 10.24-6.56 20.96-8.16 32h109.12c21.12 0 21.12-32 0-32z" />
<glyph unicode="&#xea1e;" horiz-adv-x="736" d="M736 96c0-88.366-71.634-160-160-160s-160 71.634-160 160c0 88.366 71.634 160 160 160s160-71.634 160-160z" />
<glyph unicode="&#xea1f;" horiz-adv-x="736" d="M668 138.56c-3.040 3.52-7.36 5.44-12 5.44h-7.36l-27.2 40.8c-11.68 17.6-38.4 0-26.56-17.76l15.36-23.2h-68.16l15.36 23.2c11.84 17.6-14.88 35.36-26.56 17.76l-27.2-40.8h-7.36c-9.6 0-17.12-8.48-15.84-17.92l13.44-83.040c2.56-15.52 15.84-26.88 31.52-26.88h101.76c15.68 0 29.12 11.36 31.52 26.88 14.56 89.76 16.32 88 9.6 95.68h-0.32z" />
<glyph unicode="&#xea20;" horiz-adv-x="736" d="M176 448h288v-128c0-8.8-7.2-16-16-16h-256c-8.8 0-16 7.2-16 16v128z" />
<glyph unicode="&#xea21;" horiz-adv-x="736" d="M480 448l-160-32-160 32v80c0 8.8 7.2 16 16 16h288c8.8 0 16-7.2 16-16v-80z" />
<glyph unicode="&#xea22;" horiz-adv-x="736" d="M384 512h-128c-8.8 0-16 7.2-16 16v64c0 8.8 7.2 16 16 16h128c8.8 0 16-7.2 16-16v-64c0-8.8-7.2-16-16-16zM272 544h96v32h-96v-32z" />
<glyph unicode="&#xea23;" horiz-adv-x="736" d="M304 448h32c8.8 0 16-7.2 16-16v-32h-64v32c0 8.8 7.2 16 16 16z" />
<glyph unicode="&#xea24;" horiz-adv-x="736" d="M304 400h32v-16h-32v16z" />
<glyph unicode="&#xea25;" d="M880.64 512h-737.28c-31.040 0-42.88 40.48-17.6 57.28l386.24 262.72 386.24-262.72c25.28-16.96 13.44-57.28-17.6-57.28z" />
<glyph unicode="&#xea26;" d="M880 544h-736l368 256 368-256z" />
<glyph unicode="&#xea27;" d="M684.16 714.88c-4.32-8.48-9.12-16.8-14.72-24.48l-157.44 109.6-157.44-109.6c-5.6 7.68-10.4 16-14.72 24.48l172.16 117.12 172.16-117.12z" />
<glyph unicode="&#xea28;" d="M669.44 690.4c-76.32-109.76-238.56-109.76-314.88 0l157.44 109.6 157.44-109.6z" />
<glyph unicode="&#xea29;" d="M672 800c0-88.366-71.634-160-160-160s-160 71.634-160 160c0 88.366 71.634 160 160 160s160-71.634 160-160z" />
<glyph unicode="&#xea2a;" d="M144 512h736v-16c0-26.56-21.44-48-48-48h-640c-26.56 0-48 21.44-48 48v16z" />
<glyph unicode="&#xea2b;" d="M192 448h128v-352h-128zM448 448h128v-352h-128zM704 448h128v-352h-128z" />
<glyph unicode="&#xea2c;" d="M192 96h640c17.6 0 32-14.4 32-32v-32h-704v32c0 17.6 14.4 32 32 32z" />
<glyph unicode="&#xea2d;" d="M944-64c0-1.6 26.88 0-864 0 0 25.92 19.68 38.56 30.4 42.080 14.56 4.8 20.16 13.44 22.72 21.12l7.36 21.92c2.202 6.379 8.155 10.88 15.159 10.88 0.015 0 0.029 0 0.044 0h712.798c6.88 0 12.96-4.48 15.2-10.88l7.36-21.92c3.2-9.6 10.72-17.12 20.16-20.16 22.72-7.52 32.8-25.12 32.8-42.88z" />
<glyph unicode="&#xea2e;" d="M512 816c-21.12 0-21.12 32 0 32h32c21.12 0 21.12 32 0 32h-16v16c0 21.12-32 21.12-32 0l0.64-18.72c-51.36-17.6-38.4-93.28 15.36-93.28 21.12 0 21.12-32 0-32h-32c-21.12 0-21.12-32 0-32h16v-16c0-21.12 32-21.12 32 0l-0.64 18.72c51.36 17.6 38.4 93.28-15.36 93.28z" />
<glyph unicode="&#xea2f;" d="M96 864h832c35.346 0 64-28.654 64-64v-640c0-35.346-28.654-64-64-64h-832c-35.346 0-64 28.654-64 64v640c0 35.346 28.654 64 64 64z" />
<glyph unicode="&#xea30;" d="M704-64h-384c40.96 40.96 64 96.48 64 154.56v5.44h256v-5.44c0.010-60.354 24.465-114.994 64.001-154.561l-0.001 0.001z" />
<glyph unicode="&#xea31;" d="M304-32h416c8.837 0 16-7.163 16-16s-7.163-16-16-16h-416c-8.837 0-16 7.163-16 16s7.163 16 16 16z" />
<glyph unicode="&#xea32;" d="M96 816h832c8.837 0 16-7.163 16-16v-608c0-8.837-7.163-16-16-16h-832c-8.837 0-16 7.163-16 16v608c0 8.837 7.163 16 16 16z" />
<glyph unicode="&#xea33;" d="M944 736v-544c0-8.8-7.2-16-16-16h-832c-8.8 0-16 7.2-16 16v608c0 8.8 7.2 16 16 16h225.28c19.36 0 37.76-8.8 49.92-24l25.6-32c12.16-15.2 30.56-24 49.92-24h497.28z" />
<glyph unicode="&#xea34;" d="M743.2 816h-462.4c4.48 16.8 11.040 32.8 19.040 48h424.32c8-15.2 14.56-31.2 19.040-48z" />
<glyph unicode="&#xea35;" d="M752 752l-0.64-16h-304.64c-19.36 0-37.76 8.8-49.92 24l-25.6 32c-12.16 15.2-30.56 24-49.92 24h421.92c5.76-20.32 8.8-41.76 8.8-64z" />
<glyph unicode="&#xea36;" d="M751.36 736c-8.16-124.96-112.48-224-239.36-224s-240 107.68-240 240c0 22.24 3.040 43.68 8.8 64h40.48c19.36 0 37.76-8.8 49.92-24l25.6-32c12.16-15.2 30.56-24 49.92-24h304.64z" />
<glyph unicode="&#xea37;" d="M720 752c0-114.875-93.125-208-208-208s-208 93.125-208 208c0 114.875 93.125 208 208 208s208-93.125 208-208z" />
<glyph unicode="&#xea38;" d="M384 784h256v-64h-256z" />
<glyph unicode="&#xea39;" d="M128 480h224v-256h-224zM416 480h448v-32h-448zM416 400h416v-32h-416zM416 320h224v-32h-224z" />
<glyph unicode="&#xea3a;" d="M896 672c0-8.837-7.163-16-16-16s-16 7.163-16 16c0 8.837 7.163 16 16 16s16-7.163 16-16z" />
<glyph unicode="&#xea3b;" d="M832 672c0-8.837-7.163-16-16-16s-16 7.163-16 16c0 8.837 7.163 16 16 16s16-7.163 16-16z" />
<glyph unicode="&#xea3c;" d="M64 664h896v-608h-896v608z" />
<glyph unicode="&#xea3d;" d="M112 728h-96c-8.8 0-16-7.2-16-16v-96c0-21.44 32-20.64 32 0v80h80c21.12 0 21.12 32 0 32zM912 728h96c8.8 0 16-7.2 16-16v-96c0-21.44-32-20.64-32 0v80h-80c-21.12 0-21.12 32 0 32zM112-8h-96c-8.8 0-16 7.2-16 16v96c0 21.44 32 20.64 32 0v-80h80c21.12 0 21.12-32 0-32zM912-8h96c8.8 0 16 7.2 16 16v96c0 21.44-32 20.64-32 0v-80h-80c-21.12 0-21.12-32 0-32z" />
<glyph unicode="&#xea3e;" d="M96 632h64v-544h-64v544z" />
<glyph unicode="&#xea3f;" d="M192 632h64v-480h-64v480z" />
<glyph unicode="&#xea40;" d="M288 632h32v-480h-32v480zM352 632h32v-480h-32v480z" />
<glyph unicode="&#xea41;" d="M416 632h64v-480h-64v480z" />
<glyph unicode="&#xea42;" d="M512 632h32v-544h-32v544z" />
<glyph unicode="&#xea43;" d="M576 632h64v-480h-64v480zM672 632h64v-480h-64v480z" />
<glyph unicode="&#xea44;" d="M768 632h64v-544h-64v544zM864 632h64v-544h-64v544z" />
<glyph unicode="&#xea45;" d="M192 120h64v-32h-64v32zM416 120h64v-32h-64v32zM576 120h64v-32h-64v32zM672 120h64v-32h-64v32z" />
<glyph unicode="&#xea46;" d="M288 120h32v-32h-32v32zM352 120h32v-32h-32v32z" />
<glyph unicode="&#xea47;" d="M686.56 664c-11.040-24-26.88-45.44-46.56-62.88v30.88h-64v-68.96c-10.24-3.68-20.96-6.56-32-8.32v77.28h-32v-80c-10.88 0-21.6 0.96-32 2.72v77.28h-64v-54.24c-11.52 6.56-22.24 14.4-32 23.36v30.88h-27.84c-7.2 9.92-13.44 20.64-18.72 32h349.12z" />
<glyph unicode="&#xea48;" d="M356.16 632h27.84v-30.88c-10.4 9.28-19.84 19.52-27.84 30.88zM416 632h64v-77.28c-22.56 3.84-44.16 11.68-64 23.040v54.24zM512 632h32v-77.28c-10.4-1.76-21.12-2.72-32-2.72v80zM640 632v-30.88c-18.56-16.8-40.32-29.76-64-38.080v68.96h64z" />
<glyph unicode="&#xea49;" d="M672 744c0-88.366-71.634-160-160-160s-160 71.634-160 160c0 88.366 71.634 160 160 160s160-71.634 160-160z" />
<glyph unicode="&#xea4a;" d="M480 664c-4.16 0-8.32 1.6-11.36 4.64l-48 48c-6.24 6.24-6.24 16.32 0 22.56s16.32 6.24 22.56 0l35.84-35.84 100.8 115.2c5.92 6.72 16 7.36 22.56 1.44 6.72-5.76 7.36-16 1.44-22.56l-112-128c-2.88-3.36-7.040-5.28-11.52-5.44h-0.48z" />
<glyph unicode="&#xea4b;" horiz-adv-x="960" d="M704 608v-672h-704v960c0 35.36 28.64 64 64 64h704z" />
<glyph unicode="&#xea4c;" horiz-adv-x="960" d="M896 560h-192v336c0 35.36 28.64 64 64 64s64-28.64 64-64v-96z" />
<glyph unicode="&#xea4d;" horiz-adv-x="960" d="M960 800h-128v-176c0-35.36 28.64-64 64-64s64 28.64 64 64v176z" />
<glyph unicode="&#xea4e;" horiz-adv-x="960" d="M240 784c0-53.019-42.981-96-96-96s-96 42.981-96 96c0 53.019 42.981 96 96 96s96-42.981 96-96z" />
<glyph unicode="&#xea4f;" horiz-adv-x="960" d="M215.36 720c-35.040-39.36-95.52-42.88-134.88-7.84-2.72 2.4-5.44 5.12-7.84 7.84 35.040 39.36 95.52 42.88 134.88 7.84 2.72-2.4 5.44-5.12 7.84-7.84z" />
<glyph unicode="&#xea50;" horiz-adv-x="960" d="M192 800c0-26.51-21.49-48-48-48s-48 21.49-48 48c0 26.51 21.49 48 48 48s48-21.49 48-48z" />
<glyph unicode="&#xea51;" horiz-adv-x="960" d="M592 640c-8.8 0-16 7.2-16 16v16h-32c-8.8 0-16 7.2-16 16s7.2 16 16 16h56c13.28 0 24 10.72 24 24s-10.72 24-24 24h-16c-30.88 0-56 25.12-56 56 0 28.16 20.96 51.52 48 55.36v16.64c0 8.8 7.2 16 16 16s16-7.2 16-16v-16h32c8.8 0 16-7.2 16-16s-7.2-16-16-16h-56c-13.28 0-24-10.72-24-24s10.72-24 24-24h16c30.88 0 56-25.12 56-56 0-28.16-20.96-51.52-48-55.36v-16.64c0-8.8-7.2-16-16-16z" />
<glyph unicode="&#xea52;" horiz-adv-x="960" d="M48 656h288v-32h-288v32zM48 592h384v-32h-384v32z" />
<glyph unicode="&#xea53;" horiz-adv-x="960" d="M640 512h-576c-8.8 0-16-7.2-16-16v-512c0-8.8 7.2-16 16-16h576c8.8 0 16 7.2 16 16v512c0 8.8-7.2 16-16 16zM624 384h-288v32h288v-32zM624 320h-288v32h288v-32zM624 256h-288v32h288v-32zM624 192h-288v32h288v-32zM624 128h-288v32h288v-32zM80 160h96v-32h-96v32zM80 224h96v-32h-96v32zM80 288h96v-32h-96v32zM80 352h96v-32h-96v32zM304 256h-96v32h96v-32zM208 224h96v-32h-96v32zM304 320h-96v32h96v-32zM208 160h96v-32h-96v32zM304 384h-96v32h96v-32zM176 384h-96v32h96v-32zM80 96h96v-32h-96v32zM208 96h96v-32h-96v32zM336 96h288v-32h-288v32zM624 448h-288v32h288v-32zM304 448h-96v32h96v-32zM80 480h96v-32h-96v32zM80 32h96v-32h-96v32zM208 32h96v-32h-96v32zM624 0h-288v32h288v-32z" />
<glyph unicode="&#xea54;" d="M832 896l-64-384v-512h-624c-26.56 0-48 21.44-48 48v800c0 26.56 21.44 48 48 48h688z" />
<glyph unicode="&#xea55;" d="M944 512h-176v320c0 35.346 28.654 64 64 64s64-28.654 64-64v0-128z" />
<glyph unicode="&#xea56;" d="M944 512c-26.56 0-48 21.44-48 48v144h96v-144c0-26.56-21.44-48-48-48z" />
<glyph unicode="&#xea57;" d="M96 685.44v162.56c0 26.56 21.44 48 48 48h162.56c58.56-132.16-78.24-269.12-210.56-210.56z" />
<glyph unicode="&#xea58;" d="M288 832c0-70.692-57.308-128-128-128s-128 57.308-128 128c0 70.692 57.308 128 128 128s128-57.308 128-128z" />
<glyph unicode="&#xea59;" d="M160 848c-21.12 0-21.12 32 0 32h32c21.12 0 21.12 32 0 32h-16c0 20.32-32 23.36-32-2.88-50.88-18.24-37.28-93.12 16-93.12 21.12 0 21.12-32 0-32h-32c-21.12 0-21.12-32 0-32h16c0-19.84 32-23.84 32 2.88 50.88 18.24 37.28 93.12-16 93.12z" />
<glyph unicode="&#xea5a;" d="M688 0h160c8.837 0 16-7.163 16-16v-32c0-8.837-7.163-16-16-16h-160c-8.837 0-16 7.163-16 16v32c0 8.837 7.163 16 16 16z" />
<glyph unicode="&#xea5b;" d="M688 64h160c8.837 0 16-7.163 16-16v-32c0-8.837-7.163-16-16-16h-160c-8.837 0-16 7.163-16 16v32c0 8.837 7.163 16 16 16z" />
<glyph unicode="&#xea5c;" d="M688 128h160c8.837 0 16-7.163 16-16v-32c0-8.837-7.163-16-16-16h-160c-8.837 0-16 7.163-16 16v32c0 8.837 7.163 16 16 16z" />
<glyph unicode="&#xea5d;" d="M496 0h160c8.837 0 16-7.163 16-16v-32c0-8.837-7.163-16-16-16h-160c-8.837 0-16 7.163-16 16v32c0 8.837 7.163 16 16 16z" />
<glyph unicode="&#xea5e;" d="M496 64h160c8.837 0 16-7.163 16-16v-32c0-8.837-7.163-16-16-16h-160c-8.837 0-16 7.163-16 16v32c0 8.837 7.163 16 16 16z" />
<glyph unicode="&#xea5f;" d="M160 640h256v-32h-256z" />
<glyph unicode="&#xea60;" d="M480 640h224v-32h-224z" />
<glyph unicode="&#xea61;" d="M160 576h208v-32h-208z" />
<glyph unicode="&#xea62;" d="M480 576h224v-32h-224z" />
<glyph unicode="&#xea63;" d="M160 512h256v-32h-256z" />
<glyph unicode="&#xea64;" d="M480 512h224v-32h-224z" />
<glyph unicode="&#xea65;" d="M160 448h224v-32h-224zM480 240h224v-32h-224z" />
<glyph unicode="&#xea66;" d="M480 448h224v-32h-224z" />
<glyph unicode="&#xea67;" d="M160 384h256v-32h-256z" />
<glyph unicode="&#xea68;" d="M480 384h224v-32h-224z" />
<glyph unicode="&#xea69;" d="M160 304h544v-32h-544z" />
<glyph unicode="&#xea6a;" d="M576 848h128v-32h-128zM448 784h256v-32h-256z" />
<glyph unicode="&#xea6b;" d="M208 160c-21.12 0-21.12 32 0 32h32c21.12 0 21.12 32 0 32h-16c0 20.32-32 23.36-32-2.88-50.88-18.24-37.28-93.12 16-93.12 21.12 0 21.12-32 0-32h-32c-21.12 0-21.12-32 0-32h16c0-19.84 32-23.84 32 2.88 50.88 18.24 37.28 93.12-16 93.12z" />
<glyph unicode="&#xea6c;" d="M992 656v-624h-960v624c0 26.56 21.44 48 48 48h864c26.56 0 48-21.44 48-48z" />
<glyph unicode="&#xea6d;" d="M16 32h992c8.8 0 16-7.2 16-16v-32c0-26.56-21.44-48-48-48h-928c-26.56 0-48 21.44-48 48v32c0 8.8 7.2 16 16 16z" />
<glyph unicode="&#xea6e;" d="M960 656v-64h-640l-64 80h688c8.8 0 16-7.2 16-16z" />
<glyph unicode="&#xea6f;" d="M960 592v-528h-896v592c0 8.8 7.2 16 16 16h289.28c19.36 0 37.76-8.8 49.92-24l25.6-32c12.16-15.2 30.56-24 49.92-24h465.28z" />
<glyph unicode="&#xea70;" d="M368 32h288c0-17.6-14.4-32-32-32h-224c-17.6 0-32 14.4-32 32v0z" />
<glyph unicode="&#xea71;" d="M710.72 704c-3.040-10.88-6.72-21.6-11.040-32h-375.36c-4.32 10.4-8 21.12-11.040 32h397.44z" />
<glyph unicode="&#xea72;" d="M648.96 592c-33.652-37.132-77.252-64.669-126.596-78.431l-1.884-0.449-8.48-2.24-8.48 2.24c-51.228 14.211-94.828 41.748-128.279 78.654l-0.201 0.226h273.92z" />
<glyph unicode="&#xea73;" d="M699.68 672c-12.787-30.858-29.886-57.35-50.894-80.192l0.174 0.192h-154.24c-19.36 0-37.76 8.8-49.92 24l-25.6 32c-12.16 15.2-30.56 24-49.92 24h330.4z" />
<glyph unicode="&#xea74;" d="M494.72 592h-119.68c-20.834 22.65-37.933 49.143-50.064 78.226l-0.656 1.774h44.96c19.36 0 37.76-8.8 49.92-24l25.6-32c12.16-15.2 30.56-24 49.92-24z" />
<glyph unicode="&#xea75;" d="M688 862.56v-84.96c0-107.68-72.16-202.080-176-230.4v0c-103.84 28.32-176 122.72-176 230.4v84.96c0 12.48 7.36 24 18.72 29.12l144 65.44c8.48 3.84 18.080 3.84 26.56 0l144-65.44c11.36-5.12 18.72-16.64 18.72-29.12z" />
<glyph unicode="&#xea76;" d="M512 931.2l144-64v-88.16c0-90.72-58.080-171.2-144-199.84v0c-85.92 28.64-144 109.12-144 199.84v88.16l144 64z" />
<glyph unicode="&#xea77;" d="M496 707.2c-4.16 0-8.16 1.6-11.36 4.64l-48 48c-6.24 6.24-6.24 16.32 0 22.56s16.32 6.24 22.56 0l36.64-36.64 68.64 68.64c6.24 6.24 16.32 6.24 22.56 0s6.24-16.32 0-22.56l-80-80c-2.842-2.867-6.782-4.642-11.136-4.642-0.079 0-0.157 0.001-0.236 0.002h0.012z" />
<glyph unicode="&#xea78;" d="M224 336c-8.8 0-16 7.2-16 16v89.44l-4.64-4.64c-6.24-6.24-16.32-6.24-22.56 0s-6.24 16.32 0 22.56l32 32c2.899 2.918 6.914 4.724 11.351 4.724 2.196 0 4.289-0.442 6.194-1.243l-0.105 0.039c5.92-2.4 9.92-8.32 9.92-14.72v-128c0-8.8-7.2-16-16-16z" />
<glyph unicode="&#xea79;" d="M224 128c-8.8 0-16 7.2-16 16v89.44l-4.64-4.64c-6.24-6.24-16.32-6.24-22.56 0s-6.24 16.32 0 22.56l32 32c2.899 2.918 6.914 4.724 11.351 4.724 2.196 0 4.289-0.442 6.194-1.243l-0.105 0.039c5.92-2.4 9.92-8.32 9.92-14.72v-128c0-8.8-7.2-16-16-16z" />
<glyph unicode="&#xea7a;" d="M336 128c-8.8 0-16 7.2-16 16v89.44l-4.64-4.64c-6.24-6.24-16.32-6.24-22.56 0s-6.24 16.32 0 22.56l32 32c2.899 2.918 6.914 4.724 11.351 4.724 2.196 0 4.289-0.442 6.194-1.243l-0.105 0.039c5.92-2.4 9.92-8.32 9.92-14.72v-128c0-8.8-7.2-16-16-16z" />
<glyph unicode="&#xea7b;" d="M496 336c-8.8 0-16 7.2-16 16v89.44l-4.64-4.64c-6.24-6.24-16.32-6.24-22.56 0s-6.24 16.32 0 22.56l32 32c2.899 2.918 6.914 4.724 11.351 4.724 2.196 0 4.289-0.442 6.194-1.243l-0.105 0.039c5.92-2.4 9.92-8.32 9.92-14.72v-128c0-8.8-7.2-16-16-16z" />
<glyph unicode="&#xea7c;" d="M384 336h-80c-8.8 0-16 7.2-16 16v128c0 8.8 7.2 16 16 16h80c8.8 0 16-7.2 16-16v-128c0-8.8-7.2-16-16-16zM320 368h48v96h-48v-96z" />
<glyph unicode="&#xea7d;" d="M496 128h-80c-8.8 0-16 7.2-16 16v128c0 8.8 7.2 16 16 16h80c8.8 0 16-7.2 16-16v-128c0-8.8-7.2-16-16-16zM432 160h48v96h-48v-96z" />
<glyph unicode="&#xea7e;" d="M656 128h-80c-8.8 0-16 7.2-16 16v128c0 8.8 7.2 16 16 16h80c8.8 0 16-7.2 16-16v-128c0-8.8-7.2-16-16-16zM592 160h48v96h-48v-96z" />
<glyph unicode="&#xea7f;" d="M656 336h-80c-8.8 0-16 7.2-16 16v128c0 8.8 7.2 16 16 16h80c8.8 0 16-7.2 16-16v-128c0-8.8-7.2-16-16-16zM592 368h48v96h-48v-96z" />
<glyph unicode="&#xea80;" d="M816 336h-80c-8.8 0-16 7.2-16 16v128c0 8.8 7.2 16 16 16h80c8.8 0 16-7.2 16-16v-128c0-8.8-7.2-16-16-16zM752 368h48v96h-48v-96z" />
<glyph unicode="&#xea81;" d="M816 128h-80c-8.8 0-16 7.2-16 16v128c0 8.8 7.2 16 16 16h80c8.8 0 16-7.2 16-16v-128c0-8.8-7.2-16-16-16zM752 160h48v96h-48v-96z" />
<glyph unicode="&#xea82;" d="M480 688c-8.8 0-16 7.2-16 16v16c0 79.36 64.64 144 144 144h160c8.8 0 16-7.2 16-16s-7.2-16-16-16h-160c-61.76 0-112-50.24-112-112v-16c0-8.8-7.2-16-16-16z" />
<glyph unicode="&#xea83;" d="M848 304c0.001-0.271 0.001-0.591 0.001-0.912 0-17.122-1.28-33.945-3.75-50.379l0.229 1.851c-18.4-137.92-113.28-251.68-240.64-297.12-36.856-13.58-79.42-21.436-123.818-21.436-14.779 0-29.354 0.87-43.678 2.563l1.736-0.167c-166.88 18.4-302.080 151.2-323.040 317.76-23.040 182.4 87.68 342.88 247.52 396.64 12.571 4.335 21.441 16.064 21.441 29.865 0 0.076 0 0.151-0.001 0.227v-0.012 21.12c0 17.6 14.4 32 32 32h128c17.6 0 32-14.4 32-32v-21.12c0-13.44 8.32-25.76 21.12-30.080 145.76-48.8 250.88-186.56 250.88-348.8z" />
<glyph unicode="&#xea84;" d="M736 304l-0.48-16c-2.080-34.24-11.040-66.72-25.28-96-5.28-11.2-11.52-21.76-18.4-32-37.92-55.52-97.12-95.52-165.92-107.84-14.88-2.72-30.24-4.16-45.92-4.16s-31.040 1.44-45.92 4.16c-68.8 12.32-128 52.32-165.92 107.84-6.88 10.24-13.12 20.8-18.4 32-14.24 29.28-23.2 61.76-25.28 96-0.32 5.28-0.48 10.56-0.48 16s0.16 10.72 0.48 16c2.080 34.24 11.040 66.72 25.28 96 5.28 11.2 11.52 21.76 18.4 32 37.92 55.52 97.12 95.52 165.92 107.84 14.88 2.72 30.24 4.16 45.92 4.16s31.040-1.44 45.92-4.16c68.8-12.32 128-52.32 165.92-107.84 6.88-10.24 13.12-20.8 18.4-32 14.24-29.28 23.2-61.76 25.28-96 0.32-5.28 0.48-10.56 0.48-16z" />
<glyph unicode="&#xea85;" d="M912 848v0c0-9.44-6.4-17.6-15.52-19.84h-0.8c-29.029-7.615-51.164-30.764-57.192-59.813l-0.088-0.507-3.2-16.16c-1.76-9.12-9.76-15.68-19.2-15.68v0c-9.424 0.034-17.285 6.687-19.177 15.551l-0.023 0.129-3.2 16.16c-5.92 29.44-28.16 52.8-57.28 60.16h-0.8c-9.12 2.56-15.52 10.72-15.52 20.16v0c0 9.44 6.4 17.6 15.52 19.84v0c29.464 7.545 51.882 31.195 57.523 60.794l0.077 0.486 2.72 14.88c1.725 9.162 9.664 16 19.2 16v0h2.080c9.536 0 17.475-6.838 19.181-15.879l0.019-0.121 2.72-14.88c5.44-29.92 28-53.92 57.6-61.28v0c9.12-2.24 15.52-10.4 15.52-19.84z" />
<glyph unicode="&#xea86;" d="M735.52 288l0.48 16-0.48 16h-112c-1.44 32.32-7.52 64.8-17.44 96h104.16c-5.28 11.2-11.52 21.76-18.4 32h-97.44c-16.8 40.48-40.16 77.6-68.48 107.84-14.88 2.72-30.24 4.16-45.92 4.16s-31.040-1.44-45.92-4.16c-28.32-30.24-51.68-67.36-68.48-107.84h-97.44c-6.88-10.24-13.12-20.8-18.4-32h104.16c-9.92-31.2-16-63.68-17.44-96h-112l-0.48-16 0.48-16h112c1.44-32.32 7.52-64.8 17.44-96h-104.16c5.28-11.2 11.52-21.76 18.4-32h97.44c16.8-40.48 40.16-77.6 68.48-107.84 14.88-2.72 30.24-4.16 45.92-4.16s31.040 1.44 45.92 4.16c28.32 30.24 51.68 67.36 68.48 107.84h97.44c6.88 10.24 13.12 20.8 18.4 32h-104.16c9.92 31.2 16 63.68 17.44 96h112zM480 555.52c32.8-27.36 60.16-65.12 79.68-107.52h-159.36c19.52 42.4 46.88 80.16 79.68 107.52zM480 52.48c-32.8 27.36-60.16 65.12-79.68 107.52h159.36c-19.52-42.4-46.88-80.16-79.68-107.52zM572.48 192h-184.96c-10.72 30.88-17.44 63.52-19.040 96h223.040c-1.6-32.48-8.32-65.12-19.040-96zM368.48 320c1.6 32.48 8.32 65.12 19.040 96h184.96c10.72-30.88 17.44-63.52 19.040-96h-223.040z" />
<glyph unicode="&#xea87;" d="M844.48 254.56c-18.4-137.92-113.28-251.68-240.64-297.12-2.56 15.52 0.64 31.84 9.44 45.44l149.12 229.28c11.84 18.24 31.84 29.12 53.6 29.12 10.080 0 19.84-2.4 28.48-6.72z" />
<glyph unicode="&#xea88;" d="M789.92 214.72l-144.8-229.28c-13.44-21.28 1.44-49.44 26.080-49.44h289.76c24.64 0 39.52 28.16 26.080 49.44l-144.8 229.28c-12.32 19.36-39.84 19.36-52.16 0z" />
<glyph unicode="&#xea89;" d="M816 144c8.837 0 16-7.163 16-16v-64c0-8.837-7.163-16-16-16s-16 7.163-16 16v64c0 8.837 7.163 16 16 16z" />
<glyph unicode="&#xea8a;" d="M832 0c0-8.837-7.163-16-16-16s-16 7.163-16 16c0 8.837 7.163 16 16 16s16-7.163 16-16z" />
<glyph unicode="&#xea8b;" d="M138.88 910.080l-101.92-163.68c-13.28-21.28 1.92-48.96 27.040-48.96h203.84c25.12 0 40.32 27.68 27.040 48.96l-101.92 163.68c-12.48 20-41.6 20-54.080 0z" />
<glyph unicode="&#xea8c;" d="M165.44 889.44c8.837 0 16-7.163 16-16v-64c0-8.837-7.163-16-16-16s-16 7.163-16 16v64c0 8.837 7.163 16 16 16z" />
<glyph unicode="&#xea8d;" d="M181.44 745.44c0-8.837-7.163-16-16-16s-16 7.163-16 16c0 8.837 7.163 16 16 16s16-7.163 16-16z" />
<glyph unicode="&#xea8e;" d="M192 960h640c44.16 0 80-35.84 80-80v-800h-800v800c0 44.16 35.84 80 80 80z" />
<glyph unicode="&#xea8f;" d="M192 0h720v160h-720c-44.16 0-80-35.84-80-80s35.68-80 80-80z" />
<glyph unicode="&#xea90;" d="M192 64h720v32h-720c-8.8 0-16-7.2-16-16 0-4.64 3.52-16 16-16z" />
<glyph unicode="&#xea91;" d="M288 896h448c17.673 0 32-14.327 32-32v-224c0-17.673-14.327-32-32-32h-448c-17.673 0-32 14.327-32 32v224c0 17.673 14.327 32 32 32z" />
<glyph unicode="&#xea92;" d="M432 688c-4.16 0-8.16 1.6-11.36 4.64l-48 48c-6.24 6.24-6.24 16.32 0 22.56l48 48c6.24 6.24 16.32 6.24 22.56 0s6.24-16.32 0-22.56l-36.64-36.64 36.64-36.64c2.793-2.9 4.513-6.851 4.513-11.203 0-8.824-7.072-15.996-15.858-16.157h-0.015zM592 688c-14.080 0-21.44 17.12-11.36 27.36l36.64 36.64-36.64 36.64c-6.24 6.24-6.24 16.32 0 22.56s16.32 6.24 22.56 0l48-48c6.24-6.24 6.24-16.32 0-22.56l-48-48c-2.842-2.867-6.782-4.642-11.136-4.642-0.079 0-0.157 0.001-0.236 0.002h0.012zM496 656c-10.080 0-17.6 9.28-15.68 19.2l32 160c1.76 8.64 10.080 14.24 18.88 12.48 8.64-1.76 14.24-10.080 12.48-18.88l-32-160c-1.44-7.68-8.16-12.8-15.68-12.8z" />
<glyph unicode="&#xea93;" d="M384-64c-5.28 0-2.56-0.64-64 30.080l-56.8-28.48c-10.72-5.28-23.2 2.56-23.2 14.24v144h160v-144c0-8.8-7.040-16-16-16z" />
<glyph unicode="&#xea94;" d="M736 480h-448c-8.8 0-16 7.2-16 16 0 4.64 3.52 16 16 16h448c8.8 0 16-7.2 16-16 0-4.64-3.52-16-16-16zM656 384h-288c-8.8 0-16 7.2-16 16 0 4.64 3.52 16 16 16h288c8.8 0 16-7.2 16-16 0-4.64-3.52-16-16-16z" />
<glyph unicode="&#xea95;" d="M0 704h960v-720h-960v720z" />
<glyph unicode="&#xea96;" d="M480 720c-20.48 20.48-48.32 32-77.28 32h-338.72v-704h338.72c28.96 0 56.8-11.52 77.28-32 1.6-1.6 0 2.72 0 704z" />
<glyph unicode="&#xea97;" d="M896 752v-704h-338.72c-28.96 0-56.8-11.52-77.28-32v704c20.48 20.48 48.32 32 77.28 32h338.72z" />
<glyph unicode="&#xea98;" d="M160 672h256v-32h-256v32zM128 608h288v-32h-288v32zM128 544h288v-32h-288v32zM128 480h288v-32h-288v32zM128 416h288v-32h-288v32zM128 352h288v-32h-288v32zM128 288h288v-32h-288v32zM128 224h288v-32h-288v32zM128 160h256v-32h-256v32zM544 672h256v-32h-256v32zM544 608h288v-32h-288v32zM832 512h-288v32h288v-32zM832 448h-288v32h288v-32zM832 384h-288v32h288v-32zM832 320h-288v32h288v-32zM832 256h-288v32h288v-32zM832 192h-288v32h288v-32zM832 128h-256v32h256v-32z" />
<glyph unicode="&#xea99;" d="M176-64l-32 32-32-32v816h64v-816z" />
<glyph unicode="&#xea9a;" d="M960 704v-95.2c-19.36-12.48-40.96-21.76-64-27.2v122.4h64z" />
<glyph unicode="&#xea9b;" d="M896 752v-170.4c-22.24-5.28-45.76-6.56-64-4.96v31.36h-94.56c-14.4 8.96-27.52 19.68-39.36 32h101.92v32h-127.040c-15.040 23.040-25.44 49.12-30.56 80h253.6z" />
<glyph unicode="&#xea9c;" d="M800 640h-101.92c-9.44 9.76-17.92 20.48-25.12 32h127.040v-32zM832 608v-31.36c-34.56 2.56-66.72 13.76-94.56 31.36h94.56z" />
<glyph unicode="&#xea9d;" d="M1024 784c0-97.202-78.798-176-176-176s-176 78.798-176 176c0 97.202 78.798 176 176 176s176-78.798 176-176z" />
<glyph unicode="&#xea9e;" d="M848 656c-8.8 0-16 7.2-16 16v16h-32c-8.8 0-16 7.2-16 16s7.2 16 16 16h56c13.28 0 24 10.72 24 24s-10.72 24-24 24h-16c-30.88 0-56 25.12-56 56 0 28.16 20.96 51.52 48 55.36v16.64c0 8.8 7.2 16 16 16s16-7.2 16-16v-16h32c8.8 0 16-7.2 16-16s-7.2-16-16-16h-56c-13.28 0-24-10.72-24-24s10.72-24 24-24h16c30.88 0 56-25.12 56-56 0-28.16-20.96-51.52-48-55.36v-16.64c0-8.8-7.2-16-16-16z" />
<glyph unicode="&#xea9f;" d="M48.023 720.368h928.435c26.522 0 48.023-21.5 48.023-48.023v-640.3c0-26.522-21.5-48.023-48.023-48.023h-928.435c-26.522 0-48.023 21.5-48.023 48.023v640.3c0 26.522 21.5 48.023 48.023 48.023z" />
<glyph unicode="&#xeaa0;" d="M512.24 713.805v-681.76c-20.49 20.49-48.343 32.015-77.316 32.015h-370.894v704.33h393.625c30.734 0 54.586-24.972 54.586-54.586z" />
<glyph unicode="&#xeaa1;" d="M512.24 713.805v-681.76c20.49 20.49 48.343 32.015 77.316 32.015h370.894v704.33h-393.625c-30.734 0-54.586-24.972-54.586-54.586z" />
<glyph unicode="&#xeaa2;" d="M576.27 688.353h336.158v-192.090h-336.158v192.090zM128.060 688.353h192.090v-288.135h-192.090v288.135zM576.27 464.248h272.128v-32.015h-272.128v32.015zM576.27 400.218h336.158v-32.015h-336.158v32.015zM576.27 336.188h336.158v-32.015h-336.158v32.015zM576.27 272.158h336.158v-32.015h-336.158v32.015zM576.27 208.128h336.158v-32.015h-336.158v32.015zM576.27 144.098h336.158v-32.015h-336.158v32.015zM352.165 688.353h96.045v-32.015h-96.045v32.015zM352.165 624.323h96.045v-32.015h-96.045v32.015zM352.165 560.293h96.045v-32.015h-96.045v32.015zM352.165 496.263h96.045v-32.015h-96.045v32.015zM352.165 432.233h96.045v-32.015h-96.045v32.015zM160.075 368.203h288.135v-32.015h-288.135v32.015zM160.075 304.173h288.135v-32.015h-288.135v32.015zM160.075 240.143h288.135v-32.015h-288.135v32.015zM160.075 176.113h288.135v-32.015h-288.135v32.015z" />
<glyph unicode="&#xeaa3;" d="M176.083 768.39v-752.353l-32.015 32.015-32.015-32.015v752.353c0 17.608 14.407 32.015 32.015 32.015 12.966 0 32.015-10.085 32.015-32.015zM848.398-64l-32.015 144.068 144.068-32.015-112.053-112.053z" />
<glyph unicode="&#xeaa4;" d="M848.398 16.038l32.015 32.015 80.038-80.038-32.015-32.015-80.038 80.038z" />
<glyph unicode="&#xeaa5;" d="M544.255 736.375c0-17.681-14.334-32.015-32.015-32.015s-32.015 14.334-32.015 32.015c0 17.681 14.334 32.015 32.015 32.015s32.015-14.334 32.015-32.015z" />
<glyph unicode="&#xeaa6;" d="M444.368 772.232c-4.002 0-8.164 1.601-11.205 4.642-6.243 6.243-6.403 16.328 0 22.571 20.97 21.29 48.983 32.975 79.077 32.975v0c30.094 0 58.267-11.685 79.237-32.975 6.243-6.243 6.243-16.488 0-22.571-6.243-6.243-16.488-6.243-22.571 0-15.047 15.207-35.056 23.531-56.506 23.531v0c-21.45 0-41.459-8.324-56.346-23.371-3.202-3.202-7.203-4.802-11.365-4.802zM625.413 817.533c-4.162 0-8.164 1.601-11.365 4.642-56.186 56.186-147.589 56.186-203.776 0-6.243-6.243-16.328-6.243-22.571 0s-6.243 16.328 0 22.571c68.672 68.672 180.405 68.672 248.917 0 6.243-6.243 6.243-16.328 0-22.571-3.202-3.202-7.203-4.642-11.365-4.642zM670.714 862.834c-4.002 0-8.164 1.601-11.365 4.642-81.318 80.838-213.22 80.838-294.378 0-6.243-6.243-16.328-6.243-22.571 0s-6.243 16.328 0 22.571c93.484 93.164 245.875 93.164 339.519 0 6.243-6.243 6.243-16.328 0-22.571-3.202-3.202-7.203-4.642-11.365-4.642z" />
<glyph unicode="&#xeaa7;" d="M32 960h960c17.673 0 32-14.327 32-32v-960c0-17.673-14.327-32-32-32h-960c-17.673 0-32 14.327-32 32v960c0 17.673 14.327 32 32 32z" />
<glyph unicode="&#xeaa8;" d="M416 576v-544h544v544h-544zM880 112h-384v384h384v-384z" />
<glyph unicode="&#xeaa9;" d="M96 864h544v-544h-544z" />
<glyph unicode="&#xeaaa;" d="M960 576v-22.72l-521.44-521.28h-22.56v22.56l521.28 521.44h22.72z" />
<glyph unicode="&#xeaab;" d="M932.64 715.36l-4.64-4.64v41.44c0 44.16-35.84 80-80 80h-41.44l4.64 4.64c15.040 15.040-7.68 37.6-22.56 22.56l-35.52-37.28c-0.761-1.8-1.204-3.893-1.204-6.089 0-4.437 1.806-8.452 4.723-11.35l0.001-0.001c34.88-34.88 34.72-36.64 43.36-36.64 14.080 0 21.44 17.12 11.36 27.36l-4.64 4.64h41.44c26.473-0.091 47.909-21.527 48-47.991v-41.449l-4.64 4.64c-15.040 15.040-37.6-7.68-22.56-22.56l32-32c6.24-6.24 16.32-6.24 22.56 0l32 32c15.040 15.040-7.68 37.6-22.56 22.56z" />
<glyph unicode="&#xeaac;" d="M160 160v-128h128v128h-128zM256 64h-64v64h64v-64z" />
<glyph unicode="&#xeaad;" d="M96 224h128v-128h-128z" />
<glyph unicode="&#xeaae;" d="M832 512c0 182.56-152.8 329.28-337.44 319.52-168.96-8.96-304-152.96-302.56-322.24 0.8-98.72 46.4-186.56 117.44-244.64 44.32-36.16 74.24-86.88 85.44-143.040v0c3.016-14.781 15.906-25.747 31.359-25.76h171.521c15.454 0.013 28.344 10.979 31.325 25.554l0.035 0.206c11.36 56.48 41.28 107.040 84.96 142.56 71.84 58.56 117.92 147.68 117.92 247.68z" />
<glyph unicode="&#xeaaf;" d="M512-64c-52.96 0-96 43.040-96 96v64h192v-64c0-52.96-43.040-96-96-96z" />
<glyph unicode="&#xeab0;" d="M512 864c-4.64 0-16 3.52-16 16v64c0 8.8 7.2 16 16 16 4.64 0 16-3.52 16-16v-64c0-8.8-7.2-16-16-16zM263.040 760.96c-3.2-3.2-13.76-8.8-22.56 0l-45.28 45.28c-6.24 6.24-6.24 16.32 0 22.56 3.2 3.2 13.76 8.8 22.56 0l45.28-45.28c6.24-6.24 6.24-16.32 0-22.56zM160 512c0-4.64-3.52-16-16-16h-64c-8.8 0-16 7.2-16 16 0 4.64 3.52 16 16 16h64c8.8 0 16-7.2 16-16zM263.040 263.040c3.2-3.2 8.8-13.76 0-22.56l-45.28-45.28c-6.24-6.24-16.32-6.24-22.56 0-3.2 3.2-8.8 13.76 0 22.56l45.28 45.28c6.24 6.24 16.32 6.24 22.56 0zM760.96 263.040c3.2 3.2 13.76 8.8 22.56 0l45.28-45.28c6.24-6.24 6.24-16.32 0-22.56-3.2-3.2-13.76-8.8-22.56 0l-45.28 45.28c-6.24 6.24-6.24 16.32 0 22.56zM864 512c0 4.64 3.52 16 16 16h64c8.8 0 16-7.2 16-16 0-4.64-3.52-16-16-16h-64c-8.8 0-16 7.2-16 16zM760.96 760.96c-3.2 3.2-8.8 13.76 0 22.56l45.28 45.28c6.24 6.24 16.32 6.24 22.56 0 3.2-3.2 8.8-13.76 0-22.56l-45.28-45.28c-6.24-6.24-16.32-6.24-22.56 0z" />
<glyph unicode="&#xeab1;" d="M624 32h-224c-8.8 0-16 7.2-16 16s7.2 16 16 16h224c8.8 0 16-7.2 16-16s-7.2-16-16-16zM608-32h-192c-8.8 0-16 7.2-16 16s7.2 16 16 16h192c8.8 0 16-7.2 16-16s-7.2-16-16-16z" />
<glyph unicode="&#xeab2;" d="M768 512c0-141.385-114.615-256-256-256s-256 114.615-256 256c0 141.385 114.615 256 256 256s256-114.615 256-256z" />
<glyph unicode="&#xeab3;" d="M736 486.080v52c0 12.16-9.92 22.080-22.080 22.080-4.8 0-16.48 2.4-20.64 14.24-2.964 8.705-6.047 15.947-9.581 22.922l0.461-1.002c-7.2 14.88 6.080 26.24 4.48 24.64 8.64 8.64 8.64 22.56 0 31.2l-36.8 36.8c-8.64 8.64-22.56 8.64-31.2 0-3.52-3.52-13.44-9.92-24.64-4.48-5.973 3.073-13.215 6.156-20.686 8.748l-1.234 0.372c-15.52 5.28-14.24 22.4-14.24 20.64 0 12.16-9.92 22.080-22.080 22.080h-52c-12.16 0-22.080-9.92-22.080-22.080 0-4.8-2.4-16.48-14.24-20.64-8.705-2.964-15.947-6.047-22.922-9.581l1.002 0.461c-14.88-7.2-26.24 6.080-24.64 4.48-8.64 8.64-22.56 8.64-31.2 0l-36.8-36.8c-8.64-8.64-8.64-22.56 0-31.2 3.52-3.52 9.92-13.44 4.48-24.64-3.073-5.973-6.156-13.215-8.748-20.686l-0.372-1.234c-5.28-15.52-22.4-14.24-20.64-14.24-12.16 0-22.080-9.92-22.080-22.080v-52c0-12.16 9.92-22.080 22.080-22.080 4.8 0 16.48-2.4 20.64-14.24 2.964-8.705 6.047-15.947 9.581-22.922l-0.461 1.002c7.2-14.88-6.080-26.24-4.48-24.64-8.64-8.64-8.64-22.56 0-31.2l36.8-36.8c8.64-8.64 22.56-8.64 31.2 0 3.52 3.52 13.44 9.92 24.64 4.48 5.973-3.073 13.215-6.156 20.686-8.748l1.234-0.372c15.52-5.28 14.24-22.4 14.24-20.64 0-12.16 9.92-22.080 22.080-22.080h52c12.16 0 22.080 9.92 22.080 22.080 0 4.8 2.4 16.48 14.24 20.64 8.705 2.964 15.947 6.047 22.922 9.581l-1.002-0.461c14.88 7.2 26.24-6.080 24.64-4.48 8.64-8.64 22.56-8.64 31.2 0l36.8 36.8c8.64 8.64 8.64 22.56 0 31.2-3.52 3.52-9.92 13.44-4.48 24.64 3.073 5.973 6.156 13.215 8.748 20.686l0.372 1.234c5.28 15.52 22.4 14.24 20.64 14.24 12.16 0 22.080 9.92 22.080 22.080z" />
<glyph unicode="&#xeab4;" d="M656 512c0-79.529-64.471-144-144-144s-144 64.471-144 144c0 79.529 64.471 144 144 144s144-64.471 144-144z" />
<glyph unicode="&#xeab5;" d="M448 464c-8.64 0-9.12 2.4-43.36 36.64-6.24 6.24-6.24 16.32 0 22.56l32 32c6.24 6.24 16.32 6.24 22.56 0s6.24-16.32 0-22.56l-20.64-20.64 20.64-20.64c2.793-2.9 4.513-6.851 4.513-11.203 0-8.824-7.072-15.996-15.858-16.157h-0.015zM576 464c-14.080 0-21.44 17.12-11.36 27.36l20.64 20.64-20.64 20.64c-6.24 6.24-6.24 16.32 0 22.56s16.32 6.24 22.56 0l32-32c6.24-6.24 6.24-16.32 0-22.56-34.88-34.88-34.72-36.64-43.36-36.64zM496 432c-8.831 0.007-15.988 7.168-15.988 16 0 1.363 0.171 2.687 0.491 3.951l-0.024-0.111 32 128c1.788 7.029 8.061 12.145 15.529 12.145 1.36 0 2.681-0.17 3.942-0.489l-0.111 0.024c7.029-1.788 12.145-8.061 12.145-15.529 0-1.36-0.17-2.681-0.489-3.942l0.024 0.111-32-128c-1.76-7.2-8.32-12.16-15.52-12.16z" />
<glyph unicode="&#xeab6;" d="M576 896c0-35.346-28.654-64-64-64s-64 28.654-64 64c0 35.346 28.654 64 64 64s64-28.654 64-64z" />
<glyph unicode="&#xeab7;" d="M512 688c-8.8 0-16 7.2-16 16v64c0 8.8 7.2 16 16 16s16-7.2 16-16v-64c0-8.8-7.2-16-16-16z" />
<glyph unicode="&#xeab8;" d="M544 736c-8.8 0-11.040 4.32-32 25.44l-20.64-20.64c-6.24-6.24-16.32-6.24-22.56 0s-6.24 16.32 0 22.56l32 32c6.24 6.24 16.32 6.24 22.56 0l32-32c2.793-2.9 4.513-6.851 4.513-11.203 0-8.824-7.072-15.996-15.858-16.157h-0.015z" />
<glyph unicode="&#xeab9;" d="M259.2 764.8c0-35.346-28.654-64-64-64s-64 28.654-64 64c0 35.346 28.654 64 64 64s64-28.654 64-64z" />
<glyph unicode="&#xeaba;" d="M331.040 612.96c-4.16 0-8.16 1.6-11.36 4.64l-45.28 45.28c-6.24 6.24-6.24 16.32 0 22.56s16.32 6.24 22.56 0l45.28-45.28c2.793-2.9 4.513-6.851 4.513-11.203 0-8.824-7.072-15.996-15.858-16.157h-0.015z" />
<glyph unicode="&#xeabb;" d="M274.4 624.32c-8.8 0-16 7.2-16 16v45.28c0 8.8 7.2 16 16 16h45.28c8.8 0 16-7.2 16-16s-7.2-16-16-16h-29.28v-29.28c0-8.8-7.2-16-16-16z" />
<glyph unicode="&#xeabc;" d="M128 448c0-35.346-28.654-64-64-64s-64 28.654-64 64c0 35.346 28.654 64 64 64s64-28.654 64-64z" />
<glyph unicode="&#xeabd;" d="M256 432h-64c-8.8 0-16 7.2-16 16s7.2 16 16 16h64c8.8 0 16-7.2 16-16s-7.2-16-16-16z" />
<glyph unicode="&#xeabe;" d="M208 400c-8.64 0-9.12 2.4-43.36 36.64-6.24 6.24-6.24 16.32 0 22.56l32 32c6.24 6.24 16.32 6.24 22.56 0s6.24-16.32 0-22.56l-20.64-20.64 20.64-20.64c2.793-2.9 4.513-6.851 4.513-11.203 0-8.824-7.072-15.996-15.858-16.157h-0.015z" />
<glyph unicode="&#xeabf;" d="M259.2 131.2c0-35.346-28.654-64-64-64s-64 28.654-64 64c0 35.346 28.654 64 64 64s64-28.654 64-64z" />
<glyph unicode="&#xeac0;" d="M285.76 205.76c-14.080 0-21.44 17.12-11.36 27.36l45.28 45.28c6.24 6.24 16.32 6.24 22.56 0s6.24-16.32 0-22.56l-45.28-45.28c-2.842-2.867-6.782-4.642-11.136-4.642-0.079 0-0.157 0.001-0.236 0.002h0.012z" />
<glyph unicode="&#xeac1;" d="M319.68 194.4h-45.28c-8.8 0-16 7.2-16 16v45.28c0 8.8 7.2 16 16 16s16-7.2 16-16v-29.28h29.28c8.8 0 16-7.2 16-16s-7.2-16-16-16z" />
<glyph unicode="&#xeac2;" d="M576 0c0-35.346-28.654-64-64-64s-64 28.654-64 64c0 35.346 28.654 64 64 64s64-28.654 64-64z" />
<glyph unicode="&#xeac3;" d="M512 112c-8.8 0-16 7.2-16 16v64c0 8.8 7.2 16 16 16s16-7.2 16-16v-64c0-8.8-7.2-16-16-16z" />
<glyph unicode="&#xeac4;" d="M512 96c-8.64 0-9.12 2.4-43.36 36.64-6.24 6.24-6.24 16.32 0 22.56s16.32 6.24 22.56 0l20.64-20.64 20.64 20.64c6.24 6.24 16.32 6.24 22.56 0s6.24-16.32 0-22.56c-34.88-34.88-34.72-36.64-43.36-36.64z" />
<glyph unicode="&#xeac5;" d="M892.8 131.2c0-35.346-28.654-64-64-64s-64 28.654-64 64c0 35.346 28.654 64 64 64s64-28.654 64-64z" />
<glyph unicode="&#xeac6;" d="M738.24 205.76c-4.16 0-8.16 1.6-11.36 4.64l-45.28 45.28c-6.24 6.24-6.24 16.32 0 22.56s16.32 6.24 22.56 0l45.28-45.28c2.793-2.9 4.513-6.851 4.513-11.203 0-8.824-7.072-15.996-15.858-16.157h-0.015z" />
<glyph unicode="&#xeac7;" d="M749.6 194.4h-45.28c-8.8 0-16 7.2-16 16s7.2 16 16 16h29.28v29.28c0 8.8 7.2 16 16 16s16-7.2 16-16v-45.28c0-8.8-7.2-16-16-16z" />
<glyph unicode="&#xeac8;" d="M1024 448c0-35.346-28.654-64-64-64s-64 28.654-64 64c0 35.346 28.654 64 64 64s64-28.654 64-64z" />
<glyph unicode="&#xeac9;" d="M832 432h-64c-8.8 0-16 7.2-16 16s7.2 16 16 16h64c8.8 0 16-7.2 16-16s-7.2-16-16-16z" />
<glyph unicode="&#xeaca;" d="M816 400c-14.080 0-21.44 17.12-11.36 27.36l20.64 20.64-20.64 20.64c-6.24 6.24-6.24 16.32 0 22.56s16.32 6.24 22.56 0l32-32c6.24-6.24 6.24-16.32 0-22.56-34.88-34.88-34.72-36.64-43.36-36.64z" />
<glyph unicode="&#xeacb;" d="M892.8 764.8c0-35.346-28.654-64-64-64s-64 28.654-64 64c0 35.346 28.654 64 64 64s64-28.654 64-64z" />
<glyph unicode="&#xeacc;" d="M692.96 612.96c-14.080 0-21.44 17.12-11.36 27.36l45.28 45.28c6.24 6.24 16.32 6.24 22.56 0s6.24-16.32 0-22.56l-45.28-45.28c-3.040-3.2-7.2-4.64-11.36-4.64z" />
<glyph unicode="&#xeacd;" d="M749.6 624.32c-8.8 0-16 7.2-16 16v29.28h-29.28c-8.8 0-16 7.2-16 16s7.2 16 16 16h45.28c8.8 0 16-7.2 16-16v-45.28c0-8.8-7.2-16-16-16zM665.92 448c44.64-38.72 17.12-112-41.92-112 0-34.4-35.040-57.44-66.56-44.32-7.2-17.12-28-25.44-45.44-15.2-18.4-10.4-38.4-1.44-45.6 15.2-5.436-2.319-11.761-3.667-18.4-3.667-26.505 0-47.992 21.483-48 47.986v0.001c-45.12 0-75.52 45.76-60.16 85.28 4.8 13.76 11.52 20 18.24 26.72-44.64 38.72-17.12 112 41.92 112 0 34.72 35.84 57.44 66.4 44.32 7.040 16.48 27.2 25.6 45.6 15.2 17.44 10.24 38.24 2.080 45.44-15.2 31.52 13.12 66.56-9.92 66.56-44.32 59.040 0 86.56-73.28 41.92-112z" />
<glyph unicode="&#xeace;" d="M460.8 550.4c-2.95-3.904-7.583-6.4-12.8-6.4-3.62 0-6.959 1.202-9.64 3.229l0.040-0.029c-10.563 7.991-23.92 12.8-38.4 12.8v0c-0.001 0.088-0.001 0.192-0.001 0.297 0 11.873 4.429 22.711 11.724 30.953l-0.043-0.049c17.495-2.108 33.141-8.695 46.155-18.571l-0.235 0.171c7.040-5.28 8.48-15.36 3.2-22.4zM460.8 345.6c-2.95 3.904-7.583 6.4-12.8 6.4-3.62 0-6.959-1.202-9.64-3.229l0.040 0.029c-10.563-7.991-23.92-12.8-38.4-12.8v0c-0.001-0.088-0.001-0.192-0.001-0.297 0-11.873 4.429-22.711 11.724-30.953l-0.043 0.049c17.495 2.108 33.141 8.695 46.155 18.571l-0.235-0.171c7.040 5.28 8.48 15.36 3.2 22.4zM563.2 550.4c2.95-3.904 7.583-6.4 12.8-6.4 3.62 0 6.959 1.202 9.64 3.229l-0.040-0.029c10.563 7.991 23.92 12.8 38.4 12.8v0c0.001 0.088 0.001 0.192 0.001 0.297 0 11.873-4.429 22.711-11.724 30.953l0.043-0.049c-17.495-2.108-33.141-8.695-46.155-18.571l0.235 0.171c-7.040-5.28-8.48-15.36-3.2-22.4zM563.2 345.6c2.95 3.904 7.583 6.4 12.8 6.4 3.62 0 6.959-1.202 9.64-3.229l-0.040 0.029c10.563-7.991 23.92-12.8 38.4-12.8v0c0.001-0.088 0.001-0.192 0.001-0.297 0-11.873-4.429-22.711-11.724-30.953l0.043 0.049c-17.495 2.108-33.141 8.695-46.155 18.571l0.235-0.171c-7.040 5.28-8.48 15.36-3.2 22.4zM528 624v-352c-5.92 0-11.36 1.76-16 4.48-4.8-2.72-10.080-4.48-16-4.48v352c5.92 0 11.2-1.76 16-4.48 4.64 2.72 10.080 4.48 16 4.48zM416 416c0-8.8-7.2-16-16-16-0.151-0.001-0.33-0.001-0.509-0.001-22.71 0-43.543 8.033-59.814 21.412l0.163-0.13c3.794 10.601 10.008 19.546 18.004 26.495l0.076 0.065c11.52-10.24 26.24-15.84 42.080-15.84 8.8 0 16-7.2 16-16zM608 416c0-8.8 7.2-16 16-16 0.151-0.001 0.33-0.001 0.509-0.001 22.71 0 43.543 8.033 59.814 21.412l-0.163-0.13c-3.794 10.601-10.008 19.546-18.004 26.495l-0.076 0.065c-11.52-10.24-26.24-15.84-42.080-15.84-8.8 0-16-7.2-16-16z" />
<glyph unicode="&#xeacf;" d="M400 848c-37.76-75.68-32-49.28-32-144h32v144z" />
<glyph unicode="&#xead0;" d="M688 544c-17.6 0-32 14.4-32 32v128h-288v-112c0-17.6-14.4-32-32-32s-32 14.4-32 32v112c0 35.346 28.654 64 64 64v0h288c35.346 0 64-28.654 64-64v0-128c0-17.6-14.4-32-32-32zM912 464v-384c0-35.346-28.654-64-64-64v0h-672c-35.346 0-64 28.654-64 64v0 384h800z" />
<glyph unicode="&#xead1;" d="M928 544v-80.64c0-19.68-9.12-38.4-24.64-50.56l-101.92-79.36c-10.68-8.381-24.314-13.44-39.13-13.44-0.081 0-0.162 0-0.243 0h-500.147c-14.24 0-28 4.8-39.36 13.44l-101.92 79.36c-15.059 11.852-24.64 30.079-24.64 50.544 0 0.006 0 0.011 0 0.017v-0.001 80.64c0 35.346 28.654 64 64 64v0h704c35.346 0 64-28.654 64-64v0z" />
<glyph unicode="&#xead2;" d="M624 825.28v-124.64c-0.045-16.939-13.177-30.796-29.816-31.994l-0.104-0.006-160-10.56c-0.622-0.043-1.348-0.068-2.080-0.068-17.673 0-32 14.327-32 32 0 0.024 0 0.048 0 0.071v-0.004 157.92c37.76 56.64 32 38.24 32 112h159.84v-57.28c0-26.88 19.68-42.24 16.16-38.72 9.943-9.9 16.111-23.585 16.16-38.711v-0.009z" />
<glyph unicode="&#xead3;" d="M464 704v-43.84l-32-1.92v45.76c0 8.8 7.2 16 16 16 4.64 0 16-3.52 16-16zM528 704v-39.52l-32-2.080v41.6c0 8.8 7.2 16 16 16 4.64 0 16-3.52 16-16zM592 704v-35.36l-32-2.080v37.44c0 8.8 7.2 16 16 16 4.64 0 16-3.52 16-16z" />
<glyph unicode="&#xead4;" d="M686.56 16h-349.12c-57.92 125.6 33.92 272 174.56 272s232.48-146.24 174.56-272z" />
<glyph unicode="&#xead5;" d="M672 96c0-88.366-71.634-160-160-160s-160 71.634-160 160c0 88.366 71.634 160 160 160s160-71.634 160-160z" />
<glyph unicode="&#xead6;" d="M520 0h-24c-47.52 0-62.72 64-32 64 8.8 0 16-7.2 16-16s7.2-16 16-16h24c13.255 0 24 10.745 24 24s-10.745 24-24 24v0h-16c-30.88 0-56 25.12-56 56s25.12 56 56 56h24c47.52 0 62.72-64 32-64-8.8 0-16 7.2-16 16s-7.2 16-16 16h-24c-13.255 0-24-10.745-24-24s10.745-24 24-24v0h16c30.88 0 56-25.12 56-56s-25.12-56-56-56z" />
<glyph unicode="&#xead7;" d="M512 160c-8.8 0-16 7.2-16 16v32c0 8.8 7.2 16 16 16s16-7.2 16-16v-32c0-8.8-7.2-16-16-16zM512-32c-8.8 0-16 7.2-16 16v32c0 8.8 7.2 16 16 16s16-7.2 16-16v-32c0-8.8-7.2-16-16-16zM304 272c-12.96 0-32 10.080-32 32v32c0 17.6 14.4 32 32 32 12.96 0 32-10.080 32-32v-32c0-17.6-14.4-32-32-32zM720 272c-12.96 0-32 10.080-32 32v32c0 17.6 14.4 32 32 32 12.96 0 32-10.080 32-32v-32c0-17.6-14.4-32-32-32zM640 528h-256c-8.8 0-16 7.2-16 16 0 4.64 3.52 16 16 16h256c8.8 0 16-7.2 16-16 0-4.64-3.52-16-16-16z" />
<glyph unicode="&#xead8;" d="M112 512h864v-416h-864z" />
<glyph unicode="&#xead9;" d="M979.36 509.28l-435.36-93.28-435.36 93.28c-7.36 1.6-12.64 8.16-12.64 15.68v259.040c0 8.8 7.2 16 16 16h864c8.8 0 16-7.2 16-16v-259.040c0-7.52-5.28-14.080-12.64-15.68z" />
<glyph unicode="&#xeada;" d="M512 496h64c17.673 0 32-14.327 32-32v-96c0-17.673-14.327-32-32-32h-64c-17.673 0-32 14.327-32 32v96c0 17.673 14.327 32 32 32z" />
<glyph unicode="&#xeadb;" d="M768 805.76v-5.76h-64c-8.8 0-16 7.2-16 16v48c0 35.346-28.654 64-64 64v0h-160c-35.346 0-64-28.654-64-64v0-48c0-8.8-7.2-16-16-16h-64c0 12.96 10.080 32 32 32h16v32c0 52.96 43.040 96 96 96h160c52.96 0 96-43.040 96-96v-32h21.76c14.492 0 26.24-11.748 26.24-26.24v0z" />
<glyph unicode="&#xeadc;" d="M576 224v-128h-464v192h400c35.346 0 64-28.654 64-64v0z" />
<glyph unicode="&#xeadd;" d="M64 256h448c17.673 0 32-14.327 32-32v-256c0-17.673-14.327-32-32-32h-448c-17.673 0-32 14.327-32 32v256c0 17.673 14.327 32 32 32z" />
<glyph unicode="&#xeade;" d="M64 224h448v-256h-448z" />
<glyph unicode="&#xeadf;" d="M368 96c0-53.019-35.817-96-80-96s-80 42.981-80 96c0 53.019 35.817 96 80 96s80-42.981 80-96z" />
<glyph unicode="&#xeae0;" d="M464 80h-32c-21.12 0-21.12 32 0 32h32c21.12 0 21.12-32 0-32zM144 80h-32c-21.44 0-20.64 32 0 32h32c21.44 0 20.64-32 0-32z" />
<glyph unicode="&#xeae1;" d="M864-16v-32c0-8.8-6.24-16-14.080-16h-196c-7.68 0-14.080 7.2-14.080 16v32c0 8.8 6.24 16 14.080 16h196c7.68 0 14.080-7.2 14.080-16z" />
<glyph unicode="&#xeae2;" d="M864 48v-32c0-8.8-6.24-16-14.080-16h-196c-7.68 0-14.080 7.2-14.080 16v32c0 8.8 6.24 16 14.080 16h196c7.68 0 14.080-7.2 14.080-16z" />
<glyph unicode="&#xeae3;" d="M544 96v-128c0-17.6-14.4-32-32-32h-125.28c-3.52 9.76-2.72 16.8-2.72 32h128v128h32z" />
<glyph unicode="&#xeae4;" d="M512 96v-128h-128c0 15.52-0.64 22.56 2.72 32-3.68 10.4-2.72 17.12-2.72 48 0 21.44 13.6 39.68 32.16 45.76 1.137-7.82 7.795-13.759 15.84-13.76h32c8.8 0 16 7.2 16 16h32z" />
<glyph unicode="&#xeae5;" d="M640-16v-32c0-8.8-6.24-16-14.080-16h-196c-7.68 0-14.080 7.2-14.080 16v32c0 8.8 6.24 16 14.080 16h196c7.68 0 14.080-7.2 14.080-16z" />
<glyph unicode="&#xeae6;" d="M480 96c0-8.8-7.2-16-16-16h-32c-8.045 0.001-14.703 5.94-15.83 13.674l-0.010 0.086c9.76 3.2 15.040 2.24 63.84 2.24z" />
<glyph unicode="&#xeae7;" d="M896 112v-16h-288v16c0 26.4 20.64 48 46.080 48h195.84c25.44 0 46.080-21.6 46.080-48z" />
<glyph unicode="&#xeae8;" d="M864 112v-32c0-8.8-6.24-16-14.080-16h-196c-7.68 0-14.080 7.2-14.080 16v32c0 8.8 6.24 16 14.080 16h196c7.68 0 14.080-7.2 14.080-16z" />
<glyph unicode="&#xeae9;" d="M640 48v-32c0-8.8-6.24-16-14.080-16h-196c-7.68 0-14.080 7.2-14.080 16v32c0 8.8 6.24 16 14.080 16h196c7.68 0 14.080-7.2 14.080-16z" />
<glyph unicode="&#xeaea;" d="M528 400v32c0 21.44 32 20.64 32 0v-32c0-21.44-32-20.64-32 0z" />
<glyph unicode="&#xeaeb;" d="M160 752h192v-32h-192zM160 688h96v-32h-96z" />
<glyph unicode="&#xeaec;" d="M512-32c-264.64 0-480 215.36-480 480s215.36 480 480 480 480-215.36 480-480-215.36-480-480-480zM512 896c-247.040 0-448-200.96-448-448s200.96-448 448-448 448 200.96 448 448-200.96 448-448 448z" />
<glyph unicode="&#xeaed;" d="M512 32c-229.44 0-416 186.56-416 416s186.56 416 416 416 416-186.56 416-416-186.56-416-416-416zM512 832c-211.68 0-384-172.32-384-384s172.32-384 384-384 384 172.32 384 384-172.32 384-384 384z" />
<glyph unicode="&#xeaee;" d="M720 448c0-114.875-93.125-208-208-208s-208 93.125-208 208c0 114.875 93.125 208 208 208s208-93.125 208-208z" />
<glyph unicode="&#xeaef;" d="M496 368c-35.36 0-64 28.64-64 64 0 52.96 43.040 96 96 96h16c17.6 0 32-14.4 32-32v-48c0-44.16-35.84-80-80-80zM528 496c-35.36 0-64-28.64-64-64 0-17.6 14.4-32 32-32 26.4 0 48 21.6 48 48v48h-16z" />
</font>
</defs>
</svg>
