<svg xmlns="http://www.w3.org/2000/svg" viewBox="0 0 64 64" xmlns:v="https://vecta.io/nano"><path d="M64 36v-8c0-1.1-.9-2-2-2h-2.13c-.88 0-1.67-.57-1.91-1.42a26.87 26.87 0 0 0-2.36-5.69c-.43-.77-.28-1.73.35-2.35l1.51-1.51c.78-.78.78-2.05 0-2.83L51.8 6.54c-.78-.78-2.05-.78-2.83 0l-1.51 1.51c-.62.62-1.58.78-2.35.35a26.87 26.87 0 0 0-5.69-2.36C38.57 5.8 38 5.01 38 4.13V2c0-1.1-.9-2-2-2h-8c-1.1 0-2 .9-2 2v2.13c0 .88-.57 1.67-1.42 1.91a26.87 26.87 0 0 0-5.69 2.36c-.77.43-1.73.28-2.35-.35l-1.51-1.51c-.78-.78-2.05-.78-2.83 0L6.54 12.2c-.78.78-.78 2.05 0 2.83l1.51 1.51c.62.62.78 1.58.35 2.35a26.87 26.87 0 0 0-2.36 5.69C5.8 25.43 5.01 26 4.13 26H2c-1.1 0-2 .9-2 2v8c0 1.1.9 2 2 2h2.13c.88 0 1.67.57 1.91 1.42a26.87 26.87 0 0 0 2.36 5.69c.43.77.28 1.73-.35 2.35l-1.51 1.51c-.78.78-.78 2.05 0 2.83l5.66 5.66c.78.78 2.05.78 2.83 0l1.51-1.51c.62-.62 1.58-.78 2.35-.35a26.87 26.87 0 0 0 5.69 2.36c.85.24 1.42 1.03 1.42 1.91V62c0 1.1.9 2 2 2h8c1.1 0 2-.9 2-2v-2.13c0-.88.57-1.67 1.42-1.91a26.87 26.87 0 0 0 5.69-2.36c.77-.43 1.73-.28 2.35.35l1.51 1.51c.78.78 2.05.78 2.83 0l5.66-5.66c.78-.78.78-2.05 0-2.83l-1.51-1.51c-.62-.62-.78-1.58-.35-2.35a26.87 26.87 0 0 0 2.36-5.69c.24-.85 1.03-1.42 1.91-1.42H62c1.1 0 2-.9 2-2z" fill="#1976d2"/><circle cx="32" cy="32" r="19" fill="#e4c290"/><circle cx="32" cy="32" r="14" fill="#d38e2a"/><g fill="#f3f3f3"><path d="M32 52C17.4 52 7.72 36.78 13.85 23.58c.23-.5.83-.72 1.33-.49s.72.83.49 1.33C10.15 36.3 18.86 50 32 50c9.93 0 18-8.07 18-18s-8.07-18-18-18a17.97 17.97 0 0 0-13.96 6.63 1 1 0 0 1-1.55-1.27c3.82-4.68 9.47-7.37 15.51-7.37 11.03 0 20 8.97 20 20s-8.97 20-20 20z"/><path d="M21 21h-4c-.55 0-1-.45-1-1v-4c0-.55.45-1 1-1s1 .45 1 1v3h3c.55 0 1 .45 1 1s-.45 1-1 1zm9 17h-6c-.55 0-1-.45-1-1 0-1.61.9-3.07 2.34-3.79l2.5-1.25c1.97-.98 1.26-3.96-.94-3.96-1.05 0-1.91.86-1.91 1.91 0 .55-.45 1.05-1 1.05s-1-.4-1-.95c0-2.25 1.75-4 3.91-4s4.09 1.83 4.09 4.09a4.08 4.08 0 0 1-2.26 3.66c-2.81 1.4-3.1 1.44-3.5 2.25H30c.55 0 1 .45 1 1s-.45 1-1 1zm10-3h-6a1 1 0 0 1-.92-1.39l3-7a.99.99 0 0 1 1.31-.52c.51.22.74.81.52 1.31l-2.4 5.61h4.48c.55 0 1 .45 1 1s-.45 1-1 1z"/><path d="M40 38c-.55 0-1-.45-1-1v-7c0-.55.45-1 1-1s1 .45 1 1v7c0 .55-.45 1-1 1z"/></g></svg>