<svg xmlns="http://www.w3.org/2000/svg" viewBox="0 0 64 64" xmlns:v="https://vecta.io/nano"><rect x="6" width="40" height="64" rx="6" fill="#5e9fdf"/><path d="M44 6v50a4 4 0 0 1-4 4H12a4 4 0 0 1-4-4V6a3.98 3.98 0 0 1 2-3.46c1.23-.71 1.73-.54 7.28-.54.43 0 .81.28.95.68.27.83.56 2.32 2.21 2.32h11.12a2.01 2.01 0 0 0 1.9-1.37l.31-.95c.14-.4.52-.68.95-.68H40a4 4 0 0 1 4 4z" fill="#fff"/><path d="M46 21.35v25.3c-.65.15-1.32.26-2 .31V21.05a12.06 12.06 0 0 1 2 .3z" fill="#1976d2"/><path d="M44 21.05v25.91c-7.29.66-14-5.23-14-12.96s7.14-13.78 14-12.95z" fill="#f3f3f3"/><circle cx="45" cy="32" r="13" fill="#d38e2a"/><path d="M39,58H13c-1.34,0-1.29-2,0-2h26c1.34,0,1.29,2,0,2Z" fill="#d9d9d9"/><path d="M40 38h-3c-1.32 0-1.32-2 0-2h3c1.1 0 2-.9 2-2s-.9-2-2-2h-3c-.55 0-1-.45-1-1v-3c0-1.1.9-2 2-2h5c1.32 0 1.32 2 0 2h-5v2h2a4 4 0 1 1 0 8zm12 0h-2a4 4 0 0 1-4-4v-4a4 4 0 0 1 4-4h3c1.32 0 1.32 2 0 2h-3c-1.1 0-2 .9-2 2v4c0 1.1.9 2 2 2h2v-3h-1c-1.32 0-1.32-2 0-2h2c.55 0 1 .45 1 1v4c0 1.1-.9 2-2 2z" fill="#fdfdfd"/><path d="M28.81 37.06c-2.4-2.91-2.42-7.18 0-10.11.84-1.02 2.38.25 1.54 1.27-1.8 2.18-1.8 5.38 0 7.57.85 1.03-.71 2.28-1.54 1.27z" fill="#5e9fdf"/><path d="M25.99 39.92a11.99 11.99 0 0 1 0-15.84c.88-.99 2.37.33 1.5 1.32-3.32 3.77-3.32 9.44 0 13.2.88 1-.64 2.3-1.5 1.32z" fill="#1976d2"/></svg>