<svg xmlns="http://www.w3.org/2000/svg" viewBox="0 0 64 64" xmlns:v="https://vecta.io/nano"><path d="M22 52h23v12H22z" fill="#e4c290"/><g fill="#1976d2"><path d="M52 26v18c0 5.52-4.48 10-10 10V33c0-3.31-2.69-6-6-6H16c-8.01 0-12-9.72-6.36-15.36C12.66 8.6 15.95 9 19 9c-1.33 2.22.28 5 2.83 5H40c6.68 0 12 5.43 12 12z"/><path d="M52 26H36c-2.76 0-5-2.24-5-5v-7h9c6.68 0 12 5.43 12 12z"/></g><g fill="#e4c290"><rect x="33" width="26" height="24" rx="3"/><path d="M42 33v28H16c-1.66 0-3-1.34-3-3v-8l-6-5 8-18h21c3.31 0 6 2.69 6 6z"/><circle cx="41" cy="41" r="6"/></g><path d="M22 37c-.55 0-1-.45-1-1 0-1.1-.9-2-2-2s-2 .9-2 2c0 .55-.45 1-1 1-2.1 0-.81-5 3-5s5.1 5 3 5zm13 26H22v-2h15c0 1.1-.9 2-2 2zm10-22a4 4 0 0 1-4 4v-8a4 4 0 0 1 4 4zM15 58h-2v-6h8c0 3.31-2.69 6-6 6zm41-47h-9V3c0-1.32-2-1.32-2 0v8h-9c-1.34 0-1.29 2 0 2h9v8c0 1.32 2 1.32 2 0v-8h9c1.34 0 1.29-2 0-2z" fill="#d38e2a"/><g fill="#f3f3f3"><path d="M38,8V4c0-1.32,2-1.32,2,0v4c0,1.32-2,1.32-2,0Z"/><path d="M41 7h-4c-1.32 0-1.32-2 0-2h4c1.32 0 1.32 2 0 2zm-2.41 13.41c-.88 0-1.34-1.07-.71-1.71l2.83-2.83c.94-.94 2.35.48 1.41 1.41-3.07 3.07-2.98 3.12-3.54 3.12z"/><path d="M41.41 20.41c-.55 0-.46-.05-3.54-3.12-.94-.94.48-2.35 1.41-1.41l2.83 2.83a1.01 1.01 0 0 1-.71 1.71zM54 7h-4c-1.32 0-1.32-2 0-2h4c1.32 0 1.32 2 0 2zm0 12h-4c-1.32 0-1.32-2 0-2h4c1.32 0 1.32 2 0 2zm-1-4c0-1.32-2-1.32-2 0s2 1.32 2 0zm0 6c0-1.32-2-1.32-2 0s2 1.32 2 0z"/></g><path d="M20.06 27H16c-6.15 0-10.43-6.03-8.57-11.74 7.61-4.54 16.61 3.72 12.63 11.74z" fill="#1976d2"/><path d="M20.06 27c-1.36 2.73-4.08 4.68-7.26 4.96L15 27h5.06z" fill="#d38e2a"/><circle cx="12" cy="23" r="7" fill="#5e9fdf"/><path d="M12.5 22h-1c-.66 0-.66-1 0-1H14c1.32 0 1.32-2 0-2h-1c0-1.32-2-1.35-2 .05a2.5 2.5 0 0 0 .5 4.95h1c.66 0 .66 1 0 1H10c-1.32 0-1.32 2 0 2h1c0 1.32 2 1.35 2-.05a2.5 2.5 0 0 0-.5-4.95z" fill="#f3f3f3"/><path d="M17 0h14v2H17zm6 4h8v2h-8z" fill="#d9d9d9"/></svg>