<svg xmlns="http://www.w3.org/2000/svg" viewBox="0 0 64 64" xmlns:v="https://vecta.io/nano"><g fill="#5e9fdf"><path d="M6 0h52c1.1 0 2 .9 2 2v4H4V2c0-1.1.9-2 2-2z"/><path d="M17 0h19a4 4 0 0 1 4 4v2H17V0h0z"/></g><path d="M60 6v42c0 1.1-.9 2-2 2H6c-1.1 0-2-.9-2-2V2c0-1.1.9-2 2-2h12a4 4 0 0 1 4 4v2h38z" fill="#f3f3f3"/><path d="M57 3c0-1.32-2-1.32-2 0s2 1.32 2 0zm-4 0c0-1.32-2-1.32-2 0s2 1.32 2 0z" fill="#1976d2"/><path d="M49,3c0-1.32-2-1.32-2,0s2,1.32,2,0Z" fill="#f3f3f3"/><path d="M37,3c0-1.32-2-1.32-2,0s2,1.32,2,0Z" fill="#1976d2"/><path d="M19 3c0-1.32-2-1.32-2 0s2 1.32 2 0zM8 13h38v6H8z" fill="#d38e2a"/><path d="M8 25h36v6H8zm0 12h26v6H8z" fill="#5e9fdf"/><g fill="#d38e2a"><path d="M49 14v5h8v-5l-2 2-2-2-2 2-2-2z"/><path d="M49 15c1.32 0 1.32-2 0-2m5 1c0-1.32-2-1.32-2 0s2 1.32 2 0zm3-1c-1.32 0-1.32 2 0 2"/></g><path d="M24 40v2h-4a.99.99 0 0 0-1 1h15v-3H24z" fill="#5e9fdf"/><path d="M40.76 42.34c-.41-.46-.57-.34-4.76-.34v-2h-2v3H19c0 .11-.13-.83.64 4.57A4.07 4.07 0 0 0 20.96 50h18.08c1.41-1.26 1.29-2.22 1.95-6.86.04-.29-.04-.58-.23-.8zM24 49h-.4a2.01 2.01 0 0 1-1.98-1.72L21.15 44H24v5zm14.38-1.72A2.01 2.01 0 0 1 36.4 49H36v-5h2.85l-.47 3.28z" fill="#d9d9d9"/><path d="M42.76 42.34c-.4-.46-.44-.34-4.76-.34v-2H26v2h-4c-.61 0-1.08.54-.99 1.14l.63 4.42c.28 1.96 1.98 3.43 3.96 3.43h.75A6 6 0 0 0 30 54.64v3.35h-2c-.55 0-1 .45-1 1v4c0 .55.45 1 1 1h8c.55 0 1-.45 1-1v-4c0-.55-.45-1-1-1h-2v-3.35a6 6 0 0 0 3.65-3.65h.75c1.98 0 3.68-1.48 3.96-3.43.69-4.8.8-4.76.4-5.22zM25.61 49a2.01 2.01 0 0 1-1.98-1.72L23.16 44h2.85v5h-.4zm14.78-1.72A2.01 2.01 0 0 1 38.41 49h-.4v-5h2.85l-.47 3.28z" fill="#d38e2a"/></svg>