<svg xmlns="http://www.w3.org/2000/svg" viewBox="0 0 64 64" xmlns:v="https://vecta.io/nano"><path d="M62,18V57H2V18c0-1.66,1.34-3,3-3H59c1.66,0,3,1.34,3,3Z" fill="#5e9fdf"/><path d="M1 57h62c.55 0 1 .45 1 1v2c0 1.66-1.34 3-3 3H3c-1.66 0-3-1.34-3-3v-2c0-.55.45-1 1-1z" fill="#1976d2"/><path d="M60 18v4H20l-3.29-4.11L16 17h43c.55 0 1 .45 1 1z" fill="#5e9fdf"/><path d="M60 22v33H4V18c0-.55.45-1 1-1h14.08c.69 0 1.35.18 1.94.51.45.24.85.58 1.18.99l1.6 2c.76.95 1.91 1.5 3.12 1.5H60z" fill="#fff"/><path d="M23 57h18c0 1.1-.9 2-2 2H25c-1.1 0-2-.9-2-2h0z" fill="#f3f3f3"/><path d="M37 52H27c-.27 0-.52-.11-.71-.29l-7-7A.99.99 0 0 1 19 44V34c0-.27.11-.52.29-.71l7-7A.99.99 0 0 1 27 26h10c.27 0 .52.11.71.29l7 7A.99.99 0 0 1 45 34v10c0 .27-.11.52-.29.71l-7 7A.99.99 0 0 1 37 52zm-9.59-2h9.17l6.41-6.41v-9.17l-6.41-6.41h-9.17L21 34.42v9.17L27.41 50z" fill="#d38e2a"/><g fill="#5e9fdf"><path d="M30 43c-.4 0-.79-.25-.94-.65L27 36.85l-2.06 5.5a1 1 0 1 1-1.87-.71l3-8c.15-.39.52-.65.94-.65s.79.26.94.65l3 8a1.01 1.01 0 0 1-.58 1.29c-.12.04-.23.06-.35.06zm6 0h-2c-.55 0-1-.45-1-1v-8c0-.55.45-1 1-1h2c2.76 0 5 2.24 5 5s-2.24 5-5 5zm-1-2h1a3.01 3.01 0 0 0 3-3 3.01 3.01 0 0 0-3-3h-1v6z"/><path d="M29,41h-4c-.55,0-1-.45-1-1s.45-1,1-1h4c.55,0,1,.45,1,1s-.45,1-1,1Z"/></g><path d="M23.5 48.5c-.26 0-.51-.1-.71-.29-.39-.39-.39-1.02 0-1.41l16.5-16.5c.39-.39 1.02-.39 1.41 0s.39 1.02 0 1.41l-16.5 16.5a.98.98 0 0 1-.71.29z" fill="#d38e2a"/><path d="M62 18v3h-2v-3c0-.55-.45-1-1-1H36v-2h23c1.66 0 3 1.34 3 3z" fill="#1976d2"/><path d="M48.74,22l-.5,1c-.62,1.23-1.86,2-3.24,2s-2.62-.77-3.24-2l-.5-1h7.48Z" fill="#d9d9d9"/><path d="M60 18v3H49.24l-.5 1h-7.48l-.5-1H40a4 4 0 0 1-4-4h23c.55 0 1 .45 1 1z" fill="#5e9fdf"/><path d="M38 3v14c0 1.1.9 2 2 2h.76a2 2 0 0 1 1.79 1.11l1 2c.27.55.83.89 1.45.89h0c.61 0 1.17-.35 1.45-.89l1-2A2 2 0 0 1 49.24 19H62c1.1 0 2-.9 2-2V3c0-1.1-.9-2-2-2H40c-1.1 0-2 .9-2 2z" fill="#f3f3f3"/><path d="M53.48 9.13L49.5 6.85c-.67-.38-1.5.1-1.5.87v4.55c0 .77.83 1.25 1.5.87l3.98-2.28c.67-.38.67-1.35 0-1.74z" fill="#d38e2a"/><path d="M6 26h12v2H6zm0 4h10v2H6zm0 4h10v2H6zm42 8h10v2H48zm0 4h8v2h-8zm0 4h8v2h-8z" fill="#d9d9d9"/><g fill="#d38e2a"><circle cx="41" cy="4" r="1"/><circle cx="45" cy="4" r="1"/></g></svg>