<svg xmlns="http://www.w3.org/2000/svg" viewBox="0 0 64 64" xmlns:v="https://vecta.io/nano"><g fill="#5e9fdf"><path d="M6 7h52c1.1 0 2 .9 2 2v4H4V9c0-1.1.9-2 2-2z"/><path d="M17 7h19a4 4 0 0 1 4 4v2H17V7h0z"/></g><path d="M60 13v42c0 1.1-.9 2-2 2H6c-1.1 0-2-.9-2-2V9c0-1.1.9-2 2-2h12a4 4 0 0 1 4 4v2h38z" fill="#f3f3f3"/><path d="M57 10c0-1.32-2-1.32-2 0s2 1.32 2 0zm-4 0c0-1.32-2-1.32-2 0s2 1.32 2 0z" fill="#1976d2"/><path d="M49,10c0-1.32-2-1.32-2,0s2,1.32,2,0Z" fill="#f3f3f3"/><path d="M37,10c0-1.32-2-1.32-2,0s2,1.32,2,0Z" fill="#1976d2"/><rect x="11" y="20" width="42" height="24" rx="3" fill="#d9d9d9"/><path d="M19 10c0-1.32-2-1.32-2 0s2 1.32 2 0zm45 50l-3 3-3-3-2 3-3-11 11 3-3 2 3 3z" fill="#d38e2a"/><path d="M24.93 36.63l-4-10c-.34-.84-1.52-.84-1.86 0l-4 10c-.49 1.22 1.36 1.97 1.86.74 1.1-2.76.9-2.37 1.07-2.37l4.11-.02.96 2.39c.49 1.23 2.35.49 1.86-.74zM18.68 33L20 29.69 21.32 33h-2.65zM32 38h-2c-1.1 0-2-.9-2-2v-8c0-1.1.9-2 2-2h2c3.31 0 6 2.69 6 6s-2.69 6-6 6zm-2-10v8h2a4 4 0 1 0 0-8h-2zm15.5 10H42c-1.32 0-1.32-2 0-2h3.5a1.5 1.5 0 1 0 0-3h-1c-1.93 0-3.5-1.57-3.5-3.5s1.57-3.5 3.5-3.5H48c1.32 0 1.32 2 0 2h-3.5a1.5 1.5 0 1 0 0 3h1c1.93 0 3.5 1.57 3.5 3.5S47.43 38 45.5 38z" fill="#c8c8c8"/><path d="M16 7c0 6.3-6.28 10.55-12 8.48V9c0-1.1.9-2 2-2h10z" fill="#d9d9d9"/><circle cx="7" cy="7" r="7" fill="#d38e2a"/><g fill="#fdfdfd"><rect x="3.59" y="6.41" width="4" height="4" rx="1" transform="matrix(.707107 -.707107 .707107 .707107 -4.31 6.41)"/><path d="M4.17 8.41C5.72 6.08 7 4.47 7 1.34c0-.1.06.06 5.66 5.66C9.4 7 7.59 8.5 5.59 9.83L4.18 8.42z"/><path d="M7 11.24l-.71-.71L7.7 9.12l.71.71c.95.95-.5 2.33-1.41 1.41z"/></g><path d="M52,49H12c-1.34,0-1.29-2,0-2H52c1.34,0,1.29,2,0,2Z" fill="#d9d9d9"/><path d="M14,49v-2c0-1.34,2-1.29,2,0v2c0,1.34-2,1.29-2,0Z" fill="#c8c8c8"/></svg>