<svg xmlns="http://www.w3.org/2000/svg" viewBox="0 0 64 64" xmlns:v="https://vecta.io/nano"><path d="M51.91 25a25.02 25.02 0 0 0-24.83-14.93c-11.82.88-21.55 10.2-22.91 21.97-.73 6.37.94 12.35 4.23 17.13.37.53.98.83 1.63.83h4.71c.88 0 1.33-1.06.71-1.69a18.93 18.93 0 0 1-5.34-15.39C11.57 19.17 27.13 11.45 39 18.85c5.41 3.33 9.11 9.46 9 16.44C47.84 45.76 38.95 54 28.48 54H12.76c4.87 4.18 11.39 6.51 18.44 5.91C47.99 58.46 58.81 40.7 51.91 25z" fill="#1976d2"/><path d="M58,8h-12c-.55,0-1-.45-1-1V3c0-1.65,1.35-3,3-3h8c1.65,0,3,1.35,3,3V7c0,.55-.45,1-1,1Zm-11-2h10V3c0-.55-.45-1-1-1h-8c-.55,0-1,.45-1,1v3Z" fill="#d38e2a"/><path d="M51.91 25h-6.76c-1.54-2.5-3.65-4.61-6.15-6.15v-6.76A25 25 0 0 1 51.91 25z" fill="#1976d2"/><path d="M41 9h22v12c0 1.1-.9 2-2 2H43c-1.1 0-2-.9-2-2V9h0z" fill="#d38e2a"/><path d="M64 7c0 3.71.11 3.86-.4 4.53l-2 2.67c-.38.5-.97.8-1.6.8H44c-.63 0-1.22-.3-1.6-.8-2.23-2.97-2.4-3.02-2.4-3.87V7c0-1.1.9-2 2-2h20c1.1 0 2 .9 2 2z" fill="#e4c290"/><path d="M58 17c-.29 0-1-.22-1-1v-2c0-.55.45-1 1-1 .29 0 1 .22 1 1v2c0 .55-.45 1-1 1zm-12 0c-.29 0-1-.22-1-1v-2c0-.55.45-1 1-1 .29 0 1 .22 1 1v2c0 .55-.45 1-1 1z" fill="#f3f3f3"/><path d="M54 64c-.55 0-1-.45-1-1v-3H1c-.55 0-1-.45-1-1v-4c0-.55.45-1 1-1h52v-3c0-.79.88-1.28 1.55-.83l9 6a1 1 0 0 1 0 1.66C53.8 64.33 54.43 64 54 64z" fill="#5e9fdf"/><circle cx="29" cy="35" r="15" fill="#d38e2a"/><circle cx="29" cy="35" r="12" fill="#e4c290"/><path d="M24 41c-.88 0-1.34-1.07-.71-1.71L28 34.58v-7.59c0-.55.45-1 1-1s1 .45 1 1v8c0 .27-.11.52-.29.71l-5 5a.98.98 0 0 1-.71.29z" fill="#f3f3f3"/></svg>