<svg xmlns="http://www.w3.org/2000/svg" xmlns:xlink="http://www.w3.org/1999/xlink" viewBox="0 0 64 64" xmlns:v="https://vecta.io/nano"><g fill="#d9d9d9"><path d="M31 8V1c.02-1.32 2.02-1.32 2.01 0v7C33 9.29 30.99 9.38 31 8zm-4 0V1c.02-1.32 2.02-1.32 2.01 0v7C29 9.29 26.99 9.38 27 8zm-4 0V1c.02-1.32 2.02-1.32 2.01 0v7C25 9.29 22.99 9.38 23 8zm-4 0V1c.02-1.32 2.02-1.32 2.01 0v7C21 9.29 18.99 9.38 19 8zm-4 0V1c.02-1.32 2.02-1.32 2.01 0v7C17 9.29 14.99 9.38 15 8zm32 0V1c.02-1.32 2.02-1.32 2.01 0v7C49 9.29 46.99 9.38 47 8zm-4 0V1c.02-1.32 2.02-1.32 2.01 0v7C45 9.29 42.99 9.38 43 8zm-4 0V1c.02-1.32 2.02-1.32 2.01 0v7C41 9.29 38.99 9.38 39 8zm-4 0V1c.02-1.32 2.02-1.32 2.01 0v7C37 9.29 34.99 9.38 35 8z"/><use xlink:href="#B"/><use xlink:href="#B" y="-4"/><use xlink:href="#B" y="-8"/><use xlink:href="#B" y="-12"/><use xlink:href="#B" y="-16"/><use xlink:href="#B" y="16"/><use xlink:href="#B" y="12"/><use xlink:href="#B" y="8"/><use xlink:href="#B" y="4"/><use xlink:href="#C"/><use xlink:href="#C" x="4"/><use xlink:href="#C" x="8"/><use xlink:href="#C" x="12"/><use xlink:href="#C" x="16"/><use xlink:href="#C" x="-16"/><use xlink:href="#C" x="-12"/><use xlink:href="#C" x="-8"/><use xlink:href="#C" x="-4"/><path d="M8 33H1c-1.32-.02-1.32-2.02 0-2.01h7C9.29 31 9.38 33.01 8 33zm0 4H1c-1.32-.02-1.32-2.02 0-2.01h7C9.29 35 9.38 37.01 8 37zm0 4H1c-1.32-.02-1.32-2.02 0-2.01h7C9.29 39 9.38 41.01 8 41zm0 4H1c-1.32-.02-1.32-2.02 0-2.01h7C9.29 43 9.38 45.01 8 45zm0 4H1c-1.32-.02-1.32-2.02 0-2.01h7C9.29 47 9.38 49.01 8 49zm0-32H1c-1.32-.02-1.32-2.02 0-2.01h7C9.29 15 9.38 17.01 8 17zm0 4H1c-1.32-.02-1.32-2.02 0-2.01h7C9.29 19 9.38 21.01 8 21zm0 4H1c-1.32-.02-1.32-2.02 0-2.01h7C9.29 23 9.38 25.01 8 25zm0 4H1c-1.32-.02-1.32-2.02 0-2.01h7C9.29 27 9.38 29.01 8 29z"/></g><rect x="8" y="8" width="48" height="48" rx="6" fill="#d38e2a"/><rect x="13" y="13" width="38" height="38" rx="2" fill="#f3f3f3"/><rect x="18" y="18" width="28" height="28" rx="1" fill="#5e9fdf"/><g fill="#f3f3f3"><circle cx="22" cy="22" r="2"/><circle cx="42" cy="42" r="2"/></g><path d="M31 13h2v5h-2zm-4 0h2v5h-2zm-4 0h2v5h-2zm16 0h2v5h-2zm-4 0h2v5h-2zm-4 33h2v5h-2zm-4 0h2v5h-2zm-4 0h2v5h-2zm16 0h2v5h-2zm-4 0h2v5h-2z" fill="#d38e2a"/><path d="M30.93 26.63c-.34-.84-1.52-.84-1.86 0l-4 10c-.49 1.23 1.37 1.97 1.86.74l.96-2.39c.27.03-.82.02 4.11.02.17 0-.03-.39 1.07 2.37.49 1.23 2.35.49 1.86-.74l-4-10zM28.68 33L30 29.69 31.32 33h-2.65zM37 27v10c0 1.32 2 1.32 2 0V27c0-1.32-2-1.32-2 0z" fill="#fdfdfd"/><defs ><path id="B" d="M56 31h7c1.32.02 1.32 2.02 0 2.01h-7c-1.29-.01-1.38-2.02 0-2.01z"/><path id="C" d="M33,56v7c-.02,1.32-2.02,1.32-2.01,0v-7c.01-1.29,2.02-1.38,2.01,0Z"/></defs></svg>