<svg xmlns="http://www.w3.org/2000/svg" viewBox="0 0 64 64" xmlns:v="https://vecta.io/nano"><path d="M62,19V58H2V19c0-1.66,1.34-3,3-3H59c1.66,0,3,1.34,3,3Z" fill="#5e9fdf"/><path d="M1 58h62c.55 0 1 .45 1 1v2c0 1.66-1.34 3-3 3H3c-1.66 0-3-1.34-3-3v-2c0-.55.45-1 1-1z" fill="#1976d2"/><path d="M60 19v37H4V19c0-.55.45-1 1-1h54c.55 0 1 .45 1 1z" fill="#fff"/><path d="M6 20h26v16H6zm30 10h22v12H36zM6 38h26v2H6zm0 4h26v2H6zm0 4h26v2H6zm30-2h22v2H36zm0 4h22v2H36zm0 4h22v2H36zM6 50h22v2H6z" fill="#d9d9d9"/><path d="M39 60H25c-1.1 0-2-.9-2-2 0-.1-.84 0 18 0 0 .81-.63 2-2 2z" fill="#f3f3f3"/><g fill="#5e9fdf"><rect x="22" y="7" width="10" height="4" rx="1"/><path d="M40 45.04c0 3.84-3.12 6.96-6.96 6.96H20.95c-5.53 0-8.8-6.13-5.85-10.72C22.2 30.23 23 29.66 23 27.24V11h8c0 17.7-.32 17.51.95 19.48C39.3 41.92 40 42.32 40 45.04z"/><path d="M33.36 50H20.64c-3.69 0-5.87-4.09-3.9-7.15l7.76-12.07a1.73 1.73 0 0 1 1.45-.79c1.18 0 1.61-1.09 1.54-.95a.59.59 0 0 1 1.05 0c.74 1.48 8.8 13.9 8.74 13.8 1.96 3.05-.21 7.15-3.9 7.15z"/><rect x="38" y="23" width="12" height="4" rx="1"/><path d="M44,52c-2.76,0-5-2.23-5-5V27h10v20c0,2.76-2.24,5-5,5Z"/><path d="M47 31.28V47c0 1.66-1.34 3-3 3s-3-1.34-3-3V34.3a2.3 2.3 0 0 1 2.3-2.3c.7 0 1.17-.32 1.28-.39l1.35-.9a.69.69 0 0 1 1.07.57z"/></g><g fill="#d38e2a"><circle cx="25" cy="3" r="2"/><path d="M30 1c0-1.32-2-1.32-2 0s2 1.32 2 0zm17 15c0-1.32-2-1.32-2 0s2 1.32 2 0z"/><circle cx="43" cy="11" r="2"/><circle cx="40" cy="19" r="2"/></g></svg>