<svg xmlns="http://www.w3.org/2000/svg" viewBox="0 0 64 64" xmlns:v="https://vecta.io/nano"><path d="M49,36c-.55,0-1-.45-1-1V13H25c-.55,0-1-.45-1-1s.45-1,1-1h24c.55,0,1,.45,1,1v23c0,.55-.45,1-1,1Z" fill="#d9d9d9"/><path d="M23 44v20H6V46c0-1.1.9-2 2-2h15z" fill="#f3f3f3"/><path d="M55.51 43.55c-5.22 4.46-12.15 6.95-19.69 6.36-13.1-1.02-23.71-11.64-24.74-24.74a26.95 26.95 0 0 1 6.36-19.69c.76-.89 2.11-.93 2.94-.1l35.23 35.23c.82.82.78 2.18-.1 2.94z" fill="#5e9fdf"/><path d="M23 44v20H9.97l3.57-20H23z" fill="#d9d9d9"/><path d="M23 36c-3.47 0-6.44 2.49-7.05 5.91L12 64h22l-3.95-22.09C29.44 38.49 26.47 36 23 36z" fill="#1976d2"/><path d="M26 43c0 1.73-1.41 3-3 3-2.38 0-3.76-2.63-2.56-4.56C21.97 38.88 26 39.94 26 43z" fill="#d9d9d9"/><path d="M25 44c0 .57-.16 1.11-.44 1.56-.45.28-.99.44-1.56.44-2.38 0-3.76-2.63-2.56-4.56 1.93-1.2 4.56.17 4.56 2.56zm-2 16a3.01 3.01 0 0 1-3-3 3.01 3.01 0 0 1 3-3 3.01 3.01 0 0 1 3 3 3.01 3.01 0 0 1-3 3zm0-4c-.55 0-1 .45-1 1s.45 1 1 1 1-.45 1-1-.45-1-1-1zm6 4c-.55 0-1-.45-1-1v-2c-.88 0-1.34-1.07-.71-1.71l1-1c.63-.63 1.71-.18 1.71.71v4c0 .55-.45 1-1 1z" fill="#f3f3f3"/><path d="M41 64H5c-.55 0-1-.45-1-1 0-.29.22-1 1-1h36c.55 0 1 .45 1 1 0 .29-.22 1-1 1z" fill="#5e9fdf"/><circle cx="49" cy="12" r="4" fill="#1976d2"/><path d="M53 18.74c-.98 0-1.37-1.27-.57-1.82A5.97 5.97 0 0 0 55 12c0-3.31-2.69-6-6-6a5.98 5.98 0 0 0-4.92 2.57c-.31.45-.94.57-1.39.25-.45-.31-.57-.94-.25-1.39C43.93 5.28 46.38 4 49 4c4.41 0 8 3.59 8 8 0 2.62-1.28 5.08-3.43 6.56a.99.99 0 0 1-.57.18zm0 4.51c-1.1 0-1.39-1.53-.36-1.93C56.51 19.81 59 16.15 59 12A10.02 10.02 0 0 0 49 2a9.95 9.95 0 0 0-9.32 6.36c-.2.52-.78.77-1.29.57a1 1 0 0 1-.57-1.29A11.93 11.93 0 0 1 49 0c6.62 0 12 5.38 12 12a11.93 11.93 0 0 1-7.64 11.18.92.92 0 0 1-.36.07z" fill="#5e9fdf"/><g fill="#d38e2a"><circle cx="9" cy="47" r="1"/><circle cx="9" cy="51" r="1"/></g></svg>