<svg xmlns="http://www.w3.org/2000/svg" viewBox="0 0 64 64" xmlns:v="https://vecta.io/nano"><g fill="#d38e2a"><path d="M43.08 40.38L32 13.61 20.92 40.38c-.5 1.22-2.35.46-1.85-.77l12.01-28.99c.34-.82 1.51-.82 1.85 0l12 29c.51 1.23-1.34 1.98-1.85.77z"/><path d="M44 41c-.54 0 .43.71-12.62-10.77-5.42-3.73-5.32-3.51-5.38-4.14-.06-.65-.41-.1 8.22-8.73.94-.94 2.35.48 1.41 1.41l-7.08 7.08c5.46 3.75 1.67.69 16.1 13.39.7.61.25 1.75-.66 1.75z"/><path d="M20 41c-.91 0-1.35-1.14-.66-1.75C33.79 26.53 30 29.6 35.44 25.86l-7.08-7.08c-.94-.94.48-2.35 1.41-1.41 8.53 8.53 8.28 8.07 8.22 8.73-.06.64 0 .44-5.38 4.14C19.6 41.68 20.53 41.01 19.99 41.01z"/></g><g fill="#1976d2"><circle cx="32" cy="11" r="3"/><path d="M4 38h56v4H4z"/></g><path d="M7 42h50v22H7z" fill="#5e9fdf"/><path d="M24 50h16c1.1 0 2 .9 2 2v12H22V52c0-1.1.9-2 2-2z" fill="#f3f3f3"/><path d="M31 50h2v14h-2zm5.51-36.84c1.26-2.58.02-5.87-2.85-6.88-4.2-1.49-8.1 2.93-6.17 6.88.58 1.19-1.22 2.07-1.8.88-2.7-5.54 2.73-11.73 8.63-9.64 4.01 1.41 5.76 6 3.98 9.64-.57 1.18-2.38.31-1.8-.88z" fill="#5e9fdf"/><path d="M24.08 18.62C17.45 11.77 22.14 0 32.19 0c9.54.17 14.39 11.74 7.73 18.62-.91.95-2.36-.44-1.44-1.39C43.92 11.6 39.97 2.14 32.17 2c-8.22 0-12.08 9.62-6.65 15.23.92.95-.53 2.33-1.44 1.39z" fill="#1976d2"/></svg>