<svg xmlns="http://www.w3.org/2000/svg" viewBox="0 0 64 64" xmlns:v="https://vecta.io/nano"><path d="M42.92 34.62l-10-24c-.34-.82-1.5-.82-1.85 0l-10 24a1 1 0 0 0 .92 1.38h20c.71 0 1.2-.73.92-1.38zM32 13.6l3.99 9.57-6.02-4.68 2.04-4.88zm-2.83 6.8l7 5.45-11.92 6.36 4.92-11.8zM25.13 34l12.58-6.71 2.8 6.71H25.14z" fill="#d9d9d9"/><rect x="5" y="32" width="54" height="6" rx="2" fill="#d38e2a"/><path d="M8 38h48v26H8z" fill="#5e9fdf"/><circle cx="32" cy="11" r="3" fill="#1976d2"/><path d="M37.41 14.58c-.73 0-1.22-.77-.9-1.44 1.29-2.65-.07-5.91-2.88-6.86-4.07-1.44-8.11 2.83-6.15 6.86.24.5.04 1.09-.46 1.34-.49.24-1.1.03-1.34-.46-1.79-3.67.02-8.22 4-9.62 6.04-2.01 11.29 4.15 8.62 9.62-.17.36-.53.56-.9.56zm1.81 4.34c-.87 0-1.33-1.06-.72-1.69 5.41-5.64 1.46-15.1-6.35-15.23-8.2 0-12.05 9.61-6.65 15.23.38.4.37 1.03-.03 1.41s-1.03.37-1.41-.03C17.47 11.75 22.15 0 32.17 0c9.54.16 14.41 11.71 7.77 18.61-.2.21-.46.31-.72.31z" fill="#5e9fdf"/><g fill="#f3f3f3"><rect x="13" y="42" width="6" height="6" rx="1"/><rect x="22" y="42" width="6" height="6" rx="1"/><path d="M26 52h12c1.1 0 2 .9 2 2v10H24V54c0-1.1.9-2 2-2z"/></g><path d="M31 52h2v12h-2z" fill="#5e9fdf"/><path d="M44 48a3.01 3.01 0 0 1-3-3 3.01 3.01 0 0 1 3-3 3.01 3.01 0 0 1 3 3 3.01 3.01 0 0 1-3 3zm0-4c-.55 0-1 .45-1 1s.45 1 1 1 1-.45 1-1-.45-1-1-1zm6 4c-.55 0-1-.45-1-1v-2c-.88 0-1.34-1.07-.71-1.71l1-1c.63-.63 1.71-.18 1.71.71v4c0 .55-.45 1-1 1z" fill="#f3f3f3"/><path d="M14 32h-2v-3c0-.55.45-1 1-1 .29 0 1 .22 1 1v3zm4 0h-2v-1c0-.55.45-1 1-1 .29 0 1 .22 1 1v1z" fill="#d9d9d9"/></svg>