<svg xmlns="http://www.w3.org/2000/svg" viewBox="0 0 64 64" xmlns:v="https://vecta.io/nano"><path d="M26 17c-.26 0-.51-.1-.71-.29-1.48-1.48-2.29-3.44-2.29-5.54V10c0-.55.45-1 1-1s1 .45 1 1v1.17c0 1.56.61 3.02 1.71 4.12A1.01 1.01 0 0 1 26 17zm8 0c-.88 0-1.34-1.07-.71-1.71 1.1-1.1 1.71-2.56 1.71-4.12V10c0-.55.45-1 1-1s1 .45 1 1v1.17c0 2.09-.81 4.06-2.29 5.54A.98.98 0 0 1 34 17zM20 35H9c-.55 0-1-.45-1-1s.45-1 1-1h11c.55 0 1 .45 1 1s-.45 1-1 1z" fill="#1976d2"/><path d="M30 50c-6.07 0-11-4.92-11-11V26c0-1.1.9-2 2-2h18c1.1 0 2 .9 2 2v13c0 6.08-4.92 11-11 11z" fill="#5e9fdf"/><g fill="#1976d2"><path d="M20 31c-.13 0-1.33-.21-5.03-.82-1.05-.17-1.94-.91-2.32-1.91l-2.6-6.92c-.19-.52.07-1.09.59-1.29a1.01 1.01 0 0 1 1.29.58l2.59 6.92a1.01 1.01 0 0 0 .77.64l4.86.81c.54.09.91.61.82 1.15-.08.49-.51.84-.99.84zm31 4H40c-.55 0-1-.45-1-1s.45-1 1-1h11c.55 0 1 .45 1 1s-.45 1-1 1zM11 48c-.7 0-1.18-.7-.94-1.35l2.59-6.92c.38-1 1.26-1.73 2.32-1.91l4.86-.81a1 1 0 0 1 1.15.82c.09.54-.28 1.06-.82 1.15l-4.86.81a.99.99 0 0 0-.77.64l-2.59 6.92c-.15.4-.53.65-.94.65zm38.35-.06c-.52.19-1.1-.08-1.29-.59l-2.59-6.92c-.13-.33-.42-.57-.77-.63l-4.86-.81c-.55-.09-.92-.61-.83-1.15.09-.55.61-.92 1.15-.83 5.15.86 5.44.78 6.21 1.41.44.33.77.78.97 1.31l2.6 6.92c.19.52-.07 1.09-.59 1.29z"/><path d="M40 31c-.48 0-.9-.35-.99-.84-.09-.54.28-1.06.82-1.15l4.86-.81a.99.99 0 0 0 .77-.64l2.59-6.92a.99.99 0 0 1 1.29-.58c.52.19.78.77.59 1.29l-2.59 6.92c-.38 1-1.26 1.73-2.32 1.91l-5.03.82z"/></g><path d="M41 26c0 14.31.06 13.63-.17 14.92-.8 4.72-4.77 8.58-9.83 9.03-6.47.59-12-4.5-12-10.95V26c0-1.1.9-2 2-2h18c1.1 0 2 .9 2 2z" fill="#5e9fdf"/><path d="M24 21h12c1.1 0 2 .9 2 2v1H22v-1c0-1.1.9-2 2-2z" fill="#1976d2"/><path d="M30,13c-3.31,0-6,2.69-6,6v2h12v-2c0-3.31-2.69-6-6-6Z" fill="#5e9fdf"/><path d="M31 24v25.95a9.55 9.55 0 0 1-2 0V24h2zm18.35 23.94c-.52.19-1.1-.08-1.29-.59l-2.59-6.92c-.13-.33-.42-.57-.77-.63l-1.27-.21 2.94-1.17c.44.33.77.78.97 1.31l2.6 6.92c.19.52-.07 1.09-.59 1.29z" fill="#1976d2"/><path d="M30 0C13.46 0 0 13.46 0 30s13.46 30 30 30a30.04 30.04 0 0 0 28.87-21.88C64.3 19.2 49.93 0 30 0zM4 30C4 15.66 15.66 4 30 4c6.45 0 12.35 2.37 16.9 6.27L10.27 46.9C6.37 42.35 4 36.45 4 30zm45.94 16.65h0c-8.89 10.82-25.55 12.76-36.84 3.08L49.73 13.1c8.35 9.74 8.3 23.92.21 33.55z" fill="#d38e2a"/><path d="M58.87 38.12c-2.44 8.71-8.74 15.83-16.92 19.39-.62-1.18-1.1-2.43-1.43-3.75a26.03 26.03 0 0 0 8.25-5.79c.72.21 1.45-.53 1.17-1.31 0-.22 3.48-3.49 5.2-10.04l3.73 1.5z" fill="#e4c290"/><path d="M53 39l-10 4v6.56c0 6.2 4.06 11.66 10 13.44 5.93-1.78 10-7.24 10-13.44V43l-10-4z" fill="#5e9fdf"/><path d="M40.83 40.92c-.16.94-.45 1.83-.83 2.67V43a3.03 3.03 0 0 1 .83-2.08zm11.88 23.04A14.93 14.93 0 0 1 42 49.56V43a1 1 0 0 1 .63-.93l10-4a1.05 1.05 0 0 1 .74 0l10 4A1 1 0 0 1 64 43v6.56a14.93 14.93 0 0 1-10.71 14.4c-.18.05-.38.06-.57 0zM44 43.68v5.88c0 5.7 3.6 10.64 9 12.39 5.4-1.75 9-6.69 9-12.39v-5.88l-9-3.6-9 3.6z" fill="#1976d2"/><path d="M52.29 54.71l-3-3c-.39-.39-.39-1.02 0-1.41s1.02-.39 1.41 0l2.29 2.29 4.29-4.29c.39-.39 1.02-.39 1.41 0s.39 1.02 0 1.41l-5 5c-.39.39-1.02.39-1.41 0z" fill="#f3f3f3"/></svg>