<svg xmlns="http://www.w3.org/2000/svg" viewBox="0 0 64 64" xmlns:v="https://vecta.io/nano"><g fill="#5e9fdf"><rect x="6" width="58" height="41" rx="2"/><path d="M51 47.99H17V0h19.53a4.01 4.01 0 0 1 3.58 2.21l.79 1.58A3.99 3.99 0 0 0 44.48 6h6.53v41.99z"/></g><path d="M64 6v46c0 1.1-.9 2-2 2H2c-1.1 0-2-.9-2-2V2C0 .9.9 0 2 0h17.53a4.02 4.02 0 0 1 3.58 2.21l.78 1.58A4.02 4.02 0 0 0 27.47 6H64z" fill="#f3f3f3"/><path d="M45.86,54H18.14c-1.19-8.6,5.47-16,13.86-16s15.05,7.38,13.86,16Z" fill="#d9d9d9"/><circle cx="32" cy="52" r="12" fill="#e4c290"/><circle cx="32" cy="52" r="10" fill="#d38e2a"/><path d="M28 56c-.26 0-.51-.1-.71-.29l-3-3c-.39-.39-.39-1.02 0-1.41l3-3c.39-.39 1.02-.39 1.41 0s.39 1.02 0 1.41L26.41 52l2.29 2.29a1.01 1.01 0 0 1-.71 1.71zm8 0c-.88 0-1.34-1.07-.71-1.71L37.58 52l-2.29-2.29c-.39-.39-.39-1.02 0-1.41s1.02-.39 1.41 0l3 3c.39.39.39 1.02 0 1.41l-3 3a.98.98 0 0 1-.71.29zm-5 2c-.63 0-1.1-.58-.98-1.2l2-10c.11-.54.63-.89 1.18-.78a1 1 0 0 1 .78 1.18l-2 10c-.09.48-.51.8-.98.8z" fill="#fff"/><g fill="#1976d2"><circle cx="60" cy="2.99" r="1"/><circle cx="56" cy="2.99" r="1"/><circle cx="52" cy="2.99" r="1"/></g><g fill="#5e9fdf"><circle cx="20" cy="2.99" r="1"/><path d="M12 21c-.4 0-.79-.25-.94-.65L9 14.85l-2.06 5.5c-.19.52-.77.78-1.29.59s-.78-.77-.59-1.29l3-8c.32-.86 1.55-.86 1.87 0l3 8c.25.66-.24 1.35-.94 1.35z"/><path d="M11 19H7c-.55 0-1-.45-1-1s.45-1 1-1h4c.55 0 1 .45 1 1s-.45 1-1 1zm5 2c-.55 0-1-.45-1-1v-8c0-.55.45-1 1-1s1 .45 1 1v8c0 .55-.45 1-1 1z"/><path d="M18.5 18H16c-.55 0-1-.45-1-1v-5c0-.55.45-1 1-1h2.5c1.93 0 3.5 1.57 3.5 3.5S20.43 18 18.5 18zM17 16h1.5a1.5 1.5 0 1 0 0-3H17v3zm8 5c-.55 0-1-.45-1-1v-8c0-.55.45-1 1-1s1 .45 1 1v8c0 .55-.45 1-1 1z"/></g><g fill="#d9d9d9"><circle cx="29" cy="20" r="1"/><circle cx="33" cy="20" r="1"/><circle cx="37" cy="20" r="1"/><path d="M5 25h6v2H5zm10 0h44v2H15zM5 29h6v2H5zm10 0h44v2H15zM5 33h6v2H5zm0 4h6v2H5zm10-4h44v2H15z"/></g></svg>