<svg xmlns="http://www.w3.org/2000/svg" viewBox="0 0 64 64" xmlns:v="https://vecta.io/nano"><path d="M62,15V54H2V15c0-1.66,1.34-3,3-3H59c1.66,0,3,1.34,3,3Z" fill="#1976d2"/><path d="M1 54h62c.55 0 1 .45 1 1v2c0 1.66-1.34 3-3 3H3c-1.66 0-3-1.34-3-3v-2c0-.55.45-1 1-1z" fill="#5e9fdf"/><path d="M60 15v37H4V15c0-.55.45-1 1-1h54c.55 0 1 .45 1 1z" fill="#fff"/><path d="M39 56H25c-1.1 0-2-.9-2-2 0-.1-.84 0 18 0 0 .81-.63 2-2 2z" fill="#f3f3f3"/><g fill="#5e9fdf"><path d="M60 15v3H4v-3c0-.55.45-1 1-1h54c.55 0 1 .45 1 1z"/><path d="M18,14h17c1.66,0,3,1.34,3,3v1H18v-4h0Z"/></g><path d="M5 14h14c1.66 0 3 1.34 3 3v1H4v-3c0-.55.45-1 1-1z" fill="#fff"/><path d="M6 21h2v29H6z" fill="#5e9fdf"/><path d="M15.94 21.65c-.32-.86-1.55-.86-1.87 0l-3 8c-.46 1.24 1.41 1.94 1.87.7l.51-1.35h3.11l.51 1.35c.47 1.24 2.34.54 1.87-.7l-3-8zM14.2 27l.81-2.15.81 2.15h-1.61zm11.3-6H22c-.55 0-1 .45-1 1v8c0 1.32 2 1.32 2 0v-2h2.5c1.93 0 3.5-1.57 3.5-3.5S27.43 21 25.5 21zm0 5H23v-3h2.5a1.5 1.5 0 1 1 0 3zm5.5-4v8c0 1.32 2 1.32 2 0v-8c0-1.32-2-1.32-2 0z" fill="#d38e2a"/><path d="M13 38h8v2h-8zm-2-4h10v2H11zm26 4h16v2H37zm-14 0h12v2H23zm4 4h17v2H27zm-14 0h12v2H13zm33 0h7v2h-7zm-25 4h7v2h-7zm-10 0h8v2h-8z" fill="#5e9fdf"/><path d="M62 15v10.79c-.61.63-1.28 1.19-2 1.69V15c0-.55-.45-1-1-1H38.15c.09-.68.24-1.35.43-2H59c1.66 0 3 1.34 3 3z" fill="#1976d2"/><path d="M60 18v9.48c-8.49 5.95-20.37.82-21.86-9.48H60z" fill="#f3f3f3"/><path d="M60 15v3H38.14c-.18-1.31-.2-2.66.01-4H59c.55 0 1 .45 1 1z" fill="#1976d2"/><circle cx="52" cy="16" r="12" fill="#d38e2a"/><path d="M62 17v-2c0-.55-.45-1-1-1s-1.2.08-1.48-.7c-.24-.66-.7-1.29-.11-1.88l.37-.37c.39-.39.39-1.02 0-1.41l-1.42-1.42c-.39-.39-1.02-.39-1.41 0s-.79.9-1.54.55c-.64-.3-1.41-.41-1.41-1.25V7c0-.55-.45-1-1-1h-2c-.55 0-1 .45-1 1s.08 1.2-.7 1.48c-.66.24-1.29.7-1.88.11l-.37-.37c-.39-.39-1.02-.39-1.41 0l-1.42 1.42c-.39.39-.39 1.02 0 1.41s.9.79.55 1.54c-.3.64-.41 1.41-1.25 1.41H43c-.55 0-1 .45-1 1v2c0 .55.45 1 1 1s1.2-.08 1.48.7c.24.66.7 1.29.11 1.88l-.37.37c-.39.39-.39 1.02 0 1.41l1.42 1.42c.39.39 1.02.39 1.41 0s.79-.9 1.54-.55c.64.3 1.41.41 1.41 1.25V25c0 .55.45 1 1 1h2c.55 0 1-.45 1-1s-.08-1.2.7-1.48c.66-.24 1.29-.7 1.88-.11l.37.37c.39.39 1.02.39 1.41 0l1.42-1.42c.39-.39.39-1.02 0-1.41s-.9-.79-.55-1.54c.3-.64.41-1.41 1.25-1.41H61c.55 0 1-.45 1-1zm-7.22 2.04c-4.2 3-8.82-1.63-5.82-5.82a1.07 1.07 0 0 1 .26-.26c4.2-3 8.82 1.63 5.82 5.82a1.07 1.07 0 0 1-.26.26z" fill="#f3f3f3"/></svg>