<svg xmlns="http://www.w3.org/2000/svg" viewBox="0 0 64 64" xmlns:v="https://vecta.io/nano"><path d="M49 10v44c0 3.31-2.69 6-6 6H21c-3.31 0-6-2.69-6-6V10c0-3.2 2.51-5.82 5.67-5.98C20.79 3.99 19.71 4 43 4c3.31 0 6 2.69 6 6z" fill="#5e9fdf"/><path d="M47 10v42a4 4 0 0 1-4 4H21a4 4 0 0 1-4-4V11a5 5 0 0 1 4.58-4.98c.35-.02.01-.02 2.7-.02.84 0 .97.74 1.26 1.63A2.01 2.01 0 0 0 27.44 9h9.12a2.01 2.01 0 0 0 1.9-1.37l.31-.94a1.01 1.01 0 0 1 .95-.69H43a4 4 0 0 1 4 4z" fill="#fff"/><path d="M20 16h10v16H20zm14 16h10v16H34z" fill="#5e9fdf"/><path d="M34 12h10v10H34zM20 35h10v10H20z" fill="#d38e2a"/><path d="M20 12h9v2h-9zm14 12h9v2h-9zm0 4h9v2h-9zM20 47h9v2h-9zm14 3h9v2h-9z" fill="#f3f3f3"/><path d="M21.58 6.02A5 5 0 0 0 17 11v8.4c-.76 1.45-.96 2.69-1 2.8 0 1.26.02 2.46-1 3.8V10c0-3.39 2.83-5.99 5.78-5.99a10.94 10.94 0 0 1 .8 2.01z" fill="#1976d2"/><path d="M20 12v2h.79c-1.22 2.42-2.45 2.78-3.79 5.4V11a5 5 0 0 1 4.58-4.98 10.85 10.85 0 0 1 0 5.98H20z" fill="#f3f3f3"/><path d="M21.58 12c-.19.69-.46 1.36-.79 2H20v-2h1.58z" fill="#d9d9d9"/><path d="M20 9c0 5.9-4.67 6.43-5.95 12.77-.06.31.86.23-6.05.23-.51-2.53-1.54-4.8-3.4-6.68C-1.05 9.6 3.13-.22 11.25 0 16.05.13 20 4.2 20 9z" fill="#d38e2a"/><path d="M10.07 22.37l-4-10A1 1 0 0 1 7 11c8.82 0 8.43-.16 8.83.44s.37.27-3.9 10.93c-.34.84-1.52.84-1.86 0zM8.48 13L11 19.31 13.52 13H8.47z" fill="#fff"/><path d="M11,26c-1.66,0-3-1.34-3-3v-1h6v1c0,1.66-1.34,3-3,3Z" fill="#f3f3f3"/><path d="M49 46v8c0 3.31-2.69 6-6 6h-5v-4h5a4 4 0 0 0 4-4v-6h2z" fill="#1976d2"/><path d="M47 46v6a4 4 0 0 1-4 4h-5v-4h5v-2h-5a3.99 3.99 0 0 1 .54-2H44v-2h3z" fill="#f3f3f3"/><path d="M38 50h5v2h-5z" fill="#d9d9d9"/><path d="M44,46v2h-5.46c1.34-2.33,3.61-2,5.46-2Z" fill="#5e9fdf"/><path d="M62 50v12c0 1.1-.9 2-2 2-19.36 0-18.61.24-19.41-.59-.81-.79-.59-.5-.59-13.41 0-1.1.9-2 2-2h18c1.1 0 2 .9 2 2z" fill="#d38e2a"/><path d="M62 58v4c0 1.1-.9 2-2 2-19.36 0-18.61.24-19.41-.59l6-6c.78-.78 2.05-.78 2.83 0l.17.17c.78.78 2.05.78 2.83 0l3.17-3.17c.78-.78 2.05-.78 2.83 0L62.01 58z" fill="#e4c290"/><circle cx="45" cy="52" r="2" fill="#f3f3f3"/></svg>