<svg xmlns="http://www.w3.org/2000/svg" viewBox="0 0 64 64" xmlns:v="https://vecta.io/nano"><g fill="#1976d2"><path d="M40 36.95V57H4V36.95c0-1.76 1.15-3.31 2.82-3.82L17 30h10l10.18 3.13A4 4 0 0 1 40 36.95zM9 13h3v6H9z"/><path d="M30 14H11a4 4 0 0 1-4-4V3h21c1.66 0 3 1.34 3 3a4 4 0 0 1 4 4v7h-3v-1c0-1.1-.9-2-2-2z"/></g><path d="M34 24h-3v-8h3c1.1 0 2 .9 2 2v4c0 1.1-.9 2-2 2zm-24-8h3v9h-3c-1.1 0-2-.9-2-2v-5c0-1.1.9-2 2-2z" fill="#5e9fdf"/><path d="M22,36c-2.76,0-5-2.23-5-5v-3h10v3c0,2.76-2.24,5-5,5Z" fill="#d38e2a"/><path d="M22,32c-5.52,0-10-4.48-10-10V14H30c1.1,0,2,.9,2,2v6c0,5.52-4.48,10-10,10Z" fill="#e4c290"/><path d="M32,29h-5c-.55,0-1-.45-1-1s.45-1,1-1h5c.55,0,1-.45,1-1v-3c0-.55,.45-1,1-1s1,.45,1,1v3c0,1.65-1.35,3-3,3Z" fill="#f3f3f3"/><path d="M19.55 28.89a1.01 1.01 0 0 1-.45-1.34 1.01 1.01 0 0 1 1.34-.45c.97.49 2.13.49 3.11 0 .49-.25 1.09-.05 1.34.45.25.49.05 1.09-.45 1.34-1.5.75-3.33.78-4.89 0z" fill="#d38e2a"/><path d="M1 60h42c.55 0 1 .45 1 1v1c0 1.1-.9 2-2 2H2c-1.1 0-2-.9-2-2v-1c0-.55.45-1 1-1z" fill="#d9d9d9"/><path d="M43 36v24H1V36c0-1.1.9-2 2-2h38c1.1 0 2 .9 2 2z" fill="#f3f3f3"/><path d="M24.67 50.98C22.09 53.27 18 51.46 18 48s4.09-5.27 6.67-2.98C23.17 45.18 22 46.45 22 48s1.17 2.82 2.67 2.98z" fill="#5e9fdf"/><path d="M49.37.1c-8.82 1.07-14.05 10.71-9.96 18.76a2.02 2.02 0 0 1 .22 1.18l-.46 3.69c-.08.65.47 1.2 1.12 1.12 3.93-.49 4.1-.63 4.87-.24 8.05 4.08 17.68-1.15 18.76-9.96C64.93 6.17 57.83-.93 49.37.1z" fill="#e4c290"/><path d="M43,37v22c-6.07,0-11-4.93-11-11s4.93-11,11-11Z" fill="#d9d9d9"/><circle cx="43" cy="48" r="9" fill="#fff"/><circle cx="43" cy="48" r="7" fill="#1976d2"/><g fill="#f3f3f3"><circle cx="39" cy="48" r="1"/><circle cx="43" cy="48" r="1"/><circle cx="47" cy="48" r="1"/></g><g fill="#fff"><path d="M51 17.98c-.34 0-1-.23-1-1.02 0-1.43.92-2.68 2.34-3.19C53.93 13.2 55 11.69 55 10c0-2.17-1.83-4-4-4-2.52 0-4.43 2.32-3.92 4.8a1 1 0 1 1-1.96.4A6.01 6.01 0 0 1 51 4c3.25 0 6 2.75 6 6a6.01 6.01 0 0 1-3.98 5.65c-.62.22-1.02.73-1.02 1.31a1 1 0 0 1-1 1.02z"/><circle cx="51" cy="21" r="1"/></g></svg>