<svg xmlns="http://www.w3.org/2000/svg" viewBox="0 0 64 64" xmlns:v="https://vecta.io/nano"><path d="M63.71 43.29c-2.72-2.71-6.72-3.8-10.44-2.83l-13.02 3.4h0c.77-1.36.41-1.87.41-2.04a2.08 2.08 0 0 0-.79-1.15l-7.65-5.57c-1.89-1.37-4.13-2.1-6.47-2.1h-5.88c-2.07 0-4.08.58-5.83 1.67l-5.57 3.48A1.01 1.01 0 0 0 8 39v20c0 .55.45 1 1 1 7.46 0 9.24-.15 12.36.57C30.67 62.72 31.33 63 33.57 63a14.62 14.62 0 0 0 8.61-2.78l21.4-15.41c.49-.34.58-1.05.13-1.52z" fill="#d9d9d9"/><rect y="34" width="10" height="30" rx="3" fill="#1976d2"/><circle cx="6" cy="60" r="2" fill="#f3f3f3"/><path d="M42.99 43.14c-.53 1.61-2.17 3.37-4.28 4.07a7.04 7.04 0 0 1-5.7-.56l-1.16-.66c-.48-.28-.65-.89-.37-1.37.27-.47.88-.64 1.36-.37l1.16.66c2.09 1.19 4.68.73 6.25-1.05l2.74-.72z" fill="#c8c8c8"/><path d="M60 9v18a4 4 0 0 1-4 4H44.83c-.53 0-1.04.21-1.42.59l-2.7 2.7a1.01 1.01 0 0 1-1.42 0l-2.7-2.7c-.38-.38-.89-.59-1.42-.59H30a4 4 0 0 1-4-4V9a4 4 0 0 1 4-4h26a4 4 0 0 1 4 4z" fill="#d38e2a"/><path d="M48 17h8v2h-8z" fill="#fff"/><path d="M48 17h8v2h-5.59c-.87-.4-1.68-.91-2.41-1.51V17z" fill="#f3f3f3"/><path d="M60 9v9.8c-2.92 1.5-6.46 1.63-9.59.2H56v-2h-8v.49c-1.43-1.19-2.56-2.73-3.25-4.49H56v-2H44.18c-.35-1.91-.2-4 .57-6H56a4 4 0 0 1 4 4z" fill="#e4c290"/><path d="M30 11h8v2h-8zm12 0h14v2H42zm2 8H30v-2h14z" fill="#fff"/><path d="M56 11v2H44.75a11.19 11.19 0 0 1-.57-2H56z" fill="#f3f3f3"/><g fill="#fff"><path d="M30 23h8v2h-8zm12 0h14v2H42z"/><circle cx="55" cy="9" r="9"/></g><g fill="#5e9fdf"><path d="M54 10.91c0-1.3.73-2.48 1.96-3.16a1.98 1.98 0 0 0 1-2.12c-.25-1.45-2.05-2.17-3.25-1.16a2 2 0 0 0-.6 2.2 1.01 1.01 0 0 1-.61 1.28 1.01 1.01 0 0 1-1.28-.61 4 4 0 0 1 1.2-4.4c2.37-1.99 5.99-.62 6.51 2.35.3 1.7-.51 3.4-2.01 4.22-.58.32-.93.85-.93 1.41 0 1.34-2 1.43-2 0z"/><circle cx="55" cy="15" r="1"/></g></svg>