<svg xmlns="http://www.w3.org/2000/svg" viewBox="0 0 64 64" xmlns:v="https://vecta.io/nano"><path d="M36 43.95V57c0 1.1-.9 2-2 2H2c-1.1 0-2-.9-2-2V43.95c0-1.76 1.15-3.31 2.82-3.82L13 37h10l10.18 3.13A4 4 0 0 1 36 43.95z" fill="#5e9fdf"/><g fill="#1976d2"><path d="M24 54h7v2h-7zm-7-11h2v16h-2zM5 20h3v6H5z"/><path d="M26 21H7a4 4 0 0 1-4-4v-7h21c1.66 0 3 1.34 3 3a4 4 0 0 1 4 4v7h-3v-1c0-1.1-.9-2-2-2z"/></g><path d="M30 31h-3v-8h3c1.1 0 2 .9 2 2v4c0 1.1-.9 2-2 2zM6 23h3v9H6c-1.1 0-2-.9-2-2v-5c0-1.1.9-2 2-2z" fill="#5e9fdf"/><path d="M18,43c-2.76,0-5-2.23-5-5v-3h10v3c0,2.76-2.24,5-5,5Z" fill="#d38e2a"/><g fill="#5e9fdf"><path d="M10.17 37.87L12 47l6-4-5-6-2.83.87z"/><path d="M25.83 37.87L24 47l-6-4 5-6 2.83.87z"/></g><path d="M18,39c-5.52,0-10-4.48-10-10v-8H26c1.1,0,2,.9,2,2v6c0,5.52-4.48,10-10,10Z" fill="#e4c290"/><path d="M28,36h-5c-.55,0-1-.45-1-1s.45-1,1-1h5c.55,0,1-.45,1-1v-3c0-.55,.45-1,1-1s1,.45,1,1v3c0,1.65-1.35,3-3,3Z" fill="#f3f3f3"/><path d="M63.86 22.8l-.74-11c-.1-1.57-1.42-2.8-2.99-2.8-7.57 0-8.67-.18-10.87.53-3.5.56-2.31.47-5.26.47-.55 0-1 .45-1 1v13c0 .55.45 1 1 1 1.42 0 2.7.84 3.26 2.15l1.3 3.03A3 3 0 0 0 51.32 32c1.99 0 3.55-1.79 3.23-3.81L54.18 26h6.68c1.69 0 3.11-1.43 3-3.2z" fill="#e4c290"/><rect x="37" y="9" width="8" height="17" rx="1" fill="#1976d2"/><path d="M28 52h2v2h-2z" fill="#5e9fdf"/><path d="M21 36h-6c-.55 0-1-.45-1-1v-1a4 4 0 1 1 8 0v1c0 .55-.45 1-1 1zm-5-2h4c0-1.1-.9-2-2-2s-2 .9-2 2zm-1-6c-.32 0-.27-.02-2.45-1.11a1.01 1.01 0 0 1-.45-1.34 1.01 1.01 0 0 1 1.34-.45l2 1c.94.47.61 1.89-.45 1.89zm6 0c-1.05 0-1.39-1.43-.45-1.89l2-1c.5-.25 1.1-.05 1.34.45a1 1 0 0 1-.45 1.34c-2.2 1.1-2.13 1.11-2.45 1.11z" fill="#d38e2a"/><path d="M28.85 10.53l-5 8C23.31 19.38 22 19 22 18v-4h-3a1 1 0 0 1-.99-1.12l1-8c.06-.5.49-.88.99-.88h6a1.01 1.01 0 0 1 .98 1.2L26.22 9H28c.76 0 1.27.85.85 1.53zM63 58H39c-.77 0-1.26-.85-.86-1.51l12-20c.36-.61 1.36-.61 1.72 0l12 20c.4.66-.09 1.51-.86 1.51z" fill="#e4c290"/><g fill="#fff"><path d="M51 50h0c-.57 0-1.05-.43-1.12-.99l-.63-5.02c-.13-1.05.69-1.98 1.75-1.98h0c1.06 0 1.88.93 1.75 1.98l-.63 5.02c-.07.57-.55.99-1.12.99z"/><circle cx="51" cy="54" r="2"/></g></svg>