<?xml version="1.0" encoding="UTF-8"?><svg id="a" xmlns="http://www.w3.org/2000/svg" viewBox="0 0 46 64"><defs><style>.h{fill:#fff;}.i{fill:#5e9fdf;}.j{fill:#c8c8c8;}.k{fill:#fdfdfd;}.l{fill:#d38e2a;}.m{fill:#f3f3f3;}.n{fill:#d9d9d9;}.o{fill:#1976d2;}</style></defs><path class="i" d="M40,6V58c0,3.31-2.69,6-6,6H6c-3.31,0-6-2.69-6-6V6C0,2.69,2.69,0,6,0l29.2,.12c2.71,.55,4.8,2.96,4.8,5.88Z"/><rect class="h" x="2" y="2" width="36" height="58" rx="4" ry="4"/><g><path id="b" class="o" d="M5,17c-1.66,0-3-1.34-3-3v-1h6v1c0,1.66-1.34,3-3,3Z"/><path id="c" class="o" d="M11,17c-1.66,0-3-1.34-3-3v-1h6v1c0,1.66-1.34,3-3,3Z"/><path id="d" class="o" d="M17,17c-1.66,0-3-1.34-3-3v-1h6v1c0,1.66-1.34,3-3,3Z"/><path id="e" class="o" d="M23,17c-1.66,0-3-1.34-3-3v-1h6v1c0,1.66-1.34,3-3,3Z"/><path id="f" class="o" d="M29,17c-1.66,0-3-1.34-3-3v-1h6v1c0,1.66-1.34,3-3,3Z"/><path id="g" class="o" d="M35,17c-1.66,0-3-1.34-3-3v-1h6v1c0,1.66-1.34,3-3,3Z"/></g><path class="i" d="M6,2h2V13H2V6c0-2.21,1.79-4,4-4Z"/><path class="o" d="M8,2h6V13h-6V2Z"/><path class="i" d="M14,2h6V13h-6V2Z"/><path class="o" d="M20,2h6V13h-6V2Z"/><path class="i" d="M26,2h6V13h-6V2Z"/><path class="o" d="M32,2h2c2.21,0,4,1.79,4,4v7h-6V2h0Z"/><path class="n" d="M31,58H9c-1.32,0-1.32-2,0-2H31c1.32,0,1.32,2,0,2Zm-5-6H14c-2.21,0-4-1.79-4-4s1.8-4,4-4c13.07,0,12.95-.25,14.34,.76,3.12,2.23,1.55,7.24-2.34,7.24Z"/><path class="l" d="M33,36c-.88,0-1.34-1.07-.71-1.71l1.29-1.29-1.29-1.29c-.94-.94,.48-2.35,1.41-1.41l2,2c.39,.39,.39,1.02,0,1.41-2.18,2.18-2.17,2.29-2.71,2.29h0Zm-26,0c-.54,0-.57-.15-2.71-2.29-.39-.39-.39-1.02,0-1.41l2-2c.94-.94,2.35,.48,1.41,1.41l-1.29,1.29,1.29,1.29c.39,.4,.37,1.04-.03,1.43-.18,.18-.43,.28-.68,.28h0Z"/><path class="i" d="M40,42.69v15.31c0,3.31-2.69,6-6,6h-4.62c-1.55-1.02-2.83-2.39-3.76-4h8.38c2.21,0,4-1.79,4-4v-13.83c.69,.11,1.36,.29,2,.52Z"/><path class="m" d="M38,42.17v13.83c0,2.21-1.79,4-4,4h-8.38c-.37-.64-.68-1.31-.93-2h6.31c1.32,0,1.32-2,0-2h-6.82c-.23-1.25-.24-2.61,0-4,1.88,0,3.27,.2,4.66-1.17,1.76-1.79,1.48-4.66-.49-6.07,2.69-2.23,6.22-3.18,9.66-2.59Z"/><path class="j" d="M26,52h-1.83c.48-2.89,2.01-5.43,4.17-7.24,3.15,2.25,1.51,7.24-2.34,7.24Zm5,6h-6.31c-.23-.64-.41-1.31-.51-2h6.82c1.32,0,1.32,2,0,2Z"/><circle class="l" cx="36" cy="54" r="10"/><path class="k" d="M41.75,51.34c-.19-.22-.46-.34-.75-.34h-.46l-1.7-2.55c-.73-1.1-2.4,0-1.66,1.11l.96,1.45h-4.26l.96-1.45c.74-1.1-.93-2.21-1.66-1.11l-1.7,2.55h-.46c-.6,0-1.07,.53-.99,1.12l.84,5.19c.16,.97,.99,1.68,1.97,1.68h6.36c.98,0,1.82-.71,1.97-1.68,.91-5.61,1.02-5.5,.6-5.98h-.02Z"/><path class="i" d="M11,32H29v8c0,.55-.45,1-1,1H12c-.55,0-1-.45-1-1v-8h0Z"/><path class="o" d="M30,32l-10,2-10-2v-5c0-.55,.45-1,1-1H29c.55,0,1,.45,1,1v5Z"/><path class="o" d="M24,28h-8c-.55,0-1-.45-1-1v-4c0-.55,.45-1,1-1h8c.55,0,1,.45,1,1v4c0,.55-.45,1-1,1Zm-7-2h6v-2h-6v2Z"/><g><path class="i" d="M19,32h2c.55,0,1,.45,1,1v2h-4v-2c0-.55,.45-1,1-1Z"/><path class="i" d="M19,35h2v1h-2v-1Z"/></g></svg>