<svg xmlns="http://www.w3.org/2000/svg" viewBox="0 0 64 64" xmlns:v="https://vecta.io/nano"><path d="M55.04 28H8.96c-1.94 0-2.68-2.53-1.1-3.58L32 8l24.14 16.42c1.58 1.06.84 3.58-1.1 3.58z" fill="#1976d2"/><path d="M55 26H9l23-16 23 16z" fill="#5e9fdf"/><g fill="#1976d2"><path d="M42.76 15.32c-.27.53-.57 1.05-.92 1.53L32 10l-9.84 6.85c-.35-.48-.65-1-.92-1.53L32 8l10.76 7.32z"/><path d="M41.84 16.85c-4.77 6.86-14.91 6.86-19.68 0L32 10l9.84 6.85z"/></g><circle cx="32" cy="10" r="10" fill="#d38e2a"/><path d="M9,28H55v1c0,1.66-1.34,3-3,3H12c-1.66,0-3-1.34-3-3v-1h0Z" fill="#1976d2"/><path d="M12 32h8v22h-8zm16 0h8v22h-8zm16 0h8v22h-8z" fill="#5e9fdf"/><g fill="#1976d2"><path d="M12 54h40c1.1 0 2 .9 2 2v2H10v-2c0-1.1.9-2 2-2z"/><path d="M59 64c0 .1 1.68 0-54 0 0-1.62 1.23-2.41 1.9-2.63.91-.3 1.26-.84 1.42-1.32l.46-1.37a1 1 0 0 1 .95-.68h44.55c.43 0 .81.28.95.68l.46 1.37c.2.6.67 1.07 1.26 1.26 1.42.47 2.05 1.57 2.05 2.68z"/></g><path d="M32 9c-1.32 0-1.32-2 0-2h2c1.32 0 1.32-2 0-2h-1V4c0-1.32-2-1.32-2 0l.04 1.17C27.83 6.27 28.64 11 32 11c1.32 0 1.32 2 0 2h-2c-1.32 0-1.32 2 0 2h1v1c0 1.32 2 1.32 2 0l-.04-1.17C36.17 13.73 35.36 9 32 9z" fill="#fdfdfd"/></svg>