<svg xmlns="http://www.w3.org/2000/svg" viewBox="0 0 64 64" xmlns:v="https://vecta.io/nano"><rect x="2" y="6" width="60" height="48" rx="4" fill="#5e9fdf"/><path d="M44 64H20c2.56-2.56 4-6.03 4-9.66V54h16v.34A13.67 13.67 0 0 0 44 64h0z" fill="#1976d2"/><g fill="#5e9fdf"><rect x="18" y="62" width="28" height="2" rx="1"/><rect x="5" y="9" width="54" height="40" rx="1"/></g><path d="M59 14v34c0 .55-.45 1-1 1H6c-.55 0-1-.45-1-1V10c0-.55.45-1 1-1h14.08c1.21 0 2.36.55 3.12 1.5l1.6 2c.76.95 1.91 1.5 3.12 1.5H59z" fill="#fff"/><path d="M46.45,9H17.55c.28-1.05,.69-2.05,1.19-3h26.52c.5,.95,.91,1.95,1.19,3Z" fill="#1976d2"/><path d="M47 13l-.04 1H27.92c-1.21 0-2.36-.55-3.12-1.5l-1.6-2c-.76-.95-1.91-1.5-3.12-1.5h26.37c.36 1.27.55 2.61.55 4z" fill="#5e9fdf"/><path d="M46.96 14c-.51 7.81-7.03 14-14.96 14s-15-6.73-15-15c0-1.39.19-2.73.55-4h2.53c1.21 0 2.36.55 3.12 1.5l1.6 2c.76.95 1.91 1.5 3.12 1.5h19.04z" fill="#f3f3f3"/><circle cx="32" cy="13" r="13" fill="#d38e2a"/><path d="M24 11h16v4H24z" fill="#f3f3f3"/><g fill="#d9d9d9"><path d="M8 30h14v16H8zm18 0h28v2H26zm0 5h26v2H26zm0 5h14v2H26z"/><circle cx="55" cy="18" r="1"/><circle cx="51" cy="18" r="1"/></g></svg>