<?xml version="1.0" encoding="UTF-8"?><svg id="a" xmlns="http://www.w3.org/2000/svg" viewBox="0 0 64 57"><defs><style>.b{fill:#5e9fdf;}.c{fill:#fdfdfd;}.d{fill:#d38e2a;}.e{fill:#f3f3f3;}.f{fill:#d9d9d9;}.g{fill:#1976d2;}</style></defs><path class="e" d="M4,15H60V53H4V15Z"/><path class="d" d="M7,11H1c-.55,0-1,.45-1,1v6c0,1.34,2,1.29,2,0v-5H7c1.32,0,1.32-2,0-2Zm50,0h6c.55,0,1,.45,1,1v6c0,1.34-2,1.29-2,0v-5h-5c-1.32,0-1.32-2,0-2ZM7,57H1c-.55,0-1-.45-1-1v-6c0-1.34,2-1.29,2,0v5H7c1.32,0,1.32,2,0,2Zm50,0h6c.55,0,1-.45,1-1v-6c0-1.34-2-1.29-2,0v5h-5c-1.32,0-1.32,2,0,2Z"/><path class="b" d="M6,17h4V51H6V17Z"/><path class="g" d="M12,17h4v30h-4V17Z"/><path class="b" d="M18,17h2v30h-2V17Zm4,0h2v30h-2V17Z"/><path class="g" d="M26,17h4v30h-4V17Z"/><path class="b" d="M32,17h2V51h-2V17Z"/><path class="g" d="M36,17h4v30h-4V17Zm6,0h4v30h-4V17Z"/><path class="b" d="M48,17h4V51h-4V17Zm6,0h4V51h-4V17Z"/><path class="g" d="M12,49h4v2h-4v-2Zm14,0h4v2h-4v-2Zm10,0h4v2h-4v-2Zm6,0h4v2h-4v-2Z"/><path class="b" d="M18,49h2v2h-2v-2Zm4,0h2v2h-2v-2Z"/><path class="f" d="M42.91,15c-.69,1.5-1.68,2.84-2.91,3.93v-1.93h-4v4.31c-.64,.23-1.31,.41-2,.52v-4.83h-2v5c-.68,0-1.35-.06-2-.17v-4.83h-4v3.39c-.72-.41-1.39-.9-2-1.46v-1.93h-1.74c-.45-.62-.84-1.29-1.17-2h21.82Z"/><path class="g" d="M22.26,17h1.74v1.93c-.65-.58-1.24-1.22-1.74-1.93Zm3.74,0h4v4.83c-1.41-.24-2.76-.73-4-1.44v-3.39Zm6,0h2v4.83c-.65,.11-1.32,.17-2,.17v-5Zm8,0v1.93c-1.16,1.05-2.52,1.86-4,2.38v-4.31h4Z"/><circle class="d" cx="32" cy="10" r="10"/><path class="c" d="M30,15c-.26,0-.52-.1-.71-.29l-3-3c-.39-.39-.39-1.02,0-1.41s1.02-.39,1.41,0l2.24,2.24,6.3-7.2c.37-.42,1-.46,1.41-.09,.42,.36,.46,1,.09,1.41l-7,8c-.18,.21-.44,.33-.72,.34h-.03Z"/></svg>