<svg xmlns="http://www.w3.org/2000/svg" viewBox="0 0 64 64" xmlns:v="https://vecta.io/nano"><style><![CDATA[.I{fill:#d9d9d9}.J{fill:#5e9fdf}.K{fill:#d38e2a}]]></style><path d="M52,4l-4,24V60H9c-1.66,0-3-1.34-3-3V7c0-1.66,1.34-3,3-3H52Z" fill="#f3f3f3"/><path d="M59 28H48V8a4 4 0 1 1 8 0v8" class="I"/><path d="M59,28c-1.66,0-3-1.34-3-3v-9h6v9c0,1.66-1.34,3-3,3Z" fill="#c8c8c8"/><path d="M6 17.16V7c0-1.66 1.34-3 3-3h10.16C22.82 12.26 14.27 20.82 6 17.16z" class="I"/><circle cx="10" cy="8" r="8" fill="#1976d2"/><path d="M10 7c-1.32 0-1.32-2 0-2h2c1.32 0 1.32-2 0-2h-1c0-1.27-2-1.46-2 .18C5.82 4.32 6.67 9 10 9c1.32 0 1.32 2 0 2H8c-1.32 0-1.32 2 0 2h1c0 1.24 2 1.49 2-.18C14.18 11.68 13.33 7 10 7z" fill="#fdfdfd"/><g fill="#e4c290"><rect x="42" y="60" width="12" height="4" rx="1"/><rect x="42" y="56" width="12" height="4" rx="1"/></g><rect x="42" y="52" width="12" height="4" rx="1" class="K"/><rect x="30" y="60" width="12" height="4" rx="1" fill="#e4c290"/><rect x="30" y="56" width="12" height="4" rx="1" class="K"/><path d="M10 20h16v2H10z" class="I"/><path d="M30 20h14v2H30z" class="J"/><path d="M10 24h13v2H10z" class="I"/><path d="M30 24h14v2H30z" class="J"/><path d="M10 28h16v2H10z" class="I"/><path d="M30 28h14v2H30z" class="J"/><path d="M10 32h14v2H10zm20 13h14v2H30z" class="I"/><path d="M30 32h14v2H30z" class="J"/><path d="M10 36h16v2H10z" class="I"/><path d="M30 36h14v2H30z" class="J"/><path d="M10 41h34v2H10z" class="K"/><path d="M36 7h8v2h-8zm-8 4h16v2H28z" class="I"/><path d="M13 50c-1.32 0-1.32-2 0-2h2c1.32 0 1.32-2 0-2h-1c0-1.27-2-1.46-2 .18C8.82 47.32 9.67 52 13 52c1.32 0 1.32 2 0 2h-2c-1.32 0-1.32 2 0 2h1c0 1.24 2 1.49 2-.18 3.18-1.14 2.33-5.82-1-5.82z" class="J"/></svg>