<?xml version="1.0" encoding="UTF-8"?><svg id="a" xmlns="http://www.w3.org/2000/svg" viewBox="0 0 60 64"><defs><style>.b{fill:#5e9fdf;}.c{fill:#c8c8c8;}.d{fill:#d38e2a;}.e{fill:#f3f3f3;}.f{fill:#d9d9d9;}.g{fill:#1976d2;}</style></defs><path class="e" d="M44,22v42H0V4C0,1.79,1.79,0,4,0H48"/><path class="f" d="M56,25h-12V4c0-2.21,1.79-4,4-4s4,1.79,4,4v6"/><path class="c" d="M60,10h-8v11c0,2.21,1.79,4,4,4s4-1.79,4-4V10Z"/><circle class="b" cx="9" cy="11" r="6"/><g><path class="g" d="M13.46,15c-2.19,2.46-5.97,2.68-8.43,.49-.17-.15-.34-.32-.49-.49,2.19-2.46,5.97-2.68,8.43-.49,.17,.15,.34,.32,.49,.49Z"/><circle class="g" cx="9" cy="10" r="3"/></g><path class="d" d="M37,20c-.55,0-1-.45-1-1v-1h-2c-.55,0-1-.45-1-1s.45-1,1-1h3.5c.83,0,1.5-.67,1.5-1.5s-.67-1.5-1.5-1.5h-1c-1.93,0-3.5-1.57-3.5-3.5,0-1.76,1.31-3.22,3-3.46v-1.04c0-.55,.45-1,1-1s1,.45,1,1v1h2c.55,0,1,.45,1,1s-.45,1-1,1h-3.5c-.83,0-1.5,.67-1.5,1.5s.67,1.5,1.5,1.5h1c1.93,0,3.5,1.57,3.5,3.5,0,1.76-1.31,3.22-3,3.46v1.04c0,.55-.45,1-1,1Z"/><path class="f" d="M3,19H21v2H3v-2Zm0,4H27v2H3v-2Z"/><path class="b" d="M40,28H4c-.55,0-1,.45-1,1V61c0,.55,.45,1,1,1H40c.55,0,1-.45,1-1V29c0-.55-.45-1-1-1Zm-1,8H21v-2h18v2Zm0,4H21v-2h18v2Zm0,4H21v-2h18v2Zm0,4H21v-2h18v2Zm0,4H21v-2h18v2Zm-34-2h6v2H5v-2Zm0-4h6v2H5v-2Zm0-4h6v2H5v-2Zm0-4h6v2H5v-2Zm14,6h-6v-2h6v2Zm-6,2h6v2h-6v-2Zm6-6h-6v-2h6v2Zm-6,10h6v2h-6v-2Zm6-14h-6v-2h6v2Zm-8,0H5v-2h6v2Zm-6,18h6v2H5v-2Zm8,0h6v2h-6v-2Zm8,0h18v2H21v-2Zm18-22H21v-2h18v2Zm-20,0h-6v-2h6v2Zm-14-2h6v2H5v-2Zm0,28h6v2H5v-2Zm8,0h6v2h-6v-2Zm26,2H21v-2h18v2Z"/></svg>