<svg xmlns="http://www.w3.org/2000/svg" xmlns:xlink="http://www.w3.org/1999/xlink" viewBox="0 0 64 64" xmlns:v="https://vecta.io/nano"><path d="M62,19V58H2V19c0-1.66,1.34-3,3-3H59c1.66,0,3,1.34,3,3Z" fill="#5e9fdf"/><path d="M1 58h62c.55 0 1 .45 1 1v2c0 1.66-1.34 3-3 3H3c-1.66 0-3-1.34-3-3v-2c0-.55.45-1 1-1z" fill="#1976d2"/><path d="M60 19v4H20l-3.29-4.11L16 18h43c.55 0 1 .45 1 1z" fill="#5e9fdf"/><path d="M60 23v33H4V19c0-.55.45-1 1-1h18.08c1.21 0 2.36.55 3.12 1.5l1.6 2c.76.95 1.91 1.5 3.12 1.5H60z" fill="#fff"/><path d="M23 58h18c0 1.1-.9 2-2 2H25c-1.1 0-2-.9-2-2h0z" fill="#f3f3f3"/><path d="M44.42 16c-.19.68-.42 1.35-.69 2H20.27c-.27-.65-.5-1.32-.69-2h24.84z" fill="#1976d2"/><path d="M40.56 23a16.74 16.74 0 0 1-8.03 4.93l-.53.14-.53-.14A16.74 16.74 0 0 1 23.44 23h17.12z" fill="#f3f3f3"/><path d="M43.73 18a16.78 16.78 0 0 1-3.17 5h-9.64c-1.21 0-2.36-.55-3.12-1.5l-1.6-2c-.76-.95-1.91-1.5-3.12-1.5h20.65z" fill="#5e9fdf"/><path d="M30.92 23h-7.48a16.78 16.78 0 0 1-3.17-5h2.81c1.21 0 2.36.55 3.12 1.5l1.6 2c.76.95 1.91 1.5 3.12 1.5z" fill="#f3f3f3"/><path d="M43 6.09v5.31c0 6.73-4.51 12.63-11 14.4h0c-6.49-1.77-11-7.67-11-14.4V6.09c0-.78.46-1.5 1.17-1.82l9-4.09c.53-.24 1.13-.24 1.66 0l9 4.09c.71.32 1.17 1.04 1.17 1.82z" fill="#d38e2a"/><path d="M32 1.8l9 4v5.51c0 5.67-3.63 10.7-9 12.49h0c-5.37-1.79-9-6.82-9-12.49V5.8l9-4z" fill="#e4c290"/><path d="M31 15.8c-.26 0-.51-.1-.71-.29l-3-3c-.39-.39-.39-1.02 0-1.41s1.02-.39 1.41 0l2.29 2.29 4.29-4.29c.39-.39 1.02-.39 1.41 0s.39 1.02 0 1.41l-5 5a.98.98 0 0 1-.71.29z" fill="#f3f3f3"/><g fill="#d9d9d9"><use xlink:href="#B"/><use xlink:href="#B" y="13"/><use xlink:href="#B" x="7" y="13"/><use xlink:href="#B" x="17"/><use xlink:href="#C"/><use xlink:href="#C" x="7" y="13"/><use xlink:href="#C" x="17" y="13"/><use xlink:href="#C" x="17"/><use xlink:href="#C" x="27"/><use xlink:href="#C" x="27" y="13"/></g><defs ><path id="B" d="M14 39c-.55 0-1-.45-1-1v-5.59l-.29.29c-.39.39-1.02.39-1.41 0s-.39-1.02 0-1.41l2-2a1 1 0 0 1 1.09-.22c.37.15.62.52.62.92v8c0 .55-.45 1-1 1z"/><path id="C" d="M24 39h-5c-.55 0-1-.45-1-1v-8c0-.55.45-1 1-1h5c.55 0 1 .45 1 1v8c0 .55-.45 1-1 1zm-4-2h3v-6h-3v6z"/></defs></svg>