<svg xmlns="http://www.w3.org/2000/svg" viewBox="0 0 64 64" xmlns:v="https://vecta.io/nano"><path d="M30,17c-.55,0-1-.45-1-1v-1c0-4.96,4.04-9,9-9h10c.55,0,1,.45,1,1s-.45,1-1,1h-10c-3.86,0-7,3.14-7,7v1c0,.55-.45,1-1,1Z" fill="#d9d9d9"/><path d="M53 41a21.01 21.01 0 0 1-.22 3.09c-1.15 8.62-7.08 15.73-15.04 18.57a23.02 23.02 0 0 1-10.36 1.19C16.95 62.7 8.5 54.4 7.19 43.99c-1.44-11.4 5.48-21.43 15.47-24.79A1.97 1.97 0 0 0 24 17.32V16c0-1.1.9-2 2-2h8c1.1 0 2 .9 2 2v1.32c0 .84.52 1.61 1.32 1.88C46.43 22.25 53 30.86 53 41z" fill="#5e9fdf"/><path d="M46 41l-.03 1c-.13 2.14-.69 4.17-1.58 6-.33.7-.72 1.36-1.15 2-2.37 3.47-6.07 5.97-10.37 6.74-.93.17-1.89.26-2.87.26s-1.94-.09-2.87-.26c-4.3-.77-8-3.27-10.37-6.74-.43-.64-.82-1.3-1.15-2-.89-1.83-1.45-3.86-1.58-6-.02-.33-.03-.66-.03-1s.01-.67.03-1c.13-2.14.69-4.17 1.58-6 .33-.7.72-1.36 1.15-2 2.37-3.47 6.07-5.97 10.37-6.74.93-.17 1.89-.26 2.87-.26s1.94.09 2.87.26c4.3.77 8 3.27 10.37 6.74.43.64.82 1.3 1.15 2 .89 1.83 1.45 3.86 1.58 6 .02.33.03.66.03 1z" fill="#fff"/><path d="M57 7h0c0 .59-.4 1.1-.97 1.24h-.05a4.89 4.89 0 0 0-3.58 3.77l-.2 1.01c-.11.57-.61.98-1.2.98h0a1.23 1.23 0 0 1-1.2-.98l-.2-1.01c-.37-1.84-1.76-3.3-3.58-3.76h-.05c-.57-.16-.97-.67-.97-1.26h0c0-.59.4-1.1.97-1.24h0a4.86 4.86 0 0 0 3.6-3.83l.17-.93a1.22 1.22 0 0 1 1.2-1h.13a1.22 1.22 0 0 1 1.2 1l.17.93c.34 1.87 1.75 3.37 3.6 3.83h0c.57.14.97.65.97 1.24z" fill="#d38e2a"/><path d="M45.97 42l.03-1-.03-1h-7c-.09-2.02-.47-4.05-1.09-6h6.51c-.33-.7-.72-1.36-1.15-2h-6.09c-1.05-2.53-2.51-4.85-4.28-6.74-.93-.17-1.89-.26-2.87-.26s-1.94.09-2.87.26c-1.77 1.89-3.23 4.21-4.28 6.74h-6.09c-.43.64-.82 1.3-1.15 2h6.51c-.62 1.95-1 3.98-1.09 6h-7L14 41l.03 1h7c.09 2.02.47 4.05 1.09 6h-6.51c.33.7.72 1.36 1.15 2h6.09c1.05 2.53 2.51 4.85 4.28 6.74.93.17 1.89.26 2.87.26s1.94-.09 2.87-.26c1.77-1.89 3.23-4.21 4.28-6.74h6.09c.43-.64.82-1.3 1.15-2h-6.51c.62-1.95 1-3.98 1.09-6h7zM30 25.28c2.05 1.71 3.76 4.07 4.98 6.72h-9.96c1.22-2.65 2.93-5.01 4.98-6.72zm0 31.44c-2.05-1.71-3.76-4.07-4.98-6.72h9.96c-1.22 2.65-2.93 5.01-4.98 6.72zM35.78 48H24.22c-.67-1.93-1.09-3.97-1.19-6h13.94c-.1 2.03-.52 4.07-1.19 6zm-12.75-8c.1-2.03.52-4.07 1.19-6h11.56c.67 1.93 1.09 3.97 1.19 6H23.03z" fill="#5e9fdf"/><path d="M52.78 44.09c-1.15 8.62-7.08 15.73-15.04 18.57-.16-.97.04-1.99.59-2.84l9.32-14.33c.74-1.14 1.99-1.82 3.35-1.82.63 0 1.24.15 1.78.42z" fill="#1976d2"/><path d="M49.37 46.58l-9.05 14.33c-.84 1.33.09 3.09 1.63 3.09h18.11c1.54 0 2.47-1.76 1.63-3.09l-9.05-14.33c-.77-1.21-2.49-1.21-3.26 0z" fill="#d38e2a"/><g fill="#f3f3f3"><rect x="50" y="51" width="2" height="6" rx="1"/><circle cx="51" cy="60" r="1"/></g><path d="M8.68 3.12L2.31 13.35c-.83 1.33.12 3.06 1.69 3.06h12.74c1.57 0 2.52-1.73 1.69-3.06L12.06 3.12c-.78-1.25-2.6-1.25-3.38 0z" fill="#d38e2a"/><g fill="#f3f3f3"><rect x="9.34" y="4.41" width="2" height="6" rx="1"/><circle cx="10.34" cy="13.41" r="1"/></g></svg>