<svg xmlns="http://www.w3.org/2000/svg" viewBox="0 0 64 64" xmlns:v="https://vecta.io/nano"><path d="M12 0h40c2.76 0 5 2.24 5 5v50H7V5c0-2.76 2.24-5 5-5z" fill="#5e9fdf"/><path d="M12 60h45V50H12c-2.76 0-5 2.24-5 5s2.23 5 5 5z" fill="#f3f3f3"/><path d="M12 56h45v-2H12c-.55 0-1 .45-1 1 0 .29.22 1 1 1z" fill="#d9d9d9"/><rect x="16" y="4" width="32" height="18" rx="2" fill="#1976d2"/><path d="M27 17c-.26 0-.51-.1-.71-.29l-3-3c-.39-.39-.39-1.02 0-1.41l3-3c.39-.39 1.02-.39 1.41 0s.39 1.02 0 1.41L25.41 13l2.29 2.29a1.01 1.01 0 0 1-.71 1.71zm10 0c-.88 0-1.34-1.07-.71-1.71L38.58 13l-2.29-2.29c-.39-.39-.39-1.02 0-1.41s1.02-.39 1.41 0l3 3c.39.39.39 1.02 0 1.41l-3 3a.98.98 0 0 1-.71.29zm-6 2c-.63 0-1.1-.58-.98-1.2l2-10c.11-.54.63-.89 1.18-.78.54.11.89.63.78 1.18l-2 10c-.09.48-.51.8-.98.8z" fill="#fff"/><path d="M24 64c-.33 0-.16.04-4-1.88l-3.55 1.78c-.67.33-1.45-.16-1.45-.89v-9h10v9c0 .55-.44 1-1 1z" fill="#d38e2a"/><path d="M46 30H18c-.55 0-1-.45-1-1 0-.29.22-1 1-1h28c.55 0 1 .45 1 1 0 .29-.22 1-1 1zm-5 6H23c-.55 0-1-.45-1-1 0-.29.22-1 1-1h18c.55 0 1 .45 1 1 0 .29-.22 1-1 1z" fill="#1976d2"/></svg>