<?xml version="1.0" encoding="UTF-8"?><svg id="a" xmlns="http://www.w3.org/2000/svg" viewBox="0 0 64 64"><defs><style>.b{fill:#c8c8c8;}.c{fill:#fdfdfd;}.d{fill:#d38e2a;}.e{fill:#f3f3f3;}.f{fill:#d9d9d9;}.g{fill:#1976d2;}</style></defs><path class="g" d="M0,16H60V61H0V16Z"/><g><path class="e" d="M30,15c-1.28-1.28-3.02-2-4.83-2H4V57H25.17c1.81,0,3.55,.72,4.83,2,.1,.1,0-.17,0-44Z"/><path class="e" d="M56,13V57h-21.17c-1.81,0-3.55,.72-4.83,2V15c1.28-1.28,3.02-2,4.83-2h21.17Z"/></g><path class="f" d="M10,18H26v2H10v-2Zm-2,4H26v2H8v-2Zm0,4H26v2H8v-2Zm0,4H26v2H8v-2Zm0,4H26v2H8v-2Zm0,4H26v2H8v-2Zm0,4H26v2H8v-2Zm0,4H26v2H8v-2Zm0,4H24v2H8v-2ZM34,18h16v2h-16v-2Zm0,4h18v2h-18v-2Zm18,6h-18v-2h18v2Zm0,4h-18v-2h18v2Zm0,4h-18v-2h18v2Zm0,4h-18v-2h18v2Zm0,4h-18v-2h18v2Zm0,4h-18v-2h18v2Zm0,4h-16v-2h16v2Z"/><path class="d" d="M11,64l-2-2-2,2V13h4v51Z"/><path class="g" d="M60,16v5.95c-1.21,.78-2.56,1.36-4,1.7v-7.65h4Z"/><path class="f" d="M56,13v10.65c-1.39,.33-2.86,.41-4,.31v-1.96h-5.91c-.9-.56-1.72-1.23-2.46-2h6.37v-2h-7.94c-.94-1.44-1.59-3.07-1.91-5h15.85Z"/><path class="b" d="M50,20h-6.37c-.59-.61-1.12-1.28-1.57-2h7.94v2Zm2,2v1.96c-2.16-.16-4.17-.86-5.91-1.96h5.91Z"/><circle class="d" cx="53" cy="11" r="11"/><path class="c" d="M53,19c-.55,0-1-.45-1-1v-1h-2c-.55,0-1-.45-1-1s.45-1,1-1h3.5c.83,0,1.5-.67,1.5-1.5s-.67-1.5-1.5-1.5h-1c-1.93,0-3.5-1.57-3.5-3.5,0-1.76,1.31-3.22,3-3.46v-1.04c0-.55,.45-1,1-1s1,.45,1,1v1h2c.55,0,1,.45,1,1s-.45,1-1,1h-3.5c-.83,0-1.5,.67-1.5,1.5s.67,1.5,1.5,1.5h1c1.93,0,3.5,1.57,3.5,3.5,0,1.76-1.31,3.22-3,3.46v1.04c0,.55-.45,1-1,1Z"/></svg>