<?xml version="1.0" encoding="UTF-8"?><svg id="a" xmlns="http://www.w3.org/2000/svg" viewBox="0 0 64 63.97"><defs><style>.b{fill:#d38e2a;}.c{fill:#f3f3f3;}.d{fill:#d9d9d9;}.e{fill:#1976d2;}</style></defs><rect class="e" y="14.97" width="64" height="46" rx="3" ry="3"/><g><path class="c" d="M32,15.38V57.97c-1.28-1.28-3.02-2-4.83-2H4V11.97H28.59c1.92,0,3.41,1.56,3.41,3.41Z"/><path class="c" d="M32,15.38V57.97c1.28-1.28,3.02-2,4.83-2h23.17V11.97h-24.59c-1.92,0-3.41,1.56-3.41,3.41Z"/></g><path class="d" d="M36,16.97h21v12h-21v-12Zm-28,0h12v18H8V16.97Zm28,14h17v2h-17v-2Zm0,4h21v2h-21v-2Zm0,4h21v2h-21v-2Zm0,4h21v2h-21v-2Zm0,4h21v2h-21v-2Zm0,4h21v2h-21v-2ZM22,16.97h6v2h-6v-2Zm0,4h6v2h-6v-2Zm0,4h6v2h-6v-2Zm0,4h6v2h-6v-2Zm0,4h6v2h-6v-2Zm-12,4H28v2H10v-2Zm0,4H28v2H10v-2Zm0,4H28v2H10v-2Zm0,4H28v2H10v-2Z"/><g><path class="b" d="M11,11.97V58.97l-2-2-2,2V11.97c0-1.1,.9-2,2-2,.81,0,2,.63,2,2ZM53,63.97l-2-9,9,2-7,7Z"/><path class="b" d="M53,58.97l2-2,5,5-2,2-5-5Z"/><circle class="b" cx="32" cy="13.97" r="2"/></g><path class="b" d="M27.76,11.73c-.25,0-.51-.1-.7-.29-.39-.39-.4-1.02,0-1.41,1.31-1.33,3.06-2.06,4.94-2.06h0c1.88,0,3.64,.73,4.95,2.06,.39,.39,.39,1.03,0,1.41-.39,.39-1.03,.39-1.41,0-.94-.95-2.19-1.47-3.53-1.47h0c-1.34,0-2.59,.52-3.52,1.46-.2,.2-.45,.3-.71,.3Zm11.31-2.83c-.26,0-.51-.1-.71-.29-3.51-3.51-9.22-3.51-12.73,0-.39,.39-1.02,.39-1.41,0s-.39-1.02,0-1.41c4.29-4.29,11.27-4.29,15.55,0,.39,.39,.39,1.02,0,1.41-.2,.2-.45,.29-.71,.29Zm2.83-2.83c-.25,0-.51-.1-.71-.29-5.08-5.05-13.32-5.05-18.39,0-.39,.39-1.02,.39-1.41,0-.39-.39-.39-1.02,0-1.41,5.84-5.82,15.36-5.82,21.21,0,.39,.39,.39,1.02,0,1.41-.2,.2-.45,.29-.71,.29Z"/></svg>