<svg xmlns="http://www.w3.org/2000/svg" viewBox="0 0 64 64" xmlns:v="https://vecta.io/nano"><rect width="64" height="64" rx="2" fill="#f3f3f3"/><path d="M26,24V58H60V24H26Zm29,29H31V29h24v24Z" fill="#fff"/><path d="M6 6h34v34H6z" fill="#5e9fdf"/><path d="M60 24v1.42L27.41 58H26v-1.41L58.58 24H60z" fill="#d38e2a"/><path d="M58.29 15.29l-.29.29v-2.59c0-2.76-2.24-5-5-5h-2.59l.29-.29c.94-.94-.48-2.35-1.41-1.41l-2.22 2.33a1 1 0 0 0 .22 1.09C49.47 11.89 49.46 12 50 12c.88 0 1.34-1.07.71-1.71l-.29-.29h2.59a3.01 3.01 0 0 1 3 3v2.59l-.29-.29c-.94-.94-2.35.48-1.41 1.41l2 2c.39.39 1.02.39 1.41 0l2-2c.94-.94-.48-2.35-1.41-1.41z" fill="#c8c8c8"/><path d="M10,50v8h8v-8H10Zm6,6h-4v-4h4v4Z" fill="#1976d2"/><path d="M6 46h8v8H6z" fill="#fff"/></svg>