<svg xmlns="http://www.w3.org/2000/svg" viewBox="0 0 64 64" xmlns:v="https://vecta.io/nano"><path d="M52 28c0-11.41-9.55-20.58-21.09-19.97-10.56.56-19 9.56-18.91 20.14.05 6.17 2.9 11.66 7.34 15.29 2.77 2.26 4.64 5.43 5.34 8.94h0a2 2 0 0 0 1.96 1.61h10.72a2 2 0 0 0 1.96-1.61c.71-3.53 2.58-6.69 5.31-8.91C49.12 39.83 52 34.26 52 28.01z" fill="#d38e2a"/><path d="M32,64c-3.31,0-6-2.69-6-6v-4h12v4c0,3.31-2.69,6-6,6Z" fill="#d9d9d9"/><path d="M32 6c-.29 0-1-.22-1-1V1c0-.55.45-1 1-1 .29 0 1 .22 1 1v4c0 .55-.45 1-1 1zm-15.56 6.44c-.2.2-.86.55-1.41 0L12.2 9.61c-.39-.39-.39-1.02 0-1.41.2-.2.86-.55 1.41 0l2.83 2.83c.39.39.39 1.02 0 1.41zM10 28c0 .29-.22 1-1 1H5c-.55 0-1-.45-1-1 0-.29.22-1 1-1h4c.55 0 1 .45 1 1zm6.44 15.56c.2.2.55.86 0 1.41l-2.83 2.83c-.39.39-1.02.39-1.41 0-.2-.2-.55-.86 0-1.41l2.83-2.83c.39-.39 1.02-.39 1.41 0zm31.12 0c.2-.2.86-.55 1.41 0l2.83 2.83c.39.39.39 1.02 0 1.41-.2.2-.86.55-1.41 0l-2.83-2.83c-.39-.39-.39-1.02 0-1.41zM54 28c0-.29.22-1 1-1h4c.55 0 1 .45 1 1 0 .29-.22 1-1 1h-4c-.55 0-1-.45-1-1zm-6.44-15.56c-.2-.2-.55-.86 0-1.41l2.83-2.83c.39-.39 1.02-.39 1.41 0 .2.2.55.86 0 1.41l-2.83 2.83c-.39.39-1.02.39-1.41 0z" fill="#d38e2a"/><path d="M39 58H25c-.55 0-1-.45-1-1s.45-1 1-1h14c.55 0 1 .45 1 1s-.45 1-1 1zm-1 4H26c-.55 0-1-.45-1-1s.45-1 1-1h12c.55 0 1 .45 1 1s-.45 1-1 1z" fill="#c8c8c8"/><circle cx="32" cy="28" r="16" fill="#f3f3f3"/><path d="M46 29.62v-3.25c0-.76-.62-1.38-1.38-1.38-.3 0-1.03-.15-1.29-.89a10.98 10.98 0 0 0-.57-1.37c-.45-.93.38-1.64.28-1.54.54-.54.54-1.41 0-1.95l-2.3-2.3c-.54-.54-1.41-.54-1.95 0-.22.22-.84.62-1.54.28a10.98 10.98 0 0 0-1.37-.57c-.97-.33-.89-1.4-.89-1.29 0-.76-.62-1.38-1.38-1.38h-3.25c-.76 0-1.38.62-1.38 1.38 0 .3-.15 1.03-.89 1.29a10.98 10.98 0 0 0-1.37.57c-.93.45-1.64-.38-1.54-.28-.54-.54-1.41-.54-1.95 0l-2.3 2.3c-.54.54-.54 1.41 0 1.95.22.22.62.84.28 1.54a10.98 10.98 0 0 0-.57 1.37c-.33.97-1.4.89-1.29.89-.76 0-1.38.62-1.38 1.38v3.25c0 .76.62 1.38 1.38 1.38.3 0 1.03.15 1.29.89a10.98 10.98 0 0 0 .57 1.37c.45.93-.38 1.64-.28 1.54-.54.54-.54 1.41 0 1.95l2.3 2.3c.54.54 1.41.54 1.95 0 .22-.22.84-.62 1.54-.28a10.98 10.98 0 0 0 1.37.57c.97.33.89 1.4.89 1.29 0 .76.62 1.38 1.38 1.38h3.25c.76 0 1.38-.62 1.38-1.38 0-.3.15-1.03.89-1.29a10.98 10.98 0 0 0 1.37-.57c.93-.45 1.64.38 1.54.28.54.54 1.41.54 1.95 0l2.3-2.3c.54-.54.54-1.41 0-1.95-.22-.22-.62-.84-.28-1.54a10.98 10.98 0 0 0 .57-1.37c.33-.97 1.4-.89 1.29-.89.76 0 1.38-.62 1.38-1.38z" fill="#1976d2"/><circle cx="32" cy="28" r="9" fill="#5e9fdf"/><path d="M28 31c-.54 0-.57-.15-2.71-2.29-.39-.39-.39-1.02 0-1.41l2-2c.39-.39 1.02-.39 1.41 0s.39 1.02 0 1.41L27.41 28l1.29 1.29a1.01 1.01 0 0 1-.71 1.71zm8 0c-.88 0-1.34-1.07-.71-1.71L36.58 28l-1.29-1.29c-.39-.39-.39-1.02 0-1.41s1.02-.39 1.41 0l2 2c.39.39.39 1.02 0 1.41-2.18 2.18-2.17 2.29-2.71 2.29zm-5 2a1 1 0 0 1-.97-1.24l2-8a1 1 0 0 1 1.21-.73 1 1 0 0 1 .73 1.21l-2 8c-.11.45-.52.76-.97.76z" fill="#fff"/></svg>