<svg xmlns="http://www.w3.org/2000/svg" xmlns:xlink="http://www.w3.org/1999/xlink" viewBox="0 0 64 64" xmlns:v="https://vecta.io/nano"><style><![CDATA[.D{fill:#d38e2a}.E{fill:#5e9fdf}]]></style><circle cx="32" cy="4" r="4" class="D"/><g class="E"><path d="M32 17c-.55 0-1-.45-1-1v-4c0-.55.45-1 1-1s1 .45 1 1v4c0 .55-.45 1-1 1z"/><path d="M34 14c-.55 0-.69-.27-2-1.59l-1.29 1.29c-.39.39-1.02.39-1.41 0s-.39-1.02 0-1.41l2-2c.39-.39 1.02-.39 1.41 0l2 2A1.01 1.01 0 0 1 34 14z"/></g><circle cx="12.2" cy="12.2" r="4" class="D"/><g class="E"><use xlink:href="#B"/><path d="M17.15 20.98c-.55 0-1-.45-1-1v-2.83c0-.55.45-1 1-1h2.83c.55 0 1 .45 1 1s-.45 1-1 1h-1.83v1.83c0 .55-.45 1-1 1z"/></g><circle cx="4" cy="32" r="4" class="D"/><g class="E"><path d="M16,33h-4c-.55,0-1-.45-1-1s.45-1,1-1h4c.55,0,1,.45,1,1s-.45,1-1,1Z"/><path d="M13 35c-.54 0-.57-.15-2.71-2.29-.39-.39-.39-1.02 0-1.41l2-2c.39-.39 1.02-.39 1.41 0s.39 1.02 0 1.41L12.41 32l1.29 1.29a1.01 1.01 0 0 1-.71 1.71z"/></g><circle cx="12.2" cy="51.8" r="4" class="D"/><g class="E"><path d="M17.86 47.14c-.88 0-1.34-1.07-.71-1.71l2.83-2.83c.39-.39 1.02-.39 1.41 0s.39 1.02 0 1.41l-2.83 2.83a.98.98 0 0 1-.71.29z"/><path d="M19.98 47.85h-2.83c-.55 0-1-.45-1-1v-2.83c0-.55.45-1 1-1s1 .45 1 1v1.83h1.83c.55 0 1 .45 1 1s-.45 1-1 1z"/></g><circle cx="32" cy="60" r="4" class="D"/><g class="E"><path d="M32 53c-.55 0-1-.45-1-1v-4c0-.55.45-1 1-1s1 .45 1 1v4c0 .55-.45 1-1 1z"/><path d="M32 54c-.54 0-.57-.15-2.71-2.29-.39-.39-.39-1.02 0-1.41s1.02-.39 1.41 0l1.29 1.29 1.29-1.29c.39-.39 1.02-.39 1.41 0s.39 1.02 0 1.41C32.51 53.89 32.52 54 31.98 54z"/></g><circle cx="51.8" cy="51.8" r="4" class="D"/><g class="E"><use xlink:href="#B" x="25.45" y="25.45"/><path d="M46.85 47.85h-2.83c-.55 0-1-.45-1-1s.45-1 1-1h1.83v-1.83c0-.55.45-1 1-1s1 .45 1 1v2.83c0 .55-.45 1-1 1z"/></g><circle cx="60" cy="32" r="4" class="D"/><g class="E"><path d="M52,33h-4c-.55,0-1-.45-1-1s.45-1,1-1h4c.55,0,1,.45,1,1s-.45,1-1,1Z"/><path d="M51 35c-.88 0-1.34-1.07-.71-1.71L51.58 32l-1.29-1.29c-.39-.39-.39-1.02 0-1.41s1.02-.39 1.41 0l2 2c.39.39.39 1.02 0 1.41-2.18 2.18-2.17 2.29-2.71 2.29z"/></g><circle cx="51.8" cy="12.2" r="4" class="D"/><g class="E"><path d="M43.31 21.69c-.88 0-1.34-1.07-.71-1.71l2.83-2.83c.39-.39 1.02-.39 1.41 0s.39 1.02 0 1.41l-2.83 2.83c-.19.2-.45.29-.71.29z"/><path d="M46.85 20.98c-.55 0-1-.45-1-1v-1.83h-1.83c-.55 0-1-.45-1-1s.45-1 1-1h2.83c.55 0 1 .45 1 1v2.83c0 .55-.45 1-1 1zM41.62 32c2.79 2.42 1.07 7-2.62 7 0 2.15-2.19 3.59-4.16 2.77-.45 1.07-1.75 1.59-2.84.95-1.15.65-2.4.09-2.85-.95A3 3 0 0 1 25 39c-2.82 0-4.72-2.86-3.76-5.33.3-.86.72-1.25 1.14-1.67-2.79-2.42-1.07-7 2.62-7 0-2.17 2.24-3.59 4.15-2.77.44-1.03 1.7-1.6 2.85-.95 1.09-.64 2.39-.13 2.84.95 1.97-.82 4.16.62 4.16 2.77 3.69 0 5.41 4.58 2.62 7z"/></g><path d="M28.8 25.6a1 1 0 0 1-1.4.2A4 4 0 0 0 25 25a2.92 2.92 0 0 1 .73-1.95 5.92 5.92 0 0 1 2.87 1.15c.44.33.53.96.2 1.4zm0 12.8a1 1 0 0 0-1.4-.2 4 4 0 0 1-2.4.8 2.92 2.92 0 0 0 .73 1.95 5.92 5.92 0 0 0 2.87-1.15c.44-.33.53-.96.2-1.4zm6.4-12.8a1 1 0 0 0 1.4.2A4 4 0 0 1 39 25a2.92 2.92 0 0 0-.73-1.95 5.92 5.92 0 0 0-2.87 1.15c-.44.33-.53.96-.2 1.4zm0 12.8a1 1 0 0 1 1.4-.2 4 4 0 0 0 2.4.8 2.92 2.92 0 0 1-.73 1.95 5.92 5.92 0 0 1-2.87-1.15c-.44-.33-.53-.96-.2-1.4zM33 21v22c-.37 0-.71-.11-1-.28-.3.17-.63.28-1 .28V21c.37 0 .7.11 1 .28.29-.17.63-.28 1-.28zm-7 13c0 .55-.45 1-1 1a5.89 5.89 0 0 1-3.76-1.33 3.91 3.91 0 0 1 1.13-1.66c.72.64 1.64.99 2.63.99.55 0 1 .45 1 1zm12 0c0 .55.45 1 1 1a5.89 5.89 0 0 0 3.76-1.33 3.91 3.91 0 0 0-1.13-1.66c-.72.64-1.64.99-2.63.99-.55 0-1 .45-1 1z" fill="#1976d2"/><defs ><path id="B" d="M20.69 21.69c-.26 0-.51-.1-.71-.29l-2.83-2.83c-.39-.39-.39-1.02 0-1.41s1.02-.39 1.41 0l2.83 2.83a1.01 1.01 0 0 1-.71 1.71z"/></defs></svg>