<svg xmlns="http://www.w3.org/2000/svg" viewBox="0 0 64 64" xmlns:v="https://vecta.io/nano"><path d="M25,7c-2.36,4.73-2,3.08-2,9h2V7Z" fill="#e4c290"/><path d="M43 26c-1.1 0-2-.9-2-2v-8H23v7c0 1.1-.9 2-2 2s-2-.9-2-2v-7a4 4 0 0 1 4-4h18a4 4 0 0 1 4 4v8c0 1.1-.9 2-2 2zm14 5v24a4 4 0 0 1-4 4H11a4 4 0 0 1-4-4V31h50z" fill="#5e9fdf"/><path d="M58 26v5.04c0 1.23-.57 2.4-1.54 3.16l-6.37 4.96a3.98 3.98 0 0 1-2.46.84H16.37c-.89 0-1.75-.3-2.46-.84L7.54 34.2A4.01 4.01 0 0 1 6 31.04V26a4 4 0 0 1 4-4h44a4 4 0 0 1 4 4z" fill="#1976d2"/><path d="M39 8.42v7.79a2.01 2.01 0 0 1-1.87 2l-10 .66a2 2 0 0 1-2.13-2V7c2.36-3.54 2-2.39 2-7h9.99v3.58c0 1.68 1.23 2.64 1.01 2.42a3.43 3.43 0 0 1 1.01 2.42z" fill="#d38e2a"/><path d="M29 16v2.74l-2 .12V16c0-.55.45-1 1-1 .29 0 1 .22 1 1zm4 0v2.47l-2 .13V16c0-.55.45-1 1-1 .29 0 1 .22 1 1zm4 0v2.21l-2 .13V16c0-.55.45-1 1-1 .29 0 1 .22 1 1z" fill="#e4c290"/><path d="M42.91 59H21.09C17.47 51.15 23.21 42 32 42s14.53 9.14 10.91 17z" fill="#1976d2"/><circle cx="32" cy="54" r="10" fill="#d38e2a"/><g fill="#f3f3f3"><path d="M32.5 60H31c-2.97 0-3.92-4-2-4 .55 0 1 .45 1 1s.45 1 1 1h1.5a1.5 1.5 0 1 0 0-3h-1c-1.93 0-3.5-1.57-3.5-3.5s1.57-3.5 3.5-3.5H33c2.97 0 3.92 4 2 4-.55 0-1-.45-1-1s-.45-1-1-1h-1.5a1.5 1.5 0 1 0 0 3h1c1.93 0 3.5 1.57 3.5 3.5S34.43 60 32.5 60z"/><path d="M32 50c-.55 0-1-.45-1-1v-2c0-.55.45-1 1-1s1 .45 1 1v2c0 .55-.45 1-1 1zm0 12c-.55 0-1-.45-1-1v-2c0-.55.45-1 1-1s1 .45 1 1v2c0 .55-.45 1-1 1zM19 43c-.81 0-2-.63-2-2v-2c0-1.1.9-2 2-2 .81 0 2 .63 2 2v2c0 1.1-.9 2-2 2zm26 0c-.81 0-2-.63-2-2v-2c0-1.1.9-2 2-2 .81 0 2 .63 2 2v2c0 1.1-.9 2-2 2zm-5-16H24c-.55 0-1-.45-1-1 0-.29.22-1 1-1h16c.55 0 1 .45 1 1 0 .29-.22 1-1 1z"/></g></svg>