<svg xmlns="http://www.w3.org/2000/svg" xmlns:xlink="http://www.w3.org/1999/xlink" viewBox="0 0 64 64" xmlns:v="https://vecta.io/nano"><path d="M7 28h54v26H7z" fill="#5e9fdf"/><path d="M61.21 28.17L34 34 6.79 28.17c-.46-.1-.79-.51-.79-.98V11c0-.55.45-1 1-1h54c.55 0 1 .45 1 1v16.19c0 .47-.33.88-.79.98z" fill="#1976d2"/><g fill="#d38e2a"><rect x="30" y="29" width="8" height="10" rx="2"/><path d="M48 9.64V10h-4c-.55 0-1-.45-1-1V6a4 4 0 0 0-4-4H29a4 4 0 0 0-4 4v3c0 .55-.45 1-1 1h-4c0-.81.63-2 2-2h1V6c0-3.31 2.69-6 6-6h10c3.31 0 6 2.69 6 6v2h1.36A1.64 1.64 0 0 1 48 9.64z"/></g><path d="M36 46v8H7V42h25a4 4 0 0 1 4 4z" fill="#1976d2"/><g fill="#5e9fdf"><rect x="2" y="44" width="32" height="20" rx="2"/><path d="M4 46h28v16H4z"/><ellipse cx="18" cy="54" rx="5" ry="6"/><path d="M29 55h-2c-1.32 0-1.32-2 0-2h2c1.32 0 1.32 2 0 2zM9 55H7c-1.34 0-1.29-2 0-2h2c1.34 0 1.29 2 0 2z"/></g><g fill="#e4c290"><use xlink:href="#B"/><use xlink:href="#B" y="-4"/></g><path d="M34,54v8c0,1.1-.9,2-2,2h-7.83c-.22-.61-.17-1.05-.17-2h8v-8h2Z" fill="#5e9fdf"/><path d="M32 54v8h-8c0-.97-.04-1.41.17-2-.23-.65-.17-1.07-.17-3 0-1.34.85-2.48 2.01-2.86A1 1 0 0 0 27 55h2c.55 0 1-.45 1-1h2z" fill="#1976d2"/><use xlink:href="#C" fill="#e4c290"/><path d="M30 54c0 .55-.45 1-1 1h-2a1 1 0 0 1-.99-.86c.61-.2.94-.14 3.99-.14z" fill="#5e9fdf"/><path d="M56 53v1H38v-1c0-1.65 1.29-3 2.88-3h12.24c1.59 0 2.88 1.35 2.88 3z" fill="#1976d2"/><g fill="#d38e2a"><use xlink:href="#B" y="-8"/><use xlink:href="#C" y="-4"/></g><path d="M33,35v-2c0-1.34,2-1.29,2,0v2c0,1.34-2,1.29-2,0Z" fill="#f3f3f3"/><path d="M10 13h12v2H10zm0 4h6v2h-6z" fill="#5e9fdf"/><defs ><path id="B" d="M54 61v2c0 .55-.39 1-.88 1H40.87c-.48 0-.88-.45-.88-1v-2c0-.55.39-1 .88-1h12.25c.48 0 .88.45.88 1z"/><path id="C" d="M40 61v2c0 .55-.39 1-.88 1H26.87c-.48 0-.88-.45-.88-1v-2c0-.55.39-1 .88-1h12.25c.48 0 .88.45.88 1z"/></defs></svg>