<?xml version="1.0" encoding="UTF-8"?><svg id="a" xmlns="http://www.w3.org/2000/svg" viewBox="0 0 64 64"><defs><style>.b{fill:#5e9fdf;}.c{fill:#d38e2a;}.d{fill:#f3f3f3;}.e{fill:#d9d9d9;}.f{fill:#1976d2;}</style></defs><path class="e" d="M32,62c-16.54,0-30-13.46-30-30S15.46,2,32,2s30,13.46,30,30-13.46,30-30,30Zm0-58c-15.44,0-28,12.56-28,28s12.56,28,28,28,28-12.56,28-28S47.44,4,32,4Z"/><path class="d" d="M32,58c-14.34,0-26-11.66-26-26S17.66,6,32,6s26,11.66,26,26-11.66,26-26,26Zm0-50c-13.23,0-24,10.77-24,24s10.77,24,24,24,24-10.77,24-24-10.77-24-24-24Z"/><circle class="c" cx="32" cy="32" r="13"/><g><path class="d" d="M31,37c-2.21,0-4-1.79-4-4,0-3.31,2.69-6,6-6h1c1.1,0,2,.9,2,2v3c0,2.76-2.24,5-5,5Zm2-8c-2.21,0-4,1.79-4,4,0,1.1,.9,2,2,2,1.65,0,3-1.35,3-3v-3h-1Z"/><path class="d" d="M31.93,42c-4.55,0-8.67-3.2-9.68-7.7-.75-3.33,.14-6.66,2.42-9.11,2.25-2.42,5.56-3.57,8.85-3.08,5.67,.85,8.82,6.09,8.5,10.46-.2,2.69-1.8,4.43-4.08,4.43s-3.95-1.77-3.95-3.95v-4.05c0-.55,.45-1,1-1s1,.45,1,1v4.05c0,1.08,.88,1.95,1.95,1.95,1.71,0,2.02-1.8,2.08-2.58,.22-2.92-1.79-7.58-6.8-8.33-2.68-.4-5.27,.5-7.09,2.47-1.83,1.97-2.53,4.63-1.93,7.32,.87,3.89,4.68,6.56,8.66,6.08,.55-.07,1.05,.32,1.11,.87,.07,.55-.32,1.05-.87,1.11-.39,.05-.79,.07-1.18,.07Z"/></g><path class="f" d="M42,0h22V14h-22V0Z"/><path class="b" d="M42,0l11,8L64,0h-22Z"/><path class="f" d="M0,0H22V14H0V0Z"/><path class="b" d="M0,0L11,8,22,0H0Z"/><path class="f" d="M42,50h22v14h-22v-14Z"/><path class="b" d="M42,50l11,8,11-8h-22Z"/><path class="f" d="M0,50H22v14H0v-14Z"/><path class="b" d="M22,50l-11,8L0,50H22Z"/><path class="c" d="M12.51,13.3c1.12-1.3,.2-3.3-1.51-3.3s-2.63,2-1.51,3.3c-1.46,.6-2.49,2.03-2.49,3.7H15c0-1.67-1.03-3.1-2.49-3.7Zm42,0c1.12-1.3,.2-3.3-1.51-3.3s-2.63,2-1.51,3.3c-1.46,.6-2.49,2.03-2.49,3.7h8c0-1.67-1.03-3.1-2.49-3.7ZM12.51,48.3c1.12-1.3,.2-3.3-1.51-3.3s-2.63,2-1.51,3.3c-1.46,.6-2.49,2.03-2.49,3.7H15c0-1.67-1.03-3.1-2.49-3.7Zm42,0c1.12-1.3,.2-3.3-1.51-3.3s-2.63,2-1.51,3.3c-1.46,.6-2.49,2.03-2.49,3.7h8c0-1.67-1.03-3.1-2.49-3.7Z"/></svg>