<svg xmlns="http://www.w3.org/2000/svg" viewBox="0 0 64 64" xmlns:v="https://vecta.io/nano"><g fill="#5e9fdf"><path d="M34 0h22c1.1 0 2 .9 2 2v6c0 1.1-.9 2-2 2H34V0h0z"/><path d="M45 6v46H15V0h12l1 2 3 1-1-2 .66-1h3.87a4.02 4.02 0 0 1 3.58 2.21l.78 1.58A4.02 4.02 0 0 0 42.47 6H45z"/></g><path d="M56 18l-3-1 3 4h2v31c0 1.1-.9 2-2 2H14l-3-4v2l-2 2H2c-1.1 0-2-.9-2-2V2C0 .9.9 0 2 0h15.53a4.02 4.02 0 0 1 3.58 2.21l.78 1.58A4.02 4.02 0 0 0 25.47 6H58v10l-2 2z" fill="#f3f3f3"/><path d="M11 17h2v30h-2z" fill="#d9d9d9"/><path d="M4 19h4v2H4zm0 6h4v2H4zm0 6h4v2H4zm0 6h4v2H4zm0 6h4v2H4zm12-12h8v2h-8zm12 0h16v2H28zm-12-6h4v2h-4zm8 0h14v2H24z" fill="#5e9fdf"/><path d="M16 19h8v2h-8z" fill="#d38e2a"/><path d="M28 19h10v2H28zm14 0h6v2h-6z" fill="#5e9fdf"/><path d="M16 37h8v2h-8z" fill="#d38e2a"/><path d="M28 37h10v2H28z" fill="#5e9fdf"/><path d="M42 25h6v2h-6z" fill="#d38e2a"/><path d="M16 43h4v2h-4zm8 0h8v2h-8z" fill="#5e9fdf"/><g fill="#1976d2"><circle cx="54" cy="3" r="1"/><circle cx="50" cy="3" r="1"/><circle cx="46" cy="3" r="1"/></g><circle cx="18" cy="3" r="1" fill="#5e9fdf"/><path d="M7 13c-.54 0-.57-.15-2.71-2.29-.39-.39-.39-1.02 0-1.41l2-2c.39-.39 1.02-.39 1.41 0s.39 1.02 0 1.41L6.41 10l1.29 1.29A1.01 1.01 0 0 1 6.99 13zm9 0c-.88 0-1.34-1.07-.71-1.71L16.58 10l-1.29-1.29c-.39-.39-.39-1.02 0-1.41s1.02-.39 1.41 0l2 2c.39.39.39 1.02 0 1.41-2.18 2.18-2.17 2.29-2.71 2.29zm-5 1c-.62 0-1.09-.56-.99-1.16l1-6c.09-.54.61-.91 1.15-.82s.91.61.82 1.15l-1 6a1 1 0 0 1-.99.84zm47 33.56V52c0 1.1-.9 2-2 2H38.13l8.44-14.06c1.54-2.57 5.3-2.6 6.86 0L58 47.56z" fill="#d9d9d9"/><path d="M62 64H38c-1.55 0-2.51-1.7-1.71-3.03l12-20c.77-1.29 2.65-1.3 3.43 0l12 20c.8 1.33-.16 3.03-1.71 3.03z" fill="#d38e2a"/><g fill="#f3f3f3"><path d="M50 56c-.84 0-1.08-.76-1.1-1l-.7-7.01c-.11-1.07.73-1.99 1.8-1.99h0c1.07 0 1.91.92 1.8 1.99L51.1 55c-.06.56-.53 1-1.1 1z"/><circle cx="50" cy="60" r="2"/></g><g fill="#d38e2a"><path d="M26 63c-.26 0-.51-.1-.71-.29l-4-4c-.39-.39-.39-1.02 0-1.41s1.02-.39 1.41 0l4 4a1.01 1.01 0 0 1-.71 1.71z"/><path d="M22 63c-.88 0-1.34-1.07-.71-1.71l4-4c.39-.39 1.02-.39 1.41 0s.39 1.02 0 1.41l-4 4a.98.98 0 0 1-.71.29zm38-29c-.26 0-.51-.1-.71-.29l-4-4c-.39-.39-.39-1.02 0-1.41s1.02-.39 1.41 0l4 4a1.01 1.01 0 0 1-.71 1.71z"/><path d="M56 34c-.88 0-1.34-1.07-.71-1.71l4-4c.39-.39 1.02-.39 1.41 0s.39 1.02 0 1.41l-4 4a.98.98 0 0 1-.71.29z"/></g></svg>