<svg xmlns="http://www.w3.org/2000/svg" viewBox="0 0 64 64" xmlns:v="https://vecta.io/nano"><g fill="#5e9fdf"><path d="M6 0h52c1.1 0 2 .9 2 2v4H4V2c0-1.1.9-2 2-2z"/><path d="M17 0h19a4 4 0 0 1 4 4v2H17V0h0z"/></g><path d="M60 6v42c0 1.1-.9 2-2 2H6c-1.1 0-2-.9-2-2V2A2 2 0 0 1 5.68.03C5.9-.01 5.12 0 18 0a4 4 0 0 1 4 4v2h38z" fill="#f3f3f3"/><path d="M57 3c0-1.32-2-1.32-2 0s2 1.32 2 0zm-4 0c0-1.32-2-1.32-2 0s2 1.32 2 0z" fill="#1976d2"/><path d="M49,3c0-1.32-2-1.32-2,0s2,1.32,2,0Z" fill="#f3f3f3"/><path d="M37,3c0-1.32-2-1.32-2,0s2,1.32,2,0Z" fill="#1976d2"/><path d="M19,3c0-1.32-2-1.32-2,0s2,1.32,2,0Z" fill="#d38e2a"/><path d="M13 11h14v2H13zm0 4h10v2H13zm2 8h9v2h-9zm0 8h9v2h-9zm-2 13h9v2h-9zm0-25h18v2H13zm17-8h16v2H30zm9 4h16v2H39zm-13 8h27v2H26zm7-4h16v2H33zM13 35h18v2H13zm0 5h18v2H13zm20-5h16v2H33zm-8-20h12v2H25zM13 27h10v2H13zm26 0h16v2H39zm-14 0h12v2H25zm8 13h12v2H33zM7 11h2v36H7z" fill="#d9d9d9"/><g fill="#1976d2"><path d="M34 41a1 1 0 0 1-.89-1.45l1-2c.6-1.18 2.38-.29 1.79.89-.99 1.98-1.1 2.55-1.9 2.55zm-4 0c-.82 0-.94-.65-1.9-2.55-.59-1.18 1.19-2.08 1.79-.89l1 2c.33.67-.16 1.45-.89 1.45zm7 9c-1.09 0-1.39-1.52-.37-1.93l4.53-1.81.88-3.5c.32-1.29 2.26-.79 1.94.49-1.07 4.28-.97 4.43-1.6 4.69l-5.37 2.07zm5.03 13.24l-.88-3.5-4.53-1.81c-1.23-.49-.49-2.35.74-1.86l5 2c.64.25.54.44 1.6 4.69.32 1.28-1.62 1.77-1.94.49zM43 54h-6c-1.32 0-1.32-2 0-2h6c1.32 0 1.32 2 0 2zm-16-4c-.27 0 .09.11-5.37-2.07-.64-.25-.54-.44-1.6-4.69-.32-1.28 1.62-1.77 1.94-.49l.88 3.5 4.53 1.81c1.02.41.72 1.93-.37 1.93zm-6.97 12.76c1.07-4.28.97-4.43 1.6-4.69l5-2c1.23-.49 1.97 1.36.74 1.86l-4.53 1.81-.88 3.5c-.32 1.28-2.26.8-1.94-.49zM27 54h-6c-1.32 0-1.32-2 0-2h6c1.32 0 1.32 2 0 2z"/><circle cx="32" cy="43" r="4"/><path d="M32 62c-3.87 0-7-3.13-7-7v-5a4 4 0 0 1 4-4h6a4 4 0 0 1 4 4v5c0 3.87-3.13 7-7 7z"/><path d="M33 50v11.92c-.57.11-1.43.11-2 0V50c0-1.32 2-1.32 2 0z"/></g><path d="M13 15v2h5.89c-.64.62-1.52 1-2.47 1H9v-7H7v7H4V2.97L5.68.03C5.89-.01 5.44 0 12.3 0l6.29 11H13v2h6.7c.28.63.36 1.29.25 2H13z" fill="#d9d9d9"/><path d="M7 11h2v7H7zm12.7 2H13v-2h5.59l1.11 2zm.25 2c-.13.78-.51 1.48-1.06 2H13v-2h6.95z" fill="#c8c8c8"/><path d="M7.54.8C-.44 14.78 0 13.82 0 14.42 0 14.66.21 16 1.58 16h14.84a1.58 1.58 0 0 0 1.37-2.36L10.46.8C9.82-.31 8.13-.22 7.55.8z" fill="#d38e2a"/><path d="M60 23.97V39H47.58c-1.4 0-2.62-.82-3.21-2H49v-2h-4.97c.11-1.02.38-1.26 3.09-6H55v-2h-6.73l1.14-2H53v-2h-2.45l1.26-2.2c1.36-2.4 5.01-2.41 6.38 0L60 23.97z" fill="#d9d9d9"/><path d="M44.03 35H49v2h-4.63c-.33-.66-.43-1.39-.34-2zM53 25h-3.59l1.14-2H53v2zm2 2v2h-7.88l1.15-2H55z" fill="#c8c8c8"/><path d="M53.54 21.8C45.55 35.78 46 34.82 46 35.42c0 .24.21 1.58 1.58 1.58h14.84a1.58 1.58 0 0 0 1.37-2.36L56.45 21.8c-.64-1.11-2.33-1.02-2.91 0z" fill="#d38e2a"/><path d="M8 9V5c0-1.34 2-1.29 2 0v4c0 1.34-2 1.29-2 0zm2 4c0-1.32-2-1.32-2 0s2 1.32 2 0zm44 17v-4c0-1.34 2-1.29 2 0v4c0 1.34-2 1.29-2 0zm2 4c0-1.32-2-1.32-2 0s2 1.32 2 0z" fill="#fff"/></svg>