<svg xmlns="http://www.w3.org/2000/svg" viewBox="0 0 64 64" xmlns:v="https://vecta.io/nano"><g fill="#5e9fdf"><path d="M6 0h52c1.1 0 2 .9 2 2v4H4V2c0-1.1.9-2 2-2z"/><path d="M17 0h19a4 4 0 0 1 4 4v2H17V0h0z"/></g><path d="M60 6v42c0 1.1-.9 2-2 2H6c-1.1 0-2-.9-2-2V2c0-1.1.9-2 2-2h12a4 4 0 0 1 4 4v2h38z" fill="#f3f3f3"/><path d="M57 3c0-1.32-2-1.32-2 0s2 1.32 2 0zm-4 0c0-1.32-2-1.32-2 0s2 1.32 2 0z" fill="#1976d2"/><path d="M49,3c0-1.32-2-1.32-2,0s2,1.32,2,0Z" fill="#f3f3f3"/><path d="M37,3c0-1.32-2-1.32-2,0s2,1.32,2,0Z" fill="#1976d2"/><path d="M7 34h31v2H7zm0 4h31v2H7zm0 4h31v2H7zm0 4h31v2H7zm46-11l-1 6 2-3 2 1 1-1v10h-4l-2-2 1-3-4-1 2 2-2 2v-2l-2 4h-5V30h3v1l-1 1 3-1v-1h11v4l-2 2-2-1zM19 17l-1 3 2-2 3 1v8H11l1-2H9v-1l-2 1V9h7l-1 2h2l-2 4 5-3-1-2 1-1h5v8h-4zm7-8h31v2H26zm0 4h31v2H26zm9.4 4l1.2 2H26v-2h9.4zM57 17v2H38.6l-1.2-2H57zm-19.2 4l1.2 2H26v-2h11.8zM57 21v2H41l-1.2-2H57zm-31 4h31v2H26zm-5.25 5l1.5 2H7v-2h13.75zM38 30v2H24.25l-1.5-2H38z" fill="#d9d9d9"/><path d="M19,3c0-1.32-2-1.32-2,0s2,1.32,2,0Z" fill="#d38e2a"/><g fill="#1976d2"><path d="M34 41a1 1 0 0 1-.89-1.45l1-2c.6-1.18 2.38-.29 1.79.89-.99 1.98-1.1 2.55-1.9 2.55zm-4 0c-.82 0-.94-.65-1.9-2.55-.59-1.18 1.19-2.08 1.79-.89l1 2c.33.67-.16 1.45-.89 1.45zm7 9c-1.09 0-1.39-1.52-.37-1.93l4.53-1.81.88-3.5c.32-1.29 2.26-.79 1.94.49-1.07 4.28-.97 4.43-1.6 4.69l-5.37 2.07zm5.03 13.24l-.88-3.5-4.53-1.81c-1.23-.49-.49-2.35.74-1.86l5 2c.64.25.54.44 1.6 4.69.32 1.28-1.62 1.77-1.94.49zM43 54h-6c-1.32 0-1.32-2 0-2h6c1.32 0 1.32 2 0 2zm-16-4c-.27 0 .09.11-5.37-2.07-.64-.25-.54-.44-1.6-4.69-.32-1.28 1.62-1.77 1.94-.49l.88 3.5 4.53 1.81c1.02.41.72 1.93-.37 1.93zm-6.97 12.76c1.07-4.28.97-4.43 1.6-4.69l5-2c1.23-.49 1.97 1.36.74 1.86l-4.53 1.81-.88 3.5c-.32 1.28-2.26.8-1.94-.49zM27 54h-6c-1.32 0-1.32-2 0-2h6c1.32 0 1.32 2 0 2z"/><circle cx="32" cy="43" r="4"/><path d="M32 62c-3.87 0-7-3.13-7-7v-5a4 4 0 0 1 4-4h6a4 4 0 0 1 4 4v5c0 3.87-3.13 7-7 7z"/><path d="M33 50v11.92c-.57.11-1.43.11-2 0V50c0-1.32 2-1.32 2 0z"/></g></svg>