<?xml version="1.0" encoding="UTF-8"?><svg id="a" xmlns="http://www.w3.org/2000/svg" viewBox="0 0 64 64"><defs><style>.b{fill:#fff;}.c{fill:#5e9fdf;}.d{fill:#e4c290;}.e{fill:#fdfdfd;}.f{fill:#d38e2a;}.g{fill:#f3f3f3;}.h{fill:#1976d2;}</style></defs><path class="h" d="M0,0H32V64H0V0Z"/><path class="f" d="M32,25h32V57H32V25Z"/><path class="g" d="M35,28h26v26h-26V28Z"/><path class="d" d="M35,57h6v7h-6v-7Zm20,0h6v7h-6v-7Z"/><path class="f" d="M32,60h32v4H32v-4Z"/><path class="c" d="M0,4H28V14H0V4Zm0,14H28v10H0v-10Zm0,14H28v10H0v-10Zm0,14H28v10H0v-10Z"/><circle class="f" cx="48" cy="11" r="11"/><path class="e" d="M48,19c-.55,0-1-.45-1-1v-1h-2c-.55,0-1-.45-1-1s.45-1,1-1h3.5c.83,0,1.5-.67,1.5-1.5s-.67-1.5-1.5-1.5h-1c-1.93,0-3.5-1.57-3.5-3.5,0-1.76,1.31-3.22,3-3.46v-1.04c0-.55,.45-1,1-1s1,.45,1,1v1h2c.55,0,1,.45,1,1s-.45,1-1,1h-3.5c-.83,0-1.5,.67-1.5,1.5s.67,1.5,1.5,1.5h1c1.93,0,3.5,1.57,3.5,3.5,0,1.76-1.31,3.22-3,3.46v1.04c0,.55-.45,1-1,1Z"/><path class="b" d="M7,14H3L7,4h4L7,14Z"/><path class="c" d="M11,14h-2L13,4h2l-4,10Z"/><path class="b" d="M18,28h-4l4-10h4l-4,10Z"/><path class="c" d="M22,28h-2l4-10h2l-4,10Z"/><path class="b" d="M4,42H0l4-10h4l-4,10Z"/><path class="c" d="M8,42h-2l4-10h2l-4,10Z"/><path class="b" d="M20,56h-4l4-10h4l-4,10Z"/><path class="c" d="M24,56h-2l4-10h2l-4,10Z"/><path class="b" d="M44,54h-9l7-26h9l-7,26Zm6,0h-2l6-26h2l-6,26Z"/></svg>