<svg xmlns="http://www.w3.org/2000/svg" viewBox="0 0 64 64" xmlns:v="https://vecta.io/nano"><g fill="#e4c290"><path d="M24 7h-4.56a3 3 0 0 1-2.85-2.05l-.09-.27a1 1 0 0 0-.95-.68h-3.56c-.55 0-1-.45-1-1s.45-1 1-1h3.56a3 3 0 0 1 2.85 2.05l.09.27a1 1 0 0 0 .95.68H24c.55 0 1 .45 1 1s-.45 1-1 1zm0 5H12c-.55 0-1-.45-1-1s.45-1 1-1h12c.55 0 1 .45 1 1s-.45 1-1 1z"/><path d="M7 11a3.01 3.01 0 0 1 3-3 3.01 3.01 0 0 1 3 3 3.01 3.01 0 0 1-3 3 3.01 3.01 0 0 1-3-3zm2 0c0 .55.45 1 1 1s1-.45 1-1-.45-1-1-1-1 .45-1 1zM7 3a3.01 3.01 0 0 1 3-3 3.01 3.01 0 0 1 3 3 3.01 3.01 0 0 1-3 3 3.01 3.01 0 0 1-3-3zm2 0c0 .55.45 1 1 1s1-.45 1-1-.45-1-1-1-1 .45-1 1zm6.56 17H12c-.55 0-1-.45-1-1s.45-1 1-1h3.56a1 1 0 0 0 .95-.68l.09-.26a2.99 2.99 0 0 1 2.85-2.05h4.56c.55 0 1 .45 1 1s-.45 1-1 1h-4.56a1 1 0 0 0-.95.68l-.09.26A2.99 2.99 0 0 1 15.56 20z"/><path d="M10 16a3.01 3.01 0 0 1 3 3 3.01 3.01 0 0 1-3 3 3.01 3.01 0 0 1-3-3 3.01 3.01 0 0 1 3-3zm0 4c.55 0 1-.45 1-1s-.45-1-1-1-1 .45-1 1 .45 1 1 1zM42.56 7H38c-.55 0-1-.45-1-1s.45-1 1-1h4.56a1 1 0 0 0 .95-.68l.09-.26a2.99 2.99 0 0 1 2.85-2.05h3.56c.55 0 1 .45 1 1s-.45 1-1 1h-3.56a1 1 0 0 0-.95.68l-.09.26A2.99 2.99 0 0 1 42.56 7zM50 12H38c-.55 0-1-.45-1-1s.45-1 1-1h12c.55 0 1 .45 1 1s-.45 1-1 1z"/><path d="M52 14a3.01 3.01 0 0 1-3-3 3.01 3.01 0 0 1 3-3 3.01 3.01 0 0 1 3 3 3.01 3.01 0 0 1-3 3zm0-4c-.55 0-1 .45-1 1s.45 1 1 1 1-.45 1-1-.45-1-1-1zm0-4a3.01 3.01 0 0 1-3-3 3.01 3.01 0 0 1 3-3 3.01 3.01 0 0 1 3 3 3.01 3.01 0 0 1-3 3zm0-4c-.55 0-1 .45-1 1s.45 1 1 1 1-.45 1-1-.45-1-1-1zm-2 18h-3.56a3 3 0 0 1-2.85-2.05l-.09-.27a1 1 0 0 0-.95-.68h-4.56c-.55 0-1-.45-1-1s.45-1 1-1h4.56a3 3 0 0 1 2.85 2.05l.09.27a1 1 0 0 0 .95.68H50c.55 0 1 .45 1 1s-.45 1-1 1z"/><path d="M55,19c0,1.65-1.35,3-3,3s-3-1.35-3-3,1.35-3,3-3,3,1.35,3,3Zm-2,0c0-.55-.45-1-1-1s-1,.45-1,1,.45,1,1,1,1-.45,1-1Z"/></g><rect x="20" width="22" height="22" rx="2" fill="#5e9fdf"/><rect x="22" y="2" width="18" height="18" rx="1" fill="#f3f3f3"/><path d="M24 20h14v2H24z" fill="#1976d2"/><path d="M38,12v8h-14V12c0-3.86,3.14-7,7-7s7,3.14,7,7Z" fill="#d9d9d9"/><g fill="#e4c290"><path d="M50.08 29.56L38 26.69l-2-.48V12c0-2.76-2.24-5-5-5s-5 2.24-5 5v19.11c-.57-.59-1.25-1.07-2-1.42-.91-.45-1.93-.69-3-.69a3.01 3.01 0 0 0-3 3v13a16.12 16.12 0 0 0 3.2 9.6c1.81 2.41 2.8 5.39 2.8 8.4 0 .55.45 1 1 1h27c.55 0 1-.45 1-1v-1.02c0-2.43.64-4.83 1.89-7.02C56.27 52.54 57 49.8 57 47.02v-8.7c0-4.19-2.84-7.79-6.92-8.76z"/><path d="M38 26.69V33c0 .55-.45 1-1 1h0c-.55 0-1-.45-1-1v-6.79l2 .48zm-12 4.42V41c0 .55-.45 1-1 1h0c-.55 0-1-.45-1-1V29.69c.75.35 1.43.83 2 1.42zM34 12v2.14a3.34 3.34 0 0 1-6 0V12a3.01 3.01 0 0 1 3-3 3.01 3.01 0 0 1 3 3z"/></g></svg>