<svg xmlns="http://www.w3.org/2000/svg" viewBox="0 0 64 64" xmlns:v="https://vecta.io/nano"><path d="M50 4v48a4 4 0 0 1-4 4H22a4 4 0 0 1-4-4V4c0-1.65.99-3.06 2.42-3.67C21.48-.13 19.88 0 46 0a4 4 0 0 1 4 4z" fill="#5e9fdf"/><path d="M48 4v46c0 1.1-.9 2-2 2H22c-1.1 0-2-.9-2-2V4c0-1.1.89-1.99 1.99-2 5.75 0 5.92-.18 6.29.55.31.63.52 1.45 1.34 1.45h8.76c.38 0 .73-.21.9-.55C40.2 1.57 39.39 2 46 2c1.1 0 2 .9 2 2z" fill="#fff"/><path d="M43,50H25c-1.32,0-1.32-2,0-2h18c1.32,0,1.32,2,0,2Z" fill="#d9d9d9"/><path d="M50 41.37V52a4 4 0 0 1-4 4h-1.1l-4.55-4H46c1.1 0 2-.9 2-2V39.85l2 1.52z" fill="#1976d2"/><path d="M48 39.85V50c0 1.1-.9 2-2 2h-5.65c-.93-.82-1.4-1.18-2.09-2H43c1.32 0 1.32-2 0-2h-6.02c-1.57-3.26-1.29-7.25 1.02-10.34a4.3 4.3 0 0 1 6.07-.81l3.93 3z" fill="#f3f3f3"/><path d="M43 50h-4.74a9.84 9.84 0 0 1-1.28-2H43c1.32 0 1.32 2 0 2z" fill="#c8c8c8"/><path d="M58 29.72c0 34.02.33 27.61-1 34.28H32v-4l-3-4h17c0-2.51-1.37-3.12-5.06-6.14-5.91-4.84-1.66-14.23 1.9-11.43L50 44V20l5.95 5.21c1.3 1.14 2.05 2.78 2.05 4.51z" fill="#d38e2a"/><path d="M26.5 24H24c-.55 0-1 .45-1 1v6c0 .55.45 1 1 1h2.5c2.07 0 3.23-2.37 2-4 1.23-1.63.07-4-2-4zm0 6H25v-1h1.5c.66 0 .66 1 0 1zm0-3H25v-1h1.5c.66 0 .66 1 0 1zm8.5-2v4c0 1.32-2 1.32-2 0v-4c0-1.32-2-1.32-2 0v4a3.01 3.01 0 0 0 3 3 3.01 3.01 0 0 0 3-3v-4c0-1.32-2-1.32-2 0zm8.17-.55L42 26.2l-1.17-1.75c-.74-1.1-2.4.01-1.66 1.11L41 28.31v2.7c0 1.32 2 1.32 2 0v-2.7l1.83-2.75c.73-1.1-.93-2.21-1.66-1.11zM41 11h-1.5l-2.7-3.6c-.79-1.06-2.39.14-1.6 1.2L37 11h-6l1.8-2.4c.79-1.06-.81-2.26-1.6-1.2L28.5 11H27c-1.24 0-1.49 2 .2 2l.62 6.2a2 2 0 0 0 1.99 1.8h8.38a2 2 0 0 0 1.99-1.8L41 13c1.32 0 1.32-2 0-2zm-11.14 7.18l-.67-4.03c-.22-1.29 1.73-1.61 1.95-.33l.67 4.03c.22 1.29-1.73 1.61-1.95.33zM35 18c0 1.32-2 1.32-2 0v-4c0-1.32 2-1.32 2 0v4zm3.81-3.85l-.67 4.03c-.22 1.28-2.17.97-1.95-.33l.67-4.03c.21-1.26 2.17-.98 1.95.33zM24 35h14v2H24zm0 4h10v2H24z" fill="#d9d9d9"/><g fill="#d38e2a"><path d="M18 38v8l-.84-.42c-3.41-1.71-4.45-6.8-1.16-7.77.69-.2 1.37-.12 2 .19z"/><path d="M18 30v8l-.84-.42c-3.41-1.71-4.45-6.8-1.16-7.77.69-.2 1.37-.12 2 .19z"/></g><g fill="#e4c290"><path d="M18,30v8c-.87-.44-1.36-.64-2-1.19v-7c.69-.2,1.37-.12,2,.19Z"/><path d="M18 38v8c-.87-.44-1.36-.64-2-1.19v-7c.69-.2 1.37-.12 2 .19zm34-16.25V45.6L50 44V20l2 1.75zm-6 34.24c0 .83-.65 2.01-2.01 2.01H30.5L29 56h17z"/></g><path d="M21.99 2c-1.1.01-1.99.9-1.99 2v11.99c-.61.47-1.28.86-2 1.17V4c0-1.65.99-3.06 2.42-3.67.59.5 1.12 1.06 1.57 1.67z" fill="#1976d2"/><path d="M20 15.99V4c0-.8.63-2 2-2 3.3 4.41 2.44 10.66-2 13.99z" fill="#f3f3f3"/><circle cx="14" cy="8" r="8" fill="#d38e2a"/><path d="M11 12c-.88 0-1.34-1.07-.71-1.71l6-6c.94-.94 2.35.48 1.41 1.41l-6.71 6.29zm6 1c-1.1 0-2-.9-2-2s.9-2 2-2 2 .9 2 2-.9 2-2 2zm0-2h0zm0 0h0zm0 0h0zm0 0h0zm0 0h0zm0 0h0zm0 0h0zm0 0h0zm-6-4c-1.1 0-2-.9-2-2s.9-2 2-2 2 .9 2 2-.9 2-2 2zm0-2h0zm0 0h0zm0 0h0zm0 0h0zm0 0h0zm0 0h0zm0 0h0zm0 0h0z" fill="#fdfdfd"/></svg>