<svg xmlns="http://www.w3.org/2000/svg" xmlns:xlink="http://www.w3.org/1999/xlink" viewBox="0 0 64 64" xmlns:v="https://vecta.io/nano"><rect x="15" y="46" width="28" height="4" rx="1" fill="#d9d9d9"/><path d="M37.27 64H20.73c-1 0-1.84-.73-1.98-1.72L17 50h24l-1.75 12.28c-.14.99-.98 1.72-1.98 1.72z" fill="#f3f3f3"/><path d="M36 13v33H22V13c0-3.87 3.13-7 7-7s7 3.13 7 7z" fill="#5e9fdf"/><path d="M36,13V46h-7V6c3.87,0,7,3.13,7,7Z" fill="#1976d2"/><path d="M16 21v-4c0-1.66-1.34-3-3-3s-3 1.34-3 3v5c0 3.31 2.69 6 6 6h6v-6h-5c-.55 0-1-.45-1-1z" fill="#5e9fdf"/><path d="M48 28a6 6 0 0 1-6 6h-6v-6h5c.55 0 1-.45 1-1v-4c0-2.67 3.24-4 5.12-2.12 1.18 1.18.88 2.16.88 7.12z" fill="#1976d2"/><g fill="#f3f3f3"><path d="M29 7c-.53 0-.67-.26-1.71-1.29-.94-.94.48-2.35 1.41-1.41l.29.29.29-.29c.94-.94 2.35.48 1.41 1.41C29.63 6.77 29.5 7 28.98 7z"/><use xlink:href="#B"/><use xlink:href="#B" y="6"/><use xlink:href="#B" y="18"/><use xlink:href="#B" y="24"/><use xlink:href="#B" y="30"/><path d="M24,8h-1c-1.32,0-1.32-2,0-2,0-1.32,2-1.32,2,0v1c0,.55-.45,1-1,1Z"/></g><path d="M48 23v5a6 6 0 0 1-6 6h-6v-3h5a4 4 0 0 0 4-4v-7a3.01 3.01 0 0 1 3 3z" fill="#1976d2"/><g fill="#f3f3f3"><use xlink:href="#C"/><use xlink:href="#C" x="12" y="11"/><use xlink:href="#C" x="12" y="17"/><use xlink:href="#C" y="6"/><use xlink:href="#C" y="12"/><use xlink:href="#C" y="24"/><use xlink:href="#C" y="30"/><path d="M35 8h-1c-.55 0-1-.45-1-1V6c0-1.32 2-1.32 2 0 1.32 0 1.32 2 0 2z"/></g><path d="M10 17v5a6 6 0 0 0 6 6h6v-3h-5a4 4 0 0 1-4-4v-7a3.01 3.01 0 0 0-3 3z" fill="#1976d2"/><path d="M45 21c-.53 0-.67-.26-1.71-1.29-.94-.94.48-2.35 1.41-1.41l.29.29.29-.29c.94-.94 2.35.48 1.41 1.41C45.63 20.77 45.5 21 44.98 21zM9 20c-.88 0-1.34-1.07-.71-1.71l.29-.29-.29-.29c-.94-.94.48-2.35 1.41-1.41l1 1c.39.39.39 1.02 0 1.41C9.64 19.77 9.51 20 8.99 20zm0 6c-.88 0-1.34-1.07-.71-1.71l.29-.29-.29-.29c-.94-.94.48-2.35 1.41-1.41l1 1c.39.39.39 1.02 0 1.41C9.64 25.77 9.51 26 8.99 26zm4-11c-.53 0-.67-.26-1.71-1.29-.94-.94.48-2.35 1.41-1.41l.29.29.29-.29c.94-.94 2.35.48 1.41 1.41C13.63 14.77 13.5 15 12.98 15z" fill="#f3f3f3"/><path d="M40 1v8c0 .55.45 1 1 1h2l1.29 1.29c.39.39 1.02.39 1.41 0L46.99 10h8c.55 0 1-.45 1-1V1c0-.55-.45-1-1-1h-14c-.55 0-1 .45-1 1z" fill="#d38e2a"/><path d="M53 5c0-1.32-2-1.32-2 0s2 1.32 2 0zm-4 0c0-1.32-2-1.32-2 0s2 1.32 2 0zm-4 0c0-1.32-2-1.32-2 0s2 1.32 2 0zm-17 9v-2c0-1.34 2-1.29 2 0v2c0 1.34-2 1.29-2 0zm0 6v-2c0-1.34 2-1.29 2 0v2c0 1.34-2 1.29-2 0zm0 6v-2c0-1.34 2-1.29 2 0v2c0 1.34-2 1.29-2 0zm0 6v-2c0-1.34 2-1.29 2 0v2c0 1.34-2 1.29-2 0zm0 6v-2c0-1.34 2-1.29 2 0v2c0 1.34-2 1.29-2 0zm0 6v-2c0-1.34 2-1.29 2 0v2c0 1.34-2 1.29-2 0z" fill="#f3f3f3"/><defs ><path id="B" d="M21 15c-.88 0-1.34-1.07-.71-1.71l.29-.29-.29-.29c-.94-.94.48-2.35 1.41-1.41l1 1c.39.39.39 1.02 0 1.41-1.06 1.06-1.19 1.29-1.71 1.29z"/><path id="C" d="M37 15c-.53 0-.67-.26-1.71-1.29-.39-.39-.39-1.02 0-1.41l1-1c.94-.94 2.35.48 1.41 1.41l-.29.29.29.29a1.01 1.01 0 0 1-.71 1.71z"/></defs></svg>