<svg xmlns="http://www.w3.org/2000/svg" viewBox="0 0 64 64" xmlns:v="https://vecta.io/nano"><path d="M46 6v52c0 3.31-2.69 6-6 6H12c-3.31 0-6-2.69-6-6V6c0-3.31 2.69-6 6-6 30.32 0 28.68-.17 30.14.4 2.2.82 3.86 3 3.86 5.6z" fill="#5e9fdf"/><path d="M44 6v50a4 4 0 0 1-4 4H12a4 4 0 0 1-4-4V6a4 4 0 0 1 4-4h5.28c.43 0 .81.28.95.68.27.83.56 2.32 2.21 2.32h11.12a2.01 2.01 0 0 0 1.9-1.37l.31-.95c.14-.4.52-.68.95-.68l5.77.04C42.32 2.21 44 3.85 44 6z" fill="#fff"/><path d="M37 58H15c-1.34 0-1.29-2 0-2h22c1.34 0 1.29 2 0 2zM11 8h30v16H11z" fill="#d9d9d9"/><path d="M46 6v13.58c-.7-.2-1.37-.46-2-.8V6c0-2.13-1.67-3.79-3.51-3.96.49-.6 1.04-1.15 1.65-1.64 2.2.82 3.86 3 3.86 5.6z" fill="#1976d2"/><path d="M44 6v12.78c-1.12-.57-2.14-1.33-3-2.24V8h-2.96c.21-2.25 1.09-4.3 2.45-5.96C42.32 2.21 44 3.85 44 6z" fill="#d9d9d9"/><path d="M41 8v8.54c-2.22-2.34-3.24-5.48-2.96-8.54H41z" fill="#c8c8c8"/><circle cx="49" cy="9" r="9" fill="#d38e2a"/><path d="M49 8c-1.32 0-1.32-2 0-2h2c1.32 0 1.32-2 0-2h-1c0-1.27-2-1.46-2 .18C44.82 5.32 45.67 10 49 10c1.32 0 1.32 2 0 2h-2c-1.32 0-1.32 2 0 2h1c0 1.24 2 1.49 2-.18C53.18 12.68 52.33 8 49 8z" fill="#fdfdfd"/><path d="M11 26h8v8h-8zm11 0h8v8h-8zm11 0h8v8h-8zM11 36h8v8h-8zm11 0h8v8h-8zM11 46h8v8h-8zm11 0h8v8h-8zm11-10h8v18h-8z" fill="#d9d9d9"/><path d="M16.29 11.29l-2 2c-.94.94.48 2.35 1.41 1.41l.29-.29V20c0 1.32 2 1.32 2 0v-8c0-.89-1.08-1.34-1.71-.71zm11 0l-2 2c-.94.94.48 2.35 1.41 1.41l.29-.29V20c0 1.32 2 1.32 2 0v-8c0-.89-1.08-1.34-1.71-.71zM23.5 15.5H23V15c0-1.32-2-1.32-2 0v.5h-.5c-1.32 0-1.32 2 0 2h.5v.5c0 1.32 2 1.32 2 0v-.5h.5c1.32 0 1.32-2 0-2zM37 18h-4c-1.32 0-1.32 2 0 2h4c1.32 0 1.32-2 0-2zm-4-2h4c1.32 0 1.32-2 0-2h-4c-1.32 0-1.32 2 0 2z" fill="#c8c8c8"/></svg>