<svg xmlns="http://www.w3.org/2000/svg" viewBox="0 0 64 64" xmlns:v="https://vecta.io/nano"><rect x="26" y="4" width="32" height="48" rx="2" fill="#5e9fdf"/><path d="M56 10v36a4 4 0 0 0-4 4H32a4 4 0 0 0-4-4V10a4 4 0 0 0 4-4h20a4 4 0 0 0 4 4z" fill="#1976d2"/><path d="M52,28c0,7.27-7.51,12.03-14,9.16-7.99-3.49-7.98-14.84,0-18.32,6.49-2.87,14,1.89,14,9.16Z" fill="#5e9fdf"/><g fill="#fdfdfd"><path d="M48 27.5V31c0 1.32-2 1.32-2 0v-3.5a1.5 1.5 0 1 0-3 0v1c0 1.93-1.57 3.5-3.5 3.5S36 30.47 36 28.5V25c0-1.32 2-1.32 2 0v3.5a1.5 1.5 0 1 0 3 0v-1c0-1.93 1.57-3.5 3.5-3.5s3.5 1.57 3.5 3.5z"/><path d="M49,29h-2c-1.32,0-1.32-2,0-2h2c1.32,0,1.32,2,0,2Z"/></g><path d="M41 14v-4c0-1.34 2-1.29 2 0v4c0 1.34-2 1.29-2 0zm0 32v-4c0-1.34 2-1.29 2 0v4c0 1.34-2 1.29-2 0z" fill="#5e9fdf"/><g fill="#e4c290"><rect x="32" y="56" width="16" height="4" rx="1"/><rect x="32" y="52" width="16" height="4" rx="1"/><rect x="48" y="56" width="16" height="4" rx="1"/></g><rect x="48" y="52" width="16" height="4" rx="1" fill="#d38e2a"/><g fill="#1976d2"><path d="M38 50v2H28c-1.1 0-2-.9-2-2V10h2v36a4 4 0 0 1 4 4h6z"/><path d="M38 37.16V50h-6a4 4 0 0 0-4-4V10h5c2.76 0 5 2.24 5 5v3.84c-7.99 3.49-7.99 14.84 0 18.32z"/></g><rect x="32" y="48" width="16" height="4" rx="1" fill="#d38e2a"/><path d="M36 25v3.5a3.48 3.48 0 0 0 2 3.15v5.51c-7.99-3.49-7.98-14.84 0-18.32V25c0-1.32-2-1.32-2 0z" fill="#1976d2"/><path d="M38 25v6.65a3.48 3.48 0 0 1-2-3.15V25c0-1.32 2-1.32 2 0z" fill="#f3f3f3"/><g fill="#e4c290"><path d="M38 52v4h-5c-.55 0-1-.45-1-1v-2c0-.55.45-1 1-1h5z"/><path d="M38 48v4h-5c-.55 0-1-.45-1-1v-2c0-.55.45-1 1-1h5zm-5 8h5c0 1.32.09 2.57-1 4h-4c-.55 0-1-.45-1-1v-2c0-.55.45-1 1-1z"/></g><rect y="12" width="36" height="48" rx="3" fill="#5e9fdf"/><path d="M4 15h28c.55 0 1 .45 1 1v10H3V16c0-.55.45-1 1-1z" fill="#fff"/><g fill="#5e9fdf"><rect x="3" y="28" width="6" height="6" rx="1"/><rect x="11" y="28" width="6" height="6" rx="1"/><rect x="19" y="28" width="6" height="6" rx="1"/></g><rect x="27" y="28" width="6" height="6" rx="1" fill="#fff"/><g fill="#5e9fdf"><rect x="3" y="36" width="6" height="6" rx="1"/><rect x="11" y="36" width="6" height="6" rx="1"/><rect x="19" y="36" width="6" height="6" rx="1"/></g><rect x="27" y="36" width="6" height="6" rx="1" fill="#fff"/><g fill="#5e9fdf"><rect x="3" y="44" width="6" height="6" rx="1"/><rect x="11" y="44" width="6" height="6" rx="1"/><rect x="19" y="44" width="6" height="6" rx="1"/><rect x="3" y="52" width="6" height="6" rx="1"/><rect x="11" y="52" width="6" height="6" rx="1"/><rect x="19" y="52" width="6" height="6" rx="1"/></g><rect x="27" y="44" width="6" height="14" rx="1" fill="#d38e2a"/></svg>