<svg xmlns="http://www.w3.org/2000/svg" xmlns:xlink="http://www.w3.org/1999/xlink" viewBox="0 0 64 64" xmlns:v="https://vecta.io/nano"><rect y="4" width="56" height="10" rx="2" fill="#1976d2"/><path d="M54,14V52c0,1.1-.9,2-2,2H4c-1.1,0-2-.9-2-2V14H54Z" fill="#f3f3f3"/><g fill="#5e9fdf"><use xlink:href="#B"/><use xlink:href="#B" x="16"/><use xlink:href="#B" x="32"/><rect x="6" y="18" width="8" height="8" rx="2"/><rect x="18" y="18" width="8" height="8" rx="2"/><rect x="30" y="18" width="8" height="8" rx="2"/><rect x="42" y="18" width="8" height="8" rx="2"/><rect x="6" y="30" width="8" height="8" rx="2"/></g><rect x="18" y="30" width="8" height="8" rx="2" fill="#d38e2a"/><g fill="#5e9fdf"><rect x="30" y="30" width="8" height="8" rx="2"/><rect x="6" y="42" width="8" height="8" rx="2"/></g><path d="M54 35v17c0 1.1-.9 2-2 2H29v-3.21c-.64-.73-1-1.64-1-2.62V43a4 4 0 0 1 4-4h7v-1c0-2.76 2.24-5 5-5h6a5.01 5.01 0 0 1 4 2z" fill="#d9d9d9"/><rect x="18" y="42" width="8" height="8" rx="2" fill="#5e9fdf"/><path d="M31 47h32v15c0 1.1-.9 2-2 2H33c-1.1 0-2-.9-2-2V47h0zm21-3H42c-.55 0-1-.45-1-1v-5a3.01 3.01 0 0 1 3-3h6a3.01 3.01 0 0 1 3 3v5c0 .55-.45 1-1 1zm-9-2h8v-4c0-.55-.45-1-1-1h-6c-.55 0-1 .45-1 1v4z" fill="#d38e2a"/><path d="M64 43v5.17c0 .53-.21 1.04-.59 1.41l-3.83 3.83c-.38.38-.88.59-1.41.59H35.83c-.53 0-1.04-.21-1.41-.59l-3.83-3.83c-.38-.38-.59-.88-.59-1.41V43c0-1.1.9-2 2-2h30c1.1 0 2 .9 2 2z" fill="#e4c290"/><path d="M54 57c-.81 0-2-.63-2-2v-2c0-1.1.9-2 2-2 .81 0 2 .63 2 2v2c0 1.1-.9 2-2 2zm-14 0c-.81 0-2-.63-2-2v-2c0-1.1.9-2 2-2 .81 0 2 .63 2 2v2c0 1.1-.9 2-2 2z" fill="#f3f3f3"/><defs ><path id="B" d="M12 8c-.81 0-2-.63-2-2V2c0-1.1.9-2 2-2 .81 0 2 .63 2 2v4c0 1.1-.9 2-2 2z"/></defs></svg>