<svg xmlns="http://www.w3.org/2000/svg" viewBox="0 0 64 64" xmlns:v="https://vecta.io/nano"><path d="M44 6v52c0 3.31-2.69 6-6 6H10c-3.31 0-6-2.69-6-6V6c0-3.31 2.69-6 6-6 30.32 0 28.68-.17 30.14.4 2.2.82 3.86 3 3.86 5.6z" fill="#1976d2"/><path d="M42 6v50a4 4 0 0 1-4 4H10a4 4 0 0 1-4-4V6a4 4 0 0 1 4-4h5.28c.43 0 .81.28.95.68.27.83.56 2.32 2.21 2.32h11.12a2.01 2.01 0 0 0 1.9-1.37l.31-.95c.14-.4.52-.68.95-.68l5.77.04C40.32 2.21 42 3.85 42 6z" fill="#fff"/><path d="M35,58H13c-1.34,0-1.29-2,0-2h22c1.34,0,1.29,2,0,2Z" fill="#d9d9d9"/><path d="M42 6v24H6V6a4 4 0 0 1 4-4h5.28c.43 0 .81.28.95.68.27.83.56 2.32 2.21 2.32h11.12a2.01 2.01 0 0 0 1.9-1.37l.31-.95c.14-.4.52-.68.95-.68l5.77.04C40.32 2.21 42 3.85 42 6z" fill="#5e9fdf"/><circle cx="24" cy="18" r="8" fill="#f3f3f3"/><g fill="#d9d9d9"><path d="M30.29,22.94c-3.2,4.08-9.38,4.08-12.58,0,2.54-5.24,10.03-5.25,12.58,0Z"/><circle cx="24" cy="16" r="4"/></g><circle cx="24" cy="49" r="5" fill="#1976d2"/><path d="M25 51.58c-1.08 0-1.49-.66-3-2.17-.78-.78-.78-2.05 0-2.83l.29-.29c.94-.94 2.35.48 1.41 1.41l-.29.29L25 49.58l.29-.29c.94-.94 2.35.48 1.41 1.41l-.29.29c-.39.39-.9.58-1.41.58z" fill="#f3f3f3"/><g fill="#5e9fdf"><path d="M25 42c-.52 0-.78-.36-1-.59l-.29.29c-.94.94-2.35-.48-1.41-1.41l1-1c.39-.39 1.02-.39 1.41 0l1 1A1.01 1.01 0 0 1 25 42zm0-5c-.52 0-.78-.36-1-.59l-.29.29c-.94.94-2.35-.48-1.41-1.41l1-1c.39-.39 1.02-.39 1.41 0l1 1A1.01 1.01 0 0 1 25 37z"/><circle cx="12" cy="50" r="3"/><circle cx="36" cy="50" r="3"/></g><path d="M51 37v-4h-9v-8h9v-4l9 8-9 8z" fill="#1976d2"/><path d="M42 45v-4h9v-8h-9v-4l-9 8 9 8z" fill="#d38e2a"/></svg>