<svg xmlns="http://www.w3.org/2000/svg" viewBox="0 0 64 64" xmlns:v="https://vecta.io/nano"><circle cx="32" cy="32" r="24" fill="#f3f3f3"/><g fill="#1976d2"><path d="M54.94 54.32A31.8 31.8 0 0 1 32 64C14.35 64 0 49.65 0 32A31.8 31.8 0 0 1 9.68 9.06c.36-.35.93-.37 1.32-.06l11.62 9.22c.29.23.43.6.36.96l-2 11c-.06.34-.29.62-.61.75l-8.24 3.29c1.02 9.22 8.43 16.63 17.65 17.65l3.29-8.24c.13-.32.41-.55.75-.61l11-2a.98.98 0 0 1 .96.36L55 53c.32.39.29.96-.06 1.32z"/><path d="M22.98 19.18l-2 11c-.06.34-.29.62-.61.75L15.19 33l3.42-17.96 4.01 3.18c.29.23.43.6.36.96zm25.98 26.21L31 48.81l2.07-5.18c.13-.32.41-.55.75-.61l11-2a.98.98 0 0 1 .96.36l3.18 4.01z"/></g><path d="M32,60v4C14.35,64,0,49.65,0,32H4c0,15.46,12.54,28,28,28Z" fill="#5e9fdf"/><path d="M64 18c0 10.19-8.52 18.56-19.07 17.97h-.01C35.48 35.41 28 27.58 28 18S36.06 0 46 0s18 8.06 18 18z" fill="#d38e2a"/><circle cx="46" cy="18" r="15" fill="#fff"/><path d="M62.98 23.99a18.01 18.01 0 0 1-18.06 11.98c-.42-.97-.71-2.01-.84-3.1 7.07 1.01 14.34-3.48 16.38-10.87.93.54 1.79 1.21 2.52 1.99z" fill="#e4c290"/><path d="M60.46,22c-2.04,7.38-9.3,11.88-16.38,10.87-1.05-9.07,8.63-15.3,16.38-10.87Z" fill="#f3f3f3"/><circle cx="46" cy="30" r="1" fill="#1976d2"/><path d="M55.98 32.98c-.14 3.39-.97 6.6-2.38 9.48-3.89-.49-7.15-3.02-8.67-6.49 4.11.23 7.92-.89 11.05-2.99z" fill="#d9d9d9"/><circle cx="55" cy="31.55" r="9" fill="#fff"/><circle cx="55.01" cy="31.55" r="7" fill="#d38e2a"/><g fill="#fff"><circle cx="51.01" cy="31.55" r="1"/><circle cx="55.01" cy="31.55" r="1"/><circle cx="59.01" cy="31.55" r="1"/></g><g fill="#5e9fdf"><circle cx="46" cy="6" r="1"/><circle cx="54.49" cy="9.51" r="1"/><circle cx="58" cy="18" r="1"/><circle cx="37.51" cy="26.49" r="1"/><circle cx="34" cy="18" r="1"/><circle cx="37.51" cy="9.51" r="1"/></g><path d="M43 22c-.88 0-1.34-1.07-.71-1.71L45 17.58v-6.59c0-.55.45-1 1-1s1 .45 1 1v7c0 .27-.11.52-.29.71l-3 3a.98.98 0 0 1-.71.29z" fill="#1976d2"/></svg>