<svg xmlns="http://www.w3.org/2000/svg" viewBox="0 0 64 64" xmlns:v="https://vecta.io/nano"><path d="M34 46.95V60c0 1.1-.9 2-2 2H2c-1.1 0-2-.9-2-2V46.95c0-1.75 1.15-3.3 2.82-3.82L13 40h8l10.18 3.13c1.67.52 2.82 2.07 2.82 3.82z" fill="#5e9fdf"/><path d="M16 47h2v15h-2z" fill="#1976d2"/><path d="M17,47c-2.76,0-5-2.23-5-5v-3h10v3c0,2.76-2.24,5-5,5Z" fill="#d38e2a"/><g fill="#5e9fdf"><path d="M17 47l-6 3-.91-9.11 2.09-.64L17 47z"/><path d="M23.91 40.89L23 50l-6-3 4.82-6.75 2.09.64z"/></g><path d="M6 24h2v6H6z" fill="#1976d2"/><path d="M6 28h3v8H6c-.55 0-1-.45-1-1v-6c0-.55.45-1 1-1z" fill="#5e9fdf"/><path d="M24,26H7c-1.66,0-3-1.34-3-3v-6H22c1.66,0,3,1.34,3,3,1.66,0,3,1.34,3,3v7h-2v-2c0-1.1-.9-2-2-2Z" fill="#1976d2"/><path d="M28 36h-3v-8h3c.55 0 1 .45 1 1v6c0 .55-.45 1-1 1z" fill="#5e9fdf"/><path d="M17,42c-4.97,0-9-4.03-9-9v-7h16c1.1,0,2,.9,2,2v5c0,4.97-4.03,9-9,9Z" fill="#e4c290"/><path d="M14.55 38.89a1.01 1.01 0 0 1-.45-1.34 1.01 1.01 0 0 1 1.34-.45c.97.49 2.13.49 3.11 0 .49-.25 1.09-.05 1.34.45a.99.99 0 0 1-.45 1.34c-1.53.77-3.36.77-4.89 0z" fill="#d38e2a"/><path d="M28 39h-4c-.55 0-1-.45-1-1s.45-1 1-1h3v-2c0-.55.45-1 1-1s1 .45 1 1v3c0 .55-.45 1-1 1z" fill="#f3f3f3"/><path d="M61 12v16c0 1.1-.9 2-2 2H41c-.63 0-1.22.3-1.6.8l-1.6 2.13c-.4.54-1.2.54-1.6 0l-1.6-2.13c-.38-.5-.97-.8-1.6-.8-1.1 0-2-.9-2-2V12c0-1.1.9-2 2-2h26c1.1 0 2 .9 2 2z" fill="#e4c290"/><path d="M34 14h6v2h-6zm9 0h15v2H43zm15 7h-6v-2h6zm-9 0H34v-2h15zm-15 3h6v2h-6zm9 0h15v2H43z" fill="#fff"/><path d="M22 55h7v2h-7z" fill="#1976d2"/><path d="M26 53h2v2h-2z" fill="#5e9fdf"/><path d="M61 12v5.06c-3.15 1.56-6.91 1.16-9.64-1.06H58v-2h-8.47a8.84 8.84 0 0 1-1.47-4H59c1.1 0 2 .9 2 2z" fill="#d38e2a"/><path d="M58 14v2h-6.64c-.71-.56-1.33-1.24-1.83-2H58z" fill="#f3f3f3"/><circle cx="57" cy="9" r="7" fill="#fff"/><circle cx="57" cy="9" r="5" fill="#5e9fdf"/><g fill="#1976d2"><path d="M60.66 12.41a5.01 5.01 0 0 1-7.32 0c1.38-3.2 5.94-3.22 7.32 0z"/><circle cx="57" cy="8" r="2"/></g></svg>