<svg xmlns="http://www.w3.org/2000/svg" viewBox="0 0 64 64" xmlns:v="https://vecta.io/nano"><rect x="30" y="2" width="34" height="26" rx="4" fill="#f3f3f3"/><g fill="#1976d2"><path d="M54.94 52.32A31.8 31.8 0 0 1 32 62C14.35 62 0 47.65 0 30A31.8 31.8 0 0 1 9.68 7.06c.36-.35.93-.37 1.32-.06l11.62 9.22c.29.23.43.6.36.96l-2 11c-.06.34-.29.62-.61.75l-8.24 3.29c1.02 9.22 8.43 16.63 17.65 17.65l3.29-8.24c.13-.32.41-.55.75-.61l11-2a.98.98 0 0 1 .96.36L55 51c.32.39.29.96-.06 1.32z"/><path d="M22.98 17.18l-2 11c-.06.34-.29.62-.61.75L15.19 31l3.42-17.96 4.01 3.18c.29.23.43.6.36.96zm25.98 26.21L31 46.81l2.07-5.18c.13-.32.41-.55.75-.61l11-2a.98.98 0 0 1 .96.36l3.18 4.01z"/></g><path d="M32,58v4C14.35,62,0,47.65,0,30H4c0,15.46,12.54,28,28,28Z" fill="#5e9fdf"/><path d="M26 10v18a4 4 0 0 0 4 4h1l3.22 4.02a1 1 0 0 0 1.56 0l2.92-3.65a1 1 0 0 1 .78-.38H56a4 4 0 0 0 4-4V10a4 4 0 0 0-4-4H30a4 4 0 0 0-4 4z" fill="#d38e2a"/><g fill="#fff"><path d="M43 23c-.55 0-1-.45-1-1 0-1.42.84-2.68 2.15-3.23 2.7-1.13 2.34-5.06-.43-5.69a3 3 0 0 0-3.62 3.67c.14.54-.19 1.08-.72 1.22a1.01 1.01 0 0 1-1.22-.72c-.93-3.63 2.29-6.96 6.01-6.12 4.69 1.07 5.21 7.63.76 9.48-.56.23-.92.78-.92 1.38 0 .55-.45 1-1 1z"/><circle cx="43" cy="26" r="1"/><circle cx="32" cy="26" r="1"/><circle cx="32" cy="22" r="1"/><circle cx="32" cy="18" r="1"/></g></svg>