<svg xmlns="http://www.w3.org/2000/svg" viewBox="0 0 64 64" xmlns:v="https://vecta.io/nano"><circle cx="32" cy="32" r="20" fill="#f3f3f3"/><g fill="#1976d2"><path d="M54.94 54.32A31.8 31.8 0 0 1 32 64C14.35 64 0 49.65 0 32A31.8 31.8 0 0 1 9.68 9.06c.36-.35.93-.37 1.32-.06l11.62 9.22c.29.23.43.6.36.96l-2 11c-.06.34-.29.62-.61.75l-8.24 3.29c1.02 9.22 8.43 16.63 17.65 17.65l3.29-8.24c.13-.32.41-.55.75-.61l11-2a.98.98 0 0 1 .96.36L55 53c.32.39.29.96-.06 1.32z"/><path d="M22.98 19.18l-2 11c-.06.34-.29.62-.61.75L15.19 33l3.42-17.96 4.01 3.18c.29.23.43.6.36.96zm25.98 26.21L31 48.81l2.07-5.18c.13-.32.41-.55.75-.61l11-2a.98.98 0 0 1 .96.36l3.18 4.01z"/></g><g fill="#5e9fdf"><path d="M32,60v4C14.35,64,0,49.65,0,32H4c0,15.46,12.54,28,28,28Z"/><circle cx="46" cy="18" r="18"/></g><circle cx="46" cy="18" r="14" fill="#fff"/><path d="M55 28.3v.41a13.95 13.95 0 0 1-18 0v-.41a2.01 2.01 0 0 1 1.19-1.83L46 23l7.81 3.47A2.01 2.01 0 0 1 55 28.3z" fill="#1976d2"/><path d="M46,27c-1.66,0-3-1.34-3-3v-1h6v1c0,1.66-1.34,3-3,3Z" fill="#d38e2a"/><path d="M38 12h2v6h-2z" fill="#1976d2"/><path d="M46,25c-3.31,0-6-2.69-6-6v-4h12v4c0,3.31-2.69,6-6,6Z" fill="#e4c290"/><path d="M52 15H40c-1.66 0-3-1.34-3-3v-2c0-.55.45-1 1-1h12c1.1 0 2 .9 2 2h0c.81 0 2 .63 2 2v5h-2v-3z" fill="#1976d2"/><path d="M52 20h-1v-4h1c1.1 0 2 .9 2 2 0 .81-.63 2-2 2zm-12 0h1v-4h-1c-1.1 0-2 .9-2 2 0 .81.63 2 2 2z" fill="#e4c290"/></svg>