<svg xmlns="http://www.w3.org/2000/svg" viewBox="0 0 64 64" xmlns:v="https://vecta.io/nano"><circle cx="32" cy="32" r="24" fill="#f3f3f3"/><g fill="#1976d2"><path d="M54.94 54.32A31.8 31.8 0 0 1 32 64C14.35 64 0 49.65 0 32A31.8 31.8 0 0 1 9.68 9.06c.36-.35.93-.37 1.32-.06l11.62 9.22c.29.23.43.6.36.96l-2 11c-.06.34-.29.62-.61.75l-8.24 3.29c1.02 9.22 8.43 16.63 17.65 17.65l3.29-8.24c.13-.32.41-.55.75-.61l11-2a.98.98 0 0 1 .96.36L55 53c.32.39.29.96-.06 1.32z"/><path d="M22.98 19.18l-2 11c-.06.34-.29.62-.61.75L15.19 33l3.42-17.96 4.01 3.18c.29.23.43.6.36.96zm25.98 26.21L31 48.81l2.07-5.18c.13-.32.41-.55.75-.61l11-2a.98.98 0 0 1 .96.36l3.18 4.01z"/></g><path d="M32,60v4C14.35,64,0,49.65,0,32H4c0,15.46,12.54,28,28,28Z" fill="#5e9fdf"/><path d="M43.09.09C29.84 1.38 21.94 15.8 28.12 27.72c.2.39.28.83.21 1.26l-.88 5.26a2 2 0 0 0 2.3 2.3l5.26-.88c.43-.07.87 0 1.26.21 11.92 6.18 26.34-1.72 27.63-14.97C65.07 8.91 55.09-1.07 43.09.09z" fill="#d38e2a"/><circle cx="45" cy="19" r="14" fill="#fff"/><path d="M52 14H40.41l1.29-1.29c.39-.39.39-1.02 0-1.41s-1.02-.39-1.41 0l-3 3c-.39.39-.39 1.02 0 1.41l3 3A.98.98 0 0 0 41 19c.88 0 1.34-1.07.71-1.71L40.42 16h11.59c.55 0 1-.45 1-1s-.45-1-1-1z" fill="#5e9fdf"/><path d="M52.71 22.29l-3-3c-.39-.39-1.02-.39-1.41 0s-.39 1.02 0 1.41l1.29 1.29H38c-.55 0-1 .45-1 1s.45 1 1 1h11.59l-1.29 1.29c-.39.39-.39 1.02 0 1.41s1.02.39 1.41 0l3-3c.39-.39.39-1.02 0-1.41z" fill="#1976d2"/></svg>