<svg xmlns="http://www.w3.org/2000/svg" viewBox="0 0 64 64" xmlns:v="https://vecta.io/nano"><path d="M60 45v11.81c0 .8-.47 1.52-1.19 1.84-.64.18-7.86 3.9-18.47 3.28-20.3-1.2-36.13-17.56-37.27-37.27C2.45 13.95 6.21 6.69 6.35 6.19 6.67 5.47 7.39 5 8.19 5H20c1.1 0 2 .9 2 2v15.93c0 .67-.33 1.29-.88 1.66l-5.99 4.02c-.74.5-1.05 1.43-.78 2.29 2.86 9.3 10.22 16.8 19.75 19.75.86.27 1.79-.04 2.29-.78l4.02-5.99c.37-.55.99-.88 1.66-.88H58c1.1 0 2 .9 2 2z" fill="#5e9fdf"/><path d="M22 7v15.93c0 .67-.33 1.29-.88 1.66L16 28.03V5h4c1.1 0 2 .9 2 2zm38 38v4H36.97l3.44-5.12c.37-.55.99-.88 1.66-.88H58c1.1 0 2 .9 2 2zM26 58.3C19.36 55.22 13.53 50.28 9.49 44h5.68c1.3-1.29 1.77-2 2.83-2s1.36.54 2.83 2c2.81 0 .93-.28 4.87 2.51.4.93.3.41.3 11.79z" fill="#1976d2"/><path d="M24 60V48c0-1.1-.9-2-2-2h-2l-2-2-2 2H2c-1.1 0-2 .9-2 2v12c0 1.1.9 2 2 2h20c1.1 0 2-.9 2-2z" fill="#d38e2a"/><g fill="#fff"><circle cx="19" cy="54" r="2"/><circle cx="12" cy="54" r="2"/><circle cx="5" cy="54" r="2"/></g><path d="M64 18v14c0 1.1-.9 2-2 2h-4.33L55 37l-2.67-3H36c-1.1 0-2-.9-2-2V18c0-1.1.9-2 2-2h26c1.1 0 2 .9 2 2z" fill="#1976d2"/><g fill="#5e9fdf"><path d="M58 27c-1.1 0-2-.9-2-2 0-1.88 2.49-2.81 3.66-1.12.88 1.27-.03 3.12-1.66 3.12z"/><circle cx="49" cy="25" r="2"/></g><circle cx="40" cy="25" r="2" fill="#f3f3f3"/><path d="M31 16h-6c-1.32 0-1.32-2 0-2h6c1.32 0 1.32 2 0 2zm-6-6c-.88 0-1.34-1.07-.71-1.71l4-4c.94-.94 2.35.48 1.41 1.41-4.37 4.37-4.15 4.29-4.71 4.29zm4 16c-.56 0-.3.12-4.71-4.29-.94-.94.48-2.35 1.41-1.41l4 4a1.01 1.01 0 0 1-.71 1.71z" fill="#d38e2a"/></svg>