<svg xmlns="http://www.w3.org/2000/svg" viewBox="0 0 64 64" xmlns:v="https://vecta.io/nano"><circle cx="32" cy="32" r="24" fill="#f3f3f3"/><path d="M60 15v16a4 4 0 0 1-4 4H40c-.63 0-1.22.3-1.6.8l-1.6 2.13c-.4.54-1.2.54-1.6 0l-1.6-2.13c-.38-.5-.97-.8-1.6-.8h-2a4 4 0 0 1-4-4V15a4 4 0 0 1 4-4h26a4 4 0 0 1 4 4z" fill="#d38e2a"/><path d="M30 16h14v2H30zm17 0h9v2h-9zm-17 6h7v2h-7zm11 0h15v2H41zm-11 6h14v2H30zm17 0h9v2h-9z" fill="#fff"/><path d="M60 15v.48c-4.17 1.51-9-.32-11.06-4.48H56a4 4 0 0 1 4 4z" fill="#e4c290"/><circle cx="57" cy="7" r="7" fill="#fff"/><circle cx="57" cy="7" r="5" fill="#5e9fdf"/><g fill="#1976d2"><path d="M60.66 10.41a5.01 5.01 0 0 1-7.32 0c1.38-3.2 5.94-3.22 7.32 0z"/><circle cx="57" cy="6" r="2"/><path d="M54.94 54.32A31.8 31.8 0 0 1 32 64C14.35 64 0 49.65 0 32A31.8 31.8 0 0 1 9.68 9.06c.36-.35.93-.37 1.32-.06l11.62 9.22c.29.23.43.6.36.96l-2 11c-.06.34-.29.62-.61.75l-8.24 3.29c1.02 9.22 8.43 16.63 17.65 17.65l3.29-8.24c.13-.32.41-.55.75-.61l11-2a.98.98 0 0 1 .96.36L55 53c.32.39.29.96-.06 1.32z"/><path d="M22.98 19.18l-2 11c-.06.34-.29.62-.61.75L15.19 33l3.42-17.96 4.01 3.18c.29.23.43.6.36.96zm25.98 26.21L31 48.81l2.07-5.18c.13-.32.41-.55.75-.61l11-2a.98.98 0 0 1 .96.36l3.18 4.01z"/></g><path d="M32,60v4C14.35,64,0,49.65,0,32H4c0,15.46,12.54,28,28,28Z" fill="#5e9fdf"/></svg>