<svg xmlns="http://www.w3.org/2000/svg" viewBox="0 0 64 64" xmlns:v="https://vecta.io/nano"><path d="M44 6v52c0 3.31-2.69 6-6 6H10c-3.31 0-6-2.69-6-6V6c0-3.31 2.69-6 6-6 30.32 0 28.68-.17 30.14.4 2.2.82 3.86 3 3.86 5.6z" fill="#1976d2"/><path d="M42 6v50a4 4 0 0 1-4 4H10a4 4 0 0 1-4-4V6a4 4 0 0 1 4-4h5.28c.43 0 .81.28.95.68.27.83.56 2.32 2.21 2.32h11.12a2.01 2.01 0 0 0 1.9-1.37l.31-.95c.14-.4.52-.68.95-.68l5.77.04C40.32 2.21 42 3.85 42 6z" fill="#fff"/><path d="M35,58H13c-1.34,0-1.29-2,0-2h22c1.34,0,1.29,2,0,2Z" fill="#d9d9d9"/><circle cx="14" cy="14" r="5" fill="#5e9fdf"/><path d="M21 9h18v2H21zm0 4h18v6H21zm0 12h18v2H21zm0 4h18v6H21zm0 12h18v2H21zm0 4h18v6H21z" fill="#d9d9d9"/><path d="M42 14h2v36h-2z" fill="#1976d2"/><path d="M42 14v36h-3v-5h-9.82a2.87 2.87 0 0 1 0-2H39v-2h-7a3.01 3.01 0 0 1-3-3 3.01 3.01 0 0 1 3-3h7v-6h-7a3 3 0 0 1-2.82-2H39v-2h-9.82A3 3 0 0 1 32 23c-2.11 0-3.54-2.15-2.82-4H39v-5h3z" fill="#f3f3f3"/><path d="M39 14v5h-9.82A3 3 0 0 1 32 17h.81c1.04-1.79 2.97-3 5.19-3h1zm-9.82 11H39v2h-9.82a2.87 2.87 0 0 1 0-2zM32 29h7v6h-7a3.01 3.01 0 0 1-3-3 3.01 3.01 0 0 1 3-3zm0 12h7v2h-9.82A3 3 0 0 1 32 41zm-2.82 4H39v5h-1c-2.22 0-4.15-1.21-5.19-3H32a3 3 0 0 1-2.82-2z" fill="#c8c8c8"/><path d="M38 16h20c1.1 0 2 .9 2 2v28c0 1.1-.9 2-2 2H38a4 4 0 0 1-4-4V20a4 4 0 0 1 4-4z" fill="#1976d2"/><path d="M32 21h4c1.34 0 1.29-2 0-2h-4c-1.34 0-1.29 2 0 2zm0 6h4c1.34 0 1.29-2 0-2h-4c-1.34 0-1.29 2 0 2zm0 6h4c1.34 0 1.29-2 0-2h-4c-1.34 0-1.29 2 0 2zm0 6h4c1.34 0 1.29-2 0-2h-4c-1.34 0-1.29 2 0 2zm0 6h4c1.34 0 1.29-2 0-2h-4c-1.34 0-1.29 2 0 2z" fill="#d38e2a"/><path d="M15 16.58c-1.08 0-1.49-.66-3-2.17-.78-.78-.78-2.05 0-2.83l.29-.29c.94-.94 2.35.48 1.41 1.41l-.29.29L15 14.58l.29-.29c.94-.94 2.35.48 1.41 1.41l-.29.29c-.39.39-.9.58-1.41.58z" fill="#f3f3f3"/><circle cx="14" cy="30" r="5" fill="#d38e2a"/><path d="M15 32.58c-1.08 0-1.49-.66-3-2.17-.78-.78-.78-2.05 0-2.83l.29-.29c.94-.94 2.35.48 1.41 1.41l-.29.29L15 30.58l.29-.29c.94-.94 2.35.48 1.41 1.41l-.29.29c-.39.39-.9.58-1.41.58z" fill="#f3f3f3"/><circle cx="14" cy="46" r="5" fill="#5e9fdf"/><path d="M15 48.58c-1.08 0-1.49-.66-3-2.17-.78-.78-.78-2.05 0-2.83l.29-.29c.94-.94 2.35.48 1.41 1.41l-.29.29L15 46.58l.29-.29c.94-.94 2.35.48 1.41 1.41l-.29.29c-.39.39-.9.58-1.41.58z" fill="#f3f3f3"/><path d="M51 35v-3h-6v-4h6v-3l6 5-6 5z" fill="#5e9fdf"/><path d="M45 39v-3h6v-4h-6v-3l-6 5 6 5z" fill="#f3f3f3"/></svg>