<svg xmlns="http://www.w3.org/2000/svg" viewBox="0 0 64 64" xmlns:v="https://vecta.io/nano"><path d="M64 18v44c0 1.1-.9 2-2 2H2c-1.1 0-2-.9-2-2V22c0-1.1.9-2 2-2h22c2.26-3.07 2.61-4 3.95-4H62c1.1 0 2 .9 2 2zm-37.03-2.03l-.03.03c-.16 0-.14 0 .03-.03z" fill="#5e9fdf"/><path d="M0 26h23v38H2c-1.1 0-2-.9-2-2V26h0zm51 0h13v36c0 1.1-.9 2-2 2H51V26h0z" fill="#1976d2"/><path d="M64 18v8H0v-4c0-1.1.9-2 2-2h20.99c2.31 0 2.63-4 4.96-4H62c1.1 0 2 .9 2 2z" fill="#5e9fdf"/><circle cx="38" cy="43" r="19" fill="#1976d2"/><circle cx="38" cy="43" r="16" fill="#f3f3f3"/><circle cx="38" cy="43" r="12" fill="#fff"/><path d="M4 16h10v4H4zm12 0h7v4h-7zm30.49 0a11.01 11.01 0 0 1-16.98 0h16.98z" fill="#1976d2"/><circle cx="38" cy="9" r="9" fill="#d38e2a"/><path d="M40.13 10.88c-1.15-1.14-3.1-1.14-4.26 0-.95.93-2.35-.5-1.4-1.42a5 5 0 0 1 7.06 0c.94.93-.47 2.34-1.4 1.42zm3.53-2.54c-.63 0-.66-.38-1.57-1.02-2.73-1.96-6.63-1.69-9.04.73-.94.94-2.35-.48-1.41-1.42 3.54-3.53 9.23-3.49 12.73 0 .63.63.18 1.71-.71 1.71zM39 13c0-1.32-2-1.32-2 0s2 1.32 2 0z" fill="#fdfdfd"/></svg>