<svg xmlns="http://www.w3.org/2000/svg" xmlns:xlink="http://www.w3.org/1999/xlink" viewBox="0 0 64 64" xmlns:v="https://vecta.io/nano"><path d="M57 34H7c-1.1 0-2-.9-2-2 0-.81.63-2 2-2h50c1.1 0 2 .9 2 2 0 .81-.63 2-2 2z" fill="#5e9fdf"/><path d="M56 34l-1.88 28.13A2 2 0 0 1 52.13 64H11.87a2 2 0 0 1-1.99-1.87C8.15 36.58 11.56 87.41 8 34h48z" fill="#1976d2"/><g fill="#fff"><use xlink:href="#B"/><use xlink:href="#B" x="8"/><path d="M34 40v18c0 1.1-.9 2-2 2s-2-.9-2-2V40c0-1.34 1.3-2.23 2.38-1.96.87.15 1.62.95 1.62 1.96z"/><use xlink:href="#B" x="24"/><use xlink:href="#B" x="32"/></g><path d="M46 40.34v11.31l-4-3.99c0-8.19.2-8.3-.59-9.07C40.19 37.33 38 38.22 38 40v3.66l-4.04-4.04c-.14-.78-.79-1.44-1.58-1.58l-.38-.38-.38.38c-.8.15-1.43.78-1.58 1.58L26 43.66c0-3.71.19-4.31-.59-5.07C24.19 37.33 22 38.22 22 40v7.66l-4 3.99V40.34L24.34 34h15.32L46 40.34zm-32 4v11.31l-4.27 4.27-.71-10.6L14 44.34z" fill="#1976d2"/><path d="M18 40.34v11.31l-4 4V44.34l4-4zm7.41-1.75c.78.76.59 1.35.59 5.07l-4 4V40c0-1.78 2.19-2.67 3.41-1.41z" fill="#f3f3f3"/><path d="M31.62 38.04l-1.58 1.58c.15-.8.78-1.43 1.58-1.58zM4.2 59.8c-.57-.57-.97-1.86 0-2.83l26.39-26.38c.78-.78 2.05-.78 2.83 0 .57.57.97 1.86 0 2.83L7.03 59.8c-.78.78-2.05.78-2.83 0zm29.76-20.18l-1.58-1.58c.78.14 1.44.79 1.58 1.58z" fill="#5e9fdf"/><path d="M41.41 38.59c.79.77.59.76.59 9.07l-4-4V40c0-1.78 2.19-2.67 3.41-1.41z" fill="#f3f3f3"/><path d="M54.98 49.32l-.71 10.6L50 55.65V44.34l4.98 4.98z" fill="#1976d2"/><path d="M50 44.34v11.31l-4-4V40.34l4 4z" fill="#f3f3f3"/><circle cx="19" cy="19" r="9" fill="#d38e2a"/><path d="M19 18c-1.32 0-1.32-2 0-2h2c1.32 0 1.32-2 0-2h-1v-1c0-1.32-2-1.32-2 0l.04 1.17c-3.21 1.1-2.4 5.83.96 5.83 1.32 0 1.32 2 0 2h-2c-1.32 0-1.32 2 0 2h1v1c0 1.32 2 1.32 2 0l-.04-1.17c3.21-1.1 2.4-5.83-.96-5.83z" fill="#fdfdfd"/><path d="M59.8 59.8c.57-.57.97-1.86 0-2.83L33.42 30.59c-.78-.78-2.05-.78-2.83 0-.57.57-.97 1.86 0 2.83L56.97 59.8c.78.78 2.05.78 2.83 0z" fill="#5e9fdf"/><circle cx="43" cy="9" r="9" fill="#d38e2a"/><path d="M46 13h-5v-2h3c1.32 0 1.32-2 0-2h-3V7c0-1.1.9-2 2-2s2 .9 2 2c0 .55.45 1 1 1 2.1 0 .81-5-3-5a4 4 0 0 0-4 4v2h-1c-1.32 0-1.32 2 0 2h1v3c0 .55.45 1 1 1h6c1.32 0 1.32-2 0-2z" fill="#fdfdfd"/><path d="M12 13V8c0-1.32 2-1.32 2 0v5c0 1.32-2 1.32-2 0zm6-4V7c0-1.32 2-1.32 2 0v2c0 1.32-2 1.32-2 0zm17-5V1c0-1.32 2-1.32 2 0v3c0 1.32-2 1.32-2 0zm15 5V2c0-1.32 2-1.32 2 0v7c0 1.32-2 1.32-2 0z" fill="#d9d9d9"/><defs ><path id="B" d="M18 58c0 1.1-.9 2-2 2s-2-.9-2-2V40c0-1.78 2.19-2.67 3.41-1.41.84.82.59.1.59 19.41z"/></defs></svg>