<svg xmlns="http://www.w3.org/2000/svg" viewBox="0 0 64 64" xmlns:v="https://vecta.io/nano"><path d="M62,19V58H2V19c0-1.66,1.34-3,3-3H59c1.69,0,3,1.38,3,3Z" fill="#5e9fdf"/><path d="M1 58h62c.55 0 1 .45 1 1v2c0 1.66-1.34 3-3 3H3c-1.66 0-3-1.34-3-3v-2c0-.55.45-1 1-1z" fill="#1976d2"/><path d="M60 19v4H20l-4-5h43c.55 0 1 .45 1 1z" fill="#5e9fdf"/><path d="M60 23v33H4V19c0-.55.45-1 1-1h14.08c1.21 0 2.36.55 3.12 1.5l1.75 2.17c.75.85 1.84 1.33 2.97 1.33H60z" fill="#fff"/><path d="M39 60H25c-.81 0-2-.63-2-2h18c0 .81-.63 2-2 2z" fill="#f3f3f3"/><rect x="34" width="30" height="5" rx="1" fill="#e4c290"/><path d="M56 52H8c-.55 0-1-.45-1-1V27c0-.55.45-1 1-1h48c.55 0 1 .45 1 1v24c0 .55-.45 1-1 1z" fill="#5e9fdf"/><path d="M60 20.18V19c0-.55-.45-1-1-1H36.33c-.41-.64-.76-1.31-1.07-2H59a2.98 2.98 0 0 1 2.77 1.86c-.52.83-1.11 1.61-1.77 2.32z" fill="#1976d2"/><path d="M56.47 23a14.96 14.96 0 0 1-14.94 0h14.94z" fill="#f3f3f3"/><path d="M60 19v1.18c-1.02 1.11-2.21 2.06-3.53 2.82H41.53a14.91 14.91 0 0 1-5.2-5H59c.55 0 1 .45 1 1z" fill="#5e9fdf"/><path d="M49,23c-7.18,0-13-5.82-13-13V5h26v5c0,7.18-5.82,13-13,13Z" fill="#d38e2a"/><path d="M56 52H8a1 1 0 0 1-.79-1.61l13-17c.36-.47 1.06-.54 1.5-.1l8.23 8.23 10.3-12.17c.44-.52 1.22-.44 1.58.06l15 21c.47.66 0 1.58-.81 1.58z" fill="#5e9fdf"/><path d="M27 46c-.55 0-1-.45-1-1V33c0-.77.85-1.26 1.51-.86l10 6c.65.39.65 1.33 0 1.71-10.9 6.54-10.12 6.14-10.51 6.14z" fill="#f3f3f3"/><circle cx="19" cy="21" r="1" fill="#d38e2a"/><circle cx="49" cy="14" r="7" fill="#e4c290"/><circle cx="49" cy="14" r="5" fill="#fff"/><circle cx="23" cy="12" r="1" fill="#e4c290"/><path d="M27 13c-.55 0-1-.45-1-1a3.01 3.01 0 0 0-3-3c-.55 0-1-.45-1-1s.45-1 1-1c2.76 0 5 2.24 5 5 0 .55-.45 1-1 1zm4 0c-.55 0-1-.45-1-1a7.01 7.01 0 0 0-7-7c-.55 0-1-.45-1-1s.45-1 1-1c4.96 0 9 4.04 9 9 0 .55-.45 1-1 1z" fill="#d38e2a"/></svg>