<svg xmlns="http://www.w3.org/2000/svg" viewBox="0 0 64 64" xmlns:v="https://vecta.io/nano"><path d="M54,35c0,8.38-4.71,15.87-12,19.6-14.38,7.38-32-2.99-32-19.6,0-12.15,9.85-22,22-22s22,9.85,22,22Z" fill="#d9d9d9"/><path d="M60 5v6a4 4 0 0 1-4 4H7a4 4 0 0 1-4-4V5h57z" fill="#1976d2"/><path d="M54,15v20h-8c0-7.72-6.28-14-14-14s-14,6.28-14,14H10V15H54Z" fill="#5e9fdf"/><circle cx="32" cy="35" r="11" fill="#c8c8c8"/><g fill="#1976d2"><circle cx="32" cy="35" r="4"/><path d="M10,28.94V15h8.48c4.26,6.35-.96,14.85-8.48,13.94Z"/><path d="M18.48 15H7a3.99 3.99 0 0 1-2.68-1.03A9 9 0 0 1 18.48 15z"/></g><circle cx="9" cy="18" r="9" fill="#d38e2a"/><path d="M11.13 19.88c-1.15-1.14-3.1-1.14-4.26 0-.95.93-2.35-.5-1.4-1.42a5 5 0 0 1 7.06 0c.94.93-.47 2.34-1.4 1.42zm3.53-2.54c-.63 0-.66-.38-1.57-1.02-2.73-1.96-6.63-1.69-9.04.73-.94.94-2.35-.48-1.41-1.42 3.54-3.53 9.23-3.49 12.73 0 .63.63.18 1.71-.71 1.71zM10 22c0-1.32-2-1.32-2 0s2 1.32 2 0z" fill="#fdfdfd"/><path d="M52.5 43c-1.96 5.03-5.73 9.16-10.5 11.6V50l-3-2 3-2v-1c0-1.1.9-2 2-2h8.5z" fill="#c8c8c8"/><path d="M64 43v14c0 1.1-.9 2-2 2H46c-1.1 0-2-.9-2-2v-9l-3-2 3-2v-1c0-1.1.9-2 2-2h16c1.1 0 2 .9 2 2z" fill="#d38e2a"/><path d="M52 47.87v4.26c0 .8.89 1.28 1.55.83l3.2-2.13a1 1 0 0 0 0-1.66l-3.2-2.13a1 1 0 0 0-1.55.83z" fill="#f3f3f3"/></svg>