<svg xmlns="http://www.w3.org/2000/svg" viewBox="0 0 64 64" xmlns:v="https://vecta.io/nano"><rect width="64" height="64" rx="2" fill="#f3f3f3"/><rect x="30" y="7" width="4" height="50" rx="1" fill="#1976d2"/><g fill="#5e9fdf"><rect x="17" y="14" width="30" height="14" rx="2"/><rect x="10" y="36" width="44" height="14" rx="2"/><path d="M19 16h26v10H19zm-7 22h40v10H12z"/></g><path d="M61 47c-.55 0-.43-.02-3.71-3.29-.39-.39-.39-1.02 0-1.41l3-3c.94-.94 2.35.48 1.41 1.41L59.41 43l2.29 2.29a1.01 1.01 0 0 1-.71 1.71zM3 47c-.88 0-1.34-1.07-.71-1.71L4.58 43l-2.29-2.29c-.94-.94.48-2.35 1.41-1.41l3 3c.39.39.39 1.02 0 1.41C3.59 46.82 3.57 47 2.99 47zm51-22c-.55 0-.43-.02-3.71-3.29-.39-.39-.39-1.02 0-1.41l3-3c.94-.94 2.35.48 1.41 1.41L52.41 21l2.29 2.29a1.01 1.01 0 0 1-.71 1.71zm-44 0c-.88 0-1.34-1.07-.71-1.71L11.58 21l-2.29-2.29c-.94-.94.48-2.35 1.41-1.41l3 3c.39.39.39 1.02 0 1.41C10.59 24.82 10.57 25 9.99 25z" fill="#d38e2a"/><path d="M46 2h16v2H46zm3 4h10v2H49zM2 56h16v2H2zm3 4h10v2H5z" fill="#d9d9d9"/><path d="M32 20h9v2h-9zm-9 0h6v2h-6zm6 22h19v2H29zm-13 0h9v2h-9z" fill="#fff"/></svg>