<svg xmlns="http://www.w3.org/2000/svg" xmlns:xlink="http://www.w3.org/1999/xlink" viewBox="0 0 64 64" xmlns:v="https://vecta.io/nano"><g fill="#5e9fdf"><path d="M6 0h52c1.1 0 2 .9 2 2v4H4V2c0-1.1.9-2 2-2z"/><path d="M17 0h19a4 4 0 0 1 4 4v2H17V0h0z"/></g><path d="M60 6v42c0 1.1-.9 2-2 2H6c-1.1 0-2-.9-2-2V2c0-1.1.9-2 2-2h12a4 4 0 0 1 4 4v2h38z" fill="#f3f3f3"/><path d="M12 11h15v2H12zm0 4h11v2H12zm2 8h10v2H14zm1 10h9v2h-9zm-3-14h19v2H12zm18-8h16v2H30zm-4 12h21v2H26zm7-4h11v2H33zM12 37h19v2H12zm21 0h16v2H33zm-8-22h12v2H25zM12 27h11v2H12zm27 0h16v2H39zm-14 0h12v2H25zM7 11h2v36H7z" fill="#d9d9d9"/><path d="M57 3c0-1.32-2-1.32-2 0s2 1.32 2 0zm-4 0c0-1.32-2-1.32-2 0s2 1.32 2 0z" fill="#1976d2"/><path d="M49,3c0-1.32-2-1.32-2,0s2,1.32,2,0Z" fill="#f3f3f3"/><path d="M37,3c0-1.32-2-1.32-2,0s2,1.32,2,0Z" fill="#1976d2"/><path d="M16.68 50l3.35-3.35c-.14-2.97.7-5.54 2.23-7.65H31v-2h-6.92c4.52-4 11.32-4 15.84 0H33v2h8.74c1.53 2.1 2.37 4.67 2.23 7.65L47.32 50H16.68z" fill="#d9d9d9"/><path d="M19,3c0-1.32-2-1.32-2,0s2,1.32,2,0Z" fill="#d38e2a"/><g fill="#1976d2"><path d="M33.41 53.07l-10.9 10.9-1.41-7.07-7.07-1.41 10.9-10.9 8.48 8.48z"/><path d="M39.07 44.59l10.9 10.9-7.07 1.41-1.41 7.07-10.9-10.9 8.48-8.48z"/></g><path d="M24.08 37H31v2h-8.74c.53-.74 1.14-1.41 1.82-2zm17.66 2H33v-2h6.92c.68.59 1.29 1.26 1.82 2z" fill="#c8c8c8"/><circle cx="32" cy="46" r="10" fill="#d38e2a"/><circle cx="32" cy="46" r="8" fill="#e4c290"/><path d="M34 51h-4c-1.32 0-1.32-2 0-2h1v-4.59l-.29.29c-.94.94-2.35-.48-1.41-1.41l2-2c.63-.63 1.71-.18 1.71.71v7h1c1.32 0 1.32 2 0 2z" fill="#d38e2a"/><g fill="#5e9fdf"><use xlink:href="#B"/><use xlink:href="#B" y="8"/><use xlink:href="#B" x="-11" y="19"/></g><defs ><path id="B" d="M52 17c-.54 0-.57-.15-2.71-2.29-.94-.94.48-2.35 1.41-1.41l1.29 1.29 3.29-3.29c.94-.94 2.35.48 1.41 1.41-4.37 4.37-4.15 4.29-4.71 4.29z"/></defs></svg>