<svg xmlns="http://www.w3.org/2000/svg" viewBox="0 0 64 64" xmlns:v="https://vecta.io/nano"><rect y="9" width="64" height="44" rx="3" fill="#5e9fdf"/><path d="M62,17v29c-2.76,0-5,2.24-5,5H7c0-2.76-2.24-5-5-5V17c2.76,0,5-2.24,5-5H57c0,2.76,2.24,5,5,5Z" fill="#fff"/><path d="M10 31h47v2H10zm-3 4h50v2H7zm0 4h28v2H7zm3 7h10v2H10z" fill="#d9d9d9"/><path d="M56 49v14l-6-4-6 4V49h12z" fill="#1976d2"/><circle cx="50" cy="45" r="10" fill="#d38e2a"/><circle cx="50" cy="45" r="8" fill="#fff"/><g fill="#d38e2a"><path d="M46.06 46c.12 1.38.51 2.96 1.14 4.31-1.62-.86-2.8-2.44-3.11-4.31h1.97zm0-2h-1.97c.31-1.87 1.49-3.45 3.11-4.31-.63 1.35-1.02 2.93-1.14 4.31zm7.88 2h1.97c-.31 1.87-1.49 3.45-3.11 4.31.63-1.35 1.02-2.93 1.14-4.31zm0-2c-.12-1.38-.51-2.96-1.14-4.31 1.62.86 2.8 2.44 3.11 4.31h-1.97zm-5.87 2h3.87c-.2 1.79-.9 3.95-1.94 5-1.04-1.05-1.74-3.21-1.93-5zm3.87-2h-3.87c.19-1.79.89-3.95 1.93-5 1.04 1.05 1.74 3.21 1.94 5z"/><path d="M48.07 46h3.87c-.2 1.79-.9 3.95-1.94 5-1.04-1.05-1.74-3.21-1.93-5zm3.87-2h-3.87c.19-1.79.89-3.95 1.93-5 1.04 1.05 1.74 3.21 1.94 5z"/></g><path d="M14 15h36v8H14zm-3 10h42v2H11z" fill="#d9d9d9"/></svg>