<svg xmlns="http://www.w3.org/2000/svg" viewBox="0 0 64 64" xmlns:v="https://vecta.io/nano"><path d="M52 6v52c0 3.31-2.69 6-6 6H18c-3.31 0-6-2.69-6-6V6c0-3.31 2.69-6 6-6 30.32 0 28.68-.17 30.14.4C50.4 1.24 52 3.49 52 6z" fill="#1976d2"/><path d="M50 6v50a4 4 0 0 1-4 4H18a4 4 0 0 1-4-4V6a4 4 0 0 1 4-4h5.28c.43 0 .81.28.95.68.27.83.56 2.32 2.21 2.32h11.12a2.01 2.01 0 0 0 1.9-1.37l.31-.95c.14-.4.52-.68.95-.68l5.77.04C48.33 2.21 50 3.87 50 6z" fill="#f3f3f3"/><path d="M43,58H21c-1.34,0-1.29-2,0-2h22c1.34,0,1.29,2,0,2Z" fill="#d9d9d9"/><path d="M12 11h2v14h-2z" fill="#1976d2"/><path d="M26 15v6a4.02 4.02 0 0 1-3.06 3.89L20 27.83 17.17 25H14V11h8a4 4 0 0 1 4 4z" fill="#d9d9d9"/><g fill="#1976d2"><path d="M22 13H4c-1.1 0-2 .9-2 2v6c0 1.1.9 2 2 2h14l2 2 2-2c1.1 0 2-.9 2-2v-6c0-1.1-.9-2-2-2z"/><path d="M9.18 13c-.38.7-1.04 1.48-1.87 2H5c-.55 0-1 .45-1 1-.69 0-1.37-.12-2-.34V15c0-1.1.9-2 2-2h5.18z"/></g><path d="M13 17H5c-1.32 0-1.32-2 0-2h8c1.32 0 1.32 2 0 2zm8 0h-4c-1.34 0-1.29-2 0-2h4c1.34 0 1.29 2 0 2zm0 4h-8c-1.34 0-1.29-2 0-2h8c1.34 0 1.29 2 0 2zM9 21H5c-1.34 0-1.29-2 0-2h4c1.34 0 1.29 2 0 2z" fill="#f3f3f3"/><path d="M50 25h2v26h-2z" fill="#1976d2"/><path d="M50 25v26H39.83L37 53.83 34.17 51C31.61 51 30 49.08 30 47V29a4 4 0 0 1 4-4h16z" fill="#d9d9d9"/><g fill="#1976d2"><path d="M62 29v18c0 1.1-.9 2-2 2H39l-2 2-2-2h-1c-1.1 0-2-.9-2-2V29c0-1.1.9-2 2-2h26c1.1 0 2 .9 2 2z"/><path d="M62,29v3.67c-4.06,1.35-8-1.63-8-5.67h6c1.1,0,2,.9,2,2Z"/></g><circle cx="60" cy="27" r="4" fill="#5e9fdf"/><path d="M61.51 28.3a2 2 0 1 0-3.02 0c-.64.28-1.16.64-1.61 1.2 1.59 2 4.65 2 6.24 0-.45-.57-.97-.93-1.61-1.2zM7.31 15c-.96.65-2.11 1-3.31 1 0-.55.45-1 1-1h2.31z" fill="#d9d9d9"/><circle cx="4" cy="10" r="4" fill="#d38e2a"/><path d="M5.51 11.3a2 2 0 1 0-3.02 0c-.64.28-1.16.64-1.61 1.2 1.59 2 4.65 2 6.24 0-.45-.57-.97-.93-1.61-1.2z" fill="#e4c290"/><g fill="#d9d9d9"><path d="M32 21h11v2H32zm-13 8h10v2H19zm-2 4h12v2H17zm15-17h15v2H32z"/><circle cx="41" cy="37" r="7"/></g><path d="M48,37c0,3.87-3.13,7-7,7s-7-3.13-7-7,3.13-7,7-7v7h7Z" fill="#d38e2a"/><path d="M50 38h10v2H50zm0 4h6v2h-6zm0-8h6v2h-6z" fill="#d9d9d9"/></svg>