<svg xmlns="http://www.w3.org/2000/svg" xmlns:xlink="http://www.w3.org/1999/xlink" viewBox="0 0 64 64" xmlns:v="https://vecta.io/nano"><g fill="#5e9fdf"><path d="M6 0h52c1.1 0 2 .9 2 2v4H4V2c0-1.1.9-2 2-2z"/><path d="M17 0h19a4 4 0 0 1 4 4v2H17V0h0z"/></g><path d="M60 6v56c0 1.1-.9 2-2 2H6c-1.1 0-2-.9-2-2V2c0-1.1.9-2 2-2h12a4 4 0 0 1 4 4v2h38z" fill="#f3f3f3"/><path d="M57 3c0-1.32-2-1.32-2 0s2 1.32 2 0zm-4 0c0-1.32-2-1.32-2 0s2 1.32 2 0z" fill="#1976d2"/><path d="M49,3c0-1.32-2-1.32-2,0s2,1.32,2,0Z" fill="#f3f3f3"/><path d="M37,3c0-1.32-2-1.32-2,0s2,1.32,2,0Z" fill="#1976d2"/><path d="M19,3c0-1.32-2-1.32-2,0s2,1.32,2,0Z" fill="#d38e2a"/><g fill="#1976d2"><path d="M52 6h8v10h-8z"/><use xlink:href="#B"/></g><path d="M44 6h8v10h-8z" fill="#5e9fdf"/><g fill="#1976d2"><use xlink:href="#B" x="-8"/><path d="M36 6h8v10h-8z"/><use xlink:href="#B" x="-16"/></g><path d="M28 6h8v10h-8z" fill="#5e9fdf"/><g fill="#1976d2"><use xlink:href="#B" x="-24"/><path d="M20 6h8v10h-8z"/><use xlink:href="#B" x="-32"/></g><path d="M12 6h8v10h-8z" fill="#5e9fdf"/><g fill="#1976d2"><use xlink:href="#B" x="-40"/><path d="M4 6h8v10H4z"/><use xlink:href="#B" x="-48"/><path d="M64 25v10c0 .55-.45 1-1 1H51l-2 2-2-2h-2c-.55 0-1-.45-1-1V25c0-.55.45-1 1-1h18c.55 0 1 .45 1 1z"/></g><path d="M0 34v12c0 .55.45 1 1 1h12l2 2 2-2h2c.55 0 1-.45 1-1V34c0-.55-.45-1-1-1H1c-.55 0-1 .45-1 1z" fill="#d38e2a"/><path d="M8 44c-.54 0-.57-.15-2.71-2.29-.94-.94.48-2.35 1.41-1.41l1.29 1.29 5.29-5.29c.94-.94 2.35.48 1.41 1.41L7.98 44z" fill="#fdfdfd"/><circle cx="35" cy="41" r="2" fill="#1976d2"/><circle cx="29" cy="52" r="2" fill="#d38e2a"/><path d="M39 40h18v2H39zm0 4h18v4H39zM7 51h18v2H7zm0 4h18v4H7z" fill="#d9d9d9"/><g fill="#5e9fdf"><circle cx="60" cy="30" r="2"/><circle cx="54" cy="30" r="2"/></g><circle cx="48" cy="30" r="2" fill="#f3f3f3"/><defs ><path id="B" d="M56 21a4 4 0 0 1-4-4v-1h8v1a4 4 0 0 1-4 4z"/></defs></svg>