<svg xmlns="http://www.w3.org/2000/svg" viewBox="0 0 64 64" xmlns:v="https://vecta.io/nano"><g fill="#5e9fdf"><rect x="6" width="52" height="43" rx="2"/><path d="M45 52H15V0h19.53a4.02 4.02 0 0 1 3.58 2.21l.79 1.58A3.99 3.99 0 0 0 42.48 6h2.53v46z"/></g><path d="M58 6v46c0 1.1-.9 2-2 2H2c-1.1 0-2-.9-2-2V2C0 .9.9 0 2 0h15.53a4.02 4.02 0 0 1 3.58 2.21l.78 1.58A4.02 4.02 0 0 0 25.47 6H58z" fill="#f3f3f3"/><g fill="#1976d2"><circle cx="54" cy="3" r="1"/><circle cx="50" cy="3" r="1"/><circle cx="46" cy="3" r="1"/></g><g fill="#5e9fdf"><circle cx="18" cy="3" r="1"/><path d="M45 17v14c0 1.1-.9 2-2 2H28l-1.17 1.75a.99.99 0 0 1-1.66 0L24 33h-1c-1.1 0-2-.9-2-2V17c0-1.1.9-2 2-2h20c1.13 0 2 .93 2 2z"/></g><path d="M16 13h2v38h-2z" fill="#d9d9d9"/><path d="M3 16h10v2H3z" fill="#5e9fdf"/><path d="M3 21h10v2H3zm0 5h10v2H3zm0 5h10v2H3zm0 5h10v2H3zm0 5h10v2H3zm0 5h10v2H3z" fill="#d9d9d9"/><path d="M23 17h11v2H23zm13 0h7v2h-7zm-4 4h11v2H32zm-2 2h-7v-2h7zm-7 2h11v2H23zm13 0h7v2h-7zm-4 4h11v2H32zm-2 2h-7v-2h7z" fill="#fff"/><path d="M58 16v36c0 1.1-.9 2-2 2H32V33h11c1.1 0 2-.9 2-2 0-15.1.12-14.34-.27-15H58z" fill="#d9d9d9"/><path d="M45 31c0 1.1-.9 2-2 2H32v-2h11v-2H32v-2h2v-2h-2l.06-2H43v-2H32.59A7.97 7.97 0 0 1 36 17.08V19h7v-2h-6.86c1.15-.64 2.46-1 3.86-1h4.73c.38.65.27-.12.27 15z" fill="#1976d2"/><path d="M32 25h2v2h-2zm11-8v2h-7v-1.92c.19-.11-.61-.08 7-.08zm-10.41 4H43v2H32.06c.09-.7.27-1.37.53-2zM32 29h11v2H32z" fill="#f3f3f3"/><rect x="34" y="18" width="30" height="46" rx="6" fill="#d38e2a"/><path d="M53.5 22c-.06.12-.52 1-1.62 1h-5.76c-.69 0-1.31-.39-1.62-1-.06-.12-.52-1-1.62-1H41a4 4 0 0 0-4 4v31a4 4 0 0 0 4 4h16a4 4 0 0 0 4-4V25a4 4 0 0 0-4-4h-1.88c-.69 0-1.31.39-1.62 1z" fill="#fff"/><g fill="#5e9fdf"><rect x="40" y="29" width="14" height="10" rx="1"/><rect x="44" y="45" width="14" height="10" rx="1"/></g><g fill="#d38e2a"><circle cx="57" cy="38" r="1"/><circle cx="41" cy="54" r="1"/></g><path d="M42 31h2v2h-2zm4 0h6v2h-6zm6 6h-2v-2h2zm-4 0h-6v-2h6zm-2 10h2v2h-2zm4 0h6v2h-6zm6 6h-2v-2h2zm-4 0h-6v-2h6z" fill="#fff"/><circle cx="23" cy="37" r="1" fill="#d38e2a"/><circle cx="57" cy="25" r="1" fill="#d9d9d9"/></svg>