<svg xmlns="http://www.w3.org/2000/svg" viewBox="0 0 64 64" xmlns:v="https://vecta.io/nano"><path d="M50 4v48a4 4 0 0 1-4 4H22a4 4 0 0 1-4-4V4c0-1.65.99-3.06 2.42-3.67C21.48-.13 19.88 0 46 0a4 4 0 0 1 4 4z" fill="#5e9fdf"/><path d="M48 4v46c0 1.1-.9 2-2 2H22c-1.1 0-2-.9-2-2V4c0-1.1.89-1.99 1.99-2 5.75 0 5.92-.18 6.29.55.31.63.52 1.45 1.34 1.45h8.76c.38 0 .73-.21.9-.55C40.2 1.57 39.39 2 46 2c1.1 0 2 .9 2 2z" fill="#fff"/><path d="M43 50H25c-1.32 0-1.32-2 0-2h18c1.32 0 1.32 2 0 2zM23 29h16v2H23zm0 4h22v2H23zm0 4h22v2H23z" fill="#d9d9d9"/><path d="M50 41.37V52a4 4 0 0 1-4 4h-1.1l-4.55-4H46c1.1 0 2-.9 2-2V39.85l2 1.52z" fill="#1976d2"/><path d="M48 39.85V50c0 1.1-.9 2-2 2h-5.65c-.93-.82-1.4-1.18-2.09-2H43c1.32 0 1.32-2 0-2h-6.02c-1.35-2.8-1.33-6.15.17-9H45v-1.44l3 2.29zM44.27 37h-5.65c1.37-1.19 3.55-1.58 5.65 0z" fill="#f3f3f3"/><path d="M45 37.56V39h-7.85c.3-.58.89-1.52 1.47-2h5.65l.73.56zM43 50h-4.74a9.84 9.84 0 0 1-1.28-2H43c1.32 0 1.32 2 0 2z" fill="#c8c8c8"/><g fill="#d38e2a"><path d="M58 29.72c0 34.02.33 27.61-1 34.28H32v-4l-3-4h17c0-2.51-1.37-3.12-5.06-6.14-5.91-4.84-1.66-14.23 1.9-11.43L50 44V20l5.95 5.21c1.3 1.14 2.05 2.78 2.05 4.51zM18 38v8l-.84-.42c-3.41-1.71-4.45-6.8-1.16-7.77.69-.2 1.37-.12 2 .19z"/><path d="M18 30v8l-.84-.42c-3.41-1.71-4.45-6.8-1.16-7.77.69-.2 1.37-.12 2 .19z"/></g><g fill="#e4c290"><path d="M18,30v8c-.87-.44-1.36-.64-2-1.19v-7c.69-.2,1.37-.12,2,.19Z"/><path d="M18 38v8c-.87-.44-1.36-.64-2-1.19v-7c.69-.2 1.37-.12 2 .19zm34-16.25V45.6L50 44V20l2 1.75zm-6 34.24c0 .83-.65 2.01-2.01 2.01H30.5L29 56h17z"/></g><g fill="#5e9fdf"><path d="M23 25V9c0-1.34 2-1.29 2 0v16c0 1.34-2 1.29-2 0zm9 0V9c0-1.34 2-1.29 2 0v16c0 1.34-2 1.29-2 0z"/><path d="M25 16h7v2h-7zm11 9V13c0-1.34 2-1.29 2 0v12c0 1.34-2 1.29-2 0zm1-15c-1.36 0-1.28-2 0-2 1.36 0 1.28 2 0 2zm6-2c.76 0 1.96.63 1.86 1.99l-.79 11.08c-.09 1.25-2.05 1.23-2.13 0l-.79-11.08C41.07 8.91 41.93 8 43.01 8zm0 16c1.36 0 1.28 2 0 2-1.36 0-1.28-2 0-2z"/></g></svg>