<svg xmlns="http://www.w3.org/2000/svg" viewBox="0 0 64 64" xmlns:v="https://vecta.io/nano"><rect x="8" width="48" height="64" rx="3" fill="#5e9fdf"/><path d="M54 3v58c0 .55-.45 1-1 1H11c-.55 0-1-.45-1-1V3c0-.55.45-1 1-1h13c0 1.1.9 2 2 2 12.67 0 12.6.24 13.41-.59.37-.36.59-.86.59-1.41h13c.55 0 1 .45 1 1z" fill="#fff"/><path d="M23 24l-3 2v2c0 1.1-.9 2-2 2H2c-1.1 0-2-.9-2-2V12c0-1.1.9-2 2-2h16c1.1 0 2 .9 2 2v10l3 2z" fill="#d38e2a"/><path d="M39 43l3 2v2c0 1.1.9 2 2 2h18c1.1 0 2-.9 2-2V31c0-1.1-.9-2-2-2H44c-1.1 0-2 .9-2 2v10l-3 2z" fill="#1976d2"/><path d="M10 22.96c-1.62 0-1.27-2.97.96-4.2.76-.42 1.16-1.25 1-2.13-.26-1.48-2.08-2.15-3.26-1.16-.78.65-.92 1.77-.42 2.56.7 1.12-1 2.18-1.7 1.06-1.02-1.63-.71-3.85.83-5.15 2.37-1.99 6-.63 6.51 2.35.29 1.7-.51 3.4-2.01 4.22-.58.32-.93.85-.93 1.41s-.45 1.04-1 1.04zM11 26c0-1.32-2-1.32-2 0s2 1.32 2 0z" fill="#f3f3f3"/><path d="M50,60H14c-1.34,0-1.29-2,0-2H50c1.34,0,1.29,2,0,2Z" fill="#d9d9d9"/><g fill="#5e9fdf"><circle cx="60" cy="39" r="2"/><circle cx="53" cy="39" r="2"/></g><circle cx="46" cy="39" r="2" fill="#f3f3f3"/><circle cx="14" cy="37" r="2" fill="#d38e2a"/><circle cx="50" cy="12" r="2" fill="#5e9fdf"/><path d="M18 35h14v2H18zm0 4h14v2H18zm0 4h14v6H18zm14-32h14v2H32zm4 12h10v2H36zm-4-8h14v6H32z" fill="#d9d9d9"/></svg>