<svg xmlns="http://www.w3.org/2000/svg" xmlns:xlink="http://www.w3.org/1999/xlink" viewBox="0 0 64 64" xmlns:v="https://vecta.io/nano"><g fill="#1976d2"><path d="M59 39v16H5V39c0-1.1.9-2 2-2h50c1.1 0 2 .9 2 2z"/><path d="M7 37h50v18H7z"/></g><path d="M55 6v54H9V6c0-1.1.9-2 2-2h42c1.1 0 2 .9 2 2z" fill="#f3f3f3"/><circle cx="17" cy="16" r="4" fill="#5e9fdf"/><use xlink:href="#B" fill="#1976d2"/><circle cx="17" cy="30" r="4" fill="#5e9fdf"/><use xlink:href="#B" y="14" fill="#1976d2"/><path d="M27 13h24v2H27zm0 4h12v2H27zm0 10h24v2H27zm0 4h12v2H27z" fill="#d38e2a"/><path d="M55 44v16H9V44h7.49a4.02 4.02 0 0 1 3.85 2.9l1.17 4.1h20.98l1.17-4.1a4.02 4.02 0 0 1 3.85-2.9H55z" fill="#d9d9d9"/><path d="M59 48v14c0 1.1-.9 2-2 2H7c-1.1 0-2-.9-2-2V48c0-1.1.9-2 2-2h9.49c.89 0 1.68.59 1.92 1.45l1.17 4.1A2 2 0 0 0 21.5 53h20.98c.89 0 1.68-.59 1.92-1.45l1.17-4.1A2 2 0 0 1 47.49 46h9.49c1.1 0 2 .9 2 2z" fill="#5e9fdf"/><path d="M17 61H9c-.55 0-1-.45-1-1 0-.29.22-1 1-1h8c.55 0 1 .45 1 1 0 .29-.22 1-1 1z" fill="#fff"/><path d="M13 0h38c1.1 0 2 .9 2 2v2H11V2c0-1.1.9-2 2-2z" fill="#d9d9d9"/><defs ><path id="B" d="M18 18c-.54 0-.57-.15-2.71-2.29-.39-.39-.39-1.02 0-1.41s1.02-.39 1.41 0l1.29 1.29 3.29-3.29c.39-.39 1.02-.39 1.41 0s.39 1.02 0 1.41l-4 4a.98.98 0 0 1-.71.29z"/></defs></svg>