<svg xmlns="http://www.w3.org/2000/svg" xmlns:xlink="http://www.w3.org/1999/xlink" viewBox="0 0 64 64" xmlns:v="https://vecta.io/nano"><path d="M52 5v59H10V5c0-2.76-2.24-5-5-5h42c2.76 0 5 2.24 5 5z" fill="#f3f3f3"/><g fill="#d9d9d9"><path d="M0 32h10V5c0-2.76-2.24-5-5-5S0 2.23 0 5v27z"/><circle cx="18" cy="15" r="5"/></g><use xlink:href="#B" fill="#d38e2a"/><g fill="#d9d9d9"><path d="M29 12h20v2H29zm0 4h20v4H29z"/><circle cx="18" cy="32" r="5"/></g><use xlink:href="#B" y="17" fill="#d38e2a"/><g fill="#d9d9d9"><path d="M29 29h20v2H29zm0 4h20v4H29z"/><circle cx="18" cy="49" r="5"/></g><use xlink:href="#B" y="34" fill="#d38e2a"/><path d="M29 46h20v2H29zm0 4h20v4H29z" fill="#d9d9d9"/><g fill="#1976d2"><path d="M64 6v3h-6V6c0-1.66 1.34-3 3-3s3 1.34 3 3z"/><path d="M58 9h6v45h-6z"/></g><path d="M62.29 58L61 61l-1.29-3h2.58z" fill="#d38e2a"/><path d="M64 54l-1.71 4h-2.58L58 54h6zM58 9h6v2h-6zm0 4h6v2h-6z" fill="#5e9fdf"/><defs ><path id="B" d="M19.12 18.12c-.55 0-.42 0-3.83-3.41-.94-.94.48-2.35 1.41-1.41l2.41 2.41 5.29-5.29c.94-.94 2.35.48 1.41 1.41l-6.71 6.29z"/></defs></svg>