<?xml version="1.0" encoding="UTF-8"?><svg id="a" xmlns="http://www.w3.org/2000/svg" viewBox="0 0 64 48"><defs><style>.b{fill:#5e9fdf;}.c{fill:#fdfdfd;}.d{fill:#d38e2a;}.e{fill:#f3f3f3;}.f{fill:#d9d9d9;}.g{fill:#1976d2;}</style></defs><path class="b" d="M12,6H60v28H12V6Z"/><path class="g" d="M54,34v6H6c3.31,0,6-2.69,6-6H54Z"/><path class="b" d="M12,6v28c0,3.31-2.69,6-6,6s-6-2.69-6-6V6C0,2.69,2.69,0,6,0s6,2.69,6,6Z"/><path class="e" d="M17,21H55v2H17v-2Zm0,4H55v2H17v-2Zm0,4H55v2H17v-2Z"/><g><circle class="g" cx="6" cy="34" r="6"/><path class="g" d="M24,36H60v2H24v-2Z"/><path class="g" d="M54,34v2h-13.96c.05-.68,.15-1.35,.31-2h13.65Zm0,4v2h-13.65c-.16-.65-.26-1.32-.31-2h13.96Z"/></g><path class="b" d="M60,26.05v7.95h-19.65c.25-1.04,.62-2.05,1.12-3h13.53v-2h-12.24c.58-.73,1.23-1.4,1.94-2h10.3v-2h-6.99c3.85-1.61,8.36-1.29,11.99,1.05Z"/><path class="f" d="M55,25v2h-10.3c.99-.82,2.1-1.5,3.31-2h6.99Zm-12.24,4h12.24v2h-13.53c.37-.71,.8-1.38,1.29-2Z"/><circle class="d" cx="53" cy="37" r="11"/><g><g><path class="c" d="M53,45c-.55,0-1-.45-1-1v-1h-2c-.55,0-1-.45-1-1s.45-1,1-1h3.5c.83,0,1.5-.67,1.5-1.5s-.67-1.5-1.5-1.5h-1c-1.93,0-3.5-1.57-3.5-3.5,0-1.76,1.31-3.22,3-3.46v-1.04c0-.55,.45-1,1-1s1,.45,1,1v1h2c.55,0,1,.45,1,1s-.45,1-1,1h-3.5c-.83,0-1.5,.67-1.5,1.5s.67,1.5,1.5,1.5h1c1.93,0,3.5,1.57,3.5,3.5,0,1.76-1.31,3.22-3,3.46v1.04c0,.55-.45,1-1,1Z"/><path class="e" d="M21,18c-.55,0-1-.45-1-1v-5.59l-.29,.29c-.39,.39-1.02,.39-1.41,0s-.39-1.02,0-1.41l2-2c.29-.29,.71-.37,1.09-.22,.37,.15,.62,.52,.62,.92v8c0,.55-.45,1-1,1Z"/></g><path class="e" d="M27,18c-1.44,0-3-1.15-3-3v-4c0-1.65,1.35-3,3-3,1.44,0,3,1.15,3,3v4c0,1.65-1.35,3-3,3Zm0-8c-.55,0-1,.45-1,1v4c0,.82,.8,1,1,1,.55,0,1-.45,1-1v-4c0-.82-.8-1-1-1Z"/><path class="e" d="M35,18c-1.44,0-3-1.15-3-3v-4c0-1.65,1.35-3,3-3,1.44,0,3,1.15,3,3v4c0,1.65-1.35,3-3,3Zm0-8c-.55,0-1,.45-1,1v4c0,.82,.8,1,1,1,.55,0,1-.45,1-1v-4c0-.82-.8-1-1-1Z"/><path class="e" d="M43,18c-1.44,0-3-1.15-3-3v-4c0-1.65,1.35-3,3-3,1.44,0,3,1.15,3,3v4c0,1.65-1.35,3-3,3Zm0-8c-.55,0-1,.45-1,1v4c0,.82,.8,1,1,1,.55,0,1-.45,1-1v-4c0-.82-.8-1-1-1Z"/><path class="e" d="M51,18c-1.44,0-3-1.15-3-3v-4c0-1.65,1.35-3,3-3,1.44,0,3,1.15,3,3v4c0,1.65-1.35,3-3,3Zm0-8c-.55,0-1,.45-1,1v4c0,.82,.8,1,1,1,.55,0,1-.45,1-1v-4c0-.82-.8-1-1-1Z"/></g></svg>