<svg xmlns="http://www.w3.org/2000/svg" viewBox="0 0 64 64" xmlns:v="https://vecta.io/nano"><rect x="4" y="8" width="42" height="55" rx="4" fill="#fff"/><path d="M42,7H8c-2.76,0-5,2.24-5,5V59c0,2.76,2.24,5,5,5H42c2.76,0,5-2.24,5-5V12c0-2.76-2.24-5-5-5Zm3,52c0,1.65-1.35,3-3,3H8c-1.65,0-3-1.35-3-3V12c0-1.65,1.35-3,3-3H42c1.65,0,3,1.35,3,3V59Z" fill="#5e9fdf"/><g fill="#d38e2a"><rect x="14" y="4" width="22" height="9" rx="2"/><path d="M29 4h-2c0-.81-.63-2-2-2-.78 0-2 .61-2 2h-2a4 4 0 1 1 8 0zm5.95 24h3.01A12.98 12.98 0 0 0 26 16.05v3c4.72.47 8.48 4.23 8.95 8.95z"/></g><path d="M25,39c-5.52,0-10-4.48-10-10,0-5.18,3.95-9.45,9-9.95v-3c-6.71,.5-12,6.11-12,12.95,0,7.18,5.82,13,13,13s12.45-5.29,12.96-12h-3.01c-.5,5.05-4.77,9-9.95,9Z" fill="#1976d2"/><path d="M21 33c-.26 0-.51-.1-.71-.29l-3-3c-.39-.39-.39-1.02 0-1.41l3-3c.39-.39 1.02-.39 1.41 0s.39 1.02 0 1.41L19.41 29l2.29 2.29a1.01 1.01 0 0 1-.71 1.71zm8 0c-.88 0-1.34-1.07-.71-1.71L30.58 29l-2.29-2.29c-.39-.39-.39-1.02 0-1.41s1.02-.39 1.41 0l3 3c.39.39.39 1.02 0 1.41l-3 3a.98.98 0 0 1-.71.29zm-5 2c-.63 0-1.1-.58-.98-1.2l2-10c.11-.54.63-.89 1.18-.78a1 1 0 0 1 .78 1.18l-2 10c-.09.48-.51.8-.98.8z" fill="#d9d9d9"/><rect x="9" y="44" width="6" height="6" rx="1" fill="#1976d2"/><rect x="9" y="53" width="6" height="6" rx="1" fill="#d38e2a"/><path d="M18 44h22v2H18zm0 4h14v2H18zm0 5h22v2H18z" fill="#d9d9d9"/><path d="M45 44.13V59a3.01 3.01 0 0 1-3 3h-5.59c-1.78-1.57-3.22-3.56-4.18-5.85-.15-.37-.23-.76-.23-1.15h8v-2h-7.38c1.47-3.02 3.8-5.44 6.64-7H40v-.39c1.55-.76 3.24-1.26 5-1.48z" fill="#f3f3f3"/><path d="M40 45.61V46h-.74l.74-.39zM32.62 53H40v2h-8c0-.73.26-1.28.62-2z" fill="#c8c8c8"/><path d="M47 44v15c0 2.76-2.24 5-5 5h-2.76c-1.01-.56-1.96-1.23-2.83-2H42a3.01 3.01 0 0 0 3-3V44.13c.66-.09 1.32-.13 2-.13z" fill="#1976d2"/><path d="M18 57h14v2H18z" fill="#d9d9d9"/><g fill="#5e9fdf"><path d="M60,55c-1.96,4.7-6.59,8-12,8s-10.04-3.3-12-8c1.96-4.7,6.59-8,12-8s10.04,3.3,12,8Z"/><path d="M35.08 55.38c-.1-.25-.1-.52 0-.77 4.78-11.46 21.06-11.47 25.85 0 .1.25.1.52 0 .77-4.78 11.46-21.06 11.47-25.85 0zm2.01-.38c4.26 9.31 17.54 9.33 21.82 0-4.26-9.31-17.54-9.33-21.82 0z"/><circle cx="48" cy="55" r="5"/></g><circle cx="48" cy="55" r="2" fill="#1976d2"/><circle cx="49" cy="53" r="1" fill="#fff"/></svg>