<svg xmlns="http://www.w3.org/2000/svg" xmlns:xlink="http://www.w3.org/1999/xlink" viewBox="0 0 64 64" xmlns:v="https://vecta.io/nano"><g fill="#5e9fdf"><path d="M6 0h52c1.1 0 2 .9 2 2v4H4V2c0-1.1.9-2 2-2z"/><path d="M17 0h19a4 4 0 0 1 4 4v2H17V0h0z"/></g><path d="M60 6v43c0 1.1-.9 2-2 2H6c-1.1 0-2-.9-2-2V2c0-1.1.9-2 2-2h12a4 4 0 0 1 4 4v2h38z" fill="#f3f3f3"/><path d="M53 44h-4.76L35.68 31.44c-1.37-3.24-5.99-3.24-7.36 0L15.76 44H11a4 4 0 0 0-4 4v3h50v-3a4 4 0 0 0-4-4zm-28.76 0l7.07-7.07a3.56 3.56 0 0 0 1.38 0L39.76 44H24.24z" fill="#d9d9d9"/><path d="M47 48c-.59 0 .61 1.02-15-14.59L17.71 47.7c-.94.94-2.35-.48-1.41-1.41l15-15c.39-.39 1.02-.39 1.41 0l15 15A1.01 1.01 0 0 1 47 48zM57 3c0-1.32-2-1.32-2 0s2 1.32 2 0zm-4 0c0-1.32-2-1.32-2 0s2 1.32 2 0z" fill="#1976d2"/><path d="M49,3c0-1.32-2-1.32-2,0s2,1.32,2,0Z" fill="#f3f3f3"/><path d="M37,3c0-1.32-2-1.32-2,0s2,1.32,2,0Z" fill="#1976d2"/><path d="M19,3c0-1.32-2-1.32-2,0s2,1.32,2,0Z" fill="#d38e2a"/><g fill="#1976d2"><path d="M52 6h8v10h-8z"/><use xlink:href="#B"/></g><path d="M44 6h8v10h-8z" fill="#5e9fdf"/><g fill="#1976d2"><use xlink:href="#B" x="-8"/><path d="M36 6h8v10h-8z"/><use xlink:href="#B" x="-16"/></g><path d="M28 6h8v10h-8z" fill="#5e9fdf"/><g fill="#1976d2"><use xlink:href="#B" x="-24"/><path d="M20 6h8v10h-8z"/><use xlink:href="#B" x="-32"/></g><path d="M12 6h8v10h-8z" fill="#5e9fdf"/><g fill="#1976d2"><use xlink:href="#B" x="-40"/><path d="M4 6h8v10H4z"/><use xlink:href="#B" x="-48"/></g><rect x="9" y="46" width="46" height="18" rx="2" fill="#d38e2a"/><path d="M16 52h1c1.32 0 1.32-2 0-2h-1c-2.76 0-5 2.24-5 5s2.24 5 5 5h1c1.32 0 1.32-2 0-2h-1a3.01 3.01 0 0 1-3-3 3.01 3.01 0 0 1 3-3zm9 6h-3v-7c0-1.32-2-1.32-2 0v8c0 .55.45 1 1 1h4c1.32 0 1.32-2 0-2zm7-8a4 4 0 0 0-4 4v2a4 4 0 1 0 8 0v-2a4 4 0 0 0-4-4zm2 6c0 1.1-.9 2-2 2s-2-.9-2-2v-2c0-1.1.9-2 2-2s2 .9 2 2v2zm7-4h2c1.32 0 1.32-2 0-2h-2a3.01 3.01 0 0 0-3 3 3.01 3.01 0 0 0 3 3c1.32 0 1.32 2 0 2h-2c-1.32 0-1.32 2 0 2h2a3.01 3.01 0 0 0 3-3 3.01 3.01 0 0 0-3-3c-1.32 0-1.32-2 0-2zm11 6h-4v-2h3c1.32 0 1.32-2 0-2h-3v-2h4c1.32 0 1.32-2 0-2h-5c-.55 0-1 .45-1 1v8c0 .55.45 1 1 1h5c1.32 0 1.32-2 0-2z" fill="#fdfdfd"/><circle cx="32" cy="33" r="2" fill="#d38e2a"/><defs ><path id="B" d="M56 21a4 4 0 0 1-4-4v-1h8v1a4 4 0 0 1-4 4z"/></defs></svg>