<svg xmlns="http://www.w3.org/2000/svg" viewBox="0 0 64 64" xmlns:v="https://vecta.io/nano"><g fill="#d38e2a"><path d="M15,60c-1.65,0-3-1.35-3-3s1.35-3,3-3,3,1.35,3,3-1.35,3-3,3Zm0-4c-.55,0-1,.45-1,1s.45,1,1,1,1-.45,1-1-.45-1-1-1Z"/><path d="M22 58h-5c-.55 0-1-.45-1-1s.45-1 1-1h5c.55 0 1-.45 1-1v-6c0-.55.45-1 1-1s1 .45 1 1v6a3.01 3.01 0 0 1-3 3zm24-1a3.01 3.01 0 0 1 3-3 3.01 3.01 0 0 1 3 3 3.01 3.01 0 0 1-3 3 3.01 3.01 0 0 1-3-3zm2 0c0 .55.45 1 1 1s1-.45 1-1-.45-1-1-1-1 .45-1 1z"/><path d="M47 58h-5a3.01 3.01 0 0 1-3-3v-6c0-.55.45-1 1-1s1 .45 1 1v6c0 .55.45 1 1 1h5c.55 0 1 .45 1 1s-.45 1-1 1zm-15 2c-.55 0-1-.45-1-1v-9c0-.55.45-1 1-1s1 .45 1 1v9c0 .55-.45 1-1 1z"/></g><path d="M64 30c0 4.41-2.04 8.34-5.22 10.89-1.66 1.35-3.63 2.31-5.78 2.79a14.14 14.14 0 0 1-3 .32H14a14.14 14.14 0 0 1-3-.32c-2.15-.48-4.12-1.44-5.78-2.79C2.04 38.34 0 34.41 0 30a13.97 13.97 0 0 1 7.01-12.12A7.95 7.95 0 0 1 6 14a8 8 0 0 1 8-8c1.52 0 2.94.43 4.15 1.16A16.92 16.92 0 0 1 32 0c9.07 0 16.48 7.1 16.97 16.04A11.67 11.67 0 0 1 50 16c7.73 0 14 6.27 14 14z" fill="#f3f3f3"/><path d="M44 23.35V22c0-6.62-5.38-12-12-12s-12 5.38-12 12v1.35c-2.33.83-4 3.04-4 5.65v15h32V29c0-2.61-1.67-4.82-4-5.65zM36 23h-8v-1a4 4 0 1 1 8 0v1z" fill="#d9d9d9"/><path d="M40,28c-1.1,0-2-.9-2-2v-4c0-3.31-2.69-6-6-6s-6,2.69-6,6v4c0,1.1-.9,2-2,2s-2-.9-2-2v-4c0-5.51,4.49-10,10-10s10,4.49,10,10v4c0,1.1-.9,2-2,2Z" fill="#d38e2a"/><rect x="18" y="25" width="28" height="26" rx="4" fill="#1976d2"/><path d="M32,64c-1.65,0-3-1.35-3-3s1.35-3,3-3,3,1.35,3,3-1.35,3-3,3Zm0-4c-.55,0-1,.45-1,1s.45,1,1,1,1-.45,1-1-.45-1-1-1Z" fill="#d38e2a"/><circle cx="32" cy="38" r="8" fill="#5e9fdf"/><path d="M31 41c-.26 0-.51-.1-.71-.29l-2-2c-.39-.39-.39-1.02 0-1.41s1.02-.39 1.41 0l1.29 1.29 3.29-3.29c.39-.39 1.02-.39 1.41 0s.39 1.02 0 1.41l-4 4a.98.98 0 0 1-.71.29z" fill="#f3f3f3"/></svg>