<svg xmlns="http://www.w3.org/2000/svg" viewBox="0 0 64 64" xmlns:v="https://vecta.io/nano"><g fill="#d38e2a"><path d="M17,60c-1.65,0-3-1.35-3-3s1.35-3,3-3,3,1.35,3,3-1.35,3-3,3Zm0-4c-.55,0-1,.45-1,1s.45,1,1,1,1-.45,1-1-.45-1-1-1Z"/><path d="M24 58h-5c-.55 0-1-.45-1-1s.45-1 1-1h5c.55 0 1-.45 1-1v-6c0-.55.45-1 1-1s1 .45 1 1v6a3.01 3.01 0 0 1-3 3zm20-1a3.01 3.01 0 0 1 3-3 3.01 3.01 0 0 1 3 3 3.01 3.01 0 0 1-3 3 3.01 3.01 0 0 1-3-3zm2 0c0 .55.45 1 1 1s1-.45 1-1-.45-1-1-1-1 .45-1 1z"/><path d="M45 58h-5a3.01 3.01 0 0 1-3-3v-6c0-.55.45-1 1-1s1 .45 1 1v6c0 .55.45 1 1 1h5c.55 0 1 .45 1 1s-.45 1-1 1zm-13 2c-.55 0-1-.45-1-1v-9c0-.55.45-1 1-1s1 .45 1 1v9c0 .55-.45 1-1 1z"/><path d="M32,64c-1.65,0-3-1.35-3-3s1.35-3,3-3,3,1.35,3,3-1.35,3-3,3Zm0-4c-.55,0-1,.45-1,1s.45,1,1,1,1-.45,1-1-.45-1-1-1Z"/></g><path d="M64 30c0 4.41-2.04 8.34-5.22 10.89-1.66 1.35-3.63 2.31-5.78 2.79a14.14 14.14 0 0 1-3 .32H14a14.14 14.14 0 0 1-3-.32c-2.15-.48-4.12-1.44-5.78-2.79C2.04 38.34 0 34.41 0 30a13.97 13.97 0 0 1 7.01-12.12A7.95 7.95 0 0 1 6 14a8 8 0 0 1 8-8c1.52 0 2.94.43 4.15 1.16A16.92 16.92 0 0 1 32 0c3.61 0 6.95 1.12 9.69 3.04 4.17 2.89 6.98 7.61 7.28 13A11.67 11.67 0 0 1 50 16c5.03 0 9.43 2.65 11.9 6.63A13.93 13.93 0 0 1 64 30z" fill="#f3f3f3"/><path d="M61.9 22.63c-2.15 2.5-5.03 4.39-8.37 5.3l-.53.14-.53-.14C45.13 25.93 40 19.21 40 11.6V6.29c0-1.31.64-2.52 1.69-3.25 4.17 2.89 6.98 7.61 7.28 13A11.67 11.67 0 0 1 50 16c5.03 0 9.43 2.65 11.9 6.63z" fill="#d9d9d9"/><path d="M64 6.29v5.31c0 6.73-4.51 12.63-11 14.4h0c-6.49-1.77-11-7.67-11-14.4V6.29c0-.78.46-1.5 1.17-1.82l9-4.09c.53-.24 1.13-.24 1.66 0l9 4.09c.71.32 1.17 1.04 1.17 1.82z" fill="#d38e2a"/><path d="M53,2l9,4v5.51c0,5.67-3.63,10.7-9,12.49h0c-5.37-1.79-9-6.82-9-12.49V6l9-4Z" fill="#e4c290"/><path d="M48 40l-.05 1.18A15.06 15.06 0 0 1 47.5 44h-31a16.2 16.2 0 0 1-.46-2.87A13.26 13.26 0 0 1 16 40l.05-1.18c.13-1.95.63-3.88 1.49-5.68.39-.81.84-1.59 1.35-2.3C21.86 26.56 26.76 24 32 24s10.14 2.56 13.12 6.86c.5.7.96 1.48 1.34 2.29.86 1.79 1.36 3.72 1.5 5.72A13.26 13.26 0 0 1 48 40z" fill="#d9d9d9"/><g fill="#5e9fdf"><path d="M46 40l-.04 1a13.75 13.75 0 0 1-1.31 5 12.91 12.91 0 0 1-1.17 2c-2.52 3.63-6.73 6-11.48 6s-8.96-2.37-11.48-6a12.91 12.91 0 0 1-1.17-2 13.75 13.75 0 0 1-1.31-5c-.03-.33-.04-.66-.04-1s.01-.67.04-1a13.75 13.75 0 0 1 1.31-5 12.91 12.91 0 0 1 1.17-2c2.52-3.63 6.73-6 11.48-6s8.96 2.37 11.48 6a12.91 12.91 0 0 1 1.17 2 13.75 13.75 0 0 1 1.31 5c.03.33.04.66.04 1z"/><path d="M45.96 41c.03-.33.04-.66.04-1l-.04-1h-5.99c-.1-1.77-.45-3.44-1.07-5h5.74a12.91 12.91 0 0 0-1.17-2h-5.53c-1.24-2.17-3.02-4.11-5.36-5.81-.35-.25-.82-.25-1.17 0-2.34 1.7-4.12 3.64-5.36 5.81h-5.53a12.91 12.91 0 0 0-1.17 2h5.74c-.61 1.56-.97 3.23-1.07 5h-5.99c-.03.33-.04.66-.04 1l.04 1h5.99c.1 1.77.45 3.44 1.07 5h-5.74a12.91 12.91 0 0 0 1.17 2h5.53c1.24 2.17 3.02 4.11 5.36 5.81A.99.99 0 0 0 32 54a.99.99 0 0 0 .59-.19c2.34-1.7 4.12-3.64 5.36-5.81h5.53a12.91 12.91 0 0 0 1.17-2h-5.74c.61-1.56.97-3.23 1.07-5h5.99zM32 28.25c1.46 1.14 2.65 2.39 3.58 3.75h-7.15c.93-1.36 2.12-2.61 3.58-3.75zM27.3 34h9.4c.72 1.55 1.13 3.22 1.25 5H26.06c.11-1.78.53-3.45 1.25-5zM32 51.75c-1.46-1.14-2.65-2.39-3.58-3.75h7.15c-.93 1.36-2.12 2.61-3.58 3.75zM36.7 46h-9.4c-.72-1.55-1.13-3.22-1.25-5h11.89c-.11 1.78-.53 3.45-1.25 5z"/></g><path d="M52 16c-.26 0-.51-.1-.71-.29l-3-3c-.39-.39-.39-1.02 0-1.41s1.02-.39 1.41 0l2.29 2.29 4.29-4.29c.39-.39 1.02-.39 1.41 0s.39 1.02 0 1.41l-5 5a.98.98 0 0 1-.71.29z" fill="#f3f3f3"/></svg>