<svg xmlns="http://www.w3.org/2000/svg" viewBox="0 0 64 64" xmlns:v="https://vecta.io/nano"><path d="M64 32c0 6.67-4.67 12.27-11 13.68-2.12.46-.15.32-39 .32-3.32 0-6.39-1.16-8.78-3.11-7.64-6.12-6.77-18.09 1.79-23.01C4.08 14.61 7.85 8 14 8c1.52 0 2.94.43 4.15 1.16A16.92 16.92 0 0 1 32 2c9.07 0 16.48 7.1 16.97 16.04C56.84 17.35 64 23.72 64 32z" fill="#f3f3f3"/><path d="M43 30H29c-1.05 0-2 .41-2.72 1.08C25.73 30.43 24.92 30 24 30h-4c-2.76 0-5 2.24-5 5v2a2.95 2.95 0 0 0 1.08 2.28C15.42 39.99 15 40.94 15 42v4h32V34a4 4 0 0 0-4-4zm-22.18 8c.23-.65.18-.99.18-2 3.24 0 3.32.06 4-.18V38h-4.18z" fill="#d9d9d9"/><rect x="27" y="32" width="18" height="22" rx="2" fill="#1976d2"/><g fill="#5e9fdf"><path d="M35 46v14c0 1.1-.9 2-2 2H19c-1.1 0-2-.9-2-2V42c0-1.1.9-2 2-2h10l6 6z"/><path d="M35 46h-6v-6l6 6z"/></g><path d="M18 38c-.55 0-1-.45-1-1v-2a3.01 3.01 0 0 1 3-3h4c.55 0 1 .45 1 1s-.45 1-1 1h-4c-.55 0-1 .45-1 1v2c0 .55-.45 1-1 1zm24 24h-4c-.55 0-1-.45-1-1s.45-1 1-1h4c.55 0 1-.45 1-1v-2c0-.55.45-1 1-1s1 .45 1 1v2a3.01 3.01 0 0 1-3 3z" fill="#d38e2a"/></svg>