<svg xmlns="http://www.w3.org/2000/svg" viewBox="0 0 64 64" xmlns:v="https://vecta.io/nano"><path d="M64 35c0 6.08-4.92 11-11 11H13C5.82 46 0 40.18 0 33s5.78-12.96 12.92-13c5.36-17.13 28.99-19.02 37-2.88 4.1-.94 7.46 3.41 5.53 7.16C60.35 25.39 64 29.76 64 35z" fill="#f3f3f3"/><path d="M41 39.4V46H17.5L10 43l20-8 11 4.4z" fill="#d9d9d9"/><g fill="#5e9fdf"><path d="M43 43.8v7.61c0 .37-.2.7-.52.88l-9.56 5.22c-.57.31-1.27.33-1.85.03l-10.51-5.26a1 1 0 0 1-.55-.89v-7.58l12 5.2 11-5.2z"/><path d="M52 41l-20 8-20-8 20-8 20 8z"/></g><path d="M41 56V44.68l-9.37-3.75c-1.23-.49-.49-2.35.74-1.86l10 4A1 1 0 0 1 43 44v12c0 1.32-2 1.32-2 0z" fill="#1976d2"/></svg>