<svg xmlns="http://www.w3.org/2000/svg" viewBox="0 0 64 64" xmlns:v="https://vecta.io/nano"><path d="M51 37c0 3.31-2.69 6-6 6H20c-3.87 0-7-3.13-7-7 0-4.69 4.54-8.11 9.14-6.67 1.66-9.84 15.21-11.4 19.07-2.22 2.38-.67 4.45 1.72 3.61 3.9.06-.01.12-.01.18-.01 3.31 0 6 2.69 6 6z" fill="#f3f3f3"/><g fill="#5e9fdf"><path d="M0 2h16v12H0z"/><path d="M8 2H0V0h6l2 2zm0 4h8V4h-6L8 6z"/><path d="M0 6h16v8H0zm48-4h16v12H48z"/><path d="M56 2h-8V0h6l2 2zm0 4h8V4h-6l-2 2z"/><path d="M48 6h16v8H48zM0 52h16v12H0z"/><path d="M8 52H0v-2h6l2 2zm0 4h8v-2h-6l-2 2z"/><path d="M0 56h16v8H0zm48-4h16v12H48z"/><path d="M56 52h-8v-2h6l2 2zm0 4h8v-2h-6l-2 2z"/><path d="M48 56h16v8H48z"/></g><path d="M30 9H19c-1.32 0-1.32-2 0-2h11c1.32 0 1.32 2 0 2zm15 0H34c-1.32 0-1.32-2 0-2h11c1.32 0 1.32 2 0 2zm-14 9v-8c0-1.32 2-1.32 2 0v8c0 1.32-2 1.32-2 0z" fill="#1976d2"/><path d="M32,11c-1.65,0-3-1.35-3-3s1.35-3,3-3,3,1.35,3,3-1.35,3-3,3Zm0-4c-1.32,0-1.32,2,0,2s1.32-2,0-2Z" fill="#d38e2a"/><path d="M30 57H19c-1.32 0-1.32-2 0-2h11c1.32 0 1.32 2 0 2zm15 0H34c-1.32 0-1.32-2 0-2h11c1.32 0 1.32 2 0 2zm-14-3v-8c0-1.32 2-1.32 2 0v8c0 1.32-2 1.32-2 0z" fill="#1976d2"/><path d="M32,59c-1.65,0-3-1.35-3-3s1.35-3,3-3,3,1.35,3,3-1.35,3-3,3Zm0-4c-1.32,0-1.32,2,0,2s1.32-2,0-2Z" fill="#d38e2a"/></svg>