<svg xmlns="http://www.w3.org/2000/svg" viewBox="0 0 64 64" xmlns:v="https://vecta.io/nano"><path d="M2 34h60c1.1 0 2 .9 2 2v24H0V36c0-1.1.9-2 2-2z" fill="#5e9fdf"/><path d="M62 64H2c-1.1 0-2-.9-2-2v-2h64v2c0 1.1-.9 2-2 2z" fill="#1976d2"/><g fill="#f3f3f3"><rect x="3" y="36" width="4" height="4" rx="1"/><rect x="3" y="48" width="8" height="4" rx="1"/><rect x="3" y="54" width="4" height="4" rx="1"/><rect x="9" y="54" width="4" height="4" rx="1"/><rect x="51" y="54" width="4" height="4" rx="1"/><rect x="57" y="54" width="4" height="4" rx="1"/><rect x="9" y="36" width="4" height="4" rx="1"/><rect x="11" y="42" width="4" height="4" rx="1"/><rect x="13" y="48" width="4" height="4" rx="1"/><rect x="19" y="48" width="4" height="4" rx="1"/><rect x="25" y="48" width="4" height="4" rx="1"/><rect x="31" y="48" width="4" height="4" rx="1"/><rect x="37" y="48" width="4" height="4" rx="1"/><rect x="43" y="48" width="4" height="4" rx="1"/><rect x="17" y="42" width="4" height="4" rx="1"/><rect x="23" y="42" width="4" height="4" rx="1"/><rect x="29" y="42" width="4" height="4" rx="1"/><rect x="35" y="42" width="4" height="4" rx="1"/><rect x="41" y="42" width="4" height="4" rx="1"/><rect x="15" y="36" width="4" height="4" rx="1"/><rect x="21" y="36" width="4" height="4" rx="1"/><rect x="27" y="36" width="4" height="4" rx="1"/><rect x="33" y="36" width="4" height="4" rx="1"/><rect x="39" y="36" width="4" height="4" rx="1"/><rect x="45" y="36" width="4" height="4" rx="1"/><rect x="47" y="42" width="4" height="4" rx="1"/><rect x="49" y="48" width="4" height="4" rx="1"/><rect x="51" y="36" width="4" height="4" rx="1"/><rect x="57" y="36" width="4" height="4" rx="1"/><rect x="3" y="42" width="6" height="4" rx="1"/><rect x="53" y="42" width="8" height="4" rx="1"/><rect x="55" y="48" width="6" height="4" rx="1"/><rect x="15" y="54" width="34" height="4" rx="1"/><path d="M60 9v18c0 1.1-.9 2-2 2-44.59 0-41.74-.26-42.59.59L13 32c-3.51-3.51-2.27-3-7-3-1.1 0-2-.9-2-2V9c0-1.1.9-2 2-2h52c1.1 0 2 .9 2 2z"/></g><g fill="#d9d9d9"><path d="M12 10h14v2H12zm0 9h14v2H12zm16-9h10v2H28zm-16 4h10v2H12zm12 10h14v2H24zm-12 0h10v2H12zm28-14h17v2H40zm-12 9h24v2H28zM7 10h2v16H7z"/><path d="M40 10v2h2a4 4 0 0 1-4 4c-17.74 0-16 .45-16-2h-1.46a3.99 3.99 0 0 1-.54-2h6v-2h-6V7h22v3h-2z"/></g><path d="M20.54 14H22v1.46c-.61-.35-1.11-.85-1.46-1.46zM20 10h6v2h-6zm20 0h2v2h-2z" fill="#c8c8c8"/><rect x="22" width="18" height="14" rx="2" fill="#1976d2"/><path d="M27 10c-.54 0-.57-.15-2.71-2.29-.39-.39-.39-1.02 0-1.41l2-2c.94-.94 2.35.48 1.41 1.41L26.41 7l1.29 1.29a1.01 1.01 0 0 1-.71 1.71zm8 0c-.88 0-1.34-1.07-.71-1.71L35.58 7l-1.29-1.29c-.94-.94.48-2.35 1.41-1.41l2 2c.39.39.39 1.02 0 1.41C35.52 9.89 35.53 10 34.99 10zm-5.97.76l2-8c.32-1.29 2.26-.8 1.94.49l-2 8c-.32 1.28-2.26.8-1.94-.49z" fill="#f3f3f3"/></svg>