<svg xmlns="http://www.w3.org/2000/svg" viewBox="0 0 64 64" xmlns:v="https://vecta.io/nano"><path d="M62,19V58H2V19c0-1.66,1.34-3,3-3H59c1.66,0,3,1.34,3,3Z" fill="#5e9fdf"/><path d="M1 58h62c.55 0 1 .45 1 1v2c0 1.66-1.34 3-3 3H3c-1.66 0-3-1.34-3-3v-2c0-.55.45-1 1-1z" fill="#1976d2"/><path d="M60 19v4H20l-4-5h43c.55 0 1 .45 1 1z" fill="#5e9fdf"/><path d="M60 23v33H4V19c0-.55.45-1 1-1h14.08c1.21 0 2.36.55 3.12 1.5l1.75 2.17c.75.85 1.84 1.33 2.97 1.33H60zM39 60H25c-.81 0-2-.63-2-2h18c0 .81-.63 2-2 2z" fill="#f3f3f3"/><path d="M14 27h2v26h-2z" fill="#d9d9d9"/><path d="M7 29h4v2H7zm0 4h4v2H7zm0 4h4v2H7zm0 4h4v2H7zm0 4h4v2H7zm0 4h4v2H7zm12-20h8v2h-8zm12 0h16v2H31zM19 41h8v2h-8zm12 0h16v2H31zm-12-4h4v2h-4zm8 0h14v2H27z" fill="#5e9fdf"/><path d="M19 33h8v2h-8z" fill="#d38e2a"/><path d="M31 33h10v2H31zm14 0h6v2h-6z" fill="#5e9fdf"/><path d="M19 45h8v2h-8z" fill="#d38e2a"/><path d="M31 45h10v2H31zm14 0h6v2h-6z" fill="#5e9fdf"/><path d="M45 37h6v2h-6z" fill="#d38e2a"/><path d="M19 49h4v2h-4zm8 0h14v2H27z" fill="#5e9fdf"/><path d="M45 49h6v2h-6z" fill="#d38e2a"/><path d="M62 19v2.79c-.61.63-1.28 1.19-2 1.69V19c0-.55-.45-1-1-1H39.35c-.31-.64-.56-1.31-.77-2H59c1.66 0 3 1.34 3 3z" fill="#1976d2"/><path d="M60 23v.48A13.96 13.96 0 0 1 43.35 23H60z" fill="#d9d9d9"/><path d="M60 19v4H43.35a14.03 14.03 0 0 1-4-5H59c.55 0 1 .45 1 1z" fill="#5e9fdf"/><circle cx="52" cy="12" r="12" fill="#e4c290"/><circle cx="52" cy="12" r="10" fill="#d38e2a"/><circle cx="20" cy="21" r="1" fill="#d9d9d9"/><path d="M48 16c-.26 0-.51-.1-.71-.29l-3-3c-.39-.39-.39-1.02 0-1.41l3-3c.39-.39 1.02-.39 1.41 0s.39 1.02 0 1.41L46.41 12l2.29 2.29a1.01 1.01 0 0 1-.71 1.71zm8 0c-.88 0-1.34-1.07-.71-1.71L57.58 12l-2.29-2.29c-.39-.39-.39-1.02 0-1.41s1.02-.39 1.41 0l3 3c.39.39.39 1.02 0 1.41l-3 3a.98.98 0 0 1-.71.29zm-5 2c-.63 0-1.1-.58-.98-1.2l2-10c.11-.54.63-.89 1.18-.78a1 1 0 0 1 .78 1.18l-2 10c-.09.48-.51.8-.98.8z" fill="#fff"/></svg>