<svg xmlns="http://www.w3.org/2000/svg" viewBox="0 0 64 64" xmlns:v="https://vecta.io/nano"><path d="M25 26h14v7H25z" fill="#d38e2a"/><circle cx="32" cy="46" r="18" fill="#e4c290"/><circle cx="32" cy="46" r="15" fill="#d38e2a"/><rect x="12" y="22" width="40" height="4" rx="1" fill="#e4c290"/><path d="M18 0h28c1.1 0 2 .9 2 2v20H16V2c0-1.1.9-2 2-2z" fill="#5e9fdf"/><path d="M24 0h16v22H24z" fill="#1976d2"/><path d="M26 51c-.26 0-.51-.1-.71-.29l-4-4c-.39-.39-.39-1.02 0-1.41l4-4c.39-.39 1.02-.39 1.41 0s.39 1.02 0 1.41L23.41 46l3.29 3.29a1.01 1.01 0 0 1-.71 1.71zm12 0c-.88 0-1.34-1.07-.71-1.71L40.58 46l-3.29-3.29c-.39-.39-.39-1.02 0-1.41s1.02-.39 1.41 0l4 4c.39.39.39 1.02 0 1.41l-4 4a.98.98 0 0 1-.71.29zm-8 3c-.66 0-1.15-.64-.96-1.28l4-14a1.01 1.01 0 0 1 1.24-.69 1.01 1.01 0 0 1 .69 1.24l-4 14a1.01 1.01 0 0 1-.96.73z" fill="#f3f3f3"/></svg>