<svg xmlns="http://www.w3.org/2000/svg" viewBox="0 0 64 64" xmlns:v="https://vecta.io/nano"><path d="M63.71 43.29c-2.72-2.71-6.72-3.8-10.44-2.83l-13.02 3.4h0c.77-1.36.41-1.87.41-2.04a2.08 2.08 0 0 0-.79-1.15l-7.65-5.57c-1.89-1.37-4.13-2.1-6.47-2.1h-5.88c-2.07 0-4.08.58-5.83 1.67l-5.57 3.48A1.01 1.01 0 0 0 8 39v20c0 .55.45 1 1 1 7.46 0 9.24-.15 12.36.57C30.67 62.72 31.33 63 33.57 63a14.62 14.62 0 0 0 8.61-2.78l21.4-15.41c.49-.34.58-1.05.13-1.52z" fill="#d9d9d9"/><rect y="34" width="10" height="30" rx="3" fill="#1976d2"/><circle cx="6" cy="60" r="2" fill="#f3f3f3"/><path d="M42.99 43.14c-.53 1.61-2.17 3.37-4.28 4.07a7.04 7.04 0 0 1-5.7-.56l-1.16-.66c-.48-.28-.65-.89-.37-1.37.27-.47.88-.64 1.36-.37l1.16.66c2.09 1.19 4.68.73 6.25-1.05l2.74-.72z" fill="#c8c8c8"/><path d="M26.26 8.28c-1.57.85-2.7 2.39-3.1 4.2l-.14.67c-.24 1.11-1.78 1.16-2.04 0l-.14-.67c-.39-1.81-1.53-3.35-3.1-4.2-1-.54-.97-2.03 0-2.56 1.57-.85 2.7-2.39 3.1-4.2l.14-.67c.24-1.11 1.78-1.16 2.04 0l.14.67c.39 1.81 1.53 3.35 3.1 4.2 1 .54.97 2.03 0 2.56zM63 18.11V15.9a1.89 1.89 0 0 0-1.89-1.89c-1.27 0-1.71-1.06-1.79-1.29a13.58 13.58 0 0 0-.86-2.08c-.7-1.36.55-2.39.35-2.19.74-.74.74-1.94 0-2.68L57.24 4.2c-.74-.74-1.94-.74-2.68 0-.95.95-2.08.4-2.19.35a13.58 13.58 0 0 0-2.08-.86C48.84 3.22 49 1.63 49 1.9A1.89 1.89 0 0 0 47.11.01H44.9a1.89 1.89 0 0 0-1.89 1.89c0 1.27-1.06 1.71-1.29 1.79a13.58 13.58 0 0 0-2.08.86c-1.36.7-2.39-.55-2.19-.35-.74-.74-1.94-.74-2.68 0L33.2 5.77c-.74.74-.74 1.94 0 2.68.95.95.4 2.08.35 2.19a13.58 13.58 0 0 0-.86 2.08c-.47 1.45-2.06 1.29-1.79 1.29a1.89 1.89 0 0 0-1.89 1.89v2.21A1.89 1.89 0 0 0 30.9 20c1.27 0 1.71 1.06 1.79 1.29a13.58 13.58 0 0 0 .86 2.08c.7 1.36-.55 2.39-.35 2.19-.74.74-.74 1.94 0 2.68l1.57 1.57c.74.74 1.94.74 2.68 0 .95-.95 2.08-.4 2.19-.35a13.58 13.58 0 0 0 2.08.86c1.45.47 1.29 2.06 1.29 1.79A1.89 1.89 0 0 0 44.9 34h2.21A1.89 1.89 0 0 0 49 32.11c0-1.27 1.06-1.71 1.29-1.79a13.58 13.58 0 0 0 2.08-.86c1.36-.7 2.39.55 2.19.35.74.74 1.94.74 2.68 0l1.57-1.57c.74-.74.74-1.94 0-2.68-.95-.95-.4-2.08-.35-2.19a13.58 13.58 0 0 0 .86-2.08c.47-1.45 2.06-1.29 1.79-1.29A1.89 1.89 0 0 0 63 18.11z" fill="#d38e2a"/><circle cx="46" cy="17" r="10" fill="#e4c290"/><path d="M42 21c-.26 0-.51-.1-.71-.29l-3-3c-.39-.39-.39-1.02 0-1.41l3-3c.39-.39 1.02-.39 1.41 0s.39 1.02 0 1.41L40.41 17l2.29 2.29a1.01 1.01 0 0 1-.71 1.71zm8 0c-.88 0-1.34-1.07-.71-1.71L51.58 17l-2.29-2.29c-.39-.39-.39-1.02 0-1.41s1.02-.39 1.41 0l3 3c.39.39.39 1.02 0 1.41l-3 3a.98.98 0 0 1-.71.29zm-5 1a1 1 0 0 1-.97-1.24l2-8a1 1 0 0 1 1.21-.73 1 1 0 0 1 .73 1.21l-2 8c-.11.45-.52.76-.97.76z" fill="#f3f3f3"/></svg>