<?xml version="1.0" encoding="UTF-8"?><svg id="a" xmlns="http://www.w3.org/2000/svg" viewBox="0 0 56 64"><defs><style>.b{fill:#5e9fdf;}.c{fill:#c8c8c8;}.d{fill:#fdfdfd;}.e{fill:#d38e2a;}.f{fill:#f3f3f3;}.g{fill:#d9d9d9;}.h{fill:#1976d2;}</style></defs><g><path class="b" d="M2,0H54c1.1,0,2,.9,2,2V6H0V2C0,.9,.9,0,2,0Z"/><path class="b" d="M13,0h19c2.21,0,4,1.79,4,4v2H13V0h0Z"/></g><path class="f" d="M56,6V48c0,1.1-.9,2-2,2H2c-1.1,0-2-.9-2-2V2C0,.9,.9,0,2,0H14c2.21,0,4,1.79,4,4v2H56Z"/><path class="h" d="M53,3c0-1.32-2-1.32-2,0s2,1.32,2,0Zm-4,0c0-1.32-2-1.32-2,0s2,1.32,2,0Z"/><path class="f" d="M45,3c0-1.32-2-1.32-2,0s2,1.32,2,0Z"/><path class="h" d="M33,3c0-1.32-2-1.32-2,0s2,1.32,2,0Z"/><path class="e" d="M15,3c0-1.32-2-1.32-2,0s2,1.32,2,0Z"/><g><path class="g" d="M39.27,42h-5.27v-2h4c-.55-.72-1.15-1.4-1.82-2h-6.18v-2h3.48c-5.54-3.2-12.61-2.54-17.48,1.83,0,.21,.05,.17-.18,.17-.67,.6-1.27,1.28-1.82,2h6v2h-7.27c-.34,.64-.63,1.31-.87,2h4.14v2h-4.7c-.3,1.45-.35,2.98-.26,4h29.92c.22-2.38-.29-5.35-1.69-8Zm-20.27-4v-2h8v2h-8Zm8,8h-8v-2h8v2Zm4-4h-8v-2h8v2ZM3,9h2V46H3V9Zm9,5.59l-1.59-1.59,1.59-1.59c.94-.94-.48-2.35-1.41-1.41l-2.29,2.29c-.39,.39-.39,1.02,0,1.41l2.29,2.29c.94,.94,2.35-.48,1.41-1.41h0Zm9.41,1.42l2.29-2.29c.39-.39,.39-1.02,0-1.41l-2.29-2.29c-.95-.95-2.33,.5-1.41,1.41l1.59,1.59-1.59,1.59c-.94,.94,.48,2.35,1.41,1.41h0Zm-5.62-6.28l-1.52,6.06c-.33,1.3,1.63,1.74,1.94,.48l1.52-6.06c.33-1.3-1.63-1.74-1.94-.48Zm-7.79,10.27h8v2H8v-2Zm11,0h8v2h-8v-2Zm11,0h18v2H30v-2Zm-20,4h8v2H10v-2Zm11,0h8v2h-8v-2Zm11,0h18v2h-18v-2Zm-19,4h8v2H13v-2Zm11,0h8v2h-8v-2Zm11,0h18v2h-18v-2Z"/><path class="g" d="M8,36h8v2H8v-2Zm11,0h8v2h-8v-2Zm11,0h17v2H30v-2Zm-18,4h8v2H12v-2Zm11,0h8v2h-8v-2Zm11,0h17v2h-17v-2Zm-26,4h8v2H8v-2Zm11,0h8v2h-8v-2Zm-9-12h8v2H10v-2Zm11,0h8v2h-8v-2Zm11,0h18v2h-18v-2Z"/></g><path class="c" d="M11.86,44h4.14v2h-4.7c.14-.69,.33-1.35,.56-2Zm8.14-2h-7.27c.38-.7,.8-1.37,1.27-2h6v2Zm-1-6h8v2h-8v-2Zm0,8h8v2h-8v-2Zm4-4h8v2h-8v-2Zm13.18-2h-6.18v-2h3.48c.98,.56,1.88,1.23,2.7,2Zm3.09,4h-5.27v-2h4c.47,.63,.89,1.3,1.27,2Z"/><g><circle class="h" cx="28" cy="49" r="15"/><path class="h" d="M16,38c-.25,0-.21,.04,0-.17v.17Z"/></g><path class="d" d="M26,56c-.1,0-.21-.02-.32-.05-.52-.17-.81-.74-.63-1.26l4-12c.17-.52,.74-.81,1.26-.63,.52,.17,.81,.74,.63,1.26l-4,12c-.14,.42-.53,.68-.95,.68Zm8-1c-.26,0-.51-.1-.71-.29-.39-.39-.39-1.02,0-1.41l4.29-4.29-4.29-4.29c-.39-.39-.39-1.02,0-1.41s1.02-.39,1.41,0l5,5c.39,.39,.39,1.02,0,1.41l-5,5c-.2,.2-.45,.29-.71,.29Zm-12,0c-.26,0-.51-.1-.71-.29l-5-5c-.39-.39-.39-1.02,0-1.41l5-5c.39-.39,1.02-.39,1.41,0s.39,1.02,0,1.41l-4.29,4.29,4.29,4.29c.39,.39,.39,1.02,0,1.41-.2,.2-.45,.29-.71,.29Z"/></svg>