<svg xmlns="http://www.w3.org/2000/svg" viewBox="0 0 64 64" xmlns:v="https://vecta.io/nano"><g fill="#5e9fdf"><rect x="6" width="52" height="43" rx="2"/><path d="M45 52H15V0h19.53a4.01 4.01 0 0 1 3.58 2.21l.79 1.58A3.99 3.99 0 0 0 42.48 6h2.53v46z"/></g><path d="M58 6v46c0 1.1-.9 2-2 2H2c-1.1 0-2-.9-2-2V2C0 .9.9 0 2 0h15.53a4.02 4.02 0 0 1 3.58 2.21l.78 1.58A4.02 4.02 0 0 0 25.47 6H58z" fill="#f3f3f3"/><path d="M11 17h2v30h-2z" fill="#d9d9d9"/><path d="M4 19h4v2H4zm0 6h4v2H4zm0 6h4v2H4zm0 6h4v2H4zm0 6h4v2H4zm12-12h8v2h-8zm12 0h16v2H28zm-12-6h4v2h-4zm8 0h14v2H24z" fill="#5e9fdf"/><path d="M16 19h8v2h-8z" fill="#d38e2a"/><path d="M28 19h10v2H28zm14 0h6v2h-6z" fill="#5e9fdf"/><path d="M16 37h8v2h-8z" fill="#d38e2a"/><path d="M28 37h10v2H28z" fill="#5e9fdf"/><path d="M42 25h6v2h-6z" fill="#d38e2a"/><path d="M16 43h4v2h-4zm8 0h8v2h-8z" fill="#5e9fdf"/><g fill="#1976d2"><circle cx="54" cy="3" r="1"/><circle cx="50" cy="3" r="1"/><circle cx="46" cy="3" r="1"/></g><circle cx="18" cy="3" r="1" fill="#5e9fdf"/><path d="M58 42.47V52c0 1.1-.9 2-2 2H32.17c-.23-.65-.23-1.35 0-2C35.93 41.34 48.39 36.77 58 42.47z" fill="#d9d9d9"/><path d="M63,53c-2.05,5.82-7.47,10-14,10s-11.95-4.18-14-10c2.05-5.82,7.47-10,14-10s11.95,4.18,14,10Z" fill="#5e9fdf"/><circle cx="49" cy="53" r="6" fill="#f3f3f3"/><circle cx="49" cy="53" r="7" fill="#5e9fdf"/><circle cx="49" cy="53" r="3" fill="#1976d2"/><path d="M49 64c-6.69 0-12.7-4.29-14.94-10.67a.94.94 0 0 1 0-.66C36.31 46.29 42.31 42 49 42s12.7 4.29 14.94 10.67a.94.94 0 0 1 0 .66C61.69 59.71 55.69 64 49 64zM36.06 53c4.54 11.98 21.32 12.01 25.87 0-4.54-11.98-21.32-12.01-25.87 0z" fill="#5e9fdf"/><circle cx="51" cy="51" r="2" fill="#f3f3f3"/><path d="M7 13c-.54 0-.57-.15-2.71-2.29-.39-.39-.39-1.02 0-1.41l2-2c.39-.39 1.02-.39 1.41 0s.39 1.02 0 1.41L6.41 10l1.29 1.29A1.01 1.01 0 0 1 6.99 13zm9 0c-.88 0-1.34-1.07-.71-1.71L16.58 10l-1.29-1.29c-.39-.39-.39-1.02 0-1.41s1.02-.39 1.41 0l2 2c.39.39.39 1.02 0 1.41-2.18 2.18-2.17 2.29-2.71 2.29zm-5 1c-.62 0-1.09-.56-.99-1.16l1-6a1 1 0 0 1 1.15-.82c.54.09.91.61.82 1.15l-1 6c-.08.49-.51.84-.99.84z" fill="#d9d9d9"/></svg>