<svg xmlns="http://www.w3.org/2000/svg" viewBox="0 0 64 64" xmlns:v="https://vecta.io/nano"><g fill="#1976d2"><path d="M11 19h32c1.1 0 2 .9 2 2v2H9v-2c0-1.1.9-2 2-2z"/><rect x="7" y="23" width="40" height="4" rx="1"/></g><path d="M41 64H13l-3-37h34l-3 37z" fill="#5e9fdf"/><path d="M43 55H11l-1-20h34l-1 20zM13 10h4v9h-4z" fill="#1976d2"/><ellipse cx="27" cy="45" rx="8" ry="6" transform="matrix(.707107 -.707107 .707107 .707107 -23.91 32.27)" fill="#d38e2a"/><path d="M23.25 50.61l-1.42.47c-.52-.43-.95-.84-1.36-1.65l2.15-.72a4.53 4.53 0 0 0 3.07-3.8c.45-3.9 3.47-5.07 5.84-6.39.63.34 1.18.8 1.61 1.4l-3.15 1.75c-1.29.71-2.14 2-2.31 3.46-.28 2.52-2.02 4.67-4.43 5.48z" fill="#e4c290"/><g fill="#d38e2a"><rect x="33" width="24" height="14" rx="2"/><path d="M38 14.02l3 3L44.02 14l-6.02.02z"/></g><g fill="#f3f3f3"><circle cx="52" cy="7" r="2"/><circle cx="45" cy="7" r="2"/><circle cx="38" cy="7" r="2"/></g></svg>