<svg xmlns="http://www.w3.org/2000/svg" viewBox="0 0 64 64" xmlns:v="https://vecta.io/nano"><path d="M17,0V8c-4.97,0-9,4.03-9,9H0C0,7.61,7.61,0,17,0Z" fill="#d38e2a"/><g fill="#5e9fdf"><path d="M17,26v8C7.61,34,0,26.39,0,17H8c0,4.97,4.03,9,9,9Z"/><path d="M34,17c0,9.39-7.61,17-17,17v-8c4.97,0,9-4.03,9-9h8Z"/></g><path d="M34,17h-8c0-4.97-4.03-9-9-9V0c9.39,0,17,7.61,17,17Z" fill="#1976d2"/><path d="M17 17h47v47H17z" fill="#f3f3f3"/><path d="M36 17h28v5H36z" fill="#d9d9d9"/><path d="M40 46H28c-.55 0-1-.45-1-1V33c0-.55.45-1 1-1h12c.55 0 1 .45 1 1v12c0 .55-.45 1-1 1zm-11-2h10V34H29v10z" fill="#d38e2a"/><path d="M20 25h14v14H20zm24 7h18v2H44z" fill="#1976d2"/><path d="M44 40h18v2H44z" fill="#d38e2a"/><path d="M56 34l-2 3h4l-2-3zm0 8l-2 3h4l-2-3z" fill="#c8c8c8"/><g fill="#5e9fdf"><path d="M24 57h4v4h-4z"/><path d="M28 57h4v4h-4z"/></g><g fill="#1976d2"><path d="M32 57h4v4h-4z"/><path d="M36 57h4v4h-4z"/></g><path d="M20 57h4v4h-4z" fill="#d38e2a"/><path d="M30 17h-4c0-4.97-4.03-9-9-9V4c7.18 0 13 5.82 13 13zm-13 9v4C9.82 30 4 24.18 4 17h4c0 4.97 4.03 9 9 9z" fill="#1976d2"/><path d="M17 4v4c-4.97 0-9 4.03-9 9H4C4 9.82 9.82 4 17 4z" fill="#e4c290"/></svg>