<svg xmlns="http://www.w3.org/2000/svg" viewBox="0 0 64 64" xmlns:v="https://vecta.io/nano"><g fill="#5e9fdf"><path d="M30,0V17c-6.08,0-11,4.92-11,11H2C2,12.54,14.54,0,30,0Z"/><path d="M30 39v17C14.54 56 2 43.46 2 28h17c0 6.08 4.92 11 11 11z"/></g><path d="M58 28H41c0-6.08-4.92-11-11-11V0c15.46 0 28 12.54 28 28z" fill="#1976d2"/><path d="M41 28c0 6.08-4.92 11-11 11v21c17.64 0 32-14.28 32-32H41z" fill="#d38e2a"/><path d="M30,8v9c-6.08,0-11,4.92-11,11H10c0-11.05,8.95-20,20-20Z" fill="#1976d2"/><path d="M30,39v9c-11.05,0-20-8.95-20-20h9c0,6.08,4.92,11,11,11Z" fill="#5e9fdf"/><path d="M50,28h-9c0-6.08-4.92-11-11-11V8c11.05,0,20,8.95,20,20Z" fill="#1976d2"/><path d="M53 28c0 12.7-10.3 23-23 23V39c6.08 0 11-4.92 11-11h12zm1.23 20.91c-2.2 2.53-4.78 4.72-7.65 6.47l-2.71-6.91c-.5-1.29.42-2.73 1.87-2.73.55 0 .1-.11 8.49 3.17z" fill="#e4c290"/><path d="M45.74 47.74L52.1 64l2.83-7.07L62 54.1l-16.26-6.36z" fill="#1976d2"/><path d="M31 20c0-1.32-2-1.32-2 0s2 1.32 2 0zm0 4c0-1.32-2-1.32-2 0s2 1.32 2 0zm-4 4c0-1.32-2-1.32-2 0s2 1.32 2 0zm-4 0c0-1.32-2-1.32-2 0s2 1.32 2 0zm16 0c0-1.32-2-1.32-2 0s2 1.32 2 0zm-4 0c0-1.32-2-1.32-2 0s2 1.32 2 0zm-4 0c0-1.32-2-1.32-2 0s2 1.32 2 0zm0 4c0-1.32-2-1.32-2 0s2 1.32 2 0zm0 4c0-1.32-2-1.32-2 0s2 1.32 2 0z" fill="#d9d9d9"/></svg>