<svg xmlns="http://www.w3.org/2000/svg" viewBox="0 0 64 64" xmlns:v="https://vecta.io/nano"><path d="M22 2v51c0 6.08-4.92 11-11 11S0 59.08 0 53V2C0 .9.9 0 2 0h18c1.1 0 2 .9 2 2z" fill="#f3f3f3"/><path d="M2 2h18v12H2z" fill="#5e9fdf"/><path d="M2 16h18v12H2zm0 14h18v12H2z" fill="#1976d2"/><path d="M22 23.62V53c0 6.08-4.92 11-11 11S0 59.08 0 53v-6.93c.96-1.54 1.82-2.28 3.61-4.07H20V30h-4.39l2-2H20v-2.38l2-2z" fill="#d9d9d9"/><path d="M20 25.62V28h-2.39L20 25.62zM20 30v12H3.61l12-12H20z" fill="#1976d2"/><path d="M54.84 24.72L18.78 60.78c-4.3 4.29-11.26 4.29-15.56 0-4.29-4.3-4.29-11.26 0-15.56L39.28 9.16c.79-.78 2.05-.78 2.83 0l12.73 12.73c.78.78.78 2.04 0 2.83z" fill="#f3f3f3"/><path d="M40.7 10.578l12.728 12.728-8.485 8.485-12.728-12.728zM43.53 33.2l-8.49 8.49-12.73-12.73 8.49-8.49L43.53 33.2z" fill="#5e9fdf"/><path d="M33.63 43.1l-8.49 8.49-12.73-12.73 8.49-8.49L33.63 43.1z" fill="#1976d2"/><path d="M39.56 40L18.78 60.78c-4.3 4.29-11.26 4.29-15.56 0-4.29-4.3-4.29-11.26 0-15.56l4.9-4.9c1.76-.4 2.87-.32 5.43-.32l11.59 11.59 8.49-8.49-3.1-3.1h2.82l1.69 1.69L36.73 40h2.83z" fill="#d9d9d9"/><path d="M36.73 40l-1.69 1.69L33.35 40h3.38zm-3.1 3.1l-8.49 8.49L13.55 40h16.98l3.1 3.1z" fill="#1976d2"/><path d="M0,53c0-6.07,4.92-11,11-11H62c1.1,0,2,.9,2,2v18c0,1.1-.9,2-2,2H11C4.92,64,0,59.08,0,53Z" fill="#f3f3f3"/><path d="M62 44v18H50V44z" fill="#d38e2a"/><path d="M48 44v18H36V44zm-14 0v18H22V44z" fill="#e4c290"/><path d="M16,53c0,3.2-2.99,5.56-5.99,4.9h-.02c-5.3-1.1-5.3-8.7,0-9.8h.02c3-.66,5.99,1.7,5.99,4.9Z" fill="#c8c8c8"/><path d="M10.01 57.9h-.02c-5.3-1.1-5.3-8.7 0-9.8h.02c5.3 1.1 5.3 8.7 0 9.8zM35.92 8.67C26.94 3.48 24.01 4.7 24 2.99c0-.74.65-1.17 1.25-1 4.13 1.17 8.05 2.85 11.68 4.96 1.13.65.12 2.38-1.01 1.73zm23.43 30.59c-2.55-9.73-5.34-10.89-4.15-12.08.39-.39 1.21-.48 1.58.2a51.11 51.11 0 0 1 4.5 11.38c.33 1.26-1.61 1.76-1.94.5z" fill="#d9d9d9"/></svg>