<svg xmlns="http://www.w3.org/2000/svg" viewBox="0 0 64 64" xmlns:v="https://vecta.io/nano"><path d="M62,11V50H2V11c0-1.66,1.34-3,3-3H59c1.66,0,3,1.34,3,3Z" fill="#1976d2"/><path d="M1 50h62c.55 0 1 .45 1 1v2c0 1.66-1.34 3-3 3H3c-1.66 0-3-1.34-3-3v-2c0-.55.45-1 1-1z" fill="#5e9fdf"/><path d="M60 11v37H4V11c0-.55.45-1 1-1h54c.55 0 1 .45 1 1z" fill="#fff"/><path d="M39 52H25c-1.1 0-2-.9-2-2 0-.1-.84 0 18 0 0 .81-.63 2-2 2z" fill="#f3f3f3"/><path d="M5 10h54c.55 0 1 .45 1 1v3H4v-3c0-.55.45-1 1-1z" fill="#5e9fdf"/><path d="M45,35v8c0,.55-.45,1-1,1H24.22c-2.61,0-4.94-1.91-5.19-4.51-.29-2.98,2.05-5.49,4.98-5.49h20c.55,0,1,.45,1,1Z" fill="#1976d2"/><path d="M43 36v6h-6v-6z" fill="#5e9fdf"/><path d="M29 36h6v6h-6z" fill="#d38e2a"/><path d="M18,10h17c1.66,0,3,1.34,3,3v1H18v-4h0Z" fill="#5e9fdf"/><path d="M5 10h14c1.66 0 3 1.34 3 3v1H4v-3c0-.55.45-1 1-1z" fill="#fff"/><path d="M35 37.9V36h-6v6h1.9l-2 2H24c-2.76 0-5-2.24-5-5s2.24-5 5-5h14.9L35 37.9z" fill="#1976d2"/><path d="M35 36v1.9L30.9 42H29v-6h6z" fill="#e4c290"/><g fill="#5e9fdf"><path d="M41.67 26.98c.39.39.39 1.02 0 1.41L27.54 42.53c-1.96 1.95-5.12 1.95-7.08 0-1.95-1.96-1.95-5.12 0-7.08L34.6 21.32c.39-.39 1.02-.39 1.41 0l5.66 5.66z"/><path d="M35.308 23.445l4.243 4.243-4.243 4.243-4.243-4.243z"/></g><g fill="#1976d2"><path d="M33.9 33.34l-4.24 4.25-4.25-4.25 4.25-4.24 4.24 4.24z"/><path d="M29.66 29.1l-4.25 4.24 4.25 4.25L31 36.25v2.83l-3.46 3.46c-1.96 1.95-5.12 1.95-7.08 0-1.95-1.96-1.95-5.12 0-7.08L31 24.93v5.51l-1.34-1.34z"/><path d="M31 30.44v5.81l-1.34 1.34-4.25-4.25 4.25-4.24L31 30.44z"/></g><path d="M24 44c-2.76 0-5-2.23-5-5V19c0-.55.45-1 1-1h8c.55 0 1 .45 1 1v20c0 2.76-2.24 5-5 5z" fill="#5e9fdf"/><path d="M21 20h6v6h-6z" fill="#d38e2a"/><path d="M21 28h6v6h-6z" fill="#5e9fdf"/><circle cx="24" cy="39" r="2" fill="#f3f3f3"/><path d="M7 18h8v2H7zm0 4h6v2H7zm42 16h8v2h-8zm0 4h6v2h-6z" fill="#d9d9d9"/></svg>