<svg xmlns="http://www.w3.org/2000/svg" viewBox="0 0 64 64" xmlns:v="https://vecta.io/nano"><path d="M20 0h24c1.1 0 2 .9 2 2v16H18V2c0-1.1.9-2 2-2z" fill="#5e9fdf"/><path d="M18 18h28c.55 0 1 .45 1 1v1c0 1.1-.9 2-2 2H19c-1.1 0-2-.9-2-2v-1c0-.55.45-1 1-1z" fill="#1976d2"/><path d="M20 2h24v16H20z" fill="#fff"/><path d="M34 20h-4c-.81 0-2-.63-2-2h8c0 .81-.63 2-2 2zM3 42h24c1.1 0 2 .9 2 2v16H1V44c0-1.1.9-2 2-2z" fill="#5e9fdf"/><path d="M1 60h28c.55 0 1 .45 1 1v1c0 1.1-.9 2-2 2H2c-1.1 0-2-.9-2-2v-1c0-.55.45-1 1-1z" fill="#1976d2"/><path d="M3 44h24v16H3z" fill="#fff"/><path d="M17 62h-4c-.81 0-2-.63-2-2h8c0 .81-.63 2-2 2zm20-20h24c1.1 0 2 .9 2 2v16H35V44c0-1.1.9-2 2-2z" fill="#5e9fdf"/><path d="M35 60h28c.55 0 1 .45 1 1v1c0 1.1-.9 2-2 2H36c-1.1 0-2-.9-2-2v-1c0-.55.45-1 1-1z" fill="#1976d2"/><path d="M37 44h24v16H37z" fill="#fff"/><path d="M51,62h-4c-.81,0-2-.63-2-2h8c0,.81-.63,2-2,2Z" fill="#5e9fdf"/><path d="M34 14h-1V5c0-.89-1.08-1.34-1.71-.71l-2 2c-.39.39-.39 1.02 0 1.41s1.02.39 1.41 0l.29-.29V14h-1c-.55 0-1 .45-1 1s.45 1 1 1h4c.55 0 1-.45 1-1s-.45-1-1-1zM18 58h-6c-.55 0-1-.45-1-1 0-1.61.9-3.07 2.34-3.79l2.5-1.25c1.97-.98 1.26-3.96-.94-3.96-1.05 0-1.91.86-1.91 1.91 0 .55-.45 1.04-1 1.04s-1-.4-1-.95c0-2.25 1.75-4 3.91-4s4.09 1.83 4.09 4.09a4.08 4.08 0 0 1-2.26 3.66c-2.81 1.4-3.1 1.44-3.51 2.25h4.77c.55 0 1 .45 1 1s-.45 1-1 1z" fill="#d38e2a"/><path d="M49,39c-.55,0-1-.45-1-1,0-2.76-2.24-5-5-5h-5c-2.54,0-4.77-1.36-6-3.4-1.23,2.03-3.46,3.4-6,3.4h-5c-2.76,0-5,2.24-5,5,0,.55-.45,1-1,1s-1-.45-1-1c0-3.86,3.14-7,7-7h5c2.76,0,5-2.24,5-5,0-.55,.45-1,1-1s1,.45,1,1c0,2.76,2.24,5,5,5h5c3.86,0,7,3.14,7,7,0,.55-.45,1-1,1Z" fill="#d9d9d9"/><path d="M51.94 52c2.24-2.19.68-6-2.44-6H48c-2.97 0-3.92 4-2 4 .55 0 1-.45 1-1s.45-1 1-1h1.5a1.5 1.5 0 1 1 0 3H48c-.55 0-1 .45-1 1s.45 1 1 1h1.5a1.5 1.5 0 1 1 0 3H48c-.55 0-1-.45-1-1s-.45-1-1-1c-1.91 0-.98 4 2 4h1.5c3.12 0 4.69-3.81 2.44-6z" fill="#d38e2a"/></svg>