<svg xmlns="http://www.w3.org/2000/svg" viewBox="0 0 64 64" xmlns:v="https://vecta.io/nano"><rect x="1" y="6" width="62" height="48" rx="4" fill="#5e9fdf"/><path d="M44,64H20c2.75-2.75,4-6.21,4-10h16c0,4.08,1.44,7.44,4,10Z" fill="#1976d2"/><g fill="#5e9fdf"><path d="M45 64H19c-.55 0-1-.45-1-1 0-.29.22-1 1-1h26c.55 0 1 .45 1 1 0 .29-.22 1-1 1z"/><rect x="4" y="9" width="56" height="40" rx="1"/></g><path d="M60 14v34c0 .55-.45 1-1 1H5c-.55 0-1-.45-1-1V10c0-.55.45-1 1-1l16 .11a3.98 3.98 0 0 1 2.2 1.39l1.6 2c.76.95 1.91 1.5 3.12 1.5H60z" fill="#f3f3f3"/><g fill="#5e9fdf"><path d="M33 4h23V2c0-1.1-.9-2-2-2H33v4z"/><path d="M22 4h19l-3-4H22v4z"/></g><path d="M6 6h52v3H6z" fill="#1976d2"/><path d="M58 9v5H27.92c-1.21 0-2.36-.55-3.12-1.5l-1.6-2A4.01 4.01 0 0 0 20.08 9H58z" fill="#5e9fdf"/><path d="M58 14v35H6V9h14.08a4.01 4.01 0 0 1 3.12 1.5l1.6 2c.76.95 1.91 1.5 3.12 1.5H58z" fill="#d9d9d9"/><path d="M56 4v45H8V2c0-1.1.9-2 2-2h14c.63 0 1.22.3 1.6.8l1.8 2.4c.38.5.97.8 1.6.8h27z" fill="#f3f3f3"/><path d="M40 44c-.54 0-.57-.15-2.71-2.29-.39-.39-.39-1.02 0-1.41l2-2c.39-.39 1.02-.39 1.41 0s.39 1.02 0 1.41L39.41 41l1.29 1.29a1.01 1.01 0 0 1-.71 1.71zm9 0c-.88 0-1.34-1.07-.71-1.71L49.58 41l-1.29-1.29c-.39-.39-.39-1.02 0-1.41s1.02-.39 1.41 0l2 2c.39.39.39 1.02 0 1.41-2.18 2.18-2.17 2.29-2.71 2.29zm-5 1c-.62 0-1.09-.56-.99-1.16l1-6c.09-.54.61-.91 1.15-.82s.91.61.82 1.15l-1 6a1 1 0 0 1-.99.84zM18 9h2v30h-2z" fill="#d9d9d9"/><path d="M11 11h4v2h-4zm0 6h4v2h-4zm0 6h4v2h-4zm0 6h4v2h-4zm0 6h4v2h-4zm12-12h8v2h-8zm12 0h16v2H35zm-12-6h4v2h-4zm8 0h14v2H31z" fill="#5e9fdf"/><path d="M23 11h8v2h-8z" fill="#d38e2a"/><path d="M35 11h10v2H35z" fill="#5e9fdf"/><path d="M23 29h8v2h-8z" fill="#d38e2a"/><g fill="#5e9fdf"><path d="M35 29h10v2H35zm-12 6h4v2h-4z"/><circle cx="24" cy="3" r="1"/></g></svg>