<svg xmlns="http://www.w3.org/2000/svg" xmlns:xlink="http://www.w3.org/1999/xlink" viewBox="0 0 64 64" xmlns:v="https://vecta.io/nano"><path d="M3 38h24c1.1 0 2 .9 2 2v16H1V40c0-1.1.9-2 2-2z" fill="#5e9fdf"/><path d="M1 56h28c.55 0 1 .45 1 1v1c0 1.1-.9 2-2 2H2c-1.1 0-2-.9-2-2v-1c0-.55.45-1 1-1z" fill="#1976d2"/><path d="M3 40h24v16H3z" fill="#fff"/><path d="M17 58h-4c-.81 0-2-.63-2-2h8c0 .81-.63 2-2 2zm20-20h24c1.1 0 2 .9 2 2v16H35V40c0-1.1.9-2 2-2z" fill="#5e9fdf"/><path d="M35 56h28c.55 0 1 .45 1 1v1c0 1.1-.9 2-2 2H36c-1.1 0-2-.9-2-2v-1c0-.55.45-1 1-1z" fill="#1976d2"/><path d="M37 40h24v16H37z" fill="#fff"/><path d="M46 16c0 3.31-2.69 6-6 6H24c-3.31 0-6-2.69-6-6a5.99 5.99 0 0 1 4.02-5.66c-.2-2.18 1.7-3.71 3.67-3.26 4.09-5.24 12.43-3.48 14.06 2.93.08-.01.16-.01.25-.01 3.31 0 6 2.69 6 6z" fill="#d38e2a"/><path d="M51,58h-4c-.81,0-2-.63-2-2h8c0,.81-.63,2-2,2Z" fill="#5e9fdf"/><path d="M10 35c-.55 0-1-.45-1-1V18a3.01 3.01 0 0 1 3-3h2c.55 0 1 .45 1 1s-.45 1-1 1h-2c-.55 0-1 .45-1 1v16c0 .55-.45 1-1 1zm44 0c-.55 0-1-.45-1-1V18c0-.55-.45-1-1-1h-2c-.55 0-1-.45-1-1s.45-1 1-1h2a3.01 3.01 0 0 1 3 3v16c0 .55-.45 1-1 1z" fill="#d9d9d9"/><g fill="#5e9fdf"><path d="M49 50c-.55 0-1-.45-1-1v-5c0-.55.45-1 1-1s1 .45 1 1v5c0 .55-.45 1-1 1z"/><path d="M51 46c-.55 0-.69-.27-2-1.59l-1.29 1.29c-.39.39-1.02.39-1.41 0s-.39-1.02 0-1.41l2-2c.39-.39 1.02-.39 1.41 0l2 2A1.01 1.01 0 0 1 51 46z"/><use xlink:href="#B"/></g><g fill="#d38e2a"><path d="M15 49c-.55 0-1-.45-1-1v-5c0-.55.45-1 1-1s1 .45 1 1v5c0 .55-.45 1-1 1z"/><path d="M15 50c-.54 0-.57-.15-2.71-2.29-.39-.39-.39-1.02 0-1.41s1.02-.39 1.41 0l1.29 1.29 1.29-1.29c.39-.39 1.02-.39 1.41 0s.39 1.02 0 1.41C15.51 49.89 15.52 50 14.98 50z"/><use xlink:href="#B" x="-34"/></g><defs ><path id="B" d="M52 54h-6c-1.1 0-2-.9-2-2v-1c0-.55.45-1 1-1s1 .45 1 1v1h6v-1c0-.55.45-1 1-1s1 .45 1 1v1c0 1.1-.9 2-2 2z"/></defs></svg>