<svg xmlns="http://www.w3.org/2000/svg" viewBox="0 0 64 64" xmlns:v="https://vecta.io/nano"><rect y="2" width="64" height="50" rx="4" fill="#5e9fdf"/><path d="M44,62H20c2.75-2.75,4-6.21,4-10h16c0,4.08,1.44,7.44,4,10Z" fill="#1976d2"/><path d="M46 62H18c-.55 0-1-.45-1-1 0-.29.22-1 1-1h28c.55 0 1 .45 1 1 0 .29-.22 1-1 1z" fill="#5e9fdf"/><rect x="3" y="5" width="58" height="42" rx="2" fill="#fff"/><path d="M6 8h52v36H6z" fill="#f3f3f3"/><path d="M20,12h28c1.1,0,2,.9,2,2v24H20V12h0Z" fill="#1976d2"/><g fill="#5e9fdf"><path d="M23,12v4h19.83c-1.81,0-3.55-.72-4.83-2s-2.97-2-4.83-2h-10.17Z"/><path d="M14 38V14c0-1.1.9-2 2-2h7.5c1.57 0 3.06.74 4 2s2.43 2 4 2H50v22c0 1.1-.9 2-2 2H16c-1.1 0-2-.9-2-2z"/></g><g fill="#d38e2a"><path d="M58 12c-.55 0-1-.45-1-1V9h-2c-.55 0-1-.45-1-1s.45-1 1-1h3c.55 0 1 .45 1 1v3c0 .55-.45 1-1 1z"/><path d="M54.5 12.5c-.88 0-1.34-1.07-.71-1.71l2.5-2.5c.39-.39 1.02-.39 1.41 0s.39 1.02 0 1.41c-2.7 2.7-2.65 2.79-3.21 2.79zM6 12c-.55 0-1-.45-1-1V8c0-.55.45-1 1-1h3c.55 0 1 .45 1 1s-.45 1-1 1H7v2c0 .55-.45 1-1 1z"/><path d="M9.5 12.5c-.26 0-.51-.1-.71-.29l-2.5-2.5c-.39-.39-.39-1.02 0-1.41s1.02-.39 1.41 0l2.5 2.5a1.01 1.01 0 0 1-.71 1.71zM9 45H6c-.55 0-1-.45-1-1v-3c0-.55.45-1 1-1s1 .45 1 1v2h2c.55 0 1 .45 1 1s-.45 1-1 1z"/><path d="M7 44c-.88 0-1.34-1.07-.71-1.71l2.5-2.5c.39-.39 1.02-.39 1.41 0s.39 1.02 0 1.41c-2.7 2.7-2.65 2.79-3.21 2.79zm51 1h-3c-.55 0-1-.45-1-1s.45-1 1-1h2v-2c0-.55.45-1 1-1s1 .45 1 1v3c0 .55-.45 1-1 1z"/><path d="M57 44c-.26 0-.51-.1-.71-.29l-2.5-2.5c-.39-.39-.39-1.02 0-1.41s1.02-.39 1.41 0l2.5 2.5a1.01 1.01 0 0 1-.71 1.71z"/></g><rect x="17" y="21" width="14" height="16" rx="2" fill="#fff"/><path d="M35 21h12v2H35zm0 4h12v2H35zm0 4h12v2H35zm0 4h10v2H35z" fill="#5e9fdf"/><path d="M25.28 29l3.5-4.38c.35-.43.28-1.06-.16-1.41-.43-.34-1.06-.28-1.41.16l-3.22 4.02-3.22-4.02a1.01 1.01 0 0 0-1.41-.16 1.01 1.01 0 0 0-.16 1.41L22.7 29l-3.5 4.38c-.35.43-.28 1.06.16 1.41.43.35 1.06.27 1.41-.16l3.22-4.02 3.22 4.02a1.01 1.01 0 0 0 1.41.16 1.01 1.01 0 0 0 .16-1.41L25.28 29z" fill="#d38e2a"/></svg>