<svg xmlns="http://www.w3.org/2000/svg" viewBox="0 0 64 64" xmlns:v="https://vecta.io/nano"><rect y="16" width="30" height="48" rx="5" fill="#5e9fdf"/><path d="M28,21V58c0,1.66-1.34,3-3,3H5c-1.66,0-3-1.34-3-3V21c0-1.66,1.34-3,3-3h4c.71,1.19,1.07,2,2.33,2h7.34c1.24,0,1.62-.81,2.33-2h4c1.66,0,3,1.34,3,3Z" fill="#f3f3f3"/><rect x="34" width="30" height="48" rx="5" fill="#d38e2a"/><path d="M62 5v37c0 1.66-1.34 3-3 3H39c-1.66 0-3-1.34-3-3V5c0-1.66 1.34-3 3-3h4c.71 1.19 1.07 2 2.33 2h7.34c1.24 0 1.62-.81 2.33-2h4c1.66 0 3 1.34 3 3z" fill="#f3f3f3"/><g fill="#1976d2"><path d="M37 30v13H25V26h8l4 4z"/><path d="M39 32v13H27V28h8l4 4z"/><path d="M39 32h-4v-4l4 4z"/></g><g fill="#5e9fdf"><path d="M21.59 38.41c-.93 0-1.59-1.39-1.59-2.41 0-1.58 1.34-3.1 2.31-2.11.39.4.38 1.03-.02 1.41a.99.99 0 0 0 0 1.39c.64.63.19 1.72-.7 1.72zm-3.53 2.54a6.99 6.99 0 0 1 0-9.9c.94-.93 2.35.49 1.41 1.42-1.95 1.93-1.96 5.12 0 7.06.94.93-.48 2.34-1.41 1.42zM42 38.41c-.89 0-1.34-1.09-.7-1.72a.99.99 0 0 0 0-1.39c-.95-.92.45-2.36 1.4-1.43 1.76 1.71.57 4.54-.7 4.54zm2.13 1.12c1.95-1.93 1.96-5.12 0-7.06-.94-.93.47-2.35 1.41-1.42a6.99 6.99 0 0 1 0 9.9c-.93.92-2.35-.49-1.41-1.42zM14 13v-2c0-1.32 2-1.32 2 0v2c0 1.32-2 1.32-2 0zm0-7V4c0-1.32 2-1.32 2 0v2c0 1.32-2 1.32-2 0z"/><path d="M17 5h-2c-1.32 0-1.32-2 0-2h2c1.32 0 1.32 2 0 2zm7 0h-2c-1.32 0-1.32-2 0-2h2c1.32 0 1.32 2 0 2zm7 0h-2c-1.32 0-1.32-2 0-2h2c1.32 0 1.32 2 0 2zm18 49v-2c0-1.32 2-1.32 2 0v2c0 1.32-2 1.32-2 0zm0 7v-2c0-1.32 2-1.32 2 0v2c0 1.32-2 1.32-2 0z"/><path d="M50 62h-2c-1.32 0-1.32-2 0-2h2c1.32 0 1.32 2 0 2zm-7 0h-2c-1.32 0-1.32-2 0-2h2c1.32 0 1.32 2 0 2zm-7 0h-2c-1.32 0-1.32-2 0-2h2c1.32 0 1.32 2 0 2z"/></g></svg>