<svg xmlns="http://www.w3.org/2000/svg" viewBox="0 0 64 64" xmlns:v="https://vecta.io/nano"><path d="M31.29 55.71l-23-23c-.39-.39-.39-1.02 0-1.41l23-23.01c.39-.39 1.02-.39 1.41 0l23 23c.39.39.39 1.02 0 1.41l-23 23c-.39.39-1.02.39-1.41 0zM10.41 32L32 53.59 53.59 32 32 10.41 10.41 32z" fill="#d9d9d9"/><circle cx="32" cy="9" r="9" fill="#5e9fdf"/><g fill="#f3f3f3"><path d="M38.32,12c-2.52,5.33-10.12,5.33-12.64,0,2.52-5.33,10.12-5.33,12.64,0Z"/><circle cx="32" cy="6" r="4"/></g><circle cx="9" cy="32" r="9" fill="#d38e2a"/><g fill="#f3f3f3"><path d="M15.32 35C12.8 40.33 5.2 40.33 2.68 35c2.52-5.33 10.12-5.33 12.64 0z"/><circle cx="9" cy="29" r="4"/></g><circle cx="55" cy="32" r="9" fill="#d38e2a"/><g fill="#f3f3f3"><path d="M61.32,35c-2.52,5.33-10.12,5.33-12.64,0,2.52-5.33,10.12-5.33,12.64,0Z"/><circle cx="55" cy="29" r="4"/></g><circle cx="32" cy="55" r="9" fill="#5e9fdf"/><g fill="#f3f3f3"><path d="M38.32,58c-2.52,5.33-10.12,5.33-12.64,0,2.52-5.33,10.12-5.33,12.64,0Z"/><circle cx="32" cy="52" r="4"/></g></svg>