<svg xmlns="http://www.w3.org/2000/svg" xmlns:xlink="http://www.w3.org/1999/xlink" viewBox="0 0 64 64" xmlns:v="https://vecta.io/nano"><style><![CDATA[.G{fill:#1976d2}.H{fill:#5e9fdf}.I{fill:#f3f3f3}]]></style><path d="M62,19V58H2V19c0-1.66,1.34-3,3-3H59c1.66,0,3,1.34,3,3Z" class="H"/><path d="M1 58h62c.55 0 1 .45 1 1v2c0 1.66-1.34 3-3 3H3c-1.66 0-3-1.34-3-3v-2c0-.55.45-1 1-1z" class="G"/><path d="M60 19v37H4V19c0-.55.45-1 1-1h54c.55 0 1 .45 1 1zM39 60H25c-1.1 0-2-.9-2-2 0-.1-.84 0 18 0 0 .81-.63 2-2 2z" class="I"/><path d="M12 16h40v2H12z" class="G"/><path d="M52,18v17c0,1.65-1.35,3-3,3H15c-1.65,0-3-1.35-3-3V18H52Z" fill="#d9d9d9"/><path d="M34 0h15c.55 0 1 .45 1 1v3H34V0h0z" class="H"/><path d="M14,4H50v31c0,.55-.45,1-1,1H15c-.55,0-1-.45-1-1V4h0Z" class="I"/><path d="M14 4h4v7h-4z" class="G"/><path d="M18 4h4v7h-4z" class="H"/><path d="M22 4h4v7h-4z" class="G"/><path d="M26 4h4v7h-4z" class="H"/><path d="M30 4h4v7h-4z" class="G"/><path d="M34 4h4v7h-4z" class="H"/><path d="M38 4h4v7h-4z" class="G"/><path d="M42 4h4v7h-4z" class="H"/><path d="M46 4h4v7h-4z" class="G"/><path d="M23 0h13c1.1 0 2 .9 2 2v2H23V0h0z" class="H"/><path d="M15 0h9c1.1 0 2 .9 2 2v2H14V1c0-.55.45-1 1-1z" class="I"/><g class="G"><use xlink:href="#B"/><use xlink:href="#B" x="4"/><use xlink:href="#B" x="8"/><use xlink:href="#B" x="12"/><use xlink:href="#B" x="16"/><use xlink:href="#B" x="20"/><use xlink:href="#B" x="24"/><use xlink:href="#B" x="28"/></g><circle cx="32" cy="36" r="11" fill="#d38e2a"/><use xlink:href="#B" x="32" class="G"/><circle cx="32" cy="36" r="9" fill="#d38e2a"/><path d="M33 40c0-1.32-2-1.32-2 0s2 1.32 2 0zm3.96-4.95a7.01 7.01 0 0 0-9.91 0c-.94.93-2.35-.49-1.41-1.42 3.53-3.51 9.19-3.51 12.73 0 .94.93-.48 2.34-1.41 1.42zm-2.83 2.83c-1.15-1.14-3.1-1.14-4.26 0-.94.93-2.35-.5-1.4-1.42a5 5 0 0 1 7.06 0c.94.93-.47 2.34-1.4 1.42z" fill="#fdfdfd"/><defs ><path id="B" d="M16,14c-.81,0-2-.63-2-2v-1h4v1c0,1.1-.9,2-2,2Z"/></defs></svg>