<?xml version="1.0" encoding="UTF-8"?><svg id="a" xmlns="http://www.w3.org/2000/svg" viewBox="0 0 40 64"><defs><style>.h{fill:#fff;}.i{fill:#5e9fdf;}.j{fill:#d38e2a;}.k{fill:#d9d9d9;}.l{fill:#1976d2;}</style></defs><path class="i" d="M40,6V58c0,3.31-2.69,6-6,6H6c-3.31,0-6-2.69-6-6V6C0,2.69,2.69,0,6,0l29.2,.12c2.71,.55,4.8,2.96,4.8,5.88Z"/><rect class="h" x="2" y="2" width="36" height="58" rx="4" ry="4"/><path class="i" d="M6,2h2V13H2V6c0-2.21,1.79-4,4-4Z"/><path class="l" d="M8,2h6V13h-6V2Z"/><path class="i" d="M14,2h6V13h-6V2Z"/><path class="l" d="M20,2h6V13h-6V2Z"/><path class="i" d="M26,2h6V13h-6V2Z"/><g><path class="l" d="M32,2h2c2.21,0,4,1.79,4,4v7h-6V2h0Z"/><path id="b" class="l" d="M5,17c-1.66,0-3-1.34-3-3v-1h6v1c0,1.66-1.34,3-3,3Z"/><path id="c" class="l" d="M11,17c-1.66,0-3-1.34-3-3v-1h6v1c0,1.66-1.34,3-3,3Z"/><path id="d" class="l" d="M17,17c-1.66,0-3-1.34-3-3v-1h6v1c0,1.66-1.34,3-3,3Z"/><path id="e" class="l" d="M23,17c-1.66,0-3-1.34-3-3v-1h6v1c0,1.66-1.34,3-3,3Z"/><path id="f" class="l" d="M29,17c-1.66,0-3-1.34-3-3v-1h6v1c0,1.66-1.34,3-3,3Z"/><path id="g" class="l" d="M35,17c-1.66,0-3-1.34-3-3v-1h6v1c0,1.66-1.34,3-3,3Z"/></g><path class="k" d="M31,58H9c-1.34,0-1.29-2,0-2H31c1.34,0,1.29,2,0,2Z"/><circle class="j" cx="20" cy="42" r="3"/><path class="j" d="M15.76,38.76c-.25,0-.51-.1-.7-.29-.39-.39-.4-1.02,0-1.42,1.31-1.33,3.06-2.06,4.94-2.06h0c1.88,0,3.64,.73,4.95,2.06,.39,.39,.39,1.03,0,1.41-.39,.39-1.03,.39-1.41,0-.94-.95-2.19-1.47-3.53-1.47h0c-1.34,0-2.59,.52-3.52,1.46-.2,.2-.45,.3-.71,.3Zm11.31-2.83c-.26,0-.51-.1-.71-.29-3.51-3.51-9.22-3.51-12.73,0-.39,.39-1.02,.39-1.41,0-.39-.39-.39-1.02,0-1.41,4.29-4.29,11.27-4.29,15.55,0,.39,.39,.39,1.02,0,1.41-.2,.2-.45,.29-.71,.29Zm2.83-2.83c-.25,0-.51-.1-.71-.29-5.08-5.05-13.32-5.05-18.39,0-.39,.39-1.02,.39-1.41,0-.39-.39-.39-1.02,0-1.41,5.84-5.82,15.36-5.82,21.21,0,.39,.39,.39,1.02,0,1.41-.2,.2-.45,.29-.71,.3Z"/></svg>