<?xml version="1.0" encoding="UTF-8"?><svg id="a" xmlns="http://www.w3.org/2000/svg" viewBox="0 0 64 64"><defs><style>.b{fill:#5e9fdf;}.c{fill:#c8c8c8;}.d{fill:#d38e2a;}.e{fill:#f3f3f3;}.f{fill:#1976d2;}</style></defs><g><path class="f" d="M47,3V24c0,1.66-1.34,3-3,3h-10v5l-6-5H14c-1.66,0-3-1.34-3-3V3c0-1.66,1.34-3,3-3h30c1.66,0,3,1.34,3,3Z"/><path class="f" d="M47,4V24c0,1.66-1.34,3-3,3h-7.54c1.17-3.68,4.34-6.37,8.17-6.9-2.08-2.2-1.63-4.13-1.63-10.1-1.1,0-2-.9-2-2V2c2.05,1.39,3.55,2,6,2Z"/></g><path class="b" d="M48,20h6c5.52,0,10,4.48,10,10v2h-26v-2c0-5.52,4.48-10,10-10Z"/><path class="f" d="M45,32h-2v-3c0-1.32,2-1.32,2,0v3Zm14,0h-2v-3c0-1.32,2-1.32,2,0v3Z"/><path class="e" d="M51,22c-3.31,0-6-2.69-6-6v-6h12v6c0,3.31-2.69,6-6,6Z"/><path class="d" d="M57,9v1h-12c-1.1,0-2-.9-2-2V2c1.79,1.19,3.36,2,5.82,2h3.18c2.76,0,5,2.24,5,5Z"/><path class="b" d="M26,64H0v-2c0-5.52,4.48-10,10-10h6c5.52,0,10,4.48,10,10v2h0Z"/><path class="f" d="M19,64h2v-3c0-1.32-2-1.32-2,0v3Zm-14,0h2v-3c0-1.32-2-1.32-2,0v3Z"/><path class="e" d="M13,54c3.31,0,6-2.69,6-6v-6H7v6c0,3.31,2.69,6,6,6Z"/><path class="d" d="M7,41v1h12c1.1,0,2-.9,2-2v-6c-1.79,1.19-3.36,2-5.82,2h-3.18c-2.76,0-5,2.24-5,5Z"/><g><circle class="b" cx="39" cy="13" r="3"/><circle class="b" cx="29" cy="13" r="3"/></g><circle class="e" cx="19" cy="13" r="3"/><path class="c" d="M54.71,41.29l-3.33-3.22c-.37-.16-.81-.07-1.09,.22l-3,3c-.94,.94,.48,2.35,1.41,1.41l1.29-1.29v2.59c0,7.17-5.83,13-13,13h-4c-1.32,0-1.32,2,0,2h4c8.27,0,15-6.73,15-15v-2.59c1.23,1.23,1.44,1.59,2,1.59,.88,0,1.34-1.07,.71-1.71h.01Z"/><path class="c" d="M15,51.47c-.15,0-.3-.03-.45-.11-.97-.49-2.13-.49-3.11,0-.5,.25-1.09,.05-1.34-.45s-.05-1.09,.45-1.34c1.53-.77,3.36-.77,4.89,0,.49,.25,.69,.85,.45,1.34-.18,.35-.53,.55-.9,.55ZM51,19.47c-.84,0-1.68-.19-2.45-.58-.49-.25-.69-.85-.45-1.34,.25-.49,.85-.7,1.34-.45,.97,.49,2.13,.49,3.11,0,.49-.25,1.09-.05,1.34,.45,.25,.49,.05,1.09-.45,1.34-.77,.38-1.61,.58-2.45,.58Z"/></svg>