<svg xmlns="http://www.w3.org/2000/svg" viewBox="0 0 64 64" xmlns:v="https://vecta.io/nano"><path d="M4 20h8v36H4a4 4 0 0 1-4-4V24a4 4 0 0 1 4-4z" fill="#d38e2a"/><path d="M52 20h8a4 4 0 0 1 4 4v28a4 4 0 0 1-4 4h-8V20h0z" fill="#5e9fdf"/><path d="M12 20h40v36H12z" fill="#1976d2"/><path d="M14 22h36v32H14z" fill="#f3f3f3"/><g fill="#fdfdfd"><path d="M9 26H7v-2c0-1.32-2-1.32-2 0v2H3c-1.32 0-1.32 2 0 2h2v2c0 1.32 2 1.32 2 0v-2h2c1.32 0 1.32-2 0-2zm52 20h-2v-2c0-1.32-2-1.32-2 0v2h-2c-1.32 0-1.32 2 0 2h2v2c0 1.32 2 1.32 2 0v-2h2c1.32 0 1.32-2 0-2z"/><circle cx="7" cy="41" r="2"/><circle cx="5" cy="48" r="2"/><circle cx="59" cy="25" r="2"/><circle cx="57" cy="32" r="2"/></g><path d="M38.94 20a8.43 8.43 0 0 1-.46 2H21.52a8.43 8.43 0 0 1-.46-2h17.88z" fill="#1976d2"/><path d="M38.48,22c-2.8,7.98-14.15,7.99-16.96,0h16.96Z" fill="#d9d9d9"/><circle cx="32" cy="17" r="9" fill="#d38e2a"/><path d="M34.13 18.88c-1.15-1.14-3.1-1.14-4.26 0-.94.93-2.35-.5-1.4-1.42a5 5 0 0 1 7.06 0c.94.93-.47 2.34-1.4 1.42zm3.53-2.54c-.63 0-.66-.38-1.57-1.02-2.72-1.95-6.62-1.7-9.04.73-.94.94-2.35-.48-1.41-1.41 3.53-3.53 9.24-3.49 12.73 0a1.01 1.01 0 0 1-.71 1.71zM33 21c0-1.32-2-1.32-2 0s2 1.32 2 0z" fill="#fdfdfd"/></svg>