<svg xmlns="http://www.w3.org/2000/svg" viewBox="0 0 64 64" xmlns:v="https://vecta.io/nano"><path d="M4 6h56a4 4 0 0 1 4 4v40H0V10a4 4 0 0 1 4-4z" fill="#5e9fdf"/><path d="M57,14H7c-1.34,0-1.29-2,0-2H57c1.34,0,1.29,2,0,2Z" fill="#f3f3f3"/><circle cx="15" cy="13" r="3" fill="#d38e2a"/><path d="M57,24H7c-1.34,0-1.29-2,0-2H57c1.34,0,1.29,2,0,2Z" fill="#f3f3f3"/><circle cx="50" cy="23" r="3" fill="#d38e2a"/><path d="M57,34H7c-1.34,0-1.29-2,0-2H57c1.34,0,1.29,2,0,2Z" fill="#f3f3f3"/><circle cx="31" cy="33" r="3" fill="#d38e2a"/><path d="M57,44H7c-1.34,0-1.29-2,0-2H57c1.34,0,1.29,2,0,2Z" fill="#f3f3f3"/><circle cx="21" cy="43" r="3" fill="#d38e2a"/><path d="M0 50h64v6a4 4 0 0 1-4 4H4a4 4 0 0 1-4-4v-6h0z" fill="#1976d2"/><g fill="#5e9fdf"><circle cx="54" cy="55" r="2"/><circle cx="48" cy="55" r="2"/></g><g fill="#f3f3f3"><circle cx="42" cy="55" r="2"/><path d="M23 57H9c-1.1 0-2-.9-2-2 0-.81.63-2 2-2h14c1.1 0 2 .9 2 2 0 .81-.63 2-2 2z"/></g></svg>