<svg xmlns="http://www.w3.org/2000/svg" viewBox="0 0 64 64" xmlns:v="https://vecta.io/nano"><path d="M30 0v64c-4.28 0-7.39-3.79-6.97-7.54A8.95 8.95 0 0 1 18 58c-7.4 0-11.53-8.39-7.31-14.24C5.72 42.7 2 38.29 2 33s3.84-9.84 8.93-10.8C7.89 15.76 12.58 8 20 8c2.21 0 2 .46 2 0a8 8 0 0 1 8-8z" fill="#1976d2"/><path d="M36 0c-3.34 0-4.18 4.68-1 5.82V10c0 1.32 2 1.32 2 0V5.82C40.18 4.68 39.33 0 36 0zm0 4c-1.32 0-1.32-2 0-2s1.32 2 0 2zm10-4c-3.34 0-4.18 4.68-1 5.82V10c0 1.32 2 1.32 2 0V5.82C50.18 4.68 49.33 0 46 0zm0 4c-1.32 0-1.32-2 0-2s1.32 2 0 2zm-9 54.18V54c0-1.32-2-1.32-2 0v4.18C31.82 59.32 32.67 64 36 64s4.18-4.68 1-5.82zM36 62c-1.32 0-1.32-2 0-2s1.32 2 0 2zm11-3.82V54c0-1.32-2-1.32-2 0v4.18C41.82 59.32 42.67 64 46 64s4.18-4.68 1-5.82zM46 62c-1.32 0-1.32-2 0-2s1.32 2 0 2zm6-44h4.18c1.13 3.18 5.82 2.34 5.82-1s-4.68-4.18-5.82-1H52c-1.32 0-1.32 2 0 2zm7-2c1.32 0 1.32 2 0 2s-1.32-2 0-2zm-2.82 10H52c-1.32 0-1.32 2 0 2h4.18c1.13 3.18 5.82 2.34 5.82-1s-4.68-4.18-5.82-1zM59 28c-1.32 0-1.32-2 0-2s1.32 2 0 2zm-2.82 8H52c-1.32 0-1.32 2 0 2h4.18c1.13 3.18 5.82 2.34 5.82-1s-4.68-4.18-5.82-1zM59 38c-1.32 0-1.32-2 0-2s1.32 2 0 2zm-2.82 8H52c-1.32 0-1.32 2 0 2h4.18c1.13 3.18 5.82 2.34 5.82-1s-4.68-4.18-5.82-1zM59 48c-1.32 0-1.32-2 0-2s1.32 2 0 2z" fill="#d9d9d9"/><path d="M30 10h18a4 4 0 0 1 4 4v36a4 4 0 0 1-4 4H30V10h0z" fill="#d38e2a"/><path d="M30 17h15c.55 0 1 .45 1 1v28c0 .55-.45 1-1 1H30V17h0z" fill="#f3f3f3"/><path d="M24.82 15C23.67 11.81 19 12.67 19 16s4.67 4.18 5.82 1H30v-2h-5.18zM22 17c-1.32 0-1.32-2 0-2s1.32 2 0 2zm4 9a3.01 3.01 0 0 0-3 3v3c0 .55-.45 1-1 1h-4.18C16.67 29.81 12 30.67 12 34s4.67 4.18 5.82 1H22a3.01 3.01 0 0 0 3-3v-3c0-.55.45-1 1-1h4v-2h-4zm-11 9c-1.32 0-1.32-2 0-2s1.32 2 0 2zm10 15c-.55 0-1-.45-1-1v-2.18c3.19-1.15 2.33-5.82-1-5.82s-4.18 4.67-1 5.82V49a3.01 3.01 0 0 0 3 3h5v-2h-5zm-2-5c-1.32 0-1.32-2 0-2s1.32 2 0 2z" fill="#1976d2"/></svg>