<svg xmlns="http://www.w3.org/2000/svg" xmlns:xlink="http://www.w3.org/1999/xlink" viewBox="0 0 64 64" xmlns:v="https://vecta.io/nano"><g fill="#d38e2a"><path d="M59 45h-4.17a2.97 2.97 0 0 1-2.12-.88L49.59 41H43c-.55 0-1-.45-1-1s.45-1 1-1h7c.27 0 .52.11.71.29l3.41 3.41a.99.99 0 0 0 .71.29H59c.55 0 1 .45 1 1s-.45 1-1 1z"/><path d="M64 44a3.01 3.01 0 0 1-3 3 3.01 3.01 0 0 1-3-3 3.01 3.01 0 0 1 3-3 3.01 3.01 0 0 1 3 3zm-2 0c0-.55-.45-1-1-1s-1 .45-1 1 .45 1 1 1 1-.45 1-1zM50 25h-7c-.55 0-1-.45-1-1s.45-1 1-1h6.65l4.18-3.34c.53-.42 1.2-.66 1.87-.66H59c.55 0 1 .45 1 1s-.45 1-1 1h-3.3c-.23 0-.45.08-.62.22l-4.45 3.56a1.02 1.02 0 0 1-.62.22zm9 8H40c-.55 0-1-.45-1-1s.45-1 1-1h19c.55 0 1 .45 1 1s-.45 1-1 1z"/><path d="M61 23a3.01 3.01 0 0 1-3-3 3.01 3.01 0 0 1 3-3 3.01 3.01 0 0 1 3 3 3.01 3.01 0 0 1-3 3zm0-4c-.55 0-1 .45-1 1s.45 1 1 1 1-.45 1-1-.45-1-1-1zm0 16a3.01 3.01 0 0 1-3-3 3.01 3.01 0 0 1 3-3 3.01 3.01 0 0 1 3 3 3.01 3.01 0 0 1-3 3zm0-4c-.55 0-1 .45-1 1s.45 1 1 1 1-.45 1-1-.45-1-1-1zM9.17 45H5c-.55 0-1-.45-1-1s.45-1 1-1h4.17a1.05 1.05 0 0 0 .71-.29l3.41-3.41a.99.99 0 0 1 .71-.29h7c.55 0 1 .45 1 1s-.45 1-1 1h-6.59l-3.12 3.12a2.97 2.97 0 0 1-2.12.88z"/><path d="M3 41a3.01 3.01 0 0 1 3 3 3.01 3.01 0 0 1-3 3 3.01 3.01 0 0 1-3-3 3.01 3.01 0 0 1 3-3zm0 4c.55 0 1-.45 1-1s-.45-1-1-1-1 .45-1 1 .45 1 1 1zm18-20h-7c-.23 0-.45-.08-.62-.22l-4.45-3.56a1.02 1.02 0 0 0-.62-.22h-3.3c-.55 0-1-.45-1-1s.45-1 1-1h3.3c.68 0 1.34.23 1.87.66L14.36 23h6.65c.55 0 1 .45 1 1s-.45 1-1 1zm3 8H5c-.55 0-1-.45-1-1s.45-1 1-1h19c.55 0 1 .45 1 1s-.45 1-1 1z"/><path d="M0 20a3.01 3.01 0 0 1 3-3 3.01 3.01 0 0 1 3 3 3.01 3.01 0 0 1-3 3 3.01 3.01 0 0 1-3-3zm2 0c0 .55.45 1 1 1s1-.45 1-1-.45-1-1-1-1 .45-1 1zM0 32a3.01 3.01 0 0 1 3-3 3.01 3.01 0 0 1 3 3 3.01 3.01 0 0 1-3 3 3.01 3.01 0 0 1-3-3zm2 0c0 .55.45 1 1 1s1-.45 1-1-.45-1-1-1-1 .45-1 1zm22-10c-.55 0-1-.45-1-1v-6.59l-3.12-3.12A2.97 2.97 0 0 1 19 9.17V5c0-.55.45-1 1-1s1 .45 1 1v4.17a.99.99 0 0 0 .29.71l3.41 3.41a.99.99 0 0 1 .29.71v7c0 .55-.45 1-1 1z"/><path d="M23 3a3.01 3.01 0 0 1-3 3 3.01 3.01 0 0 1-3-3 3.01 3.01 0 0 1 3-3 3.01 3.01 0 0 1 3 3zm-4 0c0 .55.45 1 1 1s1-.45 1-1-.45-1-1-1-1 .45-1 1zm21 19c-.55 0-1-.45-1-1v-7c0-.23.08-.45.22-.62l3.56-4.45a1.02 1.02 0 0 0 .22-.62v-3.3c0-.55.45-1 1-1s1 .45 1 1v3.3a2.99 2.99 0 0 1-.66 1.88L41 14.37v6.65c0 .55-.45 1-1 1zm-8 3c-.55 0-1-.45-1-1V5c0-.55.45-1 1-1s1 .45 1 1v19c0 .55-.45 1-1 1z"/><path d="M44 0a3.01 3.01 0 0 1 3 3 3.01 3.01 0 0 1-3 3 3.01 3.01 0 0 1-3-3 3.01 3.01 0 0 1 3-3zm0 2c-.55 0-1 .45-1 1s.45 1 1 1 1-.45 1-1-.45-1-1-1zM32 0a3.01 3.01 0 0 1 3 3 3.01 3.01 0 0 1-3 3 3.01 3.01 0 0 1-3-3 3.01 3.01 0 0 1 3-3zm0 2c-.55 0-1 .45-1 1s.45 1 1 1 1-.45 1-1-.45-1-1-1zm12 58c-.55 0-1-.45-1-1v-4.17a.99.99 0 0 0-.29-.71l-3.41-3.41a.99.99 0 0 1-.29-.71v-7c0-.55.45-1 1-1s1 .45 1 1v6.59l3.12 3.12a2.97 2.97 0 0 1 .88 2.12V59c0 .55-.45 1-1 1z"/><path d="M41 61a3.01 3.01 0 0 1 3-3 3.01 3.01 0 0 1 3 3 3.01 3.01 0 0 1-3 3 3.01 3.01 0 0 1-3-3zm4 0c0-.55-.45-1-1-1s-1 .45-1 1 .45 1 1 1 1-.45 1-1zm-25-1c-.55 0-1-.45-1-1v-3.3a2.99 2.99 0 0 1 .66-1.88L23 49.64v-6.65c0-.55.45-1 1-1s1 .45 1 1v7c0 .23-.08.45-.22.62l-3.56 4.45a1.02 1.02 0 0 0-.22.62v3.3c0 .55-.45 1-1 1zm12 0c-.55 0-1-.45-1-1V40c0-.55.45-1 1-1s1 .45 1 1v19c0 .55-.45 1-1 1z"/><use xlink:href="#B"/><use xlink:href="#B" x="12"/></g><rect x="14" y="14" width="36" height="36" rx="4" fill="#1976d2"/><g fill="#5e9fdf"><path d="M18 18h28v28H18z"/><circle cx="32" cy="32" r="11"/><path d="M32 45a.99.99 0 0 1-.57-.18C27.52 42.11 25 37.08 25 32s2.52-10.11 6.43-12.82c.34-.24.8-.24 1.14 0C36.48 21.89 39 26.92 39 32s-2.52 10.11-6.43 12.82A.99.99 0 0 1 32 45zm0-23.75c-3.06 2.43-5 6.57-5 10.75s1.94 8.33 5 10.75c3.06-2.43 5-6.57 5-10.75s-1.94-8.33-5-10.75z"/><path d="M45 39H19c-.55 0-1-.45-1-1V26c0-.55.45-1 1-1h26c.55 0 1 .45 1 1v12c0 .55-.45 1-1 1zm-25-2h24V27H20v10z"/><path d="M45,33H20c-.55,0-1-.45-1-1s.45-1,1-1h25c.55,0,1,.45,1,1s-.45,1-1,1Z"/></g><defs ><path id="B" d="M20,64c-1.65,0-3-1.35-3-3s1.35-3,3-3,3,1.35,3,3-1.35,3-3,3Zm0-2c.55,0,1-.45,1-1s-.45-1-1-1-1,.45-1,1,.45,1,1,1Z"/></defs></svg>