<svg xmlns="http://www.w3.org/2000/svg" viewBox="0 0 64 64" xmlns:v="https://vecta.io/nano"><path d="M64 19.05v25.9c0 1.68-1.37 3.05-3.05 3.05-14.41 0-13.95.05-13.95-.05v-.79c0-1.02-.69-1.99-1.7-2.14A2.01 2.01 0 0 0 43 47v1H3.05C1.37 48 0 46.63 0 44.95v-25.9C0 17.37 1.37 16 3.05 16l39.95.05v.79c0 1.02.69 1.99 1.7 2.14A2.01 2.01 0 0 0 47 17v-1h13.95c1.68 0 3.05 1.37 3.05 3.05z" fill="#1976d2"/><path d="M62 19v26c0 .55-.45 1-1 1H48.87c-1.01-3.98-6.73-3.99-7.74 0H3c-.55 0-1-.45-1-1V19c0-.55.45-1 1-1h38.13c1.01 3.98 6.73 3.99 7.74 0H61c.55 0 1 .45 1 1z" fill="#f3f3f3"/><path d="M44 26v-2c0-1.34 2-1.29 2 0v2c0 1.34-2 1.29-2 0zm0 7v-2c0-1.34 2-1.29 2 0v2c0 1.34-2 1.29-2 0zm0 7v-2c0-1.34 2-1.29 2 0v2c0 1.34-2 1.29-2 0z" fill="#1976d2"/><g fill="#d38e2a"><path d="M9 33H6c-1.32 0-1.32-2 0-2h3c1.1 0 2-.9 2-2s-.9-2-2-2H6c-.55 0-1-.45-1-1v-3c0-1.1.9-2 2-2h5c1.32 0 1.32 2 0 2H7v2h2a4 4 0 1 1 0 8zm10 0a4 4 0 0 1-4-4v-4a4 4 0 1 1 8 0v4a4 4 0 0 1-4 4zm0-10c-1.1 0-2 .9-2 2v4c0 1.1.9 2 2 2s2-.9 2-2v-4c0-1.1-.9-2-2-2zm8 2c-1.1 0-2-.9-2-2s.9-2 2-2 2 .9 2 2-.9 2-2 2zm0-2h0zm7 10c-1.1 0-2-.9-2-2s.9-2 2-2 2 .9 2 2-.9 2-2 2zm0-2h0z"/><path d="M26 33c-.82 0-1.31-.96-.78-1.62l8-10c.83-1.03 2.39.22 1.56 1.25-8.63 10.79-8.1 10.38-8.78 10.38zm-9 9v-5c0-1.1.9-2 2-2h1c1.32 0 1.32 2 0 2h-1v5c0 1.32-2 1.32-2 0z"/><path d="M20 40h-2c-1.32 0-1.32-2 0-2h2c1.32 0 1.32 2 0 2zm-8 2v-5c0-1.1.9-2 2-2h1c1.32 0 1.32 2 0 2h-1v5c0 1.32-2 1.32-2 0z"/><path d="M15 40h-2c-1.32 0-1.32-2 0-2h2c1.32 0 1.32 2 0 2zm-7 3a3.01 3.01 0 0 1-3-3v-2a3.01 3.01 0 0 1 3-3 3.01 3.01 0 0 1 3 3v2a3.01 3.01 0 0 1-3 3zm-1-5v2c0 1.32 2 1.32 2 0v-2c0-1.32-2-1.32-2 0z"/></g><path d="M25 37h10v2H25zm0 4h12v2H25zm28-20h2v22h-2zm4 2h2v18h-2zm-8 0h2v18h-2z" fill="#d9d9d9"/></svg>