<svg xmlns="http://www.w3.org/2000/svg" viewBox="0 0 64 64" xmlns:v="https://vecta.io/nano"><path d="M56 43v-6c0-1.1-.9-2-2-2h-1.17c-.85 0-1.61-.54-1.88-1.34a20.09 20.09 0 0 0-1.06-2.57 1.98 1.98 0 0 1 .38-2.28l.83-.83c.78-.78.78-2.05 0-2.83l-4.24-4.24c-.78-.78-2.05-.78-2.83 0l-.83.83a1.98 1.98 0 0 1-2.28.38 19.84 19.84 0 0 0-2.57-1.06 1.97 1.97 0 0 1-1.34-1.88v-1.17c0-1.1-.9-2-2-2h-6c-1.1 0-2 .9-2 2v1.17c0 .85-.54 1.61-1.34 1.88a20.09 20.09 0 0 0-2.57 1.06 1.98 1.98 0 0 1-2.28-.38l-.83-.83c-.78-.78-2.05-.78-2.83 0l-4.24 4.24c-.78.78-.78 2.05 0 2.83l.83.83a1.98 1.98 0 0 1 .38 2.28 19.84 19.84 0 0 0-1.06 2.57A1.97 1.97 0 0 1 11.19 35h-1.17c-1.1 0-2 .9-2 2v6c0 1.1.9 2 2 2h1.17c.85 0 1.61.54 1.88 1.34a20.09 20.09 0 0 0 1.06 2.57 1.98 1.98 0 0 1-.38 2.28l-.83.83c-.78.78-.78 2.05 0 2.83l4.24 4.24c.78.78 2.05.78 2.83 0l.83-.83a1.98 1.98 0 0 1 2.28-.38 19.84 19.84 0 0 0 2.57 1.06 1.97 1.97 0 0 1 1.34 1.88v1.17c0 1.1.9 2 2 2h6c1.1 0 2-.9 2-2v-1.17c0-.85.54-1.61 1.34-1.88a20.09 20.09 0 0 0 2.57-1.06 1.98 1.98 0 0 1 2.28.38l.83.83c.78.78 2.05.78 2.83 0l4.24-4.24c.78-.78.78-2.05 0-2.83l-.83-.83a1.98 1.98 0 0 1-.38-2.28 19.84 19.84 0 0 0 1.06-2.57A1.97 1.97 0 0 1 52.83 45H54c1.1 0 2-.9 2-2z" fill="#5e9fdf"/><circle cx="32" cy="40" r="12" fill="#fff"/><path d="M47.98 15.26c.23 4.99-1.84 9.51-5.23 12.59-2.76 2.51-4.77 5.73-5.58 9.37l-.17.79H27l-.17-.78c-.82-3.67-2.87-6.89-5.64-9.43-3.19-2.92-5.18-7.12-5.18-11.79A15.99 15.99 0 0 1 32.77.02C40.93.4 47.62 7.1 47.99 15.26z" fill="#d38e2a"/><path d="M31.05 38.32l-6-18c-.22-.65.27-1.32.95-1.32h12c.68 0 1.16.67.95 1.32l-6 18c-.3.91-1.59.91-1.9 0zM27.39 21L32 34.84 36.61 21h-9.23z" fill="#e4c290"/><path d="M32 48c-3.31 0-6-2.69-6-6v-3c0-.55.45-1 1-1h10c.55 0 1 .45 1 1v3c0 3.31-2.69 6-6 6z" fill="#d9d9d9"/><path d="M26 45c-.48 0-.9-.35-.99-.84-.09-.54.28-1.06.82-1.15l12-2c.55-.1 1.06.28 1.15.82s-.28 1.06-.82 1.15l-12.17 2.01z" fill="#c8c8c8"/></svg>