<svg xmlns="http://www.w3.org/2000/svg" viewBox="0 0 64 64" xmlns:v="https://vecta.io/nano"><path d="M52 6v52c0 3.31-2.69 6-6 6H18c-3.31 0-6-2.69-6-6V6c0-3.31 2.69-6 6-6 30.32 0 28.68-.17 30.14.4C50.4 1.24 52 3.49 52 6z" fill="#1976d2"/><path d="M50 6v50a4 4 0 0 1-4 4H18a4 4 0 0 1-4-4V6a4 4 0 0 1 4-4h5.28c.43 0 .81.28.95.68.27.83.56 2.32 2.21 2.32h11.12a2.01 2.01 0 0 0 1.9-1.37l.31-.95c.14-.4.52-.68.95-.68l5.77.04C48.33 2.21 50 3.87 50 6z" fill="#fff"/><path d="M43,58H21c-1.34,0-1.29-2,0-2h22c1.34,0,1.29,2,0,2Z" fill="#d9d9d9"/><path d="M50 6v30H14V6a4 4 0 0 1 4-4h5.28c.43 0 .81.28.95.68.27.83.56 2.32 2.21 2.32h11.12a2.01 2.01 0 0 0 1.9-1.37l.31-.95c.14-.4.52-.68.95-.68l5.77.04C48.33 2.21 50 3.87 50 6z" fill="#f3f3f3"/><path d="M23 28v14h18V28l-9-9-9 9z" fill="#1976d2"/><g fill="#d38e2a"><path d="M45 29l-2 2-11-10-11 10-2-2 13-12 13 12z"/><path d="M41 18v8h-3.5l-.5-.45V18h4z"/></g><path d="M36 42h-8v-6a4 4 0 1 1 8 0v6zm-19 2h30v2H17zM42 5h5v2h-5zM17 5h5v2h-5z" fill="#5e9fdf"/><path d="M17 11h14v2H17zm0 4h8v2h-8z" fill="#d9d9d9"/><path d="M31 53c-.88 0-1.34-1.07-.71-1.71l.29-.29-.29-.29c-.94-.94.48-2.35 1.41-1.41l1 1c.39.39.39 1.02 0 1.41-1.06 1.06-1.19 1.29-1.71 1.29z" fill="#5e9fdf"/></svg>