<svg xmlns="http://www.w3.org/2000/svg" xmlns:xlink="http://www.w3.org/1999/xlink" viewBox="0 0 64 64" xmlns:v="https://vecta.io/nano"><g fill="#1976d2"><path d="M32.5 45.5L14 64V51H0l19-19 13.5 13.5z"/><path d="M64 51H50v13L31.5 45.5 45 32l19 19z"/><path d="M47.48 39c.52-1.15.3-1 .52-1a4.01 4.01 0 0 0 2.28-.72L45 32 32 45 19 32l-5.28 5.28A4.01 4.01 0 0 0 16 38c.23 0-.02-.11.53.99-.1.1-1.26 1.11-1.26 2.91 0 2.18 1.38 3.04 4 5.66a4 4 0 0 0 5.67-.01c.11-.13-.09-.07 1.06.33 0 .14-.1 1.67 1.17 2.95L32 46l4.83 4.83c.11-.11 1.17-1.08 1.17-2.94 1.17-.45.92-.49 1.07-.34a4 4 0 0 0 5.66.01c2.61-2.61 4-3.53 4-5.66 0-.11.09-1.56-1.25-2.9z"/></g><path d="M48 28c-1.53 0-1.94-1.19-1.98-1.3-.31-.82-1.08-1.99.04-3.11.7-.7 1.04-1.95.08-2.91l-2.82-2.82c-.79-.79-2.05-.78-2.83 0-.46.46-.93.66-1.49.66s-.75-.18-1.7-.54c-.32-.12-1.3-.59-1.3-1.98 0-1.1-.9-2-2-2h-4c-.12 0-2 .09-2 2.12 0 1.58-1.44 1.88-2.17 2.22-.81.36-1.68.16-2.24-.4-.7-.7-1.95-1.04-2.91-.08l-2.82 2.82c-.79.79-.78 2.05 0 2.83 1.08 1.08.53 2.21.48 2.32-.34.73-.63 2.17-2.22 2.17-.96 0-2.12.64-2.12 2v4c0 1.1.9 2 2 2 1.53 0 1.94 1.19 1.98 1.3.31.82 1.08 1.99-.04 3.11-.7.7-1.04 1.95-.08 2.91l2.82 2.82c.79.79 2.05.78 2.83 0 1.08-1.08 2.21-.53 2.32-.48.73.34 2.17.63 2.17 2.22 0 .96.64 2.12 2 2.12h4c1.1 0 2-.9 2-2 0-1.53 1.19-1.94 1.3-1.98.82-.31 1.99-1.08 3.11.04.7.7 1.95 1.04 2.91.08l2.82-2.82c.79-.79.78-2.05 0-2.83-1.08-1.08-.53-2.21-.48-2.32.34-.73.63-2.17 2.22-2.17.96 0 2.12-.64 2.12-2v-4c0-1.1-.9-2-2-2zm-9 9.64c-3.58 4.48-10.41 4.48-14 0a8.96 8.96 0 0 1 0-11.28c3.58-4.48 10.41-4.48 14 0a8.96 8.96 0 0 1 0 11.28z" fill="#d38e2a"/><path d="M39 18.52v7.84c-3.58-4.48-10.41-4.48-14 0v-7.84c.58 0 .75-.18 1.7-.54.32-.12 1.3-.59 1.3-1.98 0-1.1.9-2 2-2h4c.12 0 2 .09 2 2.12 0 1.58 1.44 1.88 2.17 2.22.27.12.55.18.83.18z" fill="#e4c290"/><path d="M37 8v31.48a8.97 8.97 0 0 1-10 0V8h10z" fill="#5e9fdf"/><g fill="#1976d2"><path d="M37 8v31.48A8.94 8.94 0 0 1 32 41V8h5z"/><path d="M32 39v2a8.94 8.94 0 0 0 5-1.52v-2.6C35.7 38.24 33.91 39 32 39z"/><path d="M32 39v2a8.94 8.94 0 0 1-5-1.52v-2.6c1.3 1.36 3.09 2.12 5 2.12z"/></g><path d="M37 8l-5 4-5-4 5-8 5 8z" fill="#f3f3f3"/><path d="M33.88 3h-3.75L32 0l1.88 3z" fill="#1976d2"/><g fill="#d38e2a"><use xlink:href="#B"/><use xlink:href="#B" x="41" y="-12"/></g><defs ><path id="B" d="M6 19c1.88 1.25 3.24 3.22 3.71 5.54.91 4.55-.91-2.06 4.29-5.54-1.88-1.25-3.24-3.22-3.71-5.54-.88-4.42.85 2.11-4.29 5.54z"/></defs></svg>