<svg xmlns="http://www.w3.org/2000/svg" viewBox="0 0 64 64" xmlns:v="https://vecta.io/nano"><g fill="#5e9fdf"><rect y="4" width="52" height="38" rx="4"/><path d="M0 10h52v8H0z"/></g><rect x="7" y="13" width="52" height="38" rx="4" fill="#f3f3f3"/><g fill="#d38e2a"><rect x="11" y="17" width="14" height="10" rx="2"/><circle cx="17" cy="42" r="6"/></g><g fill="#5e9fdf"><path d="M31,42c0,.34-.03,.68-.09,1-.38,2.28-2.05,4.12-4.22,4.76-.54,.16-1.1,.24-1.69,.24s-1.15-.08-1.69-.24c-2.17-.64-3.84-2.48-4.22-4.76-.06-.32-.09-.66-.09-1s.03-.68,.09-1c.38-2.28,2.05-4.12,4.22-4.76,.54-.16,1.1-.24,1.69-.24s1.15,.08,1.69,.24c2.17,.64,3.84,2.48,4.22,4.76,.06,.32,.09,.66,.09,1Z"/><path d="M30.91,41h-1.97c-.23-2.09-1.17-3.58-2.25-4.76-.54-.16-1.1-.24-1.69-.24s-1.15,.08-1.69,.24c-1.08,1.18-2.02,2.67-2.25,4.76h-1.97c-.06,.32-.09,.66-.09,1s.03,.68,.09,1h1.97c.23,2.09,1.17,3.58,2.25,4.76,.54,.16,1.1,.24,1.69,.24s1.15-.08,1.69-.24c1.08-1.18,2.02-2.67,2.25-4.76h1.97c.06-.32,.09-.66,.09-1s-.03-.68-.09-1Zm-5.91,5.62c-1.01-1.02-1.71-2.12-1.92-3.62h3.84c-.21,1.5-.91,2.6-1.92,3.62Zm-1.92-5.62c.21-1.5,.91-2.6,1.92-3.62,1.01,1.02,1.71,2.12,1.92,3.62h-3.84Z"/></g><path d="M35 17h20v2H35zm0 5h12v2H35zm24 12.53V47a4 4 0 0 1-4 4H40.89a16.8 16.8 0 0 1-.89-5.4v-5.31c0-1.57.92-3 2.34-3.64l9.01-4.09A3.89 3.89 0 0 1 53 32.2a3.97 3.97 0 0 1 1.66.36L59 34.53z" fill="#d9d9d9"/><path d="M64 40.29v5.31c0 6.73-4.51 12.63-11 14.4h0c-6.49-1.77-11-7.67-11-14.4v-5.31c0-.78.46-1.5 1.17-1.82l9-4.09c.53-.24 1.13-.24 1.66 0l9 4.09c.71.32 1.17 1.04 1.17 1.82z" fill="#d38e2a"/><path d="M53 36l9 4v5.51c0 5.67-3.63 10.7-9 12.49h0c-5.37-1.79-9-6.82-9-12.49V40l9-4z" fill="#e4c290"/><path d="M52 50c-.26 0-.51-.1-.71-.29l-3-3c-.39-.39-.39-1.02 0-1.41s1.02-.39 1.41 0l2.29 2.29 4.29-4.29c.39-.39 1.02-.39 1.41 0s.39 1.02 0 1.41l-5 5a.98.98 0 0 1-.71.29z" fill="#f3f3f3"/></svg>