<svg xmlns="http://www.w3.org/2000/svg" xmlns:xlink="http://www.w3.org/1999/xlink" viewBox="0 0 64 64" xmlns:v="https://vecta.io/nano"><path d="M62,13V52H2V13c0-1.66,1.34-3,3-3H59c1.66,0,3,1.34,3,3Z" fill="#1976d2"/><path d="M1 52h62c.55 0 1 .45 1 1v2c0 1.66-1.34 3-3 3H3c-1.66 0-3-1.34-3-3v-2c0-.55.45-1 1-1z" fill="#5e9fdf"/><path d="M60 13v37H4V13c0-.55.45-1 1-1h54c.55 0 1 .45 1 1z" fill="#fff"/><path d="M39 54H25c-1.1 0-2-.9-2-2 0-.1-.84 0 18 0 0 .81-.63 2-2 2z" fill="#f3f3f3"/><g fill="#5e9fdf"><path d="M60 13v3H4v-3c0-.55.45-1 1-1h54c.55 0 1 .45 1 1z"/><path d="M38,15v1H18v-4h17c1.66,0,3,1.34,3,3Z"/></g><path d="M22 15v2H4v-4c0-.55.45-1 1-1h14c1.66 0 3 1.34 3 3z" fill="#fff"/><path d="M45.1 12H18.9l1.29-2h23.62l1.29 2z" fill="#1976d2"/><path d="M55 29.36A6.65 6.65 0 0 1 48.36 36H15.64c-5.26 0-8.4-5.84-5.59-10.23L16.33 16h31.34C54.18 26.13 55 26.75 55 29.36z" fill="#f3f3f3"/><path d="M38 16v-1c0-1.66-1.34-3-3-3h10.1l2.57 4H38z" fill="#1976d2"/><path d="M38,15v1H22v-1c0-1.66-1.34-3-3-3h16c1.66,0,3,1.34,3,3Z" fill="#5e9fdf"/><path d="M22 15v1h-5.67l2.57-4c1.88 0 3.1 1.43 3.1 3z" fill="#f3f3f3"/><path d="M53 29.36c0 2.56-2.08 4.64-4.64 4.64H15.64c-3.69 0-5.87-4.09-3.9-7.15L27.38 2.52a5.5 5.5 0 0 1 9.24 0C53.5 28.78 53 27.46 53 29.36z" fill="#d38e2a"/><path d="M50 29.46h0A1.54 1.54 0 0 1 48.46 31H15.54c-1.23 0-1.96-1.37-1.29-2.38l16.2-24.78c.72-1.1 2.35-1.13 3.09 0l16.45 25.62z" fill="#fdfdfd"/><g fill="#d38e2a"><circle cx="32" cy="27" r="2"/><path d="M32 23c-.81 0-2-.63-2-2V11c0-1.1.9-2 2-2 .81 0 2 .63 2 2v10c0 1.1-.9 2-2 2zM17 46v-2h-3c-.55 0-1-.45-1-1v-3c0-1.32 2-1.32 2 0v2h2v-2c0-1.32 2-1.32 2 0v6c0 1.32-2 1.32-2 0zm16 0v-2h-3c-.55 0-1-.45-1-1v-3c0-1.32 2-1.32 2 0v2h2v-2c0-1.32 2-1.32 2 0v6c0 1.32-2 1.32-2 0zm-9 1a3.01 3.01 0 0 1-3-3v-2a3.01 3.01 0 0 1 3-3 3.01 3.01 0 0 1 3 3v2a3.01 3.01 0 0 1-3 3zm-1-5v2c0 1.32 2 1.32 2 0v-2c0-1.32-2-1.32-2 0z"/></g><path d="M37 39h14v2H37zm0 4h14v2H37z" fill="#d9d9d9"/><g fill="#d38e2a"><use xlink:href="#B"/><use xlink:href="#B" x="-48" y="15"/><path d="M9.41 20l.29-.29c.94-.94-.48-2.35-1.41-1.41l-.29.29-.29-.29c-.94-.94-2.35.48-1.41 1.41l.29.29-.29.29c-.94.94.48 2.35 1.41 1.41l.29-.29.29.29c.94.94 2.35-.48 1.41-1.41L9.41 20z"/></g><defs ><path id="B" d="M58.41 22l.29-.29c.94-.94-.48-2.35-1.41-1.41l-.29.29-.29-.29c-.94-.94-2.35.48-1.41 1.41l.29.29-.29.29c-.94.94.48 2.35 1.41 1.41l.29-.29.29.29c.94.94 2.35-.48 1.41-1.41l-.29-.29z"/></defs></svg>