<svg xmlns="http://www.w3.org/2000/svg" viewBox="0 0 64 64" xmlns:v="https://vecta.io/nano"><path d="M62,14V53H2V14c0-1.66,1.34-3,3-3H59c1.66,0,3,1.34,3,3Z" fill="#1976d2"/><path d="M64 54c0 2.06.04 2.26-.11 2.78C63.55 58.06 62.39 59 61 59H3c-1.66 0-3-1.34-3-3v-2c0-.55.45-1 1-1h62c.55 0 1 .45 1 1z" fill="#5e9fdf"/><path d="M60 14v37H4V14c0-.55.45-1 1-1h54c.55 0 1 .45 1 1z" fill="#fff"/><path d="M39 55H25c-1.1 0-2-.9-2-2 0-.1-.84 0 18 0 0 .81-.63 2-2 2z" fill="#f3f3f3"/><g fill="#5e9fdf"><path d="M5 13h54c.55 0 1 .45 1 1v3H4v-3c0-.55.45-1 1-1z"/><path d="M18,13h17c1.66,0,3,1.34,3,3v1H18v-4h0Z"/></g><path d="M22 16v2H4v-4c0-.55.45-1 1-1l14.17.01A2.99 2.99 0 0 1 22 16z" fill="#fff"/><path d="M7 20h23v18H7zm26 0h24v2H33zm0 4h24v2H33zm0 4h24v2H33zm0 4h24v2H33zm0 4h24v2H33zM7 40h23v2H7zm0 4h23v2H7z" fill="#f3f3f3"/><path d="M25.64 43.19L41.2 27.63c.78.78 2.05.78 2.83 0s.78-2.05 0-2.83-2.05-.78-2.83 0c.78-.78.78-2.05 0-2.83s-2.05-.78-2.83 0-.78 2.05 0 2.83L22.81 40.36c-.78-.78-2.05-.78-2.83 0s-.78 2.05 0 2.83 2.05.78 2.83 0c-.78.78-.78 2.05 0 2.83s2.05.78 2.83 0 .78-2.05 0-2.83z" fill="#d9d9d9"/><path d="M33 40h24v8H33z" fill="#f3f3f3"/><path d="M41.19 40.36L25.63 24.8c.78-.78.78-2.05 0-2.83s-2.05-.78-2.83 0-.78 2.05 0 2.83c-.78-.78-2.05-.78-2.83 0s-.78 2.05 0 2.83 2.05.78 2.83 0l15.56 15.56c-.78.78-.78 2.05 0 2.83s2.05.78 2.83 0 .78-2.05 0-2.83c.78.78 2.05.78 2.83 0s.78-2.05 0-2.83-2.05-.78-2.83 0z" fill="#d9d9d9"/><path d="M31.09 25.05c-6.76.75-9.61 9.27-4.41 13.91a3.95 3.95 0 0 1 1.33 2.97c0 .83.64 1.07 1 1.07h6c.55 0 1-.45 1-1 0-.11-.09-1.78 1.31-3.03 5.79-5.14 1.54-14.78-6.23-13.92z" fill="#d38e2a"/><path d="M31 33c0-1.1-.9-3-2-3s-2 1.9-2 3 .9 1 2 1 2 .1 2-1zm6 0c0-1.1-.9-3-2-3s-2 1.9-2 3 .9 1 2 1 2 .1 2-1zm-6 8h2v2h-2zm2-3c0-.55-.45-2-1-2s-1 1.45-1 2 .45 0 1 0 1 .55 1 0z" fill="#e4c290"/><path d="M19.16,13H5c-.55,0-1,.45-1,1v5H2v-5c0-1.66,1.34-3,3-3h13.02l1.14,2Z" fill="#1976d2"/><path d="M20 15.42c0 1.95-1.6 3.58-3.58 3.58H4v-5c0-.55.45-1 1-1l14.17.01c.45.79.83 1.34.83 2.41z" fill="#f3f3f3"/><path d="M7.54 1.8C-.44 15.78 0 14.82 0 15.42 0 15.66.21 17 1.58 17h14.84a1.58 1.58 0 0 0 1.37-2.36L10.46 1.8C9.82.69 8.13.78 7.55 1.8z" fill="#d38e2a"/><path d="M8 10V6c0-1.34 2-1.29 2 0v4c0 1.34-2 1.29-2 0zm2 4c0-1.32-2-1.32-2 0s2 1.32 2 0z" fill="#fff"/><path d="M61.73 53H48.27l1.14-2H60v-1.03L61.73 53z" fill="#1976d2"/><path d="M60 49.97V51H49.41l1.71-3H57v-2.44c1 .61 1.2 1.25 3 4.41z" fill="#f3f3f3"/><path d="M57 45.56V48h-5.88l.69-1.2c1.07-1.88 3.54-2.3 5.19-1.24z" fill="#d9d9d9"/><path d="M63.89 56.78C63.55 58.06 62.39 59 61 59H44.84l3.43-6h13.46l2.16 3.78z" fill="#1976d2"/><path d="M53.54 47.8C45.55 61.78 46 60.82 46 61.42c0 .24.21 1.58 1.58 1.58h14.84a1.58 1.58 0 0 0 1.37-2.36L56.45 47.8c-.64-1.11-2.33-1.02-2.91 0z" fill="#d38e2a"/><path d="M54 56v-4c0-1.34 2-1.29 2 0v4c0 1.34-2 1.29-2 0zm2 4c0-1.32-2-1.32-2 0s2 1.32 2 0z" fill="#fff"/></svg>