<?xml version="1.0" encoding="UTF-8"?><svg id="a" xmlns="http://www.w3.org/2000/svg" viewBox="0 0 64 64"><defs><style>.b{fill:#5e9fdf;}.c{fill:#e4c290;}.d{fill:#d38e2a;}.e{fill:#f3f3f3;}.f{fill:#d9d9d9;}.g{fill:#1976d2;}</style></defs><g><path class="b" d="M45,43h2v10h-2v-10Z"/><path class="b" d="M45,45v6H15c-1.1,0-2-.9-2-2V8c0-.55,.45-1,1-1h4c.55,0,1,.45,1,1V45h26Z"/><path class="b" d="M57,46v4c0,.55-.45,1-1,1h-11v-6h11c.55,0,1,.45,1,1Z"/></g><path class="d" d="M13,13v6h-5c-.55,0-1-.45-1-1v-4c0-.55,.45-1,1-1h5Z"/><path class="g" d="M43,45h10v6h-10v-6Z"/><path class="d" d="M51,15V56c0,.55-.45,1-1,1h-4c-.55,0-1-.45-1-1V19H19v-6h30c1.1,0,2,.9,2,2Z"/><path class="f" d="M7,0H2C1.19,0,0,.63,0,2V7c0,1.32,2,1.32,2,0V2H7c1.32,0,1.32-2,0-2Zm57,7V2c0-.81-.63-2-2-2h-5c-1.32,0-1.32,2,0,2h5V7c0,1.32,2,1.32,2,0ZM7,64H2c-.81,0-2-.63-2-2v-5c0-1.32,2-1.32,2,0v5H7c1.32,0,1.32,2,0,2ZM35,2h-6c-1.34,0-1.29-2,0-2h6c1.34,0,1.29,2,0,2Z"/><path class="e" d="M21,2h-6c-1.34,0-1.29-2,0-2h6c1.34,0,1.29,2,0,2Zm28,0h-6c-1.34,0-1.29-2,0-2h6c1.34,0,1.29,2,0,2Z"/><path class="f" d="M0,35v-6c0-1.34,2-1.29,2,0v6c0,1.34-2,1.29-2,0Z"/><path class="e" d="M0,21v-6c0-1.34,2-1.29,2,0v6c0,1.34-2,1.29-2,0Zm0,28v-6c0-1.34,2-1.29,2,0v6c0,1.34-2,1.29-2,0Z"/><path class="f" d="M21,44c-.26,0-.51-.1-.71-.29-.39-.39-.39-1.02,0-1.41l2-2c.39-.39,1.02-.39,1.41,0s.39,1.02,0,1.41l-2,2c-.2,.2-.45,.29-.71,.29Zm5-5c-.26,0-.51-.1-.71-.29-.39-.39-.39-1.02,0-1.41l2-2c.39-.39,1.02-.39,1.41,0s.39,1.02,0,1.41l-2,2c-.2,.2-.45,.29-.71,.29Zm5-5c-.26,0-.51-.1-.71-.29-.39-.39-.39-1.02,0-1.41l2-2c.39-.39,1.02-.39,1.41,0s.39,1.02,0,1.41l-2,2c-.2,.2-.45,.29-.71,.29Zm5-5c-.26,0-.51-.1-.71-.29-.39-.39-.39-1.02,0-1.41l2-2c.39-.39,1.02-.39,1.41,0s.39,1.02,0,1.41l-2,2c-.2,.2-.45,.29-.71,.29Zm5-5c-.26,0-.51-.1-.71-.29-.39-.39-.39-1.02,0-1.41l2-2c.39-.39,1.02-.39,1.41,0s.39,1.02,0,1.41l-2,2c-.2,.2-.45,.29-.71,.29Z"/><path class="c" d="M11,13h2v6h-2v-6Zm8,0h2v6h-2v-6Z"/></svg>