<svg xmlns="http://www.w3.org/2000/svg" viewBox="0 0 64 64" xmlns:v="https://vecta.io/nano"><path d="M35 18.11V15.9a1.89 1.89 0 0 0-1.89-1.89c-1.27 0-1.71-1.06-1.79-1.29a13.58 13.58 0 0 0-.86-2.08c-.7-1.36.55-2.39.35-2.19.74-.74.74-1.94 0-2.68L29.24 4.2c-.74-.74-1.94-.74-2.68 0-.95.95-2.08.4-2.19.35a13.58 13.58 0 0 0-2.08-.86C20.84 3.22 21 1.63 21 1.9A1.89 1.89 0 0 0 19.11.01H16.9a1.89 1.89 0 0 0-1.89 1.89c0 1.27-1.06 1.71-1.29 1.79a13.58 13.58 0 0 0-2.08.86c-1.36.7-2.39-.55-2.19-.35-.74-.74-1.94-.74-2.68 0L5.2 5.77c-.74.74-.74 1.94 0 2.68.95.95.4 2.08.35 2.19a13.58 13.58 0 0 0-.86 2.08c-.47 1.45-2.06 1.29-1.79 1.29a1.89 1.89 0 0 0-1.89 1.89v2.21A1.89 1.89 0 0 0 2.9 20c1.27 0 1.71 1.06 1.79 1.29a13.58 13.58 0 0 0 .86 2.08c.7 1.36-.55 2.39-.35 2.19-.74.74-.74 1.94 0 2.68l1.57 1.57c.74.74 1.94.74 2.68 0 .95-.95 2.08-.4 2.19-.35a13.58 13.58 0 0 0 2.08.86c1.45.47 1.29 2.06 1.29 1.79A1.89 1.89 0 0 0 16.9 34h2.21A1.89 1.89 0 0 0 21 32.11c0-1.27 1.06-1.71 1.29-1.79a13.58 13.58 0 0 0 2.08-.86c1.36-.7 2.39.55 2.19.35.74.74 1.94.74 2.68 0l1.57-1.57c.74-.74.74-1.94 0-2.68-.95-.95-.4-2.08-.35-2.19a13.58 13.58 0 0 0 .86-2.08c.47-1.45 2.06-1.29 1.79-1.29A1.89 1.89 0 0 0 35 18.11z" fill="#e4c290"/><path d="M27,17c0,7.24-8.1,11.44-14,7.48-2.41-1.61-4-4.36-4-7.48,0-4.97,4.03-9,9-9s9,3.98,9,9Z" fill="#d38e2a"/><path d="M27 17c0 7.24-8.1 11.44-14 7.48V14a4 4 0 0 1 4-4h6.64c2.05 1.64 3.36 4.17 3.36 7z" fill="#e4c290"/><path d="M59 22v40c0 1.1-.9 2-2 2H17c-1.1 0-2-.9-2-2V14c0-1.1.9-2 2-2h32l10 10z" fill="#f3f3f3"/><path d="M59 22h-8c-1.1 0-2-.9-2-2v-8l10 10zM15 40h44v20H15z" fill="#d9d9d9"/><path d="M13 42h48c1.1 0 2 .9 2 2v12c0 1.1-.9 2-2 2H11V44c0-1.1.9-2 2-2z" fill="#5e9fdf"/><path d="M11 58l4 4v-4h-4zm18-3h-2c-2.76 0-5-2.24-5-5s2.24-5 5-5h2c.55 0 1 .45 1 1s-.45 1-1 1h-2a3.01 3.01 0 0 0-3 3 3.01 3.01 0 0 0 3 3h2c.55 0 1 .45 1 1s-.45 1-1 1zm9 0h-4c-.55 0-1-.45-1-1s.45-1 1-1h4c.55 0 1-.45 1-1s-.45-1-1-1h-2a3.01 3.01 0 0 1-3-3 3.01 3.01 0 0 1 3-3h4c.55 0 1 .45 1 1s-.45 1-1 1h-4c-.55 0-1 .45-1 1s.45 1 1 1h2a3.01 3.01 0 0 1 3 3 3.01 3.01 0 0 1-3 3zm10 0h-3c-.55 0-1-.45-1-1s.45-1 1-1h3c.55 0 1-.45 1-1s-.45-1-1-1h-1a3.01 3.01 0 0 1-3-3 3.01 3.01 0 0 1 3-3h3c.55 0 1 .45 1 1s-.45 1-1 1h-3c-.55 0-1 .45-1 1s.45 1 1 1h1a3.01 3.01 0 0 1 3 3 3.01 3.01 0 0 1-3 3z" fill="#1976d2"/><path d="M25 20h2v18h-2z" fill="#d9d9d9"/><path d="M18 20h4v2h-4zm0 4h4v2h-4zm0 4h4v2h-4zm0 4h4v2h-4zm0 4h4v2h-4zm12-16h4v2h-4z" fill="#5e9fdf"/><path d="M37 20h10v2H37zm-7 8h4v2h-4z" fill="#d38e2a"/><path d="M37 28h10v2H37zm-7 8h4v2h-4z" fill="#5e9fdf"/><path d="M37 36h10v2H37z" fill="#d38e2a"/><path d="M30 24h4v2h-4zm7 0h6v2h-6zm-7 8h4v2h-4zm7 0h8v2h-8z" fill="#5e9fdf"/></svg>