<?xml version="1.0" encoding="UTF-8"?><svg id="a" xmlns="http://www.w3.org/2000/svg" viewBox="0 0 64 64"><defs><style>.h{fill:#fff;}.i{fill:#5e9fdf;}.j{fill:#fdfdfd;}.k{fill:#d38e2a;}.l{fill:#f3f3f3;}.m{fill:#1976d2;}</style></defs><path class="i" d="M52,6V58c0,3.31-2.69,6-6,6H18c-3.31,0-6-2.69-6-6V6c0-3.31,2.69-6,6-6l29.2,.12c2.71,.55,4.8,2.96,4.8,5.88Z"/><rect class="h" x="14" y="2" width="36" height="58" rx="4" ry="4"/><path class="i" d="M18,2h2V13h-6V6c0-2.21,1.79-4,4-4Z"/><path class="m" d="M20,2h6V13h-6V2Z"/><path class="i" d="M26,2h6V13h-6V2Z"/><path class="m" d="M32,2h6V13h-6V2Z"/><path class="i" d="M38,2h6V13h-6V2Z"/><g><path class="m" d="M44,2h2c2.21,0,4,1.79,4,4v7h-6V2h0Z"/><path id="b" class="m" d="M17,17c-1.66,0-3-1.34-3-3v-1h6v1c0,1.66-1.34,3-3,3Z"/><path id="c" class="m" d="M23,17c-1.66,0-3-1.34-3-3v-1h6v1c0,1.66-1.34,3-3,3Z"/><path id="d" class="m" d="M29,17c-1.66,0-3-1.34-3-3v-1h6v1c0,1.66-1.34,3-3,3Z"/><path id="e" class="m" d="M35,17c-1.66,0-3-1.34-3-3v-1h6v1c0,1.66-1.34,3-3,3Z"/><path id="f" class="m" d="M41,17c-1.66,0-3-1.34-3-3v-1h6v1c0,1.66-1.34,3-3,3Z"/></g><path class="i" d="M52,16.42v21.16c-.7-.2-1.37-.46-2-.8V17.22c.63-.34,1.3-.6,2-.8Zm-38,.8v19.56c-.63,.34-1.3,.6-2,.8V16.42c.7,.2,1.37,.46,2,.8Z"/><g><path class="m" d="M47,28H17c-1.32,0-1.32-2,0-2h30c1.32,0,1.32,2,0,2Zm8.79,5.61c-18.62,24.11-17.1,22.39-17.79,22.39-.8,0-1.31-.93-.79-1.61l17-22c.81-1.05,2.39,.18,1.58,1.22Zm-30.58,22L8.21,33.61c-.81-1.05,.77-2.27,1.58-1.22l17,22c.81,1.05-.78,2.27-1.58,1.22Z"/><path id="g" class="m" d="M47,17c-1.66,0-3-1.34-3-3v-1h6v1c0,1.66-1.34,3-3,3Z"/></g><path class="l" d="M17,28h2.95c-.34,3.84-2.67,7.11-5.95,8.78V17.22c3.28,1.67,5.61,4.94,5.95,8.78h-2.95c-1.32,0-1.32,2,0,2Z"/><path class="m" d="M19.95,28h-2.95c-1.32,0-1.32-2,0-2h2.95c.07,.66,.07,1.34,0,2Zm-6.54,9.08c-.64,.28-1.31,.5-2.01,.66l-3.19-4.13c-.81-1.05,.77-2.27,1.58-1.22l3.62,4.69Z"/><circle class="k" cx="9" cy="27" r="9"/><path class="l" d="M50,17.22v19.56c-3.28-1.67-5.61-4.94-5.95-8.78h2.95c1.32,0,1.32-2,0-2h-2.95c.34-3.84,2.67-7.11,5.95-8.78Z"/><path class="m" d="M47,28h-2.95c-.07-.66-.07-1.34,0-2h2.95c1.32,0,1.32,2,0,2Zm8.79,5.61l-3.19,4.13c-.7-.16-1.37-.38-2.01-.66l3.62-4.69c.81-1.05,2.39,.18,1.58,1.22Z"/><circle class="k" cx="55" cy="27" r="9"/><path class="j" d="M55,26c-1.32,0-1.32-2,0-2h2c1.32,0,1.32-2,0-2h-1c0-1.27-2-1.46-2,.18-3.18,1.14-2.33,5.82,1,5.82,1.32,0,1.32,2,0,2h-2c-1.32,0-1.32,2,0,2h1c0,1.24,2,1.49,2-.18,3.18-1.14,2.33-5.82-1-5.82Z"/><path class="i" d="M41.79,60c-.81,1.6-2.01,2.97-3.47,4h-12.64c-1.46-1.03-2.66-2.4-3.47-4h19.58Z"/><path class="l" d="M41.79,60H22.21c-1.49-2.86-1.55-6.18-.49-8.91,3.78,4.9,3.61,4.91,4.28,4.91,.8,0,1.31-.93,.79-1.61l-4.08-5.28c4.33-6.82,14.26-6.8,18.58,0l-4.08,5.28c-.52,.67,0,1.61,.79,1.61,.65,0,.45,.05,4.28-4.91,1.11,2.9,.93,6.14-.49,8.91Z"/><path class="m" d="M26.79,54.39c.52,.67,.01,1.61-.79,1.61-.65,0-.45,.05-4.28-4.91,.26-.69,.59-1.36,.99-1.98l4.08,5.28Zm15.49-3.3c-3.78,4.9-3.61,4.91-4.28,4.91-.8,0-1.31-.93-.79-1.61l4.08-5.28c.4,.62,.73,1.29,.99,1.98Z"/><circle class="k" cx="32" cy="55" r="9"/><g><path class="j" d="M10,32H6c-.55,0-1-.45-1-1v-8c0-.55,.45-1,1-1h4c1.65,0,3,1.35,3,3,0,.7-.27,1.43-.77,2,.48,.53,.77,1.23,.77,2,0,1.44-1.15,3-3,3Zm-3-2h3c.82,0,1-.8,1-1,0-.55-.45-1-1-1h-3v2Zm0-4h3c.82,0,1-.8,1-1,0-.55-.45-1-1-1h-3v2Z"/><g><path class="j" d="M35,61h-5c-1.1,0-2-.9-2-2v-5c0-2.76,2.24-5,5-5h2c.55,0,1,.45,1,1s-.45,1-1,1h-2c-1.65,0-3,1.35-3,3v5h5c.55,0,1,.45,1,1s-.45,1-1,1ZM9,33c-.55,0-1-.45-1-1v-1c0-.55,.45-1,1-1s1,.45,1,1v1c0,.55-.45,1-1,1Zm-3,0c-.55,0-1-.45-1-1v-10c0-.55,.45-1,1-1s1,.45,1,1v10c0,.55-.45,1-1,1Zm3-9c-.55,0-1-.45-1-1v-1c0-.55,.45-1,1-1s1,.45,1,1v1c0,.55-.45,1-1,1Z"/><path class="j" d="M34,56h-7c-.55,0-1-.45-1-1s.45-1,1-1h7c.55,0,1,.45,1,1s-.45,1-1,1Z"/></g></g></svg>