<svg xmlns="http://www.w3.org/2000/svg" viewBox="0 0 64 64" xmlns:v="https://vecta.io/nano"><path d="M42 47.77V57H0v-9.23a4 4 0 0 1 2.6-3.75L16 38.99h10l13.4 5.03c1.56.59 2.6 2.08 2.6 3.75z" fill="#5e9fdf"/><path d="M21,45c-2.76,0-5-2.23-5-5v-3h10v3c0,2.76-2.24,5-5,5Z" fill="#d38e2a"/><path d="M21,40c-5.52,0-10-4.48-10-10v-8H31v8c0,5.52-4.48,10-10,10Z" fill="#e4c290"/><g fill="#1976d2"><path d="M8 21h3v6H8z"/><path d="M29 22H10a4 4 0 0 1-4-4v-7h21c1.66 0 3 1.34 3 3a4 4 0 0 1 4 4v9h-3v-3c0-1.1-.9-2-2-2z"/></g><path d="M32 31h-1v-6h1c1.66 0 3 1.34 3 3s-1.34 3-3 3zm-22 0h1v-6h-1c-1.66 0-3 1.34-3 3s1.34 3 3 3z" fill="#e4c290"/><path d="M18.55 36.89a1.01 1.01 0 0 1-.45-1.34 1.01 1.01 0 0 1 1.34-.45c.97.49 2.13.49 3.11 0 .49-.25 1.09-.05 1.34.45a.99.99 0 0 1-.45 1.34c-1.53.77-3.36.77-4.89 0z" fill="#d38e2a"/><path d="M60,20h-6v-4h6c1.1,0,2,.9,2,2,0,.81-.63,2-2,2Z" fill="#d9d9d9"/><path d="M40 20h14v-4H40c-1.1 0-2 .9-2 2 0 .81.63 2 2 2z" fill="#e4c290"/><path d="M60,37h-2v-4h2c1.1,0,2,.9,2,2,0,.81-.63,2-2,2Z" fill="#d9d9d9"/><path d="M40 37h18v-4H40c-1.1 0-2 .9-2 2 0 .81.63 2 2 2z" fill="#1976d2"/><path d="M38 11h8v2h-8zm0-4h12v2H38zm0 22h8v2h-8zm0-4h12v2H38z" fill="#d9d9d9"/></svg>