<svg xmlns="http://www.w3.org/2000/svg" viewBox="0 0 64 64" xmlns:v="https://vecta.io/nano"><path d="M62,11V50H2V11c0-1.66,1.34-3,3-3H59c1.66,0,3,1.34,3,3Z" fill="#1976d2"/><path d="M1 50h62c.55 0 1 .45 1 1v2c0 1.66-1.34 3-3 3H3c-1.66 0-3-1.34-3-3v-2c0-.55.45-1 1-1z" fill="#5e9fdf"/><path d="M60 11v37H4V11c0-.55.45-1 1-1h54c.55 0 1 .45 1 1z" fill="#fff"/><path d="M39 52H25c-1.1 0-2-.9-2-2 0-.1-.84 0 18 0 0 .81-.63 2-2 2z" fill="#f3f3f3"/><g fill="#5e9fdf"><path d="M5 10h54c.55 0 1 .45 1 1v3H4v-3c0-.55.45-1 1-1z"/><path d="M18,10h17c1.66,0,3,1.34,3,3v1H18v-4h0Z"/></g><path d="M5 10h14c1.66 0 3 1.34 3 3v2H4v-4c0-.55.45-1 1-1z" fill="#fff"/><path d="M4 21h56v24H4z" fill="#f3f3f3"/><path d="M27 33v12H13V33l5-5h4l5 5z" fill="#1976d2"/><path d="M17,45v-3c0-1.66,1.34-3,3-3s3,1.34,3,3v3" fill="#5e9fdf"/><g fill="#d38e2a"><path d="M30 34l-2 2-8-8-8 8-2-2 10-10 10 10z"/><path d="M24 27h3v5h-3z"/></g><path d="M34 27h20v2H34zm0 4h20v2H34zm0 4h14v2H34z" fill="#d9d9d9"/><path d="M35 43c-.88 0-1.34-1.07-.71-1.71l.29-.29-.29-.29c-.94-.94.48-2.35 1.41-1.41l1 1c.39.39.39 1.02 0 1.41-1.06 1.06-1.19 1.29-1.71 1.29zM7 17h8v2H7zm10 0h8v2h-8zm10 0h8v2h-8zm10 0h8v2h-8z" fill="#5e9fdf"/><path d="M56,19h-4c-1.34,0-1.29-2,0-2h4c1.34,0,1.29,2,0,2Z" fill="#d38e2a"/></svg>