<?xml version="1.0" encoding="UTF-8"?><svg id="a" xmlns="http://www.w3.org/2000/svg" viewBox="0 0 64 64"><defs><style>.b{fill:#fff;}.c{fill:#5e9fdf;}.d{fill:#c8c8c8;}.e{fill:#f3f3f3;}.f{fill:#d9d9d9;}.g{fill:#1976d2;}</style></defs><path class="c" d="M62,19V58H2V19c0-1.66,1.34-3,3-3H59c1.66,0,3,1.34,3,3Z"/><path class="g" d="M1,58H63c.55,0,1,.45,1,1v2c0,1.66-1.34,3-3,3H3c-1.66,0-3-1.34-3-3v-2c0-.55,.45-1,1-1Z"/><path class="b" d="M60,19V56H4V19c0-.55,.45-1,1-1H59c.55,0,1,.45,1,1Z"/><path class="f" d="M47,36H11c-1.32,0-1.32-2,0-2h2v-13c0-.55,.45-1,1-1h6c.55,0,1,.45,1,1v13h4V18h8v16h4V18h8v16h2c1.32,0,1.32,2,0,2Z"/><path class="g" d="M49,36H13c-1.34,0-1.29-2,0-2H49c1.34,0,1.29,2,0,2Z"/><path class="c" d="M16,20h6c.55,0,1,.45,1,1v13H15v-13c0-.55,.45-1,1-1Z"/><path class="g" d="M28,14h6c.55,0,1,.45,1,1v19h-8V15c0-.55,.45-1,1-1Z"/><path class="e" d="M39,60h-14c-1.1,0-2-.9-2-2,0-.1-.84,0,18,0,0,.81-.63,2-2,2Z"/><path class="f" d="M13,39h20v2H13v-2Zm-6,4h26v2H7v-2Z"/><path class="g" d="M37,16h8v2h-8v-2Zm-12,0h8v2h-8v-2Z"/><path class="f" d="M7,47h26v2H7v-2Zm0,4H25v2H7v-2Z"/><path class="g" d="M50,10h-3v24h-8V10h-3L43,0l7,10Z"/><circle class="f" cx="50" cy="46" r="7"/><path class="d" d="M50,51c-.55,0-1-.45-1-1h-1c-.55,0-1-.45-1-1s.45-1,1-1h2.5c.28,0,.5-.22,.5-.5s-.22-.5-.5-.5h-1c-1.38,0-2.5-1.12-2.5-2.5,0-1.21,.86-2.22,2-2.45v-.05c0-.55,.45-1,1-1s1,.45,1,1h1c.55,0,1,.45,1,1s-.45,1-1,1h-2.5c-.28,0-.5,.22-.5,.5s.22,.5,.5,.5h1c1.38,0,2.5,1.12,2.5,2.5,0,1.21-.86,2.22-2,2.45v.05c0,.55-.45,1-1,1Z"/></svg>