<svg xmlns="http://www.w3.org/2000/svg" viewBox="0 0 64 64" xmlns:v="https://vecta.io/nano"><rect x="1" y="4" width="60" height="50" rx="4" fill="#5e9fdf"/><path d="M43,64H19c2.75-2.75,4-6.21,4-10h16c0,4.08,1.44,7.44,4,10Z" fill="#1976d2"/><path d="M45 64H17c-.55 0-1-.45-1-1 0-.29.22-1 1-1h28c.55 0 1 .45 1 1 0 .29-.22 1-1 1zM58 8v15H7V7h50c.55 0 1 .45 1 1z" fill="#5e9fdf"/><path d="M58 12v36c0 .55-.45 1-1 1H5c-.55 0-1-.45-1-1V8c0-.55.45-1 1-1l15 .11a3.98 3.98 0 0 1 2.2 1.39l1.6 2c.76.95 1.91 1.5 3.12 1.5H58z" fill="#fff"/><g fill="#5e9fdf"><path d="M40,23H22c-1.66,0-3-1.34-3-3s1.34-3,3-3h18c1.66,0,3,1.34,3,3s-1.34,3-3,3Z"/><path d="M40 21H22c-.55 0-1-.45-1-1 0-.29.22-1 1-1h18c.55 0 1 .45 1 1 0 .29-.22 1-1 1z"/></g><circle cx="23" cy="20" r="4" fill="#1976d2"/><path d="M22,34h18c1.66,0,3-1.34,3-3s-1.34-3-3-3H22c-1.66,0-3,1.34-3,3s1.34,3,3,3Z" fill="#5e9fdf"/><path d="M7 17h9v2H7zm0 4h9v2H7zm0 4h6v2H7zm39 10h9v2h-9zm0 4h9v2h-9zm0 4h6v2h-6z" fill="#d9d9d9"/><path d="M22 32h18c.55 0 1-.45 1-1 0-.29-.22-1-1-1H22c-.55 0-1 .45-1 1 0 .29.22 1 1 1z" fill="#5e9fdf"/><circle cx="39" cy="31" r="4" fill="#1976d2"/><g fill="#5e9fdf"><path d="M40,45H22c-1.66,0-3-1.34-3-3s1.34-3,3-3h18c1.66,0,3,1.34,3,3s-1.34,3-3,3Z"/><path d="M40 43H22c-.55 0-1-.45-1-1 0-.29.22-1 1-1h18c.55 0 1 .45 1 1 0 .29-.22 1-1 1z"/></g><g fill="#1976d2"><circle cx="23" cy="42" r="4"/><path d="M61 8v9.49a10.73 10.73 0 0 1-3 1.75V8c0-.55-.45-1-1-1H43.18c.19-1.06.54-2.07 1.02-3H57a4 4 0 0 1 4 4z"/></g><path d="M58 8v4H43.42c-.48-1.62-.53-3.4-.24-5H57c.55 0 1 .45 1 1z" fill="#5e9fdf"/><path d="M58 12v7.24c-5.99 2.37-12.81-.98-14.58-7.24H58z" fill="#f3f3f3"/><circle cx="54" cy="9" r="9" fill="#fff"/><path d="M59.73 6.93l-1.07-1.86a.93.93 0 0 0-1.27-.34h0c-.62.36-1.39-.09-1.39-.8h0c0-.51-.42-.93-.93-.93h-2.14c-.51 0-.93.42-.93.93h0c0 .71-.77 1.16-1.39.8h0c-.44-.26-1.01-.1-1.27.34l-1.07 1.86c-.26.44-.1 1.01.34 1.27h0a.93.93 0 0 1 0 1.61h0a.93.93 0 0 0-.34 1.27l1.07 1.86a.93.93 0 0 0 1.27.34h0c.62-.36 1.39.09 1.39.8h0c0 .51.42.93.93.93h2.14c.51 0 .93-.42.93-.93h0c0-.71.77-1.16 1.39-.8h0c.44.26 1.01.1 1.27-.34l1.07-1.86c.26-.44.1-1.01-.34-1.27h0a.93.93 0 0 1 0-1.61h0a.93.93 0 0 0 .34-1.27z" fill="#d38e2a"/><circle cx="54" cy="9" r="2" fill="#fff"/></svg>