<svg xmlns="http://www.w3.org/2000/svg" viewBox="0 0 64 64" xmlns:v="https://vecta.io/nano"><path d="M62,15V54H2V15c0-1.66,1.34-3,3-3H59c1.66,0,3,1.34,3,3Z" fill="#5e9fdf"/><path d="M1 54h62c.55 0 1 .45 1 1v2c0 1.66-1.34 3-3 3H3c-1.66 0-3-1.34-3-3v-2c0-.55.45-1 1-1z" fill="#1976d2"/><path d="M60 15v4H20l-4-5h43c.55 0 1 .45 1 1z" fill="#5e9fdf"/><path d="M60 19v33H4V15c0-.55.45-1 1-1h14.08c1.21 0 2.36.55 3.12 1.5l1.6 2c.86 1.03 1.97 1.5 3.12 1.5H60z" fill="#fff"/><path d="M39 56H25c-.81 0-2-.63-2-2h18c0 .81-.63 2-2 2z" fill="#f3f3f3"/><circle cx="20" cy="17" r="1" fill="#5e9fdf"/><g fill="#d38e2a"><path d="M28,46h-6c-1.65,0-3-1.35-3-3v-14c0-1.65,1.35-3,3-3h6c.55,0,1,.45,1,1v18c0,.55-.45,1-1,1Zm-6-18c-.55,0-1,.45-1,1v14c0,.55,.45,1,1,1h5V28h-5Z"/><path d="M42,46h-14c-.55,0-1-.45-1-1V27c0-.55,.45-1,1-1h14c1.65,0,3,1.35,3,3v14c0,1.65-1.35,3-3,3Zm-13-2h13c.55,0,1-.45,1-1v-14c0-.55-.45-1-1-1h-13v16Z"/><path d="M44,37H28c-.55,0-1-.45-1-1s.45-1,1-1h16c.55,0,1,.45,1,1s-.45,1-1,1Z"/></g><path d="M7 26h8v2H7zm0 4h6v2H7zm42 10h8v2h-8zm0 4h6v2h-6z" fill="#d9d9d9"/><path d="M62 15v6.49a10.09 10.09 0 0 1-2 1.3V15c0-.55-.45-1-1-1H44.05a9.55 9.55 0 0 1 0-2H59c1.66 0 3 1.34 3 3z" fill="#1976d2"/><path d="M60 19v3.79c-4.86 2.53-11.07 1.03-14.22-3.79H60z" fill="#f3f3f3"/><path d="M60 15v4H45.78c-.96-1.46-1.57-3.17-1.73-5H59c.55 0 1 .45 1 1z" fill="#5e9fdf"/><circle cx="55" cy="13" r="9" fill="#fff"/><path d="M60.73 10.93l-1.07-1.86a.93.93 0 0 0-1.27-.34h0c-.62.36-1.39-.09-1.39-.8h0c0-.51-.42-.93-.93-.93h-2.14c-.51 0-.93.42-.93.93h0c0 .71-.77 1.16-1.39.8h0c-.44-.26-1.01-.1-1.27.34l-1.07 1.86c-.26.44-.1 1.01.34 1.27h0a.93.93 0 0 1 0 1.61h0a.93.93 0 0 0-.34 1.27l1.07 1.86a.93.93 0 0 0 1.27.34h0c.62-.36 1.39.09 1.39.8h0c0 .51.42.93.93.93h2.14c.51 0 .93-.42.93-.93h0c0-.71.77-1.16 1.39-.8h0c.44.26 1.01.1 1.27-.34l1.07-1.86c.26-.44.1-1.01-.34-1.27h0a.93.93 0 0 1 0-1.61h0a.93.93 0 0 0 .34-1.27z" fill="#d38e2a"/><circle cx="55" cy="13" r="2" fill="#fff"/></svg>