<svg xmlns="http://www.w3.org/2000/svg" viewBox="0 0 64 64" xmlns:v="https://vecta.io/nano"><path d="M31 38h2v20h-2z" fill="#d9d9d9"/><rect x="27" y="58" width="10" height="6" rx="2" fill="#d38e2a"/><path d="M8 60h19v2H8z" fill="#d9d9d9"/><circle cx="8" cy="61" r="3" fill="#d38e2a"/><path d="M56 62H37v-2h19z" fill="#d9d9d9"/><circle cx="56" cy="61" r="3" fill="#d38e2a"/><path d="M64 30c0 6.67-4.67 12.27-11 13.68-2.12.46-.15.32-39 .32-3.32 0-6.39-1.16-8.78-3.11-7.64-6.12-6.77-18.09 1.79-23.01C4.08 12.61 7.85 6 14 6c1.52 0 2.94.43 4.15 1.16A16.92 16.92 0 0 1 32 0c9.07 0 16.48 7.1 16.97 16.04C56.84 15.35 64 21.72 64 30z" fill="#f3f3f3"/><path d="M48 39a3.34 3.34 0 0 1-.67 2c.77 1.06.67 1.87.67 3H16c0-1.17-.1-1.94.67-3a3.34 3.34 0 0 1-.67-2v-8c0-5.83 14.36-6 16-6s16 .17 16 6v8z" fill="#d9d9d9"/><g fill="#1976d2"><ellipse cx="32" cy="31" rx="14" ry="4"/><ellipse cx="32" cy="43" rx="14" ry="4"/></g><path d="M46 43v8c0 2.21-6.27 4-14 4s-14-1.79-14-4v-8c0 2.21 6.27 4 14 4s14-1.79 14-4zm0-12v8c0 2.21-6.27 4-14 4s-14-1.79-14-4v-8c0 2.21 6.27 4 14 4s14-1.79 14-4z" fill="#5e9fdf"/><path d="M27.92 39.83c-.55-.05-.96-.53-.91-1.08s.53-.97 1.08-.91a48.74 48.74 0 0 0 7.83 0c.54-.05 1.03.36 1.08.91s-.36 1.03-.91 1.08c-2.58.22-5.48.23-8.17 0zm0 12c-.55-.05-.96-.53-.91-1.08s.53-.97 1.08-.91c2.18.19 4.57.21 6.85.07.55-.02 1.03.39 1.06.94s-.39 1.03-.94 1.06c-2.33.14-4.82.12-7.15-.08z" fill="#f3f3f3"/></svg>