<svg xmlns="http://www.w3.org/2000/svg" viewBox="0 0 64 64" xmlns:v="https://vecta.io/nano"><path d="M60.8,28c-2.93,1.22-7.57,2-12.8,2-11.19,0-19.42-3.63-14.67-7,5.53-3.95,23.73-4.02,29.34,0,2.58,1.83,1.14,3.76-1.87,5Z" fill="#5e9fdf"/><path d="M64,25v6c0,2.76-7.16,5-16,5s-16-2.24-16-5v-6c0,4.69,19.45,6.89,28.8,3,2.01-.83,3.2-1.87,3.2-3Z" fill="#1976d2"/><path d="M64,15c0,4.69-19.45,6.89-28.8,3-7.92-3.27-.35-8,12.8-8,8.84,0,16,2.24,16,5Z" fill="#5e9fdf"/><g fill="#1976d2"><path d="M64 15v6c0 .71-.47 1.39-1.33 2-5.57 3.99-23.76 4-29.34 0-.86-.61-1.33-1.29-1.33-2v-6c0 1.13 1.19 2.17 3.2 3 9.3 3.87 28.8 1.7 28.8-3zM48 30v6c-8.84 0-16-2.24-16-5v-6c0 1.13 1.19 2.17 3.2 3 2.93 1.22 7.57 2 12.8 2z"/><path d="M48,26v4c-11.19,0-19.42-3.63-14.67-7,2.47,1.77,8.11,3,14.67,3Z"/><path d="M48 24v2c-6.56 0-12.2-1.23-14.67-3-1.52-1.08-1.33-1.86-1.33-3l12.86.1A3.99 3.99 0 0 1 48 24z"/></g><rect y="22" width="46" height="36" rx="2" fill="#5e9fdf"/><path d="M32 64H14l.88-.88C16.23 61.77 17 59.93 17 58h12c0 1.91.76 3.76 2.12 5.12L32 64z" fill="#1976d2"/><path d="M3 25h40v29H3z" fill="#fff"/><g fill="#d38e2a"><path d="M19 44c-.55 0-1-.45-1-1v-9c0-.55.45-1 1-1s1 .45 1 1v9c0 .55-.45 1-1 1z"/><path d="M22 37c-.55 0-.54-.13-3-2.59l-2.29 2.29c-.39.39-1.02.39-1.41 0s-.39-1.02 0-1.41l3-3c.39-.39 1.02-.39 1.41 0l3 3A1.01 1.01 0 0 1 22 37zm5 8c-.55 0-1-.45-1-1v-9c0-.55.45-1 1-1s1 .45 1 1v9c0 .55-.45 1-1 1z"/><path d="M26.29 45.71l-3-3c-.39-.39-.39-1.02 0-1.41s1.02-.39 1.41 0l2.29 2.29 2.29-2.29c.39-.39 1.02-.39 1.41 0s.39 1.02 0 1.41l-3 3c-.39.39-1.02.39-1.41 0z"/></g><path d="M64 5c0 4.69-19.45 6.89-28.8 3-7.92-3.27-.35-8 12.8-8 8.84 0 16 2.24 16 5z" fill="#5e9fdf"/><path d="M64,5v6c0,2.76-7.16,5-16,5s-16-2.24-16-5V5c0,4.69,19.45,6.89,28.8,3,2.01-.83,3.2-1.87,3.2-3Z" fill="#1976d2"/><path d="M23 20c-.55 0-1-.45-1-1v-4a3.01 3.01 0 0 1 3-3h4c.55 0 1 .45 1 1s-.45 1-1 1h-4c-.55 0-1 .45-1 1v4c0 .55-.45 1-1 1zm28 25h-2c-.55 0-1-.45-1-1s.45-1 1-1h2c.55 0 1-.45 1-1v-3c0-.55.45-1 1-1s1 .45 1 1v3a3.01 3.01 0 0 1-3 3z" fill="#d38e2a"/><path d="M6 28h7v2H6zm27 21h7v2h-7zM6 32h4v2H6zm30 13h4v2h-4z" fill="#d9d9d9"/><g fill="#f3f3f3"><circle cx="48" cy="5" r="1"/><circle cx="53" cy="5" r="1"/><circle cx="43" cy="5" r="1"/></g></svg>