<svg xmlns="http://www.w3.org/2000/svg" viewBox="0 0 64 64" xmlns:v="https://vecta.io/nano"><g fill="#d9d9d9"><path d="M6 60h23v2H6z"/><path d="M29 60h23v2H29z"/><path d="M28 45h2v17h-2z"/></g><path d="M46,40c0,1.63-2.67,3.08-6.79,4-6.01,1.33-14.4,1.33-20.42,0-4.12-.92-6.79-2.37-6.79-4,0-2.76,7.61-5,17-5s17,2.24,17,5Z" fill="#5e9fdf"/><path d="M46,40v8c0,2.76-7.61,5-17,5s-17-2.24-17-5v-8c0,1.63,2.67,3.08,6.79,4,6.01,1.33,14.4,1.33,20.42,0,4.12-.92,6.79-2.37,6.79-4Z" fill="#1976d2"/><path d="M22.89 49.68a1 1 0 0 1-.88-1.1c.06-.55.54-.94 1.1-.88 3.75.42 8.03.42 11.78 0 .57-.05 1.04.34 1.1.88a.99.99 0 0 1-.88 1.1c-3.92.43-8.3.43-12.22 0zM46 28c0 1.63-2.67 3.08-6.79 4-6.01 1.33-14.4 1.33-20.42 0-4.12-.92-6.79-2.37-6.79-4 0-.71.51-1.39 1.42-2 5.92-3.98 25.22-4 31.16 0 .7.47 1.42 1.16 1.42 2z" fill="#5e9fdf"/><path d="M46,28v8c0,2.76-7.61,5-17,5s-17-2.24-17-5v-8c0,1.63,2.67,3.08,6.79,4,6.01,1.33,14.4,1.33,20.42,0,4.12-.92,6.79-2.37,6.79-4Z" fill="#1976d2"/><path d="M22.89 37.68a1 1 0 0 1-.88-1.1c.06-.55.54-.94 1.1-.88 3.75.42 8.03.42 11.78 0 .57-.06 1.04.34 1.1.88a1 1 0 0 1-.88 1.1c-3.92.43-8.3.43-12.22 0zM46 16c0 1.63-2.67 3.08-6.79 4C28.52 22.41 12 20.23 12 16c0-2.76 7.61-5 17-5 1.42 0 2.8.05 4.12.15C40.52 11.69 46 13.66 46 16z" fill="#5e9fdf"/><path d="M46 16v8c0 .71-.51 1.39-1.42 2-5.79 3.93-25.17 4.03-31.16 0-.91-.61-1.42-1.29-1.42-2v-8c0 1.63 2.67 3.08 6.79 4C29.45 22.37 46 20.27 46 16z" fill="#1976d2"/><path d="M22.89 25.68a1 1 0 0 1-.88-1.1c.06-.55.54-.94 1.1-.88 3.75.42 8.03.42 11.78 0 .57-.06 1.04.34 1.1.88a.99.99 0 0 1-.88 1.1c-3.92.43-8.3.43-12.22 0z" fill="#5e9fdf"/><g fill="#1976d2"><path d="M45.99 27.86a14.11 14.11 0 0 1-3.38-.87c.78-.3 1.44-.63 1.97-.99.85.57 1.35 1.2 1.41 1.86z"/><path d="M46 16v8c0 1.43-2.05 2.47-3.39 2.99-3.1-1.18-5.77-3.44-7.5-6.32l4.1-.67c4.12-.92 6.79-2.37 6.79-4z"/><path d="M46 16c0 1.63-2.67 3.08-6.79 4-1.24.28-2.62.5-4.1.67a14.89 14.89 0 0 1-1.99-9.52C40.52 11.69 46 13.66 46 16z"/></g><circle cx="48" cy="13" r="13" fill="#e4c290"/><circle cx="48" cy="13" r="10" fill="#d38e2a"/><path d="M44 17c-.26 0-.51-.1-.71-.29l-3-3c-.39-.39-.39-1.02 0-1.41l3-3c.39-.39 1.02-.39 1.41 0s.39 1.02 0 1.41L42.41 13l2.29 2.29a1.01 1.01 0 0 1-.71 1.71zm8 0c-.88 0-1.34-1.07-.71-1.71L53.58 13l-2.29-2.29c-.39-.39-.39-1.02 0-1.41s1.02-.39 1.41 0l3 3c.39.39.39 1.02 0 1.41l-3 3a.98.98 0 0 1-.71.29zm-5 2c-.63 0-1.1-.58-.98-1.2l2-10a1 1 0 1 1 1.96.4l-2 10c-.09.48-.51.8-.98.8z" fill="#fff"/><g fill="#d38e2a"><rect x="24" y="58" width="10" height="6" rx="2"/><circle cx="6" cy="61" r="3"/><circle cx="52" cy="61" r="3"/></g></svg>