<svg xmlns="http://www.w3.org/2000/svg" viewBox="0 0 64 64" xmlns:v="https://vecta.io/nano"><path d="M46,25v31H8V5c0-2.76,2.24-5,5-5H50" fill="#f3f3f3"/><path d="M60 25H46V5c0-2.76 2.24-5 5-5s5 2.23 5 5v1" fill="#d9d9d9"/><path d="M60 25a4 4 0 0 1-4-4V6h8v15a4 4 0 0 1-4 4z" fill="#c8c8c8"/><path d="M12 10h12v2H12zm0-4h12v2H12zm0 8h12v2H12zm0 4h10v2H12z" fill="#d9d9d9"/><path d="M12 44v-4A12 12 0 0 0 0 52c0 5.31 3.44 9.8 8.21 11.38l1.26-3.79C6.29 58.53 4 55.54 4 52a8 8 0 0 1 8-8z" fill="#d38e2a"/><path d="M20.49 60.49c-3.33 3.33-8.21 4.29-12.28 2.89l1.26-3.79c2.69.92 5.93.32 8.19-1.93l2.83 2.83z" fill="#5e9fdf"/><path d="M20.49 60.49l-2.83-2.83C22.67 52.62 19.11 44 12 44v-4c10.7 0 15.98 13 8.49 20.49z" fill="#1976d2"/><path d="M41 10h-1.5l-2.7-3.6c-.79-1.06-2.39.14-1.6 1.2L37 10h-6l1.8-2.4c.79-1.06-.81-2.26-1.6-1.2L28.5 10H27c-1.24 0-1.49 2 .2 2l.62 6.2a2 2 0 0 0 1.99 1.8h8.38a2 2 0 0 0 1.99-1.8L41 12c1.32 0 1.32-2 0-2zm-11.14 7.18l-.67-4.03c-.22-1.29 1.73-1.61 1.95-.33l.67 4.03c.22 1.29-1.73 1.61-1.95.33zM35 17c0 1.32-2 1.32-2 0v-4c0-1.32 2-1.32 2 0v4zm3.81-3.85l-.67 4.03c-.22 1.28-2.17.97-1.95-.33l.67-4.03c.21-1.26 2.17-.98 1.95.33z" fill="#d38e2a"/><g fill="#d9d9d9"><path d="M38 26h4v10h-4zm-6-2h4v12h-4zm-6 4h4v8h-4zm-6 2h4v6h-4z"/><path d="M43 38H19c-1.34 0-1.29-2 0-2h24c1.34 0 1.29 2 0 2zM12 25h7v2h-7zm25 16h7v2h-7z"/></g></svg>