<svg xmlns="http://www.w3.org/2000/svg" viewBox="0 0 64 64" xmlns:v="https://vecta.io/nano"><path d="M51 16v40c0 1.1-.9 2-2 2H13c-1.1 0-2-.9-2-2V8c0-1.1.9-2 2-2h28l10 10z" fill="#f3f3f3"/><path d="M51 36v20c0 1.1-.9 2-2 2H39c-2.73-6.57.32-14.1 6.84-16.93C44.02 39.18 45.36 36 48 36h3z" fill="#d9d9d9"/><path d="M49 40h4v4h-4z" fill="#5e9fdf"/><path d="M51,16h-8c-1.1,0-2-.9-2-2V6l10,10Z" fill="#d9d9d9"/><circle cx="51" cy="53" r="11" fill="#1976d2"/><g fill="#5e9fdf"><circle cx="51" cy="53" r="9"/><path d="M58,53c0,3.87-3.13,7-7,7s-7-3.13-7-7h7v-7c3.87,0,7,3.13,7,7Z"/></g><path d="M54 40h-6c-.55 0-1-.45-1-1 0-.29.22-1 1-1h6c.55 0 1 .45 1 1 0 .29-.22 1-1 1z" fill="#1976d2"/><path d="M22,15c0,6.07-4.93,11-11,11V8c0-1.1,.9-2,2-2h5.22c2.02,3.04,3.78,6.43,3.78,9Z" fill="#d9d9d9"/><path d="M20 15c0 4.97-4.03 9-9 9s-9-4.03-9-9c0-2.01 1.48-4.86 3.24-7.53C6.55 9.39 9 8.38 9 6.5V5.24a7.87 7.87 0 0 1 2-5.25s9 10.03 9 15z" fill="#d38e2a"/><path d="M15 20c0-2.21-1.79-7-4-7s-4 4.79-4 7a4 4 0 1 0 8 0z" fill="#e4c290"/><g fill="#d38e2a"><path d="M31 23c-.84 0-1.08-.76-1.1-1l-.7-7.01c-.11-1.07.73-1.99 1.8-1.99h0c1.07 0 1.91.92 1.8 1.99L32.1 22c-.06.56-.53 1-1.1 1z"/><circle cx="31" cy="27" r="2"/></g><path d="M15 33h32v2H15zm0 5h28v2H15zm0 5h23v2H15zm0 5h17v2H15z" fill="#d9d9d9"/></svg>