<?xml version="1.0" encoding="UTF-8"?><svg id="a" xmlns="http://www.w3.org/2000/svg" viewBox="0 0 54 64.02"><defs><style>.b{fill:#fff;}.c{fill:#5e9fdf;}.d{fill:#c8c8c8;}.e{fill:#d38e2a;}.f{fill:#f3f3f3;}.g{fill:#d9d9d9;}.h{fill:#1976d2;}</style></defs><path class="h" d="M40,6.02V58.02c0,3.31-2.69,6-6,6H6c-3.31,0-6-2.69-6-6V6.02C0,2.71,2.69,.02,6,.02,36.32,.02,34.68-.15,36.14,.42c2.26,.84,3.86,3.08,3.86,5.6Z"/><path class="b" d="M38,6.02V56.02c0,2.21-1.79,4-4,4H6c-2.21,0-4-1.79-4-4V6.02c0-2.21,1.79-4,4-4h5.28c.43,0,.81,.28,.95,.68,.27,.83,.56,2.32,2.21,2.32h11.12c.86,0,1.63-.55,1.9-1.37l.31-.95c.14-.4,.52-.68,.95-.68l5.77,.04c1.84,.17,3.51,1.83,3.51,3.96Z"/><path class="g" d="M31,58.02H9c-1.32,0-1.32-2,0-2H31c1.32,0,1.32,2,0,2Z"/><path class="f" d="M38,6.02v31H2V6.02c0-2.21,1.79-4,4-4h5.28c.43,0,.81,.28,.95,.68,.27,.83,.56,2.32,2.21,2.32h11.12c.86,0,1.63-.55,1.9-1.37l.31-.95c.14-.4,.52-.68,.95-.68l5.77,.04c1.84,.17,3.51,1.83,3.51,3.96Z"/><circle class="e" cx="13" cy="11.02" r="3"/><g><rect class="c" x="18" y="9.02" width="4" height="4" rx="1" ry="1"/><rect class="c" x="25" y="9.02" width="4" height="4" rx="1" ry="1"/><rect class="c" x="32" y="9.02" width="4" height="4" rx="1" ry="1"/><rect class="c" x="11" y="16.02" width="4" height="4" rx="1" ry="1"/><rect class="c" x="4" y="16.02" width="4" height="4" rx="1" ry="1"/><rect class="c" x="18" y="16.02" width="4" height="4" rx="1" ry="1"/><rect class="c" x="25" y="16.02" width="4" height="4" rx="1" ry="1"/><rect class="c" x="32" y="16.02" width="4" height="4" rx="1" ry="1"/><rect class="c" x="11" y="23.02" width="4" height="4" rx="1" ry="1"/><rect class="c" x="4" y="23.02" width="4" height="4" rx="1" ry="1"/><rect class="c" x="18" y="23.02" width="4" height="4" rx="1" ry="1"/><rect class="c" x="25" y="23.02" width="4" height="4" rx="1" ry="1"/><rect class="c" x="32" y="23.02" width="4" height="4" rx="1" ry="1"/><rect class="c" x="11" y="30.02" width="4" height="4" rx="1" ry="1"/><rect class="c" x="4" y="30.02" width="4" height="4" rx="1" ry="1"/><rect class="c" x="18" y="30.02" width="4" height="4" rx="1" ry="1"/><rect class="c" x="25" y="30.02" width="4" height="4" rx="1" ry="1"/></g><g><path class="e" d="M8,48.02c-1.44,0-3-1.15-3-3v-2c0-1.65,1.35-3,3-3,1.44,0,3,1.15,3,3v2c0,1.65-1.35,3-3,3Zm0-6c-.55,0-1,.45-1,1v2c0,.82,.8,1,1,1,.55,0,1-.45,1-1v-2c0-.82-.8-1-1-1Z"/><path class="e" d="M15,48.02c-.55,0-1-.45-1-1v-4c-.26,0-.51-.1-.71-.29-.39-.39-.39-1.02,0-1.41l1-1c.29-.29,.72-.37,1.09-.22,.37,.15,.62,.52,.62,.92v6c0,.55-.45,1-1,1Z"/></g><path class="g" d="M19,42.02h10v2h-10v-2Zm0,4h12v2h-12v-2Z"/><path class="h" d="M40,34.02v24c0,3.31-2.69,6-6,6h-1.73c-1.84-1.01-3.45-2.38-4.75-4h6.48c2.21,0,4-1.79,4-4v-21.87c.66-.09,1.33-.13,2-.13Z"/><path class="f" d="M38,37.02v19c0,2.21-1.79,4-4,4h-6.48c-.51-.63-.97-1.3-1.37-2h4.85c1.32,0,1.32-2,0-2h-5.83c-1.08-2.65-1.38-5.52-1.04-8h6.87v-2h-6.49c.17-.69,.4-1.35,.66-2h3.83v-2h-2.85c1.14-1.97,2.69-3.68,4.53-5h7.32Z"/><path class="d" d="M29,44.02h-3.83c.28-.69,.61-1.36,.98-2h2.85v2Zm2,4h-6.87c.08-.67,.21-1.34,.38-2h6.49v2Zm0,10h-4.85c-.37-.64-.7-1.31-.98-2h5.83c1.32,0,1.32,2,0,2Z"/><path class="g" d="M38,34.15v2.87h-7.32c2.16-1.55,4.68-2.54,7.32-2.87Z"/><circle class="e" cx="40" cy="50.02" r="14"/><circle class="b" cx="40" cy="50.02" r="12"/><path class="e" d="M41,49.02v-8c0-1.34-2-1.29-2,0v8c0,.81,.63,2,2,2h4c1.34,0,1.29-2,0-2h-4Z"/><path class="c" d="M50,50.02c0-1.32-2-1.32-2,0s2,1.32,2,0Zm-18,0c0-1.32-2-1.32-2,0s2,1.32,2,0Zm2.34-5.66c.93-.93-.48-2.35-1.41-1.41s.48,2.35,1.41,1.41Zm11.32,0c.93,.93,2.35-.48,1.41-1.41s-2.35,.48-1.41,1.41Zm0,11.32c-.93,.93,.48,2.35,1.41,1.41s-.48-2.35-1.41-1.41Zm-5.66,2.34c-1.32,0-1.32,2,0,2s1.32-2,0-2Zm-5.66-2.34c-.93-.93-2.35,.48-1.41,1.41s2.35-.48,1.41-1.41Z"/></svg>