<svg xmlns="http://www.w3.org/2000/svg" viewBox="0 0 64 64" xmlns:v="https://vecta.io/nano"><g fill="#5e9fdf"><path d="M1 20h42v30H1z"/><path d="M43 29.04h12L60 39l3 2v9H43V29.04z"/></g><g fill="#1976d2"><path d="M63,52H1c-1.34,0-1.29-2,0-2H63c1.34,0,1.29,2,0,2Z"/><circle cx="14" cy="51" r="5"/><circle cx="51" cy="51" r="5"/></g><path d="M58 39H45v-8h9l4 8z" fill="#fff"/><path d="M36,20c0,7.72-6.28,14-14,14s-14-6.28-14-14h28Z" fill="#5e9fdf"/><path d="M48,44h-2c-1.34,0-1.29-2,0-2h2c1.34,0,1.29,2,0,2Z" fill="#fff"/><circle cx="22" cy="20" r="12" fill="#d38e2a"/><circle cx="22" cy="20" r="10" fill="#f3f3f3"/><path d="M23 19v-6c0-1.34-2-1.29-2 0v6c0 .81.63 2 2 2h4c1.34 0 1.29-2 0-2h-4z" fill="#d38e2a"/><path d="M11.71 32.29c-.94-.94-2.35.48-1.41 1.41l.29.29H5c-1.32 0-1.32 2 0 2h5.59l-.29.29c-.94.94.48 2.35 1.41 1.41 3.07-3.07 3.07-2.34 0-5.41z" fill="#fdfdfd"/><path d="M4 41h7v2H4zm26 0h10v2H30zm4 4h6v2h-6z" fill="#fff"/><path d="M63 46v-4h-2v2c0 .81.63 2 2 2z" fill="#d38e2a"/><g fill="#5e9fdf"><circle cx="14" cy="51" r="2"/><circle cx="51" cy="51" r="2"/></g></svg>