<svg width="56" height="56" viewBox="0 0 56 56" fill="none" xmlns="http://www.w3.org/2000/svg">
<g clip-path="url(#clip0_22_233)">
<path d="M0 8C0 3.58172 3.58172 0 8 0H48C52.4183 0 56 3.58172 56 8V48C56 52.4183 52.4183 56 48 56H8C3.58172 56 0 52.4183 0 48V8Z" fill="#3377FF"/>
<mask id="path-2-inside-1_22_233" fill="white">
<path d="M30.4 36.75H25.6C21.21 36.75 19.25 34.79 19.25 30.4V25.6C19.25 21.21 21.21 19.25 25.6 19.25H30.4C34.79 19.25 36.75 21.21 36.75 25.6V30.4C36.75 34.79 34.79 36.75 30.4 36.75ZM25.6 20.75C22.02 20.75 20.75 22.02 20.75 25.6V30.4C20.75 33.98 22.02 35.25 25.6 35.25H30.4C33.98 35.25 35.25 33.98 35.25 30.4V25.6C35.25 22.02 33.98 20.75 30.4 20.75H25.6Z"/>
</mask>
<path d="M30.4 36.75H25.6C21.21 36.75 19.25 34.79 19.25 30.4V25.6C19.25 21.21 21.21 19.25 25.6 19.25H30.4C34.79 19.25 36.75 21.21 36.75 25.6V30.4C36.75 34.79 34.79 36.75 30.4 36.75ZM25.6 20.75C22.02 20.75 20.75 22.02 20.75 25.6V30.4C20.75 33.98 22.02 35.25 25.6 35.25H30.4C33.98 35.25 35.25 33.98 35.25 30.4V25.6C35.25 22.02 33.98 20.75 30.4 20.75H25.6Z" fill="#171717"/>
<path d="M30.4 35.25H25.6V38.25H30.4V35.25ZM25.6 35.25C23.5936 35.25 22.4772 34.7984 21.8394 34.1606C21.2016 33.5228 20.75 32.4064 20.75 30.4H17.75C17.75 32.7836 18.2784 34.8422 19.7181 36.2819C21.1578 37.7216 23.2164 38.25 25.6 38.25V35.25ZM20.75 30.4V25.6H17.75V30.4H20.75ZM20.75 25.6C20.75 23.5936 21.2016 22.4772 21.8394 21.8394C22.4772 21.2016 23.5936 20.75 25.6 20.75V17.75C23.2164 17.75 21.1578 18.2784 19.7181 19.7181C18.2784 21.1578 17.75 23.2164 17.75 25.6H20.75ZM25.6 20.75H30.4V17.75H25.6V20.75ZM30.4 20.75C32.4064 20.75 33.5228 21.2016 34.1606 21.8394C34.7984 22.4772 35.25 23.5936 35.25 25.6H38.25C38.25 23.2164 37.7216 21.1578 36.2819 19.7181C34.8422 18.2784 32.7836 17.75 30.4 17.75V20.75ZM35.25 25.6V30.4H38.25V25.6H35.25ZM35.25 30.4C35.25 32.4064 34.7984 33.5228 34.1606 34.1606C33.5228 34.7984 32.4064 35.25 30.4 35.25V38.25C32.7836 38.25 34.8422 37.7216 36.2819 36.2819C37.7216 34.8422 38.25 32.7836 38.25 30.4H35.25ZM25.6 19.25C23.7052 19.25 21.9734 19.5703 20.7718 20.7718C19.5703 21.9734 19.25 23.7052 19.25 25.6H22.25C22.25 23.9148 22.5647 23.2216 22.8932 22.8932C23.2216 22.5647 23.9148 22.25 25.6 22.25V19.25ZM19.25 25.6V30.4H22.25V25.6H19.25ZM19.25 30.4C19.25 32.2948 19.5703 34.0266 20.7718 35.2282C21.9734 36.4297 23.7052 36.75 25.6 36.75V33.75C23.9148 33.75 23.2216 33.4353 22.8932 33.1068C22.5647 32.7784 22.25 32.0852 22.25 30.4H19.25ZM25.6 36.75H30.4V33.75H25.6V36.75ZM30.4 36.75C32.2948 36.75 34.0266 36.4297 35.2282 35.2282C36.4297 34.0266 36.75 32.2948 36.75 30.4H33.75C33.75 32.0852 33.4353 32.7784 33.1068 33.1068C32.7784 33.4353 32.0852 33.75 30.4 33.75V36.75ZM36.75 30.4V25.6H33.75V30.4H36.75ZM36.75 25.6C36.75 23.7052 36.4297 21.9734 35.2282 20.7718C34.0266 19.5703 32.2948 19.25 30.4 19.25V22.25C32.0852 22.25 32.7784 22.5647 33.1068 22.8932C33.4353 23.2216 33.75 23.9148 33.75 25.6H36.75ZM30.4 19.25H25.6V22.25H30.4V19.25Z" fill="white" mask="url(#path-2-inside-1_22_233)"/>
<mask id="path-4-inside-2_22_233" fill="white">
<path d="M29.5 33.75H26.5C23.6 33.75 22.25 32.4 22.25 29.5V26.5C22.25 23.6 23.6 22.25 26.5 22.25H29.5C32.4 22.25 33.75 23.6 33.75 26.5V29.5C33.75 32.4 32.4 33.75 29.5 33.75ZM26.5 23.75C24.42 23.75 23.75 24.42 23.75 26.5V29.5C23.75 31.58 24.42 32.25 26.5 32.25H29.5C31.58 32.25 32.25 31.58 32.25 29.5V26.5C32.25 24.42 31.58 23.75 29.5 23.75H26.5Z"/>
</mask>
<path d="M29.5 33.75H26.5C23.6 33.75 22.25 32.4 22.25 29.5V26.5C22.25 23.6 23.6 22.25 26.5 22.25H29.5C32.4 22.25 33.75 23.6 33.75 26.5V29.5C33.75 32.4 32.4 33.75 29.5 33.75ZM26.5 23.75C24.42 23.75 23.75 24.42 23.75 26.5V29.5C23.75 31.58 24.42 32.25 26.5 32.25H29.5C31.58 32.25 32.25 31.58 32.25 29.5V26.5C32.25 24.42 31.58 23.75 29.5 23.75H26.5Z" fill="#171717"/>
<path d="M29.5 32.25H26.5V35.25H29.5V32.25ZM26.5 32.25C25.2542 32.25 24.6545 31.9582 24.3482 31.6518C24.0418 31.3455 23.75 30.7458 23.75 29.5H20.75C20.75 31.1542 21.1332 32.6795 22.2268 33.7732C23.3205 34.8668 24.8458 35.25 26.5 35.25V32.25ZM23.75 29.5V26.5H20.75V29.5H23.75ZM23.75 26.5C23.75 25.2542 24.0418 24.6545 24.3482 24.3482C24.6545 24.0418 25.2542 23.75 26.5 23.75V20.75C24.8458 20.75 23.3205 21.1332 22.2268 22.2268C21.1332 23.3205 20.75 24.8458 20.75 26.5H23.75ZM26.5 23.75H29.5V20.75H26.5V23.75ZM29.5 23.75C30.7458 23.75 31.3455 24.0418 31.6518 24.3482C31.9582 24.6545 32.25 25.2542 32.25 26.5H35.25C35.25 24.8458 34.8668 23.3205 33.7732 22.2268C32.6795 21.1332 31.1542 20.75 29.5 20.75V23.75ZM32.25 26.5V29.5H35.25V26.5H32.25ZM32.25 29.5C32.25 30.7458 31.9582 31.3455 31.6518 31.6518C31.3455 31.9582 30.7458 32.25 29.5 32.25V35.25C31.1542 35.25 32.6795 34.8668 33.7732 33.7732C34.8668 32.6795 35.25 31.1542 35.25 29.5H32.25ZM26.5 22.25C25.3887 22.25 24.161 22.4076 23.2843 23.2843C22.4076 24.161 22.25 25.3887 22.25 26.5H25.25C25.25 25.5313 25.4274 25.384 25.4057 25.4057C25.384 25.4274 25.5313 25.25 26.5 25.25V22.25ZM22.25 26.5V29.5H25.25V26.5H22.25ZM22.25 29.5C22.25 30.6113 22.4076 31.839 23.2843 32.7157C24.161 33.5924 25.3887 33.75 26.5 33.75V30.75C25.5313 30.75 25.384 30.5726 25.4057 30.5943C25.4274 30.616 25.25 30.4687 25.25 29.5H22.25ZM26.5 33.75H29.5V30.75H26.5V33.75ZM29.5 33.75C30.6113 33.75 31.839 33.5924 32.7157 32.7157C33.5924 31.839 33.75 30.6113 33.75 29.5H30.75C30.75 30.4687 30.5726 30.616 30.5943 30.5943C30.616 30.5726 30.4687 30.75 29.5 30.75V33.75ZM33.75 29.5V26.5H30.75V29.5H33.75ZM33.75 26.5C33.75 25.3887 33.5924 24.161 32.7157 23.2843C31.839 22.4076 30.6113 22.25 29.5 22.25V25.25C30.4687 25.25 30.616 25.4274 30.5943 25.4057C30.5726 25.384 30.75 25.5313 30.75 26.5H33.75ZM29.5 22.25H26.5V25.25H29.5V22.25Z" fill="white" mask="url(#path-4-inside-2_22_233)"/>
<mask id="path-6-inside-3_22_233" fill="white">
<path d="M24.01 20.75C23.59 20.75 23.26 20.41 23.26 20V18C23.26 17.59 23.6 17.25 24.01 17.25C24.42 17.25 24.76 17.59 24.76 18V20C24.76 20.41 24.42 20.75 24.01 20.75Z"/>
</mask>
<path d="M24.01 20.75C23.59 20.75 23.26 20.41 23.26 20V18C23.26 17.59 23.6 17.25 24.01 17.25C24.42 17.25 24.76 17.59 24.76 18V20C24.76 20.41 24.42 20.75 24.01 20.75Z" fill="#171717"/>
<path d="M24.01 19.25C24.4314 19.25 24.76 19.5946 24.76 20H21.76C21.76 21.2254 22.7486 22.25 24.01 22.25V19.25ZM24.76 20V18H21.76V20H24.76ZM24.76 18C24.76 18.4184 24.4284 18.75 24.01 18.75V15.75C22.7716 15.75 21.76 16.7616 21.76 18H24.76ZM24.01 18.75C23.5916 18.75 23.26 18.4184 23.26 18H26.26C26.26 16.7616 25.2484 15.75 24.01 15.75V18.75ZM23.26 18V20H26.26V18H23.26ZM23.26 20C23.26 19.5816 23.5916 19.25 24.01 19.25V22.25C25.2484 22.25 26.26 21.2384 26.26 20H23.26Z" fill="white" mask="url(#path-6-inside-3_22_233)"/>
<mask id="path-8-inside-4_22_233" fill="white">
<path d="M28 20.75C27.59 20.75 27.25 20.41 27.25 20V18C27.25 17.59 27.59 17.25 28 17.25C28.41 17.25 28.75 17.59 28.75 18V20C28.75 20.41 28.41 20.75 28 20.75Z"/>
</mask>
<path d="M28 20.75C27.59 20.75 27.25 20.41 27.25 20V18C27.25 17.59 27.59 17.25 28 17.25C28.41 17.25 28.75 17.59 28.75 18V20C28.75 20.41 28.41 20.75 28 20.75Z" fill="#171717"/>
<path d="M28 19.25C28.4184 19.25 28.75 19.5816 28.75 20H25.75C25.75 21.2384 26.7616 22.25 28 22.25V19.25ZM28.75 20V18H25.75V20H28.75ZM28.75 18C28.75 18.4184 28.4184 18.75 28 18.75V15.75C26.7616 15.75 25.75 16.7616 25.75 18H28.75ZM28 18.75C27.5816 18.75 27.25 18.4184 27.25 18H30.25C30.25 16.7616 29.2384 15.75 28 15.75V18.75ZM27.25 18V20H30.25V18H27.25ZM27.25 20C27.25 19.5816 27.5816 19.25 28 19.25V22.25C29.2384 22.25 30.25 21.2384 30.25 20H27.25Z" fill="white" mask="url(#path-8-inside-4_22_233)"/>
<mask id="path-10-inside-5_22_233" fill="white">
<path d="M32 20.75C31.59 20.75 31.25 20.41 31.25 20V18C31.25 17.59 31.59 17.25 32 17.25C32.41 17.25 32.75 17.59 32.75 18V20C32.75 20.41 32.41 20.75 32 20.75Z"/>
</mask>
<path d="M32 20.75C31.59 20.75 31.25 20.41 31.25 20V18C31.25 17.59 31.59 17.25 32 17.25C32.41 17.25 32.75 17.59 32.75 18V20C32.75 20.41 32.41 20.75 32 20.75Z" fill="#171717"/>
<path d="M32 19.25C32.4184 19.25 32.75 19.5816 32.75 20H29.75C29.75 21.2384 30.7616 22.25 32 22.25V19.25ZM32.75 20V18H29.75V20H32.75ZM32.75 18C32.75 18.4184 32.4184 18.75 32 18.75V15.75C30.7616 15.75 29.75 16.7616 29.75 18H32.75ZM32 18.75C31.5816 18.75 31.25 18.4184 31.25 18H34.25C34.25 16.7616 33.2384 15.75 32 15.75V18.75ZM31.25 18V20H34.25V18H31.25ZM31.25 20C31.25 19.5816 31.5816 19.25 32 19.25V22.25C33.2384 22.25 34.25 21.2384 34.25 20H31.25Z" fill="white" mask="url(#path-10-inside-5_22_233)"/>
<mask id="path-12-inside-6_22_233" fill="white">
<path d="M38 24.75H36C35.59 24.75 35.25 24.41 35.25 24C35.25 23.59 35.59 23.25 36 23.25H38C38.41 23.25 38.75 23.59 38.75 24C38.75 24.41 38.42 24.75 38 24.75Z"/>
</mask>
<path d="M38 24.75H36C35.59 24.75 35.25 24.41 35.25 24C35.25 23.59 35.59 23.25 36 23.25H38C38.41 23.25 38.75 23.59 38.75 24C38.75 24.41 38.42 24.75 38 24.75Z" fill="#171717"/>
<path d="M38 23.25H36V26.25H38V23.25ZM36 23.25C36.4184 23.25 36.75 23.5816 36.75 24H33.75C33.75 25.2384 34.7616 26.25 36 26.25V23.25ZM36.75 24C36.75 24.4184 36.4184 24.75 36 24.75V21.75C34.7616 21.75 33.75 22.7616 33.75 24H36.75ZM36 24.75H38V21.75H36V24.75ZM38 24.75C37.5816 24.75 37.25 24.4184 37.25 24H40.25C40.25 22.7616 39.2384 21.75 38 21.75V24.75ZM37.25 24C37.25 23.5946 37.5786 23.25 38 23.25V26.25C39.2614 26.25 40.25 25.2254 40.25 24H37.25Z" fill="white" mask="url(#path-12-inside-6_22_233)"/>
<mask id="path-14-inside-7_22_233" fill="white">
<path d="M38 28.75H36C35.59 28.75 35.25 28.41 35.25 28C35.25 27.59 35.59 27.25 36 27.25H38C38.41 27.25 38.75 27.59 38.75 28C38.75 28.41 38.42 28.75 38 28.75Z"/>
</mask>
<path d="M38 28.75H36C35.59 28.75 35.25 28.41 35.25 28C35.25 27.59 35.59 27.25 36 27.25H38C38.41 27.25 38.75 27.59 38.75 28C38.75 28.41 38.42 28.75 38 28.75Z" fill="#171717"/>
<path d="M38 27.25H36V30.25H38V27.25ZM36 27.25C36.4184 27.25 36.75 27.5816 36.75 28H33.75C33.75 29.2384 34.7616 30.25 36 30.25V27.25ZM36.75 28C36.75 28.4184 36.4184 28.75 36 28.75V25.75C34.7616 25.75 33.75 26.7616 33.75 28H36.75ZM36 28.75H38V25.75H36V28.75ZM38 28.75C37.5816 28.75 37.25 28.4184 37.25 28H40.25C40.25 26.7616 39.2384 25.75 38 25.75V28.75ZM37.25 28C37.25 27.5946 37.5786 27.25 38 27.25V30.25C39.2614 30.25 40.25 29.2254 40.25 28H37.25Z" fill="white" mask="url(#path-14-inside-7_22_233)"/>
<mask id="path-16-inside-8_22_233" fill="white">
<path d="M38 32.75H36C35.59 32.75 35.25 32.41 35.25 32C35.25 31.59 35.59 31.25 36 31.25H38C38.41 31.25 38.75 31.59 38.75 32C38.75 32.41 38.42 32.75 38 32.75Z"/>
</mask>
<path d="M38 32.75H36C35.59 32.75 35.25 32.41 35.25 32C35.25 31.59 35.59 31.25 36 31.25H38C38.41 31.25 38.75 31.59 38.75 32C38.75 32.41 38.42 32.75 38 32.75Z" fill="#171717"/>
<path d="M38 31.25H36V34.25H38V31.25ZM36 31.25C36.4184 31.25 36.75 31.5816 36.75 32H33.75C33.75 33.2384 34.7616 34.25 36 34.25V31.25ZM36.75 32C36.75 32.4184 36.4184 32.75 36 32.75V29.75C34.7616 29.75 33.75 30.7616 33.75 32H36.75ZM36 32.75H38V29.75H36V32.75ZM38 32.75C37.5816 32.75 37.25 32.4184 37.25 32H40.25C40.25 30.7616 39.2384 29.75 38 29.75V32.75ZM37.25 32C37.25 31.5946 37.5786 31.25 38 31.25V34.25C39.2614 34.25 40.25 33.2254 40.25 32H37.25Z" fill="white" mask="url(#path-16-inside-8_22_233)"/>
<mask id="path-18-inside-9_22_233" fill="white">
<path d="M32 38.75C31.59 38.75 31.25 38.41 31.25 38V36C31.25 35.59 31.59 35.25 32 35.25C32.41 35.25 32.75 35.59 32.75 36V38C32.75 38.41 32.41 38.75 32 38.75Z"/>
</mask>
<path d="M32 38.75C31.59 38.75 31.25 38.41 31.25 38V36C31.25 35.59 31.59 35.25 32 35.25C32.41 35.25 32.75 35.59 32.75 36V38C32.75 38.41 32.41 38.75 32 38.75Z" fill="#171717"/>
<path d="M32 37.25C32.4184 37.25 32.75 37.5816 32.75 38H29.75C29.75 39.2384 30.7616 40.25 32 40.25V37.25ZM32.75 38V36H29.75V38H32.75ZM32.75 36C32.75 36.4184 32.4184 36.75 32 36.75V33.75C30.7616 33.75 29.75 34.7616 29.75 36H32.75ZM32 36.75C31.5816 36.75 31.25 36.4184 31.25 36H34.25C34.25 34.7616 33.2384 33.75 32 33.75V36.75ZM31.25 36V38H34.25V36H31.25ZM31.25 38C31.25 37.5816 31.5816 37.25 32 37.25V40.25C33.2384 40.25 34.25 39.2384 34.25 38H31.25Z" fill="white" mask="url(#path-18-inside-9_22_233)"/>
<mask id="path-20-inside-10_22_233" fill="white">
<path d="M28.01 38.75C27.6 38.75 27.26 38.41 27.26 38V36C27.26 35.59 27.6 35.25 28.01 35.25C28.42 35.25 28.76 35.59 28.76 36V38C28.76 38.41 28.42 38.75 28.01 38.75Z"/>
</mask>
<path d="M28.01 38.75C27.6 38.75 27.26 38.41 27.26 38V36C27.26 35.59 27.6 35.25 28.01 35.25C28.42 35.25 28.76 35.59 28.76 36V38C28.76 38.41 28.42 38.75 28.01 38.75Z" fill="#171717"/>
<path d="M28.01 37.25C28.4284 37.25 28.76 37.5816 28.76 38H25.76C25.76 39.2384 26.7716 40.25 28.01 40.25V37.25ZM28.76 38V36H25.76V38H28.76ZM28.76 36C28.76 36.4184 28.4284 36.75 28.01 36.75V33.75C26.7716 33.75 25.76 34.7616 25.76 36H28.76ZM28.01 36.75C27.5916 36.75 27.26 36.4184 27.26 36H30.26C30.26 34.7616 29.2484 33.75 28.01 33.75V36.75ZM27.26 36V38H30.26V36H27.26ZM27.26 38C27.26 37.5816 27.5916 37.25 28.01 37.25V40.25C29.2484 40.25 30.26 39.2384 30.26 38H27.26Z" fill="white" mask="url(#path-20-inside-10_22_233)"/>
<mask id="path-22-inside-11_22_233" fill="white">
<path d="M24.01 38.75C23.6 38.75 23.26 38.41 23.26 38V36C23.26 35.59 23.6 35.25 24.01 35.25C24.42 35.25 24.76 35.59 24.76 36V38C24.76 38.41 24.42 38.75 24.01 38.75Z"/>
</mask>
<path d="M24.01 38.75C23.6 38.75 23.26 38.41 23.26 38V36C23.26 35.59 23.6 35.25 24.01 35.25C24.42 35.25 24.76 35.59 24.76 36V38C24.76 38.41 24.42 38.75 24.01 38.75Z" fill="#171717"/>
<path d="M24.01 37.25C24.4284 37.25 24.76 37.5816 24.76 38H21.76C21.76 39.2384 22.7716 40.25 24.01 40.25V37.25ZM24.76 38V36H21.76V38H24.76ZM24.76 36C24.76 36.4184 24.4284 36.75 24.01 36.75V33.75C22.7716 33.75 21.76 34.7616 21.76 36H24.76ZM24.01 36.75C23.5916 36.75 23.26 36.4184 23.26 36H26.26C26.26 34.7616 25.2484 33.75 24.01 33.75V36.75ZM23.26 36V38H26.26V36H23.26ZM23.26 38C23.26 37.5816 23.5916 37.25 24.01 37.25V40.25C25.2484 40.25 26.26 39.2384 26.26 38H23.26Z" fill="white" mask="url(#path-22-inside-11_22_233)"/>
<mask id="path-24-inside-12_22_233" fill="white">
<path d="M20 24.75H18C17.59 24.75 17.25 24.42 17.25 24C17.25 23.58 17.59 23.25 18 23.25H20C20.41 23.25 20.75 23.59 20.75 24C20.75 24.41 20.42 24.75 20 24.75Z"/>
</mask>
<path d="M20 24.75H18C17.59 24.75 17.25 24.42 17.25 24C17.25 23.58 17.59 23.25 18 23.25H20C20.41 23.25 20.75 23.59 20.75 24C20.75 24.41 20.42 24.75 20 24.75Z" fill="#171717"/>
<path d="M20 23.25H18V26.25H20V23.25ZM18 23.25C18.4054 23.25 18.75 23.5786 18.75 24H15.75C15.75 25.2614 16.7746 26.25 18 26.25V23.25ZM18.75 24C18.75 24.4214 18.4054 24.75 18 24.75V21.75C16.7746 21.75 15.75 22.7386 15.75 24H18.75ZM18 24.75H20V21.75H18V24.75ZM20 24.75C19.5816 24.75 19.25 24.4184 19.25 24H22.25C22.25 22.7616 21.2384 21.75 20 21.75V24.75ZM19.25 24C19.25 23.5946 19.5786 23.25 20 23.25V26.25C21.2614 26.25 22.25 25.2254 22.25 24H19.25Z" fill="white" mask="url(#path-24-inside-12_22_233)"/>
<mask id="path-26-inside-13_22_233" fill="white">
<path d="M20 28.75H18C17.59 28.75 17.25 28.41 17.25 28C17.25 27.59 17.59 27.25 18 27.25H20C20.41 27.25 20.75 27.59 20.75 28C20.75 28.41 20.42 28.75 20 28.75Z"/>
</mask>
<path d="M20 28.75H18C17.59 28.75 17.25 28.41 17.25 28C17.25 27.59 17.59 27.25 18 27.25H20C20.41 27.25 20.75 27.59 20.75 28C20.75 28.41 20.42 28.75 20 28.75Z" fill="#171717"/>
<path d="M20 27.25H18V30.25H20V27.25ZM18 27.25C18.4184 27.25 18.75 27.5816 18.75 28H15.75C15.75 29.2384 16.7616 30.25 18 30.25V27.25ZM18.75 28C18.75 28.4184 18.4184 28.75 18 28.75V25.75C16.7616 25.75 15.75 26.7616 15.75 28H18.75ZM18 28.75H20V25.75H18V28.75ZM20 28.75C19.5816 28.75 19.25 28.4184 19.25 28H22.25C22.25 26.7616 21.2384 25.75 20 25.75V28.75ZM19.25 28C19.25 27.5946 19.5786 27.25 20 27.25V30.25C21.2614 30.25 22.25 29.2254 22.25 28H19.25Z" fill="white" mask="url(#path-26-inside-13_22_233)"/>
<mask id="path-28-inside-14_22_233" fill="white">
<path d="M20 32.75H18C17.59 32.75 17.25 32.41 17.25 32C17.25 31.59 17.59 31.25 18 31.25H20C20.41 31.25 20.75 31.59 20.75 32C20.75 32.41 20.42 32.75 20 32.75Z"/>
</mask>
<path d="M20 32.75H18C17.59 32.75 17.25 32.41 17.25 32C17.25 31.59 17.59 31.25 18 31.25H20C20.41 31.25 20.75 31.59 20.75 32C20.75 32.41 20.42 32.75 20 32.75Z" fill="#171717"/>
<path d="M20 31.25H18V34.25H20V31.25ZM18 31.25C18.4184 31.25 18.75 31.5816 18.75 32H15.75C15.75 33.2384 16.7616 34.25 18 34.25V31.25ZM18.75 32C18.75 32.4184 18.4184 32.75 18 32.75V29.75C16.7616 29.75 15.75 30.7616 15.75 32H18.75ZM18 32.75H20V29.75H18V32.75ZM20 32.75C19.5816 32.75 19.25 32.4184 19.25 32H22.25C22.25 30.7616 21.2384 29.75 20 29.75V32.75ZM19.25 32C19.25 31.5946 19.5786 31.25 20 31.25V34.25C21.2614 34.25 22.25 33.2254 22.25 32H19.25Z" fill="white" mask="url(#path-28-inside-14_22_233)"/>
</g>
<defs>
<clipPath id="clip0_22_233">
<rect width="56" height="56" fill="white"/>
</clipPath>
</defs>
</svg>
