<svg xmlns="http://www.w3.org/2000/svg" xmlns:xlink="http://www.w3.org/1999/xlink" viewBox="0 0 64 64" xmlns:v="https://vecta.io/nano"><g fill="#1976d2"><circle cx="17" cy="30" r="10"/><circle cx="17" cy="30" r="7"/></g><circle cx="46" cy="32" r="6" fill="#d38e2a"/><path d="M49 23.11V20.9a1.89 1.89 0 0 0-1.89-1.89c-1.27 0-1.71-1.06-1.79-1.29a13.58 13.58 0 0 0-.86-2.08c-.7-1.36.55-2.39.35-2.19.74-.74.74-1.94 0-2.68L43.24 9.2c-.74-.74-1.94-.74-2.68 0-.95.95-2.08.4-2.19.35a13.58 13.58 0 0 0-2.08-.86C34.84 8.22 35 6.63 35 6.9a1.89 1.89 0 0 0-1.89-1.89H30.9a1.89 1.89 0 0 0-1.89 1.89c0 1.27-1.06 1.71-1.29 1.79a13.58 13.58 0 0 0-2.08.86c-1.36.7-2.39-.55-2.19-.35-.74-.74-1.94-.74-2.68 0l-1.57 1.57c-.74.74-.74 1.94 0 2.68.95.95.4 2.08.35 2.19a13.58 13.58 0 0 0-.86 2.08c-.47 1.45-2.06 1.29-1.79 1.29a1.89 1.89 0 0 0-1.89 1.89v2.21A1.89 1.89 0 0 0 16.9 25c1.27 0 1.71 1.06 1.79 1.29a13.58 13.58 0 0 0 .86 2.08c.7 1.36-.55 2.39-.35 2.19-.74.74-.74 1.94 0 2.68l1.57 1.57c.74.74 1.94.74 2.68 0 .95-.95 2.08-.4 2.19-.35a13.58 13.58 0 0 0 2.08.86c1.45.47 1.29 2.06 1.29 1.79A1.89 1.89 0 0 0 30.9 39h2.21A1.89 1.89 0 0 0 35 37.11c0-1.27 1.06-1.71 1.29-1.79a13.58 13.58 0 0 0 2.08-.86c1.36-.7 2.39.55 2.19.35.74.74 1.94.74 2.68 0l1.57-1.57c.74-.74.74-1.94 0-2.68-.95-.95-.4-2.08-.35-2.19a13.58 13.58 0 0 0 .86-2.08c.47-1.45 2.06-1.29 1.79-1.29A1.89 1.89 0 0 0 49 23.11z" fill="#e4c290"/><g fill="#d38e2a"><circle cx="32" cy="22" r="10"/><use xlink:href="#B"/><use xlink:href="#B" x="-54" y="-2"/></g><path d="M28 26c-.26 0-.51-.1-.71-.29l-3-3c-.39-.39-.39-1.02 0-1.41l3-3c.39-.39 1.02-.39 1.41 0s.39 1.02 0 1.41L26.41 22l2.29 2.29a1.01 1.01 0 0 1-.71 1.71zm8 0c-.88 0-1.34-1.07-.71-1.71L37.58 22l-2.29-2.29c-.39-.39-.39-1.02 0-1.41s1.02-.39 1.41 0l3 3c.39.39.39 1.02 0 1.41l-3 3a.98.98 0 0 1-.71.29zm-5 1a1 1 0 0 1-.97-1.24l2-8a1 1 0 0 1 1.21-.73 1 1 0 0 1 .73 1.21l-2 8c-.11.45-.52.76-.97.76z" fill="#f3f3f3"/><g fill="#5e9fdf"><path d="M6,30h26v34H8c-1.1,0-2-.9-2-2V30h0Z"/><path d="M32 30h26v32c0 1.1-.9 2-2 2H32V30h0z"/><path d="M6 30l-4.59 5.35A1 1 0 0 0 2.17 37h21.17c1.06 0 2.08-.42 2.83-1.17L32 30H6z"/></g><path d="M58 30l4.59 5.35a1 1 0 0 1-.76 1.65H40.66c-1.06 0-2.08-.42-2.83-1.17L32 30h26z" fill="#1976d2"/><g fill="#f3f3f3"><rect x="9" y="57" width="8" height="4" rx="1"/><circle cx="37" cy="59" r="2"/><circle cx="44" cy="59" r="2"/></g><defs ><path id="B" d="M63.26 10.28c-1.57.85-2.7 2.39-3.1 4.2l-.14.67c-.24 1.11-1.78 1.16-2.04 0l-.14-.67c-.39-1.81-1.53-3.35-3.1-4.2-1-.54-.97-2.03 0-2.56 1.57-.85 2.7-2.39 3.1-4.2l.14-.67c.24-1.11 1.78-1.16 2.04 0l.14.67c.39 1.81 1.53 3.35 3.1 4.2 1 .54.97 2.03 0 2.56z"/></defs></svg>