<svg xmlns="http://www.w3.org/2000/svg" viewBox="0 0 64 64" xmlns:v="https://vecta.io/nano"><style><![CDATA[.F{fill:#1976d2}.G{fill:#e4c290}.H{fill:#f3f3f3}.I{fill:#5e9fdf}.J{fill:#d38e2a}]]></style><path d="M47 38.8V50H17V38.8c0-1.68 1.05-3.18 2.63-3.76L28 32h8l8.37 3.04c1.58.58 2.63 2.08 2.63 3.76z" class="I"/><path d="M32 37a4 4 0 0 1-4-4v-2h8v2a4 4 0 0 1-4 4z" class="J"/><path d="M32 33a8 8 0 0 1-8-8v-7h16v7a8 8 0 0 1-8 8z" class="G"/><path d="M48 44v16H16V44c0-.74.4-1.38 1-1.73.66-.39-1.64-.27 29-.27 1.07 0 2 .87 2 2z" class="I"/><path d="M16 60h32c.55 0 1 .45 1 1v1c0 1.1-.9 2-2 2H17c-1.1 0-2-.9-2-2v-1c0-.55.45-1 1-1z" class="F"/><path d="M34.89 52.79C34 56.15 29 55.49 29 52c0-2.18 2.26-3.59 4.1-2.78-1.89.96-1.18 3.78.9 3.78.32 0 .62-.07.89-.21z" class="H"/><path d="M29.11 28.55a1.01 1.01 0 0 1 1.34-.45c.97.49 2.13.49 3.11 0 1.19-.59 2.08 1.2.89 1.79-2.43 1.22-6.16.3-5.34-1.34z" class="J"/><g class="F"><path d="M22 17h2v4h-2z"/><path d="M38 18H24c-1.66 0-3-1.34-3-3V9h15c1.66 0 3 1.34 3 3 1.66 0 3 1.34 3 3v6h-2v-1c0-1.1-.9-2-2-2z"/></g><path d="M24 20v5h-.5c-1.68 0-2.85-1.61-2.41-3.15.28-1.06 1.25-1.85 2.41-1.85h.5zm16.5 5H40v-5h.5a2.5 2.5 0 1 1 0 5z" class="G"/><path d="M22 24v.5c-.77-.54-1.2-1.64-.91-2.65.56.55.91 1.31.91 2.15z" class="J"/><path d="M22 34.18c0 5.92.26 6.69-.77 7.82-3.56 0-3.64-.08-4.23.27V38.8c0-1.68 1.05-3.18 2.63-3.76l2.37-.86z" class="I"/><path d="M21.23 42c-1.11 1.23-2.4 1-4.23 1 0 .98.16 2.06-1 2.73 0-1.49-.24-2.73 1-3.46.59-.35.74-.27 4.23-.27z" class="F"/><path d="M20 25v15c0 .55-.45 1-1 1h-4v3l-4-3H1c-.55 0-1-.45-1-1V25h20z" class="H"/><path d="M64 10C64 4.1 58.89-.6 52.86.06c-7.81.86-11.72 10.29-6.46 16.43 1.8 2.1 3.11 4.57 3.56 7.29.05.31-.85.21 8.04.21 1.27-7.61 6-7.42 6-14z" class="G"/><path d="M54 30a4 4 0 0 1-4-4v-2h8v2a4 4 0 0 1-4 4z" class="H"/><path d="M51 9h6v15h-6z" class="F"/><path d="M1 23h18c.55 0 1 .45 1 1v1H0v-1c0-.55.45-1 1-1z" class="G"/><path d="M4 27h8v8H4z" class="F"/><circle cx="13" cy="35" r="4" class="I"/><path d="M7 31l-4 8h9l-5-8z" class="G"/><path d="M54 9h3v15h-3z" class="F"/><path d="M57 9l-3 2-3-2 3-5 3 5z" class="H"/><path d="M55.2 6h-2.4L54 4l1.2 2z" class="F"/><g class="H"><circle cx="48.55" cy="32" r="2"/><path d="M44,29c0-1.32-2-1.32-2,0s2,1.32,2,0Z"/></g></svg>