<svg xmlns="http://www.w3.org/2000/svg" viewBox="0 0 64 64" xmlns:v="https://vecta.io/nano"><rect y="12" width="64" height="50" rx="4" fill="#5e9fdf"/><path d="M55.57 12l-3 3h-15.1l2.4-1.44L41.43 12h14.14z" fill="#1976d2"/><rect x="3" y="15" width="53" height="44" rx="2" fill="#fff"/><path d="M52.57 15l-5.63 5.63-4.58 7.64-10.79 1.8a1 1 0 0 1-1.15-1.15l1.8-10.78L37.47 15h15.1z" fill="#f3f3f3"/><circle cx="60" cy="37" r="2" fill="#1976d2"/><path d="M43.94 20.8l-4.24-4.24L53.88 2.88a3 3 0 0 1 4.24 0 3 3 0 0 1 0 4.24L43.94 20.8z" fill="#d9d9d9"/><path d="M41.11,15.15l-7.07,4.24,7.07,7.07,4.24-7.07-4.24-4.24Z" fill="#d38e2a"/><path d="M41.11 26.46l-8.49 1.41 1.41-8.49 7.07 7.07z" fill="#d9d9d9"/><path d="M35.05 27.47l-2.42.4.4-2.42 2.02 2.02z" fill="#c8c8c8"/><circle cx="34" cy="45" r="10" fill="#d38e2a"/><g fill="#1976d2"><path d="M56 48.32V57c0 1.1-.9 2-2 2H5c-1.1 0-2-.9-2-2v-1.33l18.34-24.46c.82-1.09 2.46-1.06 3.24.05l9.24 13.2 8.48-12.05a2 2 0 0 1 3.31.06L56 48.33z"/><path d="M56 48.32V57c0 1.1-.9 2-2 2H5c-1.1 0-2-.9-2-2v-1.33L5 53v4h49V45.27l2 3.05z"/></g><path d="M6 20h10c.55 0 1 .45 1 1v1H5v-1c0-.55.45-1 1-1z" fill="#d9d9d9"/><path d="M5,22h12v9c0,.55-.45,1-1,1H6c-.55,0-1-.45-1-1v-9h0Z" fill="#c8c8c8"/><g fill="#d9d9d9"><path d="M5 26h12v2H5z"/><path d="M10 22h2v10h-2z"/></g><path d="M46.06 14.44c-.2-.2-.55-.86 0-1.41l2.83-2.83c.39-.39 1.02-.39 1.41 0 .2.2.55.86 0 1.41l-2.83 2.83c-.39.39-1.02.39-1.41 0zM28 28h-6c-.55 0-1-.45-1-1 0-.29.22-1 1-1h6c.55 0 1 .45 1 1 0 .29-.22 1-1 1z" fill="#d38e2a"/><g fill="#d9d9d9"><circle cx="52" cy="28" r="1"/><circle cx="52" cy="31" r="1"/></g><path d="M15 57H9c-.55 0-1-.45-1-1 0-.29.22-1 1-1h6c.55 0 1 .45 1 1 0 .29-.22 1-1 1zm6 0h-2c-.55 0-1-.45-1-1 0-.29.22-1 1-1h2c.55 0 1 .45 1 1 0 .29-.22 1-1 1z" fill="#fff"/></svg>