<svg xmlns="http://www.w3.org/2000/svg" viewBox="0 0 64 64" xmlns:v="https://vecta.io/nano"><path d="M33,7v10.18c3.15,1.08,2.37,5.82-1,5.82s-4.16-4.74-1-5.82V7l-8,14,3,5h12l3-5-8-14Z" fill="#d38e2a"/><path d="M56 1C48.52 1 76.3 1 8 1v2h14.64C14.61 6.59 9 14.65 9 24h2c0-11.58 9.42-21 21-21s21 9.42 21 21h2c0-9.35-5.61-17.41-13.64-21H56V1z" fill="#f3f3f3"/><g fill="#1976d2"><path d="M56 58h-1.38c-.85 0-1.6-.53-1.88-1.33-.26-.74-.56-1.46-.89-2.16a2 2 0 0 1 .39-2.26l.98-.98a1.99 1.99 0 0 0 0-2.82l-5.67-5.67a1.99 1.99 0 0 0-2.82 0l-.98.98a2 2 0 0 1-2.26.39l-2.16-.89c-.8-.28-1.33-1.03-1.33-1.88V40c0-1.1-.9-2-2-2h-8c-1.1 0-2 .9-2 2v1.38c0 .85-.53 1.6-1.33 1.88-.75.26-1.36.52-2.16.89a2 2 0 0 1-2.26-.39l-.98-.98a1.99 1.99 0 0 0-2.82 0l-5.67 5.67a1.99 1.99 0 0 0 0 2.82l.98.98a2 2 0 0 1 .39 2.26l-.89 2.16c-.28.8-1.03 1.33-1.88 1.33H8c-1.1 0-2 .9-2 2v4h12c0-7.79 6.35-14 14-14s14 6.2 14 14h12v-4c0-1.1-.9-2-2-2z"/><path d="M41.11 43.98l-.89 8.7c-4.81-3.52-11.48-3.63-16.44 0l-.89-8.7a18.39 18.39 0 0 1 1.78-.72c.8-.28 1.33-1.03 1.33-1.88V40c0-1.1.9-2 2-2h8c1.1 0 2 .9 2 2v1.38c0 .85.53 1.6 1.33 1.88a18.39 18.39 0 0 1 1.78.72z"/></g><g fill="#5e9fdf"><path d="M37 64H27c-1.92-17.89-3.46-25.69-1-38h12c2.57 12.87.74 21.72-1 38z"/><rect x="4" width="4" height="4" rx="1"/><rect x="56" width="4" height="4" rx="1"/><rect x="30" width="4" height="4" rx="1"/><rect x="52" y="22" width="4" height="4" rx="1"/><rect x="8" y="22" width="4" height="4" rx="1"/></g></svg>