<svg xmlns="http://www.w3.org/2000/svg" viewBox="0 0 64 64" xmlns:v="https://vecta.io/nano"><path d="M62,19V58H2V19c0-1.66,1.34-3,3-3H59c1.66,0,3,1.34,3,3Z" fill="#5e9fdf"/><path d="M1 58h62c.55 0 1 .45 1 1v2c0 1.66-1.34 3-3 3H3c-1.66 0-3-1.34-3-3v-2c0-.55.45-1 1-1z" fill="#1976d2"/><path d="M60 19v4H20l-4-5h43c.55 0 1 .45 1 1z" fill="#5e9fdf"/><path d="M60 23v33H4V19c0-.55.45-1 1-1h14.08c1.21 0 2.36.55 3.12 1.5l1.6 2c.86 1.03 1.97 1.5 3.12 1.5H60z" fill="#fff"/><path d="M39 60H25c-.81 0-2-.63-2-2h18c0 .81-.63 2-2 2z" fill="#f3f3f3"/><path d="M46 16h12v2H46z" fill="#1976d2"/><path d="M46 18h12v5H46z" fill="#5e9fdf"/><path d="M48 10h8v31h-8z" fill="#1976d2"/><path d="M52 21c.29 0 1 .22 1 1v8c0 .55-.45 1-1 1-.29 0-1-.22-1-1v-8c0-.55.45-1 1-1z" fill="#5e9fdf"/><path d="M52 4a4 4 0 0 0-4 4v2h8V8a4 4 0 0 0-4-4zm4 37l-4 7-4-7h8z" fill="#d38e2a"/><path d="M53.71 45L52 48l-1.71-3h3.42z" fill="#e4c290"/><rect x="8" y="27" width="30" height="20" rx="2" fill="#d38e2a"/><path d="M8 50h20v2H8z" fill="#d9d9d9"/><g fill="#fff"><path d="M35 45c-.39 0 1.39.97-24.5-14.14a1 1 0 1 1 1.01-1.73l24 14c.88.51.51 1.86-.5 1.86z"/><path d="M11 45c-1.02 0-1.38-1.35-.5-1.86l24-14a1 1 0 1 1 1.01 1.73l-24.5 14.14z"/></g><path d="M9 0h18c1.1 0 2 .9 2 2v2H9V0h0z" fill="#5e9fdf"/><path d="M31,16v2H5c-.55,0-1,.45-1,1v6H2v-6c0-1.66,1.34-3,3-3H31Z" fill="#1976d2"/><path d="M31 18c0 3.01.15 3.8-.54 5h-3.54c-1.13 0-2.22-.48-2.97-1.33-.14-.14-.97-1.2-1.75-2.17-.76-.95-1.91-1.5-3.12-1.5H31z" fill="#5e9fdf"/><path d="M30.46 23A3.98 3.98 0 0 1 27 25H4v-6c0-.55.45-1 1-1h14.08c1.21 0 2.36.55 3.12 1.5l1.6 2c.86 1.03 1.97 1.5 3.12 1.5h3.54z" fill="#f3f3f3"/><path d="M29 2v19c0 1.1-.9 2-2 2H2c-1.1 0-2-.9-2-2V2C0 .9.9 0 2 0h7.88c.69 0 1.31.39 1.62 1 .06.12.52 1 1.62 1H29z" fill="#fff"/><path d="M11 5h2v16h-2z" fill="#d9d9d9"/><path d="M4 7h4v2H4zm0 5h4v2H4zm0 5h4v2H4zM16 7h8v2h-8z" fill="#5e9fdf"/><path d="M16 12h8v2h-8z" fill="#d38e2a"/><path d="M16 17h4v2h-4z" fill="#5e9fdf"/><path d="M30 50h6v2h-6z" fill="#d9d9d9"/></svg>