<svg xmlns="http://www.w3.org/2000/svg" viewBox="0 0 64 64" xmlns:v="https://vecta.io/nano"><g fill="#1976d2"><path d="M59 27h-3.01c-.88 0-1.66-.58-1.91-1.42-.51-1.72-1.15-3.25-1.92-4.65-.43-.77-.28-1.73.34-2.36l2.13-2.13a1.99 1.99 0 0 0 0-2.82l-4.25-4.25a1.99 1.99 0 0 0-2.82 0l-2.13 2.13c-.63.62-1.59.77-2.36.34-1.4-.77-2.93-1.41-4.65-1.92C37.58 9.67 37 8.89 37 8.01V5c0-1.1-.9-2-2-2h-6c-1.1 0-2 .9-2 2v3.01c0 .88-.58 1.66-1.42 1.91-1.63.47-3.19 1.12-4.65 1.92-.77.43-1.73.28-2.36-.34l-2.13-2.13a1.99 1.99 0 0 0-2.82 0l-4.25 4.25a1.99 1.99 0 0 0 0 2.82l2.13 2.13c.62.63.77 1.59.34 2.36-.8 1.46-1.45 3.02-1.92 4.65-.25.84-1.03 1.42-1.91 1.42H5c-1.1 0-2 .9-2 2v6c0 1.1.9 2 2 2h3.01c.88 0 1.66.58 1.91 1.42.63 2.18 1.27 3.35 1.92 4.65.43.77.28 1.73-.34 2.36l-2.13 2.13a1.99 1.99 0 0 0 0 2.82l4.25 4.25a1.99 1.99 0 0 0 2.82 0l2.13-2.13c.63-.62 1.59-.77 2.36-.34 1.56.86 3.43 1.58 4.65 1.92.84.25 1.42 1.03 1.42 1.91V59c0 1.1.9 2 2 2h6c1.1 0 2-.9 2-2v-3.01c0-.88.58-1.66 1.42-1.91 1.63-.47 3.19-1.12 4.65-1.92.77-.43 1.73-.28 2.36.34l2.13 2.13a1.99 1.99 0 0 0 2.82 0l4.25-4.25a1.99 1.99 0 0 0 0-2.82l-2.13-2.13c-.62-.63-.77-1.59-.34-2.36.8-1.46 1.45-3.02 1.92-4.65.25-.84 1.03-1.42 1.91-1.42H59c1.1 0 2-.9 2-2v-6c0-1.1-.9-2-2-2zM32 46c-7.73 0-14-6.27-14-14s6.27-14 14-14 14 6.27 14 14-6.27 14-14 14z"/><path d="M52.5 18.57c-.62.63-.77 1.59-.34 2.36a21.53 21.53 0 0 1 1.38 3.05c-.18.02-.36.02-.54.02-7.17 0-13-5.83-13-13 0-.18 0-.36.02-.54a21.53 21.53 0 0 1 3.05 1.38c.77.43 1.73.28 2.36-.34l2.13-2.13a1.99 1.99 0 0 1 2.82 0l4.25 4.25a1.99 1.99 0 0 1 0 2.82l-2.13 2.13z"/></g><circle cx="53" cy="11" r="11" fill="#d38e2a"/><path d="M21 43c-10.25 0-9.21-.03-9.16.07.43.77.28 1.73-.34 2.36l-2.13 2.13a1.99 1.99 0 0 0 0 2.82l4.25 4.25a1.99 1.99 0 0 0 2.82 0l2.13-2.13c.63-.62 1.59-.77 2.36-.34A21.21 21.21 0 0 0 24 53.55V46a3.01 3.01 0 0 0-3-3z" fill="#1976d2"/><path d="M53 3c-4.41 0-8 3.59-8 8s3.59 8 8 8 8-3.59 8-8-3.59-8-8-8zm5.91 7h-1.96a10.72 10.72 0 0 0-1.4-4.42c1.74.82 3.02 2.46 3.35 4.42zm-7.85 0c.19-1.7.86-3.3 1.94-4.64C54.08 6.7 54.75 8.3 54.94 10h-3.88zm3.88 2c-.19 1.7-.86 3.3-1.94 4.64-1.08-1.34-1.75-2.94-1.94-4.64h3.88zm-4.5-6.42a11.02 11.02 0 0 0-1.4 4.42h-1.96c.33-1.96 1.61-3.6 3.35-4.42zM47.09 12h1.96a10.72 10.72 0 0 0 1.4 4.42c-1.74-.82-3.02-2.46-3.35-4.42zm8.47 4.42a11.02 11.02 0 0 0 1.4-4.42h1.96c-.33 1.96-1.61 3.6-3.35 4.42z" fill="#fdfdfd"/><path d="M0 48h22v15c0 .55-.45 1-1 1H1c-.55 0-1-.45-1-1V48h0z" fill="#f3f3f3"/><path d="M1 45h20c.55 0 1 .45 1 1v3H0v-3c0-.55.45-1 1-1z" fill="#5e9fdf"/><path d="M1 45h6c1.66 0 3 1.34 3 3v1H0v-3c0-.55.45-1 1-1z" fill="#f3f3f3"/><path d="M2 52h10v2H2zm0 8h10v2H2zm8-4h10v2H10zm4-4h6v2h-6zm0 8h6v2h-6zM2 56h6v2H2z" fill="#d9d9d9"/><path d="M27 37c-.56 0-.3.12-4.71-4.29-.39-.39-.39-1.02 0-1.41l4-4c.94-.94 2.35.48 1.41 1.41L24.41 32l3.29 3.29a1.01 1.01 0 0 1-.71 1.71zm10 0c-.88 0-1.34-1.07-.71-1.71L39.58 32l-3.29-3.29c-.94-.94.48-2.35 1.41-1.41l4 4c.39.39.39 1.02 0 1.41-4.37 4.37-4.15 4.29-4.71 4.29zm-7.96 1.73l4-14c.36-1.27 2.29-.72 1.92.55l-4 14c-.37 1.28-2.28.72-1.92-.55z" fill="#d38e2a"/></svg>