<svg xmlns="http://www.w3.org/2000/svg" viewBox="0 0 64 64" xmlns:v="https://vecta.io/nano"><path d="M64 3v14c0 1.66-1.34 3-3 3H48l-3 3-3-3h-3c-1.66 0-3-1.34-3-3V3c0-1.66 1.34-3 3-3h22c1.66 0 3 1.34 3 3z" fill="#e4c290"/><path d="M47 38.8V50H17V38.8c0-1.68 1.05-3.18 2.63-3.76L28 32h8l8.37 3.04c1.58.58 2.63 2.08 2.63 3.76z" fill="#5e9fdf"/><path d="M32 37a4 4 0 0 1-4-4v-2h8v2a4 4 0 0 1-4 4z" fill="#d38e2a"/><path d="M32 33a8 8 0 0 1-8-8v-5h16v5a8 8 0 0 1-8 8z" fill="#e4c290"/><path d="M48 44v16H16V44c0-.74.4-1.38 1-1.73.66-.39-1.64-.27 29-.27 1.07 0 2 .87 2 2z" fill="#5e9fdf"/><path d="M16 60h32c.55 0 1 .45 1 1v1c0 1.1-.9 2-2 2H17c-1.1 0-2-.9-2-2v-1c0-.55.45-1 1-1z" fill="#1976d2"/><path d="M42,17v3h-3c-1.66,0-3-1.34-3-3v-6c3.31,0,6,2.69,6,6Z" fill="#d38e2a"/><path d="M40 17v3H24c-1.66 0-3-1.34-3-3V9c2.2 2.2 3.5 4 6.49 4H36a4 4 0 0 1 4 4z" fill="#1976d2"/><path d="M34.89 52.79C34 56.15 29 55.49 29 52c0-2.18 2.26-3.59 4.1-2.78-1.89.96-1.18 3.78.9 3.78.32 0 .62-.07.89-.21z" fill="#f3f3f3"/><path d="M45 15c-.56 0-.3.12-4.71-4.29-.39-.39-.39-1.02 0-1.41l4-4c.94-.94 2.35.48 1.41 1.41L42.41 10l3.29 3.29a1.01 1.01 0 0 1-.71 1.71zm10 0c-.88 0-1.34-1.07-.71-1.71L57.58 10l-3.29-3.29c-.94-.94.48-2.35 1.41-1.41l4 4c.39.39.39 1.02 0 1.41-4.37 4.37-4.15 4.29-4.71 4.29z" fill="#fdfdfd"/><path d="M17 42.27V46l-1-.75c0-1.26-.17-2.3 1-2.98z" fill="#1976d2"/><path d="M22,34.18v3.82c0,1.65-1.35,3-3,3h-2v-2.2c0-1.68,1.05-3.18,2.63-3.76l2.37-.86Z" fill="#5e9fdf"/><path d="M20 23v15c0 .55-.45 1-1 1h-4v3l-4-3H1c-.55 0-1-.45-1-1V23h20z" fill="#f3f3f3"/><path d="M48.01 15.84l2-12c.22-1.31 2.19-.97 1.97.33l-2 12c-.22 1.31-2.19.98-1.97-.33z" fill="#fdfdfd"/><path d="M1 21h18c.55 0 1 .45 1 1v1H0v-1c0-.55.45-1 1-1z" fill="#e4c290"/><path d="M1 21h5c1.1 0 2 .9 2 2v1H0v-2c0-.55.45-1 1-1z" fill="#f3f3f3"/><path d="M2 26h8v2H2zm6 4h9v2H8zm4-4h5v2h-5zM2 34h8v2H2zm10 0h5v2h-5zM2 30h4v2H2z" fill="#d9d9d9"/><path d="M29.11 28.55a1.01 1.01 0 0 1 1.34-.45c.97.49 2.13.49 3.11 0 1.19-.59 2.08 1.2.89 1.79-2.43 1.22-6.16.3-5.34-1.34z" fill="#d38e2a"/></svg>