<svg xmlns="http://www.w3.org/2000/svg" viewBox="0 0 64 64" xmlns:v="https://vecta.io/nano"><path d="M62,19V58H2V19c0-1.66,1.34-3,3-3H59c1.66,0,3,1.34,3,3Z" fill="#5e9fdf"/><path d="M1 58h62c.55 0 1 .45 1 1v2c0 1.66-1.34 3-3 3H3c-1.66 0-3-1.34-3-3v-2c0-.55.45-1 1-1z" fill="#1976d2"/><path d="M60 19v4H20l-4-5h43c.55 0 1 .45 1 1z" fill="#5e9fdf"/><path d="M60 23v33H4V19c0-.55.45-1 1-1h14.08c1.21 0 2.36.55 3.12 1.5l1.75 2.17c.75.85 1.84 1.33 2.97 1.33H60zM39 60H25c-.81 0-2-.63-2-2h18c0 .81-.63 2-2 2z" fill="#f3f3f3"/><g fill="#5e9fdf"><path d="M33 14h23v-2c0-1.1-.9-2-2-2H33v4z"/><path d="M22 14h19l-3-4H22v4z"/></g><path d="M6 16h52v2H6z" fill="#1976d2"/><path d="M58,18v5H26.92c-1.14,0-2.26-.47-3.12-1.5l-1.6-2c-.76-.95-1.91-1.5-3.12-1.5H58Z" fill="#5e9fdf"/><path d="M58 23v33H6V18h13.08c1.21 0 2.36.55 3.12 1.5l1.6 2c.86 1.03 1.97 1.5 3.12 1.5H58z" fill="#d9d9d9"/><path d="M56 14v42H8V12c0-1.1.9-2 2-2h14c.63 0 1.22.3 1.6.8l1.8 2.4c.38.5.97.8 1.6.8h27z" fill="#f3f3f3"/><g fill="#d38e2a"><circle cx="11" cy="7" r="1"/><circle cx="15" cy="7" r="1"/><circle cx="19" cy="7" r="1"/></g><path d="M31 24h2v26h-2z" fill="#1976d2"/><rect x="25" y="33" width="14" height="8" rx="2" fill="#d38e2a"/><g fill="#5e9fdf"><circle cx="32" cy="23" r="6"/><ellipse cx="32" cy="49" rx="7" ry="4"/></g><path d="M12 19h12v2H12zm0 4h8v2h-8zm30 21h10v2H42zm0 4h6v2h-6z" fill="#d9d9d9"/><path d="M44 38h-1c-.55 0-1-.45-1-1s.45-1 1-1h1c.55 0 1-.45 1-1V25c0-.55-.45-1-1-1h-1c-.55 0-1-.45-1-1s.45-1 1-1h1a3.01 3.01 0 0 1 3 3v10a3.01 3.01 0 0 1-3 3zM21 50h-1a3.01 3.01 0 0 1-3-3v-8a3.01 3.01 0 0 1 3-3h1c.55 0 1 .45 1 1s-.45 1-1 1h-1c-.55 0-1 .45-1 1v8c0 .55.45 1 1 1h1c.55 0 1 .45 1 1s-.45 1-1 1z" fill="#d38e2a"/></svg>