<svg xmlns="http://www.w3.org/2000/svg" viewBox="0 0 64 64" xmlns:v="https://vecta.io/nano"><path d="M62 3v39H2V3c0-1.66 1.34-3 3-3h54c1.66 0 3 1.34 3 3z" fill="#5e9fdf"/><path d="M64 43v2c0 1.66-1.34 3-3 3H3c-1.66 0-3-1.34-3-3v-2c0-.55.45-1 1-1h62c.55 0 1 .45 1 1z" fill="#1976d2"/><path d="M60 3v4H20l-4-5h43c.55 0 1 .45 1 1z" fill="#5e9fdf"/><path d="M60 7v33H4V3c0-.55.45-1 1-1h14.08c1.21 0 2.36.55 3.12 1.5l1.6 2c.86 1.03 1.97 1.5 3.12 1.5H60z" fill="#fff"/><path d="M39 44H25c-.81 0-2-.63-2-2h18c0 .81-.63 2-2 2z" fill="#f3f3f3"/><path d="M24 11h34v2H24zm0 4h34v2H24zm0 4h34v2H24zm0 4h34v2H24zm0 4h34v2H24zM6 31h52v2H6zm0 4h52v2H6z" fill="#d9d9d9"/><g fill="#1976d2"><path d="M62 15.35V42H28v-2h32V15c.7 0 1.37.12 2 .35z"/><path d="M64,43v2c0,1.66-1.34,3-3,3H28v-6H63c.55,0,1,.45,1,1Z"/></g><path d="M60 15v25H28v-3h30v-2H28v-2h30v-2H28v-2h30v-2H28v-2h30v-2H28v-2h30v-2H28.35a5.49 5.49 0 0 1 1.19-2H58v-2h2z" fill="#f3f3f3"/><path d="M58 15v2H29.54c1.09-1.23 2.69-2 4.46-2h24zm-29.65 4H58v2H28c0-.7.12-1.37.35-2zM28 23h30v2H28zm0 4h30v2H28zm0 4h30v2H28zm0 4h30v2H28z" fill="#c8c8c8"/><rect x="30" y="17" width="34" height="40" rx="4" fill="#1976d2"/><rect x="33" y="20" width="28" height="32" rx="1" fill="#fff"/><g fill="#d38e2a"><rect x="35" y="22" width="12" height="14" rx="1"/><rect x="6" y="11" width="16" height="18" rx="2"/></g><path d="M35 38h24v2H35zm0 4h24v2H35zm0 4h24v2H35z" fill="#d9d9d9"/><path d="M64 33.54V53a4 4 0 0 1-4 4H42v-5h18c.55 0 1-.45 1-1V32.09c1.14.18 2.17.7 3 1.45z" fill="#1976d2"/><path d="M61 32.09V51c0 .55-.45 1-1 1H42v-4h17v-2H42v-2h17v-2H42v-2h17v-2H42c0-.7.12-1.37.35-2H46c.55 0 1-.45 1-1v-2.91a5.47 5.47 0 0 1 1-.09l13 .09z" fill="#f3f3f3"/><path d="M43.61 33.92c-.34-.15-.2-.03-2.61-3.25l-2.2 2.93c-.2.26-.5.4-.8.4-.83 0-1.29-.95-.8-1.6l2.55-3.4-2.55-3.4c-.33-.44-.24-1.07.2-1.4s1.07-.24 1.4.2l2.2 2.93 2.2-2.93c.33-.44.96-.53 1.4-.2s.53.96.2 1.4L42.25 29l2.55 3.4c.6.87-.27 1.9-1.19 1.52z" fill="#fff"/><path d="M47 32.09V35c0 .55-.45 1-1 1h-3.65c.27-.78.7-1.49 1.26-2.08.76.32 1.52-.34 1.37-1.1a5.97 5.97 0 0 1 2.02-.73z" fill="#e4c290"/><path d="M43.61 33.92c.4-.43.86-.8 1.37-1.1.15.76-.61 1.42-1.37 1.1z" fill="#f3f3f3"/><path d="M42 38h17v2H42zm0 4h17v2H42zm0 4h17v2H42z" fill="#c8c8c8"/><rect x="44" y="34" width="20" height="30" rx="4" fill="#1976d2"/><path d="M57.5 37c-.06.12-.52 1-1.62 1h-3.76c-.69 0-1.31-.39-1.62-1-.06-.12-.52-1-1.62-1H48c-1.1 0-2 .9-2 2v20c0 1.1.9 2 2 2h12c1.1 0 2-.9 2-2V38c0-1.1-.9-2-2-2h-.88c-.69 0-1.31.39-1.62 1z" fill="#fff"/><rect x="48" y="41" width="6" height="10" rx="1" fill="#d38e2a"/><path d="M56 41h4v2h-4zm-7-19h10v2H49zm0 4h10v2H49zm0 4h10v2H49zm7 15h4v2h-4zm0 4h4v2h-4zm-8 4h12v2H48z" fill="#d9d9d9"/><circle cx="19" cy="5" r="1" fill="#5e9fdf"/><path d="M15.3 20l4.47-5.36a1 1 0 1 0-1.54-1.28L14 18.44l-4.23-5.08a1.01 1.01 0 0 0-1.41-.13 1.01 1.01 0 0 0-.13 1.41L12.7 20l-4.47 5.36a1 1 0 1 0 1.54 1.28L14 21.56l4.23 5.08a1.01 1.01 0 0 0 1.41.13 1.01 1.01 0 0 0 .13-1.41L15.3 20z" fill="#fff"/></svg>