<svg xmlns="http://www.w3.org/2000/svg" viewBox="0 0 64 64" xmlns:v="https://vecta.io/nano"><path d="M18 32v7H6c-1.32 0-1.32 2 0 2h10v5.72l-2.86 4.76a1 1 0 0 0 .86 1.51c.77 0 .62-.09 3.86-5.49.2-.33.14-.04.14-6.51h1c.55 0 1-.45 1-1v-8c0-1.32-2-1.32-2 0zm40 6h-3v-5c0-1.32-2-1.32-2 0v6c0 .55.45 1 1 1h4c1.32 0 1.32-2 0-2zm-3 8h-9V32c0-1.32-2-1.32-2 0v10h-4c-.55 0-1 .45-1 1v2h-6V32c0-1.32-2-1.32-2 0v13h-7c-.55 0-1 .45-1 1v8c0 1.32 2 1.32 2 0v-7h6v12c0 1.32 2 1.32 2 0V47h6v10c0 .55.45 1 1 1h5c1.32 0 1.32-2 0-2h-4V44h3v3c0 .55.45 1 1 1h10c1.32 0 1.32-2 0-2z" fill="#d9d9d9"/><path d="M47 60a3.01 3.01 0 0 1-3-3 3.01 3.01 0 0 1 3-3 3.01 3.01 0 0 1 3 3 3.01 3.01 0 0 1-3 3zm0-4c-1.32 0-1.32 2 0 2s1.32-2 0-2zm-15 8a3.01 3.01 0 0 1-3-3 3.01 3.01 0 0 1 3-3 3.01 3.01 0 0 1 3 3 3.01 3.01 0 0 1-3 3zm0-4c-1.32 0-1.32 2 0 2s1.32-2 0-2zm-8-1a3.01 3.01 0 0 1-3-3 3.01 3.01 0 0 1 3-3 3.01 3.01 0 0 1 3 3 3.01 3.01 0 0 1-3 3zm0-4c-1.32 0-1.32 2 0 2s1.32-2 0-2zM4 43a3.01 3.01 0 0 1-3-3 3.01 3.01 0 0 1 3-3 3.01 3.01 0 0 1 3 3 3.01 3.01 0 0 1-3 3zm0-4c-1.32 0-1.32 2 0 2s1.32-2 0-2zm56 3a3.01 3.01 0 0 1-3-3 3.01 3.01 0 0 1 3-3 3.01 3.01 0 0 1 3 3 3.01 3.01 0 0 1-3 3zm0-4c-1.32 0-1.32 2 0 2s1.32-2 0-2zm-3 12a3.01 3.01 0 0 1-3-3 3.01 3.01 0 0 1 3-3 3.01 3.01 0 0 1 3 3 3.01 3.01 0 0 1-3 3zm0-4c-1.32 0-1.32 2 0 2s1.32-2 0-2zM12 56a3.01 3.01 0 0 1-3-3 3.01 3.01 0 0 1 3-3 3.01 3.01 0 0 1 3 3 3.01 3.01 0 0 1-3 3zm0-4c-1.32 0-1.32 2 0 2s1.32-2 0-2z" fill="#d38e2a"/><path d="M64,32H0C0,14.33,14.33,0,32,0s32,14.33,32,32Z" fill="#5e9fdf"/><path d="M64 32H40c0-3.7-.34-5.6 1.23-7.44l3.54-4.13C46.22 18.74 46 16.76 46 17.1c0-2.82 2.29-5.11 5.11-5.11h5.87c4.38 5.43 7.02 12.44 7.02 20zM32 0v13.5a2.5 2.5 0 0 1-2.5 2.5 2.5 2.5 0 0 0-2.5 2.5v1a2.5 2.5 0 0 1-2.5 2.5c-1.93 0-3.5 1.57-3.5 3.5S19.43 29 17.5 29h-.72a4.23 4.23 0 0 1-3.88-2.56C11.75 23.75 9.1 22 6.16 22H1.59C5.79 9.23 17.82 0 32 0z" fill="#1976d2"/></svg>