<svg xmlns="http://www.w3.org/2000/svg" viewBox="0 0 64 64" xmlns:v="https://vecta.io/nano"><path d="M48 8v48c0 3.64-2.43 6.71-5.75 7.68-1.52.45-.39.32-26.25.32a8 8 0 0 1-8-8V8a8 8 0 0 1 8-8h24c4.4 0 8 3.57 8 8z" fill="#5e9fdf"/><path d="M45 9v45c0 3.31-2.69 6-6 6H17c-3.31 0-6-2.69-6-6V9c0-3.31 2.69-6 6-6h3.29a.98.98 0 0 1 .94.68l.31.95A2.01 2.01 0 0 0 23.44 6h9.12a2.01 2.01 0 0 0 1.9-1.37l.31-.94a1 1 0 0 1 .95-.69H39c3.31 0 6 2.69 6 6z" fill="#fff"/><path d="M38 58H18c-.55 0-1-.45-1-1 0-.29.22-1 1-1h20c.55 0 1 .45 1 1 0 .29-.22 1-1 1z" fill="#d9d9d9"/><g fill="#5e9fdf"><path d="M37 51H19a4 4 0 1 1 0-8h18a4 4 0 1 1 0 8z"/><path d="M37 49H19c-1.1 0-2-.9-2-2 0-.81.63-2 2-2h18c1.1 0 2 .9 2 2 0 .81-.63 2-2 2z"/></g><circle cx="20" cy="47" r="5" fill="#1976d2"/><g fill="#5e9fdf"><path d="M37 27H19a4 4 0 1 1 0-8h18a4 4 0 1 1 0 8z"/><path d="M37 25H19c-1.1 0-2-.9-2-2 0-.81.63-2 2-2h18c1.1 0 2 .9 2 2 0 .81-.63 2-2 2z"/></g><circle cx="20" cy="23" r="5" fill="#1976d2"/><g fill="#5e9fdf"><path d="M19 39h18a4 4 0 1 0 0-8H19a4 4 0 1 0 0 8z"/><path d="M19 37h18c1.1 0 2-.9 2-2 0-.81-.63-2-2-2H19c-1.1 0-2 .9-2 2 0 .81.63 2 2 2z"/></g><circle cx="36" cy="35" r="5" fill="#1976d2"/><path d="M48 8v11.95a10.83 10.83 0 0 1-3-.13V9c0-3.31-2.69-6-6-6h-1.21A10.89 10.89 0 0 1 40.64.03C44.76.35 48 3.8 48 8z" fill="#5e9fdf"/><path d="M45 9v10.82C37.24 18.39 33.53 9.46 37.79 3H39c3.31 0 6 2.69 6 6z" fill="#f3f3f3"/><circle cx="47" cy="9" r="9" fill="#fff"/><path d="M52.73 6.93l-1.07-1.86a.93.93 0 0 0-1.27-.34h0c-.62.36-1.39-.09-1.39-.8h0c0-.51-.42-.93-.93-.93h-2.14c-.51 0-.93.42-.93.93h0c0 .71-.77 1.16-1.39.8h0c-.44-.26-1.01-.1-1.27.34l-1.07 1.86c-.26.44-.1 1.01.34 1.27h0a.93.93 0 0 1 0 1.61h0a.93.93 0 0 0-.34 1.27l1.07 1.86a.93.93 0 0 0 1.27.34h0c.62-.36 1.39.09 1.39.8h0c0 .51.42.93.93.93h2.14c.51 0 .93-.42.93-.93h0c0-.71.77-1.16 1.39-.8h0c.44.26 1.01.1 1.27-.34l1.07-1.86c.26-.44.1-1.01-.34-1.27h0a.93.93 0 0 1 0-1.61h0a.93.93 0 0 0 .34-1.27z" fill="#d38e2a"/><circle cx="47" cy="9" r="2" fill="#fff"/><g fill="#d9d9d9"><circle cx="15" cy="9" r="1"/><circle cx="19" cy="9" r="1"/><path d="M14 12h8v2h-8z"/></g></svg>