<svg xmlns="http://www.w3.org/2000/svg" viewBox="0 0 64 64" xmlns:v="https://vecta.io/nano"><path d="M12 31V15h-2v34h2V33h12v-2H12zm40 0V15h2v34h-2V33H40v-2h12z" fill="#d9d9d9"/><path d="M0 18V0h9.15L11 2h11v18H2c-.81 0-2-.63-2-2z" fill="#1976d2"/><path d="M44 32.76v-1.52c0-.68-.56-1.24-1.24-1.24-.79 0-1.1-.61-1.17-.85-.2-.67-.46-1.3-.79-1.9-.47-.86.33-1.54.23-1.44.48-.48.48-1.27 0-1.75l-1.08-1.08c-.48-.48-1.27-.48-1.75 0-.55.55-1.21.35-1.44.23-.6-.33-1.23-.59-1.9-.79-.93-.28-.85-1.31-.85-1.17 0-.68-.56-1.24-1.24-1.24h-1.52c-.68 0-1.24.56-1.24 1.24 0 .79-.61 1.1-.85 1.17-.67.2-1.3.46-1.9.79-.86.47-1.54-.33-1.44-.23-.48-.48-1.27-.48-1.75 0l-1.08 1.08c-.48.48-.48 1.27 0 1.75.55.55.35 1.21.23 1.44-.33.6-.59 1.23-.79 1.9-.28.93-1.31.85-1.17.85-.68 0-1.24.56-1.24 1.24v1.52c0 .68.56 1.24 1.24 1.24.79 0 1.1.61 1.17.85.2.67.46 1.3.79 1.9.47.86-.33 1.54-.23 1.44-.48.48-.48 1.27 0 1.75l1.08 1.08c.48.48 1.27.48 1.75 0 .55-.55 1.21-.35 1.44-.23.6.33 1.23.59 1.9.79.93.28.85 1.31.85 1.17 0 .68.56 1.24 1.24 1.24h1.52c.68 0 1.24-.56 1.24-1.24 0-.79.61-1.1.85-1.17.67-.2 1.3-.46 1.9-.79.86-.47 1.54.33 1.44.23.48.48 1.27.48 1.75 0l1.08-1.08c.48-.48.48-1.27 0-1.75-.55-.55-.35-1.21-.23-1.44.33-.6.59-1.23.79-1.9.28-.93 1.31-.85 1.17-.85.68 0 1.24-.56 1.24-1.24z" fill="#d38e2a"/><circle cx="32" cy="32" r="4" fill="#f3f3f3"/><path d="M24,6v12c0,1.1-.9,2-2,2H2c1.1,0,2-.9,2-2V6H24Z" fill="#5e9fdf"/><path d="M40 18V0h9.15L51 2h11v18H42c-.81 0-2-.63-2-2z" fill="#1976d2"/><path d="M64 6v12c0 1.1-.9 2-2 2H42c1.1 0 2-.9 2-2V6h20z" fill="#5e9fdf"/><path d="M0 62V44h9.15L11 46h11v18H2c-.81 0-2-.63-2-2z" fill="#1976d2"/><path d="M24 50v12c0 1.1-.9 2-2 2H2c1.1 0 2-.9 2-2V50h20z" fill="#5e9fdf"/><path d="M40 62V44h9.15L51 46h11v18H42c-.81 0-2-.63-2-2z" fill="#1976d2"/><path d="M64 50v12c0 1.1-.9 2-2 2H42c1.1 0 2-.9 2-2V50h20z" fill="#5e9fdf"/></svg>