<svg xmlns="http://www.w3.org/2000/svg" viewBox="0 0 64 64" xmlns:v="https://vecta.io/nano"><path d="M58.7 28H46.44A15.01 15.01 0 0 0 36 17.56V5.3C47.7 7.03 56.97 16.31 58.7 28zM28 5.3v12.26A15.01 15.01 0 0 0 17.56 28H5.3C7.04 16.3 16.31 7.03 28 5.3z" fill="#5e9fdf"/><path d="M58.7 36C56.96 47.7 47.69 56.97 36 58.7V46.44A15.01 15.01 0 0 0 46.44 36H58.7z" fill="#d38e2a"/><path d="M28 46.44V58.7C16.3 56.96 7.03 47.69 5.3 36h12.26A15.01 15.01 0 0 0 28 46.44zM16 10.26V14c0 1.1-.9 2-2 2h-3.74c1.61-2.19 3.55-4.13 5.74-5.74z" fill="#1976d2"/><path d="M14 7v7H7c-3.87 0-7-3.13-7-7s3.13-7 7-7 7 3.13 7 7z" fill="#d38e2a"/><path d="M12 7c0-1.32-2-1.32-2 0s2 1.32 2 0zM8 7c0-1.32-2-1.32-2 0s2 1.32 2 0zM4 7c0-1.32-2-1.32-2 0s2 1.32 2 0z" fill="#f3f3f3"/><path d="M16 50v3.74c-2.19-1.61-4.13-3.55-5.74-5.74H14c1.1 0 2 .9 2 2z" fill="#1976d2"/><path d="M14,57v-7H7c-3.87,0-7,3.13-7,7s3.13,7,7,7,7-3.13,7-7Z" fill="#d38e2a"/><path d="M12 57c0 1.32-2 1.32-2 0s2-1.32 2 0zm-4 0c0 1.32-2 1.32-2 0s2-1.32 2 0zm-4 0c0 1.32-2 1.32-2 0s2-1.32 2 0z" fill="#f3f3f3"/><path d="M53.74 16H50a2 2 0 0 1-2-2v-3.74c2.19 1.61 4.13 3.55 5.74 5.74z" fill="#5e9fdf"/><path d="M50 7v7h7c3.87 0 7-3.13 7-7s-3.13-7-7-7-7 3.13-7 7z" fill="#d38e2a"/><path d="M52 7c0-1.32 2-1.32 2 0s-2 1.32-2 0zm4 0c0-1.32 2-1.32 2 0s-2 1.32-2 0zm4 0c0-1.32 2-1.32 2 0s-2 1.32-2 0z" fill="#f3f3f3"/><path d="M53.74 48c-1.61 2.19-3.55 4.13-5.74 5.74V50a2 2 0 0 1 2-2h3.74z" fill="#e4c290"/><path d="M50,57v-7h7c3.87,0,7,3.13,7,7s-3.13,7-7,7-7-3.13-7-7Z" fill="#1976d2"/><path d="M52 57c0 1.32 2 1.32 2 0s-2-1.32-2 0z" fill="#f3f3f3"/><path d="M56 57c0 1.32 2 1.32 2 0s-2-1.32-2 0zm4 0c0 1.32 2 1.32 2 0s-2-1.32-2 0z" fill="#5e9fdf"/></svg>