<svg xmlns="http://www.w3.org/2000/svg" viewBox="0 0 64 64" xmlns:v="https://vecta.io/nano"><g fill="#1976d2"><path d="M60.94 48.32A31.8 31.8 0 0 1 38 58C20.35 58 6 43.65 6 26a31.8 31.8 0 0 1 9.68-22.94c.36-.35.93-.37 1.32-.06l11.62 9.22c.29.23.43.6.36.96l-2 11c-.06.34-.29.62-.61.75l-8.24 3.29c1.02 9.22 8.43 16.63 17.65 17.65l3.29-8.24c.13-.32.41-.55.75-.61l11-2a.98.98 0 0 1 .96.36L61 47c.32.39.29.96-.06 1.32z"/><path d="M28.98 13.18l-2 11c-.06.34-.29.62-.61.75L21.19 27l3.42-17.96 4.01 3.18c.29.23.43.6.36.96zm25.98 26.21L37 42.81l2.07-5.18c.13-.32.41-.55.75-.61l11-2a.98.98 0 0 1 .96.36l3.18 4.01z"/></g><path d="M38 54v4C20.31 58 6 43.6 6 26h4c0 15.46 12.54 28 28 28z" fill="#5e9fdf"/><path d="M45 30c-1.1 0-2-.9-2-2a7.01 7.01 0 0 0-7-7c-1.1 0-2-.9-2-2s.9-2 2-2a11.01 11.01 0 0 1 11 11c0 1.1-.9 2-2 2zm9 0c-1.1 0-2-.9-2-2 0-8.82-7.18-16-16-16-1.1 0-2-.9-2-2s.9-2 2-2c11.03 0 20 8.97 20 20 0 1.1-.9 2-2 2zm8 0c-1.1 0-2-.9-2-2C60 14.77 49.23 4 36 4c-1.1 0-2-.9-2-2s.9-2 2-2c15.44 0 28 12.56 28 28 0 1.1-.9 2-2 2z" fill="#d38e2a"/><g fill="#1976d2"><path d="M25.98 51.29c-5.81-2.76-10.51-7.46-13.27-13.27 7.16.36 12.91 6.11 13.27 13.27z"/><path d="M25.56 55.48A32.14 32.14 0 0 1 8.52 38.44c1.46-.38 2.79-.48 4.19-.42 2.76 5.81 7.46 10.51 13.27 13.27.06 1.39-.04 2.73-.42 4.19z"/></g><circle cx="12" cy="52" r="12" fill="#fff"/><path d="M18.92 50.97c-.06-.37.13-.74.46-.92l.61-.35c.45-.26.6-.83.34-1.28l-1.07-1.85c-.26-.45-.83-.6-1.28-.34l-.62.36a.94.94 0 0 1-1.05-.1c-.51-.4-1.08-.73-1.69-.98-.37-.15-.62-.48-.62-.88v-.7a.93.93 0 0 0-.93-.93h-2.13a.93.93 0 0 0-.93.93v.7c0 .4-.26.73-.62.88-.61.25-1.18.58-1.69.98-.31.24-.72.29-1.05.1l-.62-.36c-.45-.26-1.02-.1-1.28.34l-1.07 1.85c-.26.45-.1 1.02.34 1.28l.61.35c.32.19.51.55.46.92a6.71 6.71 0 0 0 0 2.05c.06.37-.13.74-.46.92l-.61.35c-.45.26-.6.83-.34 1.28l1.07 1.85c.26.45.83.6 1.28.34l.62-.36a.94.94 0 0 1 1.05.1c.51.4 1.08.73 1.69.98.37.15.62.48.62.88v.7a.93.93 0 0 0 .93.93h2.13a.93.93 0 0 0 .93-.93v-.7c0-.4.26-.73.62-.88.61-.25 1.18-.58 1.69-.98.31-.24.72-.29 1.05-.1l.62.36c.45.26 1.02.1 1.28-.34l1.07-1.85c.26-.45.1-1.02-.34-1.28l-.61-.35c-.32-.19-.51-.55-.46-.92a6.71 6.71 0 0 0 0-2.05z" fill="#d38e2a"/><circle cx="12" cy="52" r="3" fill="#fff"/></svg>