<svg xmlns="http://www.w3.org/2000/svg" viewBox="0 0 64 64" xmlns:v="https://vecta.io/nano"><g fill="#d38e2a"><circle cx="32" cy="61" r="3"/><circle cx="19" cy="58" r="3"/><circle cx="10" cy="51" r="3"/><circle cx="3" cy="40" r="3"/><path d="M32 62c-.55 0-1-.45-1-1V32c0-.55.45-1 1-1s1 .45 1 1v29c0 .55-.45 1-1 1zm-13-3c-.55 0-1-.45-1-1v-8a1 1 0 0 1 .38-.78l4.62-3.7V32c0-.55.45-1 1-1s1 .45 1 1v14a1 1 0 0 1-.38.78L20 50.48V58c0 .55-.45 1-1 1zm-9-7c-.82 0-1.31-.96-.78-1.62L13 45.65V32c0-.55.45-1 1-1s1 .45 1 1c0 15.26.09 14.23-.22 14.62l-4 5A1 1 0 0 1 10 52z"/><path d="M8 41H4c-.55 0-1-.45-1-1s.45-1 1-1h3v-7c0-.55.45-1 1-1s1 .45 1 1v8c0 .55-.45 1-1 1z"/><circle cx="45" cy="58" r="3"/><circle cx="54" cy="51" r="3"/><circle cx="61" cy="40" r="3"/><path d="M45 59c-.55 0-1-.45-1-1v-7.52l-4.62-3.7A1 1 0 0 1 39 46V32c0-.55.45-1 1-1s1 .45 1 1v13.52l4.62 3.7A1 1 0 0 1 46 50v8c0 .55-.45 1-1 1zm9-7a1 1 0 0 1-.78-.38l-4-5c-.32-.39-.22.59-.22-14.62 0-.55.45-1 1-1s1 .45 1 1v13.65l3.78 4.73c.53.66.04 1.62-.78 1.62z"/><path d="M60 41h-4c-.55 0-1-.45-1-1v-8c0-.55.45-1 1-1s1 .45 1 1v7h3c.55 0 1 .45 1 1s-.45 1-1 1z"/></g><path d="M63.93 29.87c.08 1.15-.85 2.13-2 2.13H2.07c-1.15 0-2.08-.98-2-2.13C1.24 12.17 16.55-1.03 33.95.06c15.91.96 28.91 13.61 29.98 29.81z" fill="#5e9fdf"/><path d="M61.68 20l-.89-2H48.34C45.5 10.75 40.52 4.42 33.95.06c-1.24-.08-2.59-.08-3.9 0C23.48 4.42 18.5 10.75 15.66 18H3.21c-.32.66-.61 1.32-.89 2h12.61C13.67 23.83 13 27.87 13 32h2c0-4.14.72-8.19 2.05-12h29.9C48.28 23.81 49 27.86 49 32h2c0-4.13-.67-8.17-1.93-12h12.61zm-43.86-2C20.67 11.12 25.58 5.17 32 1.17c6.42 4 11.33 9.95 14.18 16.83H17.82z" fill="#f3f3f3"/></svg>