<svg xmlns="http://www.w3.org/2000/svg" viewBox="0 0 64 64" xmlns:v="https://vecta.io/nano"><path d="M34 17h-4c-.55 0-1-.45-1-1V8h-2c-.84 0-1.31-.99-.77-1.64l5-6c.38-.46 1.16-.46 1.54 0l5 6c.54.65.08 1.64-.77 1.64h-2v8c0 .55-.45 1-1 1z" fill="#1976d2"/><path d="M18.56 22.81l-5.66-5.66-1.41 1.41a1 1 0 0 1-1.7-.62l-.71-7.78c-.05-.6.44-1.13 1.09-1.09l7.78.71c.84.08 1.22 1.1.62 1.7l-1.41 1.41 5.66 5.66c.39.39.39 1.02 0 1.41l-2.83 2.83c-.39.39-1.02.39-1.41 0z" fill="#5e9fdf"/><path d="M7 38c-.52 0-.21.13-6.64-5.23-.48-.4-.48-1.14 0-1.54l6-5C7 25.69 8 26.15 8 27v2h8c.55 0 1 .45 1 1v4c0 .55-.45 1-1 1H8v2c0 .55-.45 1-1 1z" fill="#1976d2"/><path d="M10.08 54.92a1 1 0 0 1-1-1.09l.71-7.78c.08-.84 1.11-1.21 1.7-.62l1.41 1.41 5.66-5.66c.38-.38 1.04-.38 1.41 0l2.83 2.83c.39.39.39 1.02 0 1.41l-5.66 5.66 1.41 1.41a1 1 0 0 1-.62 1.7l-7.87.71z" fill="#5e9fdf"/><path d="M31.23 63.64l-5-6c-.54-.65-.08-1.64.77-1.64h2v-8c0-.55.45-1 1-1h4c.55 0 1 .45 1 1v8h2c.84 0 1.31.99.77 1.64l-5 6c-.4.48-1.14.48-1.54 0z" fill="#1976d2"/><path d="M53.92 54.92c-.1 0 .18.02-7.87-.71-.84-.08-1.22-1.1-.62-1.7l1.41-1.41-5.66-5.66c-.39-.39-.39-1.02 0-1.41l2.83-2.83c.39-.39 1.02-.39 1.41 0l5.66 5.66 1.41-1.41a1 1 0 0 1 1.7.62l.71 7.78a1 1 0 0 1-1 1.09z" fill="#5e9fdf"/><path d="M57 38c-.55 0-1-.44-1-1v-2h-8c-.55 0-1-.45-1-1v-4c0-.55.45-1 1-1h8v-2c0-.85.99-1.31 1.64-.77l6 5c.48.4.48 1.14 0 1.54L57 38z" fill="#1976d2"/><path d="M44.02 22.81l-2.83-2.83c-.39-.39-.39-1.02 0-1.41l5.66-5.66-1.41-1.41a1 1 0 0 1 .62-1.7l7.78-.71c.66-.04 1.14.49 1.09 1.09l-.71 7.78c-.08.84-1.11 1.21-1.7.62l-1.41-1.41-5.66 5.66c-.39.39-1.02.39-1.41 0z" fill="#5e9fdf"/><circle cx="32" cy="32" r="18" fill="#f3f3f3"/><path d="M38 28H26c-.55 0-1-.45-1-1v-4a3.01 3.01 0 0 1 3-3h8a3.01 3.01 0 0 1 3 3v4c0 .55-.45 1-1 1zm-11-2h10v-3c0-.55-.45-1-1-1h-8c-.55 0-1 .45-1 1v3zm-7 3h24v12c0 1.1-.9 2-2 2H22c-1.1 0-2-.9-2-2V29h0z" fill="#d38e2a"/><path d="M45 27c0 3.71.11 3.86-.4 4.53l-2 2.67c-.38.5-.97.8-1.6.8H23c-.63 0-1.22-.3-1.6-.8-2.23-2.97-2.4-3.02-2.4-3.87V27c0-1.1.9-2 2-2h22c1.1 0 2 .9 2 2z" fill="#e4c290"/><path d="M38 37c-.29 0-1-.22-1-1v-2c0-.55.45-1 1-1 .29 0 1 .22 1 1v2c0 .55-.45 1-1 1zm-12 0c-.29 0-1-.22-1-1v-2c0-.55.45-1 1-1 .29 0 1 .22 1 1v2c0 .55-.45 1-1 1z" fill="#f3f3f3"/></svg>