<svg xmlns="http://www.w3.org/2000/svg" xmlns:xlink="http://www.w3.org/1999/xlink" viewBox="0 0 64 64" xmlns:v="https://vecta.io/nano"><g fill="#5e9fdf"><path d="M4 0h52c1.1 0 2 .9 2 2v4H2V2c0-1.1.9-2 2-2z"/><path d="M15 0h19a4 4 0 0 1 4 4v2H15V0h0z"/></g><path d="M58 6v43c0 1.1-.9 2-2 2H4c-1.1 0-2-.9-2-2V2c0-1.1.9-2 2-2h12a4 4 0 0 1 4 4v2h38z" fill="#f3f3f3"/><path d="M55,3c0-1.32-2-1.32-2,0s2,1.32,2,0Z" fill="#1976d2"/><path d="M26 27l-3 4-2-2v12H10V29l-2 2-3-4 4-4h13l4 4zm4-3h25v2H30zm0 4h25v2H30zm0 4h25v2H30zm0 4h18v2H30z" fill="#d9d9d9"/><path d="M51,3c0-1.32-2-1.32-2,0s2,1.32,2,0Z" fill="#1976d2"/><path d="M47,3c0-1.32-2-1.32-2,0s2,1.32,2,0Z" fill="#f3f3f3"/><path d="M35,3c0-1.32-2-1.32-2,0s2,1.32,2,0Z" fill="#1976d2"/><path d="M17,3c0-1.32-2-1.32-2,0s2,1.32,2,0Z" fill="#d38e2a"/><g fill="#1976d2"><path d="M50 6h8v10h-8z"/><use xlink:href="#B"/></g><path d="M42 6h8v10h-8z" fill="#5e9fdf"/><g fill="#1976d2"><use xlink:href="#B" x="-8"/><path d="M34 6h8v10h-8z"/><use xlink:href="#B" x="-16"/></g><path d="M26 6h8v10h-8z" fill="#5e9fdf"/><g fill="#1976d2"><use xlink:href="#B" x="-24"/><path d="M18 6h8v10h-8z"/><use xlink:href="#B" x="-32"/></g><path d="M10 6h8v10h-8z" fill="#5e9fdf"/><g fill="#1976d2"><use xlink:href="#B" x="-40"/><path d="M2 6h8v10H2z"/><use xlink:href="#B" x="-48"/></g><path d="M47.17,51H12.83c9.4-9.32,24.92-9.34,34.34,0Z" fill="#d9d9d9"/><path d="M48,55c-8.74,11.93-27.19,12.03-36,0,8.74-11.93,27.19-12.03,36,0Z" fill="#1976d2"/><path d="M30 61c-3.31 0-6-2.69-6-6 0-4.08 3.96-6.85 7.59-5.78-2.04 2.76 1.45 6.22 4.19 4.19C36.85 57.05 34.07 61 30 61z" fill="#f3f3f3"/><path d="M47 45.7V48l2.34-.78C55.26 49.86 62 45.53 62 39c0-4.97-4.03-9-9-9-8.28 0-12.11 10.26-6 15.7z" fill="#d38e2a"/><g fill="#fdfdfd"><path d="M55.29 35.29l-6 6A1.01 1.01 0 0 0 50 43c.6 0 .29.13 6.71-6.29.94-.94-.48-2.35-1.41-1.41z"/><circle cx="56" cy="42" r="2"/><circle cx="50" cy="36" r="2"/></g><defs ><path id="B" d="M54 21a4 4 0 0 1-4-4v-1h8v1a4 4 0 0 1-4 4z"/></defs></svg>