<svg xmlns="http://www.w3.org/2000/svg" viewBox="0 0 64 64" xmlns:v="https://vecta.io/nano"><g fill="#1976d2"><path d="M12 0h42v58H12z"/><path d="M50 58H12V4h26c1.17 0 .79-.03 11.41 10.59.84.82.59-2.38.59 43.41z"/></g><path d="M48 16v48H6V6h32l10 10z" fill="#f3f3f3"/><path d="M48 16H38V6l10 10zM21.5 27.5c-.58 0-.24.17-7-6.59l-3.79 3.79c-.94.94-2.35-.48-1.41-1.41l4.5-4.5c.39-.39 1.02-.39 1.41 0l6.29 6.29 6.79-6.79c.94-.94 2.35.48 1.41 1.41-8.11 8.11-7.63 7.79-8.21 7.79z" fill="#5e9fdf"/><path d="M29 29c-.6 0 .48.89-14.5-14.09l-3.79 3.79c-.94.94-2.35-.48-1.41-1.41l4.5-4.5c.39-.39 1.02-.39 1.41 0l14.5 14.5A1.01 1.01 0 0 1 29 29z" fill="#d38e2a"/><path d="M34,33H10c-.55,0-1-.45-1-1V10c0-1.32,2-1.32,2,0V31h23c1.32,0,1.32,2,0,2Z" fill="#d9d9d9"/><rect x="37" y="19" width="8" height="8" rx="1" fill="#d38e2a"/><path d="M40 19h2v2h-2zM23 9h12v2H23zm6 4h6v2h-6z" fill="#d9d9d9"/><g fill="#5e9fdf"><path d="M35,57v4c-5.52,0-10-4.48-10-10h4c0,3.31,2.69,6,6,6Z"/><path d="M35,41v4c-3.31,0-6,2.69-6,6h-4c0-5.52,4.48-10,10-10Z"/></g><path d="M45,51h-4c0-3.31-2.69-6-6-6v-4c5.52,0,10,4.48,10,10Z" fill="#d38e2a"/><path d="M45,51c0,5.52-4.48,10-10,10v-4c3.31,0,6-2.69,6-6h4Z" fill="#1976d2"/><circle cx="35" cy="51" r="4" fill="#d38e2a"/><path d="M13 43h10v2H13zm-4 4h14v2H9zm0 4h14v2H9zm0 4h14v2H9zm0 4h10v2H9z" fill="#d9d9d9"/><path d="M19 36h16v2H19z" fill="#5e9fdf"/></svg>