<svg xmlns="http://www.w3.org/2000/svg" viewBox="0 0 64 64" xmlns:v="https://vecta.io/nano"><path d="M8 2h48a4 4 0 0 1 4 4v2H4V6a4 4 0 0 1 4-4z" fill="#1976d2"/><path d="M60 8v40a4 4 0 0 1-4 4H8a4 4 0 0 1-4-4V6a4 4 0 0 1 4-4h15.53a4.02 4.02 0 0 1 3.58 2.21l1.34 2.68A2 2 0 0 0 30.24 8H60z" fill="#f3f3f3"/><path d="M4 16h56v22H4z" fill="#d9d9d9"/><rect y="18" width="64" height="18" rx="4" fill="#1976d2"/><rect x="2" y="20" width="60" height="14" rx="2" fill="#fff"/><g fill="#5e9fdf"><circle cx="56" cy="5" r="1"/><circle cx="52" cy="5" r="1"/><circle cx="48" cy="5" r="1"/><path d="M21 31c-.55 0-.54-.13-3-2.59l-2.29 2.29a1 1 0 0 1-1.69-.54l-1-6c-.09-.54.28-1.06.82-1.15a1 1 0 0 1 1.15.82l.68 4.08 1.63-1.63c.39-.39 1.02-.39 1.41 0l1.63 1.63.68-4.08c.09-.54.6-.92 1.15-.82.54.09.91.61.82 1.15l-1 6A1 1 0 0 1 21 31zm12 0c-.55 0-.54-.13-3-2.59l-2.29 2.29a1 1 0 0 1-1.69-.54l-1-6c-.09-.54.28-1.06.82-1.15a1 1 0 0 1 1.15.82l.68 4.08 1.63-1.63c.39-.39 1.02-.39 1.41 0l1.63 1.63.68-4.08c.09-.54.6-.92 1.15-.82.54.09.91.61.82 1.15l-1 6A1 1 0 0 1 33 31zm12 0c-.55 0-.54-.13-3-2.59l-2.29 2.29a1 1 0 0 1-1.69-.54l-1-6c-.09-.54.28-1.06.82-1.15a1 1 0 0 1 1.15.82l.68 4.08 1.63-1.63c.39-.39 1.02-.39 1.41 0l1.63 1.63.68-4.08c.09-.54.6-.92 1.15-.82.54.09.91.61.82 1.15l-1 6A1 1 0 0 1 45 31z"/><circle cx="49" cy="30" r="1"/><circle cx="53" cy="30" r="1"/></g><path d="M32,38c-7.17,0-13,5.83-13,13,0,.34,.01,.67,.05,1h6.03c-.71-3.9,2.48-8,6.92-8s7.63,4.1,6.92,8h6.04c.66-7.28-5.24-14-12.96-14Z" fill="#d9d9d9"/><circle cx="32" cy="51" r="10" fill="#d38e2a"/><path d="M32,62c-6.07,0-11-4.93-11-11s4.93-11,11-11,11,4.93,11,11-4.93,11-11,11Zm0-20c-4.96,0-9,4.04-9,9s4.04,9,9,9,9-4.04,9-9-4.04-9-9-9Z" fill="#e4c290"/><path d="M30.29 54.21l-3-3c-.39-.39-.39-1.02 0-1.41s1.02-.39 1.41 0l2.29 2.29 4.29-4.29c.39-.39 1.02-.39 1.41 0s.39 1.02 0 1.41l-5 5c-.39.39-1.02.39-1.41 0z" fill="#fff"/></svg>