<svg xmlns="http://www.w3.org/2000/svg" viewBox="0 0 64 64" xmlns:v="https://vecta.io/nano"><path d="M64 31c0 7.18-5.82 13-13 13H11C6.29 44 2.25 41.05.67 36.81c-2.22-6.16 1.27-12.69 7.35-14.4-.52-3.39 3.01-7.15 7.19-6.29C22.82 1.75 43.78 3 49.69 18.07 57.11 17.21 64 23.18 64 31z" fill="#f3f3f3"/><path d="M32 58l9-12h-5V20h-8v26h-5l9 12z" fill="#5e9fdf"/><path d="M20 44h-9C6.29 44 2.25 41.05.67 36.81 7.33 29.13 20 33.84 20 44z" fill="#d9d9d9"/><circle cx="9" cy="44" r="9" fill="#d38e2a"/><path d="M5 47c-.54 0-.57-.15-2.71-2.29-.39-.39-.39-1.02 0-1.41l2-2c.94-.94 2.35.48 1.41 1.41L4.41 44l1.29 1.29A1.01 1.01 0 0 1 4.99 47zm8 0c-.88 0-1.34-1.07-.71-1.71L13.58 44l-1.29-1.29c-.94-.94.48-2.35 1.41-1.41l2 2c.39.39.39 1.02 0 1.41-2.18 2.18-2.17 2.29-2.71 2.29zm-5.97.76l2-8c.32-1.29 2.26-.8 1.94.49l-2 8c-.32 1.28-2.26.8-1.94-.49z" fill="#fdfdfd"/><path d="M44 8h18c.55 0 1 .45 1 1v1H43V9c0-.55.45-1 1-1z" fill="#5e9fdf"/><path d="M63.54 27.57c-1.02.61-.2.43-19.54.43a3.01 3.01 0 0 1-3-3V8.28c3.84 2.04 7.02 5.52 8.69 9.79 5.88-.68 12.1 3.06 13.85 9.5z" fill="#d9d9d9"/><g fill="#5e9fdf"><path d="M43 10h20v15c0 .55-.45 1-1 1H44c-.55 0-1-.45-1-1V10h0z"/><path d="M51 10h-8V9c0-.55.45-1 1-1h5c.81 0 2 .63 2 2zm-6 3h8v2h-8zm6 4h9v2h-9zm4-4h5v2h-5zm-10 8h8v2h-8zm10 0h5v2h-5zm-10-4h4v2h-4z"/></g></svg>