<svg xmlns="http://www.w3.org/2000/svg" xmlns:xlink="http://www.w3.org/1999/xlink" viewBox="0 0 64 64" xmlns:v="https://vecta.io/nano"><path d="M62,19V58H2V19c0-1.66,1.34-3,3-3H59c1.66,0,3,1.34,3,3Z" fill="#5e9fdf"/><path d="M1 58h62c.55 0 1 .45 1 1v2c0 1.66-1.34 3-3 3H3c-1.66 0-3-1.34-3-3v-2c0-.55.45-1 1-1z" fill="#1976d2"/><path d="M60 19v37H4V19c0-.55.45-1 1-1h54c.55 0 1 .45 1 1z" fill="#fff"/><path d="M39 60H25c-.81 0-2-.63-2-2h18c0 .81-.63 2-2 2z" fill="#f3f3f3"/><path d="M54.95 18H9.05a10.22 10.22 0 0 1 .36-2h45.17c.19.64.31 1.31.37 2z" fill="#1976d2"/><path d="M44 30H20c-6.71 0-11.68-6-10.95-12h45.9c.72 5.97-4.2 12-10.95 12z" fill="#f3f3f3"/><path d="M53 19c0 4.97-4.03 9-9 9H20c-4.97 0-9-4.03-9-9 0-4.02 2.64-7.42 6.27-8.57-1.3-3.17 2.02-6.53 5.3-5.1C24.49 2.14 27.99 0 32 0c5.76 0 10.49 4.42 10.96 10.06C48.27 9.43 53 13.59 53 19z" fill="#d9d9d9"/><g fill="#d38e2a"><path d="M37 37H27a3.01 3.01 0 0 1-3-3v-2c0-.55.45-1 1-1s1 .45 1 1v2c0 .55.45 1 1 1h10c.55 0 1-.45 1-1v-2c0-.55.45-1 1-1s1 .45 1 1v2a3.01 3.01 0 0 1-3 3zm-6-5V21c0-.55.45-1 1-1s1 .45 1 1v8.59l2.29-2.29c.39-.39 1.02-.39 1.41 0s.39 1.02 0 1.41l-4 4c-.63.63-1.71.18-1.71-.71z"/><path d="M32 33c-.26 0-.51-.1-.71-.29l-4-4c-.39-.39-.39-1.02 0-1.41s1.02-.39 1.41 0l4 4a1.01 1.01 0 0 1-.71 1.71z"/></g><g fill="#d9d9d9"><path d="M8 44h24v2H8zm0 4h24v2H8zm0 4h16v2H8z"/><use xlink:href="#B"/><use xlink:href="#B" x="11"/></g><defs ><path id="B" d="M47 47.41V53c0 .55-.45 1-1 1h-6c-.55 0-1-.45-1-1v-8c0-.55.45-1 1-1 3.86 0 3.9-.1 4.29.29 2.6 2.6 2.71 2.57 2.71 3.12z"/></defs></svg>