<svg xmlns="http://www.w3.org/2000/svg" viewBox="0 0 64 64" xmlns:v="https://vecta.io/nano"><g fill="#1976d2"><path d="M61 39v16H3V39c0-1.1.9-2 2-2h54c1.1 0 2 .9 2 2z"/><path d="M7 37h50v18H7z"/></g><path d="M55 12v48H9V4a4 4 0 0 1 4-4h30l12 12z" fill="#f3f3f3"/><path d="M46 31.07v-2.14c0-1.07-.86-1.93-1.93-1.93-1.98 0-2.65-2.18-1.5-3.32.99-.99.73-2.18.09-2.82l-1.51-1.51a1.94 1.94 0 0 0-2.73 0c-1.4 1.4-3.41.32-3.41-1.29 0-1.4-1.02-2.06-1.93-2.06h-2.14c-1.07 0-1.93.86-1.93 1.93 0 1.98-2.18 2.65-3.32 1.5-.99-.99-2.18-.73-2.82-.09l-1.51 1.51a1.94 1.94 0 0 0 0 2.73c1.41 1.41.32 3.41-1.29 3.41-1.4 0-2.06 1.02-2.06 1.93v2.14c0 1.07.86 1.93 1.93 1.93 1.98 0 2.65 2.18 1.5 3.32-.99.99-.73 2.18-.09 2.82l1.51 1.51a1.94 1.94 0 0 0 2.73 0c1.4-1.4 3.41-.32 3.41 1.29 0 1.4 1.02 2.06 1.93 2.06h2.14c1.07 0 1.93-.86 1.93-1.93 0-1.98 2.18-2.65 3.32-1.5.99.99 2.18.73 2.82.09l1.51-1.51a1.94 1.94 0 0 0 0-2.73c-1.4-1.4-.32-3.41 1.29-3.41 1.4 0 2.06-1.02 2.06-1.93z" fill="#d38e2a"/><circle cx="32" cy="30" r="6" fill="#f3f3f3"/><path d="M55 44v16H9V44h7.49a4.02 4.02 0 0 1 3.85 2.9l1.17 4.1h20.98l1.17-4.1a4.02 4.02 0 0 1 3.85-2.9H55z" fill="#d9d9d9"/><path d="M61 48v14c0 1.1-.9 2-2 2H5c-1.1 0-2-.9-2-2V48c0-1.1.9-2 2-2h11.49c.89 0 1.68.59 1.92 1.45l1.17 4.1A2 2 0 0 0 21.5 53h20.98c.89 0 1.68-.59 1.92-1.45l1.17-4.1A2 2 0 0 1 47.49 46h11.49c1.1 0 2 .9 2 2z" fill="#5e9fdf"/><path d="M55 12H45c-1.1 0-2-.9-2-2V0l12 12z" fill="#d9d9d9"/><path d="M4.29 25.29l-.29.29v-3.59c0-.55-.45-1-1-1s-1 .45-1 1v3.59l-.29-.29c-.39-.39-1.02-.39-1.41 0s-.39 1.02 0 1.41c2.18 2.18 2.17 2.29 2.71 2.29s.57-.15 2.71-2.29c.39-.39.39-1.02 0-1.41s-1.02-.39-1.41 0zm59.42-11c-.39-.39-1.02-.39-1.41 0l-.29.29v-3.59c0-.55-.45-1-1-1s-1 .45-1 1v3.59l-.29-.29c-.39-.39-1.02-.39-1.41 0s-.39 1.02 0 1.41l2 2c.39.39 1.02.39 1.41 0l2-2c.39-.39.39-1.02 0-1.41z" fill="#5e9fdf"/><path d="M14 6h16v2H14zm0 4h10v2H14z" fill="#d9d9d9"/><path d="M15 61H7c-.55 0-1-.45-1-1 0-.29.22-1 1-1h8c.55 0 1 .45 1 1 0 .29-.22 1-1 1z" fill="#fff"/></svg>