<svg xmlns="http://www.w3.org/2000/svg" viewBox="0 0 64 64" xmlns:v="https://vecta.io/nano"><path d="M52 8v48c0 3.64-2.43 6.71-5.75 7.68-1.52.45-.39.32-26.25.32a8 8 0 0 1-8-8V8a8 8 0 0 1 8-8h24a8 8 0 0 1 8 8z" fill="#5e9fdf"/><path d="M49 9v45c0 3.31-2.69 6-6 6H21c-3.31 0-6-2.69-6-6V9c0-3.31 2.69-6 6-6h3.29a.98.98 0 0 1 .94.68l.31.95A2.01 2.01 0 0 0 27.44 6h9.12a2.01 2.01 0 0 0 1.9-1.37l.31-.94a1 1 0 0 1 .95-.69H43c3.31 0 6 2.69 6 6z" fill="#fff"/><path d="M42 58H22c-.55 0-1-.45-1-1 0-.29.22-1 1-1h20c.55 0 1 .45 1 1 0 .29-.22 1-1 1z" fill="#d9d9d9"/><path d="M52 20.06v17.87a11.8 11.8 0 0 1-3 1.97V18.1c1.1.5 2.11 1.17 3 1.96zm-37-1.97V39.9a11.8 11.8 0 0 1-3-1.97V20.05c.88-.8 1.89-1.46 3-1.96z" fill="#1976d2"/><path d="M49 18.1v21.8c-1.52.71-3.22 1.1-5 1.1H20c-1.78 0-3.48-.39-5-1.1l.06-21.84c.45-3.33 3.26-5.93 6.69-6.06 6.52-8.41 20.2-5.84 22.91 5.02 1.54.08 3.01.46 4.34 1.08z" fill="#f3f3f3"/><path d="M54 29c0 5.52-4.48 10-10 10H20c-5.52 0-10-4.48-10-10 0-4.48 2.96-8.28 7.03-9.55-.4-3.03 2.48-5.93 5.71-5.39C24.69 11.01 28.11 9 32 9c5.63 0 10.44 4.26 10.96 10.05C48.93 18.45 54 23.12 54 29z" fill="#d38e2a"/><path d="M31.23 50.64l-5-6c-.54-.65-.08-1.64.77-1.64h2v-8c0-.55.45-1 1-1h4c.55 0 1 .45 1 1v8h2c.84 0 1.31.99.77 1.64l-5 6c-.4.48-1.14.48-1.54 0z" fill="#1976d2"/><g fill="#d9d9d9"><circle cx="46" cy="8" r="1"/><circle cx="42" cy="8" r="1"/><path d="M18 49h8v2h-8zm0-4h4v2h-4z"/></g><path d="M43.27 19.03c-1.69.12-3.3.66-4.72 1.59a1.01 1.01 0 0 1-1.39-.3 1 1 0 0 1 .29-1.38c1.56-1.02 3.32-1.65 5.16-1.86.61 2.29.04 1.95.66 1.95z" fill="#e4c290"/></svg>