<svg xmlns="http://www.w3.org/2000/svg" viewBox="0 0 64 64" xmlns:v="https://vecta.io/nano"><path d="M64 32a12 12 0 0 1-12 12H14C6.27 44 0 37.73 0 30c0-8.36 7.31-14.81 15.39-13.93C18.1 9.57 24.51 5 32 5c9.04 0 16.43 6.63 17.78 15.21C57.07 18.79 64 24.42 64 32z" fill="#f3f3f3"/><path d="M39 46l-7 8-7-8h4V23h6v23h4zm6 4v9H19v-9h3v6h20v-6h3z" fill="#1976d2"/><path d="M48 31c-4.97 0-9-4.03-9-9 0-4.63 3.5-8.45 8-8.94a17.83 17.83 0 0 1 2.78 7.15 12.01 12.01 0 0 1 7.17.85A9 9 0 0 1 48 31z" fill="#d9d9d9"/><circle cx="50" cy="20" r="9" fill="#d38e2a"/><path d="M52.13 21.88c-1.15-1.14-3.1-1.14-4.26 0-.94.93-2.35-.5-1.4-1.42a5 5 0 0 1 7.06 0c.94.93-.47 2.34-1.4 1.42zm3.53-2.54c-.63 0-.66-.38-1.57-1.02-2.73-1.96-6.63-1.69-9.04.73-.94.94-2.35-.48-1.41-1.42 3.54-3.53 9.23-3.49 12.73 0 .63.63.18 1.71-.71 1.71zM51 24c0-1.32-2-1.32-2 0s2 1.32 2 0z" fill="#fdfdfd"/></svg>