<svg xmlns="http://www.w3.org/2000/svg" xmlns:xlink="http://www.w3.org/1999/xlink" viewBox="0 0 64 64" xmlns:v="https://vecta.io/nano"><rect y="15" width="64" height="44" rx="3" fill="#1976d2"/><g fill="#f3f3f3"><rect x="12" y="17" width="50" height="40" rx="1"/><circle cx="6" cy="37" r="3"/><path d="M8 32H4c-1.34 0-1.29-2 0-2h4c1.34 0 1.29 2 0 2zm0-4H4c-1.34 0-1.29-2 0-2h4c1.34 0 1.29 2 0 2zm0-4H4c-1.34 0-1.29-2 0-2h4c1.34 0 1.29 2 0 2zm0 28H4c-1.34 0-1.29-2 0-2h4c1.34 0 1.29 2 0 2zm0-4H4c-1.34 0-1.29-2 0-2h4c1.34 0 1.29 2 0 2zm0-4H4c-1.34 0-1.29-2 0-2h4c1.34 0 1.29 2 0 2z"/></g><g fill="#d38e2a"><path d="M55.17 5.83a2.83 2.83 0 0 1 0 4l-18 18-4-4 18-18a2.84 2.84 0 0 1 4 0z"/><path d="M33.17 23.83l-2 6 6-2"/></g><g fill="#d9d9d9"><path d="M36,53H19c-1.32,0-1.32-2,0-2h17c2.76,0,5-2.24,5-5s-2.24-5-5-5h-12.5c-3.03,0-5.5-2.47-5.5-5.5s2.47-5.5,5.5-5.5h5.5c1.32,0,1.32,2,0,2h-5.5c-1.93,0-3.5,1.57-3.5,3.5s1.57,3.5,3.5,3.5h12.5c3.86,0,7,3.14,7,7s-3.14,7-7,7Z"/><circle cx="53" cy="26" r="6"/><use xlink:href="#B"/><use xlink:href="#B" y="4"/><use xlink:href="#B" y="8"/><use xlink:href="#B" y="12"/><path d="M19 20l-3 6h6l-3-6z"/></g><defs ><path id="B" d="M58 36H48c-1.32 0-1.32-2 0-2h10c1.32 0 1.32 2 0 2z"/></defs></svg>