<svg xmlns="http://www.w3.org/2000/svg" viewBox="0 0 64 64" xmlns:v="https://vecta.io/nano"><path d="M25 38h14v2c0 1.1-.9 2-2 2H27c-1.1 0-2-.9-2-2v-2h0z" fill="#5e9fdf"/><path d="M29 42h6v4h-6z" fill="#c8c8c8"/><rect x="26" y="46" width="12" height="6" rx="1" fill="#d9d9d9"/><circle cx="33" cy="51" r="3" fill="#1976d2"/><path d="M11 31H7V20c0-1.1.9-2 2-2 .81 0 2 .63 2 2v11z" fill="#5e9fdf"/><path d="M17 23H1c-1.34 0-1.29-2 0-2h16c1.34 0 1.29 2 0 2zm-5 3v7H6v-7c0-.55.45-1 1-1h4c.54 0 1 .44 1 1z" fill="#d9d9d9"/><path d="M57 31h-4V20c0-1.1.9-2 2-2 .81 0 2 .63 2 2v11z" fill="#5e9fdf"/><path d="M63 22H47c-1.34 0-1.29-2 0-2h16c1.34 0 1.29 2 0 2zm-5 3v7h-6v-7c0-.55.45-1 1-1h4c.55 0 1 .45 1 1z" fill="#d9d9d9"/><path d="M11.98 25.79c.03.2.02-.42.02 7.21H6v-5.12l5.98-2.09zm40.04 0c-.03.2-.02-.42-.02 7.21h6v-5.12l-5.98-2.09z" fill="#c8c8c8"/><path d="M58 30v3l-19 5H25L6 33v-3l14.01-4.9c7.89-2.77 16.71-2.9 25.24.2L58 30z" fill="#d9d9d9"/><g fill="#5e9fdf"><path d="M18.11 35.55l-2.79 5.58c-.45.91-.32.56-.32 12.87h-1c-1.32 0-1.32 2 0 2h4c1.32 0 1.32-2 0-2h-1V42.47c0-.33-.14.04 2.89-6.02.59-1.19-1.2-2.07-1.79-.89zM49 54h-1V42.47c0-.94-.07-.85-3.11-6.92-.59-1.18-2.38-.29-1.79.89l2.89 6.02v11.53h-1c-1.32 0-1.32 2 0 2h4c1.32 0 1.32-2 0-2z"/><circle cx="19" cy="36" r="2"/><circle cx="44" cy="36" r="2"/><path d="M3 30h3v3H3c-.55 0-1-.45-1-1v-1c0-.55.45-1 1-1zm55 0h3c.55 0 1 .45 1 1v1c0 .55-.45 1-1 1h-3v-3h0z"/></g><path d="M36 38h-8c.8-1.61.88-2 1.62-2h4.76c.73 0 .84.44 1.62 2z" fill="#1976d2"/><path d="M40.56,23.91c-4.33,5.38-12.54,5.47-17,.15,5.32-1.31,11.15-1.45,17-.15Z" fill="#c8c8c8"/><circle cx="32" cy="17" r="9" fill="#d38e2a"/><path d="M34.13 18.88c-1.15-1.14-3.1-1.14-4.26 0-.95.93-2.35-.5-1.4-1.42a5 5 0 0 1 7.06 0c.94.93-.47 2.34-1.4 1.42zm3.53-2.54c-.63 0-.66-.38-1.57-1.02-2.73-1.96-6.63-1.69-9.04.73-.94.94-2.35-.48-1.41-1.42 3.54-3.53 9.23-3.49 12.73 0 .63.63.18 1.71-.71 1.71zM33 21c0-1.32-2-1.32-2 0s2 1.32 2 0z" fill="#fdfdfd"/></svg>