<?xml version="1.0" encoding="UTF-8"?><svg id="a" xmlns="http://www.w3.org/2000/svg" viewBox="0 0 60 64"><defs><style>.b{fill:#fff;}.c{fill:#5e9fdf;}.d{fill:#fdfdfd;}.e{fill:#d38e2a;}.f{fill:#d9d9d9;}</style></defs><rect class="c" width="48" height="64" rx="3" ry="3"/><path class="b" d="M46,3V61c0,.55-.45,1-1,1H3c-.55,0-1-.45-1-1V3c0-.55,.45-1,1-1h13c0,1.1,.9,2,2,2,12.67,0,12.6,.24,13.41-.59,.37-.36,.59-.86,.59-1.41h13c.55,0,1,.45,1,1Z"/><path class="f" d="M42,60H6c-1.34,0-1.29-2,0-2H42c1.34,0,1.29,2,0,2ZM7,9h2v7c0,1.32,2,1.32,2,0v-7h2c1.32,0,1.32-2,0-2H7c-1.32,0-1.32,2,0,2Zm10.94,7.35l.51-1.35h3.11l.51,1.35c.46,1.24,2.34,.54,1.87-.7l-3-8c-.32-.86-1.55-.86-1.87,0l-3,8c-.46,1.24,1.41,1.94,1.87,.7Zm2.06-5.5l.81,2.15h-1.61l.81-2.15h-.01Zm10,4.15h-3c-1.32,0-1.32,2,0,2h3c1.65,0,2.99-1.35,3-3,0-1.65-1.35-2.99-3-3h-1c-1.32,0-1.32-2,0-2h3c1.32,0,1.32-2,0-2h-3c-1.65,0-2.99,1.35-3,3,0,1.65,1.35,2.99,3,3h1c1.32,0,1.32,2,0,2Zm7,1v-1.64l.8-.96,2.4,3.2c.79,1.06,2.4-.14,1.6-1.2l-2.68-3.58,2.65-3.18c.85-1.02-.69-2.29-1.54-1.28l-3.23,3.88v-3.24c0-1.32-2-1.32-2,0v8c0,1.32,2,1.32,2,0Zm-31,3H42v2H6v-2Zm10,6h26v2H16v-2ZM6,42H25v2H6v-2Zm0,4H25v2H6v-2Zm0,4H25v2H6v-2Zm6-21h30v2H12v-2Zm0,4h30v2H12v-2Zm0,4h30v2H12v-2Zm-6-12v2h1v4h2v-5c0-.55-.45-1-1-1h-2Zm22,17h14v12h-14v-12Z"/><circle class="e" cx="47" cy="51" r="13"/><circle class="b" cx="47" cy="51" r="10.83"/><g><circle class="d" cx="47" cy="36" r="3"/><path class="e" d="M47,40c-2.21,0-4-1.79-4-4s1.79-4,4-4,4,1.79,4,4-1.79,4-4,4Zm0-6c-1.1,0-2,.9-2,2s.9,2,2,2,2-.9,2-2-.9-2-2-2Z"/></g><path class="e" d="M44,56c-.88,0-1.34-1.07-.71-1.71l2.71-2.71v-7.59c0-1.32,2-1.32,2,0,0,7.96,.21,8.21-.59,9-2.9,2.9-2.85,3-3.41,3h0Z"/></svg>