<svg xmlns="http://www.w3.org/2000/svg" viewBox="0 0 64 64" xmlns:v="https://vecta.io/nano"><circle cx="56" cy="22" r="7" fill="#1976d2"/><g fill="#5e9fdf"><path d="M47 64a4 4 0 0 1-4-4V24h8v36a4 4 0 0 1-4 4z"/><path d="M59 18a12 12 0 0 1-12 12c-6.02 0-11-4.43-11.86-10.21-.83-6.61 3.16-11.76 8.56-13.33C51.27 4.28 59 9.96 59 18z"/><path d="M57 18c0 5.52-4.48 10-10 10-5.11 0-9.32-3.83-9.92-8.78-.65-4.52 2.14-9.22 6.91-10.76C50.41 6.43 57 11.23 57 18z"/></g><path d="M46 47V37c0-1.34 2-1.29 2 0v10c0 1.34-2 1.29-2 0zm-3 9h8v2h-8z" fill="#f3f3f3"/><circle cx="9" cy="22" r="7" fill="#1976d2"/><g fill="#5e9fdf"><path d="M18 64a4 4 0 0 0 4-4V24h-8v36a4 4 0 0 0 4 4z"/><path d="M30,18c0,6.6-5.34,12-12,12s-12-5.37-12-12c0-7.97,7.64-13.73,15.3-11.54,5.16,1.5,8.7,6.16,8.7,11.54Z"/><path d="M28 18c0 5.45-4.41 10-10 10S8 23.52 8 18c0-6.83 6.71-11.59 13.01-9.53C24.83 9.59 28 13.37 28 18z"/></g><path d="M19 47V37c0-1.34-2-1.29-2 0v10c0 1.34 2 1.29 2 0zm3 11h-8v-2h8z" fill="#f3f3f3"/><path d="M30 18c0 .86-.1 1.61-.14 1.79a10.57 10.57 0 0 1-1.94-.57c.65-4.83-2.5-9.45-6.91-10.75.03-.69.13-1.36.29-2.01C26.46 7.96 30 12.62 30 18z" fill="#1976d2"/><path d="M27.92,19.22c-4.37-1.74-7.17-6.11-6.91-10.75,4.39,1.29,7.56,5.91,6.91,10.75Z" fill="#5e9fdf"/><path d="M37.04 18.78c-.61.32-1.26.58-1.93.77-.76-5.41 2.39-10.81 7.67-12.78.13.67.21 1.36.22 2.07-4.13 1.8-6.4 6.14-5.96 9.94z" fill="#1976d2"/><path d="M43,8.84c0,4.51-2.45,8.14-5.96,9.94-.44-3.78,1.8-8.13,5.96-9.94Z" fill="#5e9fdf"/><circle cx="32" cy="9" r="9" fill="#d38e2a"/><path d="M34.13 10.88c-1.15-1.14-3.1-1.14-4.26 0-.95.93-2.35-.5-1.4-1.42a5 5 0 0 1 7.06 0c.94.93-.47 2.34-1.4 1.42zm3.53-2.54c-.63 0-.66-.38-1.57-1.02-2.73-1.96-6.63-1.69-9.04.73-.94.94-2.35-.48-1.41-1.42 3.54-3.53 9.23-3.49 12.73 0 .63.63.18 1.71-.71 1.71zM33 13c0-1.32-2-1.32-2 0s2 1.32 2 0z" fill="#fdfdfd"/></svg>