<svg xmlns="http://www.w3.org/2000/svg" viewBox="0 0 64 64" xmlns:v="https://vecta.io/nano"><path d="M62,16V55H2V16c0-1.66,1.34-3,3-3H59c1.66,0,3,1.34,3,3Z" fill="#5e9fdf"/><path d="M1 55h62c.55 0 1 .45 1 1v2c0 1.66-1.34 3-3 3H3c-1.66 0-3-1.34-3-3v-2c0-.55.45-1 1-1z" fill="#1976d2"/><path d="M60 16v37H4V16c0-.55.45-1 1-1h54c.55 0 1 .45 1 1z" fill="#fff"/><path d="M12 13h36v2H12z" fill="#1976d2"/><path d="M48,15v18c0,1.1-.9,2-2,2H14c-1.1,0-2-.9-2-2V15H48Z" fill="#f3f3f3"/><rect x="14" y="6" width="36" height="27" rx="2" fill="#5e9fdf"/><g fill="#f3f3f3"><path d="M32 6.41V31c-1.28-1.28-3.02-2-4.83-2H17c-.55 0-1-.45-1-1V4c0-.55.45-1 1-1h11.59C30.51 3 32 4.56 32 6.41z"/><path d="M32 6.41V31c1.28-1.28 3.02-2 4.83-2H47c.55 0 1-.45 1-1V4c0-.55-.45-1-1-1H35.41C33.49 3 32 4.56 32 6.41z"/></g><path d="M6 37h20v2H6zm0 4h28v4H6zm0 6h28v4H6zM35 6h10v8H35zm0 10h6v2h-6zM19 6h6v2h-6zm16 14h10v2H35zM19 10h10v2H19zm0 4h10v2H19zm0 4h10v2H19zm0 4h10v4H19zm16 2h10v2H35z" fill="#d9d9d9"/><g fill="#d38e2a"><path d="M50 47l-2-9 9 2-7 7z"/><path d="M49.999 41.993L52 39.992 57 44.991l-2.001 2.001z"/></g><path d="M39 57H25c-1.1 0-2-.9-2-2 0-.1-.84 0 18 0 0 .81-.63 2-2 2z" fill="#f3f3f3"/></svg>