<svg xmlns="http://www.w3.org/2000/svg" viewBox="0 0 64 64" xmlns:v="https://vecta.io/nano"><rect x="12" width="40" height="64" rx="6" fill="#5e9fdf"/><path d="M50 6v50a4 4 0 0 1-4 4H18a4 4 0 0 1-4-4V6a3.98 3.98 0 0 1 2-3.46c1.23-.71 1.73-.54 7.28-.54.43 0 .81.28.95.68.27.83.56 2.32 2.21 2.32h11.12a2.01 2.01 0 0 0 1.9-1.37l.31-.95c.14-.4.52-.68.95-.68H46a4 4 0 0 1 4 4z" fill="#fff"/><path d="M16 9h16v18H16zm18 0h14v2H34zm0 4h14v2H34zm0 4h14v2H34zm0 4h14v2H34zm0 4h14v2H34zm-18 4h32v2H16zm0 4h32v2H16zm0 4h32v2H16zm0 4h32v2H16zm0 4h32v2H16zm0 4h32v2H16zm28 9H22c-1.34 0-1.29-2 0-2h22c1.34 0 1.29 2 0 2z" fill="#d9d9d9"/><path d="M22,2V14l-3-2-3,2V2.54c1.24-.71,1.95-.54,6-.54Z" fill="#d38e2a"/></svg>