<svg xmlns="http://www.w3.org/2000/svg" viewBox="0 0 64 64" xmlns:v="https://vecta.io/nano"><path d="M62,19V58H2V19c0-1.66,1.34-3,3-3H59c1.66,0,3,1.34,3,3Z" fill="#5e9fdf"/><path d="M1 58h62c.55 0 1 .45 1 1v2c0 1.66-1.34 3-3 3H3c-1.66 0-3-1.34-3-3v-2c0-.55.45-1 1-1z" fill="#1976d2"/><path d="M60 19v4H20l-4-5h43c.55 0 1 .45 1 1z" fill="#5e9fdf"/><path d="M60 23v33H4V19c0-.55.45-1 1-1h14.08c1.21 0 2.36.55 3.12 1.5l1.6 2c.86 1.03 1.97 1.5 3.12 1.5H60z" fill="#fff"/><path d="M39 60H25c-.81 0-2-.63-2-2h18c0 .81-.63 2-2 2z" fill="#f3f3f3"/><path d="M6 16h52v2H6z" fill="#1976d2"/><path d="M58 18v5H26.92c-1.14 0-2.26-.47-3.12-1.5l-1.6-2c-.76-.95-1.91-1.5-3.12-1.5H58z" fill="#5e9fdf"/><path d="M58 23v19a4 4 0 0 1-4 4H10a4 4 0 0 1-4-4V18h13.08c4.04 0 3.78 5 7.84 5H58z" fill="#f3f3f3"/><path d="M8,36H56v6c0,1.1-.9,2-2,2H10c-1.1,0-2-.9-2-2v-6h0Z" fill="#e4c290"/><path d="M55 5v34H41.66c-3.62 0-7.09 1.44-9.66 4-2.56-2.56-6.03-4-9.66-4H9V5h13.34c3.62 0 7.09 1.44 9.66 4 2.56-2.56 6.03-4 9.66-4H55z" fill="#f3f3f3"/><path d="M31.29 43.71A12.58 12.58 0 0 0 22.34 40H9c-.55 0-1-.45-1-1V5c0-.55.45-1 1-1h13.34A14.56 14.56 0 0 1 32 7.63 14.54 14.54 0 0 1 41.66 4H55c.55 0 1 .45 1 1v34c0 .55-.45 1-1 1H41.66a12.58 12.58 0 0 0-8.95 3.71c-.39.39-1.02.39-1.41 0zM10 38h12.34A14.56 14.56 0 0 1 32 41.63 14.54 14.54 0 0 1 41.66 38H54V6H41.66a12.58 12.58 0 0 0-8.95 3.71c-.39.39-1.02.39-1.41 0A12.58 12.58 0 0 0 22.35 6H10v32z" fill="#d38e2a"/><g fill="#5e9fdf"><rect x="13" y="11" width="8" height="10" rx="1"/><rect x="43" y="23" width="8" height="10" rx="1"/></g><path d="M23 11h7v2h-7zm0 4h7v2h-7zm0 4h7v2h-7zm11 4h7v2h-7zm0 4h7v2h-7zm0 4h7v2h-7zm-21-8h17v2H13zm0 4h17v2H13zm0 4h17v2H13zm21-20h17v2H34zm0 4h17v2H34zm0 4h17v2H34zm24 31c-2.53 5.36-9.47 5.36-12 0 2.53-5.36 9.47-5.36 12 0z" fill="#d9d9d9"/><circle cx="52" cy="50" r="2" fill="#fff"/><path d="M9 47h22v2H9zm0 4h14v2H9z" fill="#d9d9d9"/></svg>