<svg xmlns="http://www.w3.org/2000/svg" viewBox="0 0 64 64" xmlns:v="https://vecta.io/nano"><path d="M62,12V51H2V12c0-1.66,1.34-3,3-3H59c1.66,0,3,1.34,3,3Z" fill="#5e9fdf"/><path d="M1 51h62c.55 0 1 .45 1 1v2c0 1.66-1.34 3-3 3H3c-1.66 0-3-1.34-3-3v-2c0-.55.45-1 1-1z" fill="#1976d2"/><path d="M60 12v37H4V12c0-.55.45-1 1-1h54c.55 0 1 .45 1 1z" fill="#fff"/><path d="M39 53H25c-1.1 0-2-.9-2-2 0-.1-.84 0 18 0 0 .81-.63 2-2 2z" fill="#f3f3f3"/><path d="M6 13h26v18H6zm28 0h24v2H34zm0 4h24v2H34zm0 4h24v2H34zm0 4h24v2H34zm0 4h24v2H34zM6 33h52v2H6zm0 4h52v2H6zm0 4h52v2H6zm0 4h52v2H6z" fill="#d9d9d9"/><g fill="#d38e2a"><path d="M50 43l-2-9 9 2-7 7z"/><path d="M50.001 37.994l2.001-2.001 4.999 4.999L55 42.994zM16 8v19l-3-2-3 2V8c0-.55.45-1 1-1h4c.55 0 1 .45 1 1z"/></g></svg>