<svg xmlns="http://www.w3.org/2000/svg" viewBox="0 0 64 64" xmlns:v="https://vecta.io/nano"><g fill="#5e9fdf"><path d="M6 0h52c1.1 0 2 .9 2 2v4H4V2c0-1.1.9-2 2-2z"/><path d="M17 0h19a4 4 0 0 1 4 4v2H17V0h0z"/></g><path d="M60 6v42c0 1.1-.9 2-2 2H6c-1.1 0-2-.9-2-2V2c0-1.1.9-2 2-2h12a4 4 0 0 1 4 4v2h38z" fill="#f3f3f3"/><path d="M57 3c0-1.32-2-1.32-2 0s2 1.32 2 0zm-4 0c0-1.32-2-1.32-2 0s2 1.32 2 0z" fill="#1976d2"/><path d="M49,3c0-1.32-2-1.32-2,0s2,1.32,2,0Z" fill="#f3f3f3"/><path d="M37,3c0-1.32-2-1.32-2,0s2,1.32,2,0Z" fill="#1976d2"/><path d="M19,3c0-1.32-2-1.32-2,0s2,1.32,2,0Z" fill="#d38e2a"/><path d="M41 44l-1.5 6H20.31l-1.85-6.28c-.12-.43-.52-.72-.96-.72H15c-1.32 0-1.32-2 0-2h2.5c1.32 0 2.51.89 2.88 2.15l.25.85H41z" fill="#d9d9d9"/><g fill="#1976d2"><path d="M43 42H22.63l-.25-.85C22.01 39.89 20.82 39 19.5 39H17c-1.32 0-1.32 2 0 2h2.5c.44 0 .84.29.96.72l4.16 14.13c.37 1.26 1.56 2.15 2.88 2.15H39c1.32 0 1.32-2 0-2H27.5c-.9 0-.98-.77-1.34-2H40l3-12z"/><circle cx="28" cy="62" r="2"/><circle cx="38" cy="62" r="2"/></g><path d="M27 15l-3 3-2-1v10H12V17l-2 1-3-3 5-4h3l2 2 2-2h3l5 4zm2-3h28v2H29zm0 4h28v2H29zm0 4h28v2H29zm0 4h28v2H29zM7 31h20v2H7zm48 3H43c-1.1 0-2-.9-2-2 0-.81.63-2 2-2h12c1.1 0 2 .9 2 2 0 .81-.63 2-2 2z" fill="#d9d9d9"/></svg>