<?xml version="1.0" encoding="UTF-8"?><svg id="a" xmlns="http://www.w3.org/2000/svg" viewBox="0 0 56 64"><defs><style>.i{fill:#5e9fdf;}.j{fill:#fdfdfd;}.k{fill:#d38e2a;}.l{fill:#f3f3f3;}.m{fill:#d9d9d9;}.n{fill:#1976d2;}</style></defs><g><path class="i" d="M2,0H54c1.1,0,2,.9,2,2V6H0V2C0,.9,.9,0,2,0Z"/><path class="i" d="M13,0h19c2.21,0,4,1.79,4,4v2H13V0h0Z"/></g><path class="l" d="M56,6V49c0,1.1-.9,2-2,2H2c-1.1,0-2-.9-2-2V2C0,.9,.9,0,2,0H14c2.21,0,4,1.79,4,4v2H56Z"/><path class="n" d="M53,3c0-1.32-2-1.32-2,0s2,1.32,2,0Zm-4,0c0-1.32-2-1.32-2,0s2,1.32,2,0Z"/><path class="l" d="M45,3c0-1.32-2-1.32-2,0s2,1.32,2,0Z"/><path class="n" d="M33,3c0-1.32-2-1.32-2,0s2,1.32,2,0Z"/><path class="k" d="M15,3c0-1.32-2-1.32-2,0s2,1.32,2,0Z"/><g><path class="n" d="M48,6h8v10h-8V6Z"/><path id="b" class="n" d="M52,21c-2.21,0-4-1.79-4-4v-1h8v1c0,2.21-1.79,4-4,4Z"/></g><path class="i" d="M40,6h8v10h-8V6Z"/><g><path id="c" class="n" d="M44,21c-2.21,0-4-1.79-4-4v-1h8v1c0,2.21-1.79,4-4,4Z"/><path class="n" d="M32,6h8v10h-8V6Z"/><path id="d" class="n" d="M36,21c-2.21,0-4-1.79-4-4v-1h8v1c0,2.21-1.79,4-4,4Z"/></g><path class="i" d="M24,6h8v10h-8V6Z"/><g><path id="e" class="n" d="M28,21c-2.21,0-4-1.79-4-4v-1h8v1c0,2.21-1.79,4-4,4Z"/><path class="n" d="M16,6h8v10h-8V6Z"/><path id="f" class="n" d="M20,21c-2.21,0-4-1.79-4-4v-1h8v1c0,2.21-1.79,4-4,4Z"/></g><path class="i" d="M8,6h8v10H8V6Z"/><g><path id="g" class="n" d="M12,21c-2.21,0-4-1.79-4-4v-1h8v1c0,2.21-1.79,4-4,4Z"/><path class="n" d="M0,6H8v10H0V6Z"/><path id="h" class="n" d="M4,21c-2.21,0-4-1.79-4-4v-1H8v1c0,2.21-1.79,4-4,4Z"/></g><path class="m" d="M39,44.7v6.3H17v-6.3l11-4.89,11,4.89Z"/><path class="k" d="M37,46v6.78c0,5.39-3.74,10.05-9,11.22-5.25-1.17-9-5.83-9-11.22v-6.78l9-4,9,4Z"/><path class="j" d="M26,57c-.26,0-.51-.1-.71-.29l-2-2c-.39-.39-.39-1.02,0-1.41s1.02-.39,1.41,0l1.29,1.29,5.29-5.29c.39-.39,1.02-.39,1.41,0s.39,1.02,0,1.41l-6,6c-.2,.2-.45,.29-.71,.29Z"/><path class="m" d="M24,27l-3,4-2-2v12H8v-12l-2,2-3-4,4-4h13l4,4Zm4-3h25v2H28v-2Zm0,4h25v2H28v-2Zm0,4h25v2H28v-2Zm0,4h18v2H28v-2Z"/></svg>