<?xml version="1.0" encoding="UTF-8"?><svg id="a" xmlns="http://www.w3.org/2000/svg" viewBox="0 0 64 59.1"><defs><style>.b{fill:#fff;}.c{fill:#5e9fdf;}.d{fill:#d38e2a;}.e{fill:#d9d9d9;}.f{fill:#1976d2;}</style></defs><g><rect class="f" width="64" height="48" rx="3" ry="3"/><path class="f" d="M39.81,58.05l-16-.1,1.07-10,14,.1,.93,10Z"/></g><path class="c" d="M46.81,59.1l-30-.2c-1.34,0-1.28-2.01,.01-2l30,.2c1.34,0,1.28,2.01,0,2Z"/><path class="b" d="M3,2H61c.55,0,1,.45,1,1V42H2V3c0-.55,.45-1,1-1Z"/><g><path class="d" d="M13,18h-2.05L7.26,6h-2.26c-1.32,0-1.32-2,0-2h3c.44,0,.83,.29,.96,.71l4.04,13.29Z"/><path class="d" d="M26,7l-2,11H10.95L7.57,7H26Z"/><circle class="d" cx="14" cy="18" r="2"/><circle class="d" cx="21" cy="18" r="2"/></g><path class="e" d="M4,24H26v2H4v-2Zm0,4h12v2H4v-2Zm14,0h8v2h-8v-2ZM52,7h8v2h-8v-2Z"/><path class="c" d="M7,32c-1.65,0-2.99,1.35-3,3v2c0,1.65,1.35,2.99,3,3,1.65,0,2.99-1.35,3-3v-2c0-1.65-1.35-2.99-3-3Zm1,5c0,1.32-2,1.32-2,0v-2c0-1.32,2-1.32,2,0v2Zm6.53-4.85c-.62-.38-.96-.05-2.97,.96-1.18,.59-.29,2.38,.89,1.79l.55-.28v4.38c0,1.32,2,1.32,2,0,0-6.5,.16-6.46-.47-6.85Z"/><path class="f" d="M30,26l8-8,9,9,10-10v22H30v-13Z"/><path class="e" d="M17,38h9v2h-9v-2Z"/><path class="d" d="M47,28c-.59,0-.04,.38-9-8.59l-7.29,7.29c-.94,.94-2.35-.48-1.41-1.41l8-8c.39-.39,1.02-.39,1.41,0l8.29,8.29,9.29-9.29c.94-.94,2.35,.48,1.41,1.41-10.83,10.83-10.11,10.29-10.71,10.29h0Z"/><path class="e" d="M59,40H30c-.55,0-1-.45-1-1V8c0-.55,.45-1,1-1s1,.45,1,1v30h28c.55,0,1,.45,1,1s-.45,1-1,1Z"/></svg>