<svg xmlns="http://www.w3.org/2000/svg" viewBox="0 0 64 64" xmlns:v="https://vecta.io/nano"><rect x="1" y="6" width="62" height="48" rx="4" fill="#5e9fdf"/><path d="M44,64H20c2.75-2.75,4-6.21,4-10h16c0,4.08,1.44,7.44,4,10Z" fill="#1976d2"/><g fill="#5e9fdf"><path d="M45 64H19c-.55 0-1-.45-1-1 0-.29.22-1 1-1h26c.55 0 1 .45 1 1 0 .29-.22 1-1 1z"/><rect x="4" y="9" width="56" height="40" rx="1"/></g><path d="M60 14v34c0 .55-.45 1-1 1H5c-.55 0-1-.45-1-1V10c0-.55.45-1 1-1l16 .11a3.98 3.98 0 0 1 2.2 1.39l1.6 2c.76.95 1.91 1.5 3.12 1.5H60z" fill="#fff"/><path d="M20,19c-6.08,0-11,4.92-11,11s4.92,11,11,11,11-4.92,11-11-4.92-11-11-11Zm0,13c-1.1,0-2-.9-2-2s.9-2,2-2,2,.9,2,2-.9,2-2,2Z" fill="#d38e2a"/><path d="M20 26a4 4 0 1 0 0 8 4 4 0 1 0 0-8zm0 6c-1.1 0-2-.9-2-2s.9-2 2-2 2 .9 2 2-.9 2-2 2zm8-1c-.55 0-1-.45-1-1a7.01 7.01 0 0 0-7-7c-.55 0-1-.45-1-1s.45-1 1-1c4.96 0 9 4.04 9 9 0 .55-.45 1-1 1zm-8 8c-4.96 0-9-4.04-9-9 0-.55.45-1 1-1s1 .45 1 1a7.01 7.01 0 0 0 7 7c.55 0 1 .45 1 1s-.45 1-1 1z" fill="#e4c290"/><path d="M35 22h17v2H35zm0 4h20v2H35zm0 4h12v2H35z" fill="#d9d9d9"/><rect x="35" y="35" width="14" height="6" rx="2" fill="#d38e2a"/><path d="M63 10v10.65a13.39 13.39 0 0 1-3 2.82V10c0-.55-.45-1-1-1H38.33c.22-1.05.57-2.05 1.02-3H59a4 4 0 0 1 4 4z" fill="#1976d2"/><path d="M60 10v4H38.14c-.24-1.76-.16-3.45.19-5H59c.55 0 1 .45 1 1z" fill="#5e9fdf"/><path d="M60 14v9.47c-4.48 3.17-10.49 3.38-15.2.53H52v-2h-9.78a13.96 13.96 0 0 1-4.08-8H60z" fill="#f3f3f3"/><path d="M52 22v2h-7.2a13.2 13.2 0 0 1-2.58-2H52z" fill="#c8c8c8"/><circle cx="52" cy="12" r="12" fill="#5e9fdf"/><path d="M56.9 19h-9.79a1.01 1.01 0 0 1-1-1.1l.8-8a1 1 0 0 1 1-.9h8.19c.51 0 .94.39 1 .9l.8 8a1 1 0 0 1-1 1.1z" fill="#1976d2"/><path d="M54,11c-.55,0-1-.45-1-1v-2c0-.55-.45-1-1-1s-1,.45-1,1v2c0,.55-.45,1-1,1s-1-.45-1-1v-2c0-1.65,1.35-3,3-3s3,1.35,3,3v2c0,.55-.45,1-1,1Z" fill="#5e9fdf"/><circle cx="21" cy="12" r="1" fill="#d9d9d9"/><g fill="#d38e2a"><circle cx="2" cy="3" r="1"/><circle cx="6" cy="3" r="1"/><circle cx="10" cy="3" r="1"/></g></svg>