<svg xmlns="http://www.w3.org/2000/svg" viewBox="0 0 64 64" xmlns:v="https://vecta.io/nano"><g fill="#1976d2"><rect y="3" width="64" height="48" rx="3"/><path d="M39.81 61.05l-16-.1 1.07-10 14 .1.93 10z"/></g><path d="M46.81 62.1l-30-.2c-1.34 0-1.28-2.01.01-2l30 .2c1.34 0 1.28 2.01-.01 2z" fill="#5e9fdf"/><path d="M3 5h58c.55 0 1 .45 1 1v3H2V6c0-.55.45-1 1-1z" fill="#c8c8c8"/><path d="M2 9h60v36H2z" fill="#fff"/><path d="M2 9h10v26H2zm48 0h12v36H50z" fill="#f3f3f3"/><g fill="#c8c8c8"><path d="M4 11h3v3H4z"/><path d="M7 14h3v3H7z"/></g><g fill="#d9d9d9"><path d="M7 11h3v3H7z"/><path d="M4 14h3v3H4z"/></g><g fill="#c8c8c8"><path d="M4 17h3v3H4z"/><path d="M7 20h3v3H7z"/></g><g fill="#d9d9d9"><path d="M7 17h3v3H7z"/><path d="M4 20h3v3H4z"/></g><path d="M6 27h4v4H6z" fill="#d38e2a"/><path d="M4 25h4v4H4z" fill="#1976d2"/><path d="M50 30h12v4H50z" fill="#d9d9d9"/><path d="M50 32h5v2h-5z" fill="#f3f3f3"/><path d="M50 9h12v4H50z" fill="#d9d9d9"/><path d="M50 11h5v2h-5z" fill="#f3f3f3"/><path d="M54 17h4v4h-4z" fill="#5e9fdf"/><path d="M52 15h4v4h-4z" fill="#d38e2a"/><path d="M52 23h8v2h-8zm0 13h8v2h-8z" fill="#5e9fdf"/><path d="M32 33c-5.56 0-9.5-4.94-8.96-9.82.72-8.09 11.03-11.11 16.02-4.75C43.69 24.29 39.53 33 32 33z" fill="#d38e2a"/><path d="M52 40h8v2h-8z" fill="#5e9fdf"/><path d="M39.06 18.43c-1.03.57-.84.52-7.64 7.33-.79.78-2.05.78-2.83 0l-.85-.85c-1.29-1.28-3.01-1.86-4.7-1.73a8.83 8.83 0 0 0 .54 3.99c1.03.02 1.54.78 2.18 1.42a6.02 6.02 0 0 0 8.48 0l6.55-6.52c-.3-1.35-.9-2.59-1.73-3.64z" fill="#e4c290"/><g fill="#5e9fdf"><path d="M2 45l18.67-18.67c1.56-1.56 4.09-1.56 5.66 0l.84.84c1.56 1.56 4.09 1.56 5.66 0l6.34-6.34c1.56-1.56 4.09-1.56 5.66 0l5.26 5.26V45H2"/><path d="M40 33h6c1.1 0 2 .9 2 2v10H38V35c0-1.1.9-2 2-2z"/></g><path d="M39,40h-6c-1.34,0-1.29-2,0-2h6c1.34,0,1.29,2,0,2Z" fill="#1976d2"/><path d="M14 11h10v2H14zm0 4h6v2h-6z" fill="#f3f3f3"/><path d="M35.05 24L40 26.12l-2.12.71-.71 2.12L35.05 24z" fill="#1976d2"/></svg>