<svg xmlns="http://www.w3.org/2000/svg" viewBox="0 0 64 64" xmlns:v="https://vecta.io/nano"><path d="M64 46l-1 2c.65.65 1 .88 1 1.41V50c0 .55-.45 1-1 1-53.71 0-42.37.33-57-1H3.24a2 2 0 0 1-1.79-1.11L0 46v-3c1.26-1.26.8-.6 2-3l-1-1 7-1 10.2-4.37c4.39-1.89 9.22-2.1 13.57-.83C35.4 33.86 37.26 35.35 43 39c11.98 1.1 10.35.8 21 4v3z" fill="#5e9fdf"/><g fill="#1976d2"><circle cx="11" cy="48" r="5"/><circle cx="11" cy="48" r="3"/><circle cx="53" cy="48" r="5"/><circle cx="53" cy="48" r="3"/></g><path d="M39 39H11c7.29-3.32 12.07-6.49 19.8-4.31 2.98.86 4.49 1.99 8.2 4.31z" fill="#f3f3f3"/><path d="M2.96 41.45A1 1 0 0 1 2.13 43H0c1.26-1.26.8-.6 2-3l.96 1.45z" fill="#d38e2a"/><path d="M64 46l-2.06-.51C60.8 45.2 60 44.18 60 43h4v3z" fill="#f3f3f3"/><path d="M19 35.38V39h-2v-2.73l2-.89z" fill="#d9d9d9"/><path d="M23,45h-2c-1.34,0-1.29-2,0-2h2c1.34,0,1.29,2,0,2Z" fill="#1976d2"/><circle cx="26" cy="20" r="9" fill="#d38e2a"/><path d="M25 26l4-8h-2l1-4h-4l-1 6h3l-1 6zm-11-5H8c-3.31 0-6 2.69-6 6v9" fill="#fdfdfd"/><path d="M1,36v-9c0-3.86,3.14-7,7-7h6c1.32,0,1.32,2,0,2h-6c-2.76,0-5,2.24-5,5v9c0,1.32-2,1.32-2,0Z" fill="#d38e2a"/></svg>