<?xml version="1.0" encoding="UTF-8"?><svg id="a" xmlns="http://www.w3.org/2000/svg" viewBox="0 0 64 64"><defs><style>.b{fill:#fff;}.c{fill:#5e9fdf;}.d{fill:#d38e2a;}.e{fill:#f3f3f3;}.f{fill:#1976d2;}</style></defs><path class="c" d="M62,19V58H2V19c0-1.66,1.34-3,3-3H59c1.66,0,3,1.34,3,3Z"/><path class="f" d="M1,58H63c.55,0,1,.45,1,1v2c0,1.66-1.34,3-3,3H3c-1.66,0-3-1.34-3-3v-2c0-.55,.45-1,1-1Z"/><path class="b" d="M60,19V56H4V19c0-.55,.45-1,1-1H59c.55,0,1,.45,1,1Z"/><path class="e" d="M39,60h-14c-1.1,0-2-.9-2-2,0-.1-.84,0,18,0,0,.81-.63,2-2,2Z"/><path class="f" d="M9,16H55v2H9v-2Z"/><path class="e" d="M55,18v20c0,2.21-1.79,4-4,4H13c-2.21,0-4-1.79-4-4V18H55Z"/><g><rect class="c" x="11" y="12" width="42" height="28" rx="2" ry="2"/><path class="c" d="M53,14l-21,13L11,14c0-1.1,.9-2,2-2H51c1.1,0,2,.9,2,2Z"/><path class="c" d="M43.83,12c-1.14,6.53-7.37,10.9-13.9,9.76-4.98-.87-8.89-4.77-9.76-9.76h23.66Z"/></g><g><circle class="d" cx="32" cy="10" r="10"/><path class="d" d="M39,45l-7,8-7-8h4l-1-8h8l-1,8h4Z"/></g><g><path class="e" d="M32,14h-1c-1.65,0-3-1.35-3-3,0-3.23,2.82-5.01,4.77-5.01,.58,0,1.1,.16,1.49,.45,.48,.37,.75,.92,.75,1.56v3c0,1.65-1.35,3-3,3Zm.82-6.02c-.24,0-.68,.07-1.2,.35-.49,.27-1.63,1.06-1.63,2.67,0,.55,.45,1,1,1h1c.55,0,1-.45,1-1v-3s-.08-.02-.18-.02Z"/><path class="e" d="M31.94,18.02c-3.03,0-6.46-1.9-7.56-5.53-.83-2.73-.25-5.61,1.56-7.71,1.8-2.09,4.51-3.09,7.26-2.69,4.78,.69,7.02,5.24,6.8,8.26-.16,2.22-1.54,3.65-3.52,3.65s-3.48-1.56-3.48-3.48v-2.52c0-.55,.45-1,1-1s1,.45,1,1v2.52c0,.82,.66,1.48,1.48,1.48,1.15,0,1.46-.98,1.52-1.8,.16-2.24-1.52-5.62-5.1-6.13-2.07-.3-4.11,.45-5.46,2.02-1.38,1.6-1.8,3.72-1.16,5.82,.9,2.98,4.11,4.49,6.53,4.03,.55-.1,1.07,.25,1.17,.8,.1,.54-.25,1.07-.8,1.17-.4,.08-.82,.11-1.25,.11Z"/></g></svg>