<svg xmlns="http://www.w3.org/2000/svg" viewBox="0 0 64 64" xmlns:v="https://vecta.io/nano"><path d="M62,19V58H2V19c0-1.66,1.34-3,3-3H59c1.66,0,3,1.34,3,3Z" fill="#5e9fdf"/><path d="M1 58h62c.55 0 1 .45 1 1v2c0 1.66-1.34 3-3 3H3c-1.66 0-3-1.34-3-3v-2c0-.55.45-1 1-1z" fill="#1976d2"/><path d="M60 19v4H20l-4-5h43c.55 0 1 .45 1 1z" fill="#5e9fdf"/><path d="M60 23v33H4V19c0-.55.45-1 1-1h14.08c1.21 0 2.36.55 3.12 1.5l1.6 2c.86 1.03 1.97 1.5 3.12 1.5H60z" fill="#fff"/><path d="M60 25h2v28h-2z" fill="#1976d2"/><path d="M60 25v28H32a4 4 0 0 1-4-4V29a4 4 0 0 1 4-4h28z" fill="#f3f3f3"/><rect x="30" y="27" width="34" height="24" rx="2" fill="#d38e2a"/><path d="M39 60H25c-.81 0-2-.63-2-2h18c0 .81-.63 2-2 2z" fill="#f3f3f3"/><path d="M30 31l15.91 10.3c.66.43 1.51.43 2.17 0L63.99 31v-2.14c0-1.1-.9-2-2-2H32c-1.1 0-2 .9-2 2V31z" fill="#e4c290"/><path d="M16 27h10v2H16zm2 4h8v2h-8zm4 4h4v2h-4zM8 41h10v2H8z" fill="#d9d9d9"/><path d="M25.42 16c-.21.69-.46 1.36-.77 2H5c-.55 0-1 .45-1 1v4.48c-.72-.5-1.39-1.06-2-1.69V19c0-1.66 1.34-3 3-3h20.42z" fill="#1976d2"/><path d="M24.65 18a14.2 14.2 0 0 1-1.59 2.58l-.86-1.08c-.76-.95-1.91-1.5-3.12-1.5h5.57z" fill="#5e9fdf"/><path d="M23.06 20.58c-4.62 5.94-13.01 7.14-19.06 2.9V19c0-.55.45-1 1-1h14.08c1.21 0 2.36.55 3.12 1.5l.86 1.08z" fill="#f3f3f3"/><circle cx="12" cy="12" r="12" fill="#fff"/><path d="M20.06,16c-3.3,6.65-12.81,6.67-16.12,0-1.25-2.54-1.27-5.42,0-8,3.3-6.65,12.81-6.67,16.12,0,1.25,2.55,1.26,5.43,0,8Z" fill="#5e9fdf"/><g fill="#1976d2"><path d="M11.33 20.75C9.08 18.74 7 16.28 7 12s2.08-6.73 4.33-8.75c.38-.34.95-.34 1.33 0 2.25 2.01 4.33 4.47 4.33 8.75s-2.08 6.73-4.33 8.75c-.38.34-.95.34-1.33 0zM12 5.37C10.17 7.15 9 9.05 9 12s1.17 4.86 3 6.63c1.83-1.78 3-3.68 3-6.63s-1.17-4.86-3-6.63z"/><path d="M20.06 8H3.94c-.31.63-.56 1.3-.72 2h17.56c-.16-.7-.41-1.37-.72-2zM3.94 16h16.12c.31-.63.56-1.3.72-2H3.22c.16.7.41 1.37.72 2z"/></g><path d="M19,51H11c-1.66,0-3-1.34-3-3s1.34-3,3-3h8c1.66,0,3,1.34,3,3s-1.34,3-3,3Z" fill="#5e9fdf"/><g fill="#fff"><circle cx="15" cy="48" r="1"/><circle cx="19" cy="48" r="1"/><circle cx="11" cy="48" r="1"/></g></svg>