<svg xmlns="http://www.w3.org/2000/svg" viewBox="0 0 64 64" xmlns:v="https://vecta.io/nano"><g fill="#1976d2"><path d="M4 28L32 7l28 21H4z"/><path d="M60 28L32 49 4 28h56z"/></g><path d="M52 16v36H12V4a4 4 0 0 1 4-4h40" fill="#f3f3f3"/><path d="M60 28v36H4V28l28 21 28-21z" fill="#5e9fdf"/><path d="M60 16h-8V4a4 4 0 1 1 8 0v12z" fill="#d9d9d9"/><path d="M20.5 11h-1a1.5 1.5 0 1 1 0-3H23c1.32 0 1.32-2 0-2h-2V5c0-1.32-2-1.32-2 0v1.05c-1.69.25-3 1.69-3 3.45 0 1.93 1.57 3.5 3.5 3.5h1a1.5 1.5 0 1 1 0 3H17c-1.32 0-1.32 2 0 2h2v1c0 1.32 2 1.32 2 0v-1.05c1.69-.25 3-1.69 3-3.45 0-1.93-1.57-3.5-3.5-3.5z" fill="#d38e2a"/><path d="M28 6h20v2H28zm0 4h20v2H28zm0 4h20v2H28zm0 4h20v2H28zm-12 4h32v2H16zm0 4h32v2H16zm0 4h32v2H16zm0 4h32v2H16z" fill="#d9d9d9"/></svg>