<?xml version="1.0" encoding="UTF-8"?><svg id="a" xmlns="http://www.w3.org/2000/svg" viewBox="0 0 58 64.02"><defs><style>.b{fill:#fff;}.c{fill:#5e9fdf;}.d{fill:#c8c8c8;}.e{fill:#fdfdfd;}.f{fill:#d38e2a;}.g{fill:#d9d9d9;}.h{fill:#1976d2;}</style></defs><path class="f" d="M39,22.02c-.88,0-1.34-1.07-.71-1.71l13.29-13.29h-1.59c-1.32,0-1.32-2,0-2h4c.89,0,1.34,1.08,.71,1.71-16.37,16.37-15.12,15.29-15.71,15.29h0Z"/><path class="f" d="M54,11.02c-.55,0-1-.45-1-1V6.02c0-.55,.45-1,1-1s1,.45,1,1v4c0,.55-.45,1-1,1Z"/><path class="h" d="M40,6.02V58.02c0,3.31-2.69,6-6,6H6c-3.31,0-6-2.69-6-6V6.02C0,2.71,2.69,.02,6,.02,36.32,.02,34.68-.15,36.14,.42c2.26,.84,3.86,3.09,3.86,5.6Z"/><path class="b" d="M38,6.02V56.02c0,2.21-1.79,4-4,4H6c-2.21,0-4-1.79-4-4V6.02c0-2.21,1.79-4,4-4h5.28c.43,0,.81,.28,.95,.68,.27,.83,.56,2.32,2.21,2.32h11.12c.86,0,1.63-.55,1.9-1.37l.31-.95c.14-.4,.52-.68,.95-.68l5.77,.04c1.84,.17,3.51,1.83,3.51,3.96Z"/><circle class="g" cx="10" cy="14.02" r="5"/><g><path class="d" d="M14.2,16.74c-1.51,2.32-4.61,2.98-6.93,1.47-.59-.38-1.09-.88-1.47-1.47,2.32-2.29,6.08-2.3,8.4,0Z"/><circle class="d" cx="10" cy="13.02" r="2"/></g><circle class="g" cx="10" cy="28.02" r="5"/><g><path class="d" d="M14.2,30.74c-1.51,2.32-4.61,2.98-6.93,1.47-.59-.38-1.09-.88-1.47-1.47,2.32-2.29,6.08-2.3,8.4,0Z"/><circle class="d" cx="10" cy="27.02" r="2"/></g><circle class="g" cx="10" cy="42.02" r="5"/><g><path class="d" d="M14.2,44.74c-1.51,2.32-4.61,2.98-6.93,1.47-.59-.38-1.09-.88-1.47-1.47,2.32-2.29,6.08-2.3,8.4,0Z"/><circle class="d" cx="10" cy="41.02" r="2"/></g><path class="g" d="M18,10.02h8v2h-8v-2Zm0,4h16v2H18v-2Zm0,11h8v2h-8v-2Zm0,4h16v2H18v-2Zm0,11h8v2h-8v-2Zm0,4h16v2H18v-2Zm13,14H9c-1.34,0-1.29-2,0-2H31c1.34,0,1.29,2,0,2Z"/><path class="h" d="M40,20.28V54.02h-2V21.1c.63-.36,1.3-.64,2-.82Z"/><path class="g" d="M38,21.1V54.02h-10.12c-2.14,0-3.88-1.79-3.88-4v-4h10v-2h-10v-2h2v-2h-2v-9h10v-2h-9.87c.18-.74,.57-1.41,1.12-1.94,.1-.1,.05-.06,.75-.06v-.49c1.12-.68,1.49-.51,8.26-.51,.54-2.09,1.91-3.86,3.74-4.92Z"/><path class="d" d="M26,27.02h-.68c.21-.2,.43-.36,.68-.49v.49Zm-2,13h2v2h-2v-2Zm10-11v2h-10c0-.95-.04-1.41,.13-2h9.87Zm-10,15h10v2h-10v-2Z"/><path class="h" d="M58,30.02v20c0,1.1-.85,2-1.88,2H27.88c-1.03,0-1.88-.9-1.88-2,0-21.46-.27-20.64,.63-21.49,.75-.73-1.28-.51,29.49-.51,1.03,0,1.88,.9,1.88,2Z"/><path class="c" d="M58,30.02v.65l-16,10.35-16-10.35v-.65c0-1.07,.82-2,1.88-2h28.24c1.03,0,1.88,.9,1.88,2Z"/><path class="h" d="M50,28.02c0,4.41-3.59,8-8,8s-8-3.59-8-8h16Z"/><g><circle class="f" cx="42" cy="28.02" r="6"/><path class="f" d="M2,35.44l15-15.01,4.29,4.3c.39,.39,1.03,.39,1.42,0L45.71,1.73c.94-.94-.48-2.36-1.42-1.42L22,22.61l-4.29-4.3c-.39-.39-1.03-.39-1.42,0L2,32.6v2.84Z"/><path class="f" d="M44,5.02V2.02h-3c-1.32,0-1.32-2,0-2h4c.55,0,1,.45,1,1V5.02c0,1.32-2,1.32-2,0Z"/></g><path class="e" d="M41,31.02v-4c-.88,0-1.34-1.07-.71-1.71,1.04-1.04,1.35-1.52,2.09-1.22,.37,.15,.62,.52,.62,.92v6c0,1.32-2,1.32-2,0h0Z"/></svg>