<svg xmlns="http://www.w3.org/2000/svg" viewBox="0 0 64 64" xmlns:v="https://vecta.io/nano"><path d="M52 8v48a8 8 0 0 1-8 8H20a8 8 0 0 1-8-8V8a8 8 0 0 1 8-8h24a8 8 0 0 1 8 8z" fill="#1976d2"/><path d="M49 9v45c0 3.31-2.69 6-6 6H21c-3.31 0-6-2.69-6-6V9c0-3.38 2.75-6 6-6h3.29a.98.98 0 0 1 .94.68l.31.95A2.01 2.01 0 0 0 27.44 6h9.12a2.01 2.01 0 0 0 1.9-1.37l.31-.94a1 1 0 0 1 .95-.69H43c3.31 0 6 2.69 6 6z" fill="#fff"/><g fill="#5e9fdf"><circle cx="32" cy="43" r="8"/><path d="M39.78 51.78c-.88 0-1.34-1.07-.71-1.71 3.85-3.85 3.94-9.98.2-13.93-.38-.4-.36-1.03.04-1.41s1.03-.36 1.41.04c4.49 4.75 4.38 12.1-.24 16.72a.98.98 0 0 1-.71.29zm-15.56 0c-.26 0-.51-.1-.71-.29-4.68-4.68-4.68-12.29 0-16.97.39-.39 1.02-.39 1.41 0s.39 1.02 0 1.41a10.01 10.01 0 0 0 0 14.14 1.01 1.01 0 0 1-.71 1.71z"/></g><path d="M35.95 44.71l-.98-.98a.99.99 0 0 0-1.02-.24l-1.54.51L31 42.59l.51-1.54c.12-.36.03-.76-.24-1.02l-.98-.98c-1.35-1.35-3.52 2.13-1.41 4.24l2.83 2.83c2.1 2.1 5.61-.05 4.24-1.41z" fill="#fff"/><path d="M42 58H22c-.55 0-1-.45-1-1 0-.29.22-1 1-1h20c.55 0 1 .45 1 1 0 .29-.22 1-1 1z" fill="#d9d9d9"/><g fill="#d38e2a"><path d="M26 20a4 4 0 1 1 0-8 4 4 0 1 1 0 8zm0-6c-1.1 0-2 .9-2 2s.9 2 2 2 2-.9 2-2-.9-2-2-2z"/><path d="M25 24h-1c-.55 0-1-.45-1-1s.45-1 1-1h1a3.01 3.01 0 0 0 3-3v-3c0-.55.45-1 1-1s1 .45 1 1v3c0 2.76-2.24 5-5 5zm10 0c-.55 0-1-.45-1-1v-8.38l-.55.28c-.5.25-1.1.05-1.34-.45-.25-.49-.05-1.09.45-1.34l2-1c.66-.33 1.45.15 1.45.89v10c0 .55-.45 1-1 1zm6 0c-.55 0-1-.45-1-1v-8.38l-.55.28c-.49.25-1.09.05-1.34-.45-.25-.49-.05-1.09.45-1.34l2-1c.67-.33 1.45.15 1.45.89v10c0 .55-.45 1-1 1z"/></g><path d="M15 9.45V22h-3c0-15.33-.18-15.02.53-16.87L15 9.45z" fill="#1976d2"/><path d="M17 22h-2V9.45l4.61 8.06C20.73 19.55 19.29 22 17 22z" fill="#f3f3f3"/><path d="M17 20H1c-.78 0-1.23-.84-.87-1.5l8-14c.36-.62 1.38-.62 1.74 0l8 14c.36.66-.09 1.5-.87 1.5z" fill="#d38e2a"/><g fill="#fff"><path d="M9 14c-.55 0-1-.45-1-1v-3c0-.55.45-1 1-1s1 .45 1 1v3c0 .55-.45 1-1 1z"/><circle cx="9" cy="17" r="1"/></g><path d="M52 26.19V44h-3V31.45l3-5.26z" fill="#1976d2"/><path d="M49 31.45V44h-2a3.01 3.01 0 0 1-2.62-4.46L49 31.45z" fill="#f3f3f3"/><path d="M63 42H47c-.78 0-1.23-.84-.87-1.5l8-14c.36-.62 1.38-.62 1.74 0l8 14c.36.66-.09 1.5-.87 1.5z" fill="#d38e2a"/><g fill="#fff"><path d="M55 36c-.55 0-1-.45-1-1v-3c0-.55.45-1 1-1s1 .45 1 1v3c0 .55-.45 1-1 1z"/><circle cx="55" cy="39" r="1"/></g><g fill="#d9d9d9"><circle cx="45" cy="7" r="1"/><circle cx="41" cy="7" r="1"/></g></svg>