<svg xmlns="http://www.w3.org/2000/svg" viewBox="0 0 64 64" xmlns:v="https://vecta.io/nano"><circle cx="12" cy="27" r="12" fill="#5e9fdf"/><g fill="#1976d2"><circle cx="8" cy="24" r="2"/><path d="M16.29 34.71a6.08 6.08 0 0 0-8.59 0c-.94.94-2.35-.48-1.41-1.41 3.15-3.15 8.27-3.15 11.41 0 .94.94-.49 2.34-1.41 1.41z"/><circle cx="16" cy="24" r="2"/></g><circle cx="52" cy="27" r="12" fill="#5e9fdf"/><g fill="#1976d2"><circle cx="48" cy="24" r="2"/><path d="M47.71 31.23a6.08 6.08 0 0 0 8.59 0c.94-.94 2.35.48 1.41 1.41-3.15 3.15-8.27 3.15-11.41 0-.94-.94.49-2.34 1.41-1.41z"/><circle cx="56" cy="24" r="2"/></g><circle cx="32" cy="27" r="15" fill="#e4c290"/><g fill="#d38e2a"><circle cx="27" cy="22" r="3"/><circle cx="37" cy="22" r="3"/><path d="M41 28l-.06 2c-.5 4.55-4.38 8-8.94 8s-8.44-3.45-8.94-8c-.08-.63-.06-1.01-.06-2h18z"/></g><path d="M41 28l-.06 2H23.06c-.08-.63-.06-1.01-.06-2h18z" fill="#f3f3f3"/><path d="M36.71,36.66c-2.88,1.79-6.54,1.79-9.42,0,1.58-3.54,7.85-3.54,9.42,0Z" fill="#d38e2a"/><path d="M0 48h64v2H0z" fill="#d9d9d9"/><path d="M35,52h-6c-1.66,0-3-1.34-3-3s1.34-3,3-3h6c1.66,0,3,1.34,3,3s-1.34,3-3,3Z" fill="#e4c290"/></svg>