<svg xmlns="http://www.w3.org/2000/svg" viewBox="0 0 64 64" xmlns:v="https://vecta.io/nano"><path d="M62,18V57H2V18c0-1.66,1.34-3,3-3H59c1.66,0,3,1.34,3,3Z" fill="#5e9fdf"/><path d="M1 57h62c.55 0 1 .45 1 1v2c0 1.66-1.34 3-3 3H3c-1.66 0-3-1.34-3-3v-2c0-.55.45-1 1-1z" fill="#1976d2"/><path d="M60 18v37H4V18c0-.55.45-1 1-1h54c.55 0 1 .45 1 1z" fill="#fff"/><path d="M39 59H25c-.81 0-2-.63-2-2h18c0 .81-.63 2-2 2z" fill="#f3f3f3"/><path d="M6 15h52v2H6z" fill="#1976d2"/><path d="M6 17h52v38H6z" fill="#f3f3f3"/><path d="M8 13h48v42H8z" fill="#5e9fdf"/><path d="M56 7v6H8V7c0-1.1.9-2 2-2h44c1.1 0 2 .9 2 2z" fill="#d9d9d9"/><g fill="#f3f3f3"><circle cx="52" cy="9" r="1"/><circle cx="48" cy="9" r="1"/><circle cx="44" cy="9" r="1"/></g><path d="M41.88 25H22.12c-4 0-6.44-4.4-4.37-7.79L20.32 13h23.36l2.57 4.21c2.07 3.38-.37 7.79-4.37 7.79z" fill="#5e9fdf"/><path d="M43.68 13H20.32l4.89-8h13.58l4.89 8z" fill="#c8c8c8"/><path d="M41.88 23H22.12c-2.45 0-3.93-2.68-2.66-4.75l9.5-15.54c1.38-2.26 4.69-2.29 6.09 0l9.5 15.54c1.25 2.05-.2 4.75-2.66 4.75z" fill="#d38e2a"/><g fill="#f3f3f3"><path d="M33.8 6.99L33.1 14c-.06.56-.53 1-1.1 1-.84 0-1.08-.76-1.1-1l-.7-7.01C30.09 5.92 30.93 5 32 5h0c1.07 0 1.91.92 1.8 1.99z"/><circle cx="32" cy="18" r="1"/><path d="M23 41h-8c-.71 0-1.19-.72-.93-1.37l4-10c.21-.51.78-.76 1.3-.56a1.01 1.01 0 0 1 .56 1.3L16.48 39H23c.55 0 1 .45 1 1s-.45 1-1 1z"/><path d="M22 45c-.55 0-1-.45-1-1v-9c0-.55.45-1 1-1s1 .45 1 1v9c0 .55-.45 1-1 1zm27-4h-8c-.71 0-1.19-.72-.93-1.37l4-10c.21-.51.78-.76 1.3-.56a1.01 1.01 0 0 1 .56 1.3L42.48 39H49c.55 0 1 .45 1 1s-.45 1-1 1z"/><path d="M48 45c-.55 0-1-.45-1-1v-9c0-.55.45-1 1-1s1 .45 1 1v9c0 .55-.45 1-1 1zm-16 0c-2.76 0-5-2.24-5-5v-6c0-2.76 2.24-5 5-5s5 2.24 5 5v6c0 2.76-2.24 5-5 5zm0-14a3.01 3.01 0 0 0-3 3v6a3.01 3.01 0 0 0 3 3 3.01 3.01 0 0 0 3-3v-6a3.01 3.01 0 0 0-3-3z"/></g></svg>