<svg xmlns="http://www.w3.org/2000/svg" xmlns:xlink="http://www.w3.org/1999/xlink" viewBox="0 0 64 64" xmlns:v="https://vecta.io/nano"><rect y="5" width="56" height="44" rx="3" fill="#1976d2"/><path d="M54 8v35H2V8c0-.55.45-1 1-1h50c.55 0 1 .45 1 1z" fill="#fff"/><path d="M35 57H21l1-8h12l.1.82.9 7.17z" fill="#1976d2"/><g fill="#5e9fdf"><path d="M39 59H17c-1.34 0-1.29-2 0-2h22c1.34 0 1.29 2 0 2zM54 8v3H2V8c0-.55.45-1 1-1h50c.55 0 1 .45 1 1z"/><path d="M15,7h13c1.66,0,3,1.34,3,3v1H15V7h0Z"/></g><path d="M3 7h12c1.66 0 3 1.34 3 3v2H2V8c0-.55.45-1 1-1z" fill="#fff"/><g fill="#d38e2a"><use xlink:href="#B"/><use xlink:href="#B" x="20"/><path d="M27 16a4 4 0 0 0-4 4v4a4 4 0 1 0 8 0v-4a4 4 0 0 0-4-4zm2 8c0 1.1-.9 2-2 2s-2-.9-2-2v-4c0-1.1.9-2 2-2s2 .9 2 2v4z"/></g><path d="M13 30h18v2H13zm20 0h8v2h-8zm-10 4h18v2H23zm-10 0h8v2h-8z" fill="#d9d9d9"/><path d="M56 8v12h-2V8c0-.55-.45-1-1-1H37.87l1.2-2H53c1.66 0 3 1.34 3 3zm0 24.77V46c0 1.66-1.34 3-3 3H34.35c.19-.52.2-.47 3.52-6H54V29.66c.48.5.6.78 2 3.11z" fill="#1976d2"/><path d="M54 29.66V43H37.87l7.5-12.51c1.86-3.1 6.4-3.27 8.63-.83z" fill="#f3f3f3"/><path d="M64 50.87A3.13 3.13 0 0 1 60.87 54H39.13c-2.44 0-3.93-2.67-2.69-4.74l10.64-17.74c1.24-2.07 4.58-2.08 5.82 0C64.41 50.7 63.99 49.65 63.99 50.87z" fill="#d38e2a"/><path d="M49.13 33.49l-9.27 16a1 1 0 0 0 .87 1.5h18.53c.77 0 1.25-.83.87-1.5l-9.27-16c-.39-.67-1.35-.67-1.73 0z" fill="#fdfdfd"/><g fill="#d38e2a"><path d="M48.86 43.01l-.67-4.69A1.16 1.16 0 0 1 49.33 37h1.34c.7 0 1.24.62 1.14 1.32l-.67 4.69c-.18 1.29-2.09 1.35-2.28 0z"/><circle cx="50" cy="48" r="2"/></g><defs ><path id="B" d="M19 17v5h-3.78l.76-4.8c.26-1.3-1.7-1.69-1.96-.39-1.06 6.33-1.2 6.33-.79 6.83s.38.37 5.77.37v3c0 1.32 2 1.32 2 0v-10c0-1.32-2-1.32-2 0z"/></defs></svg>