<?xml version="1.0" encoding="UTF-8"?><svg id="a" xmlns="http://www.w3.org/2000/svg" viewBox="0 0 64 54"><defs><style>.b{fill:#fff;}.c{fill:#5e9fdf;}.d{fill:#d38e2a;}.e{fill:#f3f3f3;}.f{fill:#d9d9d9;}.g{fill:#1976d2;}</style></defs><rect class="g" x="0" y="0" width="56" height="45" rx="3" ry="3"/><path class="b" d="M54,3V39H2V3c0-.55,.45-1,1-1H53c.55,0,1,.45,1,1Z"/><path class="g" d="M35,53h-14l1-8h12l1,8Z"/><g><path class="c" d="M39,54H17c-1.34,0-1.29-2,0-2h22c1.34,0,1.29,2,0,2ZM54,3v3H2V3c0-.55,.45-1,1-1H53c.55,0,1,.45,1,1Z"/><path class="c" d="M15,2h13c1.66,0,3,1.34,3,3v1H15V2h0Z"/></g><path class="b" d="M3,2H15c1.66,0,3,1.34,3,3v2H2V3c0-.55,.45-1,1-1Z"/><path class="g" d="M56,18v24c0,1.66-1.34,3-3,3h-13v-6h14V18h2Z"/><path class="e" d="M54,18v21h-14v-15c0-3.31,2.69-6,6-6h8Z"/><rect class="d" x="42" y="20" width="22" height="34" rx="4" ry="4"/><path class="b" d="M62,24v26c0,1.1-.9,2-2,2h-14c-1.1,0-2-.9-2-2V24c0-1.1,.9-2,2-2,1.43,0,1.95-.11,2.28,.55l.45,.89c.17,.34,.51,.55,.89,.55h6.76c.38,0,.73-.21,.89-.55l.45-.89c.17-.34,.51-.55,.89-.55h1.38c1.1,0,2,.9,2,2h.01Z"/><path class="e" d="M59,50h-12c-1.34,0-1.29-2,0-2h12c1.34,0,1.29,2,0,2Z"/><path class="d" d="M14,17h-3c-1.34,0-1.29-2,0-2h3c1.34,0,1.29,2,0,2Z"/><path class="d" d="M20,23c-.37,0-.72-.2-.9-.55-2.01-4.04-2.01-8.86,0-12.89,.25-.5,.85-.69,1.34-.45,.49,.25,.7,.85,.45,1.34-1.73,3.48-1.73,7.63,0,11.11,.25,.49,.05,1.09-.45,1.34-.14,.07-.3,.1-.45,.1Z"/><path class="f" d="M5,26h30v2H5v-2Zm0,4H28v2H5v-2Zm0,4H21v2H5v-2ZM42,9h8v2h-8v-2Z"/><path class="d" d="M49,34.41c1.23,1.23,1.44,1.59,2,1.59,.88,0,1.34-1.07,.71-1.71l-1.29-1.29,1.29-1.29c.94-.94-.48-2.35-1.41-1.41l-1.29,1.29-1.29-1.29c-.94-.94-2.35,.48-1.41,1.41l1.29,1.29-1.29,1.29c-.39,.4-.37,1.04,.03,1.43,.18,.18,.43,.28,.68,.28,.55,0,.69-.27,2-1.59h-.02Zm9.41-1.41l1.29-1.29c.94-.94-.48-2.35-1.41-1.41l-1.29,1.29-1.29-1.29c-.94-.94-2.35,.48-1.41,1.41l1.29,1.29-1.29,1.29c-.94,.94,.48,2.35,1.41,1.41l1.29-1.29,1.29,1.29c.94,.94,2.35-.48,1.41-1.41l-1.29-1.29Zm.1,8.14c-3.4-2.04-7.63-2.04-11.03,0-1.14,.68-.1,2.4,1.03,1.71,2.76-1.66,6.21-1.66,8.97,0,1.13,.68,2.16-1.03,1.03-1.71ZM8.91,10.5l.79-.79c.94-.94-.48-2.35-1.41-1.41l-.79,.79-.79-.79c-.94-.94-2.35,.48-1.41,1.41l.79,.79-.79,.79c-.94,.94,.48,2.35,1.41,1.41l.79-.79,.79,.79c.94,.94,2.35-.48,1.41-1.41l-.79-.79Zm-.62,8.79l-.79,.79-.79-.79c-.94-.94-2.35,.48-1.41,1.41l.79,.79-.79,.79c-.94,.94,.48,2.35,1.41,1.41l.79-.79,.79,.79c.94,.94,2.35-.48,1.41-1.41l-.79-.79,.79-.79c.94-.94-.48-2.35-1.41-1.41Z"/></svg>