<svg xmlns="http://www.w3.org/2000/svg" xmlns:xlink="http://www.w3.org/1999/xlink" viewBox="0 0 64 64" xmlns:v="https://vecta.io/nano"><g fill="#5e9fdf"><rect x="6" width="58" height="45" rx="2"/><path d="M51 52H17V0h19.53a4.02 4.02 0 0 1 3.58 2.21l.79 1.58A3.99 3.99 0 0 0 44.48 6h6.53v46z"/></g><path d="M64 6v44c0 1.1-.9 2-2 2H2c-1.1 0-2-.9-2-2V2C0 .9.9 0 2 0h17.53a4.02 4.02 0 0 1 3.58 2.21l.78 1.58A4.02 4.02 0 0 0 27.47 6H64z" fill="#f3f3f3"/><g fill="#1976d2"><circle cx="60" cy="3" r="1"/><circle cx="56" cy="3" r="1"/><circle cx="52" cy="3" r="1"/></g><circle cx="20" cy="3" r="1" fill="#5e9fdf"/><g fill="#d38e2a"><path d="M21 30H11a1 1 0 0 1-.8-.4.99.99 0 0 1-.16-.88l3-10c.16-.53.72-.83 1.25-.67s.83.72.67 1.25l-2.61 8.71h8.66c.55 0 1 .45 1 1s-.45 1-1 1z"/><path d="M19 34c-.55 0-1-.45-1-1V22c0-.55.45-1 1-1s1 .45 1 1v11c0 .55-.45 1-1 1zm34-4H43a1 1 0 0 1-.8-.4.99.99 0 0 1-.16-.88l3-10a1 1 0 0 1 1.25-.67c.53.16.83.72.67 1.25l-2.61 8.71h8.66c.55 0 1 .45 1 1s-.45 1-1 1z"/><path d="M51 34c-.55 0-1-.45-1-1V22c0-.55.45-1 1-1s1 .45 1 1v11c0 .55-.45 1-1 1zm-16 0h-6a3.01 3.01 0 0 1-3-3V21a3.01 3.01 0 0 1 3-3h6a3.01 3.01 0 0 1 3 3v10a3.01 3.01 0 0 1-3 3zm-6-14c-.55 0-1 .45-1 1v10c0 .55.45 1 1 1h6c.55 0 1-.45 1-1V21c0-.55-.45-1-1-1h-6z"/></g><path d="M43.54 52H20.46l8.19-12.53a3.99 3.99 0 0 1 6.7 0L43.54 52z" fill="#d9d9d9"/><path d="M30.33 40.56l-13.3 20.35c-.87 1.33.08 3.09 1.67 3.09h26.61c1.59 0 2.54-1.76 1.67-3.09l-13.3-20.35a2 2 0 0 0-3.35 0z" fill="#d38e2a"/><g fill="#f3f3f3"><path d="M32 56h0c-.57 0-1.04-.43-1.1-1l-.7-7.01c-.11-1.07.73-1.99 1.8-1.99h0c1.07 0 1.91.92 1.8 1.99L33.1 55c-.06.56-.53 1-1.1 1z"/><circle cx="32" cy="60" r="2"/></g><path d="M6 39h15v2H6zm0-28h6v2H6zm0 33h10v2H6z" fill="#d9d9d9"/><g fill="#d38e2a"><use xlink:href="#B"/><use xlink:href="#C"/><use xlink:href="#B" x="48"/><use xlink:href="#C" x="48"/></g><g fill="#d9d9d9"><circle cx="55" cy="11" r="1"/><circle cx="59" cy="11" r="1"/><path d="M59 16c-.26 0-.51-.1-.71-.29-.71-.71-1.87-.71-2.59 0-.39.39-1.02.39-1.41 0s-.39-1.02 0-1.41c1.49-1.49 3.92-1.49 5.41 0 .39.39.39 1.02 0 1.41a.98.98 0 0 1-.71.29zm-45-5h4v2h-4z"/></g><defs ><path id="B" d="M6 61c-.26 0-.51-.1-.71-.29-.39-.39-.39-1.02 0-1.41l4-4c.39-.39 1.02-.39 1.41 0s.39 1.02 0 1.41l-4 4a.98.98 0 0 1-.71.29z"/><path id="C" d="M10 61c-.26 0-.51-.1-.71-.29l-4-4c-.39-.39-.39-1.02 0-1.41s1.02-.39 1.41 0l4 4c.39.39.39 1.02 0 1.41a.98.98 0 0 1-.71.29z"/></defs></svg>