<svg xmlns="http://www.w3.org/2000/svg" xmlns:xlink="http://www.w3.org/1999/xlink" viewBox="0 0 64 64" xmlns:v="https://vecta.io/nano"><rect y="10" width="54" height="54" rx="4" fill="#5e9fdf"/><g fill="#f3f3f3"><use xlink:href="#B"/><use xlink:href="#B"/></g><path d="M54 14v15.49c-2.06.53-4.18.63-6 .38V18c0-1.1-.9-2-2-2H34.13c-.24-1.77-.16-3.89.38-6H50a4 4 0 0 1 4 4z" fill="#1976d2"/><path d="M48 18v11.87A16.01 16.01 0 0 1 34.13 16H46c1.1 0 2 .9 2 2z" fill="#d9d9d9"/><circle cx="50" cy="14" r="14" fill="#d38e2a"/><g fill="#f3f3f3"><circle cx="50" cy="20" r="2"/><path d="M53.54 17.46a1 1 0 0 1-.7-.29c-1.53-1.51-4.15-1.51-5.67 0-.39.39-1.03.39-1.41 0-.39-.39-.38-1.03 0-1.41a6.03 6.03 0 0 1 8.49 0c.64.63.18 1.71-.7 1.71zm2.82-2.82c-.26 0-.51-.1-.71-.29-3.1-3.12-8.19-3.13-11.3 0-.39.39-1.02.39-1.41 0s-.39-1.02 0-1.41c3.89-3.92 10.25-3.92 14.14 0a1.01 1.01 0 0 1-.71 1.71zm2.83-2.83c-.26 0-.51-.1-.71-.29-4.69-4.69-12.27-4.69-16.97 0-.39.39-1.02.39-1.41 0s-.39-1.02 0-1.41c5.47-5.47 14.32-5.47 19.79 0a1.01 1.01 0 0 1-.71 1.71z"/></g><rect x="13" y="30" width="28" height="10" rx="2" fill="#d9d9d9"/><defs ><path id="B" d="M48 18v26c0 1.1-.9 2-2 2h-3v5c0 1.1-.9 2-2 2h-4v3c0 1.1-.9 2-2 2H19c-1.1 0-2-.9-2-2v-3h-4c-1.1 0-2-.9-2-2v-5H8c-1.1 0-2-.9-2-2V18c0-1.1.9-2 2-2h38c1.1 0 2 .9 2 2z"/></defs></svg>