<svg xmlns="http://www.w3.org/2000/svg" viewBox="0 0 64 64" xmlns:v="https://vecta.io/nano"><path d="M12 0h28c1.1 0 2 .9 2 2v16H10V2c0-1.1.9-2 2-2z" fill="#f3f3f3"/><path d="M44 20v22.17c0 .53-.21 1.04-.59 1.42L35 52H17l-8.41-8.41c-.38-.38-.59-.89-.59-1.42V20c0-1.1.9-2 2-2h32c1.1 0 2 .9 2 2zM19 56h14v8H19z" fill="#5e9fdf"/><g fill="#1976d2"><path d="M36 52v6H18c-1.1 0-2-.9-2-2v-2c0-1.1.9-2 2-2h18z"/><rect x="22" y="12" width="8" height="12" rx="2"/></g><path d="M17 6c-.81 0-2-.63-2-2V0h4v4c0 1.1-.9 2-2 2zm6 0c-.81 0-2-.63-2-2V0h4v4c0 1.1-.9 2-2 2zm6 0c-.81 0-2-.63-2-2V0h4v4c0 1.1-.9 2-2 2zm6 0c-.81 0-2-.63-2-2V0h4v4c0 1.1-.9 2-2 2z" fill="#d38e2a"/><g fill="#1976d2"><path d="M8 40h36v2H8zm5-15H8v-2h5c.55 0 1 .45 1 1 0 .29-.22 1-1 1zm0 4H8v-2h5c.55 0 1 .45 1 1 0 .29-.22 1-1 1zm0 4H8v-2h5c.55 0 1 .45 1 1 0 .29-.22 1-1 1zm31-8h-5c-.55 0-1-.45-1-1 0-.29.22-1 1-1h5v2zm0 4h-5c-.55 0-1-.45-1-1 0-.29.22-1 1-1h5v2zm0 4h-5c-.55 0-1-.45-1-1 0-.29.22-1 1-1h5v2z"/><path d="M44 42v.17c0 .53-.21 1.04-.59 1.42L35 52h-8.87c-.44-3.19.18-6.83 2.03-10H44zM33 58v5.2a15.75 15.75 0 0 1-4.84-5.2H33z"/><path d="M36 52v6h-7.84c-1.09-1.83-1.78-3.94-2.03-6H36zm8-17.87V40H29.52c3.59-4.46 9.19-6.59 14.48-5.87z"/><path d="M44 40v2H28.16a16 16 0 0 1 1.36-2H44z"/></g><circle cx="42" cy="50" r="14" fill="#d38e2a"/><g fill="#f3f3f3"><circle cx="42" cy="56" r="2"/><path d="M45.54 53.46a1 1 0 0 1-.7-.29c-1.53-1.51-4.15-1.51-5.67 0-.39.39-1.03.39-1.41 0-.39-.39-.38-1.03 0-1.41a6.03 6.03 0 0 1 8.49 0c.64.63.18 1.71-.7 1.71zm2.82-2.82c-.26 0-.51-.1-.71-.29-3.1-3.12-8.19-3.13-11.3 0-.39.39-1.02.39-1.41 0s-.39-1.02 0-1.41c3.89-3.92 10.25-3.92 14.14 0a1.01 1.01 0 0 1-.71 1.71zm2.83-2.83c-.26 0-.51-.1-.71-.29-4.69-4.69-12.27-4.69-16.97 0-.39.39-1.02.39-1.41 0s-.39-1.02 0-1.41c5.47-5.47 14.32-5.47 19.79 0a1.01 1.01 0 0 1-.71 1.71z"/></g></svg>