<svg xmlns="http://www.w3.org/2000/svg" viewBox="0 0 64 64" xmlns:v="https://vecta.io/nano"><g fill="#5e9fdf"><path d="M6 0h52c1.1 0 2 .9 2 2v4H4V2c0-1.1.9-2 2-2z"/><path d="M17 0h19a4 4 0 0 1 4 4v2H17V0h0z"/></g><path d="M60 6v42c0 1.1-.9 2-2 2H6c-1.1 0-2-.9-2-2V2c0-1.1.9-2 2-2h12a4 4 0 0 1 4 4v2h38z" fill="#f3f3f3"/><path d="M57 3c0-1.32-2-1.32-2 0s2 1.32 2 0zm-4 0c0-1.32-2-1.32-2 0s2 1.32 2 0z" fill="#1976d2"/><path d="M49,3c0-1.32-2-1.32-2,0s2,1.32,2,0Z" fill="#f3f3f3"/><path d="M37,3c0-1.32-2-1.32-2,0s2,1.32,2,0Z" fill="#1976d2"/><g fill="#d9d9d9"><path d="M7 34h31v2H7zm0 4h31v2H7zm0 4h31v2H7zm0 4h31v2H7zm34-16h16v18H41zM7 9h16v18H7zm19 0h31v2H26zm0 4h31v2H26zm0 4h31v2H26zm0 4h31v2H26zm0 4h31v2H26zM7 30h31v2H7z"/><path d="M44.79,50H15.21c8.21-7.99,21.36-8.01,29.58,0Z"/></g><path d="M50,54c-8.19,13.32-27.81,13.32-36,0,8.19-13.32,27.81-13.32,36,0Z" fill="#1976d2"/><path d="M19,3c0-1.32-2-1.32-2,0s2,1.32,2,0Z" fill="#d38e2a"/><path d="M33.47 47.16A7 7 0 0 0 25 54c0 3.87 3.13 7 7 7a7 7 0 0 0 6.84-8.47c-3.45 1.81-7.19-1.9-5.37-5.37z" fill="#f3f3f3"/></svg>