<svg xmlns="http://www.w3.org/2000/svg" viewBox="0 0 64 64" xmlns:v="https://vecta.io/nano"><path d="M43.87 60.89c.07.59-.39 1.11-.99 1.11H21.12c-.6 0-1.06-.52-.99-1.11L23 36h18l2.87 24.89z" fill="#5e9fdf"/><path d="M43 62c0 1.09-.89 2-2 2H23a2 2 0 0 1-2-2h22z" fill="#1976d2"/><g fill="#5e9fdf"><circle cx="32" cy="46" r="3"/><circle cx="32" cy="55" r="2"/></g><g fill="#1976d2"><path d="M48.7 9C40.8-3.01 23.18-2.98 15.3 9c-3.37 5.01-4.35 11.78-2.04 18 6.51 17.28 30.95 17.32 37.48 0 2.31-6.23 1.32-12.99-2.04-18zm-3.46 20c-6.35 9.33-20.12 9.33-26.48 0C11.6 18.35 19.16 4 32 4s20.38 14.37 13.24 25z"/><path d="M49.32 10h-4.83c4.72 5.8 4.63 14.31.01 20h4.82c3.52-6.12 3.63-13.7 0-20zm-35.18 2h-.01c-.03.06-.02.07.01 0z"/></g><path d="M14.14 12c-.03.07-.04.06-.01 0h.01zm.54-2c-.42.73-.71 1.33-1.01 2H1c-1.32 0-1.32-2 0-2h13.68zM62 6.5a5.51 5.51 0 0 1-5.5 5.5H18.14c.36-.65.79-1.28 1.37-2H56.5c1.93 0 3.5-1.57 3.5-3.5S58.43 3 56.5 3H48c-1.32 0-1.32-2 0-2h8.5A5.51 5.51 0 0 1 62 6.5zM14.68 30H1c-1.32 0-1.32-2 0-2h12.66l1.02 2zM62 33.5a5.51 5.51 0 0 1-5.5 5.5H48c-1.32 0-1.32-2 0-2h8.5c1.93 0 3.5-1.57 3.5-3.5S58.43 30 56.5 30h-37a14.75 14.75 0 0 1-1.36-2H56.5a5.51 5.51 0 0 1 5.5 5.5zM12.03 21H1c-1.32 0-1.32-2 0-2h11.02l.01 2zM63 21H16.04c-.06-.62-.05-1.38 0-2H63c1.32 0 1.32 2 0 2z" fill="#d9d9d9"/><g fill="#1976d2"><path d="M23.64 62c-.65.53-1.37.97-2.16 1.3A1.98 1.98 0 0 1 21 62h2.64z"/><path d="M23.64,62h-2.52c-.6,0-1.06-.52-.99-1.11l1.62-14.07c6.09,2.79,7.09,11.02,1.89,15.18Z"/></g><circle cx="16" cy="55" r="9" fill="#d38e2a"/><path d="M18.13 56.88c-1.15-1.14-3.1-1.14-4.26 0-.95.93-2.35-.5-1.4-1.42a5 5 0 0 1 7.06 0c.94.93-.47 2.34-1.4 1.42zm3.53-2.54c-.63 0-.66-.38-1.57-1.02-2.73-1.96-6.63-1.69-9.04.73-.94.94-2.35-.48-1.41-1.42 3.54-3.53 9.23-3.49 12.73 0 .63.63.18 1.71-.71 1.71zM17 59c0-1.32-2-1.32-2 0s2 1.32 2 0z" fill="#fdfdfd"/></svg>