<svg xmlns="http://www.w3.org/2000/svg" viewBox="0 0 64 64" xmlns:v="https://vecta.io/nano"><path d="M10 0h44a4 4 0 0 1 4 4v54H6V4a4 4 0 0 1 4-4z" fill="#5e9fdf"/><path d="M58,54s-3,5,0,8v2H12c-3.31,0-6-2.69-6-6s2.68-6,6-6H58v2Z" fill="#1976d2"/><rect x="14" y="9" width="36" height="16" rx="2" fill="#5e9fdf"/><g fill="#fff"><path d="M19 22c-.55 0-1-.45-1-1v-8c0-.55.45-1 1-1h5c.55 0 1 .45 1 1s-.45 1-1 1h-4v7c0 .55-.45 1-1 1z"/><path d="M23 19h-4c-.55 0-1-.45-1-1s.45-1 1-1h4c.55 0 1 .45 1 1s-.45 1-1 1zm10 3c-.4 0-.79-.25-.94-.65L30 15.85l-2.06 5.5c-.19.52-.77.78-1.29.59a.99.99 0 0 1-.58-1.29l3-8c.32-.86 1.55-.86 1.87 0l3 8c.24.65-.24 1.35-.94 1.35z"/><path d="M32 20h-4c-.55 0-1-.45-1-1s.45-1 1-1h4c.55 0 1 .45 1 1s-.45 1-1 1zm9 2c-2.76 0-5-2.24-5-5s2.24-5 5-5 5 2.24 5 5-2.24 5-5 5zm0-8a3.01 3.01 0 0 0-3 3 3.01 3.01 0 0 0 3 3 3.01 3.01 0 0 0 3-3 3.01 3.01 0 0 0-3-3z"/><path d="M45 22c-.26 0-.51-.1-.71-.29l-3-3c-.39-.39-.39-1.02 0-1.41s1.02-.39 1.41 0l3 3a1.01 1.01 0 0 1-.71 1.71zM12 62h46v-8H12a4 4 0 1 0 0 8z"/></g><path d="M12 59h46v-2H12c-.55 0-1 .45-1 1 0 .29.22 1 1 1z" fill="#d9d9d9"/><path d="M45 0v10.38a1 1 0 0 0 1.45.89l2.11-1.05c.28-.14.61-.14.89 0l2.11 1.05c.66.33 1.45-.15 1.45-.89V0h-8z" fill="#d38e2a"/><path d="M45 34H19c-.55 0-1-.45-1-1 0-.29.22-1 1-1h26c.55 0 1 .45 1 1 0 .29-.22 1-1 1zm-4 6H23c-.55 0-1-.45-1-1 0-.29.22-1 1-1h18c.55 0 1 .45 1 1 0 .29-.22 1-1 1z" fill="#f3f3f3"/></svg>