<svg xmlns="http://www.w3.org/2000/svg" viewBox="0 0 64 64" xmlns:v="https://vecta.io/nano"><path d="M12 45h52v6H12z" fill="#1976d2"/><path d="M64 17v28H12V17c0-1.1.9-2 2-2h48c1.1 0 2 .9 2 2z" fill="#5e9fdf"/><path d="M0 21h12v30H0z" fill="#d38e2a"/><g fill="#1976d2"><path d="M20 47h36v2H20zM16 9h4v6h-4zm40 0h4v6h-4z"/><path d="M20 11h36v4H20zm21 7h20v24H41z"/></g><g fill="#5e9fdf"><path d="M43 21h16v8H43z"/><circle cx="48" cy="37" r="2"/><circle cx="54" cy="37" r="2"/><path d="M46 33h-2c-1.34 0-1.29-2 0-2h2c1.34 0 1.29 2 0 2zm6 0h-2c-1.34 0-1.29-2 0-2h2c1.34 0 1.29 2 0 2zm6 0h-2c-1.34 0-1.29-2 0-2h2c1.34 0 1.29 2 0 2z"/><rect x="22" y="19" width="4" height="4" rx="1"/><rect x="28" y="19" width="4" height="4" rx="1"/><rect x="34" y="19" width="4" height="4" rx="1"/><rect x="22" y="25" width="4" height="4" rx="1"/><rect x="28" y="25" width="4" height="4" rx="1"/><rect x="34" y="25" width="4" height="4" rx="1"/><rect x="22" y="31" width="4" height="4" rx="1"/><rect x="28" y="31" width="4" height="4" rx="1"/><rect x="34" y="31" width="4" height="4" rx="1"/><rect x="22" y="37" width="4" height="4" rx="1"/><rect x="28" y="37" width="4" height="4" rx="1"/><rect x="34" y="37" width="4" height="4" rx="1"/></g><path d="M18 22h-2c-1.34 0-1.29-2 0-2h2c1.34 0 1.29 2 0 2zm0 6h-2c-1.34 0-1.29-2 0-2h2c1.34 0 1.29 2 0 2zm0 6h-2c-1.34 0-1.29-2 0-2h2c1.34 0 1.29 2 0 2zm0 6h-2c-1.34 0-1.29-2 0-2h2c1.34 0 1.29 2 0 2z" fill="#1976d2"/><path d="M21 48h34v16H21z" fill="#f3f3f3"/><path d="M25 59h26v2H25zm0-4h26v2H25zm0-4h26v2H25z" fill="#d9d9d9"/><g fill="#1976d2"><path d="M52.64 15A4 4 0 0 1 50 16H36.83c-1.3 1.29-1.77 2-2.83 2s-1.36-.54-2.83-2c-1.34 0-2.52.13-3.81-1h25.28z"/><path d="M54 11c0 1.36.1 2.72-1.36 4H27.36C25.89 13.7 26 12.22 26 11h28z"/></g><path d="M28 2v10c0 1.1.9 2 2 2h2l2 2 2-2h14c1.1 0 2-.9 2-2V2c0-1.1-.9-2-2-2H30c-1.1 0-2 .9-2 2z" fill="#d38e2a"/><g fill="#fff"><circle cx="33" cy="7" r="2"/><circle cx="40" cy="7" r="2"/><circle cx="47" cy="7" r="2"/></g><path d="M53 29h4l2-8h-4l-2 8zm-7 0h4l2-8h-4l-2 8z" fill="#f3f3f3"/></svg>