<svg xmlns="http://www.w3.org/2000/svg" viewBox="0 0 64 64" xmlns:v="https://vecta.io/nano"><path d="M61 2v14c0 1.1-.9 2-2 2H26V2c0-1.1.9-2 2-2h31c1.1 0 2 .9 2 2z" fill="#5e9fdf"/><path d="M18 52h23v12H18z" fill="#e4c290"/><path d="M48 26v18c0 5.52-4.48 10-10 10V33c0-3.31-2.69-6-6-6H12c-8.01 0-12-9.72-6.36-15.36C8.66 8.6 11.95 9 15 9a3.3 3.3 0 0 0 2.83 5H36c6.69 0 12 5.44 12 12z" fill="#1976d2"/><g fill="#e4c290"><path d="M38 33v28H12c-1.66 0-3-1.34-3-3v-8l-6-5 8-18h21c3.31 0 6 2.69 6 6z"/><circle cx="37" cy="41" r="6"/></g><path d="M18 37c-.55 0-1-.45-1-1 0-1.1-.9-2-2-2s-2 .9-2 2c0 .55-.45 1-1 1-2.1 0-.81-5 3-5s5.1 5 3 5zm13 26H18v-2h15c0 1.1-.9 2-2 2zm10-22a4 4 0 0 1-4 4v-8a4 4 0 0 1 4 4zM11 58H9v-6h8c0 3.31-2.69 6-6 6z" fill="#d38e2a"/><g fill="#1976d2"><path d="M47.38 22.21c-1.45 1.08-.81.79-21.55.79L23 25.83 20.17 23H19a4 4 0 0 1-4-4v-6.6c.56.94 1.58 1.6 2.83 1.6H26v4h18.94c1.08 1.21 1.93 2.64 2.44 4.21z"/><path d="M49 7v11H26V3h19a4 4 0 0 1 4 4z"/></g><path d="M47 7v12c0 1.1-.9 2-2 2H25l-2 2-2-2h-2c-1.1 0-2-.9-2-2V7c0-1.1.9-2 2-2h26c1.1 0 2 .9 2 2z" fill="#f3f3f3"/><path d="M23.67 12L23 10l-.67 2H20l1.75 1.75L21 16l2-1 2 1-.75-2.25L26 12h-2.33zm9 0L32 10l-.67 2H29l1.75 1.75L30 16l2-1 2 1-.75-2.25L35 12h-2.33zM44 12h-2.33L41 10l-.67 2H38l1.75 1.75L39 16l2-1 2 1-.75-2.25L44 12z" fill="#e4c290"/><path d="M51 2h8v2h-8zm2 4h6v2h-6zm4 8h2v2h-2zm-5-4h7v2h-7z" fill="#1976d2"/></svg>