<svg xmlns="http://www.w3.org/2000/svg" xmlns:xlink="http://www.w3.org/1999/xlink" viewBox="0 0 64 64" xmlns:v="https://vecta.io/nano"><path d="M52 8v48c0 3.64-2.43 6.71-5.75 7.68-1.52.45-.39.32-26.25.32a8 8 0 0 1-8-8V8a8 8 0 0 1 8-8h24a8 8 0 0 1 8 8z" fill="#5e9fdf"/><path d="M49 9v45c0 3.31-2.69 6-6 6H21c-3.31 0-6-2.69-6-6V9c0-3.31 2.69-6 6-6h3.29a.98.98 0 0 1 .94.68l.31.95A2.01 2.01 0 0 0 27.44 6h9.12a2.01 2.01 0 0 0 1.9-1.37l.31-.94a1 1 0 0 1 .95-.69H43c3.31 0 6 2.69 6 6z" fill="#f3f3f3"/><path d="M42 58H22c-.55 0-1-.45-1-1 0-.29.22-1 1-1h20c.55 0 1 .45 1 1 0 .29-.22 1-1 1z" fill="#d9d9d9"/><path d="M49 17h3v28h-3zm-37 0h3v28h-3z" fill="#1976d2"/><path d="M49 17v28H37.94l-2.87 3.44c-1.6 1.92-4.54 1.92-6.14 0L26.06 45H15V17h34z" fill="#d9d9d9"/><path d="M1 23v16a4 4 0 0 0 4 4h21.06a2 2 0 0 1 1.54.72l2.86 3.44c.8.96 2.27.96 3.07 0l2.86-3.44c.38-.46.94-.72 1.54-.72h21.06a4 4 0 0 0 4-4V23a4 4 0 0 0-4-4H5a4 4 0 0 0-4 4z" fill="#f3f3f3"/><circle cx="12" cy="31" r="8" fill="#e4c290"/><g fill="#d38e2a"><circle cx="32" cy="31" r="8"/><circle cx="52" cy="31" r="8"/></g><g fill="#f3f3f3"><use xlink:href="#B"/><use xlink:href="#B" x="6"/><path d="M15 35a.94.94 0 0 1-.55-.17c-1.49-.99-3.4-.99-4.89 0a1.01 1.01 0 0 1-1.39-.28c-.31-.46-.18-1.08.28-1.39a6.39 6.39 0 0 1 7.11 0c.82.55.43 1.83-.56 1.83z"/><use xlink:href="#B" x="20"/><use xlink:href="#B" x="26"/><use xlink:href="#B" x="40" y="-1"/><use xlink:href="#B" x="46" y="-1"/><path d="M28.45 33.92a1.01 1.01 0 0 1-.28-1.39c.31-.46.92-.58 1.39-.28 1.49.99 3.4.99 4.89 0 .46-.31 1.08-.18 1.39.28s.18 1.08-.28 1.39a6.39 6.39 0 0 1-7.11 0zM52 37c-2.76 0-5-2.24-5-5 0-.55.45-1 1-1h8c.55 0 1 .45 1 1 0 2.76-2.24 5-5 5zm-2.83-4c.94 2.66 4.71 2.66 5.66 0h-5.66z"/></g><g fill="#d9d9d9"><circle cx="45" cy="8" r="1"/><circle cx="41" cy="8" r="1"/><path d="M25 11h-6V9h6zm4 4H19v-2h10z"/></g><defs ><path id="B" d="M9 30c-.55 0-1-.45-1-1v-1c0-.55.45-1 1-1s1 .45 1 1v1c0 .55-.45 1-1 1z"/></defs></svg>