<svg xmlns="http://www.w3.org/2000/svg" viewBox="0 0 64 64" xmlns:v="https://vecta.io/nano"><g fill="#5e9fdf"><path d="M6 0h52c1.1 0 2 .9 2 2v4H4V2c0-1.1.9-2 2-2z"/><path d="M17 0h19a4 4 0 0 1 4 4v2H17V0h0z"/></g><path d="M60 6v42c0 1.1-.9 2-2 2H6c-1.1 0-2-.9-2-2V2c0-1.1.9-2 2-2h12a4 4 0 0 1 4 4v2h38z" fill="#f3f3f3"/><path d="M57 3c0-1.32-2-1.32-2 0s2 1.32 2 0zm-4 0c0-1.32-2-1.32-2 0s2 1.32 2 0z" fill="#1976d2"/><path d="M49,3c0-1.32-2-1.32-2,0s2,1.32,2,0Z" fill="#f3f3f3"/><path d="M37,3c0-1.32-2-1.32-2,0s2,1.32,2,0Z" fill="#1976d2"/><path d="M19,3c0-1.32-2-1.32-2,0s2,1.32,2,0Z" fill="#d38e2a"/><path d="M57 36H26v-2h31zm0 4H26v-2h31zm0 4H26v-2h31zm0 4H26v-2h31zM7 9h16v18H7zm19 0h31v2H26zm0 4h31v2H26zm0 4h31v2H26zm0 4h31v2H26zm0 4h31v2H26zm31 7H26v-2h31z" fill="#d9d9d9"/><g fill="#c8c8c8"><path d="M7 23l5-5 3 3 6-6 2 2v10H7v-4z"/><circle cx="11" cy="13" r="2"/></g><path d="M7 30h16v18H7z" fill="#d9d9d9"/><g fill="#c8c8c8"><path d="M7 44l5-5 3 3 6-6 2 2v10H7v-4z"/><circle cx="11" cy="34" r="2"/></g><path d="M43.03 54.9c-2.07-1.19-.62-.84-1.14-4.37-.07-.42.11-.84.48-1.05l.66-.38c.47-.28.64-.89.36-1.37l-2-3.46a1 1 0 0 0-1.36-.37l-.67.38c-.96.58-1.22-.6-3.7-1.59-.72-.28-.66-.84-.66-1.69 0-.55-.45-1-1-1h-4c-.55 0-1 .45-1 1v.75c0 1.13-1.09.73-3.21 2.43-.63.48-1.04.16-1.82-.28a1 1 0 0 0-1.36.37l-2 3.46c-.28.48-.11 1.09.36 1.37l.66.38c.79.45.37 1.13.37 2.52 0 2.18.61 1.96-1.03 2.9-.47.28-.64.89-.36 1.37l2 3.46a1 1 0 0 0 1.36.37c.7-.4 1.16-.78 1.82-.28 2.1 1.69 3.21 1.3 3.21 2.43V63c0 .55.45 1 1 1h4c.55 0 1-.45 1-1 0-.69-.11-1.39.66-1.69 2.47-.98 2.74-2.18 3.7-1.59l.67.38a1 1 0 0 0 1.36-.37l2-3.46c.28-.48.11-1.09-.36-1.37zM32 57c-2.76 0-5-2.24-5-5s2.24-5 5-5 5 2.24 5 5-2.24 5-5 5z" fill="#d38e2a"/></svg>