<svg xmlns="http://www.w3.org/2000/svg" xmlns:xlink="http://www.w3.org/1999/xlink" viewBox="0 0 64 64" xmlns:v="https://vecta.io/nano"><path d="M62,11V50H2V11c0-1.66,1.34-3,3-3H59c1.66,0,3,1.34,3,3Z" fill="#1976d2"/><path d="M1 50h62c.55 0 1 .45 1 1v2c0 1.66-1.34 3-3 3H3c-1.66 0-3-1.34-3-3v-2c0-.55.45-1 1-1z" fill="#5e9fdf"/><path d="M60 11v37H4V11c0-.55.45-1 1-1h54c.55 0 1 .45 1 1z" fill="#fff"/><path d="M39 52H25c-1.1 0-2-.9-2-2 0-.1-.84 0 18 0 0 .81-.63 2-2 2z" fill="#f3f3f3"/><g fill="#5e9fdf"><path d="M5 10h54c.55 0 1 .45 1 1v3H4v-3c0-.55.45-1 1-1z"/><path d="M18,10h17c1.66,0,3,1.34,3,3v1H18v-4h0Z"/></g><path d="M5 10h14c1.66 0 3 1.34 3 3v3H4v-5c0-.55.45-1 1-1z" fill="#fff"/><path d="M20.85 33.58c-1.12.72-1.85 1.9-1.85 3.23V48h-6V36.81c0-1.33-.73-2.52-1.85-3.23-5.9-3.77-5.4-12.53.85-15.64v6.28c0 .46.31.86.76.97l6 1.5a1 1 0 0 0 1.24-.97v-7.78c6.26 3.11 6.75 11.87.85 15.64z" fill="#d38e2a"/><g fill="#5e9fdf"><use xlink:href="#B"/><use xlink:href="#B" y="9"/><use xlink:href="#B" y="18"/></g><path d="M39 23h18v2H39zm0 9h18v2H39zm0 9h18v2H39z" fill="#d9d9d9"/><defs ><path id="B" d="M32 26c-.54 0-.57-.15-2.71-2.29-.94-.94.48-2.35 1.41-1.41l1.29 1.29 3.29-3.29c.94-.94 2.35.48 1.41 1.41-4.37 4.37-4.15 4.29-4.71 4.29z"/></defs></svg>