<svg xmlns="http://www.w3.org/2000/svg" viewBox="0 0 64 64" xmlns:v="https://vecta.io/nano"><path d="M64 36v-8c0-1.66-1.34-3-3-3h-2.86c-1.24 0-2.35-.77-2.79-1.93l-.52-1.27c-.51-1.14-.27-2.46.61-3.34l2.02-2.02a3 3 0 0 0 0-4.24L51.8 6.54a3 3 0 0 0-4.24 0l-2.02 2.02c-.88.88-2.2 1.12-3.34.61l-1.27-.52C39.77 8.21 39 7.1 39 5.86V3c0-1.66-1.34-3-3-3h-8c-1.66 0-3 1.34-3 3v2.86c0 1.24-.77 2.35-1.93 2.79l-1.27.52c-1.14.51-2.46.27-3.34-.61l-2.02-2.02a3 3 0 0 0-4.24 0L6.54 12.2a3 3 0 0 0 0 4.24l2.02 2.02c.88.88 1.12 2.2.61 3.34l-.52 1.27C8.21 24.23 7.1 25 5.86 25H3c-1.66 0-3 1.34-3 3v8c0 1.66 1.34 3 3 3h2.86c1.24 0 2.35.77 2.79 1.93l.52 1.27c.51 1.14.27 2.46-.61 3.34l-2.02 2.02a3 3 0 0 0 0 4.24l5.66 5.66a3 3 0 0 0 4.24 0l2.02-2.02c.88-.88 2.2-1.12 3.34-.61l1.27.52c1.16.44 1.93 1.55 1.93 2.79V61c0 1.66 1.34 3 3 3h8c1.66 0 3-1.34 3-3v-2.86c0-1.24.77-2.35 1.93-2.79l1.27-.52c1.14-.51 2.46-.27 3.34.61l2.02 2.02a3 3 0 0 0 4.24 0l5.66-5.66a3 3 0 0 0 0-4.24l-2.02-2.02c-.88-.88-1.12-2.2-.61-3.34l.52-1.27c.44-1.16 1.55-1.93 2.79-1.93H61c1.66 0 3-1.34 3-3z" fill="#d38e2a"/><circle cx="32" cy="32" r="18" fill="#e4c290"/><circle cx="32" cy="32" r="16" fill="#5e9fdf"/><path d="M40.4 27h6.8c-.22-.69-.49-1.36-.81-2h-6.58a20.73 20.73 0 0 0-6.11-8.91 16.1 16.1 0 0 0-3.4 0A20.73 20.73 0 0 0 24.19 25h-6.58c-.32.64-.59 1.31-.81 2h6.8c-.77 3.17-.83 6.57 0 10h-6.8c.22.69.49 1.36.81 2h6.58a20.73 20.73 0 0 0 6.11 8.91 16.1 16.1 0 0 0 3.4 0A20.73 20.73 0 0 0 39.81 39h6.58c.32-.64.59-1.31.81-2h-6.8c.77-3.17.83-6.57 0-10zM32 17.27A18.93 18.93 0 0 1 37.68 25H26.32A18.93 18.93 0 0 1 32 17.27zm0 29.46A18.93 18.93 0 0 1 26.32 39h11.36A18.93 18.93 0 0 1 32 46.73zM38.34 37H25.66a19.27 19.27 0 0 1 0-10h12.68a19.27 19.27 0 0 1 0 10z" fill="#1976d2"/></svg>