<svg xmlns="http://www.w3.org/2000/svg" viewBox="0 0 64 64" xmlns:v="https://vecta.io/nano"><rect x="9" width="38" height="48" rx="4" fill="#5e9fdf"/><path d="M47 5v39a4 4 0 0 1-4 4H16V11c0-3.31 2.69-6 6-6h25z" fill="#1976d2"/><path d="M56 16v35a4 4 0 0 1-4 4H22a4 4 0 0 1-4-4V11a4 4 0 0 1 4-4h25l9 9z" fill="#f3f3f3"/><path d="M48 53.73v-1.45a1.27 1.27 0 0 0-1.27-1.27c-.19 0-.94-.08-1.19-.83-.14-.41-.3-.81-.49-1.19-.43-.87.35-1.54.25-1.44.5-.5.5-1.3 0-1.8l-1.03-1.03c-.5-.5-1.3-.5-1.8 0-.14.14-.73.61-1.44.25-.38-.19-.78-.36-1.19-.49-.92-.3-.83-1.34-.83-1.19a1.27 1.27 0 0 0-1.27-1.27h-1.45a1.27 1.27 0 0 0-1.27 1.27c0 .19-.08.94-.83 1.19-.41.14-.81.3-1.19.49-.87.43-1.54-.35-1.44-.25-.5-.5-1.3-.5-1.8 0l-1.03 1.03c-.5.5-.5 1.3 0 1.8.14.14.61.73.25 1.44-.19.38-.36.78-.49 1.19-.3.92-1.34.83-1.19.83a1.27 1.27 0 0 0-1.27 1.27v1.45A1.27 1.27 0 0 0 27.3 55c.19 0 .94.08 1.19.83.14.41.3.81.49 1.19.43.87-.35 1.54-.25 1.44-.5.5-.5 1.3 0 1.8l1.03 1.03c.5.5 1.3.5 1.8 0 .14-.14.73-.61 1.44-.25.38.19.78.36 1.19.49.92.3.83 1.34.83 1.19a1.27 1.27 0 0 0 1.27 1.27h1.45a1.27 1.27 0 0 0 1.27-1.27c0-.19.08-.94.83-1.19.41-.14.81-.3 1.19-.49.87-.43 1.54.35 1.44.25.5.5 1.3.5 1.8 0l1.03-1.03c.5-.5.5-1.3 0-1.8-.14-.14-.61-.73-.25-1.44.19-.38.36-.78.49-1.19.3-.92 1.34-.83 1.19-.83A1.27 1.27 0 0 0 48 53.73z" fill="#d38e2a"/><circle cx="37" cy="53" r="6" fill="#f3f3f3"/><path d="M25 19h24v6H25z" fill="#5e9fdf"/><path d="M37 56c-.54 0-.57-.15-2.71-2.29-.39-.39-.39-1.02 0-1.41s1.02-.39 1.41 0l1.29 1.29 2.29-2.29c.39-.39 1.02-.39 1.41 0s.39 1.02 0 1.41l-3 3a.98.98 0 0 1-.71.29z" fill="#d38e2a"/><path d="M49 26H25c-.55 0-1-.45-1-1v-6c0-.55.45-1 1-1h24c.55 0 1 .45 1 1v6c0 .55-.45 1-1 1zm-23-2h22v-4H26v4z" fill="#5e9fdf"/><path d="M56 16h-7c-1.1 0-2-.9-2-2V7l9 9zM24 29h6v2h-6zm10 0h16v2H34zm-10 4h6v2h-6zm10 0h16v2H34zm-10 4h6v2h-6zm10 0h16v2H34z" fill="#d9d9d9"/><g fill="#d38e2a"><circle cx="25" cy="15" r="1"/><circle cx="29" cy="15" r="1"/><circle cx="33" cy="15" r="1"/></g></svg>