<svg xmlns="http://www.w3.org/2000/svg" viewBox="0 0 64 64" xmlns:v="https://vecta.io/nano"><path d="M43.79 29.81l4.93-2.85-4-6.92-4.93 2.84c-1.11-.94-2.39-1.69-3.79-2.18V15h-8v5.7c-1.4.49-2.68 1.24-3.79 2.18l-4.93-2.84-4 6.92 4.93 2.85c-.28 1.5-.28 2.83 0 4.38l-4.93 2.85 4 6.92 4.93-2.84c1.11.94 2.39 1.69 3.79 2.18V49h8v-5.7c1.4-.49 2.68-1.24 3.79-2.18l4.93 2.84 4-6.92-4.93-2.85c.28-1.5.28-2.83 0-4.38zM32 38c-3.31 0-6-2.69-6-6s2.69-6 6-6 6 2.69 6 6-2.69 6-6 6z" fill="#1976d2"/><g fill="#d38e2a"><path d="M32 57C18.21 57 7 45.79 7 32S18.21 7 32 7s25 11.21 25 25-11.21 25-25 25zm0-48C19.32 9 9 19.32 9 32s10.32 23 23 23 23-10.32 23-23S44.68 9 32 9z"/><circle cx="32" cy="32" r="9"/></g><path d="M34.13 33.88c-1.15-1.14-3.1-1.14-4.26 0-.95.93-2.35-.5-1.4-1.42a5 5 0 0 1 7.06 0c.94.93-.47 2.34-1.4 1.42zm3.53-2.54c-.63 0-.66-.38-1.57-1.02-2.73-1.96-6.63-1.69-9.04.73-.94.94-2.35-.48-1.41-1.42 3.54-3.53 9.23-3.49 12.73 0 .63.63.18 1.71-.71 1.71zM33 36c0-1.32-2-1.32-2 0s2 1.32 2 0z" fill="#fdfdfd"/><g fill="#5e9fdf"><path d="M0 3h20v15H0z"/><path d="M11 3H0V0h7.33L11 3zM9 8h11V5h-7.33L9 8z"/><path d="M0 8h20v10H0zm44-5h20v15H44z"/><path d="M55 3H44V0h7.33L55 3zm-2 5h11V5h-7.33L53 8z"/><path d="M44 8h20v10H44zM0 49h20v15H0z"/><path d="M11 49H0v-3h7.33L11 49zm-2 5h11v-3h-7.33L9 54z"/><path d="M0 54h20v10H0zm44-5h20v15H44z"/><path d="M55 49H44v-3h7.33L55 49zm-2 5h11v-3h-7.33L53 54z"/><path d="M44 54h20v10H44z"/></g></svg>