<?xml version="1.0" encoding="UTF-8"?><svg id="a" xmlns="http://www.w3.org/2000/svg" viewBox="0 0 56 64"><defs><style>.b{fill:#5e9fdf;}.c{fill:#d38e2a;}.d{fill:#f3f3f3;}.e{fill:#1976d2;}</style></defs><path class="e" d="M0,0H42V54H0V0Z"/><g><path class="b" d="M50,16v16H8V8H42l8,8Z"/><path class="b" d="M8,32H50v30H8v-30ZM50,16h-8V8l8,8Z"/></g><g><path class="c" d="M49,64l-2-9,9,2-7,7Z"/><path class="c" d="M49,58.99l2-2,5,5-2,2-5-5Z"/></g><g><path class="d" d="M40,30c-.55,0-1-.45-1-1v-8c0-.55,.45-1,1-1s1,.45,1,1v8c0,.55-.45,1-1,1Z"/><path class="d" d="M20,30c-.55,0-1-.45-1-1v-8c0-.55,.45-1,1-1s1,.45,1,1v8c0,.55-.45,1-1,1Zm23-8h-6c-.55,0-1-.45-1-1s.45-1,1-1h6c.55,0,1,.45,1,1s-.45,1-1,1Z"/><path class="d" d="M23,22h-6c-.55,0-1-.45-1-1s.45-1,1-1h6c.55,0,1,.45,1,1s-.45,1-1,1Z"/></g><path class="d" d="M14,29c0-1.32-2-1.32-2,0s2,1.32,2,0Zm8,6h22v2H22v-2Zm-8,4h30v2H14v-2Zm0,4h30v2H14v-2Zm0,4h30v2H14v-2Z"/><path class="b" d="M14,51h30v2H14v-2Zm0,4h24v2H14v-2Z"/><g><path class="d" d="M33,30c-.3,0-.6-.14-.8-.4l-6-8c-.33-.44-.24-1.07,.2-1.4,.44-.33,1.07-.24,1.4,.2l6,8c.33,.44,.24,1.07-.2,1.4-.18,.14-.39,.2-.6,.2Z"/><path class="d" d="M27,30c-.21,0-.42-.06-.6-.2-.44-.33-.53-.96-.2-1.4l6-8c.33-.44,.96-.53,1.4-.2,.44,.33,.53,.96,.2,1.4l-6,8c-.2,.26-.5,.4-.8,.4Z"/></g></svg>