<svg xmlns="http://www.w3.org/2000/svg" viewBox="0 0 64 64" xmlns:v="https://vecta.io/nano"><path d="M55 12v50c0 1.1-.9 2-2 2H11c-1.1 0-2-.9-2-2V2c0-1.1.9-2 2-2h32l12 12z" fill="#f3f3f3"/><path d="M33 2h8v2h-8zm-2 4h10v2H31z" fill="#d9d9d9"/><path d="M55 12H43V0l12 12z" fill="#5e9fdf"/><path d="M7 37h50c1.1 0 2 .9 2 2v16c0 1.1-.9 2-2 2H5V39c0-1.1.9-2 2-2z" fill="#d38e2a"/><path d="M48 47h-4c-1.32 0-1.32 2 0 2h3v2c0 .55-.45 1-1 1h-4c-.55 0-1-.45-1-1v-8c0-.55.45-1 1-1h4c.55 0 1 .45 1 1 0 1.32 2 1.32 2 0a3.01 3.01 0 0 0-3-3h-4a3.01 3.01 0 0 0-3 3v8a3.01 3.01 0 0 0 3 3h4a3.01 3.01 0 0 0 3-3v-3c0-.55-.45-1-1-1zm-12.95-6.32L32 49.83l-3.05-9.15c-.42-1.26-2.31-.62-1.9.63l4 12c.3.91 1.59.91 1.9 0l4-12c.42-1.26-1.48-1.89-1.9-.63zM19 42h5c1.32 0 1.32-2 0-2h-5a4 4 0 1 0 0 8h2c1.1 0 2 .9 2 2s-.9 2-2 2h-5c-1.32 0-1.32 2 0 2h5a4 4 0 1 0 0-8h-2c-1.1 0-2-.9-2-2s.9-2 2-2z" fill="#fdfdfd"/><path d="M5 57l4 4v-4H5z" fill="#e4c290"/><path d="M9 37l13.38-13.38a3 3 0 0 1 4.24 0l3.26 3.26a3 3 0 0 0 4.24 0l8.76-8.76a3 3 0 0 1 4.24 0L55 26v11H10" fill="#1976d2"/><circle cx="18" cy="14" r="4" fill="#d38e2a"/><circle cx="14" cy="5" r="2" fill="#d9d9d9"/></svg>