<?xml version="1.0" encoding="UTF-8"?><svg id="a" xmlns="http://www.w3.org/2000/svg" viewBox="0 0 56 64"><defs><style>.b{fill:#5e9fdf;}.c{fill:#d38e2a;}.d{fill:#f3f3f3;}.e{fill:#1976d2;}</style></defs><path class="e" d="M0,0H42V54H0V0Z"/><g><path class="b" d="M50,16v16H8V8H42l8,8Z"/><path class="b" d="M8,32H50v30H8v-30ZM50,16h-8V8l8,8Z"/></g><g><path class="c" d="M49,64l-2-9,9,2-7,7Z"/><path class="c" d="M49,58.99l2-2,5,5-2,2-5-5Z"/></g><g><path class="d" d="M30,30c-2.21,0-4-1.79-4-4v-2c0-2.21,1.79-4,4-4s4,1.79,4,4v2c0,2.21-1.79,4-4,4Zm0-8c-1.1,0-2,.9-2,2v2c0,1.1,.9,2,2,2s2-.9,2-2v-2c0-1.1-.9-2-2-2Zm-10,8h-3c-.55,0-1-.45-1-1v-8c0-.55,.45-1,1-1h3c2.21,0,4,1.79,4,4v2c0,2.21-1.79,4-4,4Zm-2-2h2c1.1,0,2-.9,2-2v-2c0-1.1-.9-2-2-2h-2v6Z"/><path class="d" d="M43,30h-2c-2.76,0-5-2.24-5-5s2.24-5,5-5h2c.55,0,1,.45,1,1s-.45,1-1,1h-2c-1.65,0-3,1.35-3,3s1.35,3,3,3h2c.55,0,1,.45,1,1s-.45,1-1,1Z"/></g><path class="d" d="M14,29c0-1.32-2-1.32-2,0s2,1.32,2,0Zm8,6h22v2H22v-2Zm-8,4h30v2H14v-2Zm0,4h30v2H14v-2Z"/><path class="b" d="M14,47h30v2H14v-2Zm0,4h30v2H14v-2Zm0,4h24v2H14v-2Z"/></svg>