<svg xmlns="http://www.w3.org/2000/svg" viewBox="0 0 64 64" xmlns:v="https://vecta.io/nano"><path d="M55 12v50c0 1.1-.9 2-2 2H11c-1.1 0-2-.9-2-2V2c0-1.1.9-2 2-2h32l12 12z" fill="#f3f3f3"/><path d="M55 12H43V0l12 12z" fill="#5e9fdf"/><path d="M7 37h50c1.1 0 2 .9 2 2v16c0 1.1-.9 2-2 2H5V39c0-1.1.9-2 2-2z" fill="#d38e2a"/><path d="M5 57l4 4v-4H5z" fill="#e4c290"/><path d="M30.92 40.62c-.34-.82-1.5-.82-1.85 0l-5 12c-.51 1.22 1.34 1.99 1.85.77l1-2.4c.26.02-1.15.02 6.08.02.12 0-.06-.35 1.08 2.38.51 1.22 2.36.45 1.85-.77l-5-12zM27.75 49L30 43.6l2.25 5.4h-4.5zM38 45v8c0 1.32 2 1.32 2 0v-8c0-1.32-2-1.32-2 0zm2-4c0-1.32-2-1.32-2 0s2 1.32 2 0z" fill="#fdfdfd"/><g fill="#d38e2a"><path d="M33 25l-2 4H21l-2-4 7-10c1.33 1.9.08.12 7 10z"/><rect x="35" y="9" width="4" height="4" rx="1"/><rect x="13" y="9" width="4" height="4" rx="1"/></g><path d="M17 10h7v2h-7zm11 0h7v2h-7z" fill="#fdfdfd"/><path d="M30.15 35h-8.31a1 1 0 0 1-.99-.84l-.67-4a1 1 0 0 1 .99-1.16h9.64a1 1 0 0 1 .99 1.16l-.67 4a1.01 1.01 0 0 1-.99.84z" fill="#1976d2"/><path d="M35,21c0-4.96-4.04-9-9-9s-9,4.04-9,9c0,1.32-2,1.32-2,0,0-6.07,4.93-11,11-11s11,4.93,11,11c0,1.32-2,1.32-2,0Z" fill="#fdfdfd"/><g fill="#d38e2a"><rect x="24" y="9" width="4" height="4" rx="1"/><rect x="34" y="19" width="4" height="4" rx="1"/><rect x="14" y="19" width="4" height="4" rx="1"/></g><g fill="#e4c290"><path d="M27 16.43V23h-2v-6.57L26 15l1 1.43z"/><circle cx="26" cy="24" r="2"/></g><g fill="#d9d9d9"><path d="M45 20h8v2h-8zm-2 4h10v2H43zm-2 4h12v2H41z"/><circle cx="14" cy="5" r="2"/></g></svg>