<?xml version="1.0" encoding="UTF-8"?><svg id="a" xmlns="http://www.w3.org/2000/svg" viewBox="0 0 56 64"><defs><style>.b{fill:#5e9fdf;}.c{fill:#d38e2a;}.d{fill:#f3f3f3;}.e{fill:#1976d2;}</style></defs><path class="e" d="M0,0H42V54H0V0Z"/><g><path class="b" d="M50,16v16H8V8H42l8,8Z"/><path class="b" d="M8,32H50v30H8v-30ZM50,16h-8V8l8,8Z"/></g><g><path class="c" d="M49,64l-2-9,9,2-7,7Z"/><path class="c" d="M49,58.99l2-2,5,5-2,2-5-5Z"/></g><g><path class="d" d="M40,30c-.55,0-1-.45-1-1v-8c0-.55,.45-1,1-1s1,.45,1,1v8c0,.55-.45,1-1,1Z"/><path class="d" d="M43,22h-6c-.55,0-1-.45-1-1s.45-1,1-1h6c.55,0,1,.45,1,1s-.45,1-1,1Z"/></g><path class="d" d="M14,29c0-1.32-2-1.32-2,0s2,1.32,2,0Zm8,6h22v2H22v-2Zm-8,4h30v2H14v-2Zm0,4h30v2H14v-2Zm0,4h30v2H14v-2Z"/><path class="b" d="M14,51h30v2H14v-2Zm0,4h24v2H14v-2Z"/><path class="d" d="M27,30c-.55,0-1-.45-1-1v-8c0-.55,.45-1,1-1h4c1.85,0,3,1.56,3,3,0,1.65-1.35,3-3,3h-3v3c0,.55-.45,1-1,1Zm1-6h3c.55,0,1-.45,1-1,0-.2-.18-1-1-1h-3v2Zm-11,6c-.55,0-1-.45-1-1v-8c0-.55,.45-1,1-1h4c1.85,0,3,1.56,3,3,0,1.65-1.35,3-3,3h-3v3c0,.55-.45,1-1,1Zm1-6h3c.55,0,1-.45,1-1,0-.2-.18-1-1-1h-3v2Z"/></svg>