<svg xmlns="http://www.w3.org/2000/svg" viewBox="0 0 64 64" xmlns:v="https://vecta.io/nano"><path d="M55 12v50c0 1.1-.9 2-2 2H11c-1.1 0-2-.9-2-2V2c0-1.1.9-2 2-2h32l12 12z" fill="#f3f3f3"/><path d="M55 12H43V0l12 12z" fill="#d38e2a"/><path d="M7 37h50c1.1 0 2 .9 2 2v16c0 1.1-.9 2-2 2H5V39c0-1.1.9-2 2-2z" fill="#5e9fdf"/><path d="M42 40h-2c-.55 0-1 .45-1 1v12c0 .55.45 1 1 1h2a7.01 7.01 0 0 0 7-7 7.01 7.01 0 0 0-7-7zm0 12h-1V42h1c2.76 0 5 2.24 5 5s-2.24 5-5 5zM21 40h-5c-.55 0-1 .45-1 1v12c0 1.32 2 1.32 2 0v-5h4a4 4 0 1 0 0-8zm0 6h-4v-4h4c1.1 0 2 .9 2 2s-.9 2-2 2zm10-4h5c1.32 0 1.32-2 0-2h-5a4 4 0 1 0 0 8h2c1.1 0 2 .9 2 2s-.9 2-2 2h-5c-1.32 0-1.32 2 0 2h5a4 4 0 1 0 0-8h-2c-1.1 0-2-.9-2-2s.9-2 2-2z" fill="#fdfdfd"/><path d="M5 57l4 4v-4H5zm21-35l-12 5 12 5 12-5-12-5z" fill="#1976d2"/><g fill="#5e9fdf"><path d="M26 16l-12 5 12 5 12-5-12-5z"/><path d="M26 10l-12 5 12 5 12-5-12-5z"/></g><g fill="#d9d9d9"><path d="M27.29 4.29l-.29.29V2.99c0-1.32-2-1.32-2 0v1.59l-.29-.29c-.94-.94-2.35.48-1.41 1.41 3.09 3.09 2.33 3.08 5.41 0 .94-.94-.48-2.35-1.41-1.41zM45 20h8v2h-8zm-2 4h10v2H43zm-2 4h12v2H41z"/><circle cx="14" cy="5" r="2"/></g></svg>