<svg xmlns="http://www.w3.org/2000/svg" viewBox="0 0 64 64" xmlns:v="https://vecta.io/nano"><circle cx="32" cy="32" r="27" fill="#f3f3f3"/><circle cx="9" cy="9" r="9" fill="#1976d2"/><g fill="#d9d9d9"><path d="M50.38 51.38c-.62 0 1.82 2.24-37.48-37.06-.39-.39-.39-1.02 0-1.41s1.02-.39 1.41 0l36.78 36.77a1.01 1.01 0 0 1-.71 1.71z"/><path d="M13.62 51.38c-.88 0-1.34-1.07-.71-1.71l36.77-36.76c.39-.39 1.02-.39 1.41 0s.39 1.02 0 1.41L14.32 51.09a.98.98 0 0 1-.71.29z"/></g><circle cx="32" cy="32" r="19" fill="#d38e2a"/><path d="M38 22v18H24c-1.1 0-2-.9-2-2V22c0-1.1.9-2 2-2h12c1.1 0 2 .9 2 2z" fill="#d9d9d9"/><path d="M42 28v14c0 1.1-.9 2-2 2H28c-1.1 0-2-.9-2-2V26c0-1.1.9-2 2-2h10l4 4z" fill="#f3f3f3"/><path d="M42,28h-3c-.55,0-1-.45-1-1v-3l4,4Z" fill="#d9d9d9"/><g fill="#5e9fdf"><path d="M16.16,14.44c-3.59,4.75-10.73,4.75-14.32,0,2.92-5.91,11.4-5.91,14.32,0Z"/><circle cx="9" cy="7" r="5"/></g><circle cx="55" cy="9" r="9" fill="#1976d2"/><g fill="#5e9fdf"><path d="M62.16,14.44c-3.59,4.75-10.73,4.75-14.32,0,2.92-5.91,11.4-5.91,14.32,0Z"/><circle cx="55" cy="7" r="5"/></g><circle cx="9" cy="55" r="9" fill="#1976d2"/><g fill="#5e9fdf"><path d="M16.16,60.44c-3.59,4.75-10.73,4.75-14.32,0,2.92-5.91,11.4-5.91,14.32,0Z"/><circle cx="9" cy="53" r="5"/></g><circle cx="55" cy="55" r="9" fill="#1976d2"/><g fill="#5e9fdf"><path d="M62.16,60.44c-3.59,4.75-10.73,4.75-14.32,0,2.92-5.91,11.4-5.91,14.32,0Z"/><circle cx="55" cy="53" r="5"/></g><path d="M32 33h6v2h-6zm-2 4h8v2h-8z" fill="#d9d9d9"/></svg>