<svg xmlns="http://www.w3.org/2000/svg" viewBox="0 0 64 64" xmlns:v="https://vecta.io/nano"><g fill="#1976d2"><rect y="3" width="64" height="48" rx="3"/><path d="M39.81 61.05l-16-.1 1.07-10 14 .1.93 10z"/></g><path d="M46.81 62.1l-30-.2c-1.34 0-1.28-2.01.01-2l30 .2c1.34 0 1.28 2.01-.01 2zM3 5h58c.55 0 1 .45 1 1v3H2V6c0-.55.45-1 1-1z" fill="#5e9fdf"/><path d="M2 9h60v36H2z" fill="#fff"/><path d="M50 9h12v36H50z" fill="#5e9fdf"/><path d="M16 15v7H8V12h5l3 3z" fill="#d38e2a"/><path d="M16 15l-2.88-.12L13 12l3 3z" fill="#e4c290"/><path d="M8 24h8v2H8z" fill="#d9d9d9"/><path d="M58.99 15l-6.98-.01v-2l6.98.01v2zm0 6l-6.98-.01v-2l6.98.01v2zm0 6l-6.98-.01v-2l6.98.01v2zm0 6l-6.98-.01v-2l6.98.01v2zm0 6l-6.98-.01v-2l6.98.01v2z" fill="#5e9fdf"/><path d="M30 15v7h-8V12h5l3 3z" fill="#d38e2a"/><path d="M30 15l-2.88-.12L27 12l3 3z" fill="#e4c290"/><path d="M44 15v7h-8V12h5l3 3z" fill="#d38e2a"/><path d="M44 15l-2.88-.12L41 12l3 3z" fill="#e4c290"/><path d="M36 24h8v2h-8zm-13.949-.064l8 .053-.013 2-8-.053z" fill="#d9d9d9"/><path d="M16 32v7H8V29h5l3 3z" fill="#d38e2a"/><path d="M16 32l-2.88-.12L13 29l3 3z" fill="#e4c290"/><path d="M8 41h8v2H8z" fill="#d9d9d9"/><path d="M30 32v7h-8V29h5l3 3z" fill="#d38e2a"/><path d="M30 32l-2.88-.12L27 29l3 3z" fill="#e4c290"/><path d="M44 32v7h-8V29h5l3 3z" fill="#d38e2a"/><path d="M44 32l-2.88-.12L41 29l3 3z" fill="#e4c290"/><path d="M36 41h8v2h-8zm-13.942-.065l8 .053-.013 2-8-.053z" fill="#d9d9d9"/></svg>