<svg xmlns="http://www.w3.org/2000/svg" viewBox="0 0 64 64" xmlns:v="https://vecta.io/nano"><rect x="6" width="40" height="64" rx="6" fill="#5e9fdf"/><path d="M44 6v50a4 4 0 0 1-4 4H12a4 4 0 0 1-4-4V6a3.98 3.98 0 0 1 2-3.46c1.23-.71 1.73-.54 7.28-.54.43 0 .81.28.95.68.27.83.56 2.32 2.21 2.32h11.12a2.01 2.01 0 0 0 1.9-1.37l.31-.95c.14-.4.52-.68.95-.68H40a4 4 0 0 1 4 4z" fill="#fff"/><path d="M38,58H16c-1.34,0-1.29-2,0-2h22c1.34,0,1.29,2,0,2Z" fill="#d9d9d9"/><path d="M52 11v6l-7 3-7-3v-6h14z" fill="#1976d2"/><path d="M58 10l-13 5-13-5 13-5 13 5z" fill="#5e9fdf"/><path d="M10 18h17.78v2H10z" fill="#d9d9d9"/><path d="M50 19v-5.38l-5.45-2.72c-1.18-.59-.29-2.38.89-1.79l6 3a1 1 0 0 1 .55.89v6c0 1.32-2 1.32-2 0z" fill="#1976d2"/><path d="M10 44h32v2H10zm0 4h20v2H10z" fill="#d9d9d9"/><path d="M26 18c-7.73 0-14 6.27-14 14 0 12.74 15.65 18.68 24.1 9.68C44.55 32.88 38.4 18 26 18zm8.69 22.27C27.4 48.04 14 42.91 14 32a12 12 0 0 1 12-12c10.59 0 15.9 12.75 8.69 20.27z" fill="#d38e2a"/><circle cx="26" cy="32" r="12" fill="#fff"/><path d="M26 34.96c-1.62 0-1.27-2.97.96-4.2.76-.42 1.16-1.25 1-2.13-.26-1.48-2.08-2.15-3.26-1.16-.78.65-.92 1.77-.42 2.56.7 1.12-1 2.18-1.7 1.06-1.02-1.63-.71-3.85.83-5.15 2.37-1.99 6-.63 6.51 2.35.29 1.7-.51 3.4-2.01 4.22-.58.32-.93.85-.93 1.41s-.45 1.04-1 1.04zM27 38c0-1.32-2-1.32-2 0s2 1.32 2 0z" fill="#5e9fdf"/><g fill="#d38e2a"><path d="M37.79 46.21l-4.59-4.6a11.79 11.79 0 0 0 1.49-1.34l4.52 4.52c.93.93-.45 2.34-1.42 1.42z"/><path d="M37.71 46.29l1.59-1.59c.39-.39 1.02-.39 1.41 0L52.5 56.49a2.12 2.12 0 0 1 0 3h0a2.12 2.12 0 0 1-3 0L37.71 47.7c-.39-.39-.39-1.02 0-1.41z"/></g><path d="M14 10h16v2H14zm-4 4h20v2H10z" fill="#d9d9d9"/></svg>