<svg xmlns="http://www.w3.org/2000/svg" viewBox="0 0 64 64" xmlns:v="https://vecta.io/nano"><rect x="12" width="40" height="64" rx="6" fill="#5e9fdf"/><path d="M50 6v50a4 4 0 0 1-4 4H18a4 4 0 0 1-4-4V6a3.98 3.98 0 0 1 2-3.46c1.23-.71 1.73-.54 7.28-.54.43 0 .81.28.95.68.27.83.56 2.32 2.21 2.32h11.12a2.01 2.01 0 0 0 1.9-1.37l.31-.95c.14-.4.52-.68.95-.68H46a4 4 0 0 1 4 4z" fill="#fff"/><path d="M45,58H19c-1.34,0-1.29-2,0-2h26c1.34,0,1.29,2,0,2Z" fill="#d9d9d9"/><path d="M32 51c-1.32 0-1.32-2 0-2a7.01 7.01 0 0 0 7-7v-6a7.01 7.01 0 0 0-7-7 7.01 7.01 0 0 0-7 7v6c0 1.32-2 1.32-2 0v-6c0-4.96 4.04-9 9-9s9 4.04 9 9v6c0 4.96-4.04 9-9 9zm0-4c-2.76 0-5-2.24-5-5v-6c0-1.32 2-1.32 2 0v6a3.01 3.01 0 0 0 3 3 3.01 3.01 0 0 0 3-3v-6a3.01 3.01 0 0 0-3-3c-.55 0-1-.45-1-1 0-2.28 6-.65 6 4v6c0 2.76-2.24 5-5 5zm-1-5v-6c0-1.32 2-1.32 2 0v6c0 1.32-2 1.32-2 0z" fill="#d38e2a"/><g fill="#d9d9d9"><path d="M46 30v-3h-3c-1.32 0-1.32-2 0-2h4c.55 0 1 .45 1 1v4c0 1.32-2 1.32-2 0zm-30 0v-4c0-.55.45-1 1-1h4c1.32 0 1.32 2 0 2h-3v3c0 1.32-2 1.32-2 0zm31 23h-4c-1.32 0-1.32-2 0-2h3v-3c0-1.32 2-1.32 2 0v4c0 .55-.45 1-1 1zm-26 0h-4c-.55 0-1-.45-1-1v-4c0-1.32 2-1.32 2 0v3h3c1.32 0 1.32 2 0 2zm11-34c-3.31 0-6-2.69-6-6s2.69-6 6-6 6 2.69 6 6-2.69 6-6 6zm0-10a4 4 0 1 0 0 8 4 4 0 1 0 0-8z"/><path d="M33 15c-.54 0-.57-.15-2.71-2.29-.94-.94.48-2.35 1.41-1.41l1.29 1.29 5.29-5.29c.94-.94 2.35.48 1.41 1.41L32.98 15z"/></g></svg>