<svg xmlns="http://www.w3.org/2000/svg" viewBox="0 0 64 64" xmlns:v="https://vecta.io/nano"><circle cx="29" cy="29" r="28" fill="#5e9fdf"/><path d="M51.21 10.38c-.04-.05-.07-.11-.12-.15C39.47-3.4 18.55-3.41 6.92 10.22c-.06.05-.09.11-.13.16a28.91 28.91 0 0 0 0 37.24c.04.05.07.11.12.15 11.66 13.66 32.57 13.62 44.16.01.01-.01.02-.01.02-.01.05-.04.08-.1.12-.15 8.93-10.62 9.17-26.31 0-37.24zM25.46 2.24c-4.51 3.81-7.96 8.66-10.07 14.07a26.99 26.99 0 0 1-6.5-5.3c4.21-4.7 10.02-7.91 16.57-8.77zM7.6 45.44C.19 35.81.08 22.33 7.6 12.56c2.08 2.28 4.49 4.18 7.11 5.67-2.22 6.86-2.34 14.31 0 21.54-2.62 1.49-5.03 3.39-7.11 5.67zm1.29 1.55a26.99 26.99 0 0 1 6.5-5.3c2.11 5.41 5.56 10.26 10.07 14.07-6.55-.86-12.36-4.07-16.57-8.77zM28 55.24c-5-3.84-8.68-8.86-10.84-14.5 3.29-1.61 6.95-2.56 10.84-2.71v17.21zm0-19.21c-4.03.14-7.94 1.1-11.5 2.8-1.94-6.22-2.06-13.06 0-19.66 3.56 1.7 7.47 2.66 11.5 2.8v14.06zm0-16.06c-3.81-.14-7.49-1.07-10.84-2.71A33.18 33.18 0 0 1 28 2.76v17.21zm21.11-8.96a26.99 26.99 0 0 1-6.5 5.3C40.5 10.9 37.05 6.05 32.54 2.24c6.55.86 12.36 4.07 16.57 8.77zM30 2.76a33.18 33.18 0 0 1 10.84 14.5c-3.35 1.64-7.03 2.57-10.84 2.71V2.76zm0 19.21c4.03-.14 7.94-1.1 11.5-2.8a32.96 32.96 0 0 1 0 19.66c-3.6-1.73-7.54-2.66-11.5-2.8V21.97zm0 16.06c3.93.14 7.68 1.15 10.84 2.71-2.19 5.75-5.97 10.77-10.84 14.5V38.03zm2.54 17.73c4.56-3.85 8.02-8.78 10.07-14.07a26.99 26.99 0 0 1 6.5 5.3 26.99 26.99 0 0 1-16.57 8.77zM50.4 45.44c-2.08-2.28-4.49-4.18-7.11-5.67 2.19-6.72 2.36-14.22 0-21.54 2.62-1.49 5.03-3.39 7.11-5.67 7.45 9.68 7.49 23.18 0 32.88z" fill="#f3f3f3"/><path d="M55.08 36c-.93 3.47-2.54 6.67-4.68 9.44-2.08-2.28-4.49-4.18-7.11-5.67a34.22 34.22 0 0 0 .99-3.77h10.8zm-12.84 0c-.2.96-.45 1.9-.74 2.83-3.56-1.7-7.47-2.66-11.5-2.8 0-.1-.58-.03 12.24-.03z" fill="#1976d2"/><g fill="#d9d9d9"><path d="M55.74 40.21c-1.89 4.49-4.95 8.59-9.08 11.77-1.01.05-1.96 0-3.07-.28 2.05-1.32 3.9-2.9 5.52-4.71a26.99 26.99 0 0 0-6.5-5.3c-.99 2.55-2.29 4.97-3.84 7.21a8.96 8.96 0 0 1-1.28-1.66c1.35-2.03 2.48-4.22 3.35-6.5-1.36-.67-2.78-1.22-4.25-1.64.2-.58.46-1.2.78-1.87a28.68 28.68 0 0 1 4.13 1.6c.95-3.06 1.5-6.42 1.5-9.83 0-.2.73-1.38 1.44-2.25l.45-.54c.36 4.81-.24 9.38-1.6 13.56 2.62 1.49 5.03 3.39 7.11 5.67 1.86-2.41 3.32-5.14 4.28-8.09.46.99.84 1.96 1.06 2.86z"/><path d="M55.08 36c-.93 3.47-2.54 6.67-4.68 9.44-2.08-2.28-4.49-4.18-7.11-5.67a34.22 34.22 0 0 0 .99-3.77h-2.04c-.2.96-.45 1.9-.74 2.83-3.56-1.7-7.47-2.66-11.5-2.8 0-.1-2.38-.07-3.54 2.1a25.96 25.96 0 0 1 1.54-.1v17.21c-.69-.53-1.36-1.08-2-1.66v4.27C40.94 59.36 53.74 49.66 57.14 36h-2.06zM30 38.03c3.81.14 7.49 1.07 10.84 2.71A33.18 33.18 0 0 1 30 55.24V38.03zm2.54 17.73c4.51-3.81 7.96-8.66 10.07-14.07a26.99 26.99 0 0 1 6.5 5.3c-4.21 4.7-10.02 7.91-16.57 8.77z"/></g><g fill="#1976d2"><path d="M28 38.03v17.21l-2-1.66c0-16.96-.5-15.45 2-15.55z"/><rect x="28" y="38" width="36" height="26" rx="2"/></g><path d="M30 40h8v4h-8zm14 6h10v4H44zm10-6h8v4h-8zm2 6h6v4h-6z" fill="#5e9fdf"/><path d="M40 40h12v4H40z" fill="#d38e2a"/><path d="M30 52h8v4h-8zm24 0h8v4h-8zm-14 0h12v4H40zm-10-6h12v4H30zm14 12h10v4H44zm12 0h6v4h-6zm-26 0h12v4H30z" fill="#5e9fdf"/><g fill="#1976d2"><path d="M43 28.92c0 3.49-.54 6.82-1.5 9.91a28.68 28.68 0 0 0-4.13-1.6c.76-1.59 1.68-3.02 3.08-5.36l1.16 1.94c.18-1.62.46-3.1 1.39-4.89zm11.68 8.43c-.96 2.95-2.42 5.68-4.28 8.09-2.08-2.28-4.49-4.18-7.11-5.67 1.35-4.16 1.96-8.72 1.6-13.56l1.08-1.32c3.13 3.65 6.65 8.11 8.71 12.46zM38 44h-1.8c-.34-1.66-.21-2.85.1-4H38v4zm-1.16 2H42v4h-1.99c-1.37-1.03-2.48-2.41-3.17-4zM44 46h10v1.99c-.57.76-1.25 1.44-2.01 2.01H44v-4z"/><path d="M55.8 44H54v-4h1.69c.32 1.15.45 2.32.11 4z"/></g><path d="M54 42a8 8 0 1 1-16 0c0-1.63 1.08-3.95 2.45-6.24l1 1.66c.5.82 1.76.54 1.85-.42.36-3.62.32-6.12 2.7-9 0 0 8 9.58 8 14z" fill="#d38e2a"/><path d="M49 47c0-1.66-3-5-3-5s-3 3.34-3 5 1.34 3 3 3 3-1.34 3-3z" fill="#e4c290"/></svg>