<svg xmlns="http://www.w3.org/2000/svg" viewBox="0 0 64 64" xmlns:v="https://vecta.io/nano"><path d="M59 27a26.86 26.86 0 0 1-3.91 14 27.86 27.86 0 0 1-1.34 2C48.83 49.67 40.92 54 32 54s-16.83-4.33-21.75-11a27.86 27.86 0 0 1-1.34-2A26.86 26.86 0 0 1 5 27c0-1.36.1-2.7.3-4 .25-1.73.67-3.4 1.24-5a23.15 23.15 0 0 1 .8-2C11.55 6.57 21.01 0 32 0s20.45 6.57 24.66 16a23.15 23.15 0 0 1 .8 2c.57 1.6.99 3.27 1.24 5 .2 1.3.3 2.64.3 4z" fill="#d38e2a"/><g fill="#e4c290"><path d="M44.77 18h12.69l-.8-2H44.14C42.01 9.93 38.1 4.52 32.62.21a1.02 1.02 0 0 0-1.24 0C25.9 4.52 21.99 9.93 19.86 16H7.34a23.15 23.15 0 0 0-.8 2h12.69c-.45 1.63-.78 3.3-.98 5a31.13 31.13 0 0 0-.25 4c0 10.51 4.61 20.29 12.68 26.97l.7.56a1.01 1.01 0 0 0 .62.21 1.01 1.01 0 0 0 .62-.21c.24-.18.47-.37.7-.56C41.39 47.29 46 37.51 46 27a31.13 31.13 0 0 0-.25-4c-.2-1.7-.53-3.37-.98-5zM32 2.28c4.65 3.82 8.04 8.5 10 13.72H22c1.96-5.22 5.35-9.9 10-13.72zm0 50.18C24.36 46.16 20 36.93 20 27c0-1.35.09-2.69.26-4a30.01 30.01 0 0 1 1.05-5h21.38a30.01 30.01 0 0 1 1.05 5c.17 1.31.26 2.65.26 4 0 9.93-4.36 19.16-12 25.46z"/><path d="M59 27a26.86 26.86 0 0 1-3.91 14 27.86 27.86 0 0 1-1.34 2c-4.68 6.34-12.05 10.56-20.43 10.97C41.39 47.29 46 37.51 46 27a31.13 31.13 0 0 0-.25-4H58.7c.2 1.3.3 2.64.3 4zm-15 0c0 9.93-4.36 19.16-12 25.46-7.64-6.3-12-15.53-12-25.46 0-1.35.09-2.69.26-4h23.48c.17 1.31.26 2.65.26 4zM30.68 53.97C22.3 53.56 14.93 49.34 10.25 43a27.86 27.86 0 0 1-1.34-2A26.86 26.86 0 0 1 5 27c0-1.36.1-2.7.3-4h12.95a31.13 31.13 0 0 0-.25 4c0 10.51 4.61 20.29 12.68 26.97z"/><path d="M46 27c0 10.51-4.61 20.29-12.68 26.97-.44.02-.88.03-1.32.03s-.88-.01-1.32-.03C22.61 47.29 18 37.51 18 27a31.13 31.13 0 0 1 .25-4h2.01c-.17 1.31-.26 2.65-.26 4 0 9.93 4.36 19.16 12 25.46 7.64-6.3 12-15.53 12-25.46 0-1.35-.09-2.69-.26-4h2.01a31.13 31.13 0 0 1 .25 4z"/></g><rect x="2" y="25" width="60" height="34" rx="2" fill="#5e9fdf"/><path d="M31 43h2v7h-2z" fill="#1976d2"/><g fill="#5e9fdf"><path d="M62 34v-2h-9v-7h-2v7h-8v-7h-2v7h-8v-7h-2v7h-8v-7h-2v7h-8v-7h-2v7H2v2h4v7H2v2h9v7H2v2h4v7h2v-7h8v7h2v-7h28v7h2v-7h8v7h2v-7h4v-2h-9v-7h9v-2h-4v-7h4zm-24 0h8v7h-8v-7zm-10 0h8v7h-8v-7zm-10 0h8v7h-8v-7zM8 41v-7h8v7H8zm13 9h-8v-7h8v7zm20 0H23v-7h18v7zm10 0h-8v-7h8v7zm5-9h-8v-7h8v7z"/><path d="M41 46.57V50H23v-3.82L25.19 43h11.55c.17.83.26 1.68.26 2.54v.92c0 .18.19.19.19.19.03 0 .06 0 .1-.05a3.04 3.04 0 0 1 1.88-.65c.68 0 1.31.23 1.83.62zm-5-6.02V41h-8v-1.53l2.55-2.85 1.46-1.52 1.44 1.53c1.1 1.16 1.95 2.49 2.55 3.92z"/></g><path d="M36.74 43H25.19L28 39.47V41h8v-.45c.33.79.58 1.61.74 2.45z" fill="#1976d2"/><path d="M44 54c0 1.78-.39 3.48-1.09 5H21.09c-.7-1.52-1.09-3.22-1.09-5 0-.63.1-1.3.29-2h23.44c.18.72.27 1.38.27 2z" fill="#5e9fdf"/><path d="M43.73 52H20.29c.16-.65.39-1.32.68-2 .01-.02.02-.04.03-.07.53-1.23 1.22-2.5 2-3.75V50h18v-3.43c.31.24.58.54.78.89.49.86.9 1.66 1.22 2.42a.61.61 0 0 1 .05.12c.3.71.53 1.37.68 2z" fill="#1976d2"/><path d="M42 54c0 5.52-4.48 10-10 10s-10-4.48-10-10 10-16 10-16h0a10.97 10.97 0 0 1 3 7.54v.92c0 1.83 2.11 2.85 3.54 1.7h0c.48-.38 1.19-.25 1.5.29C41.19 50.46 42 52.43 42 54z" fill="#d38e2a"/><path d="M36 60c0-2.21-1.79-7-4-7s-4 4.79-4 7a4 4 0 1 0 8 0z" fill="#e4c290"/><g fill="#5e9fdf"><path d="M5 1L1 3v1.53A7.23 7.23 0 0 0 5 11h0a7.24 7.24 0 0 0 4-6.47V3L5 1z"/><path d="M5 12a1.03 1.03 0 0 1-.45-.11A8.17 8.17 0 0 1 0 4.53V3c0-.38.21-.73.55-.89l4-2c.28-.14.61-.14.89 0l4 2a1 1 0 0 1 .55.89v1.53c0 3.14-1.74 5.96-4.55 7.37-.14.07-.29.11-.45.11zM2 3.62v.91c0 2.21 1.14 4.21 3 5.33 1.86-1.13 3-3.13 3-5.33v-.91l-3-1.5-3 1.5zM59 2l-4 2v1.53A7.23 7.23 0 0 0 59 12h0a7.24 7.24 0 0 0 4-6.47V4l-4-2z"/><path d="M59 13a1.03 1.03 0 0 1-.45-.11C55.74 11.49 54 8.66 54 5.52V3.99c0-.38.21-.73.55-.89l4-2c.28-.14.61-.14.89 0l4 2a1 1 0 0 1 .55.89v1.53c0 3.14-1.74 5.96-4.55 7.37-.14.07-.29.11-.45.11zm-3-8.38v.91c0 2.21 1.14 4.21 3 5.33 1.86-1.13 3-3.13 3-5.33v-.91l-3-1.5-3 1.5z"/></g></svg>