<?xml version="1.0" encoding="UTF-8"?><svg id="a" xmlns="http://www.w3.org/2000/svg" viewBox="0 0 48 64"><defs><style>.b{fill:#5e9fdf;}.c{fill:#d38e2a;}.d{fill:#1976d2;}</style></defs><g><path class="d" d="M43,61c-.55,0-1-.45-1-1v-5c0-1.65-1.35-3-3-3H9c-1.65,0-3,1.35-3,3v5c0,.55-.45,1-1,1s-1-.45-1-1v-5c0-2.76,2.24-5,5-5h30c2.76,0,5,2.24,5,5v5c0,.55-.45,1-1,1Z"/><path class="d" d="M24,59c-.55,0-1-.45-1-1v-26c0-.55,.45-1,1-1s1,.45,1,1v26c0,.55-.45,1-1,1Z"/></g><g><rect class="c" x="19" y="58" width="10" height="6" rx="1" ry="1"/><rect class="c" y="58" width="10" height="6" rx="1" ry="1"/><rect class="c" x="38" y="58" width="10" height="6" rx="1" ry="1"/></g><g><path class="d" d="M39,14H9c-2.76,0-5-2.24-5-5V4c0-.55,.45-1,1-1s1,.45,1,1v5c0,1.65,1.35,3,3,3h30c1.65,0,3-1.35,3-3V4c0-.55,.45-1,1-1s1,.45,1,1v5c0,2.76-2.24,5-5,5Z"/><path class="d" d="M24,33c-.55,0-1-.45-1-1V6c0-.55,.45-1,1-1s1,.45,1,1v26c0,.55-.45,1-1,1Z"/></g><g><rect class="c" x="19" width="10" height="6" rx="1" ry="1"/><rect class="c" width="10" height="6" rx="1" ry="1"/><rect class="c" x="38" width="10" height="6" rx="1" ry="1"/></g><path class="b" d="M44,37c0,3.87-3.13,7-7,7H12c-4.97,0-9-4.03-9-9,0-5.96,5.7-10.26,11.37-8.67,2.64-9.56,16.21-9.85,19.19-.29,2.31-.33,4.03,1.9,3.25,3.97,4.36,0,7.19,3.34,7.19,6.99Z"/></svg>