<svg xmlns="http://www.w3.org/2000/svg" viewBox="0 0 64 64" xmlns:v="https://vecta.io/nano"><path d="M44,6V53c0,1.1-.9,2-2,2H2c-1.1,0-2-.9-2-2V6H44Z" fill="#1976d2"/><path d="M44 2c0 5.76.11 5.81-.34 6.48l-3.09 4.63c-.37.56-1 .89-1.66.89H5.07a1.98 1.98 0 0 1-1.66-.89C.17 8.25 0 8.21 0 7.39V2C0 .9.9 0 2 0h40c1.1 0 2 .9 2 2z" fill="#d38e2a"/><path d="M26.54 55H42c1.1 0 2-.9 2-2V24.03C28.53 24.75 19.19 41.52 26.54 55z" fill="#1976d2"/><path d="M45,26c-10.49,0-19,8.51-19,19s8.51,19,19,19,19-8.51,19-19-8.51-19-19-19Zm0,22c-1.66,0-3-1.34-3-3s1.34-3,3-3,3,1.34,3,3-1.34,3-3,3Z" fill="#f3f3f3"/><path d="M45,39c-3.31,0-6,2.69-6,6s2.69,6,6,6,6-2.69,6-6-2.69-6-6-6Zm0,9c-1.66,0-3-1.34-3-3s1.34-3,3-3,3,1.34,3,3-1.34,3-3,3Z" fill="#5e9fdf"/><path d="M59 46c-.55 0-1-.45-1-1 0-7.17-5.83-13-13-13-.55 0-1-.45-1-1s.45-1 1-1c8.27 0 15 6.73 15 15 0 .55-.45 1-1 1zM45 60c-8.27 0-15-6.73-15-15 0-.55.45-1 1-1s1 .45 1 1c0 7.17 5.83 13 13 13 .55 0 1 .45 1 1s-.45 1-1 1z" fill="#d9d9d9"/><path d="M8 26c-.26 0-.51-.1-.71-.29l-3-3c-.39-.39-.39-1.02 0-1.41l3-3c.39-.39 1.02-.39 1.41 0s.39 1.02 0 1.41L6.41 22l2.29 2.29A1.01 1.01 0 0 1 7.99 26zm9 0c-.88 0-1.34-1.07-.71-1.71L18.58 22l-2.29-2.29c-.39-.39-.39-1.02 0-1.41s1.02-.39 1.41 0l3 3c.39.39.39 1.02 0 1.41l-3 3a.98.98 0 0 1-.71.29zm-5 1a.99.99 0 0 1-.99-1.12l1-8c.07-.55.57-.94 1.12-.87s.94.57.87 1.12l-1 8c-.06.51-.49.88-.99.88zm-8 4h4v2H4zm6 0h11v2H10zm-6 4h4v2H4zm6 0h11v2H10zm-6 4h4v2H4zm6 0h11v2H10z" fill="#fff"/></svg>