<svg xmlns="http://www.w3.org/2000/svg" viewBox="0 0 64 64" xmlns:v="https://vecta.io/nano"><path d="M64 32c0 6.67-4.67 12.27-11 13.68-2.12.46-.15.32-39 .32-3.32 0-6.39-1.16-8.78-3.11-7.64-6.12-6.77-18.09 1.79-23.01C4.08 14.61 7.85 8 14 8c1.52 0 2.94.43 4.15 1.16A16.92 16.92 0 0 1 32 2c9.07 0 16.48 7.1 16.97 16.04C56.84 17.35 64 23.72 64 32z" fill="#f3f3f3"/><path d="M49 45.97c0 .1 1.52.03-34 .03 0-2.27 1.82-4 3.97-4 .05-.24.15-.47.26-.71-1.53-1.52-1.53-4.03.02-5.58 1.45-1.45 2.29-2.62 4.26-2.62 1.06 0 2.06.41 2.81 1.16a3.64 3.64 0 0 1 .69-.32C27 31.78 28.78 30 30.97 30h2.06c2.19 0 3.97 1.78 3.97 3.97.24.05.47.15.71.26 1.47-1.49 4-1.56 5.58.02l1.46 1.46c1.55 1.55 1.55 4.06 0 5.61a3.64 3.64 0 0 1 .32.69c2.18 0 3.93 1.79 3.93 3.96z" fill="#d9d9d9"/><path d="M47 48.03v-2.07a1.97 1.97 0 0 0-1.97-1.97 1.98 1.98 0 0 1-1.84-1.28l-.25-.61c-.33-.75-.19-1.62.39-2.2.55-.55.97-1.81 0-2.78l-1.46-1.46a1.96 1.96 0 0 0-2.78 0 1.96 1.96 0 0 1-2.2.39l-.61-.25c-.77-.29-1.28-1.01-1.28-1.83 0-.78-.6-1.97-1.97-1.97h-2.07a1.97 1.97 0 0 0-1.97 1.97 1.98 1.98 0 0 1-1.28 1.84l-.61.25c-.75.33-1.62.19-2.2-.39-.55-.55-1.81-.97-2.78 0l-1.46 1.46a1.96 1.96 0 0 0 0 2.78 1.96 1.96 0 0 1 .39 2.2l-.25.61c-.29.77-1.01 1.28-1.83 1.28-.78 0-1.97.6-1.97 1.97v2.07a1.97 1.97 0 0 0 1.97 1.97 1.98 1.98 0 0 1 1.84 1.28l.25.61c.33.75.19 1.62-.39 2.2-.55.55-.97 1.81 0 2.78l1.46 1.46a1.96 1.96 0 0 0 2.78 0 1.96 1.96 0 0 1 2.2-.39l.61.25c.77.29 1.28 1.01 1.28 1.83 0 .78.6 1.97 1.97 1.97h2.07a1.97 1.97 0 0 0 1.97-1.97 1.98 1.98 0 0 1 1.28-1.84l.61-.25c.75-.33 1.62-.19 2.2.39.55.55 1.81.97 2.78 0l1.46-1.46a1.96 1.96 0 0 0 0-2.78 1.96 1.96 0 0 1-.39-2.2l.25-.61c.29-.77 1.01-1.28 1.83-1.28.78 0 1.97-.6 1.97-1.97z" fill="#1976d2"/><circle cx="32" cy="47" r="9" fill="#5e9fdf"/><path d="M36.83 45h3.95c-.16-.7-.41-1.37-.72-2h-3.69c-.57-1.81-1.53-3.47-2.82-4.87-1.08-.17-2.02-.17-3.1 0-1.29 1.4-2.25 3.06-2.82 4.87h-3.69c-.31.63-.56 1.3-.72 2h3.95c-.23 1.49-.23 2.51 0 4h-3.95c.16.7.41 1.37.72 2h3.69c.57 1.81 1.53 3.47 2.82 4.87 1.08.17 2.02.17 3.1 0 1.29-1.4 2.25-3.06 2.82-4.87h3.69c.31-.63.56-1.3.72-2h-3.95c.23-1.49.23-2.51 0-4zM32 39.4c.98 1.04 1.74 2.27 2.26 3.6h-4.52c.52-1.33 1.28-2.56 2.26-3.6zm0 15.2c-.98-1.04-1.74-2.27-2.26-3.6h4.52c-.52 1.33-1.28 2.56-2.26 3.6zm2.82-5.6h-5.64a11.2 11.2 0 0 1 0-4h5.64a11.2 11.2 0 0 1 0 4z" fill="#f3f3f3"/><path d="M11 44v1.68c-2.15-.48-4.12-1.44-5.78-2.79A2.99 2.99 0 0 1 8 41a3.01 3.01 0 0 1 3 3z" fill="#d9d9d9"/><path d="M14 52h-3a4 4 0 0 1-4-4v-4c0-.55.45-1 1-1s1 .45 1 1v4c0 1.1.9 2 2 2h3c.55 0 1 .45 1 1s-.45 1-1 1z" fill="#d38e2a"/><path d="M58.78 42.89c-1.66 1.35-3.63 2.31-5.78 2.79V44a3.01 3.01 0 0 1 3-3 2.99 2.99 0 0 1 2.78 1.89z" fill="#d9d9d9"/><path d="M53 52h-3c-.55 0-1-.45-1-1s.45-1 1-1h3c1.1 0 2-.9 2-2v-4c0-.55.45-1 1-1s1 .45 1 1v4a4 4 0 0 1-4 4z" fill="#d38e2a"/></svg>