<svg xmlns="http://www.w3.org/2000/svg" viewBox="0 0 64 64" xmlns:v="https://vecta.io/nano"><path d="M57.12 43.12c1.93-1.93.48-5.12-2.29-5.12H39v-8h-9.53a4.01 4.01 0 0 0-3.58 2.21l-.79 1.58A3.99 3.99 0 0 1 21.52 36h-2.53v26h30.83c1.62 0 3.08-1.22 3.17-2.84.09-1.73-1.29-3.16-3-3.16h2c.83 0 1.58-.34 2.12-.88 1.88-1.88.55-5.12-2.12-5.12h2c.83 0 1.58-.34 2.12-.88 1.88-1.88.55-5.12-2.12-5.12 1.19 0 2.14.1 3.12-.88z" fill="#e4c290"/><rect x="6" y="32" width="13" height="32" rx="2" fill="#1976d2"/><path d="M27.54 8.84a10.14 10.14 0 0 0-4.04 5l-.56 1.51c-.33.86-1.55.87-1.88 0l-.56-1.51a10.14 10.14 0 0 0-4.04-5c-.61-.38-.61-1.3 0-1.68a10.14 10.14 0 0 0 4.04-5l.56-1.51c.33-.86 1.55-.87 1.88 0l.56 1.51a10.14 10.14 0 0 0 4.04 5c.61.38.61 1.3 0 1.68z" fill="#e4c290"/><path d="M51 1.47v9.29a2 2 0 0 1-1.11 1.79l-4 2a2.01 2.01 0 0 1-1.79 0l-4-2a2 2 0 0 1-1.11-1.79V1.47c-8.92 4.65-9.4 17.19-.9 22.53.57.36.9.99.9 1.67V38h12V25.67c0-.67.33-1.31.9-1.67 8.49-5.33 8.03-17.87-.9-22.53z" fill="#1976d2"/><path d="M37,30v6h-3c-.55,0-1,.45-1,1s.45,1,1,1h5v-8h-2Z" fill="#d38e2a"/><circle cx="15" cy="60" r="2" fill="#fff"/><path d="M39 36h12v2H39z" fill="#1976d2"/><path d="M47 36h-4v-6c0-1.1.9-2 2-2 .81 0 2 .63 2 2v6z" fill="#5e9fdf"/><path d="M43 36h4v2h-4z" fill="#1976d2"/><path d="M58 41a3.01 3.01 0 0 1-3 3H43c-.55 0-1-.45-1-1s.45-1 1-1h14c.55 0 1-.45 1-1zm-1 6a3.01 3.01 0 0 1-3 3H44c-.55 0-1-.45-1-1s.45-1 1-1h12c.55 0 1-.45 1-1zm-2 6a3.01 3.01 0 0 1-3 3h-8c-.55 0-1-.45-1-1s.45-1 1-1h10c.55 0 1-.45 1-1z" fill="#d38e2a"/></svg>