<svg xmlns="http://www.w3.org/2000/svg" viewBox="0 0 64 64" xmlns:v="https://vecta.io/nano"><g fill="#5e9fdf"><circle cx="39" cy="36" r="25"/><path d="M37 7h4v7h-4z"/><path d="M35 3h8v4h-8zm19.501 8.693l3.155 2.458-4.302 5.522-3.155-2.458zm.884-4.393l6.311 4.916-2.458 3.155-6.311-4.916z"/></g><circle cx="39" cy="36" r="21" fill="#fff"/><g fill="#1976d2"><path d="M39 53c-1.32 0-1.32-2 0-2 8.27 0 15-6.73 15-15s-6.73-15-15-15-15 6.73-15 15c0 5.79 3.23 10.96 8.44 13.49 1.19.58.32 2.38-.87 1.8-5.9-2.87-9.56-8.72-9.56-15.29 0-9.37 7.63-17 17-17s17 7.63 17 17-7.63 17-17 17z"/><path d="M32,52h-4c-1.32,0-1.32-2,0-2h3v-3c0-1.32,2-1.32,2,0v4c0,.55-.45,1-1,1Z"/></g><path d="M32 44c-.88 0-1.34-1.07-.71-1.71l14-14c.94-.94 2.35.48 1.41 1.41C31.4 45 32.58 43.99 31.99 43.99zm1-9a4 4 0 1 1 0-8 4 4 0 1 1 0 8zm0-6c-1.1 0-2 .9-2 2s.9 2 2 2 2-.9 2-2-.9-2-2-2zm12 16a4 4 0 1 1 0-8 4 4 0 1 1 0 8zm0-6c-1.1 0-2 .9-2 2s.9 2 2 2 2-.9 2-2-.9-2-2-2z" fill="#d38e2a"/><path d="M2 15h28c1.1 0 2-.9 2-2 0-.81-.63-2-2-2H2c-1.1 0-2 .9-2 2 0 .81.63 2 2 2zm4 10h14c1.1 0 2-.9 2-2 0-.81-.63-2-2-2H6c-1.1 0-2 .9-2 2 0 .81.63 2 2 2zm3 10h8c1.1 0 2-.9 2-2 0-.81-.63-2-2-2H9c-1.1 0-2 .9-2 2 0 .81.63 2 2 2zM5 45h15c1.1 0 2-.9 2-2 0-.81-.63-2-2-2H5c-1.1 0-2 .9-2 2 0 .81.63 2 2 2z" fill="#5e9fdf"/></svg>