<svg xmlns="http://www.w3.org/2000/svg" viewBox="0 0 64 64" xmlns:v="https://vecta.io/nano"><path d="M53 35v-6c0-1.1-.9-2-2-2h-1.34a1.97 1.97 0 0 1-1.84-1.23l-.22-.53a1.97 1.97 0 0 1 .43-2.18l.95-.95c.78-.78.78-2.05 0-2.83l-4.24-4.24c-.78-.78-2.05-.78-2.83 0l-.95.95c-.57.57-1.44.75-2.18.43l-.53-.22a1.97 1.97 0 0 1-1.23-1.84v-1.34c0-1.1-.9-2-2-2h-6c-1.1 0-2 .9-2 2v1.34a1.97 1.97 0 0 1-1.23 1.84l-.53.22a1.97 1.97 0 0 1-2.18-.43l-.95-.95c-.78-.78-2.05-.78-2.83 0l-4.24 4.24c-.78.78-.78 2.05 0 2.83l.95.95c.57.57.75 1.44.43 2.18l-.22.53A1.97 1.97 0 0 1 14.38 27h-1.34c-1.1 0-2 .9-2 2v6c0 1.1.9 2 2 2h1.34a1.97 1.97 0 0 1 1.84 1.23l.22.53a1.97 1.97 0 0 1-.43 2.18l-.95.95c-.78.78-.78 2.05 0 2.83l4.24 4.24c.78.78 2.05.78 2.83 0l.95-.95c.57-.57 1.44-.75 2.18-.43l.53.22a1.97 1.97 0 0 1 1.23 1.84v1.34c0 1.1.9 2 2 2h6c1.1 0 2-.9 2-2v-1.34a1.97 1.97 0 0 1 1.23-1.84l.53-.22a1.97 1.97 0 0 1 2.18.43l.95.95c.78.78 2.05.78 2.83 0l4.24-4.24c.78-.78.78-2.05 0-2.83l-.95-.95c-.57-.57-.75-1.44-.43-2.18l.22-.53A1.97 1.97 0 0 1 49.66 37H51c1.1 0 2-.9 2-2z" fill="#d38e2a"/><circle cx="32" cy="32" r="12" fill="#fff"/><g fill="#5e9fdf"><path d="M41.16 36c-3.49 7.99-14.84 7.99-18.32 0a9.98 9.98 0 0 1 3.84-4.46c2.78 3.28 7.86 3.28 10.64 0A9.98 9.98 0 0 1 41.16 36z"/><circle cx="32" cy="27" r="5"/><path d="M55.22 10H51v4.26c9.09 9.73 9.35 24.7.66 34.74H55c.55 0 1 .45 1 1v3.15C66.99 40.69 66.59 22 55.22 10z"/></g><path d="M10 13h4.26c9.73-9.09 24.7-9.35 34.74-.66V9c0-.55.45-1 1-1h3.15C40.7-2.99 22-2.59 10 8.78V13zm3 41v-4.26c-9.09-9.73-9.35-24.7-.66-34.74H9c-.55 0-1-.45-1-1v-3.15C-2.99 23.31-2.59 42 8.78 54H13z" fill="#1976d2"/><path d="M54 51h-4.26c-9.73 9.09-24.7 9.35-34.74.66V55c0 .55-.45 1-1 1h-3.15C23.31 66.99 42 66.59 54 55.22V51z" fill="#5e9fdf"/></svg>