<svg xmlns="http://www.w3.org/2000/svg" viewBox="0 0 64 64" xmlns:v="https://vecta.io/nano"><path d="M0 24h58v40H0z" fill="#e4c290"/><path d="M20 0h38v42H20z" fill="#1976d2"/><path d="M28 24H0v-6h25l3 6z" fill="#e4c290"/><path d="M52 14v50H8V5h35l9 9z" fill="#f3f3f3"/><path d="M52 37h6v27h-6z" fill="#1976d2"/><path d="M8 37v27H0v-8.58L4.42 37H8z" fill="#e4c290"/><path d="M8 37h44v27H8z" fill="#d9d9d9"/><path d="M64 39l-6 25H0l6-25h58z" fill="#d38e2a"/><path d="M52 14h-9V5l9 9z" fill="#5e9fdf"/><g fill="#1976d2"><rect x="29.71" y="10.15" width="4" height="4" rx="1" transform="matrix(.707107 -.707107 .707107 .707107 .69 25.98)"/><rect x="14.15" y="25.71" width="4" height="4" rx="1" transform="matrix(.707107 -.707107 .707107 .707107 -14.86 19.54)"/></g><g fill="#5e9fdf"><path d="M16.862 25.591l4.95-4.95 1.414 1.414-4.95 4.95zm7.78-7.783l4.95-4.95 1.414 1.414-4.95 4.95z"/><path d="M37.36 20.64c-3.51-3.51-9.22-3.51-12.73 0s-3.51 9.22 0 12.73c.94.94-.48 2.35-1.41 1.41-4.29-4.29-4.29-11.27 0-15.56s11.27-4.29 15.56 0c.94.94-.48 2.35-1.41 1.41z"/></g><g fill="#1976d2"><rect x="21.93" y="17.93" width="4" height="4" rx="1" transform="matrix(.707107 -.707107 .707107 .707107 -7.08 22.76)"/><rect x="36.07" y="17.93" width="4" height="4" rx="1" transform="matrix(.707107 -.707107 .707107 .707107 -2.94 32.76)"/><rect x="21.93" y="32.07" width="4" height="4" rx="1" transform="matrix(.707107 -.707107 .707107 .707107 -17.08 26.9)"/></g><g fill="#d9d9d9"><path d="M37 28h12v2H37zm4 4h8v2h-8z"/><circle cx="12" cy="9" r="2"/></g></svg>