<svg xmlns="http://www.w3.org/2000/svg" viewBox="0 0 64 64" xmlns:v="https://vecta.io/nano"><path d="M60 58H4a4 4 0 0 1-4-4V11c0-1.1.9-2 2-2h20.87c.7 0 1.35.37 1.71.97l1.83 3.06c.36.6 1.01.97 1.71.97h29.87c1.1 0 2 .9 2 2v42z" fill="#e4c290"/><path d="M56 8v48H12V2c0-1.1.9-2 2-2h34l8 8z" fill="#f3f3f3"/><path d="M32.29 7.79l-7.43 12.16a2 2 0 0 0 1.71 3.04h14.87c1.56 0 2.52-1.71 1.71-3.04L35.72 7.79c-.78-1.28-2.63-1.28-3.41 0z" fill="#1976d2"/><g fill="#f3f3f3"><path d="M34 17c-.29 0-1-.22-1-1v-4c0-.55.45-1 1-1 .29 0 1 .22 1 1v4c0 .55-.45 1-1 1z"/><circle cx="34" cy="20" r="1"/></g><path d="M12 26h44v30H12z" fill="#d9d9d9"/><path d="M64 30v24a4 4 0 0 1-4 4H4a4 4 0 0 0 4-4V30c0-1.1.9-2 2-2h52c1.1 0 2 .9 2 2z" fill="#d38e2a"/><path d="M47.65 58h-25.3C17.97 48.83 24.67 38 35 38s17.03 10.83 12.65 20z" fill="#e4c290"/><circle cx="35" cy="52" r="12" fill="#f3f3f3"/><path d="M56,8h-6c-1.1,0-2-.9-2-2V0l8,8Z" fill="#d9d9d9"/><path d="M39,52c-.55,0-1-.45-1-1v-3c0-1.65-1.35-3-3-3s-3,1.35-3,3v3c0,.55-.45,1-1,1s-1-.45-1-1v-3c0-2.76,2.24-5,5-5s5,2.24,5,5v3c0,.55-.45,1-1,1Z" fill="#5e9fdf"/><g fill="#1976d2"><rect x="28" y="49" width="14" height="10" rx="2"/><path d="M35 56c-.29 0-1-.22-1-1v-2c0-.55.45-1 1-1 .29 0 1 .22 1 1v2c0 .55-.45 1-1 1z"/></g><path d="M16 5h10v2H16zm0 4h6v2h-6zm0 4h6v2h-6zm30 4h6v2h-6zm0-5h6v2h-6z" fill="#d9d9d9"/></svg>