<svg xmlns="http://www.w3.org/2000/svg" viewBox="0 0 64 64" xmlns:v="https://vecta.io/nano"><path d="M31 38h2v20h-2z" fill="#d9d9d9"/><g fill="#1976d2"><path d="M57 6v28c0 1.1-.9 2-2 2H8.99c-1.1 0-1.99-.89-2-1.99l-.12-32C6.86.9 7.76 0 8.87 0h19.89a2 2 0 0 1 1.79 1.11l.9 1.78A2 2 0 0 0 33.24 4H55c1.1 0 2 .9 2 2z"/><path d="M48,36H16c0-8.82,7.18-16,16-16s16,7.18,16,16Z"/></g><circle cx="32" cy="36" r="14" fill="#5e9fdf"/><rect x="27" y="58" width="10" height="6" rx="2" fill="#d38e2a"/><path d="M8 60h19v2H8z" fill="#d9d9d9"/><circle cx="8" cy="61" r="3" fill="#d38e2a"/><path d="M56 62H37v-2h19z" fill="#d9d9d9"/><circle cx="56" cy="61" r="3" fill="#d38e2a"/><path d="M29.83 36.36C32.1 34.59 30.83 31 28 31s-4.1 3.59-1.83 5.36C24.32 37.09 23 38.89 23 41c0 1.1.9 2 2 2h6c1.1 0 2-.9 2-2 0-2.11-1.31-3.91-3.17-4.64zm8-2C40.1 32.59 38.83 29 36 29s-4.1 3.59-1.83 5.36c-.94.37-1.67 1.02-1.79 1.19C33.98 36.83 35 38.8 35 41h4c1.09 0 2-.89 2-2 0-1.93-1.11-3.83-3.17-4.64z" fill="#fff"/></svg>