<svg xmlns="http://www.w3.org/2000/svg" viewBox="0 0 64 64" xmlns:v="https://vecta.io/nano"><g fill="#5e9fdf"><path d="M3,6H53c1.1,0,2,.9,2,2V42c0,1.1-.9,2-2,2H5c-1.1,0-2-.9-2-2V6h0Z"/><path d="M27 6H3V0h20l4 6zm8 6l-4 6H3v24c0 1.1.9 2 2 2h48c1.1 0 2-.9 2-2V12H35z"/><path d="M49.65 44h-25.3C22.41 35.89 28.58 28 37 28s14.6 7.88 12.65 16z"/></g><g fill="#d38e2a"><path d="M39,28c-7.18,0-13,5.82-13,13s5.82,13,13,13,13-5.82,13-13-5.82-13-13-13Zm0,24c-6.08,0-11-4.92-11-11s4.92-11,11-11,11,4.92,11,11-4.92,11-11,11Z"/><path d="M50 53c-.55 0-.43-.02-3.71-3.29-.94-.94.48-2.35 1.41-1.41l3 3a1.01 1.01 0 0 1-.71 1.71z"/></g><circle cx="39" cy="41" r="11" fill="#f3f3f3"/><path d="M30,41c0-5.74,4.39-10.44,10-10.95-6.56-.59-12,4.57-12,10.95s5.45,11.54,12,10.95c-5.61-.51-10-5.21-10-10.95Z" fill="#d9d9d9"/><path d="M62 61.17c0 2.57-3.11 3.72-4.95 1.88l-8.34-8.34c-.39-.39-.39-1.02 0-1.41l2.59-2.59c.39-.39 1.02-.39 1.41 0l8.46 8.46c.55.55.83 1.28.83 2z" fill="#1976d2"/></svg>