<svg xmlns="http://www.w3.org/2000/svg" viewBox="0 0 64 64" xmlns:v="https://vecta.io/nano"><path d="M49 10v44c0 3.31-2.69 6-6 6H21c-3.31 0-6-2.69-6-6V10c0-3.2 2.51-5.82 5.67-5.98C20.84 3.99 19.24 4 43 4c3.31 0 6 2.69 6 6z" fill="#5e9fdf"/><path d="M47 10v42a4 4 0 0 1-4 4H21a4 4 0 0 1-4-4V11c0-2.76 2.24-5 5-5h3l.54 1.63A2.01 2.01 0 0 0 27.44 9h9.12a2.01 2.01 0 0 0 1.9-1.37L39 6h4a4 4 0 0 1 4 4z" fill="#f3f3f3"/><path d="M19 12h12v18H19zm0 21h12v18H19z" fill="#d9d9d9"/><path d="M22.48 6H22c-2.76 0-5 2.24-5 5v8.78c-.64.14-1.31.22-2 .22V10c0-3.2 2.51-5.82 5.67-5.98A8.75 8.75 0 0 1 22.48 6z" fill="#1976d2"/><path d="M23.94 12H19v7.06c-.63.32-1.3.56-2 .72V11c0-2.76 2.24-5 5-5h.48c1.25 1.86 1.7 4.03 1.46 6z" fill="#d9d9d9"/><path d="M23.94 12A8.99 8.99 0 0 1 19 19.06V12h4.94z" fill="#c8c8c8"/><circle cx="13" cy="9" r="9" fill="#d38e2a"/><path d="M15.13 10.88c-1.15-1.14-3.1-1.14-4.26 0-.95.93-2.35-.5-1.4-1.42a5 5 0 0 1 7.06 0c.94.93-.47 2.34-1.4 1.42zm3.53-2.54c-.63 0-.66-.38-1.57-1.02-2.73-1.96-6.63-1.69-9.04.73-.94.94-2.35-.48-1.41-1.42 3.54-3.53 9.23-3.49 12.73 0 .63.63.18 1.71-.71 1.71zM14 13c0-1.32-2-1.32-2 0s2 1.32 2 0z" fill="#fdfdfd"/><g fill="#d9d9d9"><path d="M33 12h12v2H33zm0 4h12v2H33zm0 4h12v2H33zm0 4h12v2H33zm0 4h8v2h-8zm0 5h12v2H33zm0 4h12v2H33zm0 4h12v2H33zm0 4h12v2H33zm0 4h8v2h-8z"/><path d="M47 44v8a4 4 0 0 1-4 4h-5v-4l-1.33-1H41v-2h-6.34c0-.62.29-.71 2.01-2H45v-2h-6.73c.8-1.33 1.42-1 8.73-1z"/></g><path d="M34.66 49H41v2h-4.33c-1.8-1.35-2.01-1.41-2.01-2z" fill="#c8c8c8"/><path d="M49 44v10c0 3.31-2.69 6-6 6h-5v-4h5a4 4 0 0 0 4-4v-8h2z" fill="#1976d2"/><path d="M45 45v2h-8.33L38 46c0-.36.1-.71.27-1H45z" fill="#c8c8c8"/><path d="M60 44v18c0 1.1-.9 2-2 2H42c-1.1 0-2-.9-2-2V50l-2.93-2.2c-.53-.4-.53-1.2 0-1.6L40 44c0-.81.63-2 2-2h16c1.1 0 2 .9 2 2z" fill="#d38e2a"/><g fill="#f3f3f3"><path d="M57 55H43c0-3.87 3.13-7 7-7s7 3.13 7 7zm-2 5H45c-1.1 0-2-.9-2-2 0-.1-.8 0 14 0 0 .81-.63 2-2 2z"/><path d="M57 56H43c-1.32 0-1.32-2 0-2h14c1.32 0 1.32 2 0 2z"/><circle cx="50" cy="48" r="2"/></g></svg>