<svg xmlns="http://www.w3.org/2000/svg" viewBox="0 0 64 64" xmlns:v="https://vecta.io/nano"><path d="M62,11V50H2V11c0-1.66,1.34-3,3-3H59c1.66,0,3,1.34,3,3Z" fill="#1976d2"/><path d="M1 50h62c.55 0 1 .45 1 1v2c0 1.66-1.34 3-3 3H3c-1.66 0-3-1.34-3-3v-2c0-.55.45-1 1-1z" fill="#5e9fdf"/><path d="M60 11v37H4V11c0-.55.45-1 1-1h54c.55 0 1 .45 1 1z" fill="#fff"/><path d="M39 52H25c-1.1 0-2-.9-2-2 0-.1-.84 0 18 0 0 .81-.63 2-2 2z" fill="#f3f3f3"/><g fill="#5e9fdf"><path d="M5 10h54c.55 0 1 .45 1 1v3H4v-3c0-.55.45-1 1-1z"/><path d="M18,10h17c1.66,0,3,1.34,3,3v1H18v-4h0Z"/></g><path d="M5 10h14c1.66 0 3 1.34 3 3v1H4v-3c0-.55.45-1 1-1z" fill="#fff"/><path d="M19 19l-1-2h-7v12h16V19h-8z" fill="#d38e2a"/><path d="M27 21h-7l-1 2h-8v6h16v-8z" fill="#e4c290"/><path d="M45 19l-1-2h-7v12h16V19h-8z" fill="#d38e2a"/><path d="M53 21h-7l-1 2h-8v6h16v-8z" fill="#e4c290"/><path d="M8 32h22v2H8zm2 4h18v2H10zm4 4h10v2H14zm20-8h22v2H34zm2 4h18v2H36zm4 4h10v2H40z" fill="#d9d9d9"/></svg>