<svg xmlns="http://www.w3.org/2000/svg" viewBox="0 0 64 64" xmlns:v="https://vecta.io/nano"><path d="M59 58H5a4 4 0 0 1-4-4V11c0-1.1.9-2 2-2h18.87c.7 0 1.35.37 1.71.97l1.83 3.06c.36.6 1.01.97 1.71.97h29.87c1.1 0 2 .9 2 2v42z" fill="#e4c290"/><path d="M56 2v54H12V2c0-1.1.9-2 2-2h40c1.1 0 2 .9 2 2z" fill="#f3f3f3"/><path d="M15 34h4v2h-4zm12 0h4v2h-4zm8 0h8v2h-8z" fill="#5e9fdf"/><path d="M12 30h44v26H12z" fill="#d9d9d9"/><path d="M63 34v20a4 4 0 0 1-4 4H5a4 4 0 0 0 4-4V34c0-1.1.9-2 2-2h50c1.1 0 2 .9 2 2z" fill="#d38e2a"/><g fill="#1976d2"><circle cx="3" cy="6" r="1"/><circle cx="7" cy="6" r="1"/></g><path d="M14 0h40c1.1 0 2 .9 2 2v4H12V2c0-1.1.9-2 2-2z" fill="#5e9fdf"/><g fill="#1976d2"><circle cx="53" cy="3" r="1"/><circle cx="49" cy="3" r="1"/><circle cx="45" cy="3" r="1"/></g><path d="M15 9h25v2H15zm0 4h38v2H15zm0 4h38v2H15zm0 4h38v2H15zm14 4h24v2H29z" fill="#d9d9d9"/><path d="M50.48 58H17.52c-3.06-4.56-1.31-10.77 3.61-13.12.51-2.22 2.5-3.88 4.87-3.88 4.89-6.5 15.15-4.75 17.55 3.02 6.96.41 10.76 8.27 6.93 13.98z" fill="#e4c290"/><path d="M50 53c0 3.87-3.13 7-7 7H25c-3.87 0-7-3.13-7-7 0-3.18 2.12-5.86 5.02-6.71-.02-.1-.02-.19-.02-.29a3 3 0 0 1 3.98-2.83A7.97 7.97 0 0 1 34 39c4.11 0 7.5 3.1 7.95 7.09C45.94 45.39 50 48.56 50 53z" fill="#f3f3f3"/><g fill="#5e9fdf"><path d="M38 57c-.26 0-.51-.1-.71-.29L34 53.42l-3.29 3.29c-.39.39-1.02.39-1.41 0s-.39-1.02 0-1.41l4-4c.39-.39 1.02-.39 1.41 0l4 4a1.01 1.01 0 0 1-.71 1.71z"/><path d="M34 64c-.55 0-1-.45-1-1V53c0-.55.45-1 1-1s1 .45 1 1v10c0 .55-.45 1-1 1z"/></g></svg>