<svg xmlns="http://www.w3.org/2000/svg" viewBox="0 0 64 64" xmlns:v="https://vecta.io/nano"><path d="M60 58H4a4 4 0 0 1-4-4V11c0-1.1.9-2 2-2h20.87c.7 0 1.35.37 1.71.97l1.83 3.06c.36.6 1.01.97 1.71.97h29.87c1.1 0 2 .9 2 2v42z" fill="#e4c290"/><path d="M56 2v54H12V2c0-1.1.9-2 2-2h40c1.1 0 2 .9 2 2z" fill="#f3f3f3"/><path d="M22 10h2v18h-2z" fill="#d9d9d9"/><path d="M15 12h4v2h-4zm0 6h4v2h-4zm0 6h4v2h-4zm0 10h4v2h-4z" fill="#5e9fdf"/><path d="M27 24h8v2h-8z" fill="#d38e2a"/><path d="M39 24h10v2H39zm-12-6h4v2h-4zm8 0h14v2H35z" fill="#5e9fdf"/><path d="M27 12h8v2h-8z" fill="#d38e2a"/><path d="M39 12h10v2H39zM27 34h4v2h-4zm8 0h8v2h-8z" fill="#5e9fdf"/><path d="M12 30h44v26H12z" fill="#d9d9d9"/><path d="M64 34v20a4 4 0 0 1-4 4H4a4 4 0 0 0 4-4V34c0-1.1.9-2 2-2h52c1.1 0 2 .9 2 2z" fill="#d38e2a"/><circle cx="32" cy="51" r="13" fill="#1976d2"/><circle cx="32" cy="51" r="10" fill="#5e9fdf"/><path d="M28 55c-.26 0-.51-.1-.71-.29l-3-3c-.39-.39-.39-1.02 0-1.41l3-3c.39-.39 1.02-.39 1.41 0s.39 1.02 0 1.41L26.41 51l2.29 2.29a1.01 1.01 0 0 1-.71 1.71zm8 0c-.88 0-1.34-1.07-.71-1.71L37.58 51l-2.29-2.29c-.39-.39-.39-1.02 0-1.41s1.02-.39 1.41 0l3 3c.39.39.39 1.02 0 1.41l-3 3a.98.98 0 0 1-.71.29zm-5 2a1 1 0 0 1-.98-1.2l2-10a.99.99 0 0 1 1.18-.78c.54.11.89.63.78 1.18l-2 10c-.09.48-.51.8-.98.8z" fill="#fff"/><path d="M14 0h40c1.1 0 2 .9 2 2v4H12V2c0-1.1.9-2 2-2z" fill="#5e9fdf"/><g fill="#1976d2"><circle cx="53" cy="3" r="1"/><circle cx="49" cy="3" r="1"/><circle cx="45" cy="3" r="1"/></g></svg>