<svg xmlns="http://www.w3.org/2000/svg" viewBox="0 0 64 64" xmlns:v="https://vecta.io/nano"><path d="M0 24h58v40H0z" fill="#e4c290"/><path d="M20 0h38v42H20z" fill="#1976d2"/><path d="M28 24H0v-6h25l3 6z" fill="#e4c290"/><path d="M52 14v50H8V5h35l9 9z" fill="#f3f3f3"/><path d="M8 37v27H0v-8.58L4.42 37H8z" fill="#e4c290"/><path d="M8 37h44v27H8z" fill="#d9d9d9"/><path d="M64 39l-6 25H0l6-25h58z" fill="#d38e2a"/><path d="M52 14h-9V5l9 9z" fill="#5e9fdf"/><path d="M16.5 16h-1a1.5 1.5 0 1 1 0-3H19c1.32 0 1.32-2 0-2h-2v-1c0-1.32-2-1.32-2 0v1.05c-1.69.25-3 1.69-3 3.45 0 1.93 1.57 3.5 3.5 3.5h1a1.5 1.5 0 1 1 0 3H13c-1.32 0-1.32 2 0 2h2v1c0 1.32 2 1.32 2 0v-1.05c1.69-.25 3-1.69 3-3.45 0-1.93-1.57-3.5-3.5-3.5z" fill="#1976d2"/><path d="M25 16h20v2H25zm0 4h15v2H25z" fill="#d9d9d9"/><path d="M44 27H13c-.55 0-1 .45-1 1v8c0 .55.45 1 1 1h31c.55 0 1-.45 1-1v-8c0-.55-.45-1-1-1zm-1 4H20v-2h23v2zm-29-2h4v2h-4v-2zm0 4h4v2h-4v-2zm29 2H20v-2h23v2z" fill="#5e9fdf"/><path d="M20 62H8c-1.34 0-1.29-2 0-2h12c1.34 0 1.29 2 0 2zm2-4H10c-1.34 0-1.29-2 0-2h12c1.34 0 1.29 2 0 2z" fill="#e4c290"/></svg>