<svg xmlns="http://www.w3.org/2000/svg" viewBox="0 0 64 64" xmlns:v="https://vecta.io/nano"><path d="M52 8v48c0 3.64-2.43 6.71-5.75 7.68-1.52.45-.39.32-26.25.32a8 8 0 0 1-8-8V8a8 8 0 0 1 8-8h24a8 8 0 0 1 8 8z" fill="#5e9fdf"/><path d="M49 9v45c0 3.31-2.69 6-6 6H21c-3.31 0-6-2.69-6-6V9c0-3.31 2.69-6 6-6h3.29a.98.98 0 0 1 .94.68l.31.95A2.01 2.01 0 0 0 27.44 6h9.12a2.01 2.01 0 0 0 1.9-1.37l.31-.94a1 1 0 0 1 .95-.69H43c3.31 0 6 2.69 6 6z" fill="#fff"/><path d="M42 58H22c-.55 0-1-.45-1-1 0-.29.22-1 1-1h20c.55 0 1 .45 1 1 0 .29-.22 1-1 1z" fill="#d9d9d9"/><rect x="18" y="18" width="28" height="28" rx="4" fill="#5e9fdf"/><rect x="21" y="21" width="22" height="22" rx="1" fill="#fff"/><path d="M40 41H24c-.76 0-1.22-.81-.89-1.45l5-10c.34-.7 1.36-.75 1.76-.05l3.24 5.68 2.09-2.78c.42-.57 1.3-.53 1.67.1l4 7c.37.68-.1 1.5-.87 1.5z" fill="#1976d2"/><g fill="#d38e2a"><circle cx="37" cy="27" r="3"/><path d="M55 36c-.88 0-1.34-1.07-.71-1.71L56.58 32l-2.29-2.29c-.39-.39-.39-1.02 0-1.41s1.02-.39 1.41 0l3 3c.39.39.39 1.02 0 1.41l-3 3a.98.98 0 0 1-.71.29zM9 36c-.26 0-.51-.1-.71-.29l-3-3c-.39-.39-.39-1.02 0-1.41l3-3c.39-.39 1.02-.39 1.41 0s.39 1.02 0 1.41L7.41 32l2.29 2.29A1.01 1.01 0 0 1 8.99 36z"/></g><g fill="#d9d9d9"><circle cx="45" cy="8" r="1"/><circle cx="41" cy="8" r="1"/><path d="M18 13h8v2h-8zm0-4h14v2H18z"/><circle cx="19" cy="50" r="1"/><circle cx="23" cy="50" r="1"/><circle cx="27" cy="50" r="1"/></g></svg>