<svg xmlns="http://www.w3.org/2000/svg" viewBox="0 0 64 64" xmlns:v="https://vecta.io/nano"><g fill="#5e9fdf"><path d="M6 0h52c1.1 0 2 .9 2 2v4H4V2c0-1.1.9-2 2-2z"/><path d="M17 0h19a4 4 0 0 1 4 4v2H17V0h0z"/></g><path d="M60 6v42c0 1.1-.9 2-2 2H6c-1.1 0-2-.9-2-2V2c0-1.1.9-2 2-2h12a4 4 0 0 1 4 4v2h38z" fill="#f3f3f3"/><path d="M57 3c0-1.32-2-1.32-2 0s2 1.32 2 0zm-4 0c0-1.32-2-1.32-2 0s2 1.32 2 0z" fill="#1976d2"/><path d="M49,3c0-1.32-2-1.32-2,0s2,1.32,2,0Z" fill="#f3f3f3"/><path d="M6 8h24v18H6z" fill="#d9d9d9"/><g fill="#c8c8c8"><circle cx="11" cy="12" r="2"/><circle cx="11" cy="12" r="2"/><path d="M6 24l7-7 4 4 7-7 6 6v6H6v-2z"/></g><path d="M34 8h24v18H34z" fill="#d9d9d9"/><path d="M40.82 12.82C39.93 14.79 37 14.13 37 12c0-.81.49-1.51 1.18-1.82-.78 1.63 1 3.43 2.64 2.64zM34 24l7-7 4 4 7-7 6 6v6H34v-2z" fill="#c8c8c8"/><path d="M6 29h24v18H6z" fill="#d9d9d9"/><path d="M12.82 33.82C11.93 35.79 9 35.13 9 33c0-.81.49-1.51 1.18-1.82-.78 1.63 1 3.43 2.64 2.64zM30 41v6H6v-2l7-7 4 4 7-7 6 6z" fill="#c8c8c8"/><path d="M34 29h24v18H34z" fill="#d9d9d9"/><g fill="#c8c8c8"><circle cx="39" cy="33" r="2"/><path d="M34 45l7-7 4 4 7-7 6 6v6H34v-2z"/></g><path d="M44,45v5H14v-3H30v-5h11c1.66,0,3,1.34,3,3Z" fill="#d9d9d9"/><path d="M30,42v5H14v-2c0-1.66,1.34-3,3-3h13Z" fill="#afaeae"/><rect x="16" y="42" width="30" height="22" rx="3" fill="#1976d2"/><path d="M19 44h24c.55 0 1 .45 1 1v17H18V45c0-.55.45-1 1-1z" fill="#5e9fdf"/><g fill="#1976d2"><path d="M18 61l8.29-8.29c.39-.39 1.02-.39 1.41 0l3.59 3.59c.39.39 1.02.39 1.41 0l4.59-4.59c.39-.39 1.02-.39 1.41 0L43.99 57v5H18v-1z"/><circle cx="22" cy="48" r="2"/></g></svg>