<svg xmlns="http://www.w3.org/2000/svg" viewBox="0 0 64 64" xmlns:v="https://vecta.io/nano"><path d="M50 28v-6c0-1.1-.9-2-2-2h-2.17c-.85 0-1.61-.54-1.88-1.34a20.09 20.09 0 0 0-1.06-2.57 1.98 1.98 0 0 1 .38-2.28l1.53-1.53c.78-.78.78-2.05 0-2.83l-4.24-4.24c-.78-.78-2.05-.78-2.83 0L36.2 6.74a1.98 1.98 0 0 1-2.28.38 19.84 19.84 0 0 0-2.57-1.06 1.97 1.97 0 0 1-1.34-1.88V2C30 .9 29.1 0 28 0h-6c-1.1 0-2 .9-2 2v2.17c0 .85-.54 1.61-1.34 1.88a20.09 20.09 0 0 0-2.57 1.06 1.98 1.98 0 0 1-2.28-.38L12.28 5.2c-.78-.78-2.05-.78-2.83 0L5.21 9.44c-.78.78-.78 2.05 0 2.83l1.53 1.53a1.98 1.98 0 0 1 .38 2.28 19.84 19.84 0 0 0-1.06 2.57 1.97 1.97 0 0 1-1.88 1.34H2C.9 20 0 20.9 0 22v6c0 1.1.9 2 2 2h2.17c.85 0 1.61.54 1.88 1.34a20.09 20.09 0 0 0 1.06 2.57 1.98 1.98 0 0 1-.38 2.28L5.2 37.72c-.78.78-.78 2.05 0 2.83l4.24 4.24c.78.78 2.05.78 2.83 0l1.53-1.53a1.98 1.98 0 0 1 2.28-.38 19.84 19.84 0 0 0 2.57 1.06 1.97 1.97 0 0 1 1.34 1.88v2.17c0 1.1.9 2 2 2h6c1.1 0 2-.9 2-2v-2.17c0-.85.54-1.61 1.34-1.88a20.09 20.09 0 0 0 2.57-1.06 1.98 1.98 0 0 1 2.28.38l1.53 1.53c.78.78 2.05.78 2.83 0l4.24-4.24c.78-.78.78-2.05 0-2.83l-1.53-1.53a1.98 1.98 0 0 1-.38-2.28 19.84 19.84 0 0 0 1.06-2.57A1.97 1.97 0 0 1 45.81 30h2.17c1.1 0 2-.9 2-2z" fill="#d38e2a"/><path d="M64 53.73v-1.45a1.27 1.27 0 0 0-1.27-1.27c-.19 0-.94-.08-1.19-.83-.14-.41-.3-.81-.49-1.19-.43-.87.35-1.54.25-1.44.5-.5.5-1.3 0-1.8l-1.03-1.03c-.5-.5-1.3-.5-1.8 0-.14.14-.73.61-1.44.25-.38-.19-.78-.36-1.19-.49-.92-.3-.83-1.34-.83-1.19a1.27 1.27 0 0 0-1.27-1.27h-1.45a1.27 1.27 0 0 0-1.27 1.27c0 .19-.08.94-.83 1.19-.41.14-.81.3-1.19.49-.87.43-1.54-.35-1.44-.25-.5-.5-1.3-.5-1.8 0l-1.03 1.03c-.5.5-.5 1.3 0 1.8.14.14.61.73.25 1.44-.19.38-.36.78-.49 1.19-.3.92-1.34.83-1.19.83a1.27 1.27 0 0 0-1.27 1.27v1.45A1.27 1.27 0 0 0 43.3 55c.19 0 .94.08 1.19.83.14.41.3.81.49 1.19.43.87-.35 1.54-.25 1.44-.5.5-.5 1.3 0 1.8l1.03 1.03c.5.5 1.3.5 1.8 0 .14-.14.73-.61 1.44-.25.38.19.78.36 1.19.49.92.3.83 1.34.83 1.19a1.27 1.27 0 0 0 1.27 1.27h1.45a1.27 1.27 0 0 0 1.27-1.27c0-.19.08-.94.83-1.19.41-.14.81-.3 1.19-.49.87-.43 1.54.35 1.44.25.5.5 1.3.5 1.8 0l1.03-1.03c.5-.5.5-1.3 0-1.8-.14-.14-.61-.73-.25-1.44.19-.38.36-.78.49-1.19.3-.92 1.34-.83 1.19-.83A1.27 1.27 0 0 0 64 53.73z" fill="#1976d2"/><circle cx="53" cy="53" r="5" fill="#fff"/><path d="M52 35a1 1 0 0 1-.89-1.45l1-2a1.01 1.01 0 0 1 1.34-.45 1.01 1.01 0 0 1 .45 1.34l-1 2c-.18.35-.53.55-.9.55zm4 4h-2c-.55 0-1-.45-1-1s.45-1 1-1h2c.55 0 1 .45 1 1s-.45 1-1 1zM32 54c-1.05 0-1.39-1.43-.45-1.89l2-1c.49-.25 1.09-.05 1.34.45a.99.99 0 0 1-.45 1.34c-2.2 1.1-2.13 1.11-2.45 1.11zm6 3c-.55 0-1-.45-1-1v-2c0-.55.45-1 1-1s1 .45 1 1v2c0 .55-.45 1-1 1z" fill="#d9d9d9"/><circle cx="25" cy="25" r="13" fill="#fff"/><path d="M20 30c-.26 0-.51-.1-.71-.29l-4-4c-.39-.39-.39-1.02 0-1.41l4-4c.39-.39 1.02-.39 1.41 0s.39 1.02 0 1.41L17.41 25l3.29 3.29a1.01 1.01 0 0 1-.71 1.71zm10 0c-.88 0-1.34-1.07-.71-1.71L32.58 25l-3.29-3.29c-.39-.39-.39-1.02 0-1.41s1.02-.39 1.41 0l4 4c.39.39.39 1.02 0 1.41l-4 4a.98.98 0 0 1-.71.29zm-6 2c-.62 0-1.09-.56-.99-1.16l2-12c.09-.54.61-.91 1.15-.82s.91.61.82 1.15l-2 12c-.08.49-.51.84-.99.84z" fill="#d38e2a"/></svg>