<svg xmlns="http://www.w3.org/2000/svg" viewBox="0 0 64 64" xmlns:v="https://vecta.io/nano"><path d="M57.61 41.76l4.84-2.8-4-6.92-4.84 2.79c-1.57-1.48-3.48-2.61-5.61-3.24V26h-8v5.59c-2.13.63-4.04 1.76-5.61 3.24l-4.84-2.79-4 6.92 4.84 2.8a13.65 13.65 0 0 0 0 6.48l-4.84 2.8 4 6.92 4.84-2.79c1.57 1.48 3.48 2.61 5.61 3.24V64h8v-5.59c2.13-.63 4.04-1.76 5.61-3.24l4.84 2.79 4-6.92-4.84-2.8a13.65 13.65 0 0 0 0-6.48zM44 53a8 8 0 1 1 0-16 8 8 0 1 1 0 16zM30.79 14.81l4.93-2.85-4-6.92-4.93 2.84C25.68 6.94 24.4 6.19 23 5.7V0h-8v5.7c-1.4.49-2.68 1.24-3.79 2.18L6.28 5.04l-4 6.92 4.93 2.85c-.28 1.5-.28 2.83 0 4.38l-4.93 2.85 4 6.92 4.93-2.84c1.11.94 2.39 1.69 3.79 2.18V34h8v-5.7c1.4-.49 2.68-1.24 3.79-2.18l4.93 2.84 4-6.92-4.93-2.85c.28-1.5.28-2.83 0-4.38zM19 23c-3.31 0-6-2.69-6-6s2.69-6 6-6 6 2.69 6 6-2.69 6-6 6z" fill="#1976d2"/><path d="M58.6 9.34l2.79-1.61-2-3.46-2.8 1.62A8.97 8.97 0 0 0 52 3.23V0h-4v3.23a8.97 8.97 0 0 0-4.59 2.66l-2.8-1.62-2 3.46 2.79 1.61a9.1 9.1 0 0 0 0 5.32l-2.79 1.61 2 3.46 2.8-1.62A8.97 8.97 0 0 0 48 20.77V24h4v-3.23a8.97 8.97 0 0 0 4.59-2.66l2.8 1.62 2-3.46-2.79-1.61a9.1 9.1 0 0 0 0-5.32zM50 16a4 4 0 1 1 0-8 4 4 0 1 1 0 8z" fill="#d38e2a"/></svg>