<svg xmlns="http://www.w3.org/2000/svg" xmlns:xlink="http://www.w3.org/1999/xlink" viewBox="0 0 64 64" xmlns:v="https://vecta.io/nano"><style><![CDATA[.E{fill:#1976d2}.F{fill:#5e9fdf}.G{fill:#d38e2a}]]></style><g class="F"><path d="M6 0h52c1.1 0 2 .9 2 2v4H4V2c0-1.1.9-2 2-2z"/><path d="M17 0h19a4 4 0 0 1 4 4v2H17V0h0z"/></g><path d="M60 6v43c0 1.1-.9 2-2 2H6c-1.1 0-2-.9-2-2V2c0-1.1.9-2 2-2h12a4 4 0 0 1 4 4v2h38z" fill="#f3f3f3"/><path d="M57 3c0-1.32-2-1.32-2 0s2 1.32 2 0zm-4 0c0-1.32-2-1.32-2 0s2 1.32 2 0z" class="E"/><path d="M49,3c0-1.32-2-1.32-2,0s2,1.32,2,0Z" fill="#f3f3f3"/><path d="M37,3c0-1.32-2-1.32-2,0s2,1.32,2,0Z" class="E"/><path d="M19,3c0-1.32-2-1.32-2,0s2,1.32,2,0Z" class="G"/><g class="E"><path d="M52 6h8v10h-8z"/><use xlink:href="#B"/></g><path d="M44 6h8v10h-8z" class="F"/><g class="E"><use xlink:href="#B" x="-8"/><path d="M36 6h8v10h-8z"/><use xlink:href="#B" x="-16"/></g><path d="M28 6h8v10h-8z" class="F"/><g class="E"><use xlink:href="#B" x="-24"/><path d="M20 6h8v10h-8z"/><use xlink:href="#B" x="-32"/></g><path d="M12 6h8v10h-8z" class="F"/><g class="E"><use xlink:href="#B" x="-40"/><path d="M4 6h8v10H4z"/><use xlink:href="#B" x="-48"/></g><path d="M0 44h28v20H0z" class="F"/><g class="E"><path d="M0 40h28v5H0z"/><path d="M11 40h6v24h-6z"/></g><g class="G"><path d="M38 54h-4v-2c0-1.1.9-2 2-2 .81 0 2 .63 2 2v2z"/><path d="M44.83 49.17C42.29 46.67 38 48.44 38 52v4h4c3.56 0 5.33-4.29 2.83-6.83zM42 54h-2v-2c0-1.78 2.19-2.67 3.41-1.41C44.67 51.81 43.78 54 42 54zm-16-2a4 4 0 0 0 4 4h4v-4a4 4 0 1 0-8 0zm2 0c0-1.09.89-2 2-2a2 2 0 0 1 2 2v2h-2c-1.1 0-2-.9-2-2z"/></g><g class="E"><path d="M16 40h-4v-4c0-1.1.9-2 2-2 .81 0 2 .63 2 2v4z"/><path d="M24.54 33.46C21.39 30.35 16 32.53 16 37v5h5c4.47 0 6.65-5.39 3.54-8.54zM21 40h-3v-3c0-2.67 3.24-4 5.12-2.12S23.67 40 21 40zM2 37c0 2.76 2.24 5 5 5h5v-5c0-2.76-2.24-5-5-5s-5 2.23-5 5zm2 0a3.01 3.01 0 0 1 3-3c1.65 0 3 1.34 3 3v3H7c-1.66 0-3-1.34-3-3zm19 17h26v10H23z"/></g><path d="M32 54h8v10h-8zm14.48-23c1.56 1.56 1.56 4.09 0 5.66l-5.66 5.66-5.66-5.66c-1.56-1.56-1.56-4.09 0-5.66s4.09-1.56 5.66 0c1.56-1.56 4.09-1.56 5.66 0z" class="G"/><defs ><path id="B" d="M56 21a4 4 0 0 1-4-4v-1h8v1a4 4 0 0 1-4 4z"/></defs></svg>