<svg xmlns="http://www.w3.org/2000/svg" viewBox="0 0 64 64" xmlns:v="https://vecta.io/nano"><path d="M56 40c0 13.51-11.32 23.98-23.13 23.98-10.89.38-19.63-6.35-23.11-14.98-6.52-15.13 5.12-33.6 23.11-32.98C44.59 16.02 56 26.38 56 40z" fill="#5e9fdf"/><path d="M44.16 33h10.8l-.72-2H43.61c-1.87-5.91-5.54-11.19-10.59-14.98-.6 0-.6-.04-1.89 0-.48 0-7.7 5.36-10.74 14.98H9.76c-.28.65-.51 1.32-.72 2h10.8c-1.1 4.53-1.14 9.29 0 14H9.04c.21.68.44 1.35.72 2h10.63c1.87 5.91 5.54 11.19 10.59 14.98.6 0 .6.04 1.89 0 .48 0 7.7-5.36 10.74-14.98h10.63c.28-.65.51-1.32.72-2h-10.8c1.1-4.53 1.14-9.29 0-14zM32 17.76c4.45 3.4 7.73 8.04 9.5 13.24h-19c1.77-5.2 5.05-9.84 9.5-13.24zm0 44.48c-4.45-3.4-7.73-8.04-9.5-13.24h19c-1.77 5.2-5.05 9.84-9.5 13.24zM21.9 47a27.67 27.67 0 0 1 0-14h20.21a27.89 27.89 0 0 1 0 14H21.9z" fill="#f3f3f3"/><g fill="#5e9fdf"><path d="M43 10.8v7.61c0 .37-.2.7-.52.88l-9.56 5.22c-.57.31-1.27.33-1.85.03l-10.51-5.26a1 1 0 0 1-.55-.89v-7.58l12 5.2 11-5.2z"/><path d="M52 8l-20 8-20-8 20-8 20 8z"/></g><path d="M41 24V12.68l-9.37-3.75c-1.23-.49-.49-2.35.74-1.86l10 4A1 1 0 0 1 43 12v12c0 1.32-2 1.32-2 0z" fill="#1976d2"/><g fill="#d38e2a"><circle cx="54" cy="32" r="3"/><circle cx="43" cy="48" r="3"/><circle cx="10" cy="48" r="3"/></g></svg>