<svg xmlns="http://www.w3.org/2000/svg" xmlns:xlink="http://www.w3.org/1999/xlink" viewBox="0 0 64 64" xmlns:v="https://vecta.io/nano"><g fill="#5e9fdf"><path d="M58 32c0 20.12-20.7 33.33-38.29 26.04-5.38-1.98-1.68-2.91-10.71.96.87-7.03 1.13-7.24.29-8.16C-6.54 33.44 5 5.83 27.8 4.08c10.26-.78 20.48 3.98 26.4 13.84 0 .01 1.37 2.44 1.37 2.68.14.14 2.43 5.29 2.43 11.4z"/><path d="M55.93 42.58c-1.07 2.49-1.54 3.12-1.69 3.42H48a4 4 0 0 1-4-4c0-2.21-1.8-4-4-4s-4-1.8-4-4v-4a4 4 0 0 1 4-4h.72c1.91 0 3.55-1.35 3.92-3.22.77-3.81 4.09-6.78 8.33-6.78 5.66 7.93 6.38 18.32 2.96 26.58zM25.07 14.25c-2.17 2.53-2.57 6.48.17 9.7C29.33 28.68 25.88 36 19.7 36a1.7 1.7 0 0 0-1.7 1.7v4.13c0 4.58-6.39 5.78-8.05 1.55C9.33 41.85 7.89 41 6.44 41H3.49C-2.34 23.96 9.39 6.04 27 4.16c0 5.39.46 7.28-1.93 10.09zM41 57.2v.55c-7.1 3.09-15.47 2.9-21.85.07.1-.1-.18.22 3.3-3.96 2.74-3.27 1.83-5.08 4.29-6.84 3.06-2.21 7.36-.67 8.38 2.91.56 1.94 1.97 3.51 3.84 4.25 1.23.5 2.04 1.69 2.04 3.02z"/></g><path d="M56.9 17.43C36.3 60.83 37.91 58 37 58a1 1 0 0 1-.9-1.43l18.45-38.86L8.79 7.98c-1.29-.29-.88-2.23.42-1.96L56.9 16.56a1.02 1.02 0 0 1 0 .87z" fill="#f3f3f3"/><path d="M17.53 9.84a9 9 0 0 1-10.36 5.98c0-.12 2.62-3.84 6.76-6.75.1 0-.11-.03 3.6.77zm.42-1.96l-1.57-.34 1.61-.83c.02.16.02.74-.04 1.17z" fill="#1976d2"/><path d="M17.95 7.88c-.06.68-.2 1.34-.42 1.96L8.79 7.98c-1.29-.29-.88-2.23.42-1.96l8.74 1.86z" fill="#f3f3f3"/><path d="M9,14c-3.87,0-7-3.13-7-7S5.13,0,9,0s7,3.13,7,7-3.13,7-7,7Z" fill="#d38e2a"/><use xlink:href="#B" fill="#f3f3f3"/><path d="M49.63 16.67a8.24 8.24 0 0 0-3.35 2.57c-.3-1.2-.34-2.4-.21-3.33l3.56.76zm2.77-1.46l-5.87-1.25c.41-1.14 1.05-2.18 1.86-3.06 1.49 1.29 2.83 2.73 4.01 4.31z" fill="#5e9fdf"/><path d="M52.97 16a8.5 8.5 0 0 0-3.33.67c-.1 0 .14.03-3.57-.76.08-.68.24-1.33.46-1.95l5.87 1.25.57.79z" fill="#f3f3f3"/><path d="M57.28 25.71c-1.46.38-3 .38-4.34.05l2.64-5.15c.49 1.18.93 2.04 1.7 5.1zm-6.23-.63c-2.34-1.14-4.11-3.27-4.77-5.84.91-1.17 2.07-2.04 3.36-2.57 5.67 1.2 4.04.75 4.58 1.29.16.32.53-.66-3.17 7.12z" fill="#1976d2"/><path d="M55.49 20.4l-2.55 5.36a8.36 8.36 0 0 1-1.89-.68l3.29-6.92 1.15 2.24z" fill="#f3f3f3"/><circle cx="55" cy="17" r="7" fill="#d38e2a"/><path d="M41 57.74v-.54c0-1.18-.64-2.25-1.65-2.82l2.38-5.02a9.01 9.01 0 0 1 4.07 5.73c-1.51 1.04-3.12 1.93-4.8 2.65zm-1.07-9.24l-2.34 4.93c-2.41-1.72-2.19-3.55-3.19-5.04a8.81 8.81 0 0 1 5.53.11z" fill="#5e9fdf"/><path d="M41.73 49.36l-2.38 5.02c-.37-.24-.84-.29-1.76-.95l2.34-4.93c.64.21 1.24.5 1.8.86z" fill="#f3f3f3"/><path d="M41 57.2v.55c-3.05 1.33-6.93 2.1-8.11 2.1-1.83.24-4.28.11-4.38.11-1.71-4.81 1-10.1 5.89-11.57.31.46.56.98.72 1.54.56 1.94 1.97 3.51 3.84 4.25 1.23.5 2.04 1.69 2.04 3.02z" fill="#1976d2"/><use xlink:href="#B" x="46" y="10" fill="#f3f3f3"/><circle cx="37" cy="57" r="7" fill="#d38e2a"/><use xlink:href="#B" x="28" y="50" fill="#f3f3f3"/><defs ><path id="B" d="M10 11.17c-1.64 0-2.31-1.07-4.29-3.05a3 3 0 0 1 0-4.24l.59-.59c.94-.94 2.35.48 1.41 1.41-.51.51-.88.76-.88 1.29s.12.54 2.46 2.88c.38.38 1.04.38 1.41 0l.59-.59c.94-.94 2.35.48 1.41 1.41l-.59.59a3 3 0 0 1-2.12.88z"/></defs></svg>