<svg xmlns="http://www.w3.org/2000/svg" xmlns:xlink="http://www.w3.org/1999/xlink" viewBox="0 0 64 64" xmlns:v="https://vecta.io/nano"><path d="M36 43.95V57c0 1.1-.9 2-2 2H2c-1.1 0-2-.9-2-2V43.95c0-1.76 1.15-3.31 2.82-3.82L13 37h10l10.18 3.13A4 4 0 0 1 36 43.95z" fill="#5e9fdf"/><g fill="#1976d2"><path d="M24 54h7v2h-7zm-7-11h2v16h-2zM5 20h3v6H5z"/><path d="M26 21H7a4 4 0 0 1-4-4v-7h21c1.66 0 3 1.34 3 3a4 4 0 0 1 4 4v7h-3v-1c0-1.1-.9-2-2-2z"/></g><path d="M30 31h-3v-8h3c1.1 0 2 .9 2 2v4c0 1.1-.9 2-2 2zM6 23h3v9H6c-1.1 0-2-.9-2-2v-5c0-1.1.9-2 2-2z" fill="#5e9fdf"/><path d="M18,43c-2.76,0-5-2.23-5-5v-3h10v3c0,2.76-2.24,5-5,5Z" fill="#d38e2a"/><g fill="#5e9fdf"><path d="M10.17 37.87L12 47l6-4-5-6-2.83.87z"/><path d="M25.83 37.87L24 47l-6-4 5-6 2.83.87z"/></g><path d="M18,39c-5.52,0-10-4.48-10-10v-8H26c1.1,0,2,.9,2,2v6c0,5.52-4.48,10-10,10Z" fill="#e4c290"/><path d="M28,36h-5c-.55,0-1-.45-1-1s.45-1,1-1h5c.55,0,1-.45,1-1v-3c0-.55,.45-1,1-1s1,.45,1,1v3c0,1.65-1.35,3-3,3Z" fill="#f3f3f3"/><path d="M15.55 35.89a1.01 1.01 0 0 1-.45-1.34 1.01 1.01 0 0 1 1.34-.45c.97.49 2.13.49 3.11 0 .49-.25 1.09-.05 1.34.45.25.49.05 1.09-.45 1.34-1.53.77-3.36.77-4.89 0z" fill="#d38e2a"/><path d="M63.86 18.2l-.74 11c-.1 1.57-1.42 2.8-2.99 2.8-7.57 0-8.67.18-10.87-.53-3.5-.56-2.31-.47-5.26-.47-.55 0-1-.45-1-1V17c0-.55.45-1 1-1 1.42 0 2.7-.84 3.26-2.15l1.3-3.03A3 3 0 0 1 51.32 9c1.99 0 3.55 1.79 3.23 3.81L54.18 15h6.68c1.69 0 3.11 1.43 3 3.2z" fill="#e4c290"/><rect x="37" y="15" width="8" height="17" rx="1" fill="#1976d2"/><path d="M28 52h2v2h-2z" fill="#5e9fdf"/><path d="M53 51.09a4.94 4.94 0 0 1-.51 2.17 11.81 11.81 0 0 1-5.23 5.23c-1.4.69-1.14.68-2.52 0a11.81 11.81 0 0 1-5.23-5.23 4.94 4.94 0 0 1-.51-2.17c0-3.69 4.48-5.44 7-2.88 2.52-2.56 7-.81 7 2.88zM49 40c0 .94-.45 1.84-1.2 2.4l-3.2 2.4c-.36.26-.82.27-1.2 0l-3.2-2.4c-2.22-1.66-1.24-5.4 1.97-5.4.67 0 1.31.22 1.83.62 1.87-1.44 5-.27 5 2.38z" fill="#e4c290"/><g fill="#d38e2a"><use xlink:href="#B"/><use xlink:href="#B" x="8"/></g><circle cx="42" cy="29" r="1" fill="#fff"/><defs ><path id="B" d="M16 29c-.26 0-.51-.1-.71-.29-.71-.71-1.87-.71-2.59 0-.39.39-1.02.39-1.41 0s-.39-1.02 0-1.41c1.49-1.49 3.92-1.49 5.41 0a1.01 1.01 0 0 1-.71 1.71z"/></defs></svg>