<svg xmlns="http://www.w3.org/2000/svg" viewBox="0 0 64 64" xmlns:v="https://vecta.io/nano"><path d="M62 8v48c0 3.64-2.43 6.71-5.75 7.68-1.52.45-.39.32-26.25.32a8 8 0 0 1-8-8V8a8 8 0 0 1 8-8h24a8 8 0 0 1 8 8z" fill="#5e9fdf"/><path d="M59 9v45c0 3.31-2.69 6-6 6H31c-3.31 0-6-2.69-6-6V9c0-3.31 2.69-6 6-6h3.29a.98.98 0 0 1 .94.68l.31.95A2.01 2.01 0 0 0 37.44 6h9.12a2.01 2.01 0 0 0 1.9-1.37l.31-.94a1 1 0 0 1 .95-.69H53c3.31 0 6 2.69 6 6z" fill="#fff"/><path d="M25.17 55.41L41 47.5V60H31c-2.82 0-5.2-1.96-5.83-4.59zM59 9v13.5l-34 17V9c0-3.34 2.72-6 6-6h3.29a.98.98 0 0 1 .94.68l.31.95A2.01 2.01 0 0 0 37.44 6h9.12a2.01 2.01 0 0 0 1.9-1.37l.31-.94a1 1 0 0 1 .95-.69H53c3.31 0 6 2.69 6 6zm-6 32.5l6-3V54c0 3.31-2.69 6-6 6V41.5z" fill="#5e9fdf"/><path d="M48.75 36.59L44.79 42c-.6.81-1.91.34-1.8-.7l.33-2.92-2.57-1.42c-.89-.49-.57-1.86.47-1.88l6.71-.08c.83-.04 1.29.94.82 1.59z" fill="#d38e2a"/><path d="M27.81 3.92C26.12 4.98 25 6.86 25 9v26.57c-.96.41-1.96.73-3 .97V8a7.97 7.97 0 0 1 2.48-5.79 18.36 18.36 0 0 1 3.33 1.71z" fill="#1976d2"/><path d="M25 35.57V9c0-2.14 1.12-4.02 2.81-5.08C39.92 11.81 38.25 29.97 25 35.57z" fill="#5e9fdf"/><circle cx="18" cy="19" r="16" fill="#f3f3f3"/><ellipse cx="18" cy="29" rx="7" ry="2" fill="#e4c290"/><path d="M27 16c0-5.06-4.17-9.14-9.26-9S8.83 11.41 9 16.32a9.02 9.02 0 0 0 3.31 6.65c1.71 1.39 3.19 3.05 4.18 5.02.73 1.46 2.41 1.2 2.95.11.95-1.91 2.19-3.6 3.93-4.9 2.2-1.64 3.62-4.26 3.62-7.21z" fill="#d38e2a"/><circle cx="18" cy="16" r="4" fill="#e4c290"/><g fill="#5e9fdf"><circle cx="55" cy="8" r="1"/><circle cx="51" cy="8" r="1"/></g><path d="M46 12h8c1.1 0 2 .9 2 2v1H44v-1c0-1.1.9-2 2-2z" fill="#f3f3f3"/><path d="M44,15h12v1c0,1.1-.9,2-2,2h-8c-1.1,0-2-.9-2-2v-1h0Z" fill="#fff"/></svg>