<svg xmlns="http://www.w3.org/2000/svg" viewBox="0 0 64 64" xmlns:v="https://vecta.io/nano"><path d="M30 4L10 24h40L30 4z" fill="#f3f3f3"/><path d="M50.71 23.29l-20-20a1.01 1.01 0 0 0-1.42 0l-20 20c-.62.65-.17 1.71.71 1.71h40c.88 0 1.33-1.06.71-1.71zM12.41 23L30 5.41 47.59 23H12.41z" fill="#d9d9d9"/><path d="M10 24h40v36H10z" fill="#f3f3f3"/><g fill="#d9d9d9"><path d="M50 23H10c-.55 0-1 .45-1 1v36c0 .55.45 1 1 1h40c.55 0 1-.45 1-1V24c0-.55-.45-1-1-1zm-1 36H11V25h38v34z"/><path d="M22 60V24c0-1.32 2-1.32 2 0v36c0 1.32-2 1.32-2 0zm14 0V24c0-1.32 2-1.32 2 0v36c0 1.32-2 1.32-2 0z"/><path d="M23 36H10c-1.32 0-1.32-2 0-2h13c1.32 0 1.32 2 0 2zm27 11H37c-1.32 0-1.32-2 0-2h13c1.32 0 1.32 2 0 2z"/><path d="M49 27.13V45h-5V31c0-2.67 2.58-4.55 5-3.87zM49 47v12h-9.76c-.8-3.28.4-6.91 3.27-9.12.9-.69 1.42-1.75 1.48-2.88H49z"/></g><path d="M51 28.36V60c0 .55-.45 1-1 1H39.97a7.75 7.75 0 0 1-.73-2H49V47h-5.01c.02-.13.01-.14.01-2h5V27.13a4.04 4.04 0 0 1 2 1.23z" fill="#c8c8c8"/><path d="M54 44.77V29a4 4 0 1 0-8 0v15.77c0 1.21-.53 2.37-1.49 3.11-6.75 5.2-3.05 15.87 5.21 16.12 8.71.26 12.61-10.74 5.84-16.06-.97-.77-1.56-1.92-1.56-3.16z" fill="#5e9fdf"/><path d="M52 48.29V29c0-1.1-.9-2-2-2-.81 0-2 .63-2 2v19.29c-3.29.98-5.57 4.31-4.87 8.05a6.99 6.99 0 0 0 5.47 5.52c4.48.87 8.41-2.54 8.41-6.86 0-3.17-2.11-5.85-5-6.71z" fill="#f3f3f3"/><path d="M48.59 61.86c-5.81-1.12-7.63-8.75-2.84-12.42 1.48-1.13 2.25-2.96 2.25-4.82V38h4v6.6c0 1.87.77 3.71 2.26 4.84 5.8 4.45 1.7 13.86-5.67 12.42z" fill="#d38e2a"/><path d="M15.43,19.98l9.55-9.55c.29,5.48-4.08,9.84-9.55,9.55Z" fill="#d9d9d9"/><path d="M24.98 10.43l-9.55 9.55c-.87-.04-1.61-.22-2.36-.47L24.51 8.07c.25.75.43 1.49.47 2.36z" fill="#c8c8c8"/><circle cx="14" cy="9" r="9" fill="#d38e2a"/><path d="M16.13 10.88c-1.15-1.14-3.1-1.14-4.26 0-.95.93-2.35-.5-1.4-1.42a5 5 0 0 1 7.06 0c.94.93-.47 2.34-1.4 1.42zm3.53-2.54c-.63 0-.66-.38-1.57-1.02-2.73-1.96-6.63-1.69-9.04.73-.94.94-2.35-.48-1.41-1.42 3.54-3.53 9.23-3.49 12.73 0 .63.63.18 1.71-.71 1.71zM15 13c0-1.32-2-1.32-2 0s2 1.32 2 0z" fill="#fdfdfd"/></svg>