<svg xmlns="http://www.w3.org/2000/svg" viewBox="0 0 64 64" xmlns:v="https://vecta.io/nano"><path d="M64 54H0L32 0l32 54z" fill="#5e9fdf"/><path d="M43.85 20h-23.7L32 0l11.85 20z" fill="#1976d2"/><g fill="#5e9fdf"><path d="M64 54H0l10.67-18h42.66L64 54z"/><path d="M44.96 54H19.05C18.23 47.2 24 40 32 40s13.62 6.71 12.96 14z"/></g><circle cx="32" cy="53" r="11" fill="#d38e2a"/><path d="M32.5 52h-1a1.5 1.5 0 1 1 0-3H35c1.32 0 1.32-2 0-2h-2v-1c0-1.32-2-1.32-2 0v1.05c-1.69.25-3 1.69-3 3.45 0 1.93 1.57 3.5 3.5 3.5h1a1.5 1.5 0 1 1 0 3H29c-1.32 0-1.32 2 0 2h2v1c0 1.32 2 1.32 2 0v-1.05c1.69-.25 3-1.69 3-3.45 0-1.93-1.57-3.5-3.5-3.5z" fill="#fdfdfd"/><path d="M57 3l-4 6h2v8h4V9h2l-4-6zM7 15l-4 6h2v8h4v-8h2l-4-6z" fill="#d38e2a"/></svg>