<svg xmlns="http://www.w3.org/2000/svg" viewBox="0 0 64 64" xmlns:v="https://vecta.io/nano"><rect x="4" y="24" width="56" height="34" rx="3" fill="#5e9fdf"/><path d="M58 30v22a4 4 0 0 0-4 4H10a4 4 0 0 0-4-4V30a4 4 0 0 0 4-4h44c0 2.13 1.72 4 4 4z" fill="#1976d2"/><circle cx="32" cy="41" r="11" fill="#5e9fdf"/><g fill="#1976d2"><path d="M22 56c0 .73-.21 1.41-.56 2H7c-1.66 0-3-1.34-3-3V44h2v8a4 4 0 0 1 4 4h12z"/><path d="M21.44 52c.71 1.19.56 2.07.56 4H10a4 4 0 0 0-4-4v-8h12a4 4 0 0 1 4 4c0 1.95.14 2.83-.56 4z"/></g><g fill="#e4c290"><rect y="58" width="20" height="6" rx="2"/><rect y="52" width="20" height="6" rx="2"/></g><g fill="#d38e2a"><rect y="46" width="20" height="6" rx="2"/><path d="M60.92.62C60.76.24 60.39 0 60 0h-3c-1.32 0-1.32 2 0 2h.59L45.3 14.29c-.94.94.48 2.35 1.41 1.41L59 3.41V4c0 1.32 2 1.32 2 0L60.92.62z"/></g><g fill="#1976d2"><path d="M60 27v1h-5.46a3.99 3.99 0 0 1-.54-2H40.18a2.87 2.87 0 0 1 0-2H57c1.66 0 3 1.34 3 3z"/><path d="M54.54 28H43a3 3 0 0 1-2.82-2H54a3.99 3.99 0 0 0 .54 2z"/></g><path d="M62 24V9c0-.55-.45-1-1-1h-2c-.55 0-1 .45-1 1v15h-3v-8c0-.55-.45-1-1-1h-2c-.55 0-1 .45-1 1v8h-3v-4c0-.55-.45-1-1-1h-2c-.55 0-1 .45-1 1v4h-1c-1.32 0-1.32 2 0 2h20c1.32 0 1.32-2 0-2h-1z" fill="#d38e2a"/><path d="M28 1h16v2H28zm0 4h8v2h-8zm10 0h6v2h-6zM24 61c0-1.32-2-1.32-2 0s2 1.32 2 0zm4 0c0-1.32-2-1.32-2 0s2 1.32 2 0z" fill="#f3f3f3"/><g fill="#5e9fdf"><ellipse cx="14" cy="41" rx="4" ry="3"/><ellipse cx="50" cy="41" rx="4" ry="3"/></g><path d="M35 45h-5v-2h3c1.32 0 1.32-2 0-2h-3v-2c0-1.1.9-2 2-2s2 .9 2 2c0 .55.45 1 1 1 2.1 0 .81-5-3-5a4 4 0 0 0-4 4v2h-1c-1.32 0-1.32 2 0 2h1v3c0 .55.45 1 1 1h6c1.32 0 1.32-2 0-2z" fill="#fdfdfd"/></svg>