<?xml version="1.0" encoding="UTF-8"?><svg id="a" xmlns="http://www.w3.org/2000/svg" viewBox="0 0 63.99 64"><defs><style>.b{fill:#5e9fdf;}.c{fill:#e4c290;}.d{fill:#fdfdfd;}.e{fill:#d38e2a;}.f{fill:#f3f3f3;}.g{fill:#1976d2;}</style></defs><rect class="b" x="4" y="24" width="56" height="34" rx="3" ry="3"/><path class="g" d="M58,30v22c-2.21,0-4,1.79-4,4H10c0-2.21-1.79-4-4-4V30c2.21,0,4-1.79,4-4H54c0,2.13,1.72,4,4,4Z"/><circle class="b" cx="32" cy="41" r="11"/><path class="d" d="M32,49c-.55,0-1-.45-1-1v-1h-2c-.55,0-1-.45-1-1s.45-1,1-1h3.5c.83,0,1.5-.67,1.5-1.5s-.67-1.5-1.5-1.5h-1c-1.93,0-3.5-1.57-3.5-3.5,0-1.76,1.31-3.22,3-3.46v-1.04c0-.55,.45-1,1-1s1,.45,1,1v1h2c.55,0,1,.45,1,1s-.45,1-1,1h-3.5c-.83,0-1.5,.67-1.5,1.5s.67,1.5,1.5,1.5h1c1.93,0,3.5,1.57,3.5,3.5,0,1.76-1.31,3.22-3,3.46v1.04c0,.55-.45,1-1,1Z"/><path class="b" d="M53,42h-6c-1.34,0-1.29-2,0-2h6c1.34,0,1.29,2,0,2Zm-37,0h-6c-1.34,0-1.29-2,0-2h6c1.34,0,1.29,2,0,2Z"/><g><path class="g" d="M22,56c0,.73-.21,1.41-.56,2H7c-1.66,0-3-1.34-3-3v-11h2v8c2.21,0,4,1.79,4,4h12Z"/><path class="g" d="M21.44,52c.71,1.19,.56,2.07,.56,4H10c0-2.21-1.79-4-4-4v-8h12c2.21,0,4,1.79,4,4,0,1.95,.14,2.83-.56,4Z"/></g><g><rect class="c" y="58" width="20" height="6" rx="2" ry="2"/><rect class="c" y="52" width="20" height="6" rx="2" ry="2"/></g><g><rect class="e" y="46" width="20" height="6" rx="2" ry="2"/><path class="e" d="M60.92,.62c-.16-.38-.53-.62-.92-.62h-3c-1.32,0-1.32,2,0,2h.59l-12.29,12.29c-.94,.94,.48,2.35,1.41,1.41L59,3.41v.59c0,1.32,2,1.32,2,0l-.08-3.38Z"/></g><g><path class="g" d="M60,27v1h-5.46c-.35-.61-.54-1.3-.54-2h-13.82c-.24-.65-.24-1.35,0-2h16.82c1.66,0,3,1.34,3,3Z"/><path class="g" d="M54.54,28h-11.54c-1.27,0-2.4-.8-2.82-2h13.82c0,.7,.19,1.39,.54,2Z"/></g><path class="e" d="M62,24V9c0-.55-.45-1-1-1h-2c-.55,0-1,.45-1,1v15h-3v-8c0-.55-.45-1-1-1h-2c-.55,0-1,.45-1,1v8h-3v-4c0-.55-.45-1-1-1h-2c-.55,0-1,.45-1,1v4h-1c-1.32,0-1.32,2,0,2h20c1.32,0,1.32-2,0-2h-1Z"/><path class="f" d="M28,1h16V3H28V1Zm0,4h8v2h-8v-2Zm10,0h6v2h-6v-2Zm-14,56c0-1.32-2-1.32-2,0s2,1.32,2,0Zm4,0c0-1.32-2-1.32-2,0s2,1.32,2,0Z"/></svg>