<?xml version="1.0" encoding="UTF-8"?><svg id="a" xmlns="http://www.w3.org/2000/svg" viewBox="0 0 56 64"><defs><style>.b{fill:#5e9fdf;}.c{fill:#d38e2a;}.d{fill:#f3f3f3;}.e{fill:#d9d9d9;}.f{fill:#1976d2;}</style></defs><g><path class="b" d="M2,0H54c1.1,0,2,.9,2,2V6H0V2C0,.9,.9,0,2,0Z"/><path class="b" d="M13,0h19c2.21,0,4,1.79,4,4v2H13V0h0Z"/></g><path class="d" d="M56,6V48c0,1.1-.9,2-2,2H2c-1.1,0-2-.9-2-2V2C0,.9,.9,0,2,0H14c2.21,0,4,1.79,4,4v2H56Z"/><path class="f" d="M53,3c0-1.32-2-1.32-2,0s2,1.32,2,0Zm-4,0c0-1.32-2-1.32-2,0s2,1.32,2,0Z"/><path class="d" d="M45,3c0-1.32-2-1.32-2,0s2,1.32,2,0Z"/><path class="f" d="M33,3c0-1.32-2-1.32-2,0s2,1.32,2,0Z"/><path class="c" d="M15,3c0-1.32-2-1.32-2,0s2,1.32,2,0Z"/><path class="e" d="M7,21h6v18H7V21Zm9-6h6v24h-6V15Zm9-4h6v28h-6V11Zm9,7h6v21h-6V18Zm9-8h6v29h-6V10Z"/><path class="f" d="M27,46h2v18h-2v-18Z"/><g><path class="e" d="M5,41H51v2H5v-2Z"/><circle class="e" cx="26" cy="37" r="13"/></g><circle class="c" cx="28" cy="37" r="13"/><path class="f" d="M35.01,51h3.99v1.99c0,3.32-2.69,6.01-6.01,6.01h-3.99v-1.99c0-3.32,2.69-6.01,6.01-6.01Zm-8.01,10h-3.99c-3.32,0-6.01-2.69-6.01-6.01v-1.99h3.99c3.32,0,6.01,2.69,6.01,6.01v1.99h0Z"/><path class="d" d="M28,46c-.55,0-1-.45-1-1v-1h-2c-.55,0-1-.45-1-1s.45-1,1-1h3c1.1,0,2-.9,2-2s-.9-2-2-2c-2.21,0-4-1.79-4-4,0-1.86,1.28-3.43,3-3.87v-1.13c0-.55,.45-1,1-1s1,.45,1,1v1h2c.55,0,1,.45,1,1s-.45,1-1,1h-3c-1.1,0-2,.9-2,2s.9,2,2,2c2.21,0,4,1.79,4,4,0,1.86-1.28,3.43-3,3.87v1.13c0,.55-.45,1-1,1Z"/></svg>