<svg xmlns="http://www.w3.org/2000/svg" viewBox="0 0 64 64" xmlns:v="https://vecta.io/nano"><path d="M62,19V58H2V19c0-1.66,1.34-3,3-3H59c1.66,0,3,1.34,3,3Z" fill="#5e9fdf"/><path d="M1 58h62c.55 0 1 .45 1 1v2c0 1.66-1.34 3-3 3H3c-1.66 0-3-1.34-3-3v-2c0-.55.45-1 1-1z" fill="#1976d2"/><path d="M60 19v4H20l-4-5h43c.55 0 1 .45 1 1z" fill="#5e9fdf"/><path d="M60 23v33H4V19c0-.55.45-1 1-1h14.08c1.21 0 2.36.55 3.12 1.5l1.75 2.17c.75.85 1.84 1.33 2.97 1.33H60z" fill="#fff"/><path d="M39 60H25c-.81 0-2-.63-2-2h18c0 .81-.63 2-2 2z" fill="#f3f3f3"/><path d="M47.87,16c-.08,.68-.21,1.35-.38,2H16.51c-.17-.65-.3-1.32-.38-2h31.74Z" fill="#1976d2"/><path d="M47.49 18a15.87 15.87 0 0 1-2.27 5h-18.3c-1.14 0-2.26-.47-3.12-1.5l-1.6-2c-.76-.95-1.91-1.5-3.12-1.5h28.41z" fill="#5e9fdf"/><path d="M45.22 23c-7.71 11.3-25.17 8.37-28.71-5h2.57c1.21 0 2.36.55 3.12 1.5l1.6 2c.86 1.03 1.97 1.5 3.12 1.5h18.3z" fill="#f3f3f3"/><circle cx="32" cy="14" r="14" fill="#d38e2a"/><circle cx="32" cy="14" r="11" fill="#e4c290"/><path d="M27 18c-.26 0-.51-.1-.71-.29l-3-3c-.39-.39-.39-1.02 0-1.41l3-3c.39-.39 1.02-.39 1.41 0s.39 1.02 0 1.41L25.41 14l2.29 2.29a1.01 1.01 0 0 1-.71 1.71zm10 0c-.88 0-1.34-1.07-.71-1.71L38.58 14l-2.29-2.29c-.39-.39-.39-1.02 0-1.41s1.02-.39 1.41 0l3 3c.39.39.39 1.02 0 1.41l-3 3a.98.98 0 0 1-.71.29zm-6 2c-.63 0-1.1-.58-.98-1.2l2-10a.99.99 0 0 1 1.18-.78c.54.11.89.63.78 1.18l-2 10c-.09.48-.51.8-.98.8z" fill="#fff"/><path d="M53.75 34.66L39.32 50.95 27 55c-.18 0 .88.25-16.12-4H8V35h2.84l8.83-2.95c.47-.08-.76-.05 10.33-.05.27 0 .52.11.71.29l6.39 6.4c.19-.12.04-.02 5.96-4.33 3.01-2.19 6.86-2.67 10.31-1.29.63.25.85 1.06.38 1.59z" fill="#e4c290"/><path d="M37.1 38.69l-.86.69c-2.6 2.08-6.37 2.21-9.13.14-.44-.33-.53-.96-.2-1.4s.96-.53 1.4-.2c1.99 1.49 4.74 1.45 6.68-.1l.69-.55 1.42 1.42z" fill="#d38e2a"/><path d="M4 32h5c1.1 0 2 .9 2 2v18c0 1.1-.9 2-2 2H4V32h0z" fill="#1976d2"/><circle cx="7" cy="50" r="1" fill="#f3f3f3"/><path d="M49 51h8v2h-8zm2-4h6v2h-6zM7 23h6v2H7zm0 4h8v2H7z" fill="#d9d9d9"/></svg>