<svg xmlns="http://www.w3.org/2000/svg" viewBox="0 0 64 64" xmlns:v="https://vecta.io/nano"><path d="M63.71 43.29c-2.72-2.71-6.72-3.8-10.44-2.83l-10.28 2.68-2.74.72h0c.12-.22.22-.43.32-.65.18-.43.22-.89.11-1.31-.02-.03-.02-.05-.02-.08a2.08 2.08 0 0 0-.79-1.15l-7.65-5.57c-1.89-1.37-4.13-2.1-6.47-2.1h-5.88c-2.07 0-4.08.58-5.83 1.67l-5.57 3.48A1.01 1.01 0 0 0 8 39v20c0 .55.45 1 1 1h7.35c1.68 0 3.37.19 5.01.57l8.89 2.05c1.08.25 2.2.38 3.32.38a14.62 14.62 0 0 0 8.61-2.78l21.4-15.41c.24-.17.39-.44.42-.73.02-.29-.09-.58-.29-.79z" fill="#e4c290"/><rect y="34" width="10" height="30" rx="3" fill="#1976d2"/><path d="M42.99 43.14c-.02.06-.04.13-.07.19-.79 1.83-2.32 3.25-4.21 3.88a7.13 7.13 0 0 1-2.23.36 7.01 7.01 0 0 1-3.47-.92l-1.16-.66c-.48-.28-.65-.89-.37-1.37.27-.47.88-.64 1.36-.37l1.16.66c1.24.71 2.72.86 4.07.4a4.99 4.99 0 0 0 2.18-1.45l2.74-.72z" fill="#e4c290"/><path d="M47 1l16 6v8.24c0 9.97-6.48 18.79-16 21.76h0c-9.52-2.97-16-11.79-16-21.76V7l16-6z" fill="#fff"/><g fill="#5e9fdf"><path d="M47 38c-.1 0-.2-.02-.3-.05A23.69 23.69 0 0 1 30 15.23V7c0-.42.26-.79.65-.94l16-6a1.05 1.05 0 0 1 .7 0l16 6c.39.15.65.52.65.94v8.24a23.69 23.69 0 0 1-16.7 22.72c-.1.03-.2.05-.3.05zM32 7.69v7.54c0 9.48 6.01 17.77 15 20.71 8.99-2.95 15-11.23 15-20.71V7.69L47 2.07 32 7.69zM58 18c0 .34-.02.67-.05 1a10.68 10.68 0 0 1-.7 3c-.27.71-.62 1.38-1.03 2-1.96 3.01-5.36 5-9.22 5s-7.26-1.99-9.22-5c-.41-.62-.76-1.29-1.03-2a10.68 10.68 0 0 1-.7-3c-.03-.33-.05-.66-.05-1s.02-.67.05-1a10.68 10.68 0 0 1 .7-3c.27-.71.62-1.38 1.03-2 1.96-3.01 5.36-5 9.22-5s7.26 1.99 9.22 5c.41.62.76 1.29 1.03 2a10.68 10.68 0 0 1 .7 3c.03.33.05.66.05 1z"/><path d="M57.95 19l.05-1c0-.34-.02-.67-.05-1h-3.98a11.73 11.73 0 0 0-.6-3h3.88c-.27-.71-.62-1.38-1.03-2h-3.77c-1.22-2.04-3.01-3.52-4.88-4.82a.99.99 0 0 0-1.14 0c-1.87 1.3-3.66 2.78-4.88 4.82h-3.77c-.41.62-.76 1.29-1.03 2h3.88a11.73 11.73 0 0 0-.6 3h-3.98L36 18c0 .34.02.67.05 1h3.98a11.73 11.73 0 0 0 .6 3h-3.88c.27.71.62 1.38 1.03 2h3.77c1.22 2.04 3.01 3.52 4.88 4.82a.99.99 0 0 0 1.14 0c1.87-1.3 3.66-2.78 4.88-4.82h3.77c.41-.62.76-1.29 1.03-2h-3.88a11.73 11.73 0 0 0 .6-3h3.98zM47 9.23c1.18.86 2.19 1.75 3 2.77h-6c.81-1.02 1.82-1.91 3-2.77zm0 17.54c-1.18-.86-2.19-1.75-3-2.77h6c-.81 1.02-1.82 1.91-3 2.77zM51.22 22h-8.44c-.39-.89-.62-1.88-.72-3h9.88c-.1 1.12-.33 2.11-.72 3zm-9.16-5c.1-1.12.33-2.11.72-3h8.44c.39.89.62 1.88.72 3h-9.88z"/></g></svg>