<svg xmlns="http://www.w3.org/2000/svg" viewBox="0 0 64 64" xmlns:v="https://vecta.io/nano"><path d="M55 18c-2.82 1.6-6.46 1.05-8.7-1.51-7.53-8.61-21.11-8.73-28.7.13-2.13 2.47-5.77 3-8.6 1.38l8-12 15-2 15 2 8 12zm-6.96 30.04c0 8.75-7.09 16.03-16.04 16.03s-16.04-7.28-16.04-16.03S23.21 32 32 32s16.04 7.14 16.04 16.04z" fill="#d38e2a"/><g fill="#fff"><path d="M32 52.98c-.34 0-1-.22-1-1.02 0-1.43.92-2.68 2.34-3.19C34.93 48.2 36 46.69 36 45c0-2.17-1.83-4-4-4-2.53 0-4.43 2.33-3.92 4.8a1 1 0 1 1-1.96.4A6.01 6.01 0 0 1 32 39c3.25 0 6 2.75 6 6a6.01 6.01 0 0 1-3.98 5.65c-.62.22-1.02.73-1.02 1.31a1 1 0 0 1-1 1.02z"/><circle cx="32" cy="56" r="1"/></g><path d="M3 33h4v12H3z" fill="#d9d9d9"/><path d="M22 38l-.04 22.54c-7.82-6.28-8-18.04-.52-24.56.36.59.56 1.29.56 2.02z" fill="#e4c290"/><rect x="12" y="36" width="8" height="26" rx="2" fill="#5e9fdf"/><path d="M11 60h1V38h-1C4.92 38 0 42.92 0 49s4.92 11 11 11z" fill="#1976d2"/><path d="M61 45h-4V33h4z" fill="#d9d9d9"/><path d="M42.04 60.54c-.06-.36-.04.93-.04-22.54 0-.73.2-1.43.56-2.02 7.5 6.54 7.28 18.29-.52 24.56z" fill="#e4c290"/><rect x="44" y="36" width="8" height="26" rx="2" transform="matrix(-1 0 0 -1 96 98)" fill="#5e9fdf"/><path d="M53 60h-1V38h1c6.08 0 11 4.92 11 11s-4.92 11-11 11z" fill="#1976d2"/><path d="M62 30v4h-6c0-3.82.15-6.11-.63-9.45-1.83-7.97-7.72-14.53-15.5-17.23C24.43 1.94 8 13.39 8 30v4H2v-4C2 8.69 23.69-5.87 43.4 2.25A30.01 30.01 0 0 1 62 30z" fill="#5e9fdf"/><path d="M53.18 18.71c-2.47.6-5.13-.22-6.88-2.22-1.9-2.17-4.42-4.02-7.29-5.14.08-1.42.37-2.76.86-4.03 5.54 1.92 10.39 5.92 13.31 11.39z" fill="#e4c290"/><path d="M60.79 21.57c-1.52 1.4-3.37 2.43-5.42 2.98-1.83-7.97-7.72-14.53-15.5-17.23a13.17 13.17 0 0 1 3.53-5.07 30 30 0 0 1 17.39 19.32z" fill="#1976d2"/><circle cx="52" cy="12" r="11" fill="#fff"/><circle cx="52" cy="12" r="8" fill="#d38e2a"/><g fill="#fff"><circle cx="52" cy="12" r="1"/><circle cx="48" cy="12" r="1"/><circle cx="56" cy="12" r="1"/></g><path d="M8 36H2c-.55 0-1-.45-1-1 0-.29.22-1 1-1h6c.55 0 1 .45 1 1 0 .29-.22 1-1 1zm54 0h-6c-.55 0-1-.45-1-1 0-.29.22-1 1-1h6c.55 0 1 .45 1 1 0 .29-.22 1-1 1z" fill="#1976d2"/><path d="M9 53c-.29 0-1-.22-1-1v-6c0-.55.45-1 1-1 .29 0 1 .22 1 1v6c0 .55-.45 1-1 1zm46 0c-.29 0-1-.22-1-1v-6c0-.55.45-1 1-1 .29 0 1 .22 1 1v6c0 .55-.45 1-1 1z" fill="#fff"/></svg>