<svg xmlns="http://www.w3.org/2000/svg" viewBox="0 0 64 64" xmlns:v="https://vecta.io/nano"><path d="M42 8v48c0 3.64-2.43 6.71-5.75 7.68-1.52.45-.39.32-26.25.32a8 8 0 0 1-8-8V8a8 8 0 0 1 8-8h24a8 8 0 0 1 8 8z" fill="#1976d2"/><path d="M39 9v45c0 3.31-2.69 6-6 6H11c-3.31 0-6-2.69-6-6V9c0-3.31 2.69-6 6-6h3.29a.98.98 0 0 1 .94.68l.31.95A2.01 2.01 0 0 0 17.44 6h9.12a2.01 2.01 0 0 0 1.9-1.37l.31-.94a1 1 0 0 1 .95-.69H33c3.31 0 6 2.69 6 6z" fill="#fff"/><rect x="38" y="48" width="22" height="4" rx="1" fill="#1976d2"/><path d="M59 52H39c1.87 1.87 3 4.45 3 7.24V62c0 1.1.9 2 2 2h10c1.1 0 2-.9 2-2v-2.76c0-2.64 1.03-5.27 3-7.24z" fill="#5e9fdf"/><rect x="38" y="20" width="22" height="4" rx="1" fill="#1976d2"/><path d="M30 14.54c0 3.23-2.19 6.54-5.64 7.92L23 23l-1.36-.54a9.16 9.16 0 0 1-5.1-5.1c-.63-1.59-.54-3-.54-2.82A3.54 3.54 0 0 1 19.54 11c1.65 0 2.4.93 3.46 2 1.04-1.04 1.78-2 3.46-2A3.54 3.54 0 0 1 30 14.54zm-14 30.5c0 .94-1.06 3-2.98 4.27-.58.38-1.39.44-2.05 0-1.29-.86-2.28-2.09-2.84-3.53-.49-1.26.39-2.79 1.91-2.79.96 0 1.41.45 1.55.6l.4.4.4-.4c1.24-1.24 3.6-.48 3.6 1.45z" fill="#d38e2a"/><path d="M19.13 37.5L15.42 31H10c-.55 0-1-.45-1-1s.45-1 1-1h6c.36 0 .69.19.87.5l3.15 5.52 5.12-8.54c.36-.6 1.21-.65 1.64-.11l3.7 4.62H36c.55 0 1 .45 1 1s-.45 1-1 1h-6a1 1 0 0 1-.78-.38l-3.1-3.88-5.26 8.77c-.39.64-1.34.66-1.73-.02zM23 50h-4c-.55 0-1-.45-1-1v-5c0-.55.45-1 1-1h4c.55 0 1 .45 1 1v5c0 .55-.45 1-1 1zm-3-2h2v-3h-2v3zm11 2h-4c-.55 0-1-.45-1-1v-5c0-.55.45-1 1-1h4c.55 0 1 .45 1 1v5c0 .55-.45 1-1 1zm-3-2h2v-3h-2v3z" fill="#5e9fdf"/><path d="M32 58H12c-.55 0-1-.45-1-1 0-.29.22-1 1-1h20c.55 0 1 .45 1 1 0 .29-.22 1-1 1z" fill="#d9d9d9"/><rect x="36" y="22" width="26" height="28" rx="3" fill="#5e9fdf"/><rect x="39" y="25" width="20" height="22" rx="1" fill="#fff"/><path d="M56 33.54c0 3.23-2.19 6.54-5.64 7.92L49 42l-1.36-.54a9.16 9.16 0 0 1-5.1-5.1c-.63-1.59-.54-3-.54-2.82A3.54 3.54 0 0 1 45.54 30c1.65 0 2.4.93 3.46 2 1.04-1.04 1.78-2 3.46-2A3.54 3.54 0 0 1 56 33.54z" fill="#d38e2a"/><path d="M59 20H39c1.87-1.87 3-4.45 3-7.24V10c0-1.1.9-2 2-2h10c1.1 0 2 .9 2 2v2.76c0 2.64 1.03 5.27 3 7.24z" fill="#5e9fdf"/><path d="M47 39c-.54 0-.59-.18-2.41-2H42c-.55 0-1-.45-1-1s.45-1 1-1h3c.55 0 .68.26 2 1.59l2.29-2.29a1 1 0 0 1 1.6.26l.72 1.45h4.38c.55 0 1 .45 1 1s-.45 1-1 1h-5a.99.99 0 0 1-.89-.55l-.38-.76c-2.14 2.14-2.17 2.31-2.73 2.31z" fill="#e4c290"/></svg>