<?xml version="1.0" encoding="UTF-8"?><svg id="a" xmlns="http://www.w3.org/2000/svg" viewBox="0 0 64 64"><defs><style>.b{fill:#fdfdfd;}.c{fill:#d38e2a;}.d{fill:#d9d9d9;}.e{fill:#1976d2;}</style></defs><g><path class="e" d="M60,26.26c0,3.7-1.34,7.28-3.78,10.06l-24.22,27.68L7.78,36.32c-2.44-2.78-3.78-6.36-3.78-10.06,0-13.16,15.48-20,25.35-11.53l2.65,2.27,2.77-2.37c9.91-8.34,25.23-1.42,25.23,11.63Z"/><path class="e" d="M51.83,12.75c-1.7,8.61-13.55,9.91-17.06,1.88,4.75-4,11.54-4.8,17.06-1.88Z"/></g><circle class="c" cx="45" cy="9" r="9"/><path class="b" d="M47.14,10.87c-1.16-1.13-3.11-1.12-4.26,.02-.94,.93-2.35-.49-1.41-1.42,1.94-1.95,5.1-1.97,7.06-.03,.95,.93-.46,2.34-1.4,1.43h.01Zm3.52-2.55c-.63,0-.66-.38-1.58-1.01-2.74-1.95-6.64-1.66-9.04,.77-.93,.94-2.35-.47-1.42-1.41,3.52-3.54,9.22-3.53,12.73-.06,.63,.62,.19,1.71-.7,1.71h.01Zm-4.64,4.68c0-1.32-2.01-1.32-2,0s2.01,1.32,2,0Z"/><path class="d" d="M24.86,47.5c-.76,0-1.44-.42-1.78-1.11l-6.08-12.16-4.83,9.66c-.31,.66-1.02,1.1-1.78,1.1H1c-.55,0-1-.45-1-1s.45-1,1-1H10.38l4.83-9.66c.49-.99,1.7-1.39,2.68-.9,.38,.19,.7,.51,.9,.9l6.08,12.16,1.95-5.2c.3-.79,1.04-1.3,1.88-1.3h2.54l2.94-11.03c.23-.87,.99-1.46,1.88-1.48,.84-.03,1.67,.53,1.95,1.37l5,14.99,2.82-8.47c.28-.82,1.04-1.37,1.9-1.37h15.28c.55,0,1,.45,1,1s-.45,1-1,1h-15.28l-2.82,8.47c-.29,.83-1.03,1.37-1.9,1.37h-.01c-.87,0-1.61-.54-1.89-1.37l-5-14.99-2.94,11.03c-.24,.88-1.03,1.48-1.94,1.48h-2.54l-1.95,5.2c-.29,.76-.97,1.26-1.77,1.3-.04,0-.07,0-.11,0Z"/></svg>