<svg xmlns="http://www.w3.org/2000/svg" viewBox="0 0 64 64" xmlns:v="https://vecta.io/nano"><g fill="#f3f3f3"><path d="M61,33c-.55,0-1-.45-1-1V15c0-6.07-4.93-11-11-11h-17c-.55,0-1-.45-1-1s.45-1,1-1h17c7.17,0,13,5.83,13,13v17c0,.55-.45,1-1,1Z"/><path d="M49,62H32c-.55,0-1-.45-1-1s.45-1,1-1h17c6.07,0,11-4.93,11-11v-17c0-.55,.45-1,1-1s1,.45,1,1v17c0,7.17-5.83,13-13,13Z"/><path d="M32,62H15c-7.17,0-13-5.83-13-13v-17c0-.55,.45-1,1-1s1,.45,1,1v17c0,6.07,4.93,11,11,11H32c.55,0,1,.45,1,1s-.45,1-1,1Z"/><path d="M3,33c-.55,0-1-.45-1-1V15C2,7.83,7.83,2,15,2H32c.55,0,1,.45,1,1s-.45,1-1,1H15C8.93,4,4,8.93,4,15V32c0,.55-.45,1-1,1Z"/></g><path d="M34 5h-4V2c0-1.1.9-2 2-2 .81 0 2 .63 2 2v3zm25 29v-4h3c1.1 0 2 .9 2 2 0 .81-.63 2-2 2h-3zM30 59h4v3c0 1.1-.9 2-2 2-.81 0-2-.63-2-2v-3zM5 30v4H2c-1.1 0-2-.9-2-2 0-.81.63-2 2-2h3z" fill="#5e9fdf"/><path d="M32 4C16.54 4 4 16.54 4 32s12.54 28 28 28 28-12.54 28-28S47.46 4 32 4zm0 45c-9.39 0-17-7.61-17-17s7.61-17 17-17 17 7.61 17 17-7.61 17-17 17z" fill="#d38e2a"/><circle cx="32" cy="32" r="14" fill="#1976d2"/><path d="M38.32 4.72l-2.67 10.67c-2.44-.52-4.84-.52-7.3 0L25.68 4.72a28.1 28.1 0 0 1 12.64 0zM15.39 35.65L4.72 38.32a28.1 28.1 0 0 1 0-12.64l10.67 2.67c-.52 2.44-.52 4.84 0 7.3zm22.93 23.63a28.1 28.1 0 0 1-12.64 0l2.67-10.67c2.44.52 4.84.52 7.3 0l2.67 10.67zm20.96-20.96l-10.67-2.67c.52-2.44.52-4.84 0-7.3l10.67-2.67a28.1 28.1 0 0 1 0 12.64z" fill="#e4c290"/><path d="M45.96 33c.05-.59.05-1.4 0-2h-5.99c-.1-1.78-.46-3.44-1.08-5h5.76a12.91 12.91 0 0 0-1.17-2h-5.57c-1.21-2.08-2.96-3.99-5.3-5.79a.99.99 0 0 0-1.22 0c-2.34 1.8-4.09 3.71-5.3 5.79h-5.57a12.91 12.91 0 0 0-1.17 2h5.76c-.63 1.56-.99 3.22-1.08 5h-5.99c-.05.59-.05 1.4 0 2h5.99c.1 1.78.46 3.44 1.08 5h-5.76a12.91 12.91 0 0 0 1.17 2h5.57c1.21 2.08 2.96 3.99 5.3 5.79a.99.99 0 0 0 1.22 0c2.34-1.8 4.09-3.71 5.3-5.79h5.57a12.91 12.91 0 0 0 1.17-2h-5.76c.63-1.56.99-3.22 1.08-5h5.99zM32 20.28c1.46 1.2 2.62 2.43 3.54 3.72h-7.07c.91-1.29 2.07-2.53 3.54-3.72zM27.3 26h9.41c.73 1.54 1.14 3.2 1.24 5h-11.9c.11-1.8.51-3.46 1.24-5zM32 43.72c-1.46-1.2-2.62-2.43-3.54-3.72h7.07c-.91 1.29-2.07 2.53-3.54 3.72zM36.7 38h-9.41c-.73-1.54-1.14-3.2-1.24-5h11.9c-.11 1.8-.51 3.46-1.24 5z" fill="#5e9fdf"/></svg>