<svg xmlns="http://www.w3.org/2000/svg" xmlns:xlink="http://www.w3.org/1999/xlink" viewBox="0 0 64 64" xmlns:v="https://vecta.io/nano"><rect x="10" y="54" width="44" height="10" rx="2" fill="#1976d2"/><path d="M51 54c-39.25 0-38-.1-38 0 0-1.1.9-2 2-2h34c.81 0 2 .63 2 2z" fill="#d38e2a"/><g fill="#5e9fdf"><path d="M60.11 17.45L32 51 3.89 17.45c16.12-13.9 40.02-13.97 56.22 0z"/><path d="M32 52c-.7 0 1.29 2.09-31.77-37.36-.85-1.01.68-2.3 1.53-1.28l30.23 36.08 30.24-36.08c.85-1.01 2.38.27 1.53 1.28L31.99 52zm0-20c-10.63 0-19.69-10.17-16.32-21.79 10.24-4.22 22.05-4.34 32.63-.01C51.51 20.7 43.59 32 32 32z"/></g><g fill="#1976d2"><path d="M47 15c0 8.15-6.61 15-15 15-9.34 0-15.72-8.49-14.98-15.56C17.02 5.68 26.14-1.91 35 .3 42.07 1.75 47 8.04 47 15z"/><path d="M45.74 21H40c-.55 0-1-.45-1-1s-.45-1-1-1-1-.45-1-1v-2c0-.55.45-1 1-1s1-.45 1-1 .45-1 1-1h6.87a14.97 14.97 0 0 1-1.13 8zM34 .14V9c0 .54-.43 1.01-.97 1-.57-.01-1.03.44-1.03 1v1c0 .1-.02 1-1.18 1a1 1 0 0 0-.98.8l-.63 3.16c-.26 1.29-2.08 1.42-2.51.15-.42-1.27-1.58-2.16-2.92-2.25l-6.76-.42c0-8.68 8.47-15.61 16.98-14.3z"/><use xlink:href="#B"/></g><g fill="#5e9fdf"><use xlink:href="#B" x="-12"/><use xlink:href="#B" x="-24"/></g><path d="M47 46c-.83 0-1.32-.99-.76-1.65l11-13c.86-1.01 2.38.28 1.53 1.29-11.94 14.11-11.1 13.35-11.76 13.35zm-30 0c-.66 0 .18.76-11.76-13.35-.85-1.01.67-2.3 1.53-1.29l11 13c.56.66.07 1.65-.76 1.65z" fill="#d38e2a"/><defs ><path id="B" d="M42 61h4c1.1 0 2-.9 2-2 0-.81-.63-2-2-2h-4c-1.1 0-2 .9-2 2 0 .81.63 2 2 2z"/></defs></svg>