<svg xmlns="http://www.w3.org/2000/svg" viewBox="0 0 64 64" xmlns:v="https://vecta.io/nano"><path d="M5 22h44v18c0 11.04-8.96 20-20 20h-4C13.96 60 5 51.04 5 40V22h0z" fill="#f3f3f3"/><path d="M0,56H54v1c0,1.66-1.34,3-3,3H3c-1.66,0-3-1.34-3-3v-1H0Z" fill="#d9d9d9"/><path d="M43.76 64H10.24a2 2 0 0 1-1.79-1.11L7 60h40l-1.45 2.89A2 2 0 0 1 43.76 64z" fill="#c8c8c8"/><path d="M64 36c0 6.62-5.37 12-12 12h-7v-4h7a8 8 0 1 0 0-16h-7v-4h7a12 12 0 0 1 12 12z" fill="#f3f3f3"/><path d="M5 24h44v4H5z" fill="#d9d9d9"/><path d="M14 46c0 4.77-2.66 10-7 10s-7-5.1-7-10c0-5.3 2.89-9.65 6.55-9.98C11.28 35.71 14 41.17 14 46z" fill="#d38e2a"/><path d="M32 0l-3.23 3.77a5.62 5.62 0 0 0-.41 6.78c1.96 2.94.8 4.96-.36 8.46l2.74-2.74a5.62 5.62 0 0 0 .7-7.1 5.61 5.61 0 0 1-.73-4.66L32 .01z" fill="#f3f3f3"/><g fill="#e4c290"><path d="M9.34 51.08l-1.05 4.75c-1.15.3-1.92.11-2.08.11.02-.06-.05.21 1.18-5.3a5.08 5.08 0 0 0-1-4.3 7.18 7.18 0 0 1-1.11-6.94l1.27-3.38c.67-.04 1.31-.01 2.05.25L7.16 40.1c-.59 1.52-.4 3.5.79 4.99a7.09 7.09 0 0 1 1.39 5.99z"/><path d="M8.29 55.83l1.05-4.75a7.09 7.09 0 0 0-1.39-5.99c-.76-.95-1.14-2.12-1.11-3.31 1.66-.92 3.64-1.53 5.78-1.72 3.11 5.94.69 14.44-4.33 15.77zm-.9-5.19L6.22 55.9C1.25 52.77.47 46.93 4.94 43.1a7.1 7.1 0 0 0 1.45 3.24 5.08 5.08 0 0 1 1 4.3z"/><path d="M9.34 51.08l-1.05 4.75c-.88.23-1.45.17-2 .12-.1-.1-.21.59 1.1-5.31a5.08 5.08 0 0 0-1-4.3 7.1 7.1 0 0 1-1.45-3.24 10.03 10.03 0 0 1 1.9-1.32c-.03 1.19.35 2.36 1.11 3.31a7.09 7.09 0 0 1 1.39 5.99z"/></g><ellipse cx="14" cy="49" rx="10" ry="7" fill="#d38e2a"/><path d="M8.92 51.34l-4.75-1.05c-.17-.67-.22-1.35-.11-2.08l5.3 1.18a5.08 5.08 0 0 0 4.3-1c1.95-1.56 4.61-1.98 6.94-1.11l3.38 1.27c.04.67.01 1.31-.25 2.05l-3.83-1.44c-1.68-.63-3.59-.33-4.99.79a7.09 7.09 0 0 1-5.99 1.39z" fill="#e4c290"/><path d="M22 5l-1.6 2.66c-.85 1.41-.76 3.2.23 4.51.85 1.13 1.05 2.62.52 3.93L20 18.99l2.52-2.52a4.04 4.04 0 0 0 .38-5.29c-1.13-1.51-.89-2.34-.89-6.19z" fill="#f3f3f3"/><g fill="#1976d2"><rect x="37" width="26" height="16" rx="2"/><path d="M42 16.02l3 3L48.02 16l-6.02.02z"/></g><g fill="#5e9fdf"><circle cx="58" cy="8" r="2"/><circle cx="50" cy="8" r="2"/></g><circle cx="42" cy="8" r="2" fill="#f3f3f3"/></svg>