<svg xmlns="http://www.w3.org/2000/svg" viewBox="0 0 64 64" xmlns:v="https://vecta.io/nano"><path d="M62,11V50H2V11c0-1.66,1.34-3,3-3H59c1.66,0,3,1.34,3,3Z" fill="#1976d2"/><path d="M1 50h62c.55 0 1 .45 1 1v2c0 1.66-1.34 3-3 3H3c-1.66 0-3-1.34-3-3v-2c0-.55.45-1 1-1z" fill="#5e9fdf"/><path d="M60 11v37H4V11c0-.55.45-1 1-1h54c.55 0 1 .45 1 1z" fill="#fff"/><path d="M39 52H25c-1.1 0-2-.9-2-2 0-.1-.84 0 18 0 0 .81-.63 2-2 2z" fill="#f3f3f3"/><g fill="#5e9fdf"><path d="M5 10h54c.55 0 1 .45 1 1v3H4v-3c0-.55.45-1 1-1z"/><path d="M18,10h17c1.66,0,3,1.34,3,3v1H18v-4h0Z"/></g><path d="M5 10h14c1.66 0 3 1.34 3 3v2H4v-4c0-.55.45-1 1-1z" fill="#fff"/><rect x="7" y="17" width="30" height="18" rx="1" fill="#d38e2a"/><path d="M20 22v8l6-4-6-4z" fill="#e4c290"/><circle cx="10" cy="41" r="3" fill="#5e9fdf"/><path d="M15 38h20v2H15zm0 4h10v2H15z" fill="#d9d9d9"/><g fill="#5e9fdf"><rect x="41" y="17" width="16" height="10" rx="1"/><rect x="41" y="29" width="16" height="10" rx="1"/><path d="M42 41h14c.55 0 1 .45 1 1v6H41v-6c0-.55.45-1 1-1zm6-21v4l3-2-3-2zm0 12v4l3-2-3-2z"/><path d="M48 44v4l3-2-3-2z"/></g></svg>