<svg xmlns="http://www.w3.org/2000/svg" xmlns:xlink="http://www.w3.org/1999/xlink" viewBox="0 0 64 64" xmlns:v="https://vecta.io/nano"><path d="M35 17c0 9.37-7.62 17-17 17S1.54 26.88 1.03 18C.77 13.65 2.2 9.32 5.05 6c6.78-8 19.12-8 25.9 0A16.93 16.93 0 0 1 35 17z" fill="#d38e2a"/><g fill="#e4c290"><path d="M34.97 18a16.68 16.68 0 0 0 0-2h-7c-.14-2.86-.9-5.59-2.16-8h6.61a16.85 16.85 0 0 0-1.47-2H24.6c-1.53-2.22-3.56-4.2-6.05-5.84a1.02 1.02 0 0 0-1.1 0C14.96 1.8 12.93 3.78 11.4 6H5.05a16.85 16.85 0 0 0-1.47 2h6.61a19.18 19.18 0 0 0-2.16 8h-7a16.68 16.68 0 0 0 0 2h7a19.18 19.18 0 0 0 2.16 8H3.58a16.85 16.85 0 0 0 1.47 2h6.35c1.42 2.07 3.48 4.15 6.05 5.84a1.02 1.02 0 0 0 1.1 0c2.49-1.64 4.52-3.62 6.05-5.84h6.35a16.85 16.85 0 0 0 1.47-2h-6.61a19.18 19.18 0 0 0 2.16-8h7zM18 2.21c1.4.97 2.85 2.22 4.13 3.79h-8.26C15.15 4.43 16.6 3.18 18 2.21zm0 29.58c-1.4-.97-2.85-2.22-4.13-3.79h8.26c-1.28 1.57-2.73 2.82-4.13 3.79zM23.55 26h-11.1c-1.32-2.17-2.25-4.81-2.41-8h15.92c-.16 3.19-1.09 5.83-2.41 8zM10.04 16c.16-3.19 1.09-5.83 2.41-8h11.1c1.46 2.42 2.27 5.1 2.41 8H10.04z"/><path d="M35 17c0 11.47-11.16 19.61-22 16.25V14a4 4 0 0 1 4-4h16.48c1.01 2.19 1.52 4.55 1.52 7z"/></g><path d="M59 22v40c0 1.1-.9 2-2 2H17c-1.1 0-2-.9-2-2V14c0-1.1.9-2 2-2h32l10 10z" fill="#f3f3f3"/><path d="M59 22h-8c-1.1 0-2-.9-2-2v-8l10 10zM15 40h44v20H15z" fill="#d9d9d9"/><path d="M13 42h48c1.1 0 2 .9 2 2v12c0 1.1-.9 2-2 2H11V44c0-1.1.9-2 2-2z" fill="#5e9fdf"/><g fill="#1976d2"><path d="M11 58l4 4v-4h-4z"/><use xlink:href="#B"/><use xlink:href="#B" x="6"/><path d="M26 51h-6c-.55 0-1-.45-1-1s.45-1 1-1h6c.55 0 1 .45 1 1s-.45 1-1 1zm10-4h-6c-.55 0-1-.45-1-1s.45-1 1-1h6c.55 0 1 .45 1 1s-.45 1-1 1z"/><use xlink:href="#B" x="13"/><path d="M46 55c-.55 0-1-.45-1-1v-5.59l-1.29 1.29c-.39.39-1.02.39-1.41 0l-1.29-1.29V54c0 .55-.45 1-1 1s-1-.45-1-1v-8c0-.89 1.08-1.34 1.71-.71l2.29 2.29 2.29-2.29c.63-.63 1.71-.18 1.71.71v8c0 .55-.45 1-1 1zm8 0h-4c-.55 0-1-.45-1-1v-8c0-.55.45-1 1-1s1 .45 1 1v7h3c.55 0 1 .45 1 1s-.45 1-1 1z"/></g><path d="M23 27c-.3 0-.6-.14-.8-.4l-3-4a.99.99 0 0 1 0-1.2l3-4c.33-.44.96-.53 1.4-.2s.53.96.2 1.4L21.25 22l2.55 3.4c.5.67.01 1.6-.8 1.6zm10 0c-.88 0-1.34-1.07-.71-1.71l3.34-3.34-2.88-3.3c-.36-.42-.32-1.05.09-1.41.42-.36 1.05-.32 1.41.09l3.5 4c.35.4.33.99-.05 1.37l-4 4a.98.98 0 0 1-.71.29zm-6 1c-.63 0-1.1-.58-.98-1.2l2-10c.11-.54.63-.89 1.18-.78a1 1 0 0 1 .78 1.18l-2 10c-.09.48-.51.8-.98.8z" fill="#d38e2a"/><path d="M19 30h8v2h-8zm0 4h8v2h-8zm12-4h16v2H31zm0 4h16v2H31z" fill="#d9d9d9"/><defs ><path id="B" d="M20 55c-.55 0-1-.45-1-1v-8c0-.55.45-1 1-1s1 .45 1 1v8c0 .55-.45 1-1 1z"/></defs></svg>