<svg xmlns="http://www.w3.org/2000/svg" viewBox="0 0 64 64" xmlns:v="https://vecta.io/nano"><rect x="4" width="38" height="52" rx="4" fill="#5e9fdf"/><path d="M42 6v42a4 4 0 0 1-4 4H12V12c0-3.31 2.69-6 6-6h24z" fill="#1976d2"/><path d="M52 17v39a4 4 0 0 1-4 4H18a4 4 0 0 1-4-4V12a4 4 0 0 1 4-4h25l9 9z" fill="#f3f3f3"/><path d="M52 17h-7c-1.1 0-2-.9-2-2V8l9 9z" fill="#d9d9d9"/><g fill="#5e9fdf"><path d="M46 52c-.51 0-1.02-.2-1.41-.59l-13-13c-.78-.78-.78-2.05 0-2.83s2.05-.78 2.83 0l13 13c1.26 1.26.35 3.41-1.41 3.41z"/><circle cx="33" cy="37" r="15"/></g><circle cx="33" cy="37" r="12" fill="#fff"/><g fill="#d38e2a"><path d="M47.29 48.71L44.7 51.3c-.39.39-.39 1.02 0 1.41l10.46 10.46a2.83 2.83 0 0 0 2 .83c2.51 0 3.77-3.05 2-4.83L48.7 48.71c-.39-.39-1.02-.39-1.41 0zM41.66 42c-3.85 6.66-13.46 6.66-17.32 0a10.12 10.12 0 0 1 4.73-4.2c2.36 1.6 5.5 1.6 7.86 0a10.12 10.12 0 0 1 4.73 4.2z"/><circle cx="33" cy="32" r="5"/></g><path d="M18 15h10v2H18zm0 4h6v2h-6zm0 34h6v2h-6z" fill="#d9d9d9"/></svg>