<svg xmlns="http://www.w3.org/2000/svg" xmlns:xlink="http://www.w3.org/1999/xlink" viewBox="0 0 64 64" xmlns:v="https://vecta.io/nano"><g fill="#e4c290"><path d="M24 33c-.61 0 .93 1.34-20-19.59V15c0 1.32-2 1.32-2 0v-4c0-.89 1.08-1.34 1.71-.71l21 21A1.01 1.01 0 0 1 24 33z"/><path d="M7 12H3c-1.32 0-1.32-2 0-2h4c1.32 0 1.32 2 0 2zm18 40h23v12H25z"/></g><path d="M55 26v18c0 5.52-4.48 10-10 10V33c0-3.31-2.69-6-6-6H19c-4.97 0-9-4.03-9-9s4.03-9 9-9h3c-1.33 2.22.28 5 2.83 5H43c6.68 0 12 5.43 12 12z" fill="#1976d2"/><g fill="#e4c290"><path d="M45,33v28H19c-1.66,0-3-1.34-3-3v-8l-6-5,8-18h21c3.31,0,6,2.69,6,6Z"/><circle cx="44" cy="41" r="6"/></g><path d="M54.83 24c-.95-5.68-5.88-10-11.83-10h-4.65c1.25 5.28 4.29 5.67 6.51 11.94.17.47.14.94.14.84 0 5.33 6.11 8.2 10 4.68 0-5.75.06-6.11-.17-7.46z" fill="#1976d2"/><path d="M49.75.07c-8.59.95-12.84 11.25-7.17 17.99 2.1 2.49 3.55 5.2 4.43 7.94h8c.9-2.81 2.27-5.5 4.25-7.74 6.53-7.39.65-19.32-9.51-18.19z" fill="#e4c290"/><circle cx="51" cy="11" r="9" fill="#d38e2a"/><path d="M51 10c-1.32 0-1.32-2 0-2h2c1.32 0 1.32-2 0-2h-1V5c0-1.32-2-1.32-2 0l.04 1.17C46.83 7.27 47.64 12 51 12c1.32 0 1.32 2 0 2h-2c-1.32 0-1.32 2 0 2h1v1c0 1.32 2 1.32 2 0l-.04-1.17c3.21-1.1 2.4-5.83-.96-5.83z" fill="#fdfdfd"/><path d="M51 31a4 4 0 0 1-4-4v-1h8v1a4 4 0 0 1-4 4z" fill="#d9d9d9"/><g fill="#1976d2"><path d="M41 12c-.6 0 .07.49-9.71-9.29C30.66 2.08 31.11 1 32 1h4c1.32 0 1.32 2 0 2h-1.59L41 9.59l4.29-4.29c.39-.39 1.02-.39 1.41 0l2 2c.94.94-.48 2.35-1.41 1.41L46 7.42c-4.61 4.61-4.43 4.59-5 4.59z"/><path d="M31,6V2c0-1.32,2-1.32,2,0V6c0,1.32-2,1.32-2,0Z"/></g><g fill="#e4c290"><path d="M38 23c-.61 0 .93 1.34-20-19.59V5c0 1.32-2 1.32-2 0V1c0-.89 1.08-1.33 1.71-.71l21 21A1.01 1.01 0 0 1 38 23z"/><path d="M21,2h-4c-1.32,0-1.32-2,0-2h4c1.32,0,1.32,2,0,2Z"/></g><path d="M25,37c-.55,0-1-.45-1-1,0-1.1-.9-2-2-2s-2,.9-2,2c0,.55-.45,1-1,1-2.1,0-.81-5,3-5s5.1,5,3,5Z" fill="#d38e2a"/><g fill="#d9d9d9"><use xlink:href="#B"/><use xlink:href="#B" x="20" y="-17"/></g><path d="M38 63H25v-2h15c0 1.1-.9 2-2 2zm10-22a4 4 0 0 1-4 4v-8a4 4 0 0 1 4 4zM18 58h-2v-6h8c0 3.31-2.69 6-6 6z" fill="#d38e2a"/><g fill="#5e9fdf"><use xlink:href="#B" y="27"/><path d="M6 64c-.88 0-1.34-1.07-.71-1.71l3-3c.94-.94 2.35.48 1.41 1.41-3.11 3.11-3.13 3.29-3.71 3.29zm3-8H5c-1.32 0-1.32-2 0-2h4c1.32 0 1.32 2 0 2z"/></g><defs ><path id="B" d="M9 25c-.55 0-.43-.02-3.71-3.29-.94-.94.48-2.35 1.41-1.41l3 3a1.01 1.01 0 0 1-.71 1.71z"/></defs></svg>