<svg xmlns="http://www.w3.org/2000/svg" viewBox="0 0 64 64" xmlns:v="https://vecta.io/nano"><path d="M62,11V50H2V11c0-1.66,1.34-3,3-3H59c1.66,0,3,1.34,3,3Z" fill="#1976d2"/><path d="M1 50h62c.55 0 1 .45 1 1v2c0 1.66-1.34 3-3 3H3c-1.66 0-3-1.34-3-3v-2c0-.55.45-1 1-1z" fill="#5e9fdf"/><path d="M60 11v37H4V11c0-.55.45-1 1-1h54c.55 0 1 .45 1 1z" fill="#fff"/><path d="M39 52H25c-1.1 0-2-.9-2-2 0-.1-.84 0 18 0 0 .81-.63 2-2 2z" fill="#f3f3f3"/><path d="M5 10h54c.55 0 1 .45 1 1v3H4v-3c0-.55.45-1 1-1z" fill="#5e9fdf"/><path d="M42 10h17c.55 0 1 .45 1 1v5H42v-6h0z" fill="#fff"/><path d="M40.03 41.92c-1.98 1.79-3.04 3.8-4.03 6.08h-8c-1.02-2.34-2.21-4.4-4.13-6.17-8.12-7.48-2.62-21.24 8.59-20.82 10.54.39 15.65 13.62 7.57 20.91z" fill="#d38e2a"/><g fill="#5e9fdf"><path d="M28 36h8v12h-8z"/><path d="M28 36h8v12h-8z"/></g><path d="M32 36h4v12h-4z" fill="#1976d2"/><path d="M36 36l-4 2-4-2 4-7 4 7z" fill="#f3f3f3"/><path d="M33.71 32h-3.42L32 29l1.71 3z" fill="#1976d2"/><path d="M30.99 17.98l.02-1c.02-1.34 2.02-1.26 2 .04l-.02 1c-.02 1.34-2.02 1.26-2-.04zm-10.32 5.11l-.69-.72c-.93-.97.54-2.32 1.44-1.39l.69.72c.93.97-.54 2.32-1.44 1.39zm-3.69 10.92l-1-.02c-1.34-.02-1.26-2.02.04-2l1 .02c1.34.02 1.26 2.02-.04 2zm5.12 10.32l-.72.69c-.97.93-2.32-.54-1.39-1.44l.72-.69c.97-.93 2.32.54 1.39 1.44zm21.23-1.43l.69.72c.93.97-.54 2.32-1.44 1.39l-.69-.72c-.93-.97.54-2.32 1.44-1.39zm3.69-10.91l1 .02c1.34.02 1.26 2.02-.04 2l-1-.02c-1.34-.02-1.26-2.02.04-2zM41.9 21.67l.72-.69c.97-.93 2.32.54 1.39 1.44l-.72.69c-.97.93-2.32-.54-1.39-1.44zM58 12c0-1.32-2-1.32-2 0s2 1.32 2 0z" fill="#d38e2a"/><path d="M54 12c0-1.32-2-1.32-2 0s2 1.32 2 0zm-4 0c0-1.32-2-1.32-2 0s2 1.32 2 0z" fill="#5e9fdf"/></svg>