<svg xmlns="http://www.w3.org/2000/svg" xmlns:xlink="http://www.w3.org/1999/xlink" viewBox="0 0 64 64" xmlns:v="https://vecta.io/nano"><rect x="6" width="52" height="64" rx="6" fill="#5e9fdf"/><rect x="9" y="3" width="46" height="54" rx="3" fill="#fff"/><g fill="#5e9fdf"><rect x="28" y="59" width="8" height="3" rx="1.5"/><path d="M18 18h28v28H18z"/></g><rect x="21" y="21" width="22" height="22" rx="1" fill="#f3f3f3"/><path d="M40 41H24c-.76 0-1.22-.81-.89-1.45l5-10c.34-.7 1.36-.75 1.76-.05l3.24 5.68 2.09-2.78c.42-.57 1.3-.53 1.67.1l4 7c.37.68-.1 1.5-.87 1.5z" fill="#1976d2"/><g fill="#d38e2a"><circle cx="37" cy="27" r="3"/><rect x="16" y="16" width="4" height="4" rx="1" transform="matrix(0 1 -1 0 36 0)"/><rect x="44" y="16" width="4" height="4" rx="1" transform="matrix(0 1 -1 0 64 -28)"/><rect x="16" y="44" width="4" height="4" rx="1" transform="matrix(0 1 -1 0 64 28)"/><rect x="44" y="44" width="4" height="4" rx="1" transform="matrix(0 1 -1 0 92 0)"/></g><g fill="#5e9fdf"><use xlink:href="#B"/><use xlink:href="#B" x="7"/><use xlink:href="#B" x="14"/><use xlink:href="#B" y="28"/><use xlink:href="#B" x="7" y="28"/><use xlink:href="#B" x="14" y="28"/><use xlink:href="#C"/><use xlink:href="#C" y="7"/><use xlink:href="#C" y="14"/><use xlink:href="#C" x="-28"/><use xlink:href="#C" x="-28" y="7"/><use xlink:href="#C" x="-28" y="14"/></g><g fill="#d9d9d9"><circle cx="51" cy="7" r="1"/><circle cx="47" cy="7" r="1"/><circle cx="43" cy="7" r="1"/><path d="M12 10h6v2h-6zm0-4h10v2H12zm15 45h10v2H27z"/></g><defs ><path id="B" d="M26 19h-2c-.55 0-1-.45-1-1 0-.29.22-1 1-1h2c.55 0 1 .45 1 1 0 .29-.22 1-1 1z"/><path id="C" d="M45 26v-2c0-.55.45-1 1-1 .29 0 1 .22 1 1v2c0 .55-.45 1-1 1-.29 0-1-.22-1-1z"/></defs></svg>