<svg xmlns="http://www.w3.org/2000/svg" viewBox="0 0 64 64" xmlns:v="https://vecta.io/nano"><path d="M55.98,17h-6c-1.34,0-1.29-2,0-2h6c1.34,0,1.29,2,0,2Z" fill="#d9d9d9"/><path d="M41.98 17h-6c-1.34 0-1.29-2 0-2h6c1.34 0 1.29 2 0 2zm28 0h-6c-1.34 0-1.29-2 0-2h6c1.34 0 1.29 2 0 2z" fill="#f3f3f3"/><rect width="64" height="50" rx="4" fill="#5e9fdf"/><path d="M44,60H20c2.75-2.75,4-6.21,4-10h16c0,4.08,1.44,7.44,4,10Z" fill="#1976d2"/><path d="M46 60H18c-.55 0-1-.45-1-1 0-.29.22-1 1-1h28c.55 0 1 .45 1 1 0 .29-.22 1-1 1z" fill="#5e9fdf"/><rect x="3" y="3" width="58" height="42" rx="2" fill="#fff"/><rect x="11" y="10" width="40" height="28" rx="1" fill="#d9d9d9"/><path d="M51 37a1.01 1.01 0 0 1-1 1H12c-.86 0-1.27-.98-.8-1.6l12-16c.37-.52 1.17-.53 1.57-.03l8.26 10.08 6.22-7.11a1 1 0 0 1 1.54.05C51.67 37.52 51 36.52 51 37z" fill="#1976d2"/><circle cx="38" cy="17" r="3" fill="#d38e2a"/><path d="M64 33v13a4 4 0 0 1-4 4H18v-5h41c1.1 0 2-.9 2-2V28.41c1.76.78 3 2.54 3 4.59z" fill="#1976d2"/><path d="M61 28.41V43c0 1.1-.9 2-2 2H18v-7h32c.55 0 1-.45 1-1v-9c8.58 0 8.71-.14 10 .41z" fill="#f3f3f3"/><path d="M35.17 28l-2.14 2.45L31.02 28h4.15z" fill="#5e9fdf"/><path d="M51 28v9c0-.47.36.14-6.66-9H51z" fill="#c8c8c8"/><path d="M51,37c0,.52-.43,1-1,1H18v-5c0-2.76,2.24-5,5-5h8.02l2.01,2.45,2.14-2.45h9.17c6.92,9.01,6.66,8.51,6.66,9Z" fill="#1976d2"/><path d="M62 33v25H20V33c0-1.66 1.34-3 3-3h36c1.66 0 3 1.34 3 3z" fill="#5e9fdf"/><path d="M64 59v2c0 1.66-1.34 3-3 3H21c-1.66 0-3-1.34-3-3v-2c0-.55.45-1 1-1h44c.55 0 1 .45 1 1z" fill="#1976d2"/><path d="M60 33v4H31l-4-5h32c.55 0 1 .45 1 1z" fill="#5e9fdf"/><path d="M60 37v19H22V33c0-.55.45-1 1-1h7.08c1.21 0 2.36.55 3.12 1.5l1.6 2c.86 1.03 1.97 1.5 3.12 1.5H60z" fill="#fff"/><path d="M46 60H36c-.81 0-2-.63-2-2h14c0 .81-.63 2-2 2z" fill="#f3f3f3"/><path d="M48 53H34c-.76 0-1.22-.81-.89-1.45l4-8a1 1 0 0 1 1.69-.15l2.31 3.08 2.18-2.19c.45-.45 1.23-.38 1.58.21l4 7c.37.68-.1 1.5-.87 1.5z" fill="#1976d2"/><circle cx="47" cy="41" r="2" fill="#d38e2a"/><path d="M24 40h10v2H24zm0 4h6v2h-6z" fill="#d9d9d9"/></svg>