<svg xmlns="http://www.w3.org/2000/svg" xmlns:xlink="http://www.w3.org/1999/xlink" viewBox="0 0 64 64" xmlns:v="https://vecta.io/nano"><path d="M4 4h56v56H4z" fill="#5e9fdf"/><g fill="#d38e2a"><rect width="8" height="8" rx="2"/><rect x="56" width="8" height="8" rx="2"/></g><g fill="#5e9fdf"><use xlink:href="#B"/><use xlink:href="#B" x="8"/><use xlink:href="#B" x="16"/><use xlink:href="#B" x="24"/><use xlink:href="#B" x="32"/><use xlink:href="#B" x="40"/></g><rect x="56" y="56" width="8" height="8" rx="2" transform="matrix(0 1 -1 0 120 0)" fill="#d38e2a"/><g fill="#5e9fdf"><use xlink:href="#C"/><use xlink:href="#C" y="8"/><use xlink:href="#C" y="16"/><use xlink:href="#C" y="24"/><use xlink:href="#C" y="32"/><use xlink:href="#C" y="40"/></g><rect y="56" width="8" height="8" rx="2" transform="matrix(-1 0 0 -1 8 120)" fill="#d38e2a"/><g fill="#5e9fdf"><use xlink:href="#D"/><use xlink:href="#D" x="-8"/><use xlink:href="#D" x="-16"/><use xlink:href="#D" x="-24"/><use xlink:href="#D" x="-32"/><use xlink:href="#D" x="-40"/><use xlink:href="#E"/><use xlink:href="#E" y="-8"/><use xlink:href="#E" y="-16"/><use xlink:href="#E" y="-24"/><use xlink:href="#E" y="-32"/><use xlink:href="#E" y="-40"/></g><rect x="15" y="15" width="34" height="34" rx="2" fill="#f3f3f3"/><path d="M46 47H18a1 1 0 0 1-.86-1.51l10-17c.42-.73 1.4-.59 1.74.03l5.21 9.55 3.08-4.62c.37-.56 1.29-.56 1.66 0l8 12c.44.63-.02 1.55-.83 1.55z" fill="#1976d2"/><circle cx="41" cy="24" r="3" fill="#d38e2a"/><g fill="#fff"><use xlink:href="#F"/><path d="M52,13c-.88,0-1.34-1.07-.71-1.71l2-2c.39-.39,1.02-.39,1.41,0s.39,1.02,0,1.41c-2.18,2.18-2.17,2.29-2.71,2.29Z"/><use xlink:href="#F" x="42" y="42"/><path d="M10,55c-.88,0-1.34-1.07-.71-1.71l2-2c.39-.39,1.02-.39,1.41,0s.39,1.02,0,1.41c-2.18,2.18-2.17,2.29-2.71,2.29Z"/></g><defs ><path id="B" d="M13 5h-2c-.55 0-1-.45-1-1 0-.29.22-1 1-1h2c.55 0 1 .45 1 1 0 .29-.22 1-1 1z"/><path id="C" d="M59 13v-2c0-.55.45-1 1-1 .29 0 1 .22 1 1v2c0 .55-.45 1-1 1-.29 0-1-.22-1-1z"/><path id="D" d="M51 59h2c.55 0 1 .45 1 1 0 .29-.22 1-1 1h-2c-.55 0-1-.45-1-1 0-.29.22-1 1-1z"/><path id="E" d="M5 51v2c0 .55-.45 1-1 1-.29 0-1-.22-1-1v-2c0-.55.45-1 1-1 .29 0 1 .22 1 1z"/><path id="F" d="M12 13c-.54 0-.57-.15-2.71-2.29-.39-.39-.39-1.02 0-1.41s1.02-.39 1.41 0l2 2a1.01 1.01 0 0 1-.71 1.71z"/></defs></svg>