<svg xmlns="http://www.w3.org/2000/svg" viewBox="0 0 64 64" xmlns:v="https://vecta.io/nano"><rect width="64" height="54" rx="4" fill="#5e9fdf"/><path d="M45 64H19l.31-.25A12.5 12.5 0 0 0 24 54h16a12.47 12.47 0 0 0 4.69 9.75L45 64z" fill="#1976d2"/><g fill="#5e9fdf"><rect x="18" y="62" width="28" height="2" rx="1"/><rect x="7" y="3" width="54" height="42" rx="1"/></g><path d="M61 8v40c0 .55-.45 1-1 1H4c-.55 0-1-.45-1-1V4c0-.55.45-1 1-1h16.08c1.21 0 2.36.55 3.12 1.5l1.6 2c.76.95 1.91 1.5 3.12 1.5H61z" fill="#fff"/><path d="M11 8l6 2v3.68c0 3.78-2.42 7.13-6 8.32h0c-3.58-1.19-6-4.55-6-8.32V10l6-2z" fill="#d9d9d9"/><path d="M43 28H21l2.39-12.72c.36-1.9 2.02-3.28 3.95-3.28h0c1.07 0 2.09.42 2.84 1.18L32 15l1.82-1.82c.75-.75 1.78-1.18 2.84-1.18h0c1.93 0 3.59 1.38 3.95 3.28L43 28z" fill="#d38e2a"/><g fill="#e4c290"><rect x="18" y="27" width="28" height="2" rx="1"/><rect x="18" y="36" width="28" height="2" rx="1"/></g><g fill="#d38e2a"><circle cx="25" cy="37" r="5"/><circle cx="39" cy="37" r="5"/></g><path d="M6 24h10v2H6zm44 12h8v2h-8zm-2 4h10v2H48zm0 4h10v2H48z" fill="#d9d9d9"/></svg>