<svg xmlns="http://www.w3.org/2000/svg" viewBox="0 0 64 64" xmlns:v="https://vecta.io/nano"><rect y="2" width="64" height="50" rx="4" fill="#5e9fdf"/><path d="M44,62H20c2.75-2.75,4-6.21,4-10h16c0,4.08,1.44,7.44,4,10Z" fill="#1976d2"/><path d="M46 62H18c-.55 0-1-.45-1-1 0-.29.22-1 1-1h28c.55 0 1 .45 1 1 0 .29-.22 1-1 1zM61 6v15H8V5h52c.55 0 1 .45 1 1z" fill="#5e9fdf"/><path d="M61 10v36c0 .55-.45 1-1 1H4c-.55 0-1-.45-1-1V6c0-.55.45-1 1-1l17 .11a3.98 3.98 0 0 1 2.2 1.39l1.6 2c.76.95 1.91 1.5 3.12 1.5H61z" fill="#fff"/><rect x="8" y="15" width="18" height="26" rx="2" fill="#d38e2a"/><g fill="#fff"><path d="M13 25v2h2v10h4V25h-6z"/><circle cx="17" cy="21" r="2"/></g><path d="M38 15h18v2H38zm-8 4h26v2H30zm0 4h26v2H30zm0 4h26v2H30zm0 4h26v2H30zm0 4h26v2H30zm0 4h16v2H30z" fill="#d9d9d9"/><circle cx="21" cy="8" r="1" fill="#d38e2a"/></svg>