<svg xmlns="http://www.w3.org/2000/svg" viewBox="0 0 64 64" xmlns:v="https://vecta.io/nano"><path d="M62,11V50H2V11c0-1.66,1.34-3,3-3H59c1.66,0,3,1.34,3,3Z" fill="#5e9fdf"/><path d="M1 50h62c.55 0 1 .45 1 1v2c0 1.66-1.34 3-3 3H3c-1.66 0-3-1.34-3-3v-2c0-.55.45-1 1-1z" fill="#1976d2"/><path d="M60 11v4H20l-4-5h43c.55 0 1 .45 1 1z" fill="#5e9fdf"/><path d="M60 15v33H4V11c0-.55.45-1 1-1h14.08c1.21 0 2.36.55 3.12 1.5l1.6 2c.86 1.03 1.97 1.5 3.12 1.5H60z" fill="#fff"/><path d="M39 52H25c-.81 0-2-.63-2-2h18c0 .81-.63 2-2 2z" fill="#f3f3f3"/><rect x="8" y="18" width="18" height="26" rx="2" fill="#d38e2a"/><g fill="#fff"><path d="M13 28v2h2v10h4V28h-6z"/><circle cx="17" cy="24" r="2"/></g><circle cx="20" cy="13" r="1" fill="#1976d2"/><path d="M38 18h18v2H38zm-8 4h26v2H30zm0 4h26v2H30zm0 4h26v2H30zm0 4h26v2H30zm0 4h26v2H30zm0 4h16v2H30z" fill="#d9d9d9"/></svg>