<?xml version="1.0" encoding="UTF-8"?><svg id="a" xmlns="http://www.w3.org/2000/svg" viewBox="0 0 64.01 64"><defs><style>.b{fill:#5e9fdf;}.c{fill:#e4c290;}.d{fill:#fdfdfd;}.e{fill:#d38e2a;}.f{fill:#1976d2;}</style></defs><path class="f" d="M40,55c0,4.97-8.95,9-20,9S0,59.97,0,55c0-7.43,18.62-11.45,31.45-7.37,5.17,1.62,8.55,4.32,8.55,7.37Z"/><path class="b" d="M62.47,1.53c1.96,1.96,2.06,5.12,.21,7.19L31,44l-11-11L55.28,1.33c2.07-1.85,5.23-1.76,7.19,.21h0Z"/><path class="f" d="M31.45,47.63c-.59,1.83-1.61,3.5-2.97,4.86-3.71,3.72-14.21,4.51-19.48,4.51-1.1,0-2-.9-2-2,0-1.63,.13-4.31,.42-6.99,6.94-2.55,16.81-2.67,24.03-.38Z"/><path class="e" d="M27.07,51.07c-3.18,3.19-13.58,3.93-18.07,3.93,0-4.48,.74-14.89,3.93-18.07,3.9-3.9,10.24-3.9,14.14,0s3.9,10.24,0,14.14Z"/><g><path class="f" d="M21,34l9,9c1.1,1.1,2.9,1.1,4,0s1.11-2.89,0-4l-9-9c-1.1-1.1-2.9-1.1-4,0s-1.11,2.89,0,4Z"/><ellipse class="f" cx="39" cy="55" rx="10" ry="6"/><path class="f" d="M14,18c0-3.31-6-10-6-10,0,0-6,6.69-6,10s2.69,6,6,6,6-2.69,6-6Z"/></g><path class="b" d="M8,22c-3.81,0-5.1-5-3-5,.55,0,1,.45,1,1,0,1.1,.9,2,2,2,1.32,0,1.32,2,0,2Z"/><path class="c" d="M21,41c.01,4.7-2.39,9.09-6.37,11.6l-3.7,2.35-1.93,.05s0-.44,.02-1.2l4.54-2.89c3.4-2.15,5.45-5.89,5.44-9.91,0-1.32,2-1.32,2,0Z"/><path class="d" d="M35,30c-.26,0-.51-.1-.71-.29-.39-.39-.39-1.02,0-1.41l9-9c.39-.39,1.02-.39,1.41,0s.39,1.02,0,1.41l-9,9c-.2,.2-.45,.29-.71,.29Z"/></svg>