<svg xmlns="http://www.w3.org/2000/svg" viewBox="0 0 64 64" xmlns:v="https://vecta.io/nano"><g fill="#d38e2a"><path d="M11.17 51H7c-.55 0-1-.45-1-1s.45-1 1-1h4.17a.99.99 0 0 0 .71-.29l3.41-3.41a.99.99 0 0 1 .71-.29h7c.55 0 1 .45 1 1s-.45 1-1 1h-6.59l-3.12 3.12a2.97 2.97 0 0 1-2.12.88z"/><path d="M5 47a3.01 3.01 0 0 1 3 3 3.01 3.01 0 0 1-3 3 3.01 3.01 0 0 1-3-3 3.01 3.01 0 0 1 3-3zm0 4c.55 0 1-.45 1-1s-.45-1-1-1-1 .45-1 1 .45 1 1 1zm18-14h-7c-.27 0-.52-.11-.71-.29l-3.41-3.41a.99.99 0 0 0-.71-.29H7c-.55 0-1-.45-1-1s.45-1 1-1h4.17c.8 0 1.56.31 2.12.88l3.12 3.12H23c.55 0 1 .45 1 1s-.45 1-1 1z"/><path d="M2 32a3.01 3.01 0 0 1 3-3 3.01 3.01 0 0 1 3 3 3.01 3.01 0 0 1-3 3 3.01 3.01 0 0 1-3-3zm2 0c0 .55.45 1 1 1s1-.45 1-1-.45-1-1-1-1 .45-1 1zm22 10H5c-.55 0-1-.45-1-1s.45-1 1-1h21c.55 0 1 .45 1 1s-.45 1-1 1z"/><path d="M0 41a3.01 3.01 0 0 1 3-3 3.01 3.01 0 0 1 3 3 3.01 3.01 0 0 1-3 3 3.01 3.01 0 0 1-3-3zm2 0c0 .55.45 1 1 1s1-.45 1-1-.45-1-1-1-1 .45-1 1zm55 10h-4.17a2.97 2.97 0 0 1-2.12-.88L47.59 47H41c-.55 0-1-.45-1-1s.45-1 1-1h7c.27 0 .52.11.71.29l3.41 3.41a.99.99 0 0 0 .71.29H57c.55 0 1 .45 1 1s-.45 1-1 1z"/><path d="M62 50a3.01 3.01 0 0 1-3 3 3.01 3.01 0 0 1-3-3 3.01 3.01 0 0 1 3-3 3.01 3.01 0 0 1 3 3zm-2 0c0-.55-.45-1-1-1s-1 .45-1 1 .45 1 1 1 1-.45 1-1zM48 37h-7c-.55 0-1-.45-1-1s.45-1 1-1h6.59l3.12-3.12a2.97 2.97 0 0 1 2.12-.88H57c.55 0 1 .45 1 1s-.45 1-1 1h-4.17a1.05 1.05 0 0 0-.71.29l-3.41 3.41a.99.99 0 0 1-.71.29z"/><path d="M59 35a3.01 3.01 0 0 1-3-3 3.01 3.01 0 0 1 3-3 3.01 3.01 0 0 1 3 3 3.01 3.01 0 0 1-3 3zm0-4c-.55 0-1 .45-1 1s.45 1 1 1 1-.45 1-1-.45-1-1-1zm0 11H38c-.55 0-1-.45-1-1s.45-1 1-1h21c.55 0 1 .45 1 1s-.45 1-1 1z"/><path d="M61,44c-1.65,0-3-1.35-3-3,0-1.65,1.35-3,3-3s3,1.35,3,3-1.35,3-3,3Zm0-4c-.55,0-1,.45-1,1s.45,1,1,1,1-.45,1-1c0-.55-.45-1-1-1Z"/></g><path d="M52 41c0 11.05-8.95 20-20 20s-20-8.95-20-20c0-4.06 1.21-7.84 3.3-11a19.95 19.95 0 0 1 10.45-8c1.97-.65 4.07-1 6.25-1s4.28.35 6.25 1a19.95 19.95 0 0 1 10.45 8c2.09 3.16 3.3 6.94 3.3 11z" fill="#f3f3f3"/><path d="M45 41c0 7.18-5.82 13-13 13s-13-5.82-13-13c0-4.64 2.43-8.7 6.08-11 2-1.27 4.38-2 6.92-2s4.92.73 6.92 2C42.57 32.3 45 36.36 45 41z" fill="#5e9fdf"/><circle cx="32" cy="41" r="8" fill="#1976d2"/><circle cx="37" cy="36" r="3" fill="#5e9fdf"/><path d="M48.7 30h-9.78c-2-1.27-4.38-2-6.92-2s-4.92.73-6.92 2H15.3a19.95 19.95 0 0 1 10.45-8h12.5a19.95 19.95 0 0 1 10.45 8z" fill="#d9d9d9"/><path d="M50 24H14l4.02-16.09C18.74 5.02 21.34 3 24.31 3h0c1.72 0 3.37.68 4.59 1.9L32 8l3.1-3.1C36.32 3.68 37.97 3 39.69 3h0c2.98 0 5.57 2.03 6.29 4.91L50 24z" fill="#d38e2a"/><path d="M38.92 30H25.08c2-1.27 4.38-2 6.92-2s4.92.73 6.92 2z" fill="#1976d2"/><rect x="9" y="24" width="46" height="4" rx="2" fill="#e4c290"/></svg>