<svg xmlns="http://www.w3.org/2000/svg" viewBox="0 0 64 64" xmlns:v="https://vecta.io/nano"><rect y="18" width="64" height="46" rx="3" fill="#1976d2"/><g fill="#f3f3f3"><path d="M32 18.41V61c-1.28-1.28-3.02-2-4.83-2H4V15h24.59c1.92 0 3.41 1.56 3.41 3.41z"/><path d="M32 18.41V61c1.28-1.28 3.02-2 4.83-2H60V15H35.41C33.49 15 32 16.56 32 18.41z"/></g><path d="M36 20h21v12H36zM8 19h12v18H8zm28 15h17v2H36zm0 4h21v2H36zm0 4h21v2H36zm0 4h21v2H36zm0 4h21v2H36zm0 4h21v2H36zM22 16h6v2h-6zm0 7h6v2h-6zm0 4h6v2h-6zm0 4h6v2h-6zm0 4h6v2h-6zm-12 4h18v2H10zm0 4h18v2H10zm0 4h18v2H10zm0 4h18v2H10z" fill="#d9d9d9"/><path d="M11 15v47l-2-2-2 2V15c0-1.1.9-2 2-2 .81 0 2 .63 2 2z" fill="#d38e2a"/><g fill="#5e9fdf"><path d="M43 10.8v7.61c0 .37-.2.7-.52.88l-9.56 5.22c-.57.31-1.27.33-1.85.03l-10.51-5.26a1 1 0 0 1-.55-.89v-7.58l12 5.2 11-5.2z"/><path d="M52 8l-20 8-20-8 20-8 20 8z"/></g><path d="M41 23V11.68l-9.37-3.75c-1.23-.49-.49-2.35.74-1.86l10 4A1 1 0 0 1 43 11v12c0 1.32-2 1.32-2 0z" fill="#1976d2"/></svg>