<svg xmlns="http://www.w3.org/2000/svg" xmlns:xlink="http://www.w3.org/1999/xlink" viewBox="0 0 64 64" xmlns:v="https://vecta.io/nano"><path d="M60 30l-.03 1c-.06 2-.31 3.95-.75 5.84-.68 2.9-1.79 5.65-3.25 8.16l-1.26 2c-3.42 4.98-8.3 8.87-14.03 11.05C37.36 59.31 33.76 60 30 60c-10.26 0-19.31-5.14-24.71-13a25.85 25.85 0 0 1-1.26-2 29.48 29.48 0 0 1-4-14c-.02-.33-.03-.66-.03-1s.01-.67.03-1a29.48 29.48 0 0 1 4-14 25.85 25.85 0 0 1 1.26-2C10.69 5.14 19.74 0 30 0s19.31 5.14 24.71 13a25.85 25.85 0 0 1 1.26 2 29.48 29.48 0 0 1 4 14c.02.33.03.66.03 1z" fill="#1976d2"/><path d="M48.97 31h11l.03-1-.03-1h-11c-.13-5.05-1.27-9.74-3.38-14h10.38a25.85 25.85 0 0 0-1.26-2H44.5C41.56 8.01 37.21 3.69 31.53.15a1.01 1.01 0 0 0-1.06 0C24.79 3.69 20.44 8.01 17.5 13H5.29a25.85 25.85 0 0 0-1.26 2h12.38c-2.11 4.26-3.25 8.95-3.38 14h-13c-.02.33-.03.66-.03 1s.01.67.03 1h13c.13 5.05 1.27 9.74 3.38 14H4.03a25.85 25.85 0 0 0 1.26 2H17.5c2.94 4.99 7.29 9.31 12.97 12.85.16.1.35.15.53.15s.37-.05.53-.15c2.77-1.72 5.22-3.63 7.34-5.72 2.24-2.19 4.12-4.57 5.63-7.13h10.21a25.85 25.85 0 0 0 1.26-2H45.59c1.51-3.04 2.52-6.31 3.02-9.76a36.91 36.91 0 0 0 .36-4.24zM31 2.18c3.85 2.47 8 6 11.12 10.82H19.88C23 8.18 27.15 4.65 31 2.18zM18.7 15h24.6c2.1 3.87 3.51 8.5 3.66 14H15.04c.15-5.5 1.56-10.13 3.66-14zm19.59 36.84c-2.33 2.45-4.87 4.43-7.29 5.98-3.85-2.47-8-6-11.12-10.82h22.24c-1.16 1.79-2.46 3.4-3.83 4.84zM43.3 45H18.7c-2.1-3.87-3.51-8.5-3.66-14h31.92a33.46 33.46 0 0 1-.54 5.15c-.61 3.32-1.71 6.25-3.12 8.85z" fill="#5e9fdf"/><g fill="#1976d2"><path d="M59.22 36.84c-.68 2.9-1.79 5.65-3.25 8.16H45.59c1.51-3.04 2.52-6.31 3.02-9.76l1.85-.77a4.06 4.06 0 0 1 1.54-.3 4.06 4.06 0 0 1 1.54.3l5.68 2.37zM54.71 47c-3.42 4.98-8.3 8.87-14.03 11.05-.76-1.21-1.37-2.53-1.81-3.92 2.24-2.19 4.12-4.57 5.63-7.13h10.21zm-12.59 0c-1.16 1.79-2.46 3.4-3.83 4.84-.19-1.05-.29-2.12-.29-3.21V47h4.12zm4.3-10.85c-.61 3.32-1.71 6.25-3.12 8.85H38v-2.67a3.99 3.99 0 0 1 2.46-3.69l5.96-2.49z"/><path d="M55.97 45l-1.26 2H44.5c-1.51 2.56-3.39 4.94-5.63 7.13-.25-.74-.44-1.51-.58-2.29 1.37-1.44 2.67-3.05 3.83-4.84H38v-2h5.3c1.41-2.6 2.51-5.53 3.12-8.85l2.19-.91c-.5 3.45-1.51 6.72-3.02 9.76h10.38z"/></g><path d="M64 42.33v6.3C64 55.9 59.05 62.24 52 64h0c-7.05-1.76-12-8.1-12-15.37v-6.3a2.01 2.01 0 0 1 1.23-1.85l10-4.17a1.96 1.96 0 0 1 1.54 0l10 4.17c.75.31 1.23 1.04 1.23 1.85z" fill="#d38e2a"/><path d="M51 53c-.26 0-.51-.1-.71-.29l-3-3c-.39-.39-.39-1.02 0-1.41s1.02-.39 1.41 0l2.29 2.29 4.29-4.29c.39-.39 1.02-.39 1.41 0s.39 1.02 0 1.41l-5 5a.98.98 0 0 1-.71.29z" fill="#f3f3f3"/><path d="M52 62c-.11 0-.21-.02-.32-.05C45.89 60.02 42 54.62 42 48.51V43c0-.4.23-.75.59-.91l9-4c.26-.12.55-.12.81 0l9 4a1 1 0 0 1 .59.91v5.51c0 6.11-3.89 11.5-9.68 13.44-.1.03-.21.05-.32.05zm-8-18.35v4.86c0 5.13 3.2 9.68 8 11.43 4.8-1.75 8-6.3 8-11.43v-4.86l-8-3.56-8 3.56z" fill="#e4c290"/><g fill="#5e9fdf"><use xlink:href="#B"/><use xlink:href="#B" x="26"/><use xlink:href="#C"/><path d="M17.3,49c-1.65,0-3-1.35-3-3s1.35-3,3-3,3,1.35,3,3-1.35,3-3,3Zm0-4c-.55,0-1,.45-1,1s.45,1,1,1,1-.45,1-1-.45-1-1-1Z"/><use xlink:href="#C" x="34"/></g><defs ><path id="B" d="M18.3,17c-1.65,0-3-1.35-3-3s1.35-3,3-3,3,1.35,3,3-1.35,3-3,3Zm0-4c-.55,0-1,.45-1,1s.45,1,1,1,1-.45,1-1-.45-1-1-1Z"/><path id="C" d="M14.3,33c-1.65,0-3-1.35-3-3s1.35-3,3-3,3,1.35,3,3-1.35,3-3,3Zm0-4c-.55,0-1,.45-1,1s.45,1,1,1,1-.45,1-1-.45-1-1-1Z"/></defs></svg>