<svg xmlns="http://www.w3.org/2000/svg" viewBox="0 0 64 64" xmlns:v="https://vecta.io/nano"><g fill="#5e9fdf"><path d="M64 32c0 17.73-14.37 32-32 32S0 49.67 0 32C0 15.68 12.22 2.21 28 .25 46.9-2.2 64 12.62 64 32z"/><path d="M32 56.5V64C14.33 64 0 49.67 0 32h5.66c1.48 0 2.89.66 3.84 1.8l2 2.4c.95 1.14 2.36 1.8 3.84 1.8h4.16c1.57 0 3.06.74 4 2 4.36 5.82 4.5 5.48 4.5 8.5 0 1.57.74 3.06 2 4s2 2.43 2 4zM64 32a31.92 31.92 0 0 1-9.62 22.88l-2.14-.43c-1.39-.28-2.52-1.28-2.96-2.62l-.38-1.14c-.54-1.61-2.04-2.69-3.74-2.69a3.95 3.95 0 0 1-3.32-1.82c-5.3-8.34-5.12-7.95-5.33-8.68-.44-1.42-.04-2.14 1.07-6.03a3.89 3.89 0 0 0-.27-2.84l-2.94-5.89c-.45-.92-.63-.96-4.95-4.56A3.94 3.94 0 0 1 28 15.16V.25C46.9-2.2 64 12.62 64 32z"/><path d="M54.38 54.88c-3.69 3.69-8.95 6.81-14.85 8.23-8.68-5.83-10.08-17.99-3.02-25.61.21.73 0 .3 5.33 8.68A3.95 3.95 0 0 0 45.16 48c1.7 0 3.2 1.08 3.74 2.69l.38 1.14c.44 1.34 1.57 2.34 2.96 2.62l2.14.43z"/></g><path d="M63.11 39.53L63 40c-.21 0-1.28 7.69-8.62 14.88-.51-.11-.09-.02-2.14-.43-1.39-.28-2.52-1.28-2.96-2.62l-.38-1.14c-.54-1.61-2.04-2.69-3.74-2.69a3.95 3.95 0 0 1-3.32-1.82c-5.1-8.02-5.11-7.89-5.33-8.68 7.47-8.14 20.49-7.06 26.6 2.03z" fill="#1976d2"/><circle cx="49" cy="49" r="15" fill="#e4c290"/><circle cx="49" cy="49" r="12" fill="#d38e2a"/><g fill="#fff"><path d="M45 56c-.55 0-1-.45-1-1V44c0-.55.45-1 1-1s1 .45 1 1v11c0 .55-.45 1-1 1z"/><path d="M48 47c-.55 0-.54-.13-3-2.59l-2.29 2.29c-.39.39-1.02.39-1.41 0s-.39-1.02 0-1.41l3-3c.39-.39 1.02-.39 1.41 0l3 3A1.01 1.01 0 0 1 48 47zm5 8c-.55 0-1-.45-1-1V43c0-.55.45-1 1-1s1 .45 1 1v11c0 .55-.45 1-1 1z"/><path d="M52.29 55.71l-3-3c-.39-.39-.39-1.02 0-1.41s1.02-.39 1.41 0l2.29 2.29 2.29-2.29c.39-.39 1.02-.39 1.41 0s.39 1.02 0 1.41l-3 3c-.39.39-1.02.39-1.41 0z"/></g></svg>