<svg xmlns="http://www.w3.org/2000/svg" viewBox="0 0 64 64" xmlns:v="https://vecta.io/nano"><rect x="2" y="6" width="60" height="48" rx="4" fill="#5e9fdf"/><rect x="5" y="9" width="54" height="40" rx="1" fill="#fff"/><path d="M44,64H20c2.75-2.75,4-6.21,4-10h16c0,4.08,1.44,7.44,4,10Z" fill="#1976d2"/><path d="M45 64H19c-.55 0-1-.45-1-1 0-.29.22-1 1-1h26c.55 0 1 .45 1 1 0 .29-.22 1-1 1z" fill="#5e9fdf"/><path d="M48.59 9H15.41c.45-1.06 1-2.06 1.64-3h29.9c.64.94 1.19 1.94 1.64 3z" fill="#1976d2"/><path d="M32 34C19.11 34 10.42 20.78 15.41 9h33.18C53.57 20.77 44.9 34 32 34z" fill="#f3f3f3"/><circle cx="32" cy="16" r="16" fill="#d38e2a"/><path d="M48,44H16c-1.66,0-3-1.34-3-3s1.34-3,3-3H48c1.66,0,3,1.34,3,3s-1.34,3-3,3Z" fill="#f3f3f3"/><path d="M39 42H16c-.55 0-1-.45-1-1 0-.29.22-1 1-1h23v2z" fill="#d9d9d9"/><path d="M41.06 10h5.77c-.27-.69-.6-1.36-.97-2h-5.57c-1.38-3.08-3.54-5.81-6.35-7.88a15.74 15.74 0 0 0-3.88 0C27.25 2.2 25.09 4.92 23.71 8h-5.57c-.37.64-.7 1.31-.97 2h5.77c-1.21 3.79-1.3 7.94 0 12h-5.77c.27.69.6 1.36.97 2h5.57c1.38 3.08 3.54 5.8 6.35 7.88a15.74 15.74 0 0 0 3.88 0c2.81-2.07 4.97-4.8 6.35-7.88h5.57c.37-.64.7-1.31.97-2h-5.77c1.21-3.79 1.3-7.94 0-12zM32 1.19C34.64 2.95 36.7 5.3 38.08 8H25.92C27.3 5.3 29.36 2.95 32 1.19zm0 29.62c-2.64-1.76-4.7-4.11-6.08-6.81h12.16c-1.38 2.7-3.44 5.05-6.08 6.81zM38.94 22H25.06a17.49 17.49 0 0 1 0-12h13.88a17.49 17.49 0 0 1 0 12z" fill="#e4c290"/></svg>