<svg xmlns="http://www.w3.org/2000/svg" viewBox="0 0 64 64" xmlns:v="https://vecta.io/nano"><path d="M54.63 45C43.11 63.14 16.32 62.11 6.2 43a28.02 28.02 0 0 1 0-26C16.36-2.18 43.16-3.07 54.63 15c5.82 8.8 5.8 21.24 0 30z" fill="#1976d2"/><path d="M46.97 31h12a16.68 16.68 0 0 0 0-2h-12c-.12-4.28-1-8.29-2.62-12H55.8c-.36-.68-.74-1.35-1.17-2H43.39C41.21 10.85 38.07 7.14 34 3.96v2.59c2.58 2.21 5.11 5 7.09 8.45H34v2h8.15c1.62 3.4 2.68 7.38 2.81 12H3.03a16.68 16.68 0 0 0 0 2h12c.12 4.28 1 8.29 2.62 12H6.2c.36.68.74 1.35 1.17 2h11.24c2.6 4.94 6.56 9.26 11.83 12.83.35.22.76.23 1.12 0 4.92-3.33 9.06-7.58 11.83-12.83h11.24c.43-.65.81-1.32 1.17-2H44.35c1.67-3.83 2.49-7.87 2.62-12zM31 55.79c-3.53-2.48-7.34-6-10.09-10.79h20.18C38.6 49.33 35.07 52.93 31 55.79zM42.15 43h-22.3c-1.62-3.4-2.68-7.38-2.81-12h27.92c-.12 4.16-1.01 8.22-2.81 12z" fill="#5e9fdf"/><g fill="#1976d2"><path d="M41.09 45c-1.46 2.54-3.22 4.73-5.08 6.59-.1-1.98.27-4.37 1.25-6.59h3.83zm13.54 0c-3.86 6.08-10.01 10.58-17.25 12.27-.47-1.01-.83-2.08-1.06-3.19 2.96-2.72 5.32-5.76 7.07-9.08h11.24zm3.29-7.3c-.52 1.85-1.24 3.63-2.12 5.3H44.35a30.38 30.38 0 0 0 1.96-6.24c3.67-1.24 7.94-.99 11.61.94zm-13.88.02A27.88 27.88 0 0 1 42.15 43h-3.83c1.41-2.22 3.38-4.05 5.72-5.28z"/><path d="M55.8 43l-1.17 2H43.39c-1.75 3.32-4.11 6.36-7.07 9.08-.17-.81-.28-1.64-.31-2.49 1.86-1.86 3.62-4.05 5.08-6.59h-3.83c.3-.7.65-1.37 1.06-2h3.83a27.88 27.88 0 0 0 1.89-5.28 12.99 12.99 0 0 1 2.27-.96A30.38 30.38 0 0 1 44.35 43H55.8z"/></g><circle cx="51" cy="51" r="13" fill="#e4c290"/><circle cx="51" cy="51" r="10" fill="#d38e2a"/><path d="M47 55c-.26 0-.51-.1-.71-.29l-3-3c-.39-.39-.39-1.02 0-1.41l3-3c.39-.39 1.02-.39 1.41 0s.39 1.02 0 1.41L45.41 51l2.29 2.29a1.01 1.01 0 0 1-.71 1.71zm8 0c-.88 0-1.34-1.07-.71-1.71L56.58 51l-2.29-2.29c-.39-.39-.39-1.02 0-1.41s1.02-.39 1.41 0l3 3c.39.39.39 1.02 0 1.41l-3 3a.98.98 0 0 1-.71.29zm-5 2c-.63 0-1.1-.58-.98-1.2l2-10c.11-.54.63-.89 1.18-.78a1 1 0 0 1 .78 1.18l-2 10c-.09.48-.51.8-.98.8z" fill="#fff"/><g fill="#1976d2"><path d="M20.91 15H34v2H19.85c-1.62 3.4-2.68 7.38-2.81 12h-2.01c.12-4.28 1-8.29 2.62-12H6.2c.36-.68.74-1.35 1.17-2h11.24c2.6-4.94 6.56-9.26 11.83-12.83.34-.22.76-.23 1.12 0 .85.58 1.66 1.17 2.44 1.79v2.59c-1-.87-2.01-1.65-3-2.34-3.53 2.48-7.34 6-10.09 10.79z"/><path d="M17.65 17c-1.62 3.71-2.5 7.72-2.62 12h-12A27.62 27.62 0 0 1 6.2 17h11.45zM34 2.16v1.8l-2.44-1.79C31.39 2.06 31.2 2 31 2c1.01 0 2.02.05 3 .16zm-3 2.05c.99.69 2 1.47 3 2.34V15H20.91C23.66 10.21 27.47 6.69 31 4.21zM19.85 17H34v8a4 4 0 0 1-4 4H17.04c.13-4.62 1.19-8.6 2.81-12z"/></g><path d="M14,0H30c1.1,0,2,.9,2,2v2H14V0h0Z" fill="#5e9fdf"/><path d="M32 4v21c0 1.1-.9 2-2 2H2c-1.1 0-2-.9-2-2V2C0 .9.9 0 2 0h11c.63 0 1.22.3 1.6.8l1.8 2.4c.38.5.97.8 1.6.8h14z" fill="#f3f3f3"/><path d="M10 7h2v16h-2z" fill="#d9d9d9"/><path d="M3 9h4v2H3zm0 5h4v2H3zm0 5h4v2H3zM15 9h5v2h-5z" fill="#5e9fdf"/><path d="M23 9h6v2h-6zm-8 5h6v2h-6z" fill="#d38e2a"/><path d="M24 14h3v2h-3zm-9 5h4v2h-4zm7 0h7v2h-7z" fill="#5e9fdf"/></svg>