<svg xmlns="http://www.w3.org/2000/svg" viewBox="0 0 64 64" xmlns:v="https://vecta.io/nano"><path d="M22.83 4.49c-1.31.43-2.58.96-3.8 1.58-.54.27-.68.97-.33 1.47.41.57 1.02.42 1.26.31a26.4 26.4 0 0 1 3.47-1.44c.46-.15.76-.6.68-1.08v-.02c-.1-.6-.7-1-1.28-.81zM5.32 39.89H5.3c-.6.1-1 .7-.81 1.28.43 1.31.96 2.58 1.58 3.8.27.54.98.68 1.47.32.57-.41.42-1.03.3-1.25a26.4 26.4 0 0 1-1.44-3.47c-.15-.46-.6-.76-1.08-.68zm38.72 16.27a26.4 26.4 0 0 1-3.47 1.44c-.46.15-.76.6-.68 1.08v.02c.1.6.7 1 1.28.81 1.31-.43 2.58-.96 3.8-1.58.54-.27.68-.97.33-1.47-.41-.57-1.02-.42-1.26-.31zm15.47-33.33c-.43-1.31-.96-2.58-1.58-3.8-.27-.54-.98-.68-1.47-.32-.57.41-.42 1.02-.3 1.25a26.4 26.4 0 0 1 1.44 3.47c.15.46.6.76 1.08.68h.02c.6-.1 1-.7.81-1.28zm-3.07 22.45h.02c.5.37 1.2.23 1.47-.31.62-1.22 1.14-2.49 1.58-3.8.19-.58-.21-1.17-.81-1.27-.69-.11-1.02.43-1.1.67-.4 1.2-.88 2.36-1.44 3.47-.22.43-.11.96.29 1.24zM18.71 56.44v.02c-.37.5-.23 1.2.31 1.47a29.51 29.51 0 0 0 3.8 1.58c.58.19 1.17-.21 1.27-.81.12-.69-.43-1.02-.67-1.1-1.2-.4-2.36-.88-3.47-1.44-.43-.22-.96-.11-1.24.29zM6.07 19.03c-.62 1.22-1.14 2.49-1.58 3.8-.19.58.21 1.17.81 1.27.69.11 1.02-.43 1.1-.67.4-1.2.88-2.36 1.44-3.47.22-.43.11-.96-.29-1.24h-.02c-.5-.37-1.2-.23-1.47.31zM39.9 5.3c-.11.69.43 1.02.67 1.1 1.2.4 2.36.88 3.47 1.44.43.22.96.11 1.24-.29v-.02c.37-.5.23-1.2-.31-1.47a29.51 29.51 0 0 0-3.8-1.58c-.58-.19-1.17.21-1.27.81z" fill="#d9d9d9"/><circle cx="32" cy="32" r="17" fill="#5e9fdf"/><path d="M32 8a4 4 0 1 1 0-8 4 4 0 1 1 0 8zM15.03 9.37c-1.56-1.56-4.09-1.56-5.66 0s-1.56 4.09 0 5.66 4.09 1.56 5.66 0 1.56-4.09 0-5.66zM4 28a4 4 0 1 0 0 8 4 4 0 1 0 0-8zm5.37 20.97c-1.56 1.56-1.56 4.09 0 5.66s4.09 1.56 5.66 0 1.56-4.09 0-5.66-4.09-1.56-5.66 0zM28 60a4 4 0 1 0 8 0 4 4 0 1 0-8 0zm20.97-5.37c1.56 1.56 4.09 1.56 5.66 0s1.56-4.09 0-5.66c-1.56-1.56-4.09-1.56-5.66 0s-1.56 4.09 0 5.66zM60 36a4 4 0 1 0 0-8 4 4 0 1 0 0 8zm-5.37-20.97c1.56-1.56 1.56-4.09 0-5.66s-4.09-1.56-5.66 0c-1.56 1.56-1.56 4.09 0 5.66s4.09 1.56 5.66 0z" fill="#d38e2a"/><g fill="#fff"><circle cx="32" cy="38" r="2"/><path d="M36.24 35.76c-.26 0-.51-.1-.71-.3-1.93-1.95-5.12-1.96-7.06 0-.39.39-1.02.39-1.41 0s-.4-1.02 0-1.41a6.99 6.99 0 0 1 9.9 0c.63.63.17 1.7-.71 1.7zm2.83-2.83c-.26 0-.51-.1-.71-.29-3.52-3.52-9.21-3.52-12.73 0-.39.39-1.02.39-1.41 0s-.39-1.02 0-1.41c4.3-4.3 11.25-4.3 15.55 0a1.01 1.01 0 0 1-.71 1.71zm2.83-2.83c-.26 0-.51-.1-.71-.29a13 13 0 0 0-18.39 0c-.39.39-1.02.39-1.41 0s-.39-1.02 0-1.41c5.88-5.86 15.33-5.86 21.21 0 .63.63.18 1.71-.71 1.71z"/></g></svg>