<svg xmlns="http://www.w3.org/2000/svg" viewBox="0 0 64 64" xmlns:v="https://vecta.io/nano"><g fill="#d38e2a"><path d="M22.17 60H17c-.55 0-1-.45-1-1s.45-1 1-1h5.17a.99.99 0 0 0 .71-.29l3.41-3.41a.99.99 0 0 1 .71-.29h7c.55 0 1 .45 1 1s-.45 1-1 1h-6.59l-3.12 3.12a2.97 2.97 0 0 1-2.12.88z"/><path d="M15 56a3.01 3.01 0 0 1 3 3 3.01 3.01 0 0 1-3 3 3.01 3.01 0 0 1-3-3 3.01 3.01 0 0 1 3-3zm0 4c.55 0 1-.45 1-1s-.45-1-1-1-1 .45-1 1 .45 1 1 1zm19-18h-7c-.23 0-.45-.08-.62-.22l-4.45-3.56a1.02 1.02 0 0 0-.62-.22h-4.3c-.55 0-1-.45-1-1s.45-1 1-1h4.3a2.99 2.99 0 0 1 1.88.66L27.37 40h6.65c.55 0 1 .45 1 1s-.45 1-1 1zm3 7H17c-.55 0-1-.45-1-1s.45-1 1-1h20c.55 0 1 .45 1 1s-.45 1-1 1z"/><path d="M12 37a3.01 3.01 0 0 1 3-3 3.01 3.01 0 0 1 3 3 3.01 3.01 0 0 1-3 3 3.01 3.01 0 0 1-3-3zm2 0c0 .55.45 1 1 1s1-.45 1-1-.45-1-1-1-1 .45-1 1zm-2 11a3.01 3.01 0 0 1 3-3 3.01 3.01 0 0 1 3 3 3.01 3.01 0 0 1-3 3 3.01 3.01 0 0 1-3-3zm2 0c0 .55.45 1 1 1s1-.45 1-1-.45-1-1-1-1 .45-1 1z"/></g><path d="M31 27h8v33a4 4 0 0 1-4 4h0a4 4 0 0 1-4-4V27h0z" fill="#5e9fdf"/><path d="M46.11 51.59L44 53l2.11 1.41c.56.37.89 1 .89 1.66V57c0 1.1-.9 2-2 2h-6V47h6c1.1 0 2 .9 2 2v.93a1.98 1.98 0 0 1-.89 1.66z" fill="#1976d2"/><circle cx="35" cy="17" r="17" fill="#5e9fdf"/><path d="M48 17l-.04 1a12.85 12.85 0 0 1-1.43 5c-.37.71-.8 1.38-1.29 2-1.76 2.27-4.27 3.93-7.15 4.63-.99.24-2.03.37-3.09.37s-2.1-.13-3.09-.37c-2.88-.7-5.39-2.36-7.15-4.63-.49-.62-.92-1.29-1.29-2-.79-1.52-1.3-3.21-1.42-5a8.27 8.27 0 0 1-.05-1 8.27 8.27 0 0 1 .05-1c.12-1.79.63-3.48 1.42-5 .37-.71.8-1.38 1.29-2 1.76-2.27 4.27-3.93 7.15-4.63C32.9 4.13 33.94 4 35 4s2.1.13 3.09.37c2.88.7 5.39 2.36 7.15 4.63.49.62.92 1.29 1.29 2a12.85 12.85 0 0 1 1.43 5c.03.33.04.66.04 1z" fill="#f3f3f3"/><path d="M47.96 18c.03-.33.04-.66.04-1l-.04-1h-4.99c-.1-1.7-.45-3.39-1-5h4.56c-.37-.71-.8-1.38-1.29-2h-4.07c-.81-1.71-1.85-3.29-3.08-4.63C37.1 4.13 36.06 4 35 4s-2.1.13-3.09.37C30.68 5.71 29.64 7.29 28.83 9h-4.07c-.49.62-.92 1.29-1.29 2h4.56c-.55 1.61-.9 3.3-1 5h-4.98a8.27 8.27 0 0 0-.05 1 8.27 8.27 0 0 0 .05 1h4.98c.1 1.7.45 3.39 1 5h-4.56c.37.71.8 1.38 1.29 2h4.07c.81 1.71 1.85 3.29 3.08 4.63.99.24 2.03.37 3.09.37s2.1-.13 3.09-.37c1.23-1.34 2.27-2.92 3.08-4.63h4.07c.49-.62.92-1.29 1.29-2h-4.56c.55-1.61.9-3.3 1-5h4.99zM35 4.23c1.58 1.22 2.91 2.88 3.92 4.77h-7.84c1.01-1.89 2.34-3.55 3.92-4.77zm0 25.54c-1.58-1.22-2.91-2.88-3.92-4.77h7.84c-1.01 1.89-2.34 3.55-3.92 4.77zM39.84 23h-9.68c-.62-1.6-.99-3.29-1.1-5h11.88c-.11 1.71-.48 3.4-1.1 5zm-10.78-7c.11-1.71.48-3.4 1.1-5h9.68c.62 1.6.99 3.29 1.1 5H29.06z" fill="#5e9fdf"/></svg>