<svg xmlns="http://www.w3.org/2000/svg" viewBox="0 0 64 64" xmlns:v="https://vecta.io/nano"><path d="M2 34h60c1.1 0 2 .9 2 2v24H0V36c0-1.1.9-2 2-2z" fill="#5e9fdf"/><path d="M62 64H2c-1.1 0-2-.9-2-2v-2h64v2c0 1.1-.9 2-2 2z" fill="#1976d2"/><g fill="#f3f3f3"><rect x="3" y="36" width="4" height="4" rx="1"/><rect x="3" y="48" width="8" height="4" rx="1"/><rect x="3" y="54" width="4" height="4" rx="1"/><rect x="9" y="54" width="4" height="4" rx="1"/><rect x="51" y="54" width="4" height="4" rx="1"/><rect x="57" y="54" width="4" height="4" rx="1"/><rect x="9" y="36" width="4" height="4" rx="1"/><rect x="11" y="42" width="4" height="4" rx="1"/><rect x="13" y="48" width="4" height="4" rx="1"/><rect x="19" y="48" width="4" height="4" rx="1"/><rect x="25" y="48" width="4" height="4" rx="1"/><rect x="31" y="48" width="4" height="4" rx="1"/><rect x="37" y="48" width="4" height="4" rx="1"/><rect x="43" y="48" width="4" height="4" rx="1"/><rect x="17" y="42" width="4" height="4" rx="1"/><rect x="23" y="42" width="4" height="4" rx="1"/><rect x="29" y="42" width="4" height="4" rx="1"/><rect x="35" y="42" width="4" height="4" rx="1"/><rect x="41" y="42" width="4" height="4" rx="1"/><rect x="15" y="36" width="4" height="4" rx="1"/><rect x="21" y="36" width="4" height="4" rx="1"/><rect x="27" y="36" width="4" height="4" rx="1"/><rect x="33" y="36" width="4" height="4" rx="1"/><rect x="39" y="36" width="4" height="4" rx="1"/><rect x="45" y="36" width="4" height="4" rx="1"/><rect x="47" y="42" width="4" height="4" rx="1"/><rect x="49" y="48" width="4" height="4" rx="1"/><rect x="51" y="36" width="4" height="4" rx="1"/><rect x="57" y="36" width="4" height="4" rx="1"/><rect x="3" y="42" width="6" height="4" rx="1"/><rect x="53" y="42" width="8" height="4" rx="1"/><rect x="55" y="48" width="6" height="4" rx="1"/><rect x="15" y="54" width="34" height="4" rx="1"/></g><path d="M34 8c0 20.63.12 19.34-.27 20-.35.6-.99 1-1.73 1H18l-3 3-3-3H6c-1.1 0-2-.9-2-2V8c0-1.1.9-2 2-2h26c1.1 0 2 .9 2 2z" fill="#d38e2a"/><path d="M34 8c0 20.63.12 19.34-.27 20H29c-2.76 0-5-2.24-5-5V6h8c1.1 0 2 .9 2 2z" fill="#e4c290"/><path d="M26 3v20c0 1.66 1.34 3 3 3h17l3 3 3-3h5c1.66 0 3-1.34 3-3V3c0-1.66-1.34-3-3-3H29c-1.66 0-3 1.34-3 3z" fill="#1976d2"/><circle cx="33" cy="13" r="3" fill="#f3f3f3"/><g fill="#5e9fdf"><circle cx="43" cy="13" r="3"/><circle cx="53" cy="13" r="3"/></g></svg>