<svg xmlns="http://www.w3.org/2000/svg" viewBox="0 0 64 64" xmlns:v="https://vecta.io/nano"><path d="M14,53c0,3.87,3.13,7,7,7H62c1.1,0,2,.9,2,2,0,.81-.63,2-2,2H21c-6.08,0-11-4.92-11-11s4.92-11,11-11H62c1.1,0,2,.9,2,2,0,.81-.63,2-2,2H21c-3.87,0-7,3.13-7,7Z" fill="#5e9fdf"/><path d="M62 60H21c-1.94 0-3.68-.78-4.95-2.05C11.68 53.58 14.75 46 21 46h41c-3.87 0-7 3.13-7 7s3.13 7 7 7z" fill="#f3f3f3"/><path d="M64 33c0 4.97-4.03 9-9 9H24c-1.78 0-2.67-2.19-1.41-3.41.82-.84-1.31-.59 32.41-.59 4.47 0 6.65-5.39 3.54-8.54A5.02 5.02 0 0 0 55 28H24c-1.78 0-2.67-2.19-1.41-3.41.82-.84-1.31-.59 32.41-.59 4.97 0 9 4.03 9 9z" fill="#d38e2a"/><path d="M60,33c0,2.76-2.24,5-5,5H24c2.75,0,5-2.23,5-5s-2.24-5-5-5h31c2.76,0,5,2.23,5,5Z" fill="#f3f3f3"/><path d="M37.08,24c-.42,1.37-1.06,2.79-1.77,4h-11.31c-1.1,0-2-.9-2-2s.89-2,2-2h13.08Z" fill="#e4c290"/><path d="M35.31 28c-1.59 2.75-3.86 5.2-6.71 6.96C29.99 31.75 27.64 28 24 28h11.31z" fill="#d9d9d9"/><circle cx="18" cy="18" r="18" fill="#5e9fdf"/><path d="M28.15 12h6.82c-.23-.65-.51-1.34-.85-2h-6.65A22.01 22.01 0 0 0 19.76.09c-1.02-.11-2.37-.12-3.52 0-3.48 2.48-6.16 5.95-7.71 9.91H1.88a17.12 17.12 0 0 0-.85 2h6.82c-1.1 3.8-1.17 7.94 0 12H1.03c.23.65.51 1.34.85 2h6.65c1.55 3.97 4.23 7.43 7.7 9.91 1.1.11 2.4.12 3.54 0 3.47-2.48 6.15-5.95 7.7-9.91h6.65c.34-.65.62-1.35.85-2h-6.82c1.1-3.8 1.17-7.95 0-12zM18 1.32A20.05 20.05 0 0 1 25.32 10H10.68A20.05 20.05 0 0 1 18 1.32zm0 33.36A20.05 20.05 0 0 1 10.68 26h14.64A20.05 20.05 0 0 1 18 34.68zM26.06 24H9.94c-1.21-3.83-1.3-7.9 0-12h16.12a19.66 19.66 0 0 1 0 12z" fill="#f3f3f3"/><g fill="#d38e2a"><circle cx="27" cy="11" r="3"/><circle cx="9" cy="25" r="2"/></g></svg>