<?xml version="1.0" encoding="UTF-8"?><svg id="a" xmlns="http://www.w3.org/2000/svg" viewBox="0 0 54 64"><defs><style>.b{fill:#5e9fdf;}.c{fill:#d38e2a;}.d{fill:#1976d2;}</style></defs><path class="c" d="M33,27c0,3.31,2.69,6,6,6s6-2.69,6-6"/><path class="b" d="M3,58H37c1.66,0,3,1.34,3,3v3H0v-3c0-1.66,1.34-3,3-3Z"/><path class="d" d="M19,58H3l1.54-4.63c.27-.82,1.04-1.37,1.9-1.37H15.56c.86,0,1.63,.55,1.9,1.37l1.54,4.63Z"/><g><path class="b" d="M39,2h-12c-9.94,0-18,8.06-18,18V53h4V21c0-8.28,6.72-15,15-15h11V2Z"/><path class="d" d="M13,54h-4c-.55,0-1-.45-1-1V20C8,9.52,16.52,1,27,1h12c.55,0,1,.45,1,1V6c0,.55-.45,1-1,1h-11c-7.72,0-14,6.28-14,14V53c0,.55-.45,1-1,1Zm-3-2h2V21c0-8.82,7.18-16,16-16h10V3h-11c-9.37,0-17,7.63-17,17V52Z"/></g><path class="d" d="M45,13h-12V6c0-3.31,2.69-6,6-6s6,2.69,6,6v7Z"/><path class="b" d="M54,27H24v-1c0-8.28,6.72-15,15-15s15,6.72,15,15v1Z"/><path class="c" d="M35,58h-6c0-.81,.63-2,2-2h2c.81,0,2,.63,2,2Z"/><path class="c" d="M39,42c-.55,0-1-.45-1-1v-4c0-.55,.45-1,1-1s1,.45,1,1v4c0,.55-.45,1-1,1Zm10-1c-.26,0-.51-.1-.71-.29l-3-3c-.39-.39-.39-1.02,0-1.41s1.02-.39,1.41,0l3,3c.39,.39,.39,1.02,0,1.41-.2,.2-.45,.29-.71,.29Zm-20,0c-.26,0-.51-.1-.71-.29-.39-.39-.39-1.02,0-1.41l3-3c.39-.39,1.02-.39,1.41,0s.39,1.02,0,1.41l-3,3c-.2,.2-.45,.29-.71,.29Z"/></svg>