<svg xmlns="http://www.w3.org/2000/svg" viewBox="0 0 64 64" xmlns:v="https://vecta.io/nano"><rect width="32" height="26" rx="3" fill="#5e9fdf"/><rect x="2" y="2" width="28" height="20" rx="1" fill="#fff"/><path d="M24 32H8c1.18-.3 2.18-.97 2.88-1.87C12.08 28.53 12 27.28 12 26h8c0 1.33-.05 2.55 1.03 4 .7.97 1.74 1.69 2.97 2z" fill="#1976d2"/><g fill="#5e9fdf"><path d="M25,31c0,.55-.45,1-1,1H8c-.55,0-1-.45-1-1s.45-1,1-1H24c.55,0,1,.45,1,1Z"/><rect x="32" y="32" width="32" height="26" rx="3"/></g><rect x="34" y="34" width="28" height="20" rx="1" fill="#fff"/><path d="M56 64c-17.56 0-15.9-.03-16 0 2.35-.59 4-2.7 4-5.12V58h8v.88c0 2.42 1.65 4.53 4 5.12z" fill="#1976d2"/><path d="M41 37h18v2H41zm-4 4h22v2H37zm0 4h22v2H37zm0 4h22v2H37z" fill="#d9d9d9"/><path d="M56 64H40c-.55 0-1-.45-1-1 0-.29.22-1 1-1h16c.55 0 1 .45 1 1 0 .29-.22 1-1 1z" fill="#5e9fdf"/><g fill="#1976d2"><path d="M21.03 30h-4.9c.17-1.4.53-2.74 1.04-4H20c0 1.33-.05 2.55 1.03 4z"/><path d="M25 31c0 .55-.45 1-1 1h-8a14.61 14.61 0 0 1 .13-2H24c.55 0 1 .45 1 1zm7-15v7c0 1.66-1.34 3-3 3H17.17c.59-1.45 1.38-2.79 2.35-4H29c.55 0 1-.45 1-1v-4.87c.66-.09 1.32-.13 2-.13z"/></g><path d="M5 17h22v2H5z" fill="#d9d9d9"/><path d="M27 17v2h-4.31c1.15-.83 2.41-1.5 3.76-2H27z" fill="#c8c8c8"/><path d="M30 16.13V21c0 .55-.45 1-1 1h-9.48a15.83 15.83 0 0 1 3.17-3H27v-2h-.55a15.62 15.62 0 0 1 3.55-.87z" fill="#d9d9d9"/><path d="M48 32a14.61 14.61 0 0 1-.13 2H35c-.55 0-1 .45-1 1v12.87a14.61 14.61 0 0 1-2 .13V35c0-1.66 1.34-3 3-3h13z" fill="#1976d2"/><path d="M41 37v2h5.38c-.34.7-.72 1.37-1.16 2H37v2h6.61a16.09 16.09 0 0 1-2.29 2H37v2h.57a15.66 15.66 0 0 1-3.57.87V35c0-.55.45-1 1-1h12.87a16.53 16.53 0 0 1-.67 3H41z" fill="#d9d9d9"/><path d="M37 45h4.32c-1.14.82-2.4 1.5-3.75 2H37v-2zm0-4h8.22a15.49 15.49 0 0 1-1.61 2H37v-2zm10.2-4c-.23.69-.5 1.36-.82 2H41v-2h6.2z" fill="#c8c8c8"/><circle cx="32" cy="32" r="14" fill="#d38e2a"/><g fill="#f3f3f3"><circle cx="32" cy="38" r="2"/><path d="M35.54 35.46a1 1 0 0 1-.7-.29c-1.53-1.51-4.15-1.51-5.67 0-.39.39-1.03.39-1.41 0-.39-.39-.38-1.03 0-1.41a6.03 6.03 0 0 1 8.49 0c.64.63.18 1.71-.7 1.71zm2.82-2.82c-.26 0-.51-.1-.71-.29-3.1-3.12-8.19-3.13-11.3 0-.39.39-1.02.39-1.41 0s-.39-1.02 0-1.41c3.89-3.92 10.25-3.92 14.14 0a1.01 1.01 0 0 1-.71 1.71zm2.83-2.83c-.26 0-.51-.1-.71-.29-4.69-4.69-12.27-4.69-16.97 0-.39.39-1.02.39-1.41 0s-.39-1.02 0-1.41c5.47-5.47 14.32-5.47 19.79 0a1.01 1.01 0 0 1-.71 1.71z"/></g><path d="M56 20c-.55 0-1-.45-1-1v-8a3.01 3.01 0 0 0-3-3h-8c-.55 0-1-.45-1-1s.45-1 1-1h8c2.76 0 5 2.24 5 5v8c0 .55-.45 1-1 1zM19 57h-8c-2.76 0-5-2.24-5-5v-8c0-.55.45-1 1-1s1 .45 1 1v8a3.01 3.01 0 0 0 3 3h8c.55 0 1 .45 1 1s-.45 1-1 1z" fill="#d38e2a"/><path d="M9 5h18v2H9zM5 9h22v2H5zm0 4h22v2H5z" fill="#d9d9d9"/></svg>