<svg xmlns="http://www.w3.org/2000/svg" viewBox="0 0 64 64" xmlns:v="https://vecta.io/nano"><g fill="#5e9fdf"><path d="M14 12v2h-3v28H1c-.55 0-1-.45-1-1V11c0-.55.45-1 1-1h11c1.1 0 2 .9 2 2z"/><path d="M2 37h11v2H2zm0-4h11v2H2zm0-16h11v14H2zm-1-7h36c.55 0 1 .45 1 1v3H0v-3c0-.55.45-1 1-1z"/><path d="M14 12v2H0v-3c0-.55.45-1 1-1h11c1.1 0 2 .9 2 2z"/><rect x="26" y="10" width="38" height="32" rx="1"/><path d="M64 11v3H38v-3c0-.55-.45-1-1-1h26c.55 0 1 .45 1 1z"/></g><path d="M51 25h11v14H51zm0-4h11v2H51z" fill="#1976d2"/><path d="M27 10h11c1.1 0 2 .9 2 2v2H26v-3c0-.55.45-1 1-1z" fill="#5e9fdf"/><path d="M51 17h11v2H51z" fill="#1976d2"/><path d="M38 11v30c0 .55-.45 1-1 1H11v-3h2v-2h-2v-2h2v-2h-2v-2h2V17h-2v-3h3v-2c0-1.1-.9-2-2-2h25c.55 0 1 .45 1 1z" fill="#5e9fdf"/><g fill="#1976d2"><path d="M11 37h2v2h-2zm0-4h2v2h-2zm0-16h2v14h-2zm3-5v2h-3v-4h1c1.1 0 2 .9 2 2zm37 5v2h2v2h-2v2h2v2h-2v14h2v3H37c.55 0 1-.45 1-1V14h15v3h-2z"/><path d="M51 17h2v2h-2zm0 4h2v2h-2zm0 4h2v14h-2z"/></g><path d="M53 10v4H38v-3c0-.55-.45-1-1-1h16z" fill="#5e9fdf"/><rect x="13" y="8" width="38" height="36" rx="1" fill="#f3f3f3"/><g fill="#5e9fdf"><path d="M14 8h36c.55 0 1 .45 1 1v3H13V9c0-.55.45-1 1-1z"/><path d="M24,8h14c1.1,0,2,.9,2,2v2H24V8h0Z"/></g><path d="M14 8h11c1.1 0 2 .9 2 2v2H13V9c0-.55.45-1 1-1z" fill="#f3f3f3"/><path d="M15 15h34v14H15z" fill="#d9d9d9"/><g fill="#c8c8c8"><path d="M23 29l6-7 2 3 4-5 8 9H23z"/><circle cx="26" cy="19" r="2"/><path d="M19 24c-.53 0-.67-.26-1.71-1.29-.39-.39-.39-1.02 0-1.41l1-1c.94-.94 2.35.48 1.41 1.41l-.29.29.29.29a1.01 1.01 0 0 1-.71 1.71zm26 0c-.88 0-1.34-1.07-.71-1.71l.29-.29-.29-.29c-.94-.94.48-2.35 1.41-1.41l1 1c.39.39.39 1.02 0 1.41-1.06 1.06-1.19 1.29-1.71 1.29z"/></g><path d="M15 31h34v2H15zm0 4h12v2H15zm0 4h18v2H15zm20 0h14v2H35zm-6-4h20v2H29z" fill="#d9d9d9"/><path d="M0 52h64v2H0z" fill="#f3f3f3"/><rect x="26" y="50" width="12" height="6" rx="2" fill="#d38e2a"/></svg>