<svg xmlns="http://www.w3.org/2000/svg" viewBox="0 0 64 64" xmlns:v="https://vecta.io/nano"><path d="M64 36v20a8 8 0 0 1-8 8H14a8 8 0 0 1-8-8V36a8 8 0 0 1 8-8h42a8 8 0 0 1 8 8z" fill="#1976d2"/><path d="M58 41.44v9.12a2.01 2.01 0 0 0 1.37 1.9l.94.31a1 1 0 0 1 .69.95V55c0 3.31-2.69 6-6 6H15c-3.3 0-6-2.69-6-6V37c0-3.28 2.67-6 6-6h40c3.38 0 6 2.75 6 6v1.29a.98.98 0 0 1-.68.94l-.95.31a2.01 2.01 0 0 0-1.37 1.9z" fill="#fff"/><g fill="#d9d9d9"><circle cx="56" cy="35" r="1"/><circle cx="52" cy="35" r="1"/></g><g fill="#d38e2a"><rect x="43" y="43" width="6" height="6" rx="1" transform="matrix(0 1 -1 0 92 0)"/><rect x="43" y="52" width="6" height="6" rx="1" transform="matrix(0 1 -1 0 101 9)"/><rect x="43" y="34" width="6" height="6" rx="1" transform="matrix(0 1 -1 0 83 -9)"/><rect x="34" y="43" width="6" height="6" rx="1"/><rect x="34" y="52" width="6" height="6" rx="1"/><rect x="34" y="34" width="6" height="6" rx="1"/></g><path d="M38 28v3H15c-3.32 0-6 2.71-6 6v18c0 2.25 1.28 4.12 2.71 5-3.88 0-3.76.02-4.66-.04C6.38 58.79 6 57.44 6 56V36a8 8 0 0 1 8-8h24z" fill="#1976d2"/><path d="M34 35v4c0 .55.45 1 1 1h3v3h-3c-.55 0-1 .45-1 1v4c0 .55.45 1 1 1h3c0 1.11.03 1.86-.2 3H35c-.55 0-1 .45-1 1v4c0 .29.13.56.33.74C32.61 59.15 30.4 60 28 60H11.71C10.25 59.1 9 57.22 9 55V37c0-3.28 2.67-6 6-6h23v3h-3c-.55 0-1 .45-1 1z" fill="#f3f3f3"/><path d="M35 52h2.8c-.47 2.29-1.73 4.3-3.47 5.74-.2-.18-.33-.45-.33-.74v-4c0-.55.45-1 1-1zm3-18v6h-3c-.55 0-1-.45-1-1v-4c0-.55.45-1 1-1h3zm-3 9h3v6h-3c-.55 0-1-.45-1-1v-4c0-.55.45-1 1-1z" fill="#e4c290"/><rect width="36" height="58" rx="8" fill="#5e9fdf"/><path d="M33 9v40c0 3.32-2.71 6-6 6H9c-3.28 0-6-2.67-6-6V9c0-3.38 2.75-6 6-6h1.29a.98.98 0 0 1 .94.68l.31.95A2.01 2.01 0 0 0 13.44 6h9.12a2.01 2.01 0 0 0 1.9-1.37l.31-.94a1 1 0 0 1 .95-.69H27c3.31 0 6 2.69 6 6z" fill="#fff"/><g fill="#d9d9d9"><circle cx="30" cy="9" r="1"/><circle cx="26" cy="9" r="1"/></g><g fill="#d38e2a"><rect x="15" y="15" width="6" height="6" rx="1"/><rect x="24" y="15" width="6" height="6" rx="1"/><rect x="6" y="15" width="6" height="6" rx="1"/><rect x="15" y="24" width="6" height="6" rx="1"/><rect x="24" y="24" width="6" height="6" rx="1"/><rect x="6" y="24" width="6" height="6" rx="1"/><rect x="15" y="33" width="6" height="6" rx="1"/><rect x="24" y="33" width="6" height="6" rx="1"/><rect x="6" y="33" width="6" height="6" rx="1"/></g><path d="M25 52H11c-.55 0-1-.45-1-1 0-.29.22-1 1-1h14c.55 0 1 .45 1 1 0 .29-.22 1-1 1z" fill="#d9d9d9"/><g fill="#d38e2a"><path d="M42 18c-.26 0-.51-.1-.71-.29l-3-3c-.39-.39-.39-1.02 0-1.41l3-3c.39-.39 1.02-.39 1.41 0s.39 1.02 0 1.41L40.41 14l2.29 2.29a1.01 1.01 0 0 1-.71 1.71z"/><path d="M50,25c-.55,0-1-.45-1-1v-6c0-1.65-1.35-3-3-3h-6c-.55,0-1-.45-1-1s.45-1,1-1h6c2.76,0,5,2.24,5,5v6c0,.55-.45,1-1,1Z"/><path d="M49.29 25.71l-3-3c-.39-.39-.39-1.02 0-1.41s1.02-.39 1.41 0l2.29 2.29 2.29-2.29c.39-.39 1.02-.39 1.41 0s.39 1.02 0 1.41l-3 3c-.39.39-1.02.39-1.41 0z"/></g></svg>