<svg xmlns="http://www.w3.org/2000/svg" viewBox="0 0 64 64" xmlns:v="https://vecta.io/nano"><path d="M62,11V50H2V11c0-1.66,1.34-3,3-3H59c1.66,0,3,1.34,3,3Z" fill="#5e9fdf"/><path d="M1 50h62c.55 0 1 .45 1 1v2c0 1.66-1.34 3-3 3H3c-1.66 0-3-1.34-3-3v-2c0-.55.45-1 1-1z" fill="#1976d2"/><path d="M39 52H25c-.81 0-2-.63-2-2h18c0 .81-.63 2-2 2z" fill="#f3f3f3"/><path d="M5 10h54c.55 0 1 .45 1 1v37H4V11c0-.55.45-1 1-1z" fill="#fff"/><path d="M7 13h50v32H7z" fill="#f3f3f3"/><path d="M20,15h28c1.1,0,2,.9,2,2v24H20V15h0Z" fill="#1976d2"/><g fill="#5e9fdf"><path d="M23,15v4h19.83c-1.81,0-3.55-.72-4.83-2s-2.97-2-4.83-2h-10.17Z"/><path d="M14 41V17c0-1.1.9-2 2-2h7.5c1.57 0 3.06.74 4 2s2.43 2 4 2H50v22c0 1.1-.9 2-2 2H16c-1.1 0-2-.9-2-2z"/></g><rect x="17" y="24" width="14" height="16" rx="2" fill="#fff"/><path d="M35 24h12v2H35zm0 4h12v2H35zm0 4h12v2H35zm0 4h10v2H35z" fill="#5e9fdf"/><g fill="#d38e2a"><path d="M25.28 32l3.5-4.38c.35-.43.28-1.06-.16-1.41-.43-.34-1.06-.28-1.41.16l-3.22 4.02-3.22-4.02a1.01 1.01 0 0 0-1.41-.16 1.01 1.01 0 0 0-.16 1.41L22.7 32l-3.5 4.38c-.35.43-.28 1.06.16 1.41.43.35 1.06.27 1.41-.16l3.22-4.02 3.22 4.02a1.01 1.01 0 0 0 1.41.16 1.01 1.01 0 0 0 .16-1.41L25.28 32zM7 17c-.55 0-1-.45-1-1v-3c0-.55.45-1 1-1h3c.55 0 1 .45 1 1s-.45 1-1 1H8v2c0 .55-.45 1-1 1z"/><path d="M10.5 17.5c-.26 0-.51-.1-.71-.29l-2.5-2.5c-.39-.39-.39-1.02 0-1.41s1.02-.39 1.41 0l2.5 2.5a1.01 1.01 0 0 1-.71 1.71zM57 17c-.55 0-1-.45-1-1v-2h-2c-.55 0-1-.45-1-1s.45-1 1-1h3c.55 0 1 .45 1 1v3c0 .55-.45 1-1 1z"/><path d="M53.5 17.5c-.88 0-1.34-1.07-.71-1.71l2.5-2.5c.39-.39 1.02-.39 1.41 0s.39 1.02 0 1.41c-2.7 2.7-2.65 2.79-3.21 2.79zM10 46H7c-.55 0-1-.45-1-1v-3c0-.55.45-1 1-1s1 .45 1 1v2h2c.55 0 1 .45 1 1s-.45 1-1 1z"/><path d="M8 45c-.88 0-1.34-1.07-.71-1.71l2.5-2.5c.39-.39 1.02-.39 1.41 0s.39 1.02 0 1.41c-2.7 2.7-2.65 2.79-3.21 2.79zm49 1h-3c-.55 0-1-.45-1-1s.45-1 1-1h2v-2c0-.55.45-1 1-1s1 .45 1 1v3c0 .55-.45 1-1 1z"/><path d="M56 45c-.26 0-.51-.1-.71-.29l-2.5-2.5c-.39-.39-.39-1.02 0-1.41s1.02-.39 1.41 0l2.5 2.5a1.01 1.01 0 0 1-.71 1.71z"/></g></svg>