<svg xmlns="http://www.w3.org/2000/svg" viewBox="0 0 64 64" xmlns:v="https://vecta.io/nano"><path d="M62,19V58H2V19c0-1.66,1.34-3,3-3H59c1.66,0,3,1.34,3,3Z" fill="#5e9fdf"/><path d="M1 58h62c.55 0 1 .45 1 1v2c0 1.66-1.34 3-3 3H3c-1.66 0-3-1.34-3-3v-2c0-.55.45-1 1-1z" fill="#1976d2"/><path d="M60 19v4H20l-4-5h43c.55 0 1 .45 1 1z" fill="#5e9fdf"/><path d="M60 23v33H4V19c0-.55.45-1 1-1h14.08c1.21 0 2.36.55 3.12 1.5l1.75 2.17c.75.85 1.84 1.33 2.97 1.33H60zM39 60H25c-.81 0-2-.63-2-2h18c0 .81-.63 2-2 2z" fill="#f3f3f3"/><path d="M8 16h48v2H8z" fill="#1976d2"/><path d="M56,18v5H26.92c-1.14,0-2.26-.47-3.12-1.5l-1.6-2c-.76-.95-1.91-1.5-3.12-1.5H56Z" fill="#5e9fdf"/><path d="M56 23v33H8V18h11.08c1.21 0 2.36.55 3.12 1.5l1.6 2c.86 1.03 1.97 1.5 3.12 1.5H56z" fill="#d9d9d9"/><path d="M54 13v43H10V2c0-1.1.9-2 2-2h29l13 13z" fill="#f3f3f3"/><path d="M54 13H43c-1.1 0-2-.9-2-2V0l13 13z" fill="#d9d9d9"/><path d="M46 34.07v-2.14c0-1.07-.86-1.93-1.93-1.93-1.98 0-2.65-2.18-1.5-3.32.99-.99.73-2.18.09-2.82l-1.51-1.51a1.94 1.94 0 0 0-2.73 0c-1.4 1.4-3.41.32-3.41-1.29 0-1.4-1.02-2.06-1.93-2.06h-2.14c-1.07 0-1.93.86-1.93 1.93 0 1.98-2.18 2.65-3.32 1.5-.99-.99-2.18-.73-2.82-.09l-1.51 1.51a1.94 1.94 0 0 0 0 2.73c1.41 1.41.32 3.41-1.29 3.41-1.4 0-2.06 1.02-2.06 1.93v2.14c0 1.07.86 1.93 1.93 1.93 1.98 0 2.65 2.18 1.5 3.32-.99.99-.73 2.18-.09 2.82l1.51 1.51a1.94 1.94 0 0 0 2.73 0c1.4-1.4 3.41-.32 3.41 1.29 0 1.4 1.02 2.06 1.93 2.06h2.14c1.07 0 1.93-.86 1.93-1.93 0-1.98 2.18-2.65 3.32-1.5.99.99 2.18.73 2.82.09l1.51-1.51a1.94 1.94 0 0 0 0-2.73c-1.4-1.4-.32-3.41 1.29-3.41 1.4 0 2.06-1.02 2.06-1.93z" fill="#d38e2a"/><circle cx="32" cy="33" r="6" fill="#f3f3f3"/><path d="M14 11h14v2H14zm0 4h8v2h-8zm24 35h12v2H38zm4-4h8v2h-8z" fill="#d9d9d9"/><g fill="#5e9fdf"><circle cx="15" cy="6" r="1"/><circle cx="19" cy="6" r="1"/><circle cx="23" cy="6" r="1"/></g></svg>