<svg xmlns="http://www.w3.org/2000/svg" viewBox="0 0 64 64" xmlns:v="https://vecta.io/nano"><path d="M62,19V58H2V19c0-1.66,1.34-3,3-3H59c1.66,0,3,1.34,3,3Z" fill="#5e9fdf"/><path d="M1 58h62c.55 0 1 .45 1 1v2c0 1.66-1.34 3-3 3H3c-1.66 0-3-1.34-3-3v-2c0-.55.45-1 1-1z" fill="#1976d2"/><path d="M60 19v4H20l-3.29-4.11L16 18h43c.55 0 1 .45 1 1z" fill="#5e9fdf"/><path d="M60 23v33H4V19c0-.55.45-1 1-1h14.08a3.98 3.98 0 0 1 3.12 1.5l1.6 2c.76.95 1.91 1.5 3.12 1.5H60z" fill="#fff"/><path d="M23 58h18c0 1.1-.9 2-2 2H25c-1.1 0-2-.9-2-2h0z" fill="#f3f3f3"/><path d="M47.85 16c-.08.68-.2 1.34-.35 2h-31c-.15-.66-.27-1.32-.35-2h31.7z" fill="#1976d2"/><path d="M45.72 23c-2.63 5.19-7.33 9.25-13.17 10.92l-.55.16-.55-.16c-7.3-2.08-12.83-7.92-14.74-15.03L20 23h25.72z" fill="#d9d9d9"/><path d="M47.5 18c-.38 1.75-.98 3.43-1.78 5H20l-3.29-4.11-.21-.89h31z" fill="#5e9fdf"/><g fill="#d38e2a"><path d="M32 36c-.55 0-1-.45-1-1v-9c0-.55.45-1 1-1s1 .45 1 1v9c0 .55-.45 1-1 1z"/><path d="M32 40a3.01 3.01 0 0 1-3-3 3.01 3.01 0 0 1 3-3 3.01 3.01 0 0 1 3 3 3.01 3.01 0 0 1-3 3zm0-4c-.55 0-1 .45-1 1s.45 1 1 1 1-.45 1-1-.45-1-1-1zm-16-1a3.01 3.01 0 0 1-3-3 3.01 3.01 0 0 1 3-3 3.01 3.01 0 0 1 3 3 3.01 3.01 0 0 1-3 3zm0-4c-.55 0-1 .45-1 1s.45 1 1 1 1-.45 1-1-.45-1-1-1z"/><path d="M23 33h-5c-.55 0-1-.45-1-1s.45-1 1-1h5c.55 0 1-.45 1-1v-6c0-.55.45-1 1-1s1 .45 1 1v6a3.01 3.01 0 0 1-3 3zm22-1a3.01 3.01 0 0 1 3-3 3.01 3.01 0 0 1 3 3 3.01 3.01 0 0 1-3 3 3.01 3.01 0 0 1-3-3zm2 0c0 .55.45 1 1 1s1-.45 1-1-.45-1-1-1-1 .45-1 1z"/><path d="M46 33h-5a3.01 3.01 0 0 1-3-3v-6c0-.55.45-1 1-1s1 .45 1 1v6c0 .55.45 1 1 1h5c.55 0 1 .45 1 1s-.45 1-1 1z"/></g><path d="M46 6.41v7.03A19.3 19.3 0 0 1 32 32h0a19.3 19.3 0 0 1-14-18.56V6.41c0-.85.53-1.6 1.33-1.88L32 0l12.67 4.53c.8.28 1.33 1.04 1.33 1.88z" fill="#1976d2"/><path d="M41 16c0 .69-.08 1.36-.22 2-.16.7-.41 1.37-.72 2-1.47 2.96-4.53 5-8.06 5s-6.59-2.04-8.06-5c-.31-.63-.56-1.3-.72-2-.14-.64-.22-1.31-.22-2s.08-1.36.22-2c.16-.7.41-1.37.72-2 1.47-2.96 4.53-5 8.06-5s6.59 2.04 8.06 5c.31.63.56 1.3.72 2 .14.64.22 1.31.22 2z" fill="#5e9fdf"/><path d="M38 16a10.45 10.45 0 0 0-.19-2h2.97c-.16-.7-.41-1.37-.72-2h-2.89c-1.02-2.21-2.83-3.67-4.62-4.84-.33-.22-.76-.22-1.09 0-1.79 1.17-3.6 2.63-4.62 4.84h-2.89c-.31.63-.56 1.3-.72 2h2.97a10.45 10.45 0 0 0-.19 2 10.45 10.45 0 0 0 .19 2h-2.97c.16.7.41 1.37.72 2h2.89c1.02 2.21 2.83 3.67 4.62 4.84.17.11.36.16.55.16s.38-.05.55-.16c1.79-1.17 3.6-2.63 4.62-4.84h2.89c.31-.63.56-1.3.72-2h-2.97a10.45 10.45 0 0 0 .19-2zm-6-6.8c1.21.84 2.2 1.72 2.9 2.8h-5.8c.7-1.08 1.69-1.96 2.9-2.8zM28 16c0-.74.09-1.39.24-2h7.51c.15.61.24 1.26.24 2s-.09 1.39-.24 2h-7.51c-.15-.61-.24-1.26-.24-2zm4 6.8c-1.21-.84-2.2-1.72-2.9-2.8h5.8c-.7 1.08-1.69 1.96-2.9 2.8z" fill="#1976d2"/><g fill="#d9d9d9"><path d="M8 42h16v2H8zm20 0h28v2H28zM8 46h16v2H8zm20 0h28v2H28zM8 50h16v2H8zm20 0h16v2H28z"/><circle cx="49" cy="26" r="1"/><circle cx="53" cy="26" r="1"/><circle cx="57" cy="26" r="1"/></g></svg>