<svg xmlns="http://www.w3.org/2000/svg" viewBox="0 0 64 64" xmlns:v="https://vecta.io/nano"><path d="M62,15V54H2V15c0-1.66,1.34-3,3-3H59c1.66,0,3,1.34,3,3Z" fill="#5e9fdf"/><path d="M1 54h62c.55 0 1 .45 1 1v2c0 1.66-1.34 3-3 3H3c-1.66 0-3-1.34-3-3v-2c0-.55.45-1 1-1z" fill="#1976d2"/><path d="M60 15v4H20l-4-5h43c.55 0 1 .45 1 1z" fill="#5e9fdf"/><path d="M60 19v33H4V15c0-.55.45-1 1-1h14.08c1.21 0 2.36.55 3.12 1.5l1.75 2.17c.75.85 1.84 1.33 2.97 1.33H60z" fill="#fff"/><path d="M39 56H25c-.81 0-2-.63-2-2h18c0 .81-.63 2-2 2z" fill="#f3f3f3"/><path d="M62 15v17h-2V15c0-.55-.45-1-1-1H40v-2h19c1.66 0 3 1.34 3 3z" fill="#1976d2"/><path d="M60 19v13H44a4 4 0 0 1-4-4v-2l-2.13-1.6c-.77-.57-1.2-1.45-1.2-2.4 0-1.68 1.11-2.33 2-3H60z" fill="#f3f3f3"/><path d="M60 15v4H38.67L40 18v-4h19c.55 0 1 .45 1 1z" fill="#5e9fdf"/><path d="M42 6v12.5c0 .31-.15.61-.4.8l-2.53 1.9c-.53.4-.53 1.2 0 1.6l2.53 1.9c.25.19.4.49.4.8V28c0 1.1.9 2 2 2h18c1.1 0 2-.9 2-2V6c0-1.1-.9-2-2-2H44c-1.1 0-2 .9-2 2z" fill="#d38e2a"/><g fill="#fff"><circle cx="53" cy="11" r="2"/><path d="M49 15v2h2v8h4V15h-6z"/></g><circle cx="20" cy="17" r="1" fill="#5e9fdf"/><path d="M8 26h24v2H8zm0 5h30v2H8zm0 5h30v2H8zm0 5h30v2H8zm12 5h18v2H20z" fill="#d9d9d9"/><rect x="42" y="36" width="14" height="12" rx="2" fill="#5e9fdf"/><path d="M8 21h10v2H8z" fill="#d9d9d9"/><g fill="#1976d2"><path d="M53 46c-.47 0 .06.29-8.6-6.2-.44-.33-.53-.96-.2-1.4s.96-.53 1.4-.2l8 6c.77.58.36 1.8-.6 1.8z"/><path d="M45 46c-.96 0-1.37-1.22-.6-1.8l8-6c.44-.33 1.07-.24 1.4.2s.24 1.07-.2 1.4C44.92 46.31 45.47 46 45 46z"/></g></svg>