<svg xmlns="http://www.w3.org/2000/svg" viewBox="0 0 64 64" xmlns:v="https://vecta.io/nano"><path d="M62,16V55H2V16c0-1.66,1.34-3,3-3H59c1.66,0,3,1.34,3,3Z" fill="#5e9fdf"/><path d="M1 55h62c.55 0 1 .45 1 1v2c0 1.66-1.34 3-3 3H3c-1.66 0-3-1.34-3-3v-2c0-.55.45-1 1-1z" fill="#1976d2"/><path d="M60 16v4H20l-4-5h43c.55 0 1 .45 1 1z" fill="#5e9fdf"/><path d="M60 20v33H4V16c0-.55.45-1 1-1h14.08c1.21 0 2.36.55 3.12 1.5l1.6 2c.86 1.03 1.97 1.5 3.12 1.5H60z" fill="#fff"/><g fill="#5e9fdf"><path d="M23 34h18c1.66 0 3-1.34 3-3s-1.34-3-3-3H23c-1.66 0-3 1.34-3 3s1.34 3 3 3z"/><path d="M23 32h18c.55 0 1-.45 1-1 0-.29-.22-1-1-1H23c-.55 0-1 .45-1 1 0 .29.22 1 1 1z"/></g><circle cx="40" cy="31" r="4" fill="#1976d2"/><g fill="#5e9fdf"><path d="M41,45H23c-1.66,0-3-1.34-3-3s1.34-3,3-3h18c1.66,0,3,1.34,3,3s-1.34,3-3,3Z"/><path d="M41 43H23c-.55 0-1-.45-1-1 0-.29.22-1 1-1h18c.55 0 1 .45 1 1 0 .29-.22 1-1 1z"/></g><circle cx="24" cy="42" r="4" fill="#1976d2"/><path d="M39 57H25c-.81 0-2-.63-2-2h18c0 .81-.63 2-2 2z" fill="#f3f3f3"/><path d="M62 16v8h-2v-8c0-.55-.45-1-1-1H38v-2h21c1.66 0 3 1.34 3 3z" fill="#1976d2"/><path d="M60 20v4H42a4 4 0 0 1-4-4h22z" fill="#f3f3f3"/><path d="M60 16v4H38v-5h21c.55 0 1 .45 1 1z" fill="#5e9fdf"/><rect x="40" y="1" width="24" height="20" rx="2" fill="#fff"/><g fill="#d38e2a"><path d="M49 19h-5c-1.1 0-2-.9-2-2V5c0-1.1.9-2 2-2h5c.55 0 1 .45 1 1v14c0 .55-.45 1-1 1zM44 5v12h4V5h-4z"/><path d="M60 19H49c-.55 0-1-.45-1-1V4c0-.55.45-1 1-1h11c1.1 0 2 .9 2 2v12c0 1.1-.9 2-2 2zm-10-2h10V5H50v12z"/><path d="M61 12H49c-.55 0-1-.45-1-1s.45-1 1-1h12c.55 0 1 .45 1 1s-.45 1-1 1z"/><circle cx="20" cy="18" r="1"/></g><path d="M7 21h8v2H7zm40 23h10v2H47zm4-4h6v2h-6zM7 25h10v2H7z" fill="#d9d9d9"/><g fill="#5e9fdf"><circle cx="8" cy="50" r="1"/><circle cx="12" cy="50" r="1"/><circle cx="16" cy="50" r="1"/></g></svg>