<svg xmlns="http://www.w3.org/2000/svg" viewBox="0 0 64 64" xmlns:v="https://vecta.io/nano"><path d="M62,11V50H2V11c0-1.66,1.34-3,3-3H59c1.66,0,3,1.34,3,3Z" fill="#5e9fdf"/><path d="M5 10h54c.55 0 1 .45 1 1v37H4V11c0-.55.45-1 1-1z" fill="#fff"/><path d="M1 50h62c.55 0 1 .45 1 1v2c0 1.66-1.34 3-3 3H3c-1.66 0-3-1.34-3-3v-2c0-.55.45-1 1-1z" fill="#1976d2"/><path d="M6 13h51v35H6z" fill="#f3f3f3"/><path d="M13 44V18h33.33c.92 0 1.67.9 1.67 2v24H13z" fill="#1976d2"/><g fill="#5e9fdf"><path d="M16,18v4h19.83c-1.81,0-3.55-.72-4.83-2s-2.97-2-4.83-2h-10.17Z"/><path d="M6 48V20c0-1.1.9-2 2-2h8.5c1.57 0 3.06.74 4 2s2.43 2 4 2H48v26H6z"/></g><g fill="#d38e2a"><path d="M57,18c-.55,0-1-.45-1-1v-3h-3c-.55,0-1-.45-1-1s.45-1,1-1h4c.55,0,1,.45,1,1v4c0,.55-.45,1-1,1Z"/><path d="M52 19c-.88 0-1.34-1.07-.71-1.71l4-4c.39-.39 1.02-.39 1.41 0s.39 1.02 0 1.41l-4 4a.98.98 0 0 1-.71.29z"/></g><rect x="10" y="28" width="14" height="16" rx="2" fill="#f3f3f3"/><path d="M28 28h16v2H28zm0 4h16v2H28zm0 4h16v2H28zm0 4h10v2H28z" fill="#5e9fdf"/><path d="M18.28 36l3.5-4.38c.35-.43.28-1.06-.16-1.41-.43-.34-1.06-.28-1.41.16l-3.22 4.02-3.22-4.02a1.01 1.01 0 0 0-1.41-.16 1.01 1.01 0 0 0-.16 1.41L15.7 36l-3.5 4.38c-.35.43-.28 1.06.16 1.41.43.35 1.06.27 1.41-.16l3.22-4.02 3.22 4.02a1.01 1.01 0 0 0 1.41.16 1.01 1.01 0 0 0 .16-1.41L18.28 36z" fill="#d38e2a"/><path d="M39 52H25c-.81 0-2-.63-2-2h18c0 .81-.63 2-2 2z" fill="#f3f3f3"/></svg>