<svg xmlns="http://www.w3.org/2000/svg" viewBox="0 0 64 64" xmlns:v="https://vecta.io/nano"><path d="M15 45c0-11.91-.1-11.25.24-11.65l6-7c.6-.7 1.76-.28 1.76.65v12c0 .27-.11.52-.29.71l-6 6c-.63.63-1.71.18-1.71-.71zm32.29.71l-6-6A.99.99 0 0 1 41 39V27c0-.92 1.16-1.36 1.76-.65L49 34v11c0 .9-1.08 1.33-1.71.71z" fill="#d38e2a"/><path d="M64 64H0c0-4.49 4.74-7.31 8.61-5.4 1.23-2.21 3.85-3.16 6.17-2.27 1.23-1.93 3.66-2.88 6-1.99.89-1.4 2.44-2.34 4.22-2.34v-3h14v3c1.78 0 3.33.94 4.22 2.34 2.34-.89 4.77.05 6 1.99 2.32-.89 4.94.06 6.17 2.27 3.87-1.91 8.61.91 8.61 5.4z" fill="#d9d9d9"/><path d="M43 17.08V42c0 1.1-.9 2-2 2H23c-1.1 0-2-.9-2-2V17.08C21 9.72 25.3 3.04 32 0c6.7 3.04 11 9.72 11 17.08z" fill="#5e9fdf"/><g fill="#1976d2"><path d="M23 44h18v1c0 1.1-.9 2-2 2H25c-1.1 0-2-.9-2-2v-1h0z"/><circle cx="32" cy="21" r="7"/></g><circle cx="32" cy="21" r="5" fill="#fff"/><path d="M39.67 6.42c-4 4.77-11.32 4.78-15.34 0C26.21 3.69 28.84 1.43 32 0c3.16 1.43 5.79 3.69 7.67 6.42z" fill="#1976d2"/><path d="M32 40c-.29 0-1-.22-1-1v-6c0-.55.45-1 1-1 .29 0 1 .22 1 1v6c0 .55-.45 1-1 1z" fill="#fff"/><path d="M17 21c-.37 0-.72-.2-.9-.55L13.38 15H3c-.55 0-1-.45-1-1s.45-1 1-1h11c.38 0 .73.21.89.55l3 6c.33.67-.16 1.45-.89 1.45zm-7-11H3c-.55 0-1-.45-1-1s.45-1 1-1h7c.55 0 1 .45 1 1s-.45 1-1 1z" fill="#d9d9d9"/><path d="M13 7h4v4h-4z" fill="#5e9fdf"/><path d="M50 32a1 1 0 0 1-.89-1.45l3-6A1 1 0 0 1 53 24h10c.55 0 1 .45 1 1s-.45 1-1 1h-9.38l-2.72 5.45c-.18.35-.53.55-.9.55zm13-11h-6c-.55 0-1-.45-1-1s.45-1 1-1h6c.55 0 1 .45 1 1s-.45 1-1 1z" fill="#d9d9d9"/><path d="M54 22h-4v-4h4z" fill="#d38e2a"/></svg>