<svg xmlns="http://www.w3.org/2000/svg" viewBox="0 0 64 64" xmlns:v="https://vecta.io/nano"><g fill="#1976d2"><path d="M31.02 30.56L12.21 41.19a2 2 0 0 0 .06 3.51l18.81 9.81c.58.3 1.27.3 1.85 0l18.81-9.81a2 2 0 0 0 .06-3.51L32.99 30.56a1.98 1.98 0 0 0-1.97 0z"/><path d="M31.02 20.56L12.2 31.19a2 2 0 0 0 .06 3.51l18.81 9.81c.58.3 1.27.3 1.85 0l18.81-9.81a2 2 0 0 0 .06-3.51L32.98 20.56a1.98 1.98 0 0 0-1.97 0z"/></g><g fill="#5e9fdf"><path d="M31.02 10.56L12.2 21.19a2 2 0 0 0 .06 3.51l18.81 9.81c.58.3 1.27.3 1.85 0l18.81-9.81a2 2 0 0 0 .06-3.51L32.98 10.56a1.98 1.98 0 0 0-1.97 0z"/><circle cx="24" cy="22" r="2"/></g><circle cx="32" cy="22" r="2" fill="#f3f3f3"/><circle cx="40" cy="22" r="2" fill="#fff"/><path d="M63.71 14.29l-4.32-4.22a1 1 0 0 0-1.09.22l-4 4c-.94.94.48 2.35 1.41 1.41L58 13.41V54c0 1.32 2 1.32 2 0V13.41c2.46 2.46 2.45 2.59 3 2.59.88 0 1.34-1.07.71-1.71zm-55.42 35L6 51.58V11c0-1.32-2-1.32-2 0v40.59L1.71 49.3c-.94-.94-2.35.48-1.41 1.41l4.32 4.22a1 1 0 0 0 .76 0c.26-.11-.03.14 4.32-4.22.94-.94-.48-2.35-1.41-1.41z" fill="#d38e2a"/><path d="M12 2h14v2H12zm27 58h14v2H39zM12 6h8v2h-8zm33 50h8v2h-8z" fill="#f3f3f3"/></svg>