<svg xmlns="http://www.w3.org/2000/svg" viewBox="0 0 64 64" xmlns:v="https://vecta.io/nano"><g fill="#e4c290"><path d="M28 25l-14 9-14-9 14-9 14 9z"/><path d="M28 17l-14 9-14-9 14-9 14 9z"/></g><path d="M28 9l-14 9L0 9l14-9 14 9z" fill="#d38e2a"/><g fill="#5e9fdf"><path d="M20 10h44v54H20z"/><path d="M40 10h24v6H40zm-18 8h10v8H22zm12 0h8v8h-8zm10 0h18v8H44z"/></g><path d="M29.82 22c-.91 2.66-4.73 2.66-5.64 0 .91-2.66 4.73-2.66 5.64 0zM60 22c0-1.32-2-1.32-2 0s2 1.32 2 0zm-14-1h10v2H46z" fill="#f3f3f3"/><path d="M34 26l3-3 1 1 3-3 1 1v4h-8zm3-5c0-1.32-2-1.32-2 0s2 1.32 2 0z" fill="#1976d2"/><path d="M22 28h10v8H22zm12 0h8v8h-8zm10 0h18v8H44z" fill="#5e9fdf"/><path d="M29.82 32c-.91 2.66-4.73 2.66-5.64 0 .91-2.66 4.73-2.66 5.64 0zM60 32c0-1.32-2-1.32-2 0s2 1.32 2 0zm-14-1h10v2H46z" fill="#f3f3f3"/><path d="M34 36l3-3 1 1 3-3 1 1v4h-8zm3-5c0-1.32-2-1.32-2 0s2 1.32 2 0z" fill="#1976d2"/><path d="M22 38h10v8H22zm12 0h8v8h-8zm10 0h18v8H44z" fill="#5e9fdf"/><path d="M29.82 42c-.91 2.66-4.73 2.66-5.64 0 .91-2.66 4.73-2.66 5.64 0zM60 42c0-1.32-2-1.32-2 0s2 1.32 2 0zm-14-1h10v2H46z" fill="#f3f3f3"/><path d="M34 46l3-3 1 1 3-3 1 1v4h-8zm3-5c0-1.32-2-1.32-2 0s2 1.32 2 0z" fill="#1976d2"/><path d="M22 48h10v8H22zm12 0h8v8h-8zm10 0h18v8H44z" fill="#5e9fdf"/><path d="M29.82 52c-.91 2.66-4.73 2.66-5.64 0 .91-2.66 4.73-2.66 5.64 0zM60 52c0-1.32-2-1.32-2 0s2 1.32 2 0zm-14-1h10v2H46z" fill="#f3f3f3"/><path d="M34 56l3-3 1 1 3-3 1 1v4h-8zm3-5c0-1.32-2-1.32-2 0s2 1.32 2 0z" fill="#1976d2"/><path d="M55 60h6v2h-6zm-8 0h6v2h-6zm-8 0h6v2h-6zM0 36h6v2H0zM32 0h6v2h-6zM0 40h10v2H0zM32 4h10v2H32z" fill="#f3f3f3"/></svg>