<svg xmlns="http://www.w3.org/2000/svg" xmlns:xlink="http://www.w3.org/1999/xlink" viewBox="0 0 64 64" xmlns:v="https://vecta.io/nano"><g fill="#1976d2"><use xlink:href="#B"/><use xlink:href="#B" y="-8"/></g><g fill="#5e9fdf"><use xlink:href="#B" y="-16"/><use xlink:href="#B" y="-24"/><path d="M41.7 26h-5.54l-1.82 2.27c-1.19 1.51-3.49 1.51-4.68 0L27.84 26H22.3l9.31-3.92c.25-.11.53-.11.78 0L41.7 26z"/></g><path d="M42 0H22a4 4 0 0 0-4 4v16a4 4 0 0 0 4 4h5.84c.61 0 1.18.28 1.56.75l1.82 2.27a1 1 0 0 0 1.56 0l1.82-2.27c.38-.47.95-.75 1.56-.75H42a4 4 0 0 0 4-4V4a4 4 0 0 0-4-4z" fill="#f3f3f3"/><g fill="#d38e2a"><path d="M29 20h-5c-1.1 0-2-.9-2-2V6c0-1.1.9-2 2-2h5c.55 0 1 .45 1 1v14c0 .55-.45 1-1 1zM24 6v12h4V6h-4z"/><path d="M40 20H29c-.55 0-1-.45-1-1V5c0-.55.45-1 1-1h11c1.1 0 2 .9 2 2v12c0 1.1-.9 2-2 2zm-10-2h10V6H30v12z"/><path d="M41 13H29c-.55 0-1-.45-1-1s.45-1 1-1h12c.55 0 1 .45 1 1s-.45 1-1 1zm22.71 35.29c-.39-.39-1.02-.39-1.41 0l-1.29 1.29v-7.59c0-.55-.45-1-1-1s-1 .45-1 1v7.59l-1.29-1.29c-.39-.39-1.02-.39-1.41 0s-.39 1.02 0 1.41l3 3c.39.39 1.02.39 1.41 0l3-3c.39-.39.39-1.02 0-1.41zm-59-23c-.39-.39-1.02-.39-1.41 0l-3.01 3c-.39.39-.39 1.02 0 1.41s1.02.39 1.41 0l1.29-1.29V36c0 .55.45 1 1 1s1-.45 1-1v-7.59l1.29 1.29c.39.39 1.02.39 1.41 0s.39-1.02 0-1.41l-3-3z"/></g><path d="M49 0h10v2H49zm0 4h6v2h-6z" fill="#c8c8c8"/><defs ><path id="B" d="M51.39 55.92l-19 8a.96.96 0 0 1-.78 0l-19-8c-.81-.33-.81-1.51 0-1.84l19-8c.25-.11.53-.11.78 0l19 8c.81.33.81 1.51 0 1.84z"/></defs></svg>