<svg xmlns="http://www.w3.org/2000/svg" viewBox="0 0 64 64" xmlns:v="https://vecta.io/nano"><g fill="#1976d2"><path d="M32 60c-.3 0 1.32.62-22.38-9.07a1 1 0 0 1 0-1.85l22-9a1 1 0 0 1 .76 0l22 9a1 1 0 0 1 0 1.85L32 60z"/><path d="M32 50c-.3 0 1.32.62-22.38-9.07a1 1 0 0 1 0-1.85l22-9a1 1 0 0 1 .76 0l22 9a1 1 0 0 1 0 1.85L32 50z"/></g><path d="M54.38 29.07l-22-9a1 1 0 0 0-.76 0l-22 9a1.01 1.01 0 0 0 0 1.86l22 9c.22.09.53.09.76 0l22-9a1.01 1.01 0 0 0 0-1.86z" fill="#5e9fdf"/><path d="M44.63 25.08c-5.9 9.19-19.32 9.25-25.26 0l12.25-5.01a1 1 0 0 1 .76 0l12.25 5.01z" fill="#1976d2"/><circle cx="32" cy="17" r="13" fill="#e4c290"/><circle cx="32" cy="17" r="10" fill="#d38e2a"/><path d="M28 21c-.26 0-.51-.1-.71-.29l-3-3c-.39-.39-.39-1.02 0-1.41l3-3c.39-.39 1.02-.39 1.41 0s.39 1.02 0 1.41L26.41 17l2.29 2.29a1.01 1.01 0 0 1-.71 1.71zm8 0c-.88 0-1.34-1.07-.71-1.71L37.58 17l-2.29-2.29c-.39-.39-.39-1.02 0-1.41s1.02-.39 1.41 0l3 3c.39.39.39 1.02 0 1.41l-3 3a.98.98 0 0 1-.71.29zm-5 2c-.63 0-1.1-.58-.98-1.2l2-10a.99.99 0 0 1 1.18-.78c.54.11.89.63.78 1.18l-2 10c-.09.48-.51.8-.98.8z" fill="#fff"/><path d="M63.71 44.29c-.39-.39-1.02-.39-1.41 0l-1.29 1.29v-7.59c0-.55-.45-1-1-1s-1 .45-1 1v7.59l-1.29-1.29c-.39-.39-1.02-.39-1.41 0s-.39 1.02 0 1.41l3 3c.39.39 1.02.39 1.41 0l3-3c.39-.39.39-1.02 0-1.41zm-59-23c-.39-.39-1.02-.39-1.41 0l-3.01 3c-.39.39-.39 1.02 0 1.41s1.02.39 1.41 0l1.29-1.29V32c0 .55.45 1 1 1s1-.45 1-1v-7.59l1.29 1.29c.39.39 1.02.39 1.41 0s.39-1.02 0-1.41l-3-3z" fill="#d38e2a"/></svg>