<svg xmlns="http://www.w3.org/2000/svg" xmlns:xlink="http://www.w3.org/1999/xlink" viewBox="0 0 64 64" xmlns:v="https://vecta.io/nano"><path d="M5 15c1.32 0 1.32-2 0-2H1c-1.32 0-1.32 2 0 2h1v32H1c-1.32 0-1.32 2 0 2h4c1.32 0 1.32-2 0-2H4V15h1zm57 37v1H10v-1c0-1.32-2-1.32-2 0v4c0 1.32 2 1.32 2 0v-1h52v1c0 1.32 2 1.32 2 0v-4c0-1.32-2-1.32-2 0z" fill="#d38e2a"/><g fill="#5e9fdf"><path d="M8 13h36v36H8z"/><path d="M44 13h20v20H44z"/></g><g fill="#1976d2"><path d="M44 33h10v16H44z"/><path d="M54 33h10v16H54z"/></g><path d="M44,13C24.15,13,8,29.15,8,49h2c0-18.75,15.25-34,34-34,9.92,0,18,8.08,18,18,0,7.7-6.26,14-14,14h-4v2c4.11,0,6.55,.23,10-1.17,5.86-2.38,10-8.13,10-14.83,0-11.03-8.97-20-20-20Z" fill="#d38e2a"/><path d="M44 33h10v10H44zM8 7h56v6H8z" fill="#1976d2"/><path d="M61 10c0-1.32-2-1.32-2 0s2 1.32 2 0zm-4 0c0-1.32-2-1.32-2 0s2 1.32 2 0z" fill="#5e9fdf"/><g fill="#f3f3f3"><path d="M53,10c0-1.32-2-1.32-2,0s2,1.32,2,0Z"/><use xlink:href="#B"/><use xlink:href="#B" x="28" y="-7.5"/></g><path d="M29 40h12v2H29zm6 4h6v2h-6z" fill="#5e9fdf"/><defs ><path id="B" d="M27.41 31l.79-.79c.94-.94-.48-2.35-1.41-1.41l-.79.79-.79-.79c-.94-.94-2.35.48-1.41 1.41l.79.79-.79.79c-.94.94.48 2.35 1.41 1.41l.79-.79.79.79c.94.94 2.35-.48 1.41-1.41l-.79-.79z"/></defs></svg>