<svg xmlns="http://www.w3.org/2000/svg" viewBox="0 0 64 64" xmlns:v="https://vecta.io/nano"><rect width="64" height="64" rx="2" fill="#f3f3f3"/><rect x="2" y="7" width="4" height="50" rx="1" fill="#1976d2"/><g fill="#5e9fdf"><rect x="10" y="14" width="30" height="14" rx="2"/><rect x="10" y="36" width="44" height="14" rx="2"/><path d="M12 16h26v10H12zm0 22h40v10H12z"/></g><path d="M61 47c-.55 0-.43-.02-3.71-3.29-.39-.39-.39-1.02 0-1.41l3-3c.94-.94 2.35.48 1.41 1.41L59.41 43l2.29 2.29a1.01 1.01 0 0 1-.71 1.71zM47 25c-.55 0-.43-.02-3.71-3.29-.39-.39-.39-1.02 0-1.41l3-3c.94-.94 2.35.48 1.41 1.41L45.41 21l2.29 2.29a1.01 1.01 0 0 1-.71 1.71z" fill="#d38e2a"/><path d="M45 6h16v2H45zm0-4h10v2H45zM10 60h16v2H10zm0-4h10v2H10z" fill="#d9d9d9"/><path d="M25 20h9v2h-9zm-9 0h6v2h-6zm13 22h19v2H29zm-13 0h9v2h-9z" fill="#fff"/></svg>