<?xml version="1.0" encoding="UTF-8"?><svg id="a" xmlns="http://www.w3.org/2000/svg" viewBox="0 0 64 64"><defs><style>.b{fill:#5e9fdf;}.c{fill:#d38e2a;}.d{fill:#f3f3f3;}.e{fill:#d9d9d9;}</style></defs><g><path class="b" d="M34,0h28c1.1,0,2,.9,2,2v2H32V2c0-1.1,.9-2,2-2Z"/><path class="b" d="M42,0h12c1.1,0,2,.9,2,2v2h-14V0h0Z"/></g><path class="d" d="M64,4V30c0,1.1-.9,2-2,2h-28c-1.1,0-2-.9-2-2V2c0-1.1,.9-2,2-2h8c1.1,0,2,.9,2,2v2h20Z"/><path class="e" d="M48.62,9.04c-4.15-.53-8.62,3.03-8.62,7.96,0,3.76,2.64,7.48,7.5,7.97,.1,0,.54,.07,1.07,0,4.17-.27,7.43-3.77,7.43-7.97s-3.27-7.69-7.38-7.96Zm5.29,6.96h-1.95c-.13-1.51-.55-2.98-1.22-4.33,1.65,.85,2.86,2.45,3.17,4.33Zm-5.91,6.97c-1.09-1.45-1.76-3.17-1.94-4.97h3.89c-.18,1.8-.85,3.52-1.94,4.97h-.01Zm-1.94-6.97c.18-1.8,.85-3.52,1.94-4.97,1.09,1.45,1.76,3.17,1.94,4.97h-3.88Zm-.8-4.32c-.68,1.35-1.09,2.82-1.21,4.32h-1.95c.32-1.87,1.51-3.46,3.17-4.32h0Zm-3.17,6.32h1.95c.13,1.51,.55,2.98,1.22,4.33-1.65-.85-2.86-2.45-3.17-4.33Zm8.66,4.32c.68-1.35,1.09-2.82,1.21-4.32h1.95c-.32,1.87-1.51,3.46-3.17,4.32h.01Z"/><g><path class="b" d="M2,32H30c1.1,0,2,.9,2,2v2H0v-2c0-1.1,.9-2,2-2Z"/><path class="b" d="M24,34v2H10v-4h12c1.1,0,2,.9,2,2Z"/></g><path class="d" d="M32,36v26c0,1.1-.9,2-2,2H2c-1.1,0-2-.9-2-2v-28c0-1.1,.9-2,2-2H10c1.1,0,2,.9,2,2v2h20Z"/><path class="e" d="M16.62,41.04c-4.15-.53-8.62,3.03-8.62,7.96,0,3.76,2.64,7.48,7.5,7.97,.1,0,.54,.07,1.07,0,4.17-.27,7.43-3.77,7.43-7.97s-3.27-7.69-7.38-7.96Zm5.29,6.96h-1.95c-.13-1.51-.55-2.98-1.22-4.33,1.65,.85,2.86,2.45,3.17,4.33Zm-5.91,6.97c-1.09-1.45-1.76-3.17-1.94-4.97h3.89c-.18,1.8-.85,3.52-1.94,4.97h0Zm-1.94-6.97c.18-1.8,.85-3.52,1.94-4.97,1.09,1.45,1.76,3.17,1.94,4.97h-3.88Zm-.8-4.32c-.68,1.35-1.09,2.82-1.21,4.32h-1.95c.32-1.87,1.51-3.46,3.17-4.32h-.01Zm-3.17,6.32h1.95c.13,1.51,.55,2.98,1.22,4.33-1.65-.85-2.86-2.45-3.17-4.33Zm8.66,4.32c.68-1.35,1.09-2.82,1.21-4.32h1.95c-.32,1.87-1.51,3.46-3.17,4.32h.01Zm13.25-18.32v8c-5.23,0-9.67-3.34-11.31-8h11.31Z"/><path class="b" d="M24,34v2h-3.31c-.45-1.25-.69-2.6-.69-4h2c1.1,0,2,.9,2,2Z"/><path class="e" d="M44,32h-10c-1.1,0-2-.9-2-2v-10c6.63,0,12,5.37,12,12Z"/><circle class="c" cx="32" cy="32" r="10"/><g><path class="d" d="M32.01,35.12c-.83,0-1.62-.32-2.21-.91-1.22-1.22-1.22-3.2,0-4.41l3-3c1.18-1.18,3.23-1.18,4.41,0,.59,.59,.91,1.37,.91,2.21s-.32,1.62-.91,2.21l-3,3.01c-.59,.59-1.37,.91-2.21,.91Zm3-7.25c-.3,0-.58,.12-.79,.33l-3,3c-.44,.44-.44,1.15,0,1.58,.42,.42,1.16,.42,1.58,0l3-3.01c.21-.21,.33-.49,.33-.79s-.12-.58-.33-.79c-.21-.21-.49-.33-.79-.33Z"/><path class="d" d="M29.01,38.12c-.83,0-1.62-.32-2.21-.91-.59-.59-.91-1.37-.91-2.21s.32-1.62,.91-2.21l3-3c1.18-1.18,3.23-1.18,4.41,0,.59,.59,.91,1.37,.91,2.21s-.32,1.62-.91,2.21l-3,3c-.59,.59-1.37,.91-2.21,.91Zm3-7.25c-.3,0-.58,.12-.79,.33l-3,3c-.21,.21-.33,.49-.33,.79s.12,.58,.33,.79c.42,.42,1.16,.42,1.58,0l3-3c.21-.21,.33-.49,.33-.79s-.12-.58-.33-.79-.49-.33-.79-.33Z"/></g></svg>