<?xml version="1.0" encoding="UTF-8"?><svg id="a" xmlns="http://www.w3.org/2000/svg" viewBox="0 0 49.18 64"><defs><style>.b{fill:#fff;}.c{fill:#5e9fdf;}.d{fill:#e4c290;}.e{fill:#d38e2a;}.f{fill:#1976d2;}</style></defs><path class="e" d="M33.59,39.37c-2.2,2.55-3.76,5.59-4.34,8.82,0,0,0,.03,0,.04-.62,3.55,.12,4.27-.11,6.72-.44,4.75-4.3,8.47-8.78,8.97-5.49,.64-10.46-3.29-11.1-8.78-.04-.38-.07-.76-.07-1.15V11.99c0-.75,.43-1.43,1.1-1.79,3.26-1.74,7.09-2.55,11.14-2.08,15.05,1.76,22.09,19.72,12.17,31.25Z"/><path class="d" d="M30.18,27c0,5.58-4.2,5.97-6.13,15.27-1.78,7.12-11.87,5.76-11.87-1.27v-2c2.21,0,4-1.79,4-4s-1.79-4-4-4v-3.69c0-4.79,3.62-8.98,8.4-9.29,5.24-.34,9.6,3.81,9.6,8.98Z"/><path class="d" d="M21.18,33c-.55,0-1-.45-1-1s.45-1,1-1c2.21,0,4-1.79,4-4s-1.79-4-4-4c-.55,0-1-.45-1-1s.45-1,1-1c3.31,0,6,2.69,6,6s-2.69,6-6,6Z"/><path class="d" d="M35.93,18h-1.92l-1.42,1.41c-.79,.79-2.03,.79-2.82,0l-1.42-1.41h-1.17c-2.21,0-4-1.79-4-4v-5.59c5.49,1.17,10.15,4.76,12.75,9.59Z"/><path class="f" d="M25.18,2V14c0,1.1,.9,2,2,2h2l2,2,2-2h14c1.1,0,2-.9,2-2V2c0-1.1-.9-2-2-2H27.18c-1.1,0-2,.9-2,2Z"/><circle class="b" cx="30.18" cy="8" r="2"/><g><circle class="c" cx="37.18" cy="8" r="2"/><circle class="c" cx="44.18" cy="8" r="2"/></g><path class="d" d="M29.11,52.78c.45,3.74-1.25,7.42-4.39,9.51l-4.77-3.71c-1.02-.81-1.03-2.35,0-3.16l9.29-7.19c-.27,1.5-.31,3.04-.13,4.55Z"/><path class="f" d="M30.18,64v-4h11v-6h-11v-4l-9,7,9,7Z"/><path class="c" d="M1.01,35.83c-.88,0-1.34-1.07-.71-1.7,1.18-1.19,1.18-3.06,0-4.26-.93-.94,.5-2.34,1.42-1.4,2.93,2.97,.74,7.36-.71,7.36Zm2.12,1.13c2.74-2.74,2.74-7.17,0-9.91-.93-.94,.49-2.35,1.42-1.41,3.51,3.53,3.51,9.19,0,12.73-.92,.93-2.35-.47-1.42-1.41Zm42.51-1.43c-1.95-1.95-1.95-5.12,0-7.07,.93-.94,2.35,.46,1.42,1.41-1.17,1.16-1.18,3.05-.02,4.23l.02,.02c.93,.94-.5,2.33-1.42,1.41Zm-2.83,2.83c-3.5-3.53-3.52-9.19,0-12.73,.94-.94,2.35,.47,1.42,1.41-2.74,2.74-2.74,7.17,0,9.91,.93,.94-.5,2.33-1.42,1.41Z"/></svg>