<svg xmlns="http://www.w3.org/2000/svg" xmlns:xlink="http://www.w3.org/1999/xlink" viewBox="0 0 64 64" xmlns:v="https://vecta.io/nano"><path d="M38 15H18c-1.1 0-2-.9-2-2V4a4 4 0 0 1 4-4h16a4 4 0 0 1 4 4v9c0 1.1-.9 2-2 2zm-18-4h16V4H20v7zm35 8v26a4 4 0 0 1-4 4H5a4 4 0 0 1-4-4V19h54z" fill="#5e9fdf"/><g fill="#1976d2"><path d="M56 13c0 7.66.23 6.56-1 8.81l-2.86 5.13A3.99 3.99 0 0 1 48.65 29H7.35a3.99 3.99 0 0 1-3.49-2.06L.5 20.91C-.16 19.7 0 19.31 0 13a4 4 0 0 1 4-4h48a4 4 0 0 1 4 4z"/><path d="M55 21.81V45a4 4 0 0 1-4 4H30V29h18.65a3.99 3.99 0 0 0 3.49-2.06L55 21.81z"/><path d="M55.35 21.17c-.51.93.09-.14-3.21 5.77A3.99 3.99 0 0 1 48.65 29H30v-2c0-2.76 2.24-5 5-5h5.18c.42-1.16 1.52-2 2.82-2h1.13c1.02-3.96 6.71-4.01 7.74 0H53c.98 0 1.88.51 2.35 1.17z"/></g><rect x="33" y="25" width="30" height="38" rx="2" fill="#f3f3f3"/><path d="M61,64h-26c-1.65,0-3-1.35-3-3V27c0-1.65,1.35-3,3-3h26c1.65,0,3,1.35,3,3V61c0,1.65-1.35,3-3,3ZM35,26c-.55,0-1,.45-1,1V61c0,.55,.45,1,1,1h26c.55,0,1-.45,1-1V27c0-.55-.45-1-1-1h-26Z" fill="#d38e2a"/><g fill="#5e9fdf"><path d="M53 22h-3v-1c0-1.1-.9-2-2-2s-2 .9-2 2v1h-3c-.55 0-1 .45-1 1v4c0 .55.45 1 1 1h10c.55 0 1-.45 1-1v-4c0-.55-.45-1-1-1z"/><circle cx="40" cy="37" r="4"/></g><use xlink:href="#B" fill="#1976d2"/><circle cx="40" cy="51" r="4" fill="#5e9fdf"/><use xlink:href="#B" y="14" fill="#1976d2"/><path d="M48 34h12v2H48zm0 4h8v2h-8zm0 9h12v2H48zm0 4h8v2h-8zm-9 7h18v2H39z" fill="#d9d9d9"/><path d="M14 33c-1.66 0-3-1.34-3-3v-2c0-1.66 1.34-3 3-3s3 1.34 3 3v2c0 1.66-1.34 3-3 3zm23-18H19c-.55 0-1-.45-1-1 0-.29.22-1 1-1h18c.55 0 1 .45 1 1 0 .29-.22 1-1 1z" fill="#f3f3f3"/><defs ><path id="B" d="M41 39c-.54 0-.57-.15-2.71-2.29-.39-.39-.39-1.02 0-1.41s1.02-.39 1.41 0l1.29 1.29 3.29-3.29c.39-.39 1.02-.39 1.41 0s.39 1.02 0 1.41l-4 4a.98.98 0 0 1-.71.29z"/></defs></svg>