<svg xmlns="http://www.w3.org/2000/svg" viewBox="0 0 64 64" xmlns:v="https://vecta.io/nano"><ellipse cx="23" cy="59.5" rx="13" ry="4.5" fill="#d38e2a"/><path d="M20.94 7.11C6.62 8.7-.36 26.24 9.78 37.2c3.98 4.3 7.08 9.33 8.69 14.96l1.98 6.92C20.78 60.22 21.82 61 23 61c5.16 0 1.23-11.04 13.13-23.71C47.35 25.35 37.9 5.23 20.94 7.11z" fill="#1976d2"/><circle cx="23" cy="25" r="13" fill="#f3f3f3"/><g fill="#d38e2a"><rect x="39" width="20" height="14" rx="1"/><path d="M43 14l2 2 2-2h-4z"/></g><g fill="#f3f3f3"><circle cx="55" cy="7" r="2"/><circle cx="49" cy="7" r="2"/><circle cx="43" cy="7" r="2"/></g><path d="M25.52 25.29C29.92 22.7 28.06 16 23 16s-6.93 6.7-2.52 9.29c-3.1.75-5.54 2.65-7.01 5.21 4.23 7.32 14.83 7.33 19.06 0-1.47-2.54-3.9-4.45-7.01-5.21z" fill="#1976d2"/></svg>