<svg xmlns="http://www.w3.org/2000/svg" viewBox="0 0 64 64" xmlns:v="https://vecta.io/nano"><rect x="2" y="11" width="60" height="44" rx="3" fill="#1976d2"/><path d="M60 14v35H4V14c0-.55.45-1 1-1h54c.55 0 1 .45 1 1z" fill="#fff"/><path d="M39 63H25l1-8h12l1 8z" fill="#1976d2"/><g fill="#5e9fdf"><path d="M45 64H19c-1.34 0-1.29-2 0-2h26c1.34 0 1.29 2 0 2zm15-50v3H4v-3c0-.55.45-1 1-1h54c.55 0 1 .45 1 1z"/><path d="M35,16v1H19v-4h13c1.66,0,3,1.34,3,3Z"/></g><path d="M5 13h14c1.66 0 3 1.34 3 3v2H4v-4c0-.55.45-1 1-1z" fill="#fff"/><g fill="#5e9fdf"><path d="M4 17h12v16H4zm19 32H4V39h24l-5 10zm37 0H29l5-10h26v10zM22 17h38v16H22z"/><path d="M32 13H21.76c.86 2.22 2.06 3.32 2.62 4H35v-1c0-1.66-1.34-3-3-3z"/><path d="M39.61,17c-2.37,2.73-3.91,5.94-4.48,9.34-.55,3.52-5.69,3.55-6.27-.02-.58-3.49-2.25-6.68-4.48-9.32h15.23Z"/></g><g fill="#1976d2"><path d="M42.25 13c-.84 2.19-2.08 3.33-2.64 4H35v-1c0-1.66-1.34-3-3-3h10.25z"/><path d="M42.82 11a9.93 9.93 0 0 1-.57 2H21.76a10.44 10.44 0 0 1-.58-2h8.59a2.99 2.99 0 0 0 4.46 0h8.59z"/></g><path d="M32.24 0c-7.92-.2-12.17 9.2-6.93 15.02 2.82 3.14 4.85 6.87 5.53 10.99.21 1.31 2.11 1.31 2.32 0 .69-4.1 2.63-7.85 5.45-10.9C43.87 9.43 39.86.21 32.24 0zM32 14c-2.76 0-5-2.24-5-5s2.24-5 5-5 5 2.24 5 5-2.24 5-5 5zM11 37H9c-1.34 0-1.29-2 0-2h2c1.34 0 1.29 2 0 2zm6 0h-2c-1.34 0-1.29-2 0-2h2c1.34 0 1.29 2 0 2zm6 0h-2c-1.34 0-1.29-2 0-2h2c1.34 0 1.29 2 0 2zm6 0h-2c-1.34 0-1.29-2 0-2h2c1.34 0 1.29 2 0 2z" fill="#d38e2a"/></svg>