<svg xmlns="http://www.w3.org/2000/svg" viewBox="0 0 64 64" xmlns:v="https://vecta.io/nano"><g fill="#d38e2a"><path d="M58 57h-5.76c-1.14 0-2.17-.64-2.68-1.66l-1.89-3.79a.99.99 0 0 0-.89-.55h-4.76c-.55 0-1-.45-1-1s.45-1 1-1h4.76c1.14 0 2.17.64 2.68 1.66l1.89 3.79a.99.99 0 0 0 .89.55H58c.55 0 1 .45 1 1s-.45 1-1 1z"/><path d="M63 56a3.01 3.01 0 0 1-3 3 3.01 3.01 0 0 1-3-3 3.01 3.01 0 0 1 3-3 3.01 3.01 0 0 1 3 3zm-2 0c0-.55-.45-1-1-1s-1 .45-1 1 .45 1 1 1 1-.45 1-1zM46.76 35H42c-.55 0-1-.45-1-1s.45-1 1-1h4.76a.99.99 0 0 0 .89-.55l1.89-3.79c.51-1.02 1.54-1.66 2.68-1.66h5.76c.55 0 1 .45 1 1s-.45 1-1 1h-5.76a.99.99 0 0 0-.89.55l-1.89 3.79C48.93 34.36 47.9 35 46.76 35zM59 43H40c-.55 0-1-.45-1-1s.45-1 1-1h19c.55 0 1 .45 1 1s-.45 1-1 1zM37 26c-1.1 0-2-.9-2-2v-6A11.01 11.01 0 0 0 24 7a11.01 11.01 0 0 0-11 11v6c0 1.1-.9 2-2 2s-2-.9-2-2v-6C9 9.73 15.73 3 24 3s15 6.73 15 15v6c0 1.1-.9 2-2 2z"/></g><rect x="4" y="23" width="40" height="38" rx="4" fill="#1976d2"/><circle cx="24" cy="42" r="11" fill="#5e9fdf"/><path d="M22.75 47c-.51 0-1.02-.2-1.41-.59l-3-3c-.78-.78-.78-2.05 0-2.83s2.05-.78 2.83 0l1.59 1.59 4.09-4.09c.78-.78 2.05-.78 2.83 0s.78 2.05 0 2.83l-5.5 5.5c-.39.39-.9.59-1.41.59z" fill="#f3f3f3"/><path d="M60 31a3.01 3.01 0 0 1-3-3 3.01 3.01 0 0 1 3-3 3.01 3.01 0 0 1 3 3 3.01 3.01 0 0 1-3 3zm0-4c-.55 0-1 .45-1 1s.45 1 1 1 1-.45 1-1-.45-1-1-1zm1 18a3.01 3.01 0 0 1-3-3 3.01 3.01 0 0 1 3-3 3.01 3.01 0 0 1 3 3 3.01 3.01 0 0 1-3 3zm0-4c-.55 0-1 .45-1 1s.45 1 1 1 1-.45 1-1-.45-1-1-1z" fill="#d38e2a"/><path d="M10 32v20a4 4 0 0 1-4 4H4V28h2a4 4 0 0 1 4 4z" fill="#1976d2"/><rect y="30" width="8" height="24" rx="2" fill="#d38e2a"/><path d="M9 21h4c.55 0 1 .45 1 1v1H8v-1c0-.55.45-1 1-1zm26 0h4c.55 0 1 .45 1 1v1h-6v-1c0-.55.45-1 1-1z" fill="#5e9fdf"/></svg>