<?xml version="1.0" encoding="UTF-8"?><svg id="a" xmlns="http://www.w3.org/2000/svg" viewBox="0 0 47.02 64"><defs><style>.b{fill:#5e9fdf;}.c{fill:#e4c290;}.d{fill:#fdfdfd;}.e{fill:#d38e2a;}.f{fill:#d9d9d9;}.g{fill:#1976d2;}</style></defs><path class="b" d="M44,28v16c0,5.52-2.24,10.52-5.86,14.14-12.49,12.49-34.14,3.73-34.14-14.14V28H14v16c0,2.65,1.05,5.2,2.93,7.07,6.26,6.26,17.07,1.83,17.07-7.07V28h10Z"/><circle class="e" cx="9" cy="13" r="9"/><path class="d" d="M9,12c-1.32,0-1.32-2,0-2h2c1.32,0,1.32-2,0-2h-1v-1c0-1.32-2-1.32-2,0l.04,1.17c-3.21,1.1-2.4,5.83,.96,5.83,1.32,0,1.32,2,0,2h-2c-1.32,0-1.32,2,0,2h1v1c0,1.32,2,1.32,2,0l-.04-1.17c3.21-1.1,2.4-5.83-.96-5.83Z"/><g><circle class="e" cx="38" cy="9" r="9"/><path class="e" d="M44,28v16c0,11.04-8.96,20-20,20v-10c5.52,0,10-4.48,10-10V28h10Z"/></g><path class="g" d="M4,28H14v6H4v-6Z"/><path class="c" d="M34,28h10v6h-10v-6Z"/><g><path class="d" d="M41,15h-6c-.55,0-1-.45-1-1V7c0-2.21,1.79-4,4-4s4,1.79,4,4c0,.55-.45,1-1,1s-1-.45-1-1c0-1.1-.9-2-2-2s-2,.9-2,2v6h5c.55,0,1,.45,1,1s-.45,1-1,1Z"/><path class="d" d="M39,11h-6c-.55,0-1-.45-1-1s.45-1,1-1h6c.55,0,1,.45,1,1s-.45,1-1,1Z"/></g><path class="f" d="M2,7V2c0-1.32,2-1.32,2,0V7c0,1.32-2,1.32-2,0Zm28-3V1c0-1.32,2-1.32,2,0v3c0,1.32-2,1.32-2,0Zm15,5V2c0-1.32,2-1.32,2,0v7c0,1.32-2,1.32-2,0ZM3,26c-.82,0-.94-.64-1.9-2.55-.59-1.18,1.2-2.08,1.79-.89l1,2c.33,.67-.16,1.45-.89,1.45h0Zm12-.01c-.55,0-1-.45-1-1,0-.16,.04-.31,.11-.45l1-2c.59-1.18,2.38-.29,1.79,.89-.99,1.98-1.1,2.55-1.9,2.55h0Zm18,.01c-.82,0-.94-.65-1.9-2.55-.59-1.18,1.2-2.08,1.79-.89l1,2c.33,.67-.16,1.45-.89,1.45h0Zm12-.01c-.55,0-1-.45-1-1,0-.16,.04-.31,.11-.45l1-2c.59-1.18,2.38-.29,1.79,.89-.99,1.98-1.1,2.55-1.9,2.55h0Z"/></svg>