<svg xmlns="http://www.w3.org/2000/svg" viewBox="0 0 64 64" xmlns:v="https://vecta.io/nano"><path d="M61 28L32 43 3 28l29-15 29 15z" fill="#d38e2a"/><path d="M12 10h40c1.1 0 2 .9 2 2v32H10V12c0-1.1.9-2 2-2z" fill="#f3f3f3"/><g fill="#5e9fdf"><path d="M61 28v34c0 1.1-.9 2-2 2H5c-1.1 0-2-.9-2-2V28l29 15 29-15zM39 6v6l-7 3-7-3V6h14z"/><path d="M45 5l-13 5-13-5 13-5 13 5z"/></g><path d="M15 18h14v14H15zm16 0h18v2H31zm0 4h18v2H31zm0 4h18v2H31zm0 4h18v2H31z" fill="#d9d9d9"/><path d="M37 14V8.62L31.55 5.9c-1.18-.59-.29-2.38.89-1.79l6 3a1 1 0 0 1 .55.89v6c0 1.32-2 1.32-2 0z" fill="#1976d2"/></svg>