<svg xmlns="http://www.w3.org/2000/svg" viewBox="0 0 64 64" xmlns:v="https://vecta.io/nano"><path d="M54 12v52h-6v-8.16H16V64h-6V12h44z" fill="#5e9fdf"/><path d="M54 12H10c0-2.97 5.81-6.1 14-7.39C38.71 2.3 54 7.04 54 12z" fill="#1976d2"/><path d="M16 30h32v22H16z" fill="#5e9fdf"/><path d="M18 16h28v10H18z" fill="#1976d2"/><path d="M17.78 16L16 22h32l-1.78-6H17.78z" fill="#5e9fdf"/><path d="M38 35H26c-1.34 0-1.29-2 0-2h12c1.34 0 1.29 2 0 2zM18 48h8v2h-8zm0-4h4v2h-4z" fill="#f3f3f3"/><path d="M54 28.27V48h-6V32h5c0-1.74-.26-2.99 1-3.73z" fill="#1976d2"/><path d="M48 32v18a2.01 2.01 0 0 1-3.23 1.58l-9-7c-1.02-.81-1.03-2.35 0-3.16l8.23-6.4V34c0-1.1.9-2 2-2h2z" fill="#5e9fdf"/><path d="M55 44v-4h-9v-6h9v-4l9 7-9 7z" fill="#1976d2"/><path d="M46 50v-4h9v-6h-9v-4l-9 7 9 7z" fill="#d38e2a"/><g fill="#1976d2"><path d="M24,12v2c0,1.1-.9,2-2,2H10v-4h14Z"/><path d="M24 4.61V12H10c0-2.97 5.81-6.1 14-7.39z"/></g><g fill="#5e9fdf"><path d="M0 0h22v14H0z"/><path d="M0 0l11 8 11-8H0z"/></g></svg>