<svg xmlns="http://www.w3.org/2000/svg" xmlns:xlink="http://www.w3.org/1999/xlink" viewBox="0 0 64 64" xmlns:v="https://vecta.io/nano"><style><![CDATA[.D{fill:#5e9fdf}.E{fill:#1976d2}]]></style><circle cx="32" cy="6" r="6" class="D"/><g class="E"><use xlink:href="#B"/><circle cx="32" cy="5" r="3"/></g><circle cx="15.61" cy="14.61" r="6" class="D"/><g class="E"><use xlink:href="#B" x="-16.39" y="8.61"/><circle cx="15.61" cy="13.61" r="3"/></g><circle cx="13.61" cy="50.38" r="6" class="D"/><g class="E"><use xlink:href="#B" x="-18.39" y="44.38"/><circle cx="13.61" cy="49.38" r="3"/></g><circle cx="50.38" cy="50.39" r="6" class="D"/><g class="E"><use xlink:href="#B" x="18.38" y="44.39"/><circle cx="50.38" cy="49.39" r="3"/></g><circle cx="50.38" cy="13.62" r="6" class="D"/><g class="E"><use xlink:href="#B" x="18.38" y="7.62"/><circle cx="50.38" cy="12.62" r="3"/></g><circle cx="6" cy="32" r="6" class="D"/><g class="E"><use xlink:href="#B" x="-26" y="26"/><circle cx="6" cy="31" r="3"/></g><circle cx="58" cy="32" r="6" class="D"/><g class="E"><use xlink:href="#B" x="26" y="26"/><circle cx="58" cy="31" r="3"/></g><circle cx="32" cy="58" r="6" class="D"/><g class="E"><use xlink:href="#B" y="52"/><circle cx="32" cy="57" r="3"/></g><path d="M47 33.03v-2.07a1.97 1.97 0 0 0-1.97-1.97c-.67 0-1.49-.38-1.83-1.28-.25-.65-.9-1.78.14-2.82.54-.54.97-1.82 0-2.78l-1.46-1.46a1.96 1.96 0 0 0-2.78 0c-.48.48-1.33.79-2.21.4-.64-.28-1.89-.62-1.89-2.09 0-.78-.6-1.97-1.97-1.97h-2.07a1.97 1.97 0 0 0-1.97 1.97c0 .67-.38 1.49-1.28 1.83-.65.25-1.78.9-2.82-.14-.54-.54-1.82-.97-2.78 0l-1.46 1.46a1.96 1.96 0 0 0 0 2.78c.48.48.79 1.33.4 2.21-.28.64-.62 1.89-2.09 1.89-.78 0-1.97.6-1.97 1.97v2.07A1.97 1.97 0 0 0 18.96 35c.67 0 1.49.38 1.83 1.28.25.65.9 1.78-.14 2.82-.54.54-.97 1.82 0 2.78l1.46 1.46a1.96 1.96 0 0 0 2.78 0c.48-.48 1.33-.79 2.21-.4.64.28 1.89.62 1.89 2.09 0 .78.6 1.97 1.97 1.97h2.07A1.97 1.97 0 0 0 35 45.03c0-.67.38-1.49 1.28-1.83.65-.25 1.78-.9 2.82.14.54.54 1.82.97 2.78 0l1.46-1.46a1.96 1.96 0 0 0 0-2.78c-.48-.48-.79-1.33-.4-2.21.28-.64.62-1.89 2.09-1.89.78 0 1.97-.6 1.97-1.97zM32 39c-3.87 0-7-3.13-7-7s3.13-7 7-7 7 3.13 7 7-3.13 7-7 7z" fill="#d38e2a"/><defs ><path id="B" d="M36.46 10a5.97 5.97 0 0 1-8.92 0 5.97 5.97 0 0 1 8.92 0z"/></defs></svg>