<svg xmlns="http://www.w3.org/2000/svg" viewBox="0 0 64 64" xmlns:v="https://vecta.io/nano"><path d="M53 48.01v-4.02A1.99 1.99 0 0 0 51.01 42c-1.53 0-1.94-1.16-1.99-1.29-.31-.82-1.08-2 .04-3.12.94-.94.81-2.18.09-2.9l-2.84-2.84a1.99 1.99 0 0 0-2.82 0c-1.08 1.08-2.2.54-2.31.49-.8-.36-2.18-.64-2.18-2.22 0-1.67-1.32-2.12-1.99-2.12h-4.02A1.99 1.99 0 0 0 31 29.99c0 1.53-1.09 1.95-1.26 2.02-.85.34-2.03 1.05-3.11-.03-1.14-1.15-2.38-.69-2.94-.12l-2.84 2.84a1.99 1.99 0 0 0 0 2.82c1.08 1.08.54 2.2.49 2.31-.36.8-.64 2.18-2.22 2.18-1.67 0-2.12 1.32-2.12 1.99v4.02a1.99 1.99 0 0 0 1.99 1.99c1.53 0 1.94 1.16 1.99 1.29.31.82 1.08 2-.04 3.12-.68.67-1.05 1.94-.09 2.9l2.84 2.84a1.99 1.99 0 0 0 2.82 0c1.08-1.08 2.21-.54 2.32-.49.8.36 2.17.64 2.17 2.22 0 1.36.98 2.12 1.99 2.12h4.02A1.99 1.99 0 0 0 39 62.02c0-1.53 1.16-1.94 1.29-1.99.73-.27 1.95-1.13 3.11.03s2.44.57 2.91.09l2.84-2.84a1.99 1.99 0 0 0 0-2.82c-1.08-1.08-.54-2.2-.49-2.31.36-.8.64-2.18 2.22-2.18 1.67 0 2.12-1.32 2.12-1.99zm-16.31 7.85c-6.84 1.13-12.68-4.71-11.56-11.55.68-4.14 4.02-7.48 8.17-8.17 6.84-1.12 12.68 4.71 11.55 11.55-.68 4.14-4.02 7.48-8.17 8.17zM31 50c-.55 0-.43-.02-3.71-3.29-.39-.39-.39-1.02 0-1.41l3-3c.94-.94 2.35.48 1.41 1.41L29.41 46l2.29 2.29a1.01 1.01 0 0 1-.71 1.71zm8 0c-.88 0-1.34-1.07-.71-1.71L40.58 46l-2.29-2.29c-.94-.94.48-2.35 1.41-1.41l3 3c.39.39.39 1.02 0 1.41-3.11 3.11-3.13 3.29-3.71 3.29zm-5.98.8l2-10c.26-1.3 2.22-.91 1.96.39l-2 10c-.26 1.3-2.22.9-1.96-.39z" fill="#d38e2a"/><path d="M59 19v-2c0-.55-.45-1-1-1s-1.2.08-1.48-.7c-.24-.66-.7-1.29-.11-1.88l.37-.37c.39-.39.39-1.02 0-1.41l-1.42-1.42c-.39-.39-1.02-.39-1.41 0s-.79.9-1.54.55c-.64-.3-1.41-.41-1.41-1.25V9c0-.55-.45-1-1-1h-2c-.55 0-1 .45-1 1s.08 1.2-.7 1.48c-.66.24-1.29.7-1.88.11l-.37-.37c-.39-.39-1.02-.39-1.41 0l-1.42 1.42c-.39.39-.39 1.02 0 1.41s.9.79.55 1.54c-.3.64-.41 1.41-1.25 1.41H40c-.55 0-1 .45-1 1v2c0 .55.45 1 1 1s1.2-.08 1.48.7c.24.66.7 1.29.11 1.88l-.37.37c-.39.39-.39 1.02 0 1.41l1.42 1.42c.39.39 1.02.39 1.41 0s.79-.9 1.54-.55c.64.3 1.41.41 1.41 1.25V27c0 .55.45 1 1 1h2c.55 0 1-.45 1-1s-.08-1.2.7-1.48c.66-.24 1.29-.7 1.88-.11l.37.37c.39.39 1.02.39 1.41 0l1.42-1.42c.39-.39.39-1.02 0-1.41s-.9-.79-.55-1.54c.3-.64.41-1.41 1.25-1.41H58c.55 0 1-.45 1-1zm-7.22 2.04c-4.2 3-8.82-1.63-5.82-5.82a1.07 1.07 0 0 1 .26-.26c4.2-3 8.82 1.63 5.82 5.82a1.07 1.07 0 0 1-.26.26z" fill="#5e9fdf"/><path d="M33 16v-4c0-.55-.45-1-1-1-1.88 0-1.2-.23-2.31-2.44-.2-.39-.14-.87.17-1.18l.46-.46c.39-.39.39-1.02 0-1.41l-2.83-2.83c-.39-.39-1.02-.39-1.41 0-1.33 1.33-1.01.69-3.36-.09-.42-.14-.71-.51-.71-.96V1A1.02 1.02 0 0 0 21 0h-4c-.55 0-1 .45-1 1 0 1.88-.23 1.2-2.44 2.31-.39.2-.87.14-1.18-.17l-.46-.46c-.39-.39-1.02-.39-1.41 0L7.68 5.51c-.39.39-.39 1.02 0 1.41 1.33 1.33.69 1.01-.09 3.36-.14.42-.51.71-.96.71h-.65c-.55 0-1 .45-1 1v4c0 .55.45 1 1 1 1.88 0 1.2.23 2.31 2.44.2.39.14.87-.17 1.18l-.46.46c-.39.39-.39 1.02 0 1.41l2.83 2.83c.39.39 1.02.39 1.41 0 1.33-1.33 1.01-.69 3.36.09.42.14.71.51.71.96v.65c0 .55.45 1 1 1h4c.55 0 1-.45 1-1 0-1.88.23-1.2 2.44-2.31.39-.2.87-.14 1.18.17l.46.46c.39.39 1.02.39 1.41 0l2.83-2.83c.39-.39.39-1.02 0-1.41-1.33-1.33-.69-1.01.09-3.36.14-.42.51-.71.96-.71h.65c.55 0 1-.45 1-1zm-14 4c-3.31 0-6-2.69-6-6s2.69-6 6-6 6 2.69 6 6-2.69 6-6 6z" fill="#1976d2"/><path d="M61 18c0-6.62-5.38-12-12-12-1.32 0-1.32-2 0-2a14.02 14.02 0 0 1 14 14c0 1.32-2 1.32-2 0zM15.83 31.71C7.23 30.19 1 22.74 1 14c0-1.32 2-1.32 2 0 0 7.77 5.54 14.39 13.17 15.75 1.29.23.97 2.2-.35 1.97zm30.91 30.48A20.06 20.06 0 0 0 55 46c0-1.32 2-1.32 2 0a22.1 22.1 0 0 1-9.08 17.81c-1.06.77-2.25-.84-1.17-1.62z" fill="#f3f3f3"/></svg>