<svg xmlns="http://www.w3.org/2000/svg" viewBox="0 0 64 64" xmlns:v="https://vecta.io/nano"><path d="M64 8.17v41.66c0 2.31-1.79 4.17-4 4.17H4c-2.21 0-4-1.86-4-4.17V8.17C0 5.86 1.79 4 4 4h56c2.21 0 4 1.86 4 4.17z" fill="#5e9fdf"/><path d="M44,64H20c2.75-2.75,4-6.21,4-10h16c0,4.08,1.44,7.44,4,10Z" fill="#1976d2"/><path d="M45 64H19c-.55 0-1-.45-1-1 0-.29.22-1 1-1h26c.55 0 1 .45 1 1 0 .29-.22 1-1 1zM61 7.4v15.2c0 .22-.45.4-1 .4H4c-.55 0-1-.18-1-.4V7.4c0-.22.45-.4 1-.4h56c.55 0 1 .18 1 .4z" fill="#5e9fdf"/><path d="M61 12v36c0 .55-.45 1-1 1H4c-.55 0-1-.45-1-1V8c0-.55.45-1 1-1l17 .11a3.98 3.98 0 0 1 2.2 1.39l1.6 2c.76.95 1.91 1.5 3.12 1.5H61z" fill="#fff"/><path d="M34.84 7H24V4h9.24c.64.94 1.18 1.94 1.6 3zM16 4v3H5.15c.43-1.05.97-2.06 1.61-3H16z" fill="#1976d2"/><path d="M35.97 12h-8.05c-1.21 0-2.36-.55-3.12-1.5l-.8-1V7h10.84a15.9 15.9 0 0 1 1.13 5z" fill="#5e9fdf"/><path d="M28 26.86V49H12V26.86C5.15 22.88 2.17 14.44 5.15 7H16v3.74l4 1.14 4-1.14V9.5l.8 1c.76.95 1.91 1.5 3.12 1.5h8.05A16.08 16.08 0 0 1 28 26.86z" fill="#f3f3f3"/><path d="M27.54.15C26.86-.27 26 .22 26 1v10.19l-6 1.71-6-1.71V1c0-.78-.86-1.27-1.54-.85C3.21 6.03 4.05 19.88 14 24.59V49h12V24.59C35.94 19.88 36.79 6.03 27.54.15z" fill="#d38e2a"/><path d="M20 45c-.81 0-2-.63-2-2V33c0-1.1.9-2 2-2 .81 0 2 .63 2 2v10c0 1.1-.9 2-2 2z" fill="#e4c290"/><path d="M54 29.69v-1.38c0-.72-.59-1.31-1.31-1.31-.18 0-.93-.07-1.21-.81l-.2-.49c-.4-.88.4-1.54.28-1.43a1.31 1.31 0 0 0 0-1.85l-.97-.97a1.31 1.31 0 0 0-1.85 0c-.13.13-.7.61-1.43.28l-.49-.2c-.9-.34-.81-1.37-.81-1.21 0-.72-.59-1.31-1.31-1.31h-1.38c-.72 0-1.31.59-1.31 1.31 0 .18-.07.93-.81 1.21l-.49.2c-.88.4-1.54-.4-1.43-.28a1.31 1.31 0 0 0-1.85 0l-.97.97a1.31 1.31 0 0 0 0 1.85c.13.13.61.7.28 1.43l-.2.49c-.34.9-1.37.81-1.21.81-.72 0-1.31.59-1.31 1.31v1.38c0 .72.59 1.31 1.31 1.31.18 0 .93.07 1.21.81l.2.49c.4.88-.4 1.54-.28 1.43a1.31 1.31 0 0 0 0 1.85l.97.97a1.31 1.31 0 0 0 1.85 0c.13-.13.7-.61 1.43-.28l.49.2c.9.34.81 1.37.81 1.21 0 .72.59 1.31 1.31 1.31h1.38c.72 0 1.31-.59 1.31-1.31 0-.18.07-.93.81-1.21l.49-.2c.88-.4 1.54.4 1.43.28a1.31 1.31 0 0 0 1.85 0l.97-.97a1.31 1.31 0 0 0 0-1.85c-.13-.13-.61-.7-.28-1.43l.2-.49c.34-.9 1.37-.81 1.21-.81.72 0 1.31-.59 1.31-1.31z" fill="#5e9fdf"/><circle cx="44" cy="29" r="5" fill="#1976d2"/><path d="M33 41h6v2h-6zm10 0h13v2H43zm-10 4h6v2h-6zm10 0h13v2H43z" fill="#d9d9d9"/></svg>