<svg xmlns="http://www.w3.org/2000/svg" viewBox="0 0 64 64" xmlns:v="https://vecta.io/nano"><g fill="#5e9fdf"><rect x="6" y="3" width="58" height="9" rx="2"/><path d="M51 12H17V3h19.53a4.01 4.01 0 0 1 3.58 2.21l.79 1.58A3.99 3.99 0 0 0 44.48 9h6.53v3z"/></g><path d="M64 9v50c0 1.1-.9 2-2 2H2c-1.1 0-2-.9-2-2V5c0-1.1.9-2 2-2h17.53a4.02 4.02 0 0 1 3.58 2.21l.78 1.58A4.02 4.02 0 0 0 27.47 9H64z" fill="#f3f3f3"/><g fill="#1976d2"><circle cx="60" cy="6" r="1"/><circle cx="56" cy="6" r="1"/><circle cx="52" cy="6" r="1"/></g><g fill="#5e9fdf"><circle cx="20" cy="6" r="1"/><path d="M56 58v3H8v-3c0-1.1.9-2 2-2h1.17c.85 0 1.62-.54 1.89-1.34.29-.89.65-1.75 1.06-2.57a2 2 0 0 0-.39-2.28l-.83-.84a1.99 1.99 0 0 1 0-2.82l4.25-4.25a1.99 1.99 0 0 1 2.82 0l.84.83a1.99 1.99 0 0 0 2.28.39c.82-.41 1.68-.77 2.57-1.06.8-.27 1.34-1.04 1.34-1.89V39c0-1.1.9-2 2-2h6c1.1 0 2 .9 2 2v1.17c0 .85.54 1.62 1.34 1.89.89.29 1.75.65 2.57 1.06a2 2 0 0 0 2.28-.39l.84-.83a1.99 1.99 0 0 1 2.82 0l4.25 4.25a1.99 1.99 0 0 1 0 2.82l-.83.84a2 2 0 0 0-.39 2.28c.41.82.77 1.68 1.06 2.57.27.8 1.04 1.34 1.89 1.34H54c1.1 0 2 .9 2 2z"/><path d="M46,61H18c0-4.75,2.37-8.96,6-11.48,9.23-6.47,22,.18,22,11.48Z"/></g><path d="M39.97 44.23v5.27c-4.71-3.29-11.11-3.39-15.97.02V44.2c-.46-.29-.89-.59-1.31-.94a1.9 1.9 0 0 0 .4-.14c.82-.41 1.68-.77 2.57-1.06.8-.27 1.34-1.04 1.34-1.89V39c0-1.1.9-2 2-2h6c1.1 0 2 .9 2 2v1.17c0 .85.54 1.62 1.34 1.89 1.69.55 2.45 1.06 2.98 1.21a16.41 16.41 0 0 1-1.35.96z" fill="#1976d2"/><path d="M40 61H24V49.52a13.98 13.98 0 0 1 15.98-.02L40 61z" fill="#5e9fdf"/><path d="M38 20v9.29a2 2 0 0 1-1.11 1.79l-4 2a2.01 2.01 0 0 1-1.79 0l-4-2a2 2 0 0 1-1.11-1.79V20c-8.92 4.65-9.4 17.19-.9 22.53.57.36.9.99.9 1.67V61h12V44.2c0-.67.33-1.31.9-1.67 8.49-5.33 8.03-17.87-.9-22.53z" fill="#d38e2a"/><path d="M34 61h-4v-8c0-1.1.9-2 2-2 .81 0 2 .63 2 2v8z" fill="#e4c290"/><path d="M4 14h14v2H4zm0 4h10v2H4zm56-2H46v-2h14zm0 4H50v-2h10z" fill="#d9d9d9"/></svg>