<svg xmlns="http://www.w3.org/2000/svg" xmlns:xlink="http://www.w3.org/1999/xlink" viewBox="0 0 64 64" xmlns:v="https://vecta.io/nano"><path d="M44 64H20c2.56-2.56 4-6.03 4-9.66V54h16v.34A13.67 13.67 0 0 0 44 64h0z" fill="#1976d2"/><g fill="#5e9fdf"><rect x="18" y="62" width="28" height="2" rx="1"/><rect x="2" y="7" width="60" height="48" rx="4"/><rect x="5" y="10" width="54" height="40" rx="1"/></g><path d="M59 15v34c0 .55-.45 1-1 1H6c-.55 0-1-.45-1-1V11c0-.55.45-1 1-1h14.08c1.21 0 2.36.55 3.12 1.5l1.6 2c.76.95 1.91 1.5 3.12 1.5H59z" fill="#fff"/><path d="M27.07 10H8.93l1.84-3h14.46l1.84 3z" fill="#1976d2"/><path d="M29.43 15h-1.51c-1.21 0-2.36-.55-3.12-1.5l-1.6-2c-.76-.95-1.91-1.5-3.12-1.5h6.99l1.78 2.91c.39.64.58 1.37.58 2.09z" fill="#5e9fdf"/><path d="M29.43 15a4.01 4.01 0 0 1-.51 1.96A3.99 3.99 0 0 1 25.43 19H10.57a3.99 3.99 0 0 1-3.49-2.04 4.02 4.02 0 0 1 .07-4.05L8.93 10h11.15c1.21 0 2.36.55 3.12 1.5l1.6 2c.76.95 1.91 1.5 3.12 1.5h1.51z" fill="#f3f3f3"/><path d="M16.29 1.79L8.86 13.95a2 2 0 0 0 1.71 3.04h14.87c1.56 0 2.52-1.71 1.71-3.04L19.71 1.79c-.78-1.28-2.63-1.28-3.41 0z" fill="#d38e2a"/><rect x="17" y="5" width="2" height="6" rx="1" fill="#f3f3f3"/><circle cx="43" cy="23" r="3" fill="#d38e2a"/><circle cx="18" cy="14" r="1" fill="#f3f3f3"/><g fill="#d38e2a"><use xlink:href="#B"/><path d="M32 35H20c-.55 0-1-.45-1-1s.45-1 1-1h12c.55 0 1 .45 1 1s-.45 1-1 1z"/><path d="M32 35c-.55 0-1-.45-1-1V22c0-.55.45-1 1-1s1 .45 1 1v12c0 .55-.45 1-1 1z"/><path d="M32 47c-.55 0-1-.45-1-1V34c0-.55.45-1 1-1s1 .45 1 1v12c0 .55-.45 1-1 1z"/><path d="M44 35H32c-.55 0-1-.45-1-1s.45-1 1-1h12c.55 0 1 .45 1 1s-.45 1-1 1z"/><circle cx="21" cy="23" r="3"/><use xlink:href="#C"/><circle cx="43" cy="45" r="3"/><use xlink:href="#C" x="11" y="11"/><circle cx="21" cy="45" r="3"/><use xlink:href="#B" x="-11" y="11"/><circle cx="32" cy="34" r="10"/></g><path d="M27.791 30.602l1.874.699c1.031.385 1.559 1.542 1.175 2.573h0c-.385 1.031-1.542 1.559-2.573 1.175h0c-1.555-.58-2.342-2.304-1.762-3.859h0c.192-.515.771-.78 1.286-.587zm7.934 4.448h0c-1.031.385-2.188-.144-2.573-1.175h0c-.385-1.031.144-2.188 1.175-2.573l1.874-.699c.515-.192 1.094.072 1.286.587h0c.58 1.555-.207 3.279-1.762 3.859z" fill="#e4c290"/><path d="M9 29h8v2H9zm0 4h8v2H9zm0 4h8v2H9zm38-8h8v2h-8zm0 4h8v2h-8zm0 4h8v2h-8z" fill="#d9d9d9"/><g fill="#d38e2a"><use xlink:href="#D"/><use xlink:href="#E"/><use xlink:href="#D" x="-59" y="58"/><use xlink:href="#E" x="-59" y="58"/></g><defs ><path id="B" d="M32 35c-.26 0-.51-.1-.71-.29-.39-.39-.39-1.02 0-1.41l11-11c.39-.39 1.02-.39 1.41 0s.39 1.02 0 1.41l-11 11a.98.98 0 0 1-.71.29z"/><path id="C" d="M32 35c-.26 0-.51-.1-.71-.29l-11-11c-.39-.39-.39-1.02 0-1.41s1.02-.39 1.41 0l11 11c.39.39.39 1.02 0 1.41a.98.98 0 0 1-.71.29z"/><path id="D" d="M60 5c-.26 0-.51-.1-.71-.29-.39-.39-.39-1.02 0-1.41l3-3c.39-.39 1.02-.39 1.41 0s.39 1.02 0 1.41l-3 3a.98.98 0 0 1-.71.29z"/><path id="E" d="M63 5c-.26 0-.51-.1-.71-.29l-3-3c-.39-.39-.39-1.02 0-1.41s1.02-.39 1.41 0l3 3c.39.39.39 1.02 0 1.41a.98.98 0 0 1-.71.29z"/></defs></svg>