<svg xmlns="http://www.w3.org/2000/svg" viewBox="0 0 64 64" xmlns:v="https://vecta.io/nano"><rect x="2" y="6" width="60" height="48" rx="4" fill="#5e9fdf"/><path d="M44,64H20c2.75-2.75,4-6.21,4-10h16c0,4.08,1.44,7.44,4,10Z" fill="#1976d2"/><g fill="#5e9fdf"><path d="M45 64H19c-.55 0-1-.45-1-1 0-.29.22-1 1-1h26c.55 0 1 .45 1 1 0 .29-.22 1-1 1z"/><rect x="5" y="9" width="54" height="40" rx="1"/></g><path d="M59 14v34c0 .55-.45 1-1 1H6c-.55 0-1-.45-1-1V10c0-.55.45-1 1-1l15 .11a3.98 3.98 0 0 1 2.2 1.39l1.6 2c.76.95 1.91 1.5 3.12 1.5H59z" fill="#f3f3f3"/><path d="M53 7.17V9H11V6h40.83L53 7.17z" fill="#1976d2"/><path d="M53 9v5H27.92c-1.21 0-2.36-.55-3.12-1.5l-1.6-2A4.01 4.01 0 0 0 20.08 9H53z" fill="#5e9fdf"/><path d="M53 14v35H11V9h9.08a4.01 4.01 0 0 1 3.12 1.5l1.6 2c.76.95 1.91 1.5 3.12 1.5H53z" fill="#d9d9d9"/><path d="M51 8v41H13V2c0-1.1.9-2 2-2h28l8 8z" fill="#f3f3f3"/><path d="M41 17.99v-1.98c0-.56-.45-1.01-1.01-1.01h-.57c-.9 0-1.39-1.2-.76-1.83l.4-.4a1.02 1.02 0 0 0 0-1.43l-1.4-1.4a1.02 1.02 0 0 0-1.43 0l-.4.4c-.63.63-1.83.14-1.83-.76v-.57C34 8.45 33.55 8 32.99 8h-1.98C30.45 8 30 8.45 30 9.01v.57c0 .9-1.2 1.39-1.83.76l-.4-.4a1.02 1.02 0 0 0-1.43 0l-1.4 1.4a1.02 1.02 0 0 0 0 1.43l.4.4c.63.63.14 1.83-.76 1.83h-.57c-.56 0-1.01.45-1.01 1.01v1.98c0 .56.45 1.01 1.01 1.01h.57c.9 0 1.39 1.2.76 1.83l-.4.4a1.02 1.02 0 0 0 0 1.43l1.4 1.4a1.02 1.02 0 0 0 1.43 0l.4-.4c.63-.63 1.83-.14 1.83.76v.57c0 .56.45 1.01 1.01 1.01h1.98c.56 0 1.01-.45 1.01-1.01v-.57c0-.9 1.2-1.39 1.83-.76l.4.4a1.02 1.02 0 0 0 1.43 0l1.4-1.4a1.02 1.02 0 0 0 0-1.43l-.4-.4c-.63-.63-.14-1.83.76-1.83h.57c.56 0 1.01-.45 1.01-1.01z" fill="#d38e2a"/><circle cx="32" cy="17" r="3" fill="#f3f3f3"/><path d="M51 8h-6c-1.1 0-2-.9-2-2V0l8 8zM17 29h8v2h-8zm12 0h18v2H29zm-12 5h8v2h-8zm12 0h18v2H29zm-12 5h8v2h-8zm12 0h18v2H29zm-12 5h8v2h-8zm12 0h18v2H29z" fill="#d9d9d9"/></svg>