<svg xmlns="http://www.w3.org/2000/svg" viewBox="0 0 64 64" xmlns:v="https://vecta.io/nano"><path d="M50 43c0 3.31-2.69 6-6 6V37c3.31 0 6 2.69 6 6z" fill="#1976d2"/><path d="M45 60c0 1.1-.9 2-2 2s-2-.9-2-2V26c0-1.78 2.19-2.67 3.41-1.41.85.83.59-1.5.59 35.41z" fill="#5e9fdf"/><path d="M41 26v34a24.94 24.94 0 0 0-11.88-6.62L19 51V35l10.12-2.38A24.85 24.85 0 0 0 41 26z" fill="#f3f3f3"/><rect x="4" y="34" width="16" height="18" rx="2" fill="#5e9fdf"/><path d="M4 50c.1 0 0 .8 0-14a4 4 0 0 0-4 4v6a4 4 0 0 0 4 4z" fill="#d38e2a"/><path d="M6 52l2.62 10.49A1.99 1.99 0 0 0 10.56 64H13c1.1 0 2-.9 2-2 0-.12-1.95-1.68-2.05-2.32l-.86-5.18c-.12-.7.34-.94 1.92-2.51H6zm5-4h9v-2h-9c-1.34 0-1.29 2 0 2z" fill="#1976d2"/><path d="M11 38H7c-1.34 0-1.29-2 0-2h4c1.34 0 1.29 2 0 2zm-2 4H7c-1.34 0-1.29-2 0-2h2c1.34 0 1.29 2 0 2z" fill="#f3f3f3"/><path d="M63 44H53c-1.34 0-1.29-2 0-2h10c1.34 0 1.29 2 0 2zm-9-8c-.88 0-1.34-1.07-.71-1.71l7-7c.94-.94 2.35.48 1.41 1.41-7.55 7.55-7.13 7.29-7.71 7.29zm7 23c-.59 0-.17.24-7.71-7.29-.94-.94.48-2.35 1.41-1.41l7 7a1.01 1.01 0 0 1-.71 1.71z" fill="#d38e2a"/><path d="M37 9v14c0 1.1-.9 2-2 2-4.78 0-3.55-.59-7 4l-3-4H9c-1.1 0-2-.9-2-2V9c0-1.1.9-2 2-2h26c1.1 0 2 .9 2 2z" fill="#1976d2"/><g fill="#5e9fdf"><path d="M31 18c-1.1 0-2-.9-2-2 0-1.88 2.49-2.81 3.66-1.12.88 1.27-.03 3.12-1.66 3.12z"/><circle cx="22" cy="16" r="2"/></g><g fill="#1976d2"><path d="M37 9v7a8.98 8.98 0 0 1-4.34-1.12c-.56-.81-1.36-.84-1.26-.84A9 9 0 0 1 28 7h7c1.1 0 2 .9 2 2z"/><path d="M32.66 14.88c-.44-.24-.86-.52-1.25-.84.52.11.96.42 1.25.84z"/></g><circle cx="13" cy="16" r="2" fill="#f3f3f3"/><circle cx="37" cy="7" r="7" fill="#d38e2a"/><circle cx="37" cy="7" r="5" fill="#f3f3f3"/><g fill="#d38e2a"><path d="M41,10c-2,2.67-6,2.66-8,0,2-2.67,6-2.66,8,0Z"/><circle cx="37" cy="6" r="2"/></g></svg>