<svg xmlns="http://www.w3.org/2000/svg" viewBox="0 0 64 64" xmlns:v="https://vecta.io/nano"><g fill="#5e9fdf"><path d="M47,39l-3,3-7-7,3-3,7,7Z"/><path d="M50 24c0 11.04-8.96 20-20 20s-20-8.96-20-20C10 9.04 25.83-.49 38.93 6.11 45.54 9.41 50 16.18 50 24z"/><path d="M47 24c0 9.39-7.61 17-17 17s-17-7.61-17-17C13 11.27 26.42 3.22 37.54 8.76 43.04 11.39 47 17.31 47 24z"/></g><g fill="#1976d2"><path d="M48 38l-5 5 14.97 14.97a3.54 3.54 0 0 0 5 0 3.54 3.54 0 0 0 0-5L48 38z"/><path d="M48 38l-5 5c-1.34 1.34.71 3.29 2 2l5-5c1.34-1.34-.71-3.29-2-2zm-37-5V13c0-1.34-2-1.29-2 0v20c0 1.34 2 1.29 2 0zm18-2l-.45 1.68c-.49 2.92 3.34 4.2 3.53 2.68l.92-7.37h-5l1 3z"/><path d="M32 29h-5c-.55 0-1-.45-1-1V18c0-.55.45-1 1-1h5c1.1 0 2 .9 2 2v8c0 1.1-.9 2-2 2z"/></g><path d="M11 13v20a40.25 40.25 0 0 1 15-5V18c-5.1-.64-10.22-2.27-15-5z" fill="#f3f3f3"/><path d="M37 27h-3v-8h3c.55 0 1 .45 1 1v6c0 .55-.45 1-1 1z" fill="#1976d2"/><path d="M31 47v8c0 1.66-1.34 3-3 3H6c-1.66 0-3-1.34-3-3v-8c0-1.66 1.34-3 3-3l2.2-2.93c.4-.53 1.2-.53 1.6 0L12 44h16c1.66 0 3 1.34 3 3z" fill="#d38e2a"/><path d="M8 56H6c-1.32 0-1.32-2 0-2h2c1.32 0 1.32-2 0-2a3.01 3.01 0 0 1-3-3 3.01 3.01 0 0 1 3-3h2c1.32 0 1.32 2 0 2H8c-1.32 0-1.32 2 0 2a3.01 3.01 0 0 1 3 3 3.01 3.01 0 0 1-3 3zm11-2h-3v-2h2c1.32 0 1.32-2 0-2h-2v-2h3c1.32 0 1.32-2 0-2h-3c-1.1 0-2 .9-2 2v6c0 1.1.9 2 2 2h3c1.32 0 1.32-2 0-2zm7 2a3.01 3.01 0 0 1-3-3v-4a3.01 3.01 0 0 1 3-3 3.01 3.01 0 0 1 3 3v4a3.01 3.01 0 0 1-3 3zm-1-7v4c0 1.32 2 1.32 2 0v-4c0-1.32-2-1.32-2 0z" fill="#fff"/><path d="M9 20c-1.66 0-3 1.34-3 3s1.34 3 3 3m-6-2H1c-1.32 0-1.32-2 0-2h2c1.32 0 1.32 2 0 2zm1-5c-.54 0-.57-.15-2.71-2.29-.94-.94.48-2.35 1.41-1.41l2 2a1.01 1.01 0 0 1-.71 1.71zM2 31c-.88 0-1.34-1.07-.71-1.71l2-2c.94-.94 2.35.48 1.41 1.41-2.18 2.18-2.17 2.29-2.71 2.29z" fill="#d38e2a"/><path d="M49.86 21.58c-1.04.31-1.98.42-2.99.42-.68-5.95-4.49-10.92-9.33-13.24.33-.96.8-1.85 1.39-2.65 5.98 2.99 10.13 8.77 10.93 15.47z" fill="#1976d2"/><path d="M46.87,22c-6.78-.09-11.54-6.8-9.33-13.24,4.83,2.31,8.64,7.27,9.33,13.24Z" fill="#5e9fdf"/><circle cx="47" cy="12" r="8" fill="#f3f3f3"/><path d="M51 12l-4-5-4 5h2v5h4v-5h2z" fill="#d38e2a"/></svg>