<?xml version="1.0" encoding="UTF-8"?><svg id="a" xmlns="http://www.w3.org/2000/svg" viewBox="0 0 64 64"><defs><style>.b{fill:#fff;}.c{fill:#5e9fdf;}.d{fill:#d38e2a;}.e{fill:#f3f3f3;}.f{fill:#d9d9d9;}.g{fill:#1976d2;}</style></defs><path class="c" d="M62,19V58H2V19c0-1.66,1.34-3,3-3l55,.18c1.2,.42,2.01,1.55,2,2.82Z"/><path class="g" d="M1,58H63c.55,0,1,.45,1,1v2c0,1.66-1.34,3-3,3H3c-1.66,0-3-1.34-3-3v-2c0-.55,.45-1,1-1Z"/><path class="b" d="M60,19V56H4V19c0-.55,.45-1,1-1H59c.55,0,1,.45,1,1Z"/><path class="e" d="M39,60h-14c-1.1,0-2-.9-2-2,0-.1-.84,0,18,0,0,.81-.63,2-2,2Z"/><path class="g" d="M61,16.77c0,3,.29,4.34-1,5.46v-3.23c0-.55-.45-1-1-1h-24v-2c25.73,0,24.81-.3,26,.77Z"/><path class="e" d="M60,19v3.23c-.53,.48-1.23,.77-2,.77-13.4,0-12.87-.18-13.3,.45l-1.7,2.55-1.7-2.55c-.4-.59-.81-.45-3.3-.45-1.66,0-3-1.34-3-3v-2h24c.55,0,1,.45,1,1Z"/><path class="d" d="M63,3v15c0,1.66-1.34,3-3,3-13.37,0-12.88-.18-13.3,.45l-1.7,2.55c-1.8-2.7-1.84-3-2.54-3h-2.46c-1.66,0-3-1.34-3-3V3c0-1.66,1.34-3,3-3h20c1.66,0,3,1.34,3,3Z"/><path class="b" d="M46.47,12.46c-.94,.93,.46,2.35,1.4,1.42,1.15-1.14,3.1-1.14,4.26,0,.4,.39,1.03,.38,1.41-.01,1.58-1.61-3.75-4.69-7.07-1.41Zm-2.84-2.83c-.94,.93,.47,2.35,1.41,1.42,2.74-2.73,7.17-2.73,9.91,0,.93,.92,2.35-.49,1.41-1.42-3.52-3.51-9.21-3.51-12.73,0Zm15.57-2.83c-5.07-5.07-13.32-5.07-18.39,0-.94,.94,.48,2.35,1.41,1.41,4.3-4.29,11.27-4.29,15.57,0,.94,.94,2.35-.48,1.41-1.41Zm-9.2,8.2c-1.32,0-1.32,2,0,2s1.32-2,0-2Z"/><g><path class="f" d="M48,40h-16c-.55,0-1-.45-1-1v-12c0-.55,.45-1,1-1h14c1.65,0,3,1.35,3,3v10c0,.55-.45,1-1,1Zm-15-2h14v-9c0-.55-.45-1-1-1h-13v10Z"/><path class="f" d="M46,52h-14c-.55,0-1-.45-1-1v-12c0-.55,.45-1,1-1h16c.55,0,1,.45,1,1v10c0,1.65-1.35,3-3,3Zm-13-2h13c.55,0,1-.45,1-1v-9h-14v10Z"/><path class="f" d="M32,52h-14c-1.65,0-3-1.35-3-3v-10c0-.55,.45-1,1-1h16c.55,0,1,.45,1,1v12c0,.55-.45,1-1,1Zm-15-12v9c0,.55,.45,1,1,1h13v-10h-14Z"/><path class="f" d="M32,40H16c-.55,0-1-.45-1-1v-10c0-1.65,1.35-3,3-3h14c.55,0,1,.45,1,1v12c0,.55-.45,1-1,1Zm-15-2h14v-10h-13c-.55,0-1,.45-1,1v9Z"/><g><path class="f" d="M24,36c-.55,0-1-.45-1-1v-4c0-.55,.45-1,1-1s1,.45,1,1v4c0,.55-.45,1-1,1Z"/><path class="f" d="M22.59,47.41c-.26,0-.51-.1-.71-.29-.39-.39-.39-1.02,0-1.41l2.82-2.82c.39-.39,1.02-.39,1.41,0s.39,1.02,0,1.41l-2.82,2.82c-.2,.2-.45,.29-.71,.29Zm3.41-13.41h-4c-.55,0-1-.45-1-1s.45-1,1-1h4c.55,0,1,.45,1,1s-.45,1-1,1Z"/><path class="f" d="M42,48h-4c-.55,0-1-.45-1-1s.45-1,1-1h4c.55,0,1,.45,1,1s-.45,1-1,1Zm-16.59-.59c-.26,0-.51-.1-.71-.29l-2.82-2.82c-.39-.39-.39-1.02,0-1.41s1.02-.39,1.41,0l2.82,2.82c.39,.39,.39,1.02,0,1.41-.2,.2-.45,.29-.71,.29Zm16.59-13.41h-4c-.55,0-1-.45-1-1s.45-1,1-1h4c.55,0,1,.45,1,1s-.45,1-1,1Z"/><path class="f" d="M42,44h-4c-.55,0-1-.45-1-1s.45-1,1-1h4c.55,0,1,.45,1,1s-.45,1-1,1Z"/></g></g></svg>