<?xml version="1.0" encoding="UTF-8"?><svg id="a" xmlns="http://www.w3.org/2000/svg" viewBox="0 0 54 64"><defs><style>.b{fill:#5e9fdf;}.c{fill:#d38e2a;}.d{fill:#f3f3f3;}.e{fill:#1976d2;}</style></defs><circle class="c" cx="27" cy="48" r="16"/><path class="e" d="M20,30L40,0h14l-20,30h-14Z"/><path class="c" d="M35,36H19c-.55,0-1-.45-1-1v-6c0-.55,.45-1,1-1h16c.55,0,1,.45,1,1v6c0,.55-.45,1-1,1Zm-15-2h14v-4h-14v4Z"/><path class="b" d="M34,30L14,0H0L20,30h14Z"/><circle class="d" cx="27" cy="48" r="13"/><path class="c" d="M20.34,51h-3.92c-.56-1.9-.56-4.1,0-6h3.92c-.45,1.97-.45,4.03,0,6Zm4.83,7.84c-3.49-.57-6.42-2.8-7.97-5.84h3.73c.87,2.27,2.31,4.29,4.24,5.84Zm-4.24-15.84h-3.73c1.55-3.04,4.48-5.27,7.97-5.84-1.92,1.54-3.38,3.57-4.24,5.84Zm9.96,10c-.85,1.86-2.18,3.48-3.89,4.71-1.71-1.23-3.04-2.85-3.89-4.71h7.78Zm-7.78-10c.85-1.86,2.18-3.48,3.89-4.71,1.71,1.23,3.04,2.85,3.89,4.71h-7.78Zm-.73,2h9.24c.51,1.97,.51,4.03,0,6h-9.24c-.5-1.92-.52-3.99,0-6Zm10.69,8h3.73c-1.55,3.04-4.48,5.27-7.97,5.84,1.93-1.55,3.37-3.57,4.24-5.84Zm-4.24-15.85c3.49,.58,6.42,2.81,7.97,5.85h-3.73c-.87-2.29-2.33-4.31-4.24-5.85Zm8.75,13.85h-3.92c.45-1.97,.45-4.03,0-6h3.92c.56,1.9,.56,4.1,0,6Z"/></svg>