<?xml version="1.0" encoding="UTF-8"?><svg id="a" xmlns="http://www.w3.org/2000/svg" viewBox="0 0 64 64"><defs><style>.b{fill:#fff;}.c{fill:#5e9fdf;}.d{fill:#d38e2a;}.e{fill:#1976d2;}</style></defs><g><path class="e" d="M0,0H64V6H0V0Z"/><path class="e" d="M0,6H64v6H0V6Z"/></g><g><path class="c" d="M32,42v21L1.22,20.61c-.79-1.04-1.22-2.31-1.22-3.62V0L32,42Z"/><path class="c" d="M32,52v11L0,19V10L32,52Z"/><path class="c" d="M32,42v21L62.78,20.61c.79-1.04,1.22-2.31,1.22-3.62V0L32,42Z"/><path class="c" d="M32,52v11L64,19V10L32,52Z"/></g><circle class="d" cx="32" cy="48" r="16"/><circle class="b" cx="32" cy="48" r="13"/><g><path class="d" d="M32,57c-.3,0-.59-.14-.78-.38l-8-10c-.29-.36-.29-.86-.02-1.22l3-4c.19-.25,.48-.4,.8-.4h10c.31,0,.61,.15,.8,.4l3,4c.27,.36,.27,.87-.02,1.22l-8,10c-.19,.24-.48,.38-.78,.38Zm-6.74-11.02l6.74,8.42,6.74-8.42-2.24-2.98h-9l-2.24,2.98Z"/><g><path class="d" d="M40,47H24c-.55,0-1-.45-1-1s.45-1,1-1h16c.55,0,1,.45,1,1s-.45,1-1,1Z"/><path class="d" d="M59,60c-.22,0-.44-.07-.62-.22l-5-4c-.43-.35-.5-.97-.16-1.41,.35-.43,.97-.5,1.41-.16l5,4c.43,.35,.5,.97,.16,1.41-.2,.25-.49,.38-.78,.38Zm-54,0c-.29,0-.58-.13-.78-.38-.35-.43-.28-1.06,.16-1.41l5-4c.43-.34,1.06-.28,1.41,.16,.35,.43,.28,1.06-.16,1.41l-5,4c-.18,.15-.4,.22-.62,.22Zm27-3h0c-.12,0-.25-.02-.36-.07-.13-.05-.25-.13-.34-.22-.1-.1-.18-.22-.23-.36-.01-.03-.02-.06-.03-.08l-3-9.99c-.07-.24-.05-.51,.06-.73l2-4c.25-.49,.85-.69,1.34-.45,.34,.17,.55,.51,.55,.87,0-.36,.21-.7,.55-.87,.49-.25,1.09-.05,1.34,.45l2,4c.11,.23,.14,.49,.06,.73l-3,9.99s-.02,.06-.03,.08c-.05,.13-.13,.25-.23,.35s-.22,.18-.35,.23c-.11,.04-.23,.07-.35,.07Zm-1.93-10.91l1.93,6.43,1.93-6.43-1.82-3.65c-.07-.14-.1-.28-.11-.43,0,.14-.04,.29-.11,.43l-1.82,3.65Zm31.93,2.91h-8c-.55,0-1-.45-1-1s.45-1,1-1h8c.55,0,1,.45,1,1s-.45,1-1,1Zm-52,0H2c-.55,0-1-.45-1-1s.45-1,1-1H10c.55,0,1,.45,1,1s-.45,1-1,1Zm44-7c-.29,0-.58-.13-.78-.38-.34-.43-.27-1.06,.16-1.41l5-4c.43-.34,1.06-.27,1.41,.16,.34,.43,.27,1.06-.16,1.41l-5,4c-.18,.15-.41,.22-.62,.22Zm-44,0c-.22,0-.44-.07-.62-.22l-5-4c-.43-.35-.5-.97-.16-1.41,.34-.43,.98-.5,1.41-.16l5,4c.43,.35,.5,.97,.16,1.41-.2,.25-.49,.38-.78,.38Z"/></g></g></svg>