<svg xmlns="http://www.w3.org/2000/svg" viewBox="0 0 64 64" xmlns:v="https://vecta.io/nano"><path d="M51 32c-6.47 0-11.83 4.74-12.82 10.93-.03-.1-.15.64-2.18 9.07h4v7h7v5h13v-9.63C68.41 46.29 62.68 32 51 32z" fill="#5e9fdf"/><path d="M53.76 53H53c-1.32 0-1.32-2 0-2h.76c1.32 0 .92-2 2.24-2 1.1 0 2-.9 2-2s-.9-2-2-2h-3c-1.32 0-1.32-2 0-2h3a4 4 0 0 1 4 4 4.01 4.01 0 0 1-3.36 3.95l-.2.39C55.93 52.36 54.9 53 53.76 53zm-8.05 1.71A7.8 7.8 0 0 1 40.17 57c-.24 0-.17.3-.17-2 1.63 0 3.08-.5 4.29-1.71.94-.94 2.36.48 1.42 1.42z" fill="#1976d2"/><path d="M13 32c6.47 0 11.83 4.74 12.82 10.93.03-.1.15.64 2.18 9.07h-4v7h-7v5H4v-9.63C-4.41 46.29 1.32 32 13 32z" fill="#e4c290"/><path d="M10.24 53H11c1.32 0 1.32-2 0-2h-.76c-1.32 0-.92-2-2.24-2-1.1 0-2-.9-2-2s.9-2 2-2h3c1.32 0 1.32-2 0-2H8a4 4 0 0 0-4 4 4.01 4.01 0 0 0 3.36 3.95l.2.39C8.07 52.36 9.1 53 10.24 53zm8.05 1.71A7.8 7.8 0 0 0 23.83 57c.24 0 .17.3.17-2-1.63 0-3.08-.5-4.29-1.71-.94-.94-2.36.48-1.42 1.42z" fill="#d38e2a"/><rect x="5" y="2" width="32" height="24" rx="2" transform="matrix(-1 0 0 -1 42 28)" fill="#e4c290"/><g fill="#1976d2"><rect x="27" width="32" height="24" rx="2"/><path d="M42.99 24L47 28l4-4"/></g><path d="M21.01 26L17 30l-4-4" fill="#e4c290"/><g fill="#1976d2"><path d="M30 16h-9v-4h9z"/><path d="M21 12v-2l-5 4 5 4v-2"/></g><g fill="#5e9fdf"><circle cx="54" cy="12" r="3"/><circle cx="43" cy="12" r="3"/></g><g fill="#e4c290"><path d="M27 8h8v4h-8z"/><path d="M33 8V6l5 4-5 4v-2"/></g></svg>