<svg xmlns="http://www.w3.org/2000/svg" viewBox="0 0 64 64" xmlns:v="https://vecta.io/nano"><path d="M62,19V58H2V19c0-1.66,1.34-3,3-3H59c1.66,0,3,1.34,3,3Z" fill="#5e9fdf"/><path d="M1 58h62c.55 0 1 .45 1 1v2c0 1.66-1.34 3-3 3H3c-1.66 0-3-1.34-3-3v-2c0-.55.45-1 1-1z" fill="#1976d2"/><path d="M60 19v37H4V19c0-.55.45-1 1-1h54c.55 0 1 .45 1 1z" fill="#fff"/><path d="M39 60H25c-.81 0-2-.63-2-2h18c0 .81-.63 2-2 2z" fill="#f3f3f3"/><rect x="13" y="7" width="38" height="26" rx="2" fill="#d38e2a"/><path d="M50.94 31.47a2.02 2.02 0 0 1-1.38 1.45L37.75 20.2l-5.08 4.55a1.03 1.03 0 0 1-1.34 0l-5.08-4.55-11.81 12.72a2.02 2.02 0 0 1-1.38-1.45l11.7-12.61L13.09 8.43c.2-.69.77-1.22 1.47-1.38L32 22.66 49.44 7.05c.7.16 1.27.69 1.47 1.38L39.24 18.86l11.7 12.61z" fill="#e4c290"/><g fill="#d9d9d9"><path d="M7 42h22v2H7zm0 4h22v2H7zm0 4h22v2H7zm24-8h8v2h-8zm0 4h8v2h-8zm0 4h8v2h-8z"/><rect x="41" y="41" width="16" height="12" rx="2"/></g><g fill="#c8c8c8"><path d="M49 51c-.55 0-1-.45-1-1v-4c-.88 0-1.34-1.07-.71-1.71l1-1c.62-.63 1.71-.18 1.71.71v6c0 .55-.45 1-1 1z"/><path d="M50,51h-2c-.55,0-1-.45-1-1s.45-1,1-1h2c.55,0,1,.45,1,1s-.45,1-1,1Z"/></g><path d="M32 18a10.01 10.01 0 0 1-9.95-11h19.9A10.01 10.01 0 0 1 32 18z" fill="#e4c290"/><circle cx="32" cy="8" r="8" fill="#f3f3f3"/><path d="M32 13c-.55 0-1-.45-1-1V6.41l-.29.29c-.39.39-1.02.39-1.41 0s-.39-1.02 0-1.41l2-2c.63-.63 1.71-.18 1.71.71v8c0 .55-.45 1-1 1z" fill="#d38e2a"/></svg>