<svg xmlns="http://www.w3.org/2000/svg" viewBox="0 0 64 64" xmlns:v="https://vecta.io/nano"><path d="M58,24V58c0,1.09-.9,2-2,2H2c-1.1,0-2-.91-2-2V24H58Z" fill="#5e9fdf"/><path d="M58 24L29 46 0 24 29 2l29 22z" fill="#1976d2"/><path d="M52 2v26.55L29 46 6 28.55V2c0-1.1.9-2 2-2h42c1.1 0 2 .9 2 2z" fill="#f3f3f3"/><g fill="#1976d2"><path d="M57.31 59.5c-.35.32-.81.5-1.31.5H2c-.5 0-.96-.18-1.31-.5l25.96-18.8c1.4-1.01 3.3-1.01 4.7 0l25.96 18.8z"/><path d="M58 39.35V58c0 .6-.27 1.14-.69 1.5L39.18 46.37c3.25-7.35 11.85-10.35 18.82-7.02z"/><path d="M57.31 59.5c-.35.32-.81.5-1.31.5H40.52c-2.88-4.11-3.24-9.33-1.34-13.63L57.31 59.5z"/></g><circle cx="52" cy="52" r="12" fill="#e4c290"/><g fill="#d38e2a"><circle cx="52" cy="52" r="9"/><rect x="10" y="4" width="18" height="24" rx="2"/></g><g fill="#fff"><path d="M15 13v2h2v10h4V13h-6z"/><circle cx="19" cy="9" r="2"/></g><path d="M36 4h12v2H36zm-4 4h16v2H32zm0 4h16v2H32zm0 4h16v2H32zm0 4h16v2H32zm0 4h10v2H32z" fill="#d9d9d9"/><path d="M52 57c-.55 0-1-.45-1-1v-5.59l-.29.29c-.39.39-1.02.39-1.41 0s-.39-1.02 0-1.41l2-2c.63-.63 1.71-.18 1.71.71v8c0 .55-.45 1-1 1z" fill="#fff"/></svg>