<?xml version="1.0" encoding="UTF-8"?><svg id="a" xmlns="http://www.w3.org/2000/svg" viewBox="0 0 58 64.02"><defs><style>.b{fill:#fff;}.c{fill:#5e9fdf;}.d{fill:#e4c290;}.e{fill:#c8c8c8;}.f{fill:#fdfdfd;}.g{fill:#d38e2a;}.h{fill:#f3f3f3;}.i{fill:#d9d9d9;}.j{fill:#1976d2;}</style></defs><path class="j" d="M40,6.02V58.02c0,3.31-2.69,6-6,6H6c-3.31,0-6-2.69-6-6V6.02C0,2.71,2.69,.02,6,.02,36.32,.02,34.68-.15,36.14,.42c2.26,.84,3.86,3.08,3.86,5.6Z"/><path class="b" d="M38,6.02V56.02c0,2.21-1.79,4-4,4H6c-2.21,0-4-1.79-4-4V6.02c0-2.21,1.79-4,4-4h5.28c.43,0,.81,.28,.95,.68,.27,.83,.56,2.32,2.21,2.32h11.12c.86,0,1.63-.55,1.9-1.37l.31-.95c.14-.4,.52-.68,.95-.68l5.77,.04c1.84,.17,3.51,1.83,3.51,3.96Z"/><circle class="c" cx="10" cy="14.02" r="5"/><path class="j" d="M14.2,16.74c-1.51,2.32-4.61,2.98-6.93,1.47-.59-.38-1.09-.88-1.47-1.47,2.32-2.29,6.08-2.3,8.4,0Z"/><path class="i" d="M31,58.02H9c-1.34,0-1.29-2,0-2H31c1.34,0,1.29,2,0,2Z"/><circle class="j" cx="10" cy="13.02" r="2"/><circle class="g" cx="10" cy="28.02" r="5"/><g><path class="d" d="M14.2,30.74c-1.51,2.32-4.61,2.98-6.93,1.47-.59-.38-1.09-.88-1.47-1.47,2.32-2.29,6.08-2.3,8.4,0Z"/><circle class="d" cx="10" cy="27.02" r="2"/></g><g><circle class="c" cx="10" cy="42.02" r="5"/><path class="c" d="M14.2,44.74c-1.51,2.32-4.61,2.98-6.93,1.47-.59-.38-1.09-.88-1.47-1.47,2.32-2.29,6.08-2.3,8.4,0Z"/><circle class="c" cx="10" cy="41.02" r="2"/></g><path class="i" d="M18,10.02h8v2h-8v-2Zm0,4h16v2H18v-2Zm0,11h8v2h-8v-2Zm0,4h16v2H18v-2Zm0,11h8v2h-8v-2Z"/><path class="h" d="M38,20.54V55.02h-12c-2.21,0-4-1.79-4-4v-5h12v-2h-12v-2h4v-2h-4v-9h12v-2h-11.45c.2-.37,.47-.69,.78-.97,1.43-1.31,2.37-1.03,8.89-1.03,.69-3.02,2.9-5.46,5.78-6.48Z"/><path class="e" d="M22,40.02h4v2h-4v-2Zm12-11v2h-12c0-.7,.19-1.4,.55-2h11.45Zm-12,15h12v2h-12v-2Z"/><path class="i" d="M18,44.02h16v2H18v-2Z"/><path class="j" d="M40,20.08V55.02h-2V20.54c.63-.23,1.31-.38,2-.46Z"/><g><path class="c" d="M58,31.02v20c0,1.1-.9,2-2,2H26c-1.1,0-2-.9-2-2V31.02c0-.59,.26-1.12,.67-1.49,.8-.73-1.34-.51,31.33-.51,1.1,0,2,.9,2,2Z"/><path class="c" d="M58,31.02l-17,11-17-11c0-1.06,.86-2,2-2h30c1.1,0,2,.9,2,2Z"/></g><circle class="g" cx="41" cy="29.02" r="7"/><path class="f" d="M41,34.02c-.55,0-1-.45-1-1v-5.59l-.29,.29c-.39,.39-1.02,.39-1.41,0s-.39-1.02,0-1.41l2-2c.29-.29,.72-.37,1.09-.22,.37,.15,.62,.52,.62,.92v8c0,.55-.45,1-1,1Z"/></svg>