<svg xmlns="http://www.w3.org/2000/svg" viewBox="0 0 64 64" xmlns:v="https://vecta.io/nano"><path d="M50 6v52c0 3.31-2.69 6-6 6H16c-3.31 0-6-2.69-6-6V6c0-3.31 2.69-6 6-6 30.32 0 28.68-.17 30.14.4 2.2.82 3.86 3 3.86 5.6z" fill="#1976d2"/><path d="M48 6v50a4 4 0 0 1-4 4H16a4 4 0 0 1-4-4V6a4 4 0 0 1 4-4h5.28c.43 0 .81.28.95.68.27.83.56 2.32 2.21 2.32h11.12a2.01 2.01 0 0 0 1.9-1.37l.31-.95c.14-.4.52-.68.95-.68l5.77.04C46.32 2.21 48 3.85 48 6z" fill="#fff"/><path d="M43,58H21c-1.34,0-1.29-2,0-2h22c1.34,0,1.29,2,0,2Z" fill="#d9d9d9"/><path d="M48 26h2v28h-2z" fill="#1976d2"/><path d="M48 26v28H30a4 4 0 0 1-4-4V30a4 4 0 0 1 4-4h18z" fill="#f3f3f3"/><rect x="28" y="28" width="36" height="24" rx="2" fill="#1976d2"/><path d="M64 30L46 42 28 30c0-1.1.9-2 2-2h32c1.1 0 2 .9 2 2z" fill="#5e9fdf"/><path d="M50,11.38V28h-2V11.04c.68,.06,1.35,.17,2,.34Z" fill="#1976d2"/><path d="M48 11.04V28H36.09C32.25 19.65 38.96 10.22 48 11.04z" fill="#f3f3f3"/><path d="M57.91,28c-4.26,9.3-17.52,9.34-21.82,0h21.82Z" fill="#1976d2"/><circle cx="47" cy="23" r="10" fill="#d38e2a"/><path d="M48.2 15.09c-5.84-.84-10.59 4.58-8.82 10.4 1.21 3.97 5.33 6.07 8.81 5.41 1.29-.24.94-2.21-.37-1.97-5.3 1-9.03-5.59-5.37-9.85 3.83-4.46 11.23-1.28 10.51 4.64-.21 1.77-2.96 1.65-2.96-.22v-2.52c0-3.6-7-2.12-7 3a3.01 3.01 0 0 0 3 3c1.13 0 2.15.12 3.15-.92 2.1 1.91 5.46.65 5.79-2.11.52-4.41-2.61-8.29-6.75-8.89zM48 24c0 .55-.45 1-1 1h-1c-1.89 0-.99-4 2-4v3z" fill="#f3f3f3"/><path d="M12 7v20a2 2 0 0 1-2-2V9c0-1.12.92-2 2-2z" fill="#1976d2"/><path d="M22.33 18.49C12.7 27.05 13.05 27 12 27V7c1.06 0 .72-.03 10.33 8.51a2 2 0 0 1 0 2.98z" fill="#f3f3f3"/><path d="M12 9v4H0v8h12v4l9-8-9-8z" fill="#d38e2a"/></svg>