<svg xmlns="http://www.w3.org/2000/svg" viewBox="0 0 64 64" xmlns:v="https://vecta.io/nano"><path d="M31 43v2c0 1.34 2 1.29 2 0v-2c0-1.34-2-1.29-2 0zm0-6v2c0 1.34 2 1.29 2 0v-2c0-1.34-2-1.29-2 0zm2 20v-2c0-1.34-2-1.29-2 0v2c0 1.34 2 1.29 2 0zm0-54V1c0-1.34-2-1.29-2 0v2c0 1.34 2 1.29 2 0zm-2 46v2c0 1.34 2 1.29 2 0v-2c0-1.34-2-1.29-2 0zm0-24v2c0 1.34 2 1.29 2 0v-2c0-1.34-2-1.29-2 0zm0-18v2c0 1.34 2 1.29 2 0V7c0-1.34-2-1.29-2 0zm0 54v2c0 1.34 2 1.29 2 0v-2c0-1.34-2-1.29-2 0zm0-48v2c0 1.34 2 1.29 2 0v-2c0-1.34-2-1.29-2 0zm0 6v2c0 1.34 2 1.29 2 0v-2c0-1.34-2-1.29-2 0zm0 12v2c0 1.34 2 1.29 2 0v-2c0-1.34-2-1.29-2 0z" fill="#d38e2a"/><path d="M7.16 17.24L25.7 30.37c1.13.8 1.13 2.47 0 3.26L7.16 46.76c-1.32.94-3.16 0-3.16-1.63V18.87c0-1.62 1.83-2.57 3.16-1.63z" fill="#1976d2"/><path d="M56.84 17.24L38.3 30.37c-1.13.8-1.13 2.47 0 3.26l18.54 13.13c1.32.94 3.16 0 3.16-1.63V18.87c0-1.62-1.83-2.57-3.16-1.63z" fill="#5e9fdf"/><path d="M39 32l7-5v10l-7-5zm17 1h-6c-1.34 0-1.29-2 0-2h6c1.34 0 1.29 2 0 2zM17 3h10v2H17zm-6 4h16v2H11zm36 50H37v-2h10zm6 4H37v-2h16zM25 32L6 19v26l19-13z" fill="#f3f3f3"/><path d="M64 58v6h-6l6-6z" fill="#d38e2a"/></svg>