<svg xmlns="http://www.w3.org/2000/svg" viewBox="0 0 64 64" xmlns:v="https://vecta.io/nano"><path d="M64 5v44c0 1.66-1.49 3-3.33 3H3.33C1.49 52 0 50.66 0 49V5c0-1.66 1.49-3 3.33-3h57.34C62.51 2 64 3.34 64 5z" fill="#5e9fdf"/><path d="M62 5v41H2V5c0-.55.5-1 1.12-1h57.76C61.5 4 62 4.45 62 5z" fill="#fff"/><path d="M41 63H25l1.14-11h13.72L41 63z" fill="#1976d2"/><path d="M46,64H20c-1.34,0-1.29-2,0-2h26c1.34,0,1.29,2,0,2Z" fill="#5e9fdf"/><path d="M4 6h14v18H4zm42 20h14v18H46zM20 10h40v2H20zm6-4h34v2H26zm-6 8h40v2H20zm0 4h40v2H20zm0 4h24v2H20zm-8 4h32v2H12zm-8 4h40v2H4zm0 4h40v2H4zm0 4h40v2H4zm0 4h16v2H4z" fill="#d9d9d9"/><g fill="#d38e2a"><path d="M11 1v19l-3-2-3 2V1c0-.55.45-1 1-1h4c.55 0 1 .45 1 1zm44 49l-2-9 9 2-7 7z"/><path d="M54.996 44.999l2.001-2.001 4.999 4.999-2.001 2.001z"/></g></svg>