<svg xmlns="http://www.w3.org/2000/svg" viewBox="0 0 64 64" xmlns:v="https://vecta.io/nano"><path d="M57 8v48c0 3.64-2.43 6.71-5.75 7.68-.71.21-1.47.32-2.25.32H25a8 8 0 0 1-8-8V8a8.5 8.5 0 0 1 .24-1.97C18.12 2.56 21.26 0 25 0h24a8 8 0 0 1 8 8z" fill="#5e9fdf"/><path d="M54 9v45c0 3.31-2.69 6-6 6H26c-3.31 0-6-2.69-6-6V9a5.95 5.95 0 0 1 .66-2.73C21.65 4.33 23.67 3 26 3h3.29a.98.98 0 0 1 .94.68l.31.95A2.01 2.01 0 0 0 32.44 6h9.12a2.01 2.01 0 0 0 1.9-1.37l.31-.94a1 1 0 0 1 .95-.69H48c3.31 0 6 2.69 6 6z" fill="#fff"/><rect x="26" y="56" width="22" height="2" rx="1" fill="#d9d9d9"/><path d="M43,37c-.55,0-1-.45-1-1v-4c0-2.76-2.24-5-5-5s-5,2.24-5,5v4c0,.55-.45,1-1,1s-1-.45-1-1v-4c0-3.86,3.14-7,7-7s7,3.14,7,7v4c0,.55-.45,1-1,1Z" fill="#d38e2a"/><rect x="27" y="35" width="20" height="18" rx="2" fill="#1976d2"/><g fill="#f3f3f3"><circle cx="43" cy="39" r="1"/><circle cx="43" cy="43" r="1"/></g><path d="M40 43c0-1.84-1.66-3.3-3.56-2.95-1.18.21-2.15 1.17-2.38 2.35-.3 1.56.6 2.94 1.94 3.42V48c0 .55.45 1 1 1h0c.55 0 1-.45 1-1v-2.18A2.99 2.99 0 0 0 40 43zM20.66 6.27A5.95 5.95 0 0 0 20 9v22.85c-.66.1-1.32.15-2 .15-.34 0-.67-.01-1-.04V8a8.5 8.5 0 0 1 .24-1.97L18 6c.91 0 1.8.09 2.66.27z" fill="#5e9fdf"/><path d="M31 19c0 6.49-4.78 11.88-11 12.85V9a5.95 5.95 0 0 1 .66-2.73C26.56 7.5 31 12.74 31 19z" fill="#f3f3f3"/><path d="M29 19c0 1.04-.14 2.05-.42 3-.19.7-.45 1.37-.78 2-1.82 3.56-5.52 6-9.8 6s-7.98-2.44-9.8-6c-.33-.63-.59-1.3-.78-2-.28-.95-.42-1.96-.42-3s.14-2.05.42-3c.19-.7.45-1.37.78-2 1.82-3.56 5.52-6 9.8-6s7.98 2.44 9.8 6c.33.63.59 1.3.78 2 .28.95.42 1.96.42 3z" fill="#1976d2"/><g fill="#5e9fdf"><path d="M18 30c-.24 0-.48-.08-.67-.25C14.56 27.28 12 24.26 12 19s2.56-8.27 5.33-10.75c.38-.34.95-.34 1.33 0 2.77 2.47 5.33 5.49 5.33 10.75s-2.56 8.27-5.33 10.75c-.19.17-.43.25-.67.25zm0-19.64c-2.43 2.31-4 4.76-4 8.64s1.57 6.33 4 8.64c2.43-2.31 4-4.76 4-8.64s-1.57-6.33-4-8.64z"/><path d="M27.8 14H8.2c-.33.63-.59 1.3-.78 2h21.16c-.19-.7-.45-1.37-.78-2zM8.2 24h19.6c.33-.63.59-1.3.78-2H7.42c.19.7.45 1.37.78 2z"/></g><path d="M35 11h16v2H35zm0 4h16v2H35zm0 4h12v2H35z" fill="#d9d9d9"/></svg>