<svg xmlns="http://www.w3.org/2000/svg" viewBox="0 0 64 64" xmlns:v="https://vecta.io/nano"><g fill="#d38e2a"><path d="M9.76 47H6c-.55 0-1-.45-1-1s.45-1 1-1h3.76a.99.99 0 0 0 .89-.55l1.89-3.79c.51-1.02 1.54-1.66 2.68-1.66h6.76c.55 0 1 .45 1 1s-.45 1-1 1h-6.76a.99.99 0 0 0-.89.55l-1.89 3.79C11.93 46.36 10.9 47 9.76 47z"/><path d="M4 43a3.01 3.01 0 0 1 3 3 3.01 3.01 0 0 1-3 3 3.01 3.01 0 0 1-3-3 3.01 3.01 0 0 1 3-3zm0 4c.55 0 1-.45 1-1s-.45-1-1-1-1 .45-1 1 .45 1 1 1zm18-22h-6.76c-1.14 0-2.17-.64-2.68-1.66l-1.89-3.79a.99.99 0 0 0-.89-.55H6.02c-.55 0-1-.45-1-1s.45-1 1-1h3.76c1.14 0 2.17.64 2.68 1.66l1.89 3.79a.99.99 0 0 0 .89.55H22c.55 0 1 .45 1 1s-.45 1-1 1zm2 8H5c-.55 0-1-.45-1-1s.45-1 1-1h19c.55 0 1 .45 1 1s-.45 1-1 1z"/><path d="M1 18a3.01 3.01 0 0 1 3-3 3.01 3.01 0 0 1 3 3 3.01 3.01 0 0 1-3 3 3.01 3.01 0 0 1-3-3zm2 0c0 .55.45 1 1 1s1-.45 1-1-.45-1-1-1-1 .45-1 1zM0 32a3.01 3.01 0 0 1 3-3 3.01 3.01 0 0 1 3 3 3.01 3.01 0 0 1-3 3 3.01 3.01 0 0 1-3-3zm2 0c0 .55.45 1 1 1s1-.45 1-1-.45-1-1-1-1 .45-1 1z"/></g><path d="M56 8v48c0 3.64-2.43 6.71-5.75 7.68-.71.21-1.47.32-2.25.32H24a8 8 0 0 1-8-8V8a8 8 0 0 1 8-8h24a8 8 0 0 1 8 8z" fill="#5e9fdf"/><path d="M53 9v45c0 3.31-2.69 6-6 6H25c-3.31 0-6-2.69-6-6V9c0-3.31 2.69-6 6-6h3.29a.98.98 0 0 1 .94.68l.31.95A2.01 2.01 0 0 0 31.44 6h9.12a2.01 2.01 0 0 0 1.9-1.37l.31-.94a1 1 0 0 1 .95-.69H47c3.31 0 6 2.69 6 6z" fill="#fff"/><path d="M24 41h24v2H24zm0-5h24v2H24zm0 10h24v2H24zm24 10c0 .55-.45 1-1 1H25c-.55 0-1-.45-1-1s.45-1 1-1h22c.55 0 1 .45 1 1z" fill="#d9d9d9"/><path d="M45 43h3v-2h-2.77a8.76 8.76 0 0 0-.23 2zm1.52-5H48v-1.69A8.55 8.55 0 0 0 46.52 38zM47 55h-4.82v2H47c.55 0 1-.45 1-1s-.45-1-1-1z" fill="#c8c8c8"/><path d="M51 43v1h2v10c0 3.31-2.69 6-6 6h-4.82v-3H47c.55 0 1-.45 1-1s-.45-1-1-1h-4.82v-7H48v-2h-5.28c.5-.85 1.31-1.5 2.28-1.8V43h3v-2h-2.77c.24-1.09.69-2.1 1.29-3H48v-1.69c1.36-1.23 3.09-2.05 5-2.25v6.12A3 3 0 0 0 51 43z" fill="#d9d9d9"/><path d="M48,46v2h-5.82c0-.73,.2-1.41,.54-2h5.28Z" fill="#c8c8c8"/><path d="M56 44v12c0 3.64-2.43 6.71-5.75 7.68-.71.21-1.47.32-2.25.32h-5.27a3.9 3.9 0 0 1-.55-2v-2H47c3.31 0 6-2.69 6-6V44h3zm0-9.78v6.55c-.53-.48-1.24-.77-2-.77-.35 0-.69.06-1 .18v-6.12a8.26 8.26 0 0 1 1-.06c.69 0 1.36.08 2 .22z" fill="#1976d2"/><g fill="#5e9fdf"><path d="M47 22c0 .34-.02.67-.05 1a10.68 10.68 0 0 1-.7 3c-.27.71-.62 1.38-1.03 2-1.96 3.01-5.36 5-9.22 5s-7.26-1.99-9.22-5c-.41-.62-.76-1.29-1.03-2a10.68 10.68 0 0 1-.7-3c-.03-.33-.05-.66-.05-1s.02-.67.05-1a10.68 10.68 0 0 1 .7-3c.27-.71.62-1.38 1.03-2 1.96-3.01 5.36-5 9.22-5s7.26 1.99 9.22 5c.41.62.76 1.29 1.03 2a10.68 10.68 0 0 1 .7 3c.03.33.05.66.05 1z"/><path d="M36 33a.97.97 0 0 1-.54-.16C31.11 30.06 29 26.51 29 22s2.11-8.06 6.46-10.84c.33-.21.75-.21 1.08 0C40.89 13.94 43 17.49 43 22s-2.11 8.06-6.46 10.84c-.16.1-.35.16-.54.16zm0-19.8c-3.41 2.35-5 5.16-5 8.8s1.59 6.45 5 8.8c3.41-2.35 5-5.16 5-8.8s-1.59-6.45-5-8.8z"/><path d="M46.95 21h-21.9L25 22c0 .34.02.67.05 1h21.9l.05-1c0-.34-.02-.67-.05-1zm-1.73-5H26.78c-.41.62-.76 1.29-1.03 2h20.5c-.27-.71-.62-1.38-1.03-2zM26.78 28h18.44c.41-.62.76-1.29 1.03-2h-20.5c.27.71.62 1.38 1.03 2z"/></g><path d="M60,48c-.55,0-1-.45-1-1v-4c0-2.76-2.24-5-5-5s-5,2.24-5,5v4c0,.55-.45,1-1,1s-1-.45-1-1v-4c0-3.86,3.14-7,7-7s7,3.14,7,7v4c0,.55-.45,1-1,1Z" fill="#d38e2a"/><rect x="44" y="46" width="20" height="18" rx="2" fill="#1976d2"/><g fill="#f3f3f3"><circle cx="60" cy="50" r="1"/><circle cx="60" cy="54" r="1"/></g><path d="M57 54c0-1.84-1.66-3.3-3.56-2.95-1.18.21-2.15 1.17-2.38 2.35-.3 1.56.6 2.94 1.94 3.42V59c0 .55.45 1 1 1h0c.55 0 1-.45 1-1v-2.18A2.99 2.99 0 0 0 57 54z" fill="#5e9fdf"/></svg>