<svg xmlns="http://www.w3.org/2000/svg" viewBox="0 0 64 64" xmlns:v="https://vecta.io/nano"><path d="M63 24.42V50c0 6.12-3 7.88-3 14H33c0-2.5.23-4.7-1.75-7.19L29 54V15h24l4.97 1.99C61.01 18.2 63 21.15 63 24.42z" fill="#e4c290"/><path d="M55 15.8V46c0 5.48-4.45 10-10 10H30.6L29 54V15h24l2 .8z" fill="#d38e2a"/><path d="M53 8v38c0 4.44-3.62 8-8 8H27a8 8 0 0 1-8-8V8a8 8 0 0 1 8-8h18a8 8 0 0 1 8 8z" fill="#5e9fdf"/><path d="M50 7v39a3.98 3.98 0 0 1-2.22 3.58c-1.19.6-.25.42-21.78.42a4 4 0 0 1-4-4V7a4 4 0 0 1 4-4h1.56a2.01 2.01 0 0 1 1.9 1.37l.08.26A2.01 2.01 0 0 0 31.44 6h9.12a2.01 2.01 0 0 0 1.9-1.37l.08-.26A2.01 2.01 0 0 1 44.44 3H46a4 4 0 0 1 4 4z" fill="#fff"/><path d="M59 36v16h-.51c-5.67 0-10.7-3.63-12.49-9l-2.76-1.18c-2.57-1.1-4.24-3.63-4.24-6.43h0a2.05 2.05 0 0 1 2.36-2.03L59 36.01z" fill="#e4c290"/><path d="M59.99 35.15c-.1.6-.68.93-1.14.84l-5.85-.9v-2.03l6.15.95a1.01 1.01 0 0 1 .84 1.14z" fill="#d38e2a"/><path d="M19 12h3v30h-3z" fill="#1976d2"/><path d="M37 16v22a4 4 0 0 1-4 4H22V12h11a4 4 0 0 1 4 4z" fill="#f3f3f3"/><rect x="1" y="14" width="34" height="26" rx="2" fill="#5e9fdf"/><path d="M1 18h34v5H1z" fill="#1976d2"/><circle cx="8" cy="33" r="4" fill="#fff"/><circle cx="14" cy="33" r="4" fill="#e4c290"/><g fill="#d9d9d9"><circle cx="47" cy="8" r="1"/><circle cx="43" cy="8" r="1"/><path d="M24 44h10v2H24zm24-27h-9v-2h9zm0 4h-9v-2h9zm0 4h-9v-2h9z"/></g></svg>