<svg xmlns="http://www.w3.org/2000/svg" viewBox="0 0 64 64" xmlns:v="https://vecta.io/nano"><path d="M46 6v52c0 3.31-2.69 6-6 6H12c-3.31 0-6-2.69-6-6V6c0-3.31 2.69-6 6-6l29.2.12C43.91.67 46 3.08 46 6z" fill="#5e9fdf"/><path d="M44 6v50a4 4 0 0 1-4 4H12a4 4 0 0 1-4-4V6a4 4 0 0 1 4-4h5.28c.43 0 .81.28.95.68.27.83.56 2.32 2.21 2.32h11.12a2.01 2.01 0 0 0 1.9-1.37l.31-.95c.14-.4.52-.68.95-.68 5.3 0 5.74-.11 6.68.26A3.98 3.98 0 0 1 44 6z" fill="#fff"/><path d="M37 58H15c-1.34 0-1.29-2 0-2h22c1.34 0 1.29 2 0 2zm0-41l-3 4-2-2v12H20V19l-2 2-3-4 4-4h14l4 4zM11 40h30v2H11zm4 4h22v2H15zm17 8H20c-1.1 0-2-.9-2-2 0-.81.63-2 2-2h12c1.1 0 2 .9 2 2 0 .81-.63 2-2 2zm8-43H12c-.55 0-1 .45-1 1v24c0 .55.45 1 1 1h28c.55 0 1-.45 1-1V10c0-.55-.45-1-1-1zm-1 24H13V11h26v22z" fill="#d9d9d9"/><path d="M46 6v15.83c-.69-.11-1.36-.29-2-.52V6a3.98 3.98 0 0 0-2.6-3.74c-.79-.31-1.37-.26-2.34-.26A12.33 12.33 0 0 1 41.2.12C43.91.67 46 3.08 46 6z" fill="#1976d2"/><path d="M39 11v6.93A11.94 11.94 0 0 1 36.04 11H39zm5-5v15.31a11.75 11.75 0 0 1-3-1.57V10c0-.55-.45-1-1-1h-3.96c.22-2.68 1.33-5.1 3.02-7 .93 0 1.55-.05 2.34.26A3.98 3.98 0 0 1 44 6z" fill="#f3f3f3"/><path d="M41 10v9.74a11.1 11.1 0 0 1-2-1.81V11h-2.96c-.05-.59-.05-1.4 0-2H40c.55 0 1 .45 1 1z" fill="#c8c8c8"/><circle cx="48" cy="10" r="10" fill="#d38e2a"/><path d="M53.75 7.34A.98.98 0 0 0 53 7h-.46l-1.7-2.55c-.73-1.1-2.4 0-1.66 1.11l.96 1.45h-4.26l.96-1.45c.74-1.1-.93-2.21-1.66-1.11L43.48 7h-.46c-.6 0-1.07.53-.99 1.12l.84 5.19c.16.97.99 1.68 1.97 1.68h6.36a1.99 1.99 0 0 0 1.97-1.68c.91-5.61 1.02-5.5.6-5.98z" fill="#fdfdfd"/></svg>