<svg xmlns="http://www.w3.org/2000/svg" viewBox="0 0 64 64" xmlns:v="https://vecta.io/nano"><rect x="12" width="40" height="64" rx="6" fill="#5e9fdf"/><path d="M50 6v50a4 4 0 0 1-4 4H18a4 4 0 0 1-4-4V6a3.98 3.98 0 0 1 2-3.46c1.23-.71 1.73-.54 7.28-.54.43 0 .81.28.95.68.27.83.56 2.32 2.21 2.32h11.12a2.01 2.01 0 0 0 1.9-1.37l.31-.95c.14-.4.52-.68.95-.68H46a4 4 0 0 1 4 4z" fill="#fff"/><path d="M44,58H22c-1.34,0-1.29-2,0-2h22c1.34,0,1.29,2,0,2Z" fill="#d9d9d9"/><path d="M23 21l-3 2v2c0 1.1-.9 2-2 2H2c-1.1 0-2-.9-2-2V9c0-1.1.9-2 2-2h16c1.1 0 2 .9 2 2v10l3 2z" fill="#d38e2a"/><path d="M10 19.96c-1.62 0-1.27-2.97.96-4.2.76-.42 1.16-1.25 1-2.13-.26-1.48-2.08-2.15-3.26-1.16-.78.65-.92 1.77-.42 2.56.7 1.12-1 2.18-1.7 1.06-1.02-1.63-.71-3.85.83-5.15 2.37-1.99 6-.63 6.51 2.35.29 1.7-.51 3.4-2.01 4.22-.58.32-.93.85-.93 1.41s-.45 1.04-1 1.04zM11 23c0-1.32-2-1.32-2 0s2 1.32 2 0z" fill="#f3f3f3"/><path d="M41 38l3 2v2c0 1.1.9 2 2 2h16c1.1 0 2-.9 2-2V28c0-1.1-.9-2-2-2H46c-1.1 0-2 .9-2 2v8l-3 2z" fill="#1976d2"/><g fill="#5e9fdf"><circle cx="60" cy="35" r="2"/><circle cx="54" cy="35" r="2"/></g><circle cx="48" cy="35" r="2" fill="#f3f3f3"/><path d="M22 25h12v2H22zm0 4h12v2H22zm0 4h8v2h-8zm8 9h12v2H30zm0 4h12v2H30zm2 4h10v2H32z" fill="#d9d9d9"/><circle cx="46" cy="50" r="2" fill="#1976d2"/><circle cx="18" cy="33" r="2" fill="#d38e2a"/></svg>