<svg xmlns="http://www.w3.org/2000/svg" viewBox="0 0 64 64" xmlns:v="https://vecta.io/nano"><path d="M64 30c0 6.67-4.67 12.27-11 13.68-2.12.46-.15.32-39 .32-3.32 0-6.39-1.16-8.78-3.11-7.64-6.12-6.77-18.09 1.79-23.01C4.08 12.61 7.85 6 14 6c1.52 0 2.94.43 4.15 1.16A16.92 16.92 0 0 1 32 0c9.07 0 16.48 7.1 16.97 16.04C56.84 15.35 64 21.72 64 30z" fill="#f3f3f3"/><path d="M49,24v20H15V24c0-4.41,3.59-8,8-8h18c4.41,0,8,3.59,8,8Z" fill="#d9d9d9"/><rect x="17" y="18" width="30" height="46" rx="6" fill="#5e9fdf"/><path d="M45 24v33a4 4 0 0 1-4 4H23a4 4 0 0 1-4-4V24a4 4 0 0 1 4-4h1.28c.43 0 .81.28.95.68l.31.95a2.01 2.01 0 0 0 1.9 1.37h9.12a2.01 2.01 0 0 0 1.9-1.37l.31-.95c.14-.4.52-.68.95-.68H41a4 4 0 0 1 4 4z" fill="#fff"/><path d="M39 58H25c-.55 0-1-.45-1-1 0-.29.22-1 1-1h14c.55 0 1 .45 1 1 0 .29-.22 1-1 1z" fill="#d9d9d9"/><g fill="#d38e2a"><path d="M38 47H26c-.55 0-1-.45-1-1v-4c0-.55.45-1 1-1s1 .45 1 1v3h10v-3c0-.55.45-1 1-1s1 .45 1 1v4c0 .55-.45 1-1 1zm-6-4c-.55 0-1-.45-1-1v-6c0-.55.45-1 1-1s1 .45 1 1v6c0 .55-.45 1-1 1z"/><path d="M35 38c-.55 0-.54-.13-3-2.59l-2.29 2.29c-.39.39-1.02.39-1.41 0s-.39-1.02 0-1.41l3-3c.39-.39 1.02-.39 1.41 0l3 3A1.01 1.01 0 0 1 35 38zM14 52a4 4 0 0 1-4-4v-1c0-.55.45-1 1-1s1 .45 1 1v1c0 1.1.9 2 2 2 .55 0 1 .45 1 1s-.45 1-1 1zm36 0c-.55 0-1-.45-1-1s.45-1 1-1c1.1 0 2-.9 2-2v-1c0-.55.45-1 1-1s1 .45 1 1v1a4 4 0 0 1-4 4z"/></g></svg>