<svg xmlns="http://www.w3.org/2000/svg" viewBox="0 0 64 64" xmlns:v="https://vecta.io/nano"><path d="M52 8v48c0 3.64-2.43 6.71-5.75 7.68-1.52.45-.39.32-26.25.32a8 8 0 0 1-8-8V8c0-4.4 3.57-8 8-8h24a8 8 0 0 1 8 8z" fill="#5e9fdf"/><path d="M49 9v45c0 3.31-2.69 6-6 6H21c-3.31 0-6-2.69-6-6V9a6 6 0 0 1 6-6h3.29a.98.98 0 0 1 .94.68l.31.95A2.01 2.01 0 0 0 27.44 6h9.12a2.01 2.01 0 0 0 1.9-1.37l.31-.94a1 1 0 0 1 .95-.69H43c3.31 0 6 2.69 6 6z" fill="#fff"/><path d="M49 21h3v28h-3z" fill="#1976d2"/><path d="M49 21v28H34a4 4 0 0 1-4-4V25a4 4 0 0 1 4-4h15z" fill="#f3f3f3"/><rect x="32" y="23" width="28" height="24" rx="2" fill="#fff"/><g fill="#d38e2a"><path d="M43 43h-5c-1.1 0-2-.9-2-2V29c0-1.1.9-2 2-2h5c.55 0 1 .45 1 1v14c0 .55-.45 1-1 1zm-5-14v12h4V29h-4z"/><path d="M54 43H43c-.55 0-1-.45-1-1V28c0-.55.45-1 1-1h11c1.1 0 2 .9 2 2v12c0 1.1-.9 2-2 2zm-10-2h10V29H44v12z"/><path d="M55 36H43c-.55 0-1-.45-1-1s.45-1 1-1h12c.55 0 1 .45 1 1s-.45 1-1 1z"/></g><path d="M42 58H22c-.55 0-1-.45-1-1 0-.29.22-1 1-1h20c.55 0 1 .45 1 1 0 .29-.22 1-1 1z" fill="#d9d9d9"/><path d="M16.83 4.69A5.97 5.97 0 0 0 15 9v16.82c-1.03.19-2 .22-3 .13V8a7.85 7.85 0 0 1 1.08-4c1.32.01 2.59.25 3.75.69z" fill="#1976d2"/><path d="M24 15c0 5.39-3.89 9.88-9 10.82V9a5.97 5.97 0 0 1 1.83-4.31C21.02 6.25 24 10.28 24 15z" fill="#f3f3f3"/><circle cx="13" cy="15" r="9" fill="#fff"/><path d="M18.73 12.93l-1.07-1.86a.93.93 0 0 0-1.27-.34h0c-.62.36-1.39-.09-1.39-.8h0c0-.51-.42-.93-.93-.93h-2.14c-.51 0-.93.42-.93.93h0c0 .71-.77 1.16-1.39.8h0c-.44-.26-1.01-.1-1.27.34l-1.07 1.86c-.26.44-.1 1.01.34 1.27h0a.93.93 0 0 1 0 1.61h0a.93.93 0 0 0-.34 1.27l1.07 1.86a.93.93 0 0 0 1.27.34h0c.62-.36 1.39.09 1.39.8h0c0 .51.42.93.93.93h2.14c.51 0 .93-.42.93-.93h0c0-.71.77-1.16 1.39-.8h0c.44.26 1.01.1 1.27-.34l1.07-1.86c.26-.44.1-1.01-.34-1.27h0a.93.93 0 0 1 0-1.61h0a.93.93 0 0 0 .34-1.27z" fill="#5e9fdf"/><circle cx="13" cy="15" r="2" fill="#fff"/><g fill="#d9d9d9"><path d="M18 27h10v2H18zm0 4h10v2H18zm0 4h10v2H18zm0 4h10v2H18z"/><circle cx="45" cy="8" r="1"/><circle cx="41" cy="8" r="1"/></g></svg>