<svg xmlns="http://www.w3.org/2000/svg" viewBox="0 0 64 64" xmlns:v="https://vecta.io/nano"><path d="M40 8v48c0 3.64-2.43 6.71-5.75 7.68-1.52.45-.39.32-26.25.32a8 8 0 0 1-8-8V8a8 8 0 0 1 8-8h24a8 8 0 0 1 8 8z" fill="#5e9fdf"/><path d="M37 9v45c0 3.31-2.69 6-6 6H9c-3.31 0-6-2.69-6-6V9c0-3.31 2.69-6 6-6h3.29a.98.98 0 0 1 .94.68l.31.95A2.01 2.01 0 0 0 15.44 6h9.12a2.01 2.01 0 0 0 1.9-1.37l.31-.94a1 1 0 0 1 .95-.69H31c3.31 0 6 2.69 6 6z" fill="#f3f3f3"/><path d="M30 58H10c-.55 0-1-.45-1-1 0-.29.22-1 1-1h20c.55 0 1 .45 1 1 0 .29-.22 1-1 1z" fill="#d9d9d9"/><path d="M40 12h22c1.1 0 2 .9 2 2v2H40v-4h0z" fill="#5e9fdf"/><path d="M40,10.13V52h-3V10c1.95,0,2.39-.04,3,.13Z" fill="#1976d2"/><path d="M37 10v42h-9a4 4 0 0 1-4-4V14a4 4 0 0 1 4-4h9z" fill="#d9d9d9"/><path d="M64 16v32c0 1.1-.9 2-2 2H28c-1.1 0-2-.9-2-2V14c0-1.1.9-2 2-2h11c.63 0 1.22.3 1.6.8l1.8 2.4c.38.5.97.8 1.6.8h20z" fill="#f3f3f3"/><path d="M37 21h2v16h-2z" fill="#d9d9d9"/><path d="M30 23h4v2h-4zm0 5h4v2h-4zm0 5h4v2h-4zm12-10h8v2h-8z" fill="#5e9fdf"/><path d="M54 23h6v2h-6zm-12 5h8v2h-8z" fill="#d38e2a"/><path d="M54 28h6v2h-6zm-12 5h4v2h-4zm8 0h8v2h-8z" fill="#5e9fdf"/><path d="M50 46c-.54 0-.57-.15-2.71-2.29-.39-.39-.39-1.02 0-1.41l2-2c.39-.39 1.02-.39 1.41 0s.39 1.02 0 1.41L49.41 43l1.29 1.29a1.01 1.01 0 0 1-.71 1.71zm9 0c-.88 0-1.34-1.07-.71-1.71L59.58 43l-1.29-1.29c-.39-.39-.39-1.02 0-1.41s1.02-.39 1.41 0l2 2c.39.39.39 1.02 0 1.41-2.18 2.18-2.17 2.29-2.71 2.29zm-5 1c-.62 0-1.09-.56-.99-1.16l1-6a1 1 0 0 1 1.15-.82c.54.09.91.61.82 1.15l-1 6c-.08.49-.51.84-.99.84zM7 12h4v2H7zm7 0h6v2h-6zm-7 4h4v2H7zm7 0h6v2h-6zm-7 4h13v2H7z" fill="#d9d9d9"/></svg>