<svg xmlns="http://www.w3.org/2000/svg" viewBox="0 0 64 64" xmlns:v="https://vecta.io/nano"><path d="M58 6v52c0 3.31-2.69 6-6 6H24c-3.31 0-6-2.69-6-6V6c0-3.31 2.69-6 6-6 30.32 0 28.68-.17 30.14.4 2.2.82 3.86 3 3.86 5.6z" fill="#1976d2"/><path d="M56 6v50a4 4 0 0 1-4 4H24a4 4 0 0 1-4-4V6a4 4 0 0 1 4-4h5.28c.43 0 .81.28.95.68.27.83.56 2.32 2.21 2.32h11.12a2.01 2.01 0 0 0 1.9-1.37l.31-.95c.14-.4.52-.68.95-.68l5.77.04C54.32 2.21 56 3.85 56 6z" fill="#fff"/><path d="M20 9h36v16H20z" fill="#5e9fdf"/><path d="M23 28h14v18H23z" fill="#d9d9d9"/><path d="M23 43v3h14v-8l-2-2-4 4-2.5-2.5L23 43" fill="#c8c8c8"/><path d="M23 48h30v2H23zm26 10H27c-1.34 0-1.29-2 0-2h22c1.34 0 1.29 2 0 2z" fill="#d9d9d9"/><path d="M28,48c-2.07,3.58-6.55,6-11,6s-8.93-2.42-11-6c2.07-3.58,6.55-6,11-6s8.93,2.42,11,6Z" fill="#d38e2a"/><path d="M17 52a4 4 0 0 1-4-4c0-2.72 2.65-4.62 5.18-3.82-.79 1.64 1.01 3.42 2.64 2.64.8 2.53-1.1 5.18-3.82 5.18z" fill="#f3f3f3"/><path d="M27 14v2.7l-2.17-3.25c-.55-.82-1.83-.43-1.83.55v6c0 1.32 2 1.32 2 0v-2.7l2.17 3.25c.55.82 1.83.43 1.83-.55v-6c0-1.32-2-1.32-2 0zm9 1c1.32 0 1.32-2 0-2h-4c-.55 0-1 .45-1 1v6c0 .55.45 1 1 1h4c1.32 0 1.32-2 0-2h-3v-1h2c1.32 0 1.32-2 0-2h-2v-1h3zm7-1v3.59l-.29-.29c-.39-.39-1.02-.39-1.41 0l-.29.29V14c0-1.32-2-1.32-2 0v6c0 .4.24.77.62.92.74.3 1.01-.14 2.38-1.51 1.23 1.23 1.44 1.59 2 1.59a.99.99 0 0 0 1-1v-6c0-1.32-2-1.32-2 0zm7.5 2h-1c-.66 0-.66-1 0-1H52c1.32 0 1.32-2 0-2h-2.5a2.5 2.5 0 1 0 0 5h1c.66 0 .66 1 0 1H48c-1.32 0-1.32 2 0 2h2.5a2.5 2.5 0 1 0 0-5z" fill="#5e9fdf"/><path d="M39 28h14v2H39zm0 4h14v2H39zm0 4h14v2H39zm0 4h14v2H39zm0 4h14v2H39z" fill="#d9d9d9"/><path d="M28,34c0-1.32-2-1.32-2,0s2,1.32,2,0Z" fill="#c8c8c8"/></svg>