<svg xmlns="http://www.w3.org/2000/svg" viewBox="0 0 64 64" xmlns:v="https://vecta.io/nano"><path d="M47 8v48a8 8 0 0 1-8 8H15a8 8 0 0 1-8-8V8a8 8 0 0 1 8-8h24a8 8 0 0 1 8 8z" fill="#5e9fdf"/><path d="M44 9v45c0 3.31-2.69 6-6 6H16c-3.31 0-6-2.69-6-6V9c0-3.38 2.75-6 6-6h3.29a.98.98 0 0 1 .94.68l.31.95A2.01 2.01 0 0 0 22.44 6h9.12a2.01 2.01 0 0 0 1.9-1.37l.31-.94a1 1 0 0 1 .95-.69H38c3.31 0 6 2.69 6 6z" fill="#fff"/><g fill="#d9d9d9"><path d="M37 58H17c-.55 0-1-.45-1-1 0-.29.22-1 1-1h20c.55 0 1 .45 1 1 0 .29-.22 1-1 1z"/><circle cx="40" cy="7" r="1"/><path d="M14 23h26v2H14zm0 4h26v2H14zm0 4h26v2H14zm0 4h26v2H14zm0 4h26v2H14zm0 4h26v2H14zm0 4h26v2H14z"/><circle cx="36" cy="7" r="1"/></g><path d="M17 11h20v2H17z" fill="#d38e2a"/><path d="M14 15h26v2H14zm0 4h26v2H14z" fill="#d9d9d9"/><path d="M44 23h3v30h-3z" fill="#1976d2"/><path d="M44 23v30h-5a4 4 0 0 1-4-4h5v-2h-5.83l-2-2H40v-2h-7.83l2-2H40v-2h-5v-2h5v-2h-5v-2h5v-2h-5v-2h5v-2h-5a3.99 3.99 0 0 1 .54-2H40v-2h4z" fill="#f3f3f3"/><path d="M40 23v2h-4.46A3.98 3.98 0 0 1 39 23h1zm-5 4h5v2h-5zm0 4h5v2h-5zm0 4h5v2h-5zm0 4h5v2h-5.83l.83-.83V39zm-2.83 4H40v2h-7.83l-1-1 1-1zm2 4H40v2h-5v-1.17l-.83-.83z" fill="#c8c8c8"/><path d="M37 27v14l-3 3 3 3v2c0 1.1.9 2 2 2h16c1.1 0 2-.9 2-2V27c0-1.1-.9-2-2-2H39c-1.1 0-2 .9-2 2z" fill="#d38e2a"/><g fill="#fff"><path d="M43 35v2h2v10h4V35h-6z"/><circle cx="47" cy="31" r="2"/></g></svg>