<svg xmlns="http://www.w3.org/2000/svg" viewBox="0 0 64 64" xmlns:v="https://vecta.io/nano"><rect x="12" width="40" height="64" rx="6" fill="#5e9fdf"/><path d="M50 6v50a4 4 0 0 1-4 4H18a4 4 0 0 1-4-4V6a4 4 0 0 1 4-4h5.28c.43 0 .81.28.95.68l.32.95A2 2 0 0 0 26.45 5h11.12a2 2 0 0 0 1.9-1.37c.32-.97.42-1.63 1.26-1.63h5.28a4 4 0 0 1 4 4z" fill="#fff"/><path d="M16 9h16v18H16zm18 0h14v2H34zm0 4h14v2H34zm0 4h14v2H34zm0 4h14v2H34zm0 4h14v2H34zm-18 4h32v2H16zm0 4h32v2H16zm0 4h32v2H16zm0 4h32v2H16zm0 4h32v2H16zm0 4h32v2H16zm28 9H22c-1.34 0-1.29-2 0-2h22c1.34 0 1.29 2 0 2z" fill="#d9d9d9"/><rect x="36" y="22" width="28" height="23" rx="2" fill="#d38e2a"/><g fill="#f3f3f3"><path d="M50 22.41V43c-1.28-1.28-3.02-2-4.83-2H38V19h8.59c1.92 0 3.41 1.56 3.41 3.41z"/><path d="M50 22.41V43c1.28-1.28 3.02-2 4.83-2H62V19h-8.59C51.49 19 50 20.56 50 22.41z"/></g><path d="M42 23h6v2h-6zm-2 4h8v2h-8zm0 4h8v2h-8zm0 4h8v2h-8zm12-12h6v2h-6zm0 4h8v2h-8zm0 4h8v2h-8zm2 4h6v2h-6z" fill="#d9d9d9"/></svg>