<svg xmlns="http://www.w3.org/2000/svg" viewBox="0 0 64 64" xmlns:v="https://vecta.io/nano"><rect x="11.68" width="40.32" height="64" rx="8" fill="#5e9fdf"/><g fill="#fff"><path d="M49 9v45c0 3.31-2.69 6-6 6H21c-3.31 0-6-2.69-6-6V9c0-3.38 2.75-6 6-6h3.29a.98.98 0 0 1 .94.68l.31.95A2.01 2.01 0 0 0 27.44 6h9.12a2.01 2.01 0 0 0 1.9-1.37l.31-.94a1 1 0 0 1 .95-.69H43c3.31 0 6 2.69 6 6z"/><path d="M49 9v45c0 3.32-2.71 6-6 6H21c-3.28 0-6-2.67-6-6V9c0-3.38 2.75-6 6-6h3.29a.98.98 0 0 1 .94.68l.31.95A2.01 2.01 0 0 0 27.44 6h9.12a2.01 2.01 0 0 0 1.9-1.37l.31-.94a1 1 0 0 1 .95-.69H43c3.31 0 6 2.69 6 6z"/></g><path d="M47 56.97v1.49A5.93 5.93 0 0 1 43 60H21a5.93 5.93 0 0 1-4-1.54v-1.49A1.97 1.97 0 0 1 18.97 55c.67 0 1.49-.38 1.83-1.28l.26-.62c.33-.75.19-1.62-.39-2.2-.54-.54-.97-1.82 0-2.78l1.46-1.46a1.96 1.96 0 0 1 2.78 0c.48.48 1.33.79 2.21.4l.62-.26c.77-.29 1.28-1.02 1.28-1.83 0-.78.6-1.97 1.97-1.97h2.07a1.97 1.97 0 0 1 1.97 1.97c0 .67.38 1.49 1.28 1.83l.62.26c.75.33 1.62.19 2.2-.39.54-.54 1.82-.97 2.78 0l1.46 1.46a1.96 1.96 0 0 1 0 2.78c-.48.48-.79 1.33-.4 2.21l.26.62c.29.77 1.02 1.28 1.83 1.28.78 0 1.97.6 1.97 1.97z" fill="#1976d2"/><path d="M39.75,60h-15.5c-1.29-5.17,2.59-10,7.75-10s9.04,4.85,7.75,10Z" fill="#5e9fdf"/><path d="M36 23.84v7.54c0 .38-.21.73-.55.89l-3 1.5c-.28.14-.61.14-.89 0l-3-1.5a1 1 0 0 1-.55-.89v-7.54c-7.98 3.48-7.99 14.82 0 18.32V60h8V42.16c8-3.5 7.97-14.84 0-18.32z" fill="#d38e2a"/><g fill="#d9d9d9"><circle cx="45" cy="8" r="1"/><circle cx="41" cy="8" r="1"/><path d="M18 12h10v2H18zm0 4h14v2H18z"/></g><path d="M32 58c-.29 0-1-.22-1-1v-8c0-.55.45-1 1-1 .29 0 1 .22 1 1v8c0 .55-.45 1-1 1z" fill="#e4c290"/></svg>