<svg xmlns="http://www.w3.org/2000/svg" viewBox="0 0 64 64" xmlns:v="https://vecta.io/nano"><path d="M52 6v52c0 3.31-2.69 6-6 6H18c-3.31 0-6-2.69-6-6V6c0-3.31 2.69-6 6-6 30.32 0 28.68-.17 30.14.4C50.4 1.24 52 3.49 52 6z" fill="#1976d2"/><path d="M50 6v50a4 4 0 0 1-4 4H18a4 4 0 0 1-4-4V6a4 4 0 0 1 4-4h5.28c.43 0 .81.28.95.68.27.83.56 2.32 2.21 2.32h11.12a2.01 2.01 0 0 0 1.9-1.37l.31-.95c.14-.4.52-.68.95-.68l5.77.04C48.33 2.21 50 3.87 50 6z" fill="#fff"/><path d="M43,58H21c-1.34,0-1.29-2,0-2h22c1.34,0,1.29,2,0,2Z" fill="#d9d9d9"/><g fill="#d38e2a"><path d="M18 11h10c.55 0 1 .45 1 1v5c0 1.66-1.34 3-3 3h-6c-1.66 0-3-1.34-3-3v-5c0-.55.45-1 1-1z"/><path d="M19 13c-.79 0-1.28-.88-.83-1.55l2-3c.73-1.1 2.4 0 1.66 1.11-2.13 3.2-2.13 3.45-2.83 3.45zm8 0c-.72 0-.72-.28-2.83-3.45-.73-1.1.93-2.21 1.66-1.11l2 3a1 1 0 0 1-.83 1.55z"/></g><path d="M20 17v-3c0-1.34 2-1.29 2 0v3c0 1.34-2 1.29-2 0zm4 0v-3c0-1.34 2-1.29 2 0v3c0 1.34-2 1.29-2 0z" fill="#f3f3f3"/><path d="M31 11h16v2H31zm0 4h12v2H31z" fill="#d9d9d9"/><rect x="17" y="24" width="10" height="14" rx="2" fill="#1976d2"/><g fill="#5e9fdf"><rect x="30" y="24" width="10" height="14" rx="2"/><path d="M45 24h2v14h-2c-1.1 0-2-.9-2-2V26c0-1.1.9-2 2-2zM24 36h-2c-1.34 0-1.29-2 0-2h2c1.34 0 1.29 2 0 2z"/></g><path d="M37,36h-2c-1.34,0-1.29-2,0-2h2c1.34,0,1.29,2,0,2Z" fill="#1976d2"/><path d="M17 40h10v2H17zm0 4h10v2H17zm13-4h10v2H30zm0 4h10v2H30zm13-4h4v2h-4zm0 4h4v2h-4z" fill="#d9d9d9"/><path d="M19 48h26c1.1 0 2 .9 2 2v3H17v-3c0-1.1.9-2 2-2z" fill="#d38e2a"/></svg>