<svg xmlns="http://www.w3.org/2000/svg" viewBox="0 0 64 64" xmlns:v="https://vecta.io/nano"><path d="M46 8v48c0 3.64-2.43 6.71-5.75 7.68-.71.21-1.47.32-2.25.32H14a8 8 0 0 1-8-8V8a8 8 0 0 1 8-8h24a8 8 0 0 1 8 8z" fill="#5e9fdf"/><path d="M43 9v45c0 3.31-2.69 6-6 6H15c-3.31 0-6-2.69-6-6V9c0-3.31 2.69-6 6-6h3.29a.98.98 0 0 1 .94.68l.31.95A2.01 2.01 0 0 0 21.44 6h9.12a2.01 2.01 0 0 0 1.9-1.37l.31-.94a1 1 0 0 1 .95-.69H37c3.31 0 6 2.69 6 6z" fill="#fff"/><g fill="#5e9fdf"><path d="M37 22c0 .34-.02.67-.05 1a10.68 10.68 0 0 1-.7 3c-.27.71-.62 1.38-1.03 2-1.96 3.01-5.36 5-9.22 5s-7.26-1.99-9.22-5c-.41-.62-.76-1.29-1.03-2a10.68 10.68 0 0 1-.7-3c-.03-.33-.05-.66-.05-1s.02-.67.05-1a10.68 10.68 0 0 1 .7-3c.27-.71.62-1.38 1.03-2 1.96-3.01 5.36-5 9.22-5s7.26 1.99 9.22 5c.41.62.76 1.29 1.03 2a10.68 10.68 0 0 1 .7 3c.03.33.05.66.05 1z"/><path d="M26 33a.97.97 0 0 1-.54-.16C21.11 30.06 19 26.51 19 22s2.11-8.06 6.46-10.84c.33-.21.75-.21 1.08 0C30.89 13.94 33 17.49 33 22s-2.11 8.06-6.46 10.84c-.16.1-.35.16-.54.16zm0-19.8c-3.41 2.35-5 5.16-5 8.8s1.59 6.45 5 8.8c3.41-2.35 5-5.16 5-8.8s-1.59-6.45-5-8.8z"/></g><path d="M38 56c0 .55-.45 1-1 1H15c-.55 0-1-.45-1-1s.45-1 1-1h22c.55 0 1 .45 1 1zM14 41h24v2H14zm0-5h24v2H14zm0 10h24v2H14z" fill="#d9d9d9"/><path d="M36.95 21h-21.9L15 22c0 .34.02.67.05 1h21.9l.05-1c0-.34-.02-.67-.05-1zm-1.73-5H16.78c-.41.62-.76 1.29-1.03 2h20.5c-.27-.71-.62-1.38-1.03-2zM16.78 28h18.44c.41-.62.76-1.29 1.03-2h-20.5c.27.71.62 1.38 1.03 2z" fill="#5e9fdf"/><path d="M46 34.17V56c0 3.64-2.43 6.71-5.75 7.68-1.58-1-2.98-2.25-4.16-3.68H37c3.31 0 6-2.69 6-6V35.08l1.46-.61a4.06 4.06 0 0 1 1.54-.3z" fill="#1976d2"/><path d="M43 35.08V54c0 3.31-2.69 6-6 6h-.91c-.77-.93-1.44-1.93-2-3H37c.55 0 1-.45 1-1s-.45-1-1-1h-3.82c-.77-1.99-1.18-4.14-1.18-6.37V48h6v-2h-6v-3h6v-2h-5.77a3.99 3.99 0 0 1 2.23-2.36L36 38h2v-.84l5-2.08z" fill="#d9d9d9"/><path d="M38 56c0 .55-.45 1-1 1h-2.91a15.7 15.7 0 0 1-.91-2H37c.55 0 1 .45 1 1zm-6-10h6v2h-6zm6-5v2h-6v-.67c0-.46.08-.91.23-1.33H38zm0-3.84V38h-2l2-.84z" fill="#c8c8c8"/><path d="M58 42.33v6.3C58 55.9 53.05 62.24 46 64h0c-7.05-1.76-12-8.1-12-15.37v-6.3a2.01 2.01 0 0 1 1.23-1.85l10-4.17a1.96 1.96 0 0 1 1.54 0l10 4.17c.75.31 1.23 1.04 1.23 1.85z" fill="#d38e2a"/><path d="M45 53c-.26 0-.51-.1-.71-.29l-3-3c-.39-.39-.39-1.02 0-1.41s1.02-.39 1.41 0l2.29 2.29 4.29-4.29c.39-.39 1.02-.39 1.41 0s.39 1.02 0 1.41l-5 5a.98.98 0 0 1-.71.29z" fill="#f3f3f3"/><path d="M46 62c-.11 0-.21-.02-.32-.05C39.89 60.02 36 54.62 36 48.51V43c0-.4.23-.75.59-.91l9-4c.26-.12.55-.12.81 0l9 4a1 1 0 0 1 .59.91v5.51c0 6.11-3.89 11.5-9.68 13.44-.1.03-.21.05-.32.05zm-8-18.35v4.86c0 5.13 3.2 9.68 8 11.43 4.8-1.75 8-6.3 8-11.43v-4.86l-8-3.56-8 3.56z" fill="#e4c290"/></svg>