<svg xmlns="http://www.w3.org/2000/svg" viewBox="0 0 64 64" xmlns:v="https://vecta.io/nano"><g fill="#5e9fdf"><rect x="6" width="52" height="43" rx="2"/><path d="M45 52H15V0h19.53a4.02 4.02 0 0 1 3.58 2.21l.79 1.58A3.99 3.99 0 0 0 42.48 6h2.53v46z"/></g><path d="M58 6v46c0 1.1-.9 2-2 2H2c-1.1 0-2-.9-2-2V2C0 .9.9 0 2 0h15.53a4.02 4.02 0 0 1 3.58 2.21l.78 1.58A4.02 4.02 0 0 0 25.47 6H58z" fill="#f3f3f3"/><rect x="9" y="13" width="40" height="28" rx="1" fill="#d9d9d9"/><path d="M49 16v24c0-.49.58.42-10.21-13.61a1 1 0 0 0-1.54-.05l-5.25 6V24a7.98 7.98 0 0 1 1.01-3.88A2.99 2.99 0 0 0 36 23c1.62 0 3-1.34 3-3s-1.28-2.93-2.88-2.99A7.98 7.98 0 0 1 40 16h9z" fill="#c8c8c8"/><path d="M49 40a1.01 1.01 0 0 1-1 1H10c-.86 0-1.27-.98-.8-1.6l12-16c.37-.52 1.17-.53 1.57-.03l8.26 10.08 6.22-7.11a1 1 0 0 1 1.54.05C49.71 40.58 49 39.52 49 40z" fill="#1976d2"/><circle cx="36" cy="20" r="3" fill="#d38e2a"/><g fill="#1976d2"><circle cx="54" cy="3" r="1"/><circle cx="50" cy="3" r="1"/><circle cx="46" cy="3" r="1"/></g><circle cx="18" cy="3" r="1" fill="#5e9fdf"/><path d="M58 16v36c0 1.1-.9 2-2 2H32V41h16c.55 0 1-.45 1-1V16h9z" fill="#d9d9d9"/><path d="M49 40a1.01 1.01 0 0 1-1 1H32v-8.66l5.25-6a1 1 0 0 1 1.54.05C49.71 40.58 49 39.52 49 40z" fill="#1976d2"/><path d="M39 20c0 1.66-1.34 3-3 3s-2.93-1.28-2.99-2.88c.72-1.31 1.8-2.39 3.11-3.11A2.99 2.99 0 0 1 39 20z" fill="#e4c290"/><rect x="34" y="18" width="30" height="46" rx="6" fill="#5e9fdf"/><path d="M53.5 22c-.06.12-.52 1-1.62 1h-5.76c-.69 0-1.31-.39-1.62-1-.06-.12-.52-1-1.62-1H41a4 4 0 0 0-4 4v31a4 4 0 0 0 4 4h16a4 4 0 0 0 4-4V25a4 4 0 0 0-4-4h-1.88c-.69 0-1.31.39-1.62 1z" fill="#fff"/><path d="M57 50H41c-.76 0-1.22-.81-.89-1.45l5-10c.34-.7 1.36-.75 1.76-.05l3.24 5.68 2.09-2.78c.42-.57 1.3-.53 1.67.1l4 7c.37.68-.1 1.5-.87 1.5z" fill="#1976d2"/><circle cx="54" cy="36" r="3" fill="#d38e2a"/><g fill="#5e9fdf"><circle cx="10" cy="44" r="1"/><circle cx="14" cy="44" r="1"/></g><circle cx="18" cy="44" r="1" fill="#1976d2"/><path d="M9 48h14v2H9z" fill="#d9d9d9"/><path d="M31 61h-3a3.01 3.01 0 0 1-3-3v-1c0-.55.45-1 1-1s1 .45 1 1v1c0 .55.45 1 1 1h3c.55 0 1 .45 1 1s-.45 1-1 1z" fill="#d38e2a"/></svg>