<svg xmlns="http://www.w3.org/2000/svg" viewBox="0 0 64 64" xmlns:v="https://vecta.io/nano"><path d="M52 8v48c0 3.64-2.43 6.71-5.75 7.68-1.52.45-.39.32-26.25.32a8 8 0 0 1-8-8V8a8 8 0 0 1 8-8h24a8 8 0 0 1 8 8z" fill="#5e9fdf"/><path d="M49 9v45c0 3.31-2.69 6-6 6H21c-3.31 0-6-2.69-6-6V9c0-3.31 2.69-6 6-6h3.29a.98.98 0 0 1 .94.68l.31.95A2.01 2.01 0 0 0 27.44 6h9.12a2.01 2.01 0 0 0 1.9-1.37l.31-.94a1 1 0 0 1 .95-.69H43c3.31 0 6 2.69 6 6z" fill="#fff"/><path d="M42 58H22c-.55 0-1-.45-1-1 0-.29.22-1 1-1h20c.55 0 1 .45 1 1 0 .29-.22 1-1 1z" fill="#d9d9d9"/><path d="M25.54 4.63l-.31-.95a.98.98 0 0 0-.94-.68c-3.09 0-4.01-.12-5.29.35V14c0 .81.92 1.27 1.55.83L23 13.2c2.57 1.71 2.6 1.8 3 1.8.53 0 1-.42 1-1V5.94c-.67-.14-1.23-.63-1.46-1.31z" fill="#d38e2a"/><path d="M27 5.94v2.03c-1.5-.16-2.85-1.12-3.44-2.97-2.34 0-3.36-.15-4.56.54V3.35c1.27-.46 2.03-.35 5.29-.35a.98.98 0 0 1 .94.68l.31.95c.23.68.79 1.17 1.46 1.31z" fill="#e4c290"/><rect x="33" y="33" width="12" height="18" rx="1" fill="#d38e2a"/><path d="M31 9h14v2H31zm0 4h14v2H31zm-12 4h26v2H19zm0 4h26v2H19zm0 4h26v2H19zm0 4h26v2H19zm0 4h12v2H19zm0 4h12v2H19zm0 4h12v2H19zm0 4h12v2H19zm0 4h12v2H19z" fill="#d9d9d9"/></svg>