<svg xmlns="http://www.w3.org/2000/svg" viewBox="0 0 64 64" xmlns:v="https://vecta.io/nano"><path d="M7,8h13c1.1,0,2,.9,2,2v2H7V8h0Z" fill="#5e9fdf"/><path d="M22 12v32c0 1.1-.9 2-2 2H2c-1.1 0-2-.9-2-2V10c0-1.1.9-2 2-2h4.76c1.37 0 2.62.77 3.24 2s1.86 2 3.24 2H22z" fill="#f3f3f3"/><path d="M37 8h25c1.1 0 2 .9 2 2v2H37V8h0z" fill="#5e9fdf"/><path d="M37 8h13.76c1.37 0 2.62.77 3.24 2s1.86 2 3.24 2c7.94 0-12.3 0-20.24 0V8z" fill="#1976d2"/><path d="M64,12V44c0,1.1-.9,2-2,2H30c-1.1,0-2-.9-2-2V10c0-1.1,.9-2,2-2h7.76c1.38,0,2.63,.78,3.25,2.01s1.87,1.99,3.23,1.99h19.76Z" fill="#f3f3f3"/><g fill="#1976d2"><rect x="4" y="16" width="14" height="14" rx="2"/><rect x="32" y="16" width="18" height="14" rx="2"/></g><path d="M52 16h8v2h-8zM4 32h14v2H4zm0 4h14v2H4zm0 4h14v2H4zm48-20h8v2h-8zm0 4h8v2h-8zm0 4h8v2h-8zm-20 4h28v2H32zm0 4h28v2H32zm0 4h28v2H32z" fill="#d9d9d9"/><path d="M29.71 23.29l-2-2c-.39-.39-1.02-.39-1.41 0s-.39 1.02 0 1.41l.29.29h-3.17l.29-.29c.39-.39.39-1.02 0-1.41s-1.02-.39-1.41 0l-2 2c-.39.39-.39 1.02 0 1.41 2.18 2.18 2.17 2.29 2.71 2.29.88 0 1.34-1.07.71-1.71l-.29-.29h3.17l-.29.29c-.39.39-.39 1.02 0 1.41s1.02.39 1.41 0l2-2c.39-.39.39-1.02 0-1.41z" fill="#d38e2a"/><path d="M56.95 46h-21.9c.13-1.43.53-2.78 1.15-4h19.6c.62 1.22 1.02 2.57 1.15 4zm-2.46-6H37.51c.64-.76 1.36-1.43 2.17-2h12.64c.81.57 1.53 1.24 2.17 2z" fill="#d9d9d9"/><path d="M52.32 38H39.68c3.79-2.67 8.85-2.67 12.64 0zm3.48 4H36.2a11.68 11.68 0 0 1 1.31-2h16.98a11.68 11.68 0 0 1 1.31 2z" fill="#c8c8c8"/><circle cx="46" cy="47" r="9" fill="#fff"/><circle cx="46" cy="47" r="7" fill="#d38e2a"/><path d="M45 50c-.54 0-.57-.15-2.71-2.29-.39-.39-.39-1.02 0-1.41s1.02-.39 1.41 0l1.29 1.29 3.29-3.29c.39-.39 1.02-.39 1.41 0s.39 1.02 0 1.41l-4 4a.98.98 0 0 1-.71.29zM12.41 23l3.29-3.29c.39-.39.39-1.02 0-1.41s-1.02-.39-1.41 0L11 21.59 7.71 18.3c-.39-.39-1.02-.39-1.41 0s-.39 1.02 0 1.41L9.59 23 6.3 26.29c-.39.39-.39 1.02 0 1.41s1.02.39 1.41 0L11 24.41l3.29 3.29c.39.39 1.02.39 1.41 0s.39-1.02 0-1.41L12.41 23zm30.39 0l4.75-3.17a1.01 1.01 0 0 0 .28-1.39 1.01 1.01 0 0 0-1.39-.28l-5.45 3.63-5.45-3.63c-.46-.31-1.08-.18-1.39.28s-.18 1.08.28 1.39L39.18 23l-4.75 3.17a1.01 1.01 0 0 0-.28 1.39 1.01 1.01 0 0 0 1.39.28l5.45-3.63 5.45 3.63c.46.31 1.08.18 1.39-.28s.18-1.08-.28-1.39L42.8 23z" fill="#fff"/></svg>