<svg xmlns="http://www.w3.org/2000/svg" viewBox="0 0 64 64" xmlns:v="https://vecta.io/nano"><path d="M62,17V56H2V17c0-1.66,1.34-3,3-3H59c1.66,0,3,1.34,3,3Z" fill="#5e9fdf"/><path d="M1 56h62c.55 0 1 .45 1 1v2c0 1.66-1.34 3-3 3H3c-1.66 0-3-1.34-3-3v-2c0-.55.45-1 1-1z" fill="#1976d2"/><path d="M60 17v4H20l-4-5h43c.55 0 1 .45 1 1z" fill="#5e9fdf"/><path d="M60 21v33H4V17c0-.55.45-1 1-1h14.08c1.21 0 2.36.55 3.12 1.5l1.6 2c.86 1.03 1.97 1.5 3.12 1.5H60zM39 58H25c-.81 0-2-.63-2-2h18c0 .81-.63 2-2 2z" fill="#f3f3f3"/><path d="M11 2h42c1.1 0 2 .9 2 2v50H9V4c0-1.1.9-2 2-2z" fill="#5e9fdf"/><path d="M21 6V2h14.5c1.57 0 3.06.74 4 2s2.43 2 4 2C59.52 6 37.01 6 21 6zM7 14h50v2H7z" fill="#1976d2"/><path d="M57 16v5H26.92c-1.14 0-2.26-.47-3.12-1.5l-1.6-2c-.76-.95-1.91-1.5-3.12-1.5H57z" fill="#5e9fdf"/><path d="M57 21v33H7V16h12.08c4.04 0 3.78 5 7.84 5H57z" fill="#d9d9d9"/><path d="M55 54H9V4c0-1.1.9-2 2-2h9.76c2.51 0 3.41 2.34 3.24 2 .61 1.23 1.87 2 3.24 2H55v48z" fill="#f3f3f3"/><rect x="13" y="11" width="20" height="26" rx="2" fill="#d38e2a"/><circle cx="21" cy="5" r="1" fill="#5e9fdf"/><path d="M37 11h14v2H37zm0 4h14v2H37zm0 4h14v2H37zm0 4h14v2H37zm0 4h14v2H37zm0 4h14v2H37zm0 4h14v2H37zm-24 4h38v2H13zm0 4h38v2H13zm0 4h38v2H13z" fill="#d9d9d9"/><g fill="#fff"><path d="M30 35c-.32 0-.63-.15-.82-.43l-14-20a.99.99 0 0 1 .25-1.39.99.99 0 0 1 1.39.25l14 20A1 1 0 0 1 30 35z"/><path d="M16 35c-.8 0-1.29-.91-.82-1.57l14-20c.32-.45.94-.56 1.39-.25.45.32.56.94.25 1.39l-14 20c-.19.28-.5.43-.82.43z"/></g></svg>