<svg xmlns="http://www.w3.org/2000/svg" xmlns:xlink="http://www.w3.org/1999/xlink" viewBox="0 0 64 64" xmlns:v="https://vecta.io/nano"><rect y="39" width="64" height="20" rx="4" fill="#5e9fdf"/><rect x="3" y="42" width="58" height="14" rx="1" fill="#f3f3f3"/><g fill="#5e9fdf"><path d="M11 53H7c-.55 0-1-.45-1-1 0-.29.22-1 1-1h4c.55 0 1 .45 1 1 0 .29-.22 1-1 1z"/><use xlink:href="#B"/><use xlink:href="#B" x="9"/></g><use xlink:href="#B" x="37" fill="#d38e2a"/><g fill="#1976d2"><path d="M11.38 61H7.62c-.38 0-.73-.21-.89-.55L6.01 59h7l-.72 1.45a1 1 0 0 1-.89.55z"/><path d="M11.38 61H7.62c-.38 0-.73-.21-.89-.55L6.01 59h7l-.72 1.45a1 1 0 0 1-.89.55zm45 0h-3.76c-.38 0-.73-.21-.89-.55L51.01 59h7l-.72 1.45a1 1 0 0 1-.89.55z"/><path d="M56.38 61h-3.76c-.38 0-.73-.21-.89-.55L51.01 59h7l-.72 1.45a1 1 0 0 1-.89.55zM10 3c-.84 0-2.03.63-2.11 2L6 39h8L12.11 5c-.06-1.12-.99-2-2.11-2z"/></g><g fill="#d38e2a"><circle cx="32" cy="26" r="2"/><path d="M36.24 23.76c-.26 0-.51-.1-.71-.3-1.93-1.95-5.12-1.96-7.06 0-.39.39-1.02.39-1.41 0s-.4-1.02 0-1.41a6.99 6.99 0 0 1 9.9 0c.63.63.17 1.7-.71 1.7zm2.83-2.83c-.26 0-.51-.1-.71-.29-3.52-3.52-9.21-3.52-12.73 0-.39.39-1.02.39-1.41 0s-.39-1.02 0-1.41c4.3-4.3 11.25-4.3 15.55 0a1.01 1.01 0 0 1-.71 1.71zm2.83-2.83c-.26 0-.51-.1-.71-.29a13 13 0 0 0-18.39 0c-.39.39-1.02.39-1.41 0s-.39-1.02 0-1.41c5.88-5.86 15.33-5.86 21.21 0 .63.63.18 1.71-.71 1.71z"/></g><path d="M54 3c-.84 0-2.03.63-2.11 2L50 39h8L56.11 5c-.06-1.12-.99-2-2.11-2z" fill="#1976d2"/><defs ><path id="B" d="M20 53h-4c-.55 0-1-.45-1-1 0-.29.22-1 1-1h4c.55 0 1 .45 1 1 0 .29-.22 1-1 1z"/></defs></svg>