<svg xmlns="http://www.w3.org/2000/svg" xmlns:xlink="http://www.w3.org/1999/xlink" viewBox="0 0 64 64" xmlns:v="https://vecta.io/nano"><path d="M20,49v4c0,1.1-.9,2-2,2H2c-1.1,0-2-.9-2-2v-4c0-.17,.02-.34,.07-.5,.22-.86,1-1.5,1.93-1.5H18c.93,0,1.71,.64,1.93,1.5,.05,.16,.07,.33,.07,.5Z" fill="#d38e2a"/><use xlink:href="#B" fill="#e4c290"/><path d="M20,41v4c0,1.1-.9,2-2,2H2c-1.1,0-2-.9-2-2v-4c0-.17,.02-.34,.07-.5,.22-.86,1-1.5,1.93-1.5H18c.93,0,1.71,.64,1.93,1.5,.05,.16,.07,.33,.07,.5Z" fill="#d38e2a"/><use xlink:href="#B" y="-8" fill="#e4c290"/><rect y="31" width="20" height="8" rx="2" fill="#d38e2a"/><path d="M18 39c.93 0 1.71.64 1.93 1.5a1.68 1.68 0 0 1 .07.5v4c0 1.1-.9 2-2 2 .93 0 1.71.64 1.93 1.5a1.68 1.68 0 0 1 .07.5v4c0 1.1-.9 2-2 2H8.54A5.93 5.93 0 0 1 7 51V31h11c1.1 0 2 .9 2 2v4c0 1.1-.9 2-2 2z" fill="#e4c290"/><rect x="9" y="23" width="52" height="32" rx="4" fill="#5e9fdf"/><path d="M58 29v20c-.83 0-1.58.34-2.12.88S55 51.17 55 52H15c0-.83-.34-1.58-.88-2.12S12.83 49 12 49V29c.83 0 1.58-.34 2.12-.88S15 26.83 15 26h40c0 .83.34 1.58.88 2.12S57.17 29 58 29z" fill="#1976d2"/><g fill="#5e9fdf"><ellipse cx="35" cy="39" rx="9" ry="11"/><rect x="15" y="38" width="8" height="2" rx="1"/><rect x="47" y="38" width="8" height="2" rx="1"/></g><g fill="#1976d2"><path d="M61 27v4.6a16.39 16.39 0 0 1-3 2.37V29c-.83 0-1.58-.34-2.12-.88S55 26.83 55 26H41.27c-.41-.96-.71-1.96-.93-3H57a4 4 0 0 1 4 4z"/><path d="M58 29v4.97a16.46 16.46 0 0 1-4.47 1.96l-.53.14-.53-.14c-5.17-1.41-9.26-5.17-11.2-9.93H55c0 .83.34 1.58.88 2.12S57.17 29 58 29z"/></g><path d="M64 14.29v5.31c0 6.73-4.51 12.63-11 14.4h0c-6.49-1.77-11-7.67-11-14.4v-5.31c0-.78.46-1.5 1.17-1.82l9-4.09c.53-.24 1.13-.24 1.66 0l9 4.09c.71.32 1.17 1.04 1.17 1.82z" fill="#d38e2a"/><path d="M53 10l9 4v5.51c0 5.67-3.63 10.7-9 12.49h0c-5.37-1.79-9-6.82-9-12.49V14l9-4z" fill="#e4c290"/><path d="M52 24c-.26 0-.51-.1-.71-.29l-3-3c-.39-.39-.39-1.02 0-1.41s1.02-.39 1.41 0l2.29 2.29 4.29-4.29c.39-.39 1.02-.39 1.41 0s.39 1.02 0 1.41l-5 5a.98.98 0 0 1-.71.29z" fill="#f3f3f3"/><g fill="#d9d9d9"><circle cx="13" cy="19" r="1"/><circle cx="17" cy="19" r="1"/><circle cx="21" cy="19" r="1"/><circle cx="25" cy="19" r="1"/></g><defs ><path id="B" d="M19.93 48.5c-.57.32-1.23.5-1.93.5H2c-.7 0-1.36-.18-1.93-.5.22-.86 1-1.5 1.93-1.5h16c.93 0 1.71.64 1.93 1.5z"/></defs></svg>