<svg xmlns="http://www.w3.org/2000/svg" viewBox="0 0 64 64" xmlns:v="https://vecta.io/nano"><path d="M42 43c-.55 0-1-.45-1-1v-1.45c0-1.95 1.39-3.65 3.3-4.03a2.13 2.13 0 0 0 1.7-2.07V32c0-.55.45-1 1-1s1 .45 1 1v2.45c0 1.95-1.39 3.65-3.3 4.03a2.13 2.13 0 0 0-1.7 2.07V42c0 .55-.45 1-1 1z" fill="#d38e2a"/><rect x="11" width="42" height="32" rx="2" fill="#5e9fdf"/><path d="M38 38H26l1-6h10l1 6z" fill="#1976d2"/><g fill="#5e9fdf"><path d="M39 38H25c-.55 0-1-.45-1-1 0-.29.22-1 1-1h14c.55 0 1 .45 1 1 0 .29-.22 1-1 1z"/><rect x="9" y="42" width="46" height="22" rx="3"/></g><path d="M13 2h38v26H13z" fill="#fff"/><path d="M12 47h40v13c0 .55-.45 1-1 1H13c-.55 0-1-.45-1-1V47h0z" fill="#f3f3f3"/><path d="M16 56h2v5h-2zm6-9h2v14h-2zm12 0h2v14h-2zm6 0h2v14h-2zm-12 9h2v5h-2z" fill="#d9d9d9"/><path d="M15 47h4v8c0 .55-.45 1-1 1h-2c-.55 0-1-.45-1-1v-8h0zm12 0h4v8c0 .55-.45 1-1 1h-2c-.55 0-1-.45-1-1v-8h0z" fill="#1976d2"/><path d="M46 56h2v5h-2z" fill="#d9d9d9"/><path d="M45,47h4v8c0,.55-.45,1-1,1h-2c-.55,0-1-.45-1-1v-8h0Z" fill="#1976d2"/><path d="M32 18c-.29 0-1-.22-1-1V5c0-.55.45-1 1-1 .29 0 1 .22 1 1v12c0 .55-.45 1-1 1zm-4-2c-.29 0-1-.22-1-1V7c0-.55.45-1 1-1 .29 0 1 .22 1 1v8c0 .55-.45 1-1 1zm8 0c-.29 0-1-.22-1-1V7c0-.55.45-1 1-1 .29 0 1 .22 1 1v8c0 .55-.45 1-1 1zm-12-2c-.29 0-1-.22-1-1V9c0-.55.45-1 1-1 .29 0 1 .22 1 1v4c0 .55-.45 1-1 1zm16 0c-.29 0-1-.22-1-1V9c0-.55.45-1 1-1 .29 0 1 .22 1 1v4c0 .55-.45 1-1 1z" fill="#d38e2a"/><path d="M13 22h38v6H13z" fill="#f3f3f3"/><path d="M13 20v2h5v6h2v-6h31v-2H13z" fill="#d9d9d9"/><path d="M33 26H23c-.55 0-1-.45-1-1 0-.29.22-1 1-1h10c.55 0 1 .45 1 1 0 .29-.22 1-1 1zm15 0H37c-.55 0-1-.45-1-1 0-.29.22-1 1-1h11c.55 0 1 .45 1 1 0 .29-.22 1-1 1z" fill="#5e9fdf"/></svg>