<svg xmlns="http://www.w3.org/2000/svg" viewBox="0 0 64 64" xmlns:v="https://vecta.io/nano"><path d="M18 26c0-12.15 9.4-22 21-22 10.67 0 19.47 8.33 20.82 19.12L64 34l-5 2-1 10h-9l-3 7v7H27V44.05c-5.44-3.98-9-10.58-9-18.05z" fill="#d9d9d9"/><g transform="matrix(-1 0 0 -1 78 48)"><rect x="30" y="15" width="18" height="18" rx="3" fill="#5e9fdf"/><rect x="32" y="17" width="14" height="14" rx="1" fill="#f3f3f3"/></g><path d="M43 28h-8v-8h8z" fill="#d38e2a"/><path d="M5 25h25c1.32 0 1.32-2 0-2H5c-1.32 0-1.32 2 0 2zm26-3c.88 0 1.34-1.07.71-1.71C26.3 14.88 26.59 15 26 15H8c-1.32 0-1.32 2 0 2h17.59c5.02 5.02 4.84 5 5.41 5zM8 33c19.52 0 18.29.13 18.71-.29l5-5c.94-.94-.48-2.35-1.41-1.41l-4.71 4.71H8c-1.32 0-1.32 2 0 2zm25 18V37.28l2.86-4.76c.68-1.13-1.03-2.16-1.71-1.03l-3 5c-.21.34-.14-.71-.14 14.51 0 1.32 2 1.32 2 0zm7-8V32c0-1.32-2-1.32-2 0v11c0 1.32 2 1.32 2 0zm9-3c1.1 0 1.39-1.52.37-1.93L45 36.32V32c0-1.32-2-1.32-2 0v5a1 1 0 0 0 .63.93L49 40z" fill="#5e9fdf"/><path d="M0 24a3.01 3.01 0 0 1 3-3 3.01 3.01 0 0 1 3 3 3.01 3.01 0 0 1-3 3 3.01 3.01 0 0 1-3-3zm2 0c0 1.32 2 1.32 2 0s-2-1.32-2 0zm1-8a3.01 3.01 0 0 1 3-3 3.01 3.01 0 0 1 3 3 3.01 3.01 0 0 1-3 3 3.01 3.01 0 0 1-3-3zm2 0c0 1.32 2 1.32 2 0s-2-1.32-2 0zM3 32a3.01 3.01 0 0 1 3-3 3.01 3.01 0 0 1 3 3 3.01 3.01 0 0 1-3 3 3.01 3.01 0 0 1-3-3zm2 0c0 1.32 2 1.32 2 0s-2-1.32-2 0zm31 13a3.01 3.01 0 0 1 3-3 3.01 3.01 0 0 1 3 3 3.01 3.01 0 0 1-3 3 3.01 3.01 0 0 1-3-3zm2 0c0 1.32 2 1.32 2 0s-2-1.32-2 0zm10-5a3.01 3.01 0 0 1 3-3 3.01 3.01 0 0 1 3 3 3.01 3.01 0 0 1-3 3 3.01 3.01 0 0 1-3-3zm2 0c0 1.32 2 1.32 2 0s-2-1.32-2 0zM29 53a3.01 3.01 0 0 1 3-3 3.01 3.01 0 0 1 3 3 3.01 3.01 0 0 1-3 3 3.01 3.01 0 0 1-3-3zm2 0c0 1.32 2 1.32 2 0s-2-1.32-2 0z" fill="#d38e2a"/><path d="M40,16v-5c0-1.32-2-1.32-2,0v5c0,1.32,2,1.32,2,0Z" fill="#5e9fdf"/><path d="M36,9c0-1.65,1.35-3,3-3s3,1.35,3,3-1.35,3-3,3-3-1.35-3-3Zm2,0c0,1.32,2,1.32,2,0,0-1.32-2-1.32-2,0Z" fill="#d38e2a"/></svg>