<svg xmlns="http://www.w3.org/2000/svg" xmlns:xlink="http://www.w3.org/1999/xlink" viewBox="0 0 64 64" xmlns:v="https://vecta.io/nano"><g fill="#5e9fdf"><path d="M52 32l-.03 1c-.16 3.27-1.1 6.33-2.66 9-.39.7-.84 1.37-1.31 2-3.02 4.02-7.51 6.86-12.68 7.72-1.08.19-2.19.28-3.32.28s-2.24-.09-3.32-.28c-5.17-.86-9.66-3.7-12.68-7.72-.47-.63-.92-1.3-1.31-2-1.56-2.67-2.5-5.73-2.66-9-.02-.33-.03-.67-.03-1s.01-.67.03-1c.16-3.27 1.1-6.33 2.66-9 .39-.7.84-1.37 1.31-2 3.02-4.02 7.51-6.86 12.68-7.72 1.08-.19 2.19-.28 3.32-.28s2.24.09 3.32.28c5.17.86 9.66 3.7 12.68 7.72.47.63.92 1.3 1.31 2 1.56 2.67 2.5 5.73 2.66 9 .02.33.03.67.03 1z"/><path d="M35.32 12.28C34.24 12.09 33.13 12 32 12s-2.24.09-3.32.28C23.32 17.05 20 24.45 20 32s3.32 14.95 8.68 19.72c1.08.19 2.19.28 3.32.28s2.24-.09 3.32-.28C40.68 46.95 44 39.55 44 32s-3.32-14.95-8.68-19.72zM32 51.8C25.91 47.59 22 39.89 22 32s3.91-15.59 10-19.8c6.09 4.21 10 11.91 10 19.8s-3.91 15.59-10 19.8z"/><path d="M14.69 42c.39.7.84 1.37 1.31 2h32c.47-.63.92-1.3 1.31-2H14.69zM48 20H16c-.47.63-.92 1.3-1.31 2h34.62c-.39-.7-.84-1.37-1.31-2zm3.97 11H12.03L12 32l.03 1h39.94l.03-1-.03-1z"/><circle cx="7" cy="7" r="7"/></g><g fill="#d38e2a"><circle cx="11" cy="12" r="3"/><circle cx="11" cy="12" r="3"/><circle cx="18" cy="19" r="3"/><use xlink:href="#B"/></g><circle cx="57" cy="7" r="7" fill="#5e9fdf"/><g fill="#d38e2a"><circle cx="53" cy="12" r="3"/><circle cx="53" cy="12" r="3"/><circle cx="46" cy="19" r="3"/><use xlink:href="#C"/></g><circle cx="57" cy="57" r="7" fill="#5e9fdf"/><g fill="#d38e2a"><circle cx="52" cy="53" r="3"/><circle cx="52" cy="53" r="3"/><circle cx="45" cy="46" r="3"/><use xlink:href="#B" x="34" y="34"/></g><circle cx="7" cy="57" r="7" fill="#5e9fdf"/><g fill="#d38e2a"><circle cx="11" cy="52" r="3"/><circle cx="11" cy="52" r="3"/><circle cx="18" cy="45" r="3"/><use xlink:href="#C" x="-35" y="33"/></g><circle cx="32" cy="32" r="13" fill="#f3f3f3"/><path d="M36,31c-.55,0-1-.45-1-1v-2c0-1.65-1.35-3-3-3s-3,1.35-3,3v2c0,.55-.45,1-1,1s-1-.45-1-1v-2c0-2.76,2.24-5,5-5s5,2.24,5,5v2c0,.55-.45,1-1,1Z" fill="#d38e2a"/><rect x="25" y="29" width="14" height="12" rx="2" fill="#5e9fdf"/><path d="M34 34c0-1.25-1.14-2.23-2.43-1.95-.73.15-1.33.73-1.51 1.45-.23.94.21 1.8.94 2.22V37c0 .55.45 1 1 1h0c.55 0 1-.45 1-1v-1.28A1.98 1.98 0 0 0 34 34z" fill="#1976d2"/><defs ><path id="B" d="M18 20c-.26 0-.51-.1-.71-.29l-7-7c-.39-.39-.39-1.02 0-1.41s1.02-.39 1.41 0l7 7c.39.39.39 1.02 0 1.41a.98.98 0 0 1-.71.29z"/><path id="C" d="M46 20c-.26 0-.51-.1-.71-.29-.39-.39-.39-1.02 0-1.41l7-7c.39-.39 1.02-.39 1.41 0s.39 1.02 0 1.41l-7 7a.98.98 0 0 1-.71.29z"/></defs></svg>