<svg xmlns="http://www.w3.org/2000/svg" xmlns:xlink="http://www.w3.org/1999/xlink" viewBox="0 0 64 64" xmlns:v="https://vecta.io/nano"><g fill="#1976d2"><circle cx="57" cy="57" r="7"/><circle cx="7" cy="57" r="7"/><circle cx="57" cy="7" r="7"/><circle cx="7" cy="7" r="7"/></g><g fill="#5e9fdf"><circle cx="57" cy="6" r="2"/><use xlink:href="#B"/><path d="M63.06 10.51a6.99 6.99 0 0 0-2.58-2.57C62.01 5.17 59.96 2 57 2s-5.01 3.16-3.48 5.94a6.99 6.99 0 0 0-2.58 2.57C48.27 5.93 51.54 0 57 0s8.73 5.92 6.06 10.51z"/><circle cx="7" cy="6" r="2"/><use xlink:href="#B" x="-50"/><path d="M13.06 10.51a6.99 6.99 0 0 0-2.58-2.57C12.01 5.17 9.96 2 7 2S1.99 5.16 3.52 7.94a6.99 6.99 0 0 0-2.58 2.57C-1.73 5.93 1.54 0 7 0s8.73 5.92 6.06 10.51z"/><circle cx="57" cy="56" r="2"/><use xlink:href="#B" y="50"/><path d="M63.06 60.51a6.99 6.99 0 0 0-2.58-2.57C62.01 55.17 59.96 52 57 52s-5.01 3.16-3.48 5.94a6.99 6.99 0 0 0-2.58 2.57C48.27 55.93 51.54 50 57 50s8.73 5.92 6.06 10.51z"/><circle cx="7" cy="56" r="2"/><use xlink:href="#B" x="-50" y="50"/><path d="M13.06 60.51a6.99 6.99 0 0 0-2.58-2.57C12.01 55.17 9.96 52 7 52s-5.01 3.16-3.48 5.94a6.99 6.99 0 0 0-2.58 2.57C-1.73 55.93 1.54 50 7 50s8.73 5.92 6.06 10.51z"/></g><g fill="#1976d2"><path d="M29.14 34.09c0-.21.08-.13-.4-.33C25.23 30.72 27.39 25 32 25c2.76 0 5 2.24 5 5 0 4.06-4.58 6.4-7.86 4.09zm13.38 7.13c-5.55 6.38-15.5 6.37-21.04 0 1.37-2.52 3.64-4.51 6.48-5.51a6.97 6.97 0 0 0 8.08 0c2.84 1 5.11 2.99 6.48 5.51zm1.3-1.73c-1.46-2.32-3.61-4.18-6.22-5.31C41.02 29.63 37.79 23 32 23s-9.03 6.61-5.61 11.17a13.86 13.86 0 0 0-6.22 5.31C14.31 30.2 20.95 18 32 18s17.65 12.32 11.82 21.49z"/><path d="M38.87 19.8c-3.57 4.27-10.17 4.26-13.74 0a14.01 14.01 0 0 1 13.74 0z"/></g><circle cx="32" cy="14" r="7" fill="#d38e2a"/><g fill="#fdfdfd"><rect x="28.59" y="13.41" width="4" height="4" rx="1" transform="matrix(.707107 -.707107 .707107 .707107 -1.94 26.14)"/><path d="M29.17 15.41C30.72 13.08 32 11.47 32 8.34c0-.1.06.06 5.66 5.66-3.26 0-5.07 1.5-7.07 2.83l-1.41-1.41z"/><path d="M32 18.24l-.71-.71 1.41-1.41.71.71c.95.95-.5 2.33-1.41 1.41z"/></g><path d="M44 21c-.88 0-1.34-1.07-.71-1.71l6-6c.94-.94 2.35.48 1.41 1.41l-6.71 6.29zm-24 0c-.6 0-.29.13-6.71-6.29-.94-.94.48-2.35 1.41-1.41l6 6a1.01 1.01 0 0 1-.71 1.71zm-6 30c-.88 0-1.34-1.07-.71-1.71l6-6c.94-.94 2.35.48 1.41 1.41l-6.71 6.29zm36 0c-.6 0-.29.13-6.71-6.29-.94-.94.48-2.35 1.41-1.41l6 6a1.01 1.01 0 0 1-.71 1.71z" fill="#d38e2a"/><defs ><path id="B" d="M61.66 12.21c-2.64 2.39-6.67 2.39-9.32 0 .47-1.22 1.42-2.23 2.65-2.77a3.87 3.87 0 0 0 4.02 0c1.23.54 2.18 1.55 2.65 2.77z"/></defs></svg>