<svg xmlns="http://www.w3.org/2000/svg" viewBox="0 0 64 64" xmlns:v="https://vecta.io/nano"><path d="M32,64C14.35,64,0,49.65,0,32S14.35,0,32,0s32,14.35,32,32-14.36,32-32,32Zm0-62C15.46,2,2,15.46,2,32s13.46,30,30,30,30-13.46,30-30S48.54,2,32,2Z" fill="#d9d9d9"/><circle cx="32" cy="32" r="23" fill="#5e9fdf"/><circle cx="8" cy="8" r="8" fill="#d38e2a"/><path d="M43.18 25h10.73c-.21-.68-.46-1.35-.74-2H42.63c-1.65-5.38-4.75-10.26-8.99-13.93a19.96 19.96 0 0 0-3.28 0c-4.24 3.67-7.34 8.55-8.99 13.93H10.83c-.28.65-.53 1.32-.74 2h10.73c-1.06 4.46-1.13 9.23 0 14H10.09c.21.68.46 1.35.74 2h10.54c1.65 5.38 4.75 10.26 8.99 13.93 1 .09 2.26.09 3.28 0 4.24-3.67 7.34-8.55 8.99-13.93h10.54c.28-.65.53-1.32.74-2H43.18c1.06-4.46 1.13-9.23 0-14zM32 10.29c3.97 3.33 6.91 7.78 8.54 12.71H23.46c1.63-4.93 4.58-9.38 8.54-12.71zm0 43.42c-3.96-3.33-6.91-7.78-8.54-12.71h17.08c-1.63 4.93-4.57 9.38-8.54 12.71zM41.12 39H22.88a28.24 28.24 0 0 1 0-14h18.24a28.24 28.24 0 0 1 0 14zM9.89 8.32C12.09 6.53 10.81 3 8 3S3.91 6.52 6.11 8.32c-1.4.47-2.58 1.43-3.3 2.68 2.3 4 8.08 4 10.38 0-.72-1.26-1.9-2.22-3.3-2.68z" fill="#f3f3f3"/><circle cx="56" cy="8" r="8" fill="#d38e2a"/><path d="M57.89 8.32C60.09 6.53 58.81 3 56 3s-4.09 3.52-1.89 5.32c-1.4.47-2.58 1.43-3.3 2.68 2.3 4 8.08 4 10.38 0-.72-1.26-1.9-2.22-3.3-2.68z" fill="#f3f3f3"/><circle cx="8" cy="56" r="8" fill="#d38e2a"/><path d="M9.89 56.32C12.09 54.53 10.81 51 8 51s-4.09 3.52-1.89 5.32c-1.4.47-2.58 1.43-3.3 2.68 2.3 4 8.08 4 10.38 0-.72-1.26-1.9-2.22-3.3-2.68z" fill="#f3f3f3"/><circle cx="56" cy="56" r="8" fill="#d38e2a"/><path d="M57.89 56.32c2.2-1.79.92-5.32-1.89-5.32s-4.09 3.52-1.89 5.32c-1.4.47-2.58 1.43-3.3 2.68 2.3 4 8.08 4 10.38 0-.72-1.26-1.9-2.22-3.3-2.68z" fill="#f3f3f3"/></svg>