<svg xmlns="http://www.w3.org/2000/svg" viewBox="0 0 64 64" xmlns:v="https://vecta.io/nano"><path d="M59,62H15c-2.76,0-5-2.24-5-5V0H54V25l5,37Z" fill="#f3f3f3"/><path d="M59,62c-2.76,0-5-2.23-5-5V25h10V57c0,2.76-2.24,5-5,5Z" fill="#d9d9d9"/><path d="M58,55V21c0-1.34,2-1.29,2,0V55c0,1.34-2,1.29-2,0Z" fill="#c8c8c8"/><path d="M25.82,60c.23,.64,.18,1.01,.18,2H15c-2.76,0-5-2.24-5-5v-7h1c1.65,0,3,1.35,3,3v1h9c1.65,0,3,1.35,3,3,0,1.98,.06,2.32-.18,3Z" fill="#d9d9d9"/><g fill="#e4c290"><rect y="60" width="12" height="4" rx="1" transform="matrix(-1 0 0 -1 12 124)"/><rect y="56" width="12" height="4" rx="1" transform="matrix(-1 0 0 -1 12 116)"/></g><rect y="52" width="12" height="4" rx="1" transform="matrix(-1 0 0 -1 12 108)" fill="#d38e2a"/><rect x="12" y="60" width="12" height="4" rx="1" transform="matrix(-1 0 0 -1 36 124)" fill="#e4c290"/><rect x="12" y="56" width="12" height="4" rx="1" transform="matrix(-1 0 0 -1 36 116)" fill="#d38e2a"/><path d="M21 14c-.68 0-.4.14-5-6v5c0 1.32-2 1.32-2 0V5c0-.96 1.22-1.37 1.8-.6L20 10V5c0-1.32 2-1.32 2 0v8c0 .56-.45 1-1 1zm9-2h-3v-2h2c1.32 0 1.32-2 0-2h-2V6h3c1.32 0 1.32-2 0-2h-4c-.55 0-1 .45-1 1v8c0 .55.45 1 1 1h4c1.32 0 1.32-2 0-2zm11 2c-.55 0-.54-.13-3-2.59l-2.29 2.29c-.63.63-1.71.18-1.71-.71V5c0-1.32 2-1.32 2 0v5.59l1.29-1.29c.39-.39 1.02-.39 1.41 0l1.29 1.29V5c0-1.32 2-1.32 2 0v8c0 .55-.45 1-1 1zm7 0h-2c-1.32 0-1.32-2 0-2h2c1.32 0 1.32-2 0-2a3.01 3.01 0 0 1-3-3 3.01 3.01 0 0 1 3-3h2c1.32 0 1.32 2 0 2h-2c-1.32 0-1.32 2 0 2a3.01 3.01 0 0 1 3 3 3.01 3.01 0 0 1-3 3z" fill="#1976d2"/><path d="M49,18H15c-1.34,0-1.29-2,0-2H49c1.34,0,1.29,2,0,2Z" fill="#d38e2a"/><rect x="14" y="20" width="16" height="18" rx="1" fill="#5e9fdf"/><path d="M22 28c-1.32 0-1.32-2 0-2h2c1.32 0 1.32-2 0-2h-1v-1c0-1.32-2-1.32-2 0l.04 1.17c-3.21 1.1-2.4 5.83.96 5.83 1.32 0 1.32 2 0 2h-2c-1.32 0-1.32 2 0 2h1v1c0 1.32 2 1.32 2 0l-.04-1.17c3.21-1.1 2.4-5.83-.96-5.83z" fill="#fdfdfd"/><path d="M32 20h18v2H32zm0 4h18v2H32zm0 4h18v2H32zm0 4h18v2H32zm0 4h18v2H32zm0 20h18v2H32zM14 40h36v2H14zm0 4h36v2H14zm0 4h36v2H14z" fill="#d9d9d9"/></svg>