<svg xmlns="http://www.w3.org/2000/svg" viewBox="0 0 64 64" xmlns:v="https://vecta.io/nano"><path d="M52 8v48c0 3.64-2.43 6.71-5.75 7.68-1.52.45-.39.32-26.25.32a8 8 0 0 1-8-8V8a8 8 0 0 1 8-8h24a8 8 0 0 1 8 8z" fill="#5e9fdf"/><path d="M49 9v45c0 3.31-2.69 6-6 6H21c-3.31 0-6-2.69-6-6V9c0-3.31 2.69-6 6-6h3.29a.98.98 0 0 1 .94.68l.31.95A2.01 2.01 0 0 0 27.44 6h9.12a2.01 2.01 0 0 0 1.9-1.37l.31-.94a1 1 0 0 1 .95-.69H43c3.31 0 6 2.69 6 6z" fill="#fff"/><circle cx="31" cy="32" r="13" fill="#d38e2a"/><path d="M42 58H22c-.55 0-1-.45-1-1 0-.29.22-1 1-1h20c.55 0 1 .45 1 1 0 .29-.22 1-1 1z" fill="#d9d9d9"/><g fill="#fff"><circle cx="31" cy="38" r="2"/><path d="M34.54 35.46a1 1 0 0 1-.7-.29c-1.53-1.51-4.15-1.51-5.67 0-.39.39-1.03.39-1.41 0-.39-.39-.38-1.03 0-1.41a6.03 6.03 0 0 1 8.49 0c.63.63.19 1.71-.7 1.71zm2.82-2.82c-.26 0-.51-.1-.71-.3-3.1-3.12-8.19-3.13-11.3 0-.39.39-1.02.39-1.41 0s-.39-1.02 0-1.41c3.89-3.92 10.25-3.92 14.14 0 .63.63.17 1.7-.71 1.7zm2.83-2.83c-.26 0-.51-.1-.71-.29-4.69-4.69-12.27-4.69-16.97 0-.39.39-1.02.39-1.41 0s-.39-1.02 0-1.41c5.47-5.47 14.32-5.48 19.79 0a1.01 1.01 0 0 1-.71 1.71z"/></g><circle cx="40" cy="41" r="6" fill="#5e9fdf"/><g fill="#fff"><path d="M42 44c-.26 0-.51-.1-.71-.29l-4-4c-.39-.39-.39-1.02 0-1.41s1.02-.39 1.41 0l4 4a1.01 1.01 0 0 1-.71 1.71z"/><path d="M38 44c-.88 0-1.34-1.07-.71-1.71l4-4c.39-.39 1.02-.39 1.41 0s.39 1.02 0 1.41l-4 4a.98.98 0 0 1-.71.29z"/></g><g fill="#d9d9d9"><circle cx="45" cy="7" r="1"/><circle cx="41" cy="7" r="1"/><path d="M19 10h10v2H19zm0 4h4v2h-4z"/></g></svg>