<svg xmlns="http://www.w3.org/2000/svg" viewBox="0 0 64 64" xmlns:v="https://vecta.io/nano"><path d="M52 6v52c0 3.31-2.69 6-6 6H18c-3.31 0-6-2.69-6-6V6c0-3.31 2.69-6 6-6h28a6 6 0 0 1 6 6z" fill="#1976d2"/><path d="M50 6v50a4 4 0 0 1-4 4H18a4 4 0 0 1-4-4V6a4 4 0 0 1 4-4h5.28c.43 0 .81.28.95.68.27.83.56 2.32 2.21 2.32h11.12a2.01 2.01 0 0 0 1.9-1.37l.31-.95c.14-.4.52-.68.95-.68 5.3 0 5.74-.11 6.68.26A3.98 3.98 0 0 1 50 6z" fill="#fff"/><path d="M52 18.13v32.78a5.6 5.6 0 0 1-2 0V18.13c.62-.17 1.38-.17 2 0z" fill="#1976d2"/><path d="M50 18.13v32.78A5.98 5.98 0 0 1 45.35 47h-4.94C38.53 47 37 45.47 37 43.59c0-2.47 2-2.37 2-4.83V34c0-5.22 3.34-9.66 8-11.31V22a3.99 3.99 0 0 1 3-3.87z" fill="#f3f3f3"/><path d="M44,58H22c-1.34,0-1.29-2,0-2h22c1.34,0,1.29,2,0,2Z" fill="#d9d9d9"/><path d="M53 26h-4v-4c0-1.1.9-2 2-2 .81 0 2 .63 2 2v4z" fill="#1976d2"/><circle cx="51" cy="45" r="4" fill="#d38e2a"/><path d="M61.59 45H40.42c-1.26 0-1.88-1.53-1-2.41a5.42 5.42 0 0 0 1.59-3.83V34c0-5.52 4.48-10 10-10s10 4.48 10 10c0 4.61-.41 6.59 1.59 8.59.87.87.28 2.41-1 2.41zM12 8h2v20h-2z" fill="#1976d2"/><path d="M26 12v12a4 4 0 0 1-4 4h-1.17l-1.42 1.41c-.79.79-2.03.79-2.82 0L15.17 28H14V8h8a4 4 0 0 1 4 4z" fill="#f3f3f3"/><path d="M24 12v12c0 1.1-.9 2-2 2h-2l-2 2-2-2H2c-1.1 0-2-.9-2-2V12c0-1.1.9-2 2-2h20c1.1 0 2 .9 2 2z" fill="#d38e2a"/><g fill="#fff"><circle cx="19" cy="18" r="2"/><circle cx="12" cy="18" r="2"/><circle cx="5" cy="18" r="2"/></g><circle cx="59" cy="27" r="5" fill="#d38e2a"/><path d="M58,29v-4c0-1.34,2-1.29,2,0v4c0,1.34-2,1.29-2,0Z" fill="#fff"/><circle cx="31" cy="32" r="2" fill="#d38e2a"/><path d="M17 32h10v2H17zm0 4h12v4H17z" fill="#d9d9d9"/></svg>