<svg xmlns="http://www.w3.org/2000/svg" viewBox="0 0 64 64" xmlns:v="https://vecta.io/nano"><path d="M36 12h-8V4.06a4 4 0 1 1 8 0V12z" fill="#e4c290"/><path d="M59.85 53.4H4.15a60.76 60.76 0 0 0 6.41-11.97c2.5-6.29 3.16-10.44 4.12-16.61 2.01-12.85 16.93-19.16 27.53-11.53a17.48 17.48 0 0 1 7.11 11.53c.46 3 .67 4.5 1.03 6.18 1.62 8.03 4.84 15.65 9.5 22.4z" fill="#d38e2a"/><ellipse cx="32" cy="53.92" rx="28" ry="4.92" fill="#e4c290"/><path d="M32 64c-3.31 0-6-2.69-6-6v-3c0-1.1.9-2 2-2h8c1.1 0 2 .9 2 2v3c0 3.31-2.69 6-6 6z" fill="#d38e2a"/><path d="M63 29H37c-.78 0-1.25-.83-.86-1.51l13-22c.36-.61 1.36-.61 1.72 0l13 22c.39.68-.08 1.51-.86 1.51z" fill="#1976d2"/><path d="M1 48c-.88 0-1.34-1.07-.71-1.71L2.58 44 .29 41.71c-.39-.39-.39-1.02 0-1.41l2.29-2.29-2.29-2.29c-.39-.39-.39-1.02 0-1.41l3-3c.39-.39 1.02-.39 1.41 0s.39 1.02 0 1.41l-2.29 2.29L4.7 37.3c.39.39.39 1.02 0 1.41L2.41 41l2.29 2.29c.39.39.39 1.02 0 1.41l-3 3a.98.98 0 0 1-.71.29zm62 0c-.26 0-.51-.1-.71-.29l-3-3c-.39-.39-.39-1.02 0-1.41l2.29-2.29-2.29-2.29c-.39-.39-.39-1.02 0-1.41l2.29-2.29-2.29-2.29c-.39-.39-.39-1.02 0-1.41s1.02-.39 1.41 0l3 3c.39.39.39 1.02 0 1.41l-2.29 2.29 2.29 2.29c.39.39.39 1.02 0 1.41l-2.29 2.29 2.29 2.29a1.01 1.01 0 0 1-.71 1.71z" fill="#5e9fdf"/><g fill="#fff"><path d="M50 20h0c-.57 0-1.05-.43-1.12-.99l-.63-5.02c-.13-1.05.69-1.98 1.75-1.98h0c1.06 0 1.88.93 1.75 1.98l-.63 5.02c-.07.57-.55.99-1.12.99z"/><circle cx="50" cy="24" r="2"/></g><path d="M14.5,25.98l.18-1.16c.99-6.33,5.3-11.43,10.99-13.63,1.77,7.24-3.57,14.49-11.17,14.79Z" fill="#e4c290"/><circle cx="14" cy="14" r="10" fill="#fff"/><circle cx="14" cy="14" r="7" fill="#5e9fdf"/><path d="M14 18c-.55 0-1-.45-1-1v-4.38l-.55.28c-.49.25-1.09.05-1.34-.45-.25-.49-.05-1.09.45-1.34l2-1c.67-.34 1.45.16 1.45.89v6c0 .55-.45 1-1 1z" fill="#fff"/></svg>