<?xml version="1.0" encoding="UTF-8"?><svg id="a" xmlns="http://www.w3.org/2000/svg" viewBox="0 0 64 64"><defs><style>.b{fill:#5e9fdf;}.c{fill:#e4c290;}.d{fill:#d38e2a;}.e{fill:#f3f3f3;}.f{fill:#d9d9d9;}.g{fill:#1976d2;}</style></defs><rect class="e" width="64" height="64" rx="2" ry="2"/><path class="b" d="M36,30H4L20,4l16,26Z"/><path class="g" d="M20,8L8,28h24L20,8Z"/><g><path class="b" d="M20,20h26v26H20V20Z"/><path class="b" d="M22,22h22v22H22V22Z"/></g><circle class="d" cx="47" cy="47" r="13"/><circle class="c" cx="47" cy="47" r="11"/><path class="d" d="M64,58v6h-6l6-6Z"/><path class="f" d="M16,39c-.55,0-1-.45-1-1v-3h-3c-.55,0-1-.45-1-1s.45-1,1-1h4c.55,0,1,.45,1,1v4c0,.55-.45,1-1,1Zm38-8h-4c-.55,0-1-.45-1-1v-4c0-.55,.45-1,1-1s1,.45,1,1v3h3c.55,0,1,.45,1,1s-.45,1-1,1Z"/><path class="f" d="M50,2h12v2h-12V2Zm-4,4h16v2h-16v-2ZM2,56H14v2H2v-2Zm0,4H18v2H2v-2Z"/></svg>