<svg xmlns="http://www.w3.org/2000/svg" viewBox="0 0 64 64" xmlns:v="https://vecta.io/nano"><path d="M58 28L32 43 6 28c4.79-2.76-5.34 3.08 26-15l26 15z" fill="#d38e2a"/><path d="M51 12v32H13V12c0-1.1.9-2 2-2h34c1.1 0 2 .9 2 2z" fill="#f3f3f3"/><path d="M13 29.73v2.31L6 28l2-1.15 5 2.88zM58 28l-7 4.04v-2.31l5-2.88L58 28z" fill="#e4c290"/><path d="M51 29.73V44H13V29.73l19 10.96 19-10.96z" fill="#d9d9d9"/><path d="M58,28V62c0,1.1-.9,2-2,2H8c-1.1,0-2-.9-2-2V28l26,15,26-15Z" fill="#5e9fdf"/><path d="M15 18h14v14H15zm16 3h18v2H31zm0 5h18v2H31zm0 4h18v2H31zm10.8-20a10.02 10.02 0 0 1-19.6 0h19.6z" fill="#d9d9d9"/><circle cx="32" cy="8" r="8" fill="#d38e2a"/><path d="M32 7c-1.32 0-1.32-2 0-2h2c1.32 0 1.32-2 0-2h-1c0-1.27-2-1.46-2 .18C27.82 4.32 28.67 9 32 9c1.32 0 1.32 2 0 2h-2c-1.32 0-1.32 2 0 2h1c0 1.24 2 1.49 2-.18C36.18 11.68 35.33 7 32 7z" fill="#fdfdfd"/></svg>