<?xml version="1.0" encoding="UTF-8"?><svg id="a" xmlns="http://www.w3.org/2000/svg" viewBox="0 0 64 64"><defs><style>.b{fill:#5e9fdf;}.c{fill:#fdfdfd;}.d{fill:#d38e2a;}.e{fill:#f3f3f3;}.f{fill:#d9d9d9;}.g{fill:#1976d2;}</style></defs><path class="b" d="M2,0h30c1.1,0,2,.9,2,2v62H0V2C0,.9,.9,0,2,0Z"/><path class="g" d="M34,28h30v36h-30V28Z"/><circle class="d" cx="49" cy="13" r="11"/><path class="c" d="M49,21c-.55,0-1-.45-1-1v-1h-2c-.55,0-1-.45-1-1s.45-1,1-1h3.5c.83,0,1.5-.67,1.5-1.5s-.67-1.5-1.5-1.5h-1c-1.93,0-3.5-1.57-3.5-3.5,0-1.76,1.31-3.22,3-3.46v-1.04c0-.55,.45-1,1-1s1,.45,1,1v1h2c.55,0,1,.45,1,1s-.45,1-1,1h-3.5c-.83,0-1.5,.67-1.5,1.5s.67,1.5,1.5,1.5h1c1.93,0,3.5,1.57,3.5,3.5,0,1.76-1.31,3.22-3,3.46v1.04c0,.55-.45,1-1,1Z"/><g><rect class="e" x="4" y="3" width="6" height="6" rx="1" ry="1"/><rect class="e" x="14" y="3" width="6" height="6" rx="1" ry="1"/><rect class="e" x="24" y="3" width="6" height="6" rx="1" ry="1"/><rect class="e" x="4" y="13" width="6" height="6" rx="1" ry="1"/><rect class="e" x="14" y="13" width="6" height="6" rx="1" ry="1"/><rect class="e" x="24" y="13" width="6" height="6" rx="1" ry="1"/><rect class="e" x="4" y="23" width="6" height="6" rx="1" ry="1"/><rect class="e" x="14" y="23" width="6" height="6" rx="1" ry="1"/><rect class="e" x="24" y="23" width="6" height="6" rx="1" ry="1"/><rect class="e" x="4" y="33" width="6" height="6" rx="1" ry="1"/><rect class="e" x="14" y="33" width="6" height="6" rx="1" ry="1"/><rect class="e" x="24" y="33" width="6" height="6" rx="1" ry="1"/></g><path class="g" d="M0,42H34v2H0v-2Zm16,10h2c2.21,0,4,1.79,4,4v8H12v-8c0-2.21,1.79-4,4-4Z"/><path class="e" d="M26,56H8v-1c0-4.97,4.03-9,9-9s9,4.03,9,9v1Z"/><path class="f" d="M8,56h2v8h-2v-8Zm16,0h2v8h-2v-8Zm-2,0H12c0-3.73,1.57-7.26,5-10,3.36,2.69,5,6.19,5,10Z"/><path class="b" d="M38,32h22v6h-22v-6Zm0,10h22v6h-22v-6Zm0,10h22v6h-22v-6Z"/><path class="e" d="M45,38h-4l4-6h4l-4,6Zm6,10h-4l4-6h4l-4,6Z"/><path class="b" d="M49,38h-2l4-6h2l-4,6Z"/><path class="e" d="M42,58h-4l4-6h4l-4,6Z"/><path class="b" d="M46,58h-2l4-6h2l-4,6Zm10-10h-2l4-6h2l-4,6Z"/></svg>