<svg xmlns="http://www.w3.org/2000/svg" viewBox="0 0 64 64" xmlns:v="https://vecta.io/nano"><rect x="5" y="15" width="54" height="40" rx="3" fill="#5e9fdf"/><path d="M57 18v31H7V18c0-.55.45-1 1-1h48c.55 0 1 .45 1 1z" fill="#fff"/><path d="M40 63H26l1-8h12l1 8z" fill="#1976d2"/><path d="M46,64H20c-1.34,0-1.29-2,0-2h26c1.34,0,1.29,2,0,2Z" fill="#5e9fdf"/><path d="M9 31h14v16H9zm16 4h22v2H25zm0-4h22v2H25zm0 8h22v8H25z" fill="#d9d9d9"/><rect x="16" y="3" width="32" height="25" rx="2" fill="#5e9fdf"/><g fill="#f3f3f3"><path d="M32 3.41V26c-1.28-1.28-3.02-2-4.83-2H19c-.55 0-1-.45-1-1V1c0-.55.45-1 1-1h9.59C30.51 0 32 1.56 32 3.41z"/><path d="M32 3.41V26c1.28-1.28 3.02-2 4.83-2H45c.55 0 1-.45 1-1V1c0-.55-.45-1-1-1h-9.59C33.49 0 32 1.56 32 3.41z"/></g><path d="M34 3h10v6H34zm0 8h6v2h-6zm0 4h10v2H34zM24 4h6v2h-6zm-4 4h10v2H20zm0 4h10v2H20zm0 4h10v4H20zm14 3h10v2H34z" fill="#d9d9d9"/><g fill="#d38e2a"><path d="M54 47l-2-9 9 2-7 7z"/><path d="M53.998 41.994l2.001-2.001 4.999 4.999-2.001 2.001z"/></g></svg>