<svg xmlns="http://www.w3.org/2000/svg" viewBox="0 0 64 64" xmlns:v="https://vecta.io/nano"><rect y="15" width="64" height="46" rx="3" fill="#1976d2"/><g fill="#f3f3f3"><path d="M32,15.41V58c-1.28-1.28-3.02-2-4.83-2H4V12H28.59c1.88,0,3.41,1.53,3.41,3.41Z"/><path d="M60 12v44H36.83c-1.81 0-3.55.72-4.83 2V15.41c0-1.88 1.53-3.41 3.41-3.41H60z"/></g><path d="M36 17h20v12H36zM8 17h12v18H8zm28 14h16v2H36zm0 4h20v2H36zm0 4h20v2H36zm0 4h20v2H36zm0 4h20v2H36zm0 4h20v2H36zM22 17h6v2h-6zm0 4h6v2h-6zm0 4h6v2h-6zm0 4h6v2h-6zm0 4h6v2h-6zm-12 4h18v2H10zm0 4h18v2H10zm0 4h18v2H10zm0 4h18v2H10z" fill="#d9d9d9"/><g fill="#d38e2a"><path d="M11 12v47l-2-2-2 2V12c0-1.1.9-2 2-2 .81 0 2 .63 2 2zm42 52l-2-9 9 2-7 7z"/><path d="M53.001 58.992l2.001-2.001 4.999 4.999-2.001 2.001z"/></g><path d="M46 12c0 1.76-.33 3.45-.93 5H36v8.42c-4.17 1.25-8.92.51-12.65-2.42H28v-2h-6v.79a14.65 14.65 0 0 1-2-2.57V17h-1.07c-.61-1.55-.93-3.24-.93-5h10.59c1.88 0 3.41 1.53 3.41 3.41 0-1.88 1.53-3.41 3.41-3.41H46z" fill="#d9d9d9"/><path d="M20 17v2.22A14.17 14.17 0 0 1 18.93 17H20zm8 4v2h-4.65c-.48-.37-.93-.78-1.35-1.21V21h6zm17.07-4c-1.54 4.04-4.89 7.17-9.07 8.42V17h9.07z" fill="#c8c8c8"/><path d="M42,12c0,5.45-4.43,10-10,10s-10.52-4.94-9.95-10.99c.58-5.84,6.07-9.99,11.95-8.81,4.55,.93,8,4.96,8,9.8Z" fill="#5e9fdf"/><path d="M39.99 18H38c-1.02 0-1-1.1-1-1 0-1.02-1.1-1-1-1-.55 0-1-.45-1-1v-2c0-1.02 1.1-1 1-1 1.02 0 1-1.1 1-1 0-.55.45-1 1-1h3.8a9.94 9.94 0 0 1-1.81 8z" fill="#1976d2"/><path d="M32,24c-6.62,0-12-5.38-12-12,0-1.32,2-1.32,2,0,0,5.51,4.49,10,10,10s10-4.49,10-10-4.49-10-10-10c-1.32,0-1.32-2,0-2,6.62,0,12,5.38,12,12s-5.38,12-12,12Z" fill="#d38e2a"/><path d="M34 2.2V6c0 .55-.45 1-1 1-.29 0-1 .22-1 1v1c0 .55-.45 1-1 1-.95 0-1.12.6-1.16.8l-.63 3.15c-.26 1.31-2.09 1.41-2.5.16-.82-2.45-2.97-2.68-4.65-3.1.58-5.84 6.07-9.99 11.95-8.81z" fill="#1976d2"/><path d="M21 9l-3 4h6l-3-4z" fill="#d38e2a"/></svg>