<svg xmlns="http://www.w3.org/2000/svg" viewBox="0 0 64 64" xmlns:v="https://vecta.io/nano"><rect y="2" width="64" height="50" rx="4" fill="#5e9fdf"/><path d="M44,62H20c2.75-2.75,4-6.21,4-10h16c0,4.08,1.44,7.44,4,10Z" fill="#1976d2"/><path d="M46 62H18c-.55 0-1-.45-1-1 0-.29.22-1 1-1h28c.55 0 1 .45 1 1 0 .29-.22 1-1 1zM61 5.4v15.2c0 .22-.45.4-1 .4H4c-.55 0-1-.18-1-.4V5.4c0-.22.45-.4 1-.4h56c.55 0 1 .18 1 .4z" fill="#5e9fdf"/><path d="M61 10v36c0 .55-.45 1-1 1H4c-.55 0-1-.45-1-1V6c0-.55.45-1 1-1l17 .11a3.98 3.98 0 0 1 2.2 1.39l1.6 2c.76.95 1.91 1.5 3.12 1.5H61z" fill="#fff"/><path d="M20 38c-.25 0 .38.21-8.35-3.06-.39-.15-.65-.52-.65-.94v-9c0-.55.45-1 1-1h16c.55 0 1 .45 1 1v9c0 .42-.26.79-.65.94L20 38z" fill="#e4c290"/><path d="M20 31c-.27 0 .78.37-13.36-5.07-.85-.33-.85-1.54 0-1.87 14.13-5.44 13.2-5.2 13.72-5l13 5c.85.33.85 1.54 0 1.87L20 31z" fill="#d38e2a"/><path d="M37 22h19v2H37zm0 4h19v2H37zm0 4h19v2H37z" fill="#d9d9d9"/><path d="M45 39h-6c-1.1 0-2-.9-2-2 0-.81.63-2 2-2h6c1.1 0 2 .9 2 2 0 .81-.63 2-2 2z" fill="#1976d2"/><g fill="#5e9fdf"><path d="M37 16h6v2h-6zm9 0h12v2H46z"/><circle cx="21" cy="8" r="1"/></g></svg>