<svg xmlns="http://www.w3.org/2000/svg" viewBox="0 0 64 64" xmlns:v="https://vecta.io/nano"><path d="M62,19V58H2V19c0-1.66,1.34-3,3-3H59c1.66,0,3,1.34,3,3Z" fill="#5e9fdf"/><path d="M1 58h62c.55 0 1 .45 1 1v2c0 1.66-1.34 3-3 3H3c-1.66 0-3-1.34-3-3v-2c0-.55.45-1 1-1z" fill="#1976d2"/><path d="M60 19v4H20l-4-5h43c.55 0 1 .45 1 1z" fill="#5e9fdf"/><path d="M60 23v33H4V19c0-.55.45-1 1-1h14.08c1.21 0 2.36.55 3.12 1.5l1.6 2c.86 1.03 1.97 1.5 3.12 1.5H60z" fill="#fff"/><path d="M50.57,18H13.43c.14-.68,.33-1.35,.55-2H50.02c.22,.65,.41,1.32,.55,2Z" fill="#1976d2"/><path d="M50.98 23H26.92c-1.14 0-2.26-.47-3.12-1.5l-1.6-2c-.76-.95-1.91-1.5-3.12-1.5h31.49c.41 1.88.46 3.35.41 5z" fill="#5e9fdf"/><path d="M50.98,23c-.53,10.01-8.83,18-18.98,18-12.06,0-21.14-11.17-18.57-23h5.65c4.04,0,3.78,5,7.84,5h24.06Z" fill="#f3f3f3"/><circle cx="32" cy="22" r="17" fill="#e4c290"/><circle cx="32" cy="22" r="13" fill="#d38e2a"/><g fill="#f3f3f3"><path d="M32.5 30H31c-3.81 0-5.1-5-3-5 .55 0 1 .45 1 1 0 1.1.9 2 2 2h1.5a2.5 2.5 0 1 0 0-5h-1a4.51 4.51 0 0 1-4.5-4.5 4.51 4.51 0 0 1 4.5-4.5H33c3.81 0 5.1 5 3 5-.55 0-1-.45-1-1 0-1.1-.9-2-2-2h-1.5a2.5 2.5 0 1 0 0 5h1a4.51 4.51 0 0 1 4.5 4.5 4.51 4.51 0 0 1-4.5 4.5zM9 45h46v11H9z"/><path d="M32 32c-.55 0-1-.45-1-1V13c0-.55.45-1 1-1s1 .45 1 1v18c0 .55-.45 1-1 1zm7 28H25c-.81 0-2-.63-2-2h18c0 .81-.63 2-2 2z"/></g><path d="M52,48H12c-1.66,0-3-1.34-3-3s1.34-3,3-3H52c1.66,0,3,1.34,3,3s-1.34,3-3,3Z" fill="#5e9fdf"/><path d="M52 46H12c-.55 0-1-.45-1-1 0-.29.22-1 1-1h40c.55 0 1 .45 1 1 0 .29-.22 1-1 1z" fill="#1976d2"/><path d="M16.71 4.29c-.39-.39-1.02-.39-1.41 0l-.29.29V1c0-.55-.45-1-1-1s-1 .45-1 1v3.59l-.29-.29c-.39-.39-1.02-.39-1.41 0s-.39 1.02 0 1.41l2 2c.39.39 1.02.39 1.41 0l2-2c.39-.39.39-1.02 0-1.41zm36 4c-.39-.39-1.02-.39-1.41 0l-.29.29V4.99c0-.55-.45-1-1-1s-1 .45-1 1v3.59l-.29-.29c-.39-.39-1.02-.39-1.41 0s-.39 1.02 0 1.41l2 2c.39.39 1.02.39 1.41 0l2-2c.39-.39.39-1.02 0-1.41z" fill="#d38e2a"/><path d="M9 32h4v2H9zm0 4h6v2H9z" fill="#d9d9d9"/></svg>