<?xml version="1.0" encoding="UTF-8"?><svg id="a" xmlns="http://www.w3.org/2000/svg" viewBox="0 0 64 64"><defs><style>.b{fill:#fff;}.c{fill:#5e9fdf;}.d{fill:#fdfdfd;}.e{fill:#d38e2a;}.f{fill:#f3f3f3;}.g{fill:#d9d9d9;}.h{fill:#1976d2;}</style></defs><path class="c" d="M64,18v28c0,3.31-2.69,6-6,6H6c-3.31,0-6-2.69-6-6L.12,16.8c.55-2.71,2.96-4.8,5.88-4.8H58c3.29,0,6,2.67,6,6Z"/><path class="b" d="M60,18v28c0,1.82-1.23,3.42-3,3.87-.71,.2,2.32,.13-51,.13-2.21,0-4-1.79-4-4v-5.28c0-.43,.28-.81,.68-.95,.83-.27,2.32-.56,2.32-2.21v-11.12c0-.86-.55-1.63-1.37-1.9l-.95-.31c-.4-.14-.68-.52-.68-.95v-5.28c0-2.15,1.74-4,4-4H56c2.25,0,4,1.85,4,4Z"/><path class="h" d="M57,49.87v2.13H7v-2l50-.13Z"/><path class="f" d="M57,39v10.87c-.66,.19,2.8,.13-50,.13v-11c0-2.76,2.24-5,5-5H52c2.76,0,5,2.24,5,5Z"/><rect class="c" x="9" y="36" width="46" height="28" rx="3" ry="3"/><path class="h" d="M53,41v18c-1.66,0-3,1.34-3,3H14c0-1.66-1.34-3-3-3v-18c1.66,0,3-1.34,3-3H50c0,1.66,1.34,3,3,3Z"/><circle class="c" cx="32" cy="50" r="9"/><path class="d" d="M32,57c-.55,0-1-.45-1-1v-1h-1c-.55,0-1-.45-1-1s.45-1,1-1h2c.82,0,1-.8,1-1,0-.82-.8-1-1-1-1.85,0-3-1.56-3-3,0-1.3,.84-2.42,2-2.83v-1.17c0-.55,.45-1,1-1s1,.45,1,1v1h1c.55,0,1,.45,1,1s-.45,1-1,1h-2c-.55,0-1,.45-1,1,0,.2,.18,1,1,1,1.44,0,3,1.15,3,3,0,1.16-.74,2.4-2,2.83v1.17c0,.55-.45,1-1,1Z"/><path class="c" d="M19,51h-4c-1.34,0-1.29-2,0-2h4c1.34,0,1.29,2,0,2Zm30,0h-4c-1.34,0-1.29-2,0-2h4c1.34,0,1.29,2,0,2Z"/><rect class="f" x="9" y="21" width="46" height="10" rx="1" ry="1"/><g><path class="g" d="M14,29c-.55,0-1-.45-1-1v-4c0-.55,.45-1,1-1s1,.45,1,1v4c0,.55-.45,1-1,1Z"/><path class="g" d="M15.73,28c-.17,0-.34-.04-.5-.13l-3.46-2c-.48-.28-.64-.89-.37-1.37,.28-.48,.89-.64,1.37-.37l3.46,2c.48,.28,.64,.89,.37,1.37-.19,.32-.52,.5-.87,.5Z"/><path class="g" d="M23,29c-.55,0-1-.45-1-1v-4c0-.55,.45-1,1-1s1,.45,1,1v4c0,.55-.45,1-1,1Zm-10.73-1c-.35,0-.68-.18-.87-.5-.28-.48-.11-1.09,.37-1.37l3.46-2c.48-.28,1.09-.11,1.37,.37,.28,.48,.11,1.09-.37,1.37l-3.46,2c-.16,.09-.33,.13-.5,.13Z"/><path class="g" d="M24.73,28c-.17,0-.34-.04-.5-.13l-3.46-2c-.48-.28-.64-.89-.37-1.37,.28-.48,.89-.64,1.37-.37l3.46,2c.48,.28,.64,.89,.37,1.37-.19,.32-.52,.5-.87,.5Z"/><path class="g" d="M32,29c-.55,0-1-.45-1-1v-4c0-.55,.45-1,1-1s1,.45,1,1v4c0,.55-.45,1-1,1Zm-10.73-1c-.35,0-.68-.18-.87-.5-.28-.48-.11-1.09,.37-1.37l3.46-2c.48-.28,1.09-.11,1.37,.37,.28,.48,.11,1.09-.37,1.37l-3.46,2c-.16,.09-.33,.13-.5,.13Z"/><path class="g" d="M33.73,28c-.17,0-.34-.04-.5-.13l-3.46-2c-.48-.28-.64-.89-.37-1.37,.28-.48,.89-.64,1.37-.37l3.46,2c.48,.28,.64,.89,.37,1.37-.19,.32-.52,.5-.87,.5Z"/><path class="g" d="M41,29c-.55,0-1-.45-1-1v-4c0-.55,.45-1,1-1s1,.45,1,1v4c0,.55-.45,1-1,1Zm-10.73-1c-.35,0-.68-.18-.87-.5-.28-.48-.11-1.09,.37-1.37l3.46-2c.48-.28,1.09-.11,1.37,.37,.28,.48,.11,1.09-.37,1.37l-3.46,2c-.16,.09-.33,.13-.5,.13Z"/><path class="g" d="M42.73,28c-.17,0-.34-.04-.5-.13l-3.46-2c-.48-.28-.64-.89-.37-1.37s.89-.64,1.37-.37l3.46,2c.48,.28,.64,.89,.37,1.37-.19,.32-.52,.5-.87,.5Z"/><path class="g" d="M50,29c-.55,0-1-.45-1-1v-4c0-.55,.45-1,1-1s1,.45,1,1v4c0,.55-.45,1-1,1Zm-10.73-1c-.35,0-.68-.18-.87-.5-.28-.48-.11-1.09,.37-1.37l3.46-2c.48-.28,1.09-.11,1.37,.37,.28,.48,.11,1.09-.37,1.37l-3.46,2c-.16,.09-.33,.13-.5,.13Z"/><path class="g" d="M51.73,28c-.17,0-.34-.04-.5-.13l-3.46-2c-.48-.28-.64-.89-.37-1.37s.89-.64,1.37-.37l3.46,2c.48,.28,.64,.89,.37,1.37-.19,.32-.52,.5-.87,.5Z"/></g><path class="h" d="M61.26,12.97c-.43,1.11-1.04,2.14-1.8,3.04-.68-1.2-1.98-2.01-3.46-2.01h-14.78c-.34-.63-.6-1.3-.8-2,19.25,0,18.88-.32,20.84,.97Z"/><path class="f" d="M59.46,16.01c-5.01,6.08-14.65,5.05-18.24-2.01h14.78c1.48,0,2.78,.81,3.46,2.01Z"/><path class="g" d="M48.27,28c-.35,0-.68-.18-.87-.5-.28-.48-.11-1.09,.37-1.37l3.46-2c.48-.28,1.09-.11,1.37,.37,.28,.48,.11,1.09-.37,1.37l-3.46,2c-.16,.09-.33,.13-.5,.13Z"/><circle class="e" cx="51" cy="9" r="9"/><path class="d" d="M52,13c0-1.32-2-1.32-2,0s2,1.32,2,0Zm3.96-4.95c-2.74-2.74-7.17-2.74-9.91,0-.94,.93-2.35-.49-1.41-1.42,3.53-3.51,9.19-3.51,12.73,0,.94,.93-.48,2.34-1.41,1.42Zm-2.83,2.83c-1.15-1.14-3.1-1.14-4.26,0-.94,.93-2.35-.5-1.4-1.42,1.95-1.95,5.11-1.95,7.06,0,.94,.93-.47,2.34-1.4,1.42Z"/></svg>