<svg xmlns="http://www.w3.org/2000/svg" viewBox="0 0 64 64" xmlns:v="https://vecta.io/nano"><path d="M54 24.42V50c0 6.12-3 7.88-3 14H24c0-2.5.23-4.7-1.75-7.19L20 54V15h24l4.97 1.99C52.01 18.2 54 21.15 54 24.42z" fill="#e4c290"/><path d="M46 15.8V46c0 5.48-4.45 10-10 10H21.6L20 54V15h24l2 .8z" fill="#d38e2a"/><path d="M44 8v38c0 4.44-3.62 8-8 8H18a8 8 0 0 1-8-8V8a8 8 0 0 1 8-8h18a8 8 0 0 1 8 8z" fill="#5e9fdf"/><path d="M41 7v39a3.98 3.98 0 0 1-2.22 3.58c-1.19.6-.25.42-21.78.42a4 4 0 0 1-4-4V7a4 4 0 0 1 4-4h1.56a2.01 2.01 0 0 1 1.9 1.37l.08.26A2.01 2.01 0 0 0 22.44 6h9.12a2.01 2.01 0 0 0 1.9-1.37l.08-.26A2.01 2.01 0 0 1 35.44 3H37a4 4 0 0 1 4 4z" fill="#fff"/><path d="M35 38a3.01 3.01 0 0 1-3 3H22c-1.66 0-3-1.34-3-3s1.35-3 3-3h10c1.66 0 3 1.34 3 3zm9-4.92V46a7.97 7.97 0 0 1-2.45 5.76 15.74 15.74 0 0 1-2.77-2.18A3.98 3.98 0 0 0 41 46V32.63l3 .45z" fill="#1976d2"/><path d="M41,32.63v13.37c0,1.57-.9,2.93-2.22,3.58-1.43-1.42-2.58-3.14-3.36-5.08-2.25-.96-3.83-1.46-5.45-3.5h2.03c1.65,0,3-1.35,3-3s-1.34-3-3-3h-3.98c.21-2.23,2.26-3.98,4.63-3.62l8.35,1.25Z" fill="#f3f3f3"/><path d="M35,38c0,1.65-1.35,3-3,3h-2.03c-1.45-1.81-2.1-4.15-1.95-6h3.98c1.66,0,3,1.34,3,3Z" fill="#1976d2"/><path d="M50 36v16h-.51c-5.67 0-10.7-3.63-12.49-9l-2.76-1.18c-2.57-1.1-4.24-3.63-4.24-6.43h0a2.05 2.05 0 0 1 2.36-2.03L50 36.01z" fill="#e4c290"/><path d="M50.99 35.15c-.1.6-.68.93-1.14.84l-5.85-.9v-2.03l6.15.95a1.01 1.01 0 0 1 .84 1.14z" fill="#d38e2a"/><path d="M33 48H21c-.55 0-1-.45-1-1 0-.29.22-1 1-1h12c.55 0 1 .45 1 1 0 .29-.22 1-1 1zM16 25h10v2H16zm0 4h17v2H16z" fill="#d9d9d9"/><path d="M32.1 22H21.91c-.51 0-.94-.39-1-.9l-.8-8a1 1 0 0 1 1-1.1H32.9a1.01 1.01 0 0 1 1 1.1l-.8 8a1 1 0 0 1-1 .9z" fill="#5e9fdf"/><path d="M24 14c-.68 0-1.16-.67-.95-1.32l1-3c.17-.52.74-.81 1.26-.63a1 1 0 0 1 .63 1.27l-1 3c-.14.42-.53.68-.95.68zm6 0a1.01 1.01 0 0 1-.95-.68l-1-3c-.17-.52.11-1.09.63-1.27a.99.99 0 0 1 1.26.63l1 3c.22.65-.27 1.32-.95 1.32z" fill="#1976d2"/></svg>