<svg xmlns="http://www.w3.org/2000/svg" xmlns:xlink="http://www.w3.org/1999/xlink" viewBox="0 0 64 64" xmlns:v="https://vecta.io/nano"><path d="M62,19V58H2V19c0-1.66,1.34-3,3-3H59c1.66,0,3,1.34,3,3Z" fill="#1976d2"/><path d="M1 58h62c.55 0 1 .45 1 1v2c0 1.66-1.34 3-3 3H3c-1.66 0-3-1.34-3-3v-2c0-.55.45-1 1-1z" fill="#5e9fdf"/><path d="M60 19v37H4V19c0-.55.45-1 1-1h54c.55 0 1 .45 1 1z" fill="#fff"/><path d="M39 60H25c-1.1 0-2-.9-2-2 0-.1-.84 0 18 0 0 .81-.63 2-2 2z" fill="#f3f3f3"/><g fill="#5e9fdf"><path d="M60 19v3H4v-3c0-.55.45-1 1-1h54c.55 0 1 .45 1 1z"/><path d="M38,21v1H18v-4h17c1.66,0,3,1.34,3,3Z"/></g><path d="M5 18h14c1.66 0 3 1.34 3 3v1H4v-3c0-.55.45-1 1-1z" fill="#fff"/><rect x="7" y="25" width="30" height="20" rx="2" fill="#d38e2a"/><path d="M19 31v8l6-4-6-4z" fill="#f3f3f3"/><rect x="41" y="25" width="16" height="10" rx="1" fill="#5e9fdf"/><use xlink:href="#B" fill="#f3f3f3"/><rect x="41" y="37" width="16" height="10" rx="1" fill="#5e9fdf"/><use xlink:href="#B" y="12" fill="#f3f3f3"/><path d="M57 50v3H41v-3c0-.55.45-1 1-1h14c.55 0 1 .45 1 1z" fill="#5e9fdf"/><path d="M49.67 53H47v-.68a.66.66 0 0 1 1.05-.53L49.67 53z" fill="#f3f3f3"/><circle cx="10" cy="51" r="3" fill="#5e9fdf"/><path d="M15 48h18v2H15zm0 4h11v2H15z" fill="#d9d9d9"/><path d="M29.58 16c-.2.7-.46 1.37-.8 2H9.22c-.34-.63-.6-1.3-.8-2h21.16z" fill="#1976d2"/><path d="M25.31 22c-5.36 3.8-13.02 2.04-16.09-4H18v4h7.31z" fill="#f3f3f3"/><path d="M28.78 18c-.81 1.6-2.01 2.97-3.47 4H18v-4h10.78z" fill="#5e9fdf"/><circle cx="19" cy="13" r="9" fill="#d38e2a"/><path d="M19 12c-1.32 0-1.32-2 0-2h2c1.32 0 1.32-2 0-2h-1V7c0-1.32-2-1.32-2 0l.04 1.17C14.83 9.27 15.64 14 19 14c1.32 0 1.32 2 0 2h-2c-1.32 0-1.32 2 0 2h1v1c0 1.32 2 1.32 2 0l-.04-1.17c3.21-1.1 2.4-5.83-.96-5.83z" fill="#fdfdfd"/><g fill="#1976d2"><path d="M51.49 16a11.14 11.14 0 0 1-2.17 2H36.68a11.14 11.14 0 0 1-2.17-2h16.98z"/><path d="M49.32,18c-3.79,2.67-8.85,2.67-12.64,0h12.64Z"/></g><circle cx="43" cy="9" r="9" fill="#d38e2a"/><path d="M46 13h-5v-2h3c1.32 0 1.32-2 0-2h-3V7c0-1.1.9-2 2-2s2 .9 2 2c0 .55.45 1 1 1 2.1 0 .81-5-3-5a4 4 0 0 0-4 4v2h-1c-1.32 0-1.32 2 0 2h1v3c0 .55.45 1 1 1h6c1.32 0 1.32-2 0-2z" fill="#fdfdfd"/><path d="M12 7V2c0-1.32 2-1.32 2 0v5c0 1.32-2 1.32-2 0zm6-4V1c0-1.32 2-1.32 2 0v2c0 1.32-2 1.32-2 0zm17 1V1c0-1.32 2-1.32 2 0v3c0 1.32-2 1.32-2 0zm15 5V2c0-1.32 2-1.32 2 0v7c0 1.32-2 1.32-2 0z" fill="#d9d9d9"/><defs ><path id="B" d="M47 28.32v3.36a.66.66 0 0 0 1.05.53l2.24-1.68c.35-.26.35-.79 0-1.05l-2.24-1.68c-.43-.33-1.05-.02-1.05.53z"/></defs></svg>