<svg xmlns="http://www.w3.org/2000/svg" viewBox="0 0 64 64" xmlns:v="https://vecta.io/nano"><path d="M0 23v33a4 4 0 0 0 4 4h21.15c1.14 0 2.18.64 2.68 1.66l.34.68A3 3 0 0 0 30.85 64h2.29c1.14 0 2.18-.64 2.68-1.66l.34-.68A3 3 0 0 1 38.84 60h21.15a4 4 0 0 0 4-4V23a4 4 0 0 0-4-4H4a4 4 0 0 0-4 4z" fill="#5e9fdf"/><path d="M57 13H41.66A14.54 14.54 0 0 0 32 16.63 14.54 14.54 0 0 0 22.34 13H7a3.01 3.01 0 0 0-3 3v35a3.01 3.01 0 0 0 3 3h15.34a12.58 12.58 0 0 1 8.95 3.71c.41.39 1.01.39 1.42 0A12.58 12.58 0 0 1 41.66 54H57a3.01 3.01 0 0 0 3-3V16a3.01 3.01 0 0 0-3-3z" fill="#f3f3f3"/><g fill="#d9d9d9"><path d="M34 28h22v2H34zm0-4h22v2H34zm0-4h22v2H34zm0-4h22v2H34zM8 28h22v2H8zm0-4h22v2H8zm0-4h22v2H8zm0-4h22v2H8z"/><path d="M34 16v2h12.14c-.24.69-.54 1.36-.88 2H34v2h10c-.55.72-1.16 1.39-1.82 2H34v2h5.47a14.96 14.96 0 0 1-14.94 0H30v-2h-8.18c-.66-.61-1.27-1.28-1.82-2h10v-2H18.74c-.34-.64-.64-1.31-.88-2H30v-2H17.3a14.82 14.82 0 0 1-.3-3h5.34A14.54 14.54 0 0 1 32 16.63 14.54 14.54 0 0 1 41.66 13H47a14.82 14.82 0 0 1-.3 3H34z"/></g><path d="M17.3 16H30v2H17.86c-.23-.65-.42-1.31-.56-2zm1.44 4H30v2H20a15.3 15.3 0 0 1-1.26-2zm3.08 4H30v2h-5.47c-.98-.56-1.89-1.23-2.71-2zM34 24h8.18c-.82.77-1.73 1.44-2.71 2H34v-2zm0-4h11.26A15.3 15.3 0 0 1 44 22H34v-2zm12.7-4c-.14.69-.33 1.35-.56 2H34v-2h12.7z" fill="#c8c8c8"/><circle cx="32" cy="13" r="13" fill="#fff"/><circle cx="32" cy="13" r="10" fill="#d38e2a"/><g fill="#e4c290"><path d="M31.38 22.79C28.58 20.61 26 17.91 26 13s2.59-7.61 5.38-9.79c.36-.28.87-.28 1.23 0 2.8 2.18 5.38 4.88 5.38 9.79s-2.59 7.61-5.38 9.79c-.36.28-.87.28-1.23 0zM32 5.28c-2.42 2.01-4 4.18-4 7.72s1.58 5.7 4 7.72c2.42-2.01 4-4.18 4-7.72s-1.58-5.7-4-7.72z"/><path d="M41.95 14h-19.9a9.55 9.55 0 0 1 0-2h19.9a9.55 9.55 0 0 1 0 2z"/></g><path d="M8 32h22v2H8zm0 4h22v2H8zm26 12h22v2H34zm-14-8h9v2h-9zm0 4h9v2h-9zm0 4h9v2h-9zm14-16h9v2h-9zm0 4h9v2h-9zm0 4h9v2h-9zm0 4h9v2h-9z" fill="#d9d9d9"/><rect x="8" y="40" width="10" height="10" rx="2" fill="#5e9fdf"/><rect x="46" y="32" width="10" height="14" rx="2" fill="#d38e2a"/></svg>