<svg xmlns="http://www.w3.org/2000/svg" viewBox="0 0 64 64" xmlns:v="https://vecta.io/nano"><g fill="#5e9fdf"><rect x="6" y="4.99" width="58" height="41" rx="2"/><path d="M51 52.99H17v-48h19.53a4.01 4.01 0 0 1 3.58 2.21l.79 1.58a3.99 3.99 0 0 0 3.58 2.21h6.53v42z"/></g><path d="M64 11v46c0 1.1-.9 2-2 2H2c-1.1 0-2-.9-2-2V7c0-1.1.9-2 2-2h17.53a4.02 4.02 0 0 1 3.58 2.21l.78 1.58A4.02 4.02 0 0 0 27.47 11H64z" fill="#f3f3f3"/><g fill="#1976d2"><circle cx="60" cy="7.99" r="1"/><circle cx="56" cy="7.99" r="1"/><circle cx="52" cy="7.99" r="1"/></g><g fill="#5e9fdf"><circle cx="20" cy="7.99" r="1"/><rect x="4" y="15" width="12" height="18" rx="2"/></g><rect x="40" y="36" width="18" height="22" rx="2" transform="matrix(0 -1 1 0 2 96)" fill="#d38e2a"/><path d="M27 15h26v2H27zm-7 4h33v2H20zm0 4h33v2H20zm0 4h33v2H20zm0 4h33v2H20zM4 38h30v2H4zm0 4h30v2H4zm0 4h30v2H4zm0 4h30v2H4zm0 4h30v2H4z" fill="#d9d9d9"/><path d="M47 51a1.01 1.01 0 0 1-.95-.68L45 47.17l-1.05 3.15c-.17.52-.74.81-1.26.63a1 1 0 0 1-.63-1.27l2-6c.3-.91 1.59-.91 1.9 0l2 6c.22.65-.27 1.32-.95 1.32zm5 0h-1c-.55 0-1-.45-1-1v-6c0-.55.45-1 1-1h1a4 4 0 1 1 0 8zm0-2h0zm0-4v4c1.1 0 2-.9 2-2s-.9-2-2-2z" fill="#fff"/><path d="M56 15h4v2h-4zm0 4h4v2h-4zm0 4h4v2h-4zm0 4h4v2h-4zm0 4h4v2h-4z" fill="#d9d9d9"/></svg>