<svg xmlns="http://www.w3.org/2000/svg" xmlns:xlink="http://www.w3.org/1999/xlink" viewBox="0 0 64 64" xmlns:v="https://vecta.io/nano"><rect x="5" y="15" width="54" height="40" rx="3" fill="#5e9fdf"/><path d="M57 18v31H7V18c0-.55.45-1 1-1h48c.55 0 1 .45 1 1z" fill="#fff"/><path d="M40 63H26l1-8h12l1 8z" fill="#1976d2"/><path d="M46,64H20c-1.34,0-1.29-2,0-2h26c1.34,0,1.29,2,0,2Z" fill="#5e9fdf"/><rect width="24" height="20" rx="2" fill="#1976d2"/><g fill="#5e9fdf"><circle cx="19" cy="10" r="2"/><circle cx="12" cy="10" r="2"/></g><circle cx="5" cy="10" r="2" fill="#f3f3f3"/><path d="M14 20l2 2 2-2" fill="#1976d2"/><g fill="#d38e2a"><rect x="43" y="5" width="16" height="14" rx="1"/><path d="M58 10l3.59-4.66c.96-.8 2.41-.11 2.41 1.13v11.06c0 1.25-1.46 1.92-2.41 1.13L58 14"/></g><circle cx="51" cy="12" r="3" fill="#f3f3f3"/><g fill="#5e9fdf"><path d="M48,30c-1.32,0-1.32-2,0-2s1.32,2,0,2Z"/><use xlink:href="#B"/><path d="M53.19 33a6.05 6.05 0 0 0-2.65-2.43c1.26-2-.22-4.57-2.54-4.57s-3.8 2.57-2.54 4.57A6.05 6.05 0 0 0 42.81 33c-2.29-3.88.5-9 5.19-9s7.48 5.12 5.19 9z"/></g><g fill="#d38e2a"><path d="M32,30c-1.32,0-1.32-2,0-2s1.32,2,0,2Z"/><use xlink:href="#B" x="-16"/><path d="M37.19 33a6.05 6.05 0 0 0-2.65-2.43c1.26-2-.22-4.57-2.54-4.57s-3.8 2.57-2.54 4.57A6.05 6.05 0 0 0 26.81 33c-2.29-3.88.5-9 5.19-9s7.48 5.12 5.19 9z"/></g><g fill="#5e9fdf"><path d="M16,30c-1.32,0-1.32-2,0-2s1.32,2,0,2Z"/><use xlink:href="#B" x="-32"/><path d="M21.19 33a6.05 6.05 0 0 0-2.65-2.43c1.26-2-.22-4.57-2.54-4.57s-3.8 2.57-2.54 4.57A6.05 6.05 0 0 0 10.81 33c-2.29-3.88.5-9 5.19-9s7.48 5.12 5.19 9z"/></g><path d="M10 38h12v2H10zm3 4h6v2h-6zm16 0h6v2h-6zm16 0h6v2h-6zm-19-4h12v2H26zm16 0h12v2H42z" fill="#d9d9d9"/><defs ><path id="B" d="M51.77,34.67c-2.18,1.75-5.31,1.79-7.54,0,1.25-3.55,6.29-3.55,7.54,0Z"/></defs></svg>