<svg xmlns="http://www.w3.org/2000/svg" viewBox="0 0 64 64" xmlns:v="https://vecta.io/nano"><rect x="4" y="15" width="54" height="40" rx="3" fill="#5e9fdf"/><path d="M56 18v31H6V18c0-.55.45-1 1-1h48c.55 0 1 .45 1 1z" fill="#fff"/><path d="M39 63H25l1-8h12l1 8z" fill="#1976d2"/><path d="M45,64H19c-1.34,0-1.29-2,0-2h26c1.34,0,1.29,2,0,2Z" fill="#5e9fdf"/><path d="M29 17H17v-2h7.38L29 17z" fill="#1976d2"/><path d="M40,17v3c-11.27,6.15-10.8,6.1-11.47,5.77l-10.98-5.49c-.71-.35-.55-.86-.55-3.28h23Z" fill="#f3f3f3"/><g fill="#5e9fdf"><path d="M42 10.8v7.61c0 .37-.2.7-.52.88l-9.56 5.22c-.57.31-1.27.33-1.85.03l-10.51-5.26a1 1 0 0 1-.55-.89v-7.58l12 5.2 11-5.2z"/><path d="M51 8l-20 8-20-8 20-8 20 8z"/></g><path d="M40 24V12.68l-9.37-3.75c-1.23-.49-.49-2.35.74-1.86l10 4A1 1 0 0 1 42 12v12c0 1.32-2 1.32-2 0z" fill="#1976d2"/><path d="M9 30h14v16H9zm16 0h12v2H25zm0 4h22v2H25zm0 4h22v8H25z" fill="#d9d9d9"/><g fill="#d38e2a"><path d="M53 46l-2-9 9 2-7 7z"/><path d="M53.003 40.994l2.001-2.001 4.999 4.999-2.001 2.001z"/></g></svg>