<?xml version="1.0" encoding="UTF-8"?><svg id="a" xmlns="http://www.w3.org/2000/svg" viewBox="0 0 64 59.1"><defs><style>.b{fill:#fff;}.c{fill:#5e9fdf;}.d{fill:#d38e2a;}.e{fill:#f3f3f3;}.f{fill:#d9d9d9;}.g{fill:#1976d2;}</style></defs><g><rect class="g" width="64" height="48" rx="3" ry="3"/><path class="g" d="M39.81,58.05l-16-.1,1.07-10,14,.1,.93,10Z"/></g><path class="c" d="M46.81,59.1l-30-.2c-1.34,0-1.28-2.01,.01-2l30,.2c1.34,0,1.28,2.01,0,2Z"/><path class="b" d="M3,2H61c.55,0,1,.45,1,1V42H2V3c0-.55,.45-1,1-1Z"/><path class="e" d="M45,4h15V40h-15V4Z"/><path class="f" d="M49,4h11v2h-11v-2Zm0,16h11v2h-11v-2ZM8,4h12v2H8v-2Zm0,4h8v2H8v-2Z"/><path class="g" d="M48,9h10v2h-10v-2Z"/><path class="d" d="M48,14h10v2h-10v-2ZM5,27l12-10,11,12,10-11v21H5v-12Z"/><path class="g" d="M28,30c-.63,0,.16,.66-11.09-11.62L5.64,27.77c-1.02,.85-2.3-.69-1.28-1.54l12-10c.41-.34,1.02-.3,1.38,.09l10.26,11.19,9.26-10.19c.89-.98,2.37,.37,1.48,1.35-10.85,11.94-10.11,11.33-10.74,11.33Z"/><path class="f" d="M39,40H5c-.55,0-1-.45-1-1V11c0-.55,.45-1,1-1s1,.45,1,1v27H39c.55,0,1,.45,1,1s-.45,1-1,1Z"/><path class="c" d="M53,30c-1.32,0-1.32-2,0-2h2c1.32,0,1.32-2,0-2h-1v-1c0-1.32-2-1.32-2,0v1.18c-3.18,1.14-2.33,5.82,1,5.82,1.32,0,1.32,2,0,2h-2c-1.32,0-1.32,2,0,2h1v1c0,1.32,2,1.32,2,0v-1.18c3.18-1.14,2.33-5.82-1-5.82Z"/></svg>