<svg xmlns="http://www.w3.org/2000/svg" viewBox="0 0 64 64" xmlns:v="https://vecta.io/nano"><rect x="4" width="48" height="64" rx="3" fill="#5e9fdf"/><path d="M50 3v58c0 .55-.45 1-1 1H7c-.55 0-1-.45-1-1V3c0-.55.45-1 1-1h13c0 1.1.9 2 2 2 12.67 0 12.6.24 13.41-.59.37-.36.59-.86.59-1.41h13c.55 0 1 .45 1 1z" fill="#fff"/><path d="M46 60H10c-1.34 0-1.29-2 0-2h36c1.34 0 1.29 2 0 2zM11 9h2v7c0 1.32 2 1.32 2 0V9h2c1.32 0 1.32-2 0-2h-6c-1.32 0-1.32 2 0 2zm10.94 7.35l.51-1.35h3.11l.51 1.35c.46 1.24 2.34.54 1.87-.7l-3-8c-.32-.86-1.55-.86-1.87 0l-3 8c-.46 1.24 1.41 1.94 1.87.7zm2.06-5.5l.81 2.15H23.2l.81-2.15zM34 15h-3c-1.32 0-1.32 2 0 2h3a3.01 3.01 0 0 0 3-3 3.01 3.01 0 0 0-3-3h-1c-1.32 0-1.32-2 0-2h3c1.32 0 1.32-2 0-2h-3a3.01 3.01 0 0 0-3 3 3.01 3.01 0 0 0 3 3h1c1.32 0 1.32 2 0 2zm7 1v-1.64l.8-.96 2.4 3.2c.79 1.06 2.4-.14 1.6-1.2l-2.68-3.58 2.65-3.18c.85-1.02-.69-2.29-1.54-1.28L41 11.24V8c0-1.32-2-1.32-2 0v8c0 1.32 2 1.32 2 0zm-31 3h36v2H10zm10 6h26v2H20zM10 42h19v2H10zm0 4h19v2H10zm0 4h19v2H10zm6-21h30v2H16zm0 4h30v2H16zm0 4h30v2H16zm-6-12v2h1v4h2v-5c0-.55-.45-1-1-1h-2zm22 17h14v12H32z" fill="#d9d9d9"/><path d="M60 25v34l-2 4-2-4V25c0-1.1.9-2 2-2 .81 0 2 .63 2 2z" fill="#d38e2a"/><path d="M56 26h4v3h-4z" fill="#f3f3f3"/></svg>