<svg xmlns="http://www.w3.org/2000/svg" viewBox="0 0 64 64" xmlns:v="https://vecta.io/nano"><g fill="#1976d2"><path d="M62,19V58H2V19c0-1.66,1.34-3,3-3H59c1.66,0,3,1.34,3,3Z"/><path d="M1 58h62c.55 0 1 .45 1 1v2c0 1.66-1.34 3-3 3H3c-1.66 0-3-1.34-3-3v-2c0-.55.45-1 1-1z"/></g><path d="M60 19v4H20l-4-5h43c.55 0 1 .45 1 1z" fill="#5e9fdf"/><path d="M60 23v33H4V19c0-.55.45-1 1-1h14.08c1.21 0 2.36.55 3.12 1.5l1.6 2c.86 1.03 1.97 1.5 3.12 1.5H60z" fill="#fff"/><rect x="7" y="32" width="22" height="14" rx="2" fill="#1976d2"/><rect x="35" y="39" width="22" height="14" rx="2" fill="#d38e2a"/><path d="M39 60H25c-.81 0-2-.63-2-2h18c0 .81-.63 2-2 2z" fill="#f3f3f3"/><g fill="#1976d2"><path d="M52 18H12l.09-2H51.9l.1 2z"/><path d="M52 18a19.6 19.6 0 0 1-.65 5H26.92c-1.14 0-2.26-.47-3.12-1.5l-1.6-2c-.76-.95-1.91-1.5-3.12-1.5H52z"/></g><path d="M51.35 23c-.32 1.27-.77 2.5-1.35 3.69V33a3.01 3.01 0 0 1-3 3h-6.32c-3.48 1.69-7.2 2.28-10.91 1.88-.26-.03-.52-.06-.77-.11V34c0-1.1-.9-2-2-2h-9.28C14.12 28.32 12 23.39 12 18h7.08c1.21 0 2.36.55 3.12 1.5l1.6 2c.86 1.03 1.97 1.5 3.12 1.5h24.43z" fill="#f3f3f3"/><path d="M29 34v3.77a18.64 18.64 0 0 1-2-.41V36h-3.71c-2.09-1.01-3.97-2.37-5.57-4H27c1.1 0 2 .9 2 2z" fill="#1976d2"/><path d="M17 36h10v2H17z" fill="#fff"/><path d="M27 36v1.36c-1.3-.33-2.53-.78-3.71-1.36H27z" fill="#f3f3f3"/><path d="M48.2 25.81C53.7 14.46 46 1.22 33.72.08a18.01 18.01 0 0 0-19.64 19.64c1.13 12.25 14.35 19.99 25.73 14.49.27-.13.56-.2.86-.2h6.32c.55 0 1-.45 1-1 0-6.99-.07-6.62.2-7.19z" fill="#5e9fdf"/><path d="M41.28 21.44l-2.37-2.37c-.65-.65-1.61-.88-2.48-.59l-3.72 1.24-3.43-3.43 1.24-3.72c.29-.87.06-1.83-.59-2.48l-2.37-2.37a2.42 2.42 0 0 0-3.43 0 7.28 7.28 0 0 0 0 10.29l6.86 6.86a7.28 7.28 0 0 0 10.29 0 2.43 2.43 0 0 0 0-3.43zM9 36h6v2H9zm18 6h-6v-2h6zm-8 0H9v-2h10zm18 1h6v2h-6zm8 0h10v2H45zm10 6h-6v-2h6zm-8 0H37v-2h10z" fill="#fff"/><circle cx="56" cy="36" r="1" fill="#d38e2a"/><circle cx="8" cy="49" r="1" fill="#1976d2"/></svg>