<svg xmlns="http://www.w3.org/2000/svg" viewBox="0 0 64 64" xmlns:v="https://vecta.io/nano"><rect y="10" width="64" height="46" rx="3" fill="#1976d2"/><g fill="#f3f3f3"><path d="M32 10.41V53c-1.28-1.28-3.02-2-4.83-2H4V7h24.59C30.51 7 32 8.56 32 10.41z"/><path d="M32 10.41V53c1.28-1.28 3.02-2 4.83-2H60V7H35.41C33.49 7 32 8.56 32 10.41z"/></g><path d="M36 12h20v12H36zM8 12h12v18H8zm28 14h16v2H36zm0 4h20v2H36zm0 4h20v2H36zm0 4h20v2H36zm0 4h20v2H36zm0 4h20v2H36zM22 12h6v2h-6zm0 4h6v2h-6zm0 4h6v2h-6zm0 4h6v2h-6zm0 4h6v2h-6zm-12 4h18v2H10zm0 4h18v2H10zm0 4h18v2H10zm0 4h18v2H10z" fill="#d9d9d9"/><g fill="#d38e2a"><path d="M11 7v47l-2-2-2 2V7c0-1.1.9-2 2-2 .81 0 2 .63 2 2zm42 52l-2-9 9 2-7 7z"/><path d="M52.996 53.997l2.001-2.001 4.999 4.999-2.001 2.001z"/></g></svg>