<svg xmlns="http://www.w3.org/2000/svg" viewBox="0 0 64 64" xmlns:v="https://vecta.io/nano"><rect width="64" height="8" rx="2" fill="#5e9fdf"/><path d="M4,8H60V54c0,1.1-.9,2-2,2H6c-1.1,0-2-.9-2-2V8h0Z" fill="#f3f3f3"/><g fill="#5e9fdf"><path d="M31 56h2v4h-2z"/><circle cx="32" cy="61" r="3"/></g><path d="M60 10H4c-1.1 0-2-.9-2-2C2 7.9.48 8 62 8c0 .81-.63 2-2 2z" fill="#1976d2"/><g fill="#5e9fdf"><path d="M32 45c-.55 0-1-.45-1-1V22c0-.55.45-1 1-1s1 .45 1 1v22c0 .55-.45 1-1 1z"/><path d="M49,45c-.55,0-1-.45-1-1v-9c0-.55-.45-1-1-1H17c-.55,0-1,.45-1,1v9c0,.55-.45,1-1,1s-1-.45-1-1v-9c0-1.65,1.35-3,3-3h30c1.65,0,3,1.35,3,3v9c0,.55-.45,1-1,1Z"/></g><g fill="#d38e2a"><circle cx="32" cy="22" r="8"/><circle cx="15" cy="44" r="7"/><circle cx="32" cy="44" r="7"/><circle cx="49" cy="44" r="7"/></g><g fill="#e4c290"><path d="M37.45,24.5c-2.13,4.66-8.77,4.66-10.9,0,2.13-4.66,8.77-4.66,10.9,0Z"/><circle cx="32" cy="19" r="3"/><path d="M19.59,46c-1.77,3.99-7.41,4-9.18,0,1.77-3.99,7.41-4,9.18,0Z"/><circle cx="15" cy="42" r="3"/><path d="M36.59,46c-1.77,3.99-7.41,4-9.18,0,1.77-3.99,7.41-4,9.18,0Z"/><circle cx="32" cy="42" r="3"/><path d="M53.59,46c-1.77,3.99-7.41,4-9.18,0,1.77-3.99,7.41-4,9.18,0Z"/><circle cx="49" cy="42" r="3"/></g><path d="M8 14h8v2H8zm0 8h8v2H8zm0-4h12v2H8zm40 9h8v2h-8zm-2-4h10v2H46z" fill="#d9d9d9"/><path d="M12 5H4c-.55 0-1-.45-1-1 0-.29.22-1 1-1h8c.55 0 1 .45 1 1 0 .29-.22 1-1 1z" fill="#fff"/></svg>