<svg xmlns="http://www.w3.org/2000/svg" viewBox="0 0 64 64" xmlns:v="https://vecta.io/nano"><g fill="#d9d9d9"><path d="M40 58H24c-.55 0-1-.45-1-1s.45-1 1-1h16c.55 0 1 .45 1 1s-.45 1-1 1zm12-7c-.55 0-1-.45-1-1V38a3.01 3.01 0 0 0-3-3H32c-.55 0-1-.45-1-1s.45-1 1-1h16c2.76 0 5 2.24 5 5v12c0 .55-.45 1-1 1z"/><path d="M12 51c-.55 0-1-.45-1-1V38c0-2.76 2.24-5 5-5h15V11c0-.55.45-1 1-1s1 .45 1 1v23c0 .55-.45 1-1 1H16a3.01 3.01 0 0 0-3 3v12c0 .55-.45 1-1 1z"/></g><path d="M46 35.07v-2.14c0-1.07-.86-1.93-1.93-1.93-1.98 0-2.65-2.18-1.5-3.32.99-.99.73-2.18.09-2.82l-1.51-1.51a1.94 1.94 0 0 0-2.73 0c-1.4 1.4-3.41.32-3.41-1.29 0-1.4-1.02-2.06-1.93-2.06h-2.14c-1.07 0-1.93.86-1.93 1.93 0 1.98-2.18 2.65-3.32 1.5-.99-.99-2.18-.73-2.82-.09l-1.51 1.51a1.94 1.94 0 0 0 0 2.73c1.41 1.41.32 3.41-1.29 3.41-1.4 0-2.06 1.02-2.06 1.93v2.14c0 1.07.86 1.93 1.93 1.93 1.98 0 2.65 2.18 1.5 3.32-.99.99-.73 2.18-.09 2.82l1.51 1.51a1.94 1.94 0 0 0 2.73 0c1.4-1.4 3.41-.32 3.41 1.29 0 1.4 1.02 2.06 1.93 2.06h2.14c1.07 0 1.93-.86 1.93-1.93 0-1.98 2.18-2.65 3.32-1.5.99.99 2.18.73 2.82.09l1.51-1.51a1.94 1.94 0 0 0 0-2.73c-1.4-1.4-.32-3.41 1.29-3.41 1.4 0 2.06-1.02 2.06-1.93z" fill="#d38e2a"/><circle cx="32" cy="34" r="6" fill="#f3f3f3"/><g fill="#5e9fdf"><rect x="20" width="24" height="14" rx="2"/><rect y="50" width="24" height="14" rx="2"/></g><path d="M23 4h11v2H23zm14 0h4v2h-4zm4 6H30V8h11zm-14 0h-4V8h4z" fill="#fff"/><rect x="40" y="50" width="24" height="14" rx="2" fill="#5e9fdf"/><path d="M3 54h11v2H3zm14 0h4v2h-4zm4 6H10v-2h11zM7 60H3v-2h4zm36-6h11v2H43zm14 0h4v2h-4zm4 6H50v-2h11zm-14 0h-4v-2h4z" fill="#fff"/></svg>